<svg width="233" height="58" viewBox="0 0 233 58" fill="none" xmlns="http://www.w3.org/2000/svg">
<path d="M5.0843 21.9635C5.0843 19.6447 5.85708 17.5042 7.15027 15.7651C6.37733 15.7651 5.60436 15.7057 4.89088 15.7057C1.78425 15.5719 0.297902 14.2192 0.506001 11.7072C0.699236 9.19514 1.6655 7.6344 5.79775 7.82763C8.25035 7.96141 11.0299 8.02087 13.9433 8.02087V6.40067C14.0028 2.65488 16.0095 0.529297 18.7891 0.529297C21.8214 0.529297 23.6941 1.95626 23.7684 6.86146V8.02087C26.1615 7.96141 28.4804 7.88709 30.5466 7.76818C34.2923 7.57494 36.4922 8.80867 36.4922 11.4545C36.4922 14.1003 35.3328 15.3935 32.033 15.5868C31.4533 15.5868 30.8736 15.6462 30.2196 15.6462C31.5128 17.4597 32.226 19.5852 32.226 21.9784C32.226 28.697 26.028 33.0225 18.4621 33.0225C10.8962 33.0225 5.0843 28.697 5.0843 21.9784V21.9635ZM18.7742 25.6498C21.8065 25.6498 23.62 23.9702 23.62 20.9379C23.62 18.1583 21.9997 16.2259 18.7742 16.2259C15.5487 16.2259 13.735 18.1583 13.735 21.1311C13.735 24.104 15.9351 25.6498 18.7742 25.6498ZM32.9841 32.9482C41.0554 32.9482 46.8674 37.2142 46.8674 45.0922C46.8674 52.0636 41.6946 57.2363 32.9841 57.2363C24.2737 57.2363 18.3282 52.0636 18.3282 45.0922C18.3282 37.2737 24.1994 32.9482 32.9841 32.9482ZM32.7911 48.8975C35.8234 48.8975 37.8299 47.2178 37.8299 44.9585C37.8299 42.3721 35.8977 40.96 32.7911 40.96C29.8777 40.96 27.8858 42.3126 27.8858 44.9585C27.8858 47.2178 29.8925 48.8975 32.7911 48.8975ZM44.5485 1.74816C47.5808 1.61439 49.9148 3.04135 50.0337 9.0465V9.56675C51.9066 9.56675 53.8389 9.50729 55.2064 9.43297C57.659 9.29919 58.6993 10.9788 58.6993 13.1193C58.6993 15.0516 57.6589 16.5381 55.0874 16.6718L50.1077 16.8651V20.5514C52.0401 20.5514 53.8538 20.492 55.2064 20.4176C57.1388 20.3582 58.6993 21.4581 58.6993 23.9107C58.6993 26.3633 57.1535 27.5227 55.0874 27.6565L49.9891 27.8497V28.5632C49.8553 32.309 47.9823 34.2414 45.0838 34.2414C42.1853 34.2414 40.4312 32.2347 40.4906 27.9092C40.5501 23.8364 40.5501 13.5058 40.1637 8.60057C39.7772 3.81429 41.5162 1.88194 44.5485 1.74816Z" fill="#231815"/>
<path d="M60.5868 27.0769C63.7529 20.5515 69.8918 11.7667 75.0497 5.62777C76.6699 3.69542 79.8955 2.40224 82.6008 4.20081C84.8007 5.68723 85.3806 8.39252 83.1212 11.1127L80.6089 14.2193C83.8344 18.2178 88.6209 22.2311 92.3667 25.7837C95.726 28.9497 95.0867 31.5956 93.7192 33.082C92.099 34.8954 89.6464 35.3414 85.5141 32.1753C82.5413 29.9159 78.082 26.3634 74.7227 22.2906C72.6566 25.2634 70.7836 28.2363 69.4309 30.6294C66.904 35.1481 64.7192 35.7278 62.2667 34.6279C59.6208 33.4685 58.3274 31.7145 60.5868 27.0769ZM67.558 39.7412C67.8107 38.3885 69.4309 36.3224 72.4038 36.4413C75.7631 36.5751 77.2495 38.0615 77.2495 41.1533C77.2495 42.0005 77.3089 44.3788 77.19 46.0585C77.1306 47.1584 77.7105 47.3517 78.4834 47.3517C86.629 47.3517 96.7663 47.3517 104.392 47.1584C108.524 47.0246 111.17 48.5854 111.244 51.4245C111.304 54.4568 109.565 56.0175 106.071 56.077C95.5476 56.2702 83.4036 56.7904 72.6716 55.9432C69.1191 55.6905 67.1122 55.0365 66.919 51.3501C66.7852 48.7638 67.1121 42.3127 67.558 39.7263V39.7412ZM103.99 1.76307C107.023 1.51038 109.357 3.05626 109.475 9.06141L109.609 16.3597C111.541 16.4935 113.355 16.4192 115.094 16.226C117.026 16.0327 118.201 17.9056 118.201 20.0312C118.201 21.9636 117.294 23.9108 115.228 24.2972C113.548 24.6243 111.482 24.6243 109.549 24.431C109.549 26.2445 109.416 31.2091 109.356 33.7955C109.223 37.9277 107.424 40.1276 104.511 40.1276C101.597 40.1276 99.5311 38.121 99.6054 33.7955C99.6649 29.7227 100.379 18.2921 99.4719 8.60062C99.0259 3.81434 101.017 2.01577 103.99 1.74821V1.76307Z" fill="#231815"/>
<path d="M160.252 51.9447C160.252 51.2312 160.311 48.3327 160.192 46.7719C160.058 44.9585 159.746 44.899 157.799 44.6463C150.248 43.7396 142.355 44.2004 133.065 45.1666C128.085 45.6868 125.767 44.1261 125.767 40.9749C125.767 38.0615 127.446 36.9021 131.965 36.3818C135.458 35.9953 139.07 35.7427 142.756 35.6683C142.816 33.6022 142.816 31.2834 142.816 29.2767C136.157 29.2767 129.84 29.2173 125.44 29.1429C122.021 29.0835 120.267 27.4038 120.267 24.7431C120.267 22.5432 121.694 20.6109 125.826 20.7446C136.737 20.9973 160.579 20.9379 170.211 20.6109C174.596 20.4771 175.829 22.5432 175.829 24.8769C175.829 27.3295 174.09 29.1429 170.791 29.2024C167.179 29.2619 160.713 29.3362 153.607 29.3362C153.607 31.2685 153.608 33.5279 153.667 35.7278C156.833 35.8616 159.999 36.0548 163.225 36.3075C168.65 36.7534 169.423 38.3736 169.616 41.7924C169.869 45.8652 169.809 50.1907 169.616 52.2568C169.364 55.8688 167.297 56.8499 164.711 56.8499C161.991 56.8499 160.252 55.2297 160.252 51.9447ZM131.118 2.78866C140.869 2.26841 153.474 2.40219 164.25 2.92244C168.323 3.11567 169.423 5.04802 169.542 7.6344C169.676 10.2802 169.482 14.353 169.155 15.8989C168.635 18.2921 166.896 19.6447 163.923 19.5109C161.01 19.4515 159.791 18.2177 159.85 15.8989C159.91 14.5463 159.91 12.9261 159.85 12.2126C159.791 11.2464 159.523 10.9194 158.23 10.8599C149.891 10.4735 141.954 10.6667 132.01 10.9937C127.937 11.1275 126.004 9.56675 126.004 6.92092C126.004 4.6021 127.684 2.9819 131.103 2.78866H131.118Z" fill="#231815"/>
<path d="M222.206 47.4849C222.339 45.1661 222.533 37.6597 222.533 29.5884C219.946 29.7816 217.048 29.6478 214.907 29.2614C213.941 29.0681 213.228 28.6817 212.708 28.1614C211.801 36.7529 205.216 41.8514 196.104 41.8514C186.992 41.8514 179.887 35.2665 179.887 26.2142C179.887 17.1619 187.513 10.5176 196.818 10.5176C204.503 10.5176 210.701 15.1701 212.321 22.3346C212.96 21.4279 214 20.7888 215.427 20.655C216.78 20.5212 219.694 20.328 222.399 20.328C222.34 17.3551 222.013 13.1634 221.24 9.99732C220.392 6.50423 221.626 3.8584 225.832 3.8584C228.746 3.8584 231.511 5.4786 231.704 11.4837C231.897 17.4889 232.343 37.7786 231.897 47.47C231.704 51.6023 230.084 54.1887 226.858 54.1887C223.633 54.1887 221.879 51.7955 222.206 47.47V47.4849ZM196.565 32.5612C200.058 32.5612 202.957 30.2424 202.957 26.0358C202.957 21.8293 200.043 19.5104 196.565 19.5104C193.265 19.5104 190.292 22.0968 190.292 26.0358C190.292 30.2275 193.206 32.5612 196.565 32.5612Z" fill="#231815"/>
</svg>
