<svg width="283" height="56" viewBox="0 0 283 56" fill="none" xmlns="http://www.w3.org/2000/svg">
<path d="M54.7773 39.5736C63.7999 26.2552 63.2796 10.1722 53.6476 3.64676C44.0007 -2.87863 28.8838 2.62113 19.8612 15.9395C10.8386 29.2578 11.3589 45.3409 20.9909 51.8663C30.6378 58.3917 45.7547 52.8919 54.7773 39.5736Z" fill="white"/>
<path d="M95.1633 25.3781C94.7917 25.7349 94.1079 25.943 93.1863 25.943H81.9638C81.1017 25.943 80.4625 25.7497 80.0315 25.3781C79.6153 25.0065 79.3923 24.3525 79.3923 23.4458V12.9368C79.3923 12.0449 79.5856 11.376 79.9869 11.0193C80.3585 10.6625 81.0125 10.4842 81.9638 10.4842H93.1863C94.1228 10.4842 94.7917 10.6625 95.1633 11.049C95.5497 11.4058 95.7281 12.0746 95.7281 12.9814V23.4458C95.7281 24.3525 95.5349 25.0065 95.1633 25.3781ZM91.581 14.2746C91.581 14.0813 91.5512 13.9624 91.4918 13.8881C91.4175 13.8286 91.2986 13.7989 91.0905 13.7989H84.0448C83.8516 13.7989 83.703 13.8286 83.6584 13.8881C83.5989 13.9327 83.5543 14.0367 83.5543 14.2448V22.1377C83.5543 22.3607 83.584 22.4945 83.6584 22.5391C83.703 22.5837 83.8367 22.5985 84.0448 22.5985H91.0905C91.2986 22.5985 91.4175 22.5837 91.4918 22.5391C91.5512 22.4796 91.581 22.3607 91.581 22.1377V14.2894V14.2746ZM106.713 46.188C106.609 46.307 106.49 46.3516 106.401 46.3516H86.6906C85.7245 46.3516 85.0704 46.1732 84.7137 45.8164C84.357 45.4597 84.1935 44.88 84.1935 44.1071V38.3546C84.1935 37.5817 84.357 37.0317 84.6988 36.7047C85.0556 36.3628 85.6947 36.1993 86.6609 36.1993H101.332C101.555 36.1993 101.689 36.1696 101.733 36.0655C101.778 36.0061 101.808 35.8723 101.808 35.6344V33.7021C101.808 33.4345 101.778 33.271 101.733 33.2116C101.689 33.167 101.54 33.1373 101.287 33.1373H84.6096C84.4907 33.1373 84.3718 33.0927 84.2678 33.0035C84.1637 32.9292 84.1043 32.8251 84.1043 32.6913V30.2982C84.1043 30.1941 84.1637 30.0752 84.2678 29.9563C84.3718 29.8523 84.4907 29.8077 84.6096 29.8077H103.398C104.424 29.8077 105.093 29.986 105.449 30.3131C105.806 30.6549 105.97 31.2495 105.97 32.0522V37.0763C105.97 37.9235 105.806 38.5032 105.449 38.8005C105.093 39.1127 104.439 39.291 103.398 39.291H88.8608C88.6379 39.291 88.5041 39.3059 88.4595 39.3802C88.4 39.4397 88.3703 39.5586 88.3703 39.7518V42.5909C88.3703 42.8139 88.4 42.9476 88.4595 42.9774C88.5041 43.0071 88.6527 43.0368 88.9054 43.0368H106.386C106.505 43.0368 106.624 43.0814 106.743 43.1855C106.847 43.2895 106.921 43.4084 106.921 43.5571V45.8759C106.921 45.9948 106.861 46.0989 106.743 46.2178M105.464 26.1362H102.194C102.075 26.1362 101.956 26.0767 101.852 25.9876C101.733 25.8984 101.674 25.7646 101.674 25.616V9.81529C101.674 9.71124 101.733 9.59232 101.852 9.48827C101.956 9.38422 102.075 9.35449 102.194 9.35449H105.464C105.821 9.35449 105.984 9.48827 105.984 9.80042V25.6011C105.984 25.9578 105.821 26.1213 105.464 26.1213" fill="#3D3939"/>
<path d="M129.767 18.2881C129.767 19.3435 129.544 20.3542 129.128 21.3204C128.712 22.3015 128.117 23.1487 127.344 23.8771C126.586 24.6203 125.65 25.2148 124.55 25.631C123.435 26.077 122.231 26.2851 120.878 26.2851C119.526 26.2851 118.322 26.077 117.237 25.631C116.137 25.2148 115.215 24.6203 114.442 23.8771C113.669 23.1487 113.075 22.2866 112.658 21.3204C112.227 20.3542 112.034 19.3435 112.034 18.2881C112.034 17.2327 112.227 16.1625 112.658 15.1963C113.075 14.2153 113.669 13.3532 114.442 12.6397C115.215 11.8965 116.137 11.3168 117.237 10.8709C118.322 10.4249 119.541 10.2168 120.878 10.2168C122.216 10.2168 123.435 10.4249 124.55 10.8709C125.635 11.3019 126.571 11.8965 127.344 12.6397C128.117 13.3681 128.712 14.2302 129.128 15.1963C129.559 16.1625 129.767 17.2179 129.767 18.2881ZM125.724 18.2881C125.724 17.6341 125.605 17.0098 125.382 16.4747C125.159 15.8801 124.832 15.4044 124.401 14.9883C123.985 14.5572 123.48 14.2302 122.885 13.9626C122.305 13.7248 121.622 13.5761 120.878 13.5761C120.135 13.5761 119.496 13.7099 118.916 13.9626C118.322 14.2302 117.816 14.5572 117.385 14.9883C116.954 15.4044 116.642 15.895 116.419 16.4747C116.196 17.0098 116.092 17.6341 116.092 18.2881C116.092 18.9421 116.196 19.507 116.419 20.057C116.642 20.6218 116.954 21.1272 117.385 21.5434C117.816 21.9596 118.322 22.2866 118.916 22.5541C119.496 22.792 120.15 22.9257 120.878 22.9257C121.607 22.9257 122.29 22.792 122.885 22.5541C123.48 22.2866 123.985 21.9596 124.401 21.5434C124.817 21.1272 125.159 20.6218 125.382 20.057C125.605 19.507 125.724 18.9124 125.724 18.2881ZM139.057 46.1734C138.953 46.2774 138.834 46.3369 138.745 46.3369H118.916C117.95 46.3369 117.281 46.1585 116.939 45.8018C116.597 45.445 116.419 44.8653 116.419 44.0924V38.3845C116.419 37.6116 116.583 37.0468 116.925 36.7049C117.266 36.3779 117.906 36.2144 118.872 36.2144H133.647C133.84 36.2144 133.959 36.1846 134.033 36.1103C134.078 36.036 134.108 35.8874 134.108 35.6793V33.7766C134.108 33.5091 134.078 33.3307 134.033 33.2861C133.974 33.2118 133.84 33.1821 133.617 33.1821H116.865C116.746 33.1821 116.627 33.1672 116.523 33.078C116.404 32.9888 116.345 32.8699 116.345 32.7659V30.3727C116.345 30.2687 116.404 30.1349 116.523 30.0308C116.627 29.9268 116.746 29.8822 116.865 29.8822H135.728C136.739 29.8822 137.407 30.0308 137.749 30.3727C138.076 30.7146 138.24 31.2794 138.24 32.097V37.1062C138.24 37.9535 138.076 38.548 137.749 38.8453C137.407 39.1575 136.739 39.321 135.728 39.321H121.072C120.864 39.321 120.73 39.3507 120.685 39.3953C120.641 39.4696 120.611 39.5885 120.611 39.7818V42.606C120.611 42.8141 120.641 42.9479 120.685 42.9925C120.73 43.0222 120.878 43.0519 121.101 43.0519H138.686C138.82 43.0519 138.924 43.0965 139.042 43.1857C139.147 43.2749 139.221 43.4087 139.221 43.5573V45.8761C139.221 45.995 139.161 46.1139 139.042 46.218M142.967 20.0124C142.863 20.1164 142.744 20.1759 142.61 20.1759H138.24V25.6905C138.24 25.8094 138.18 25.9283 138.091 26.0324C137.987 26.1364 137.883 26.1959 137.749 26.1959H134.449C134.316 26.1959 134.212 26.1364 134.108 26.0324C134.004 25.9283 133.959 25.7945 133.959 25.6459V9.8155C133.959 9.50335 134.122 9.33984 134.449 9.33984H137.749C138.076 9.33984 138.24 9.48849 138.24 9.8155V16.6828H142.61C142.729 16.6828 142.848 16.7422 142.967 16.8166C143.086 16.8909 143.13 16.9949 143.13 17.1287V19.6705C143.13 19.7894 143.071 19.9083 142.967 20.0124Z" fill="#3D3939"/>
<path d="M172.145 22.049C171.744 22.4801 171.001 22.6584 169.916 22.6584H163.643V26.1069H177.645C177.764 26.1069 177.883 26.1367 178.002 26.2704C178.135 26.3894 178.195 26.4785 178.195 26.6272V29.0055C178.195 29.1392 178.135 29.2433 178.002 29.3919C177.883 29.5406 177.764 29.5852 177.645 29.5852H145.345C145.196 29.5852 145.077 29.5406 144.973 29.4068C144.869 29.2879 144.84 29.1541 144.84 29.0055V26.6272C144.84 26.2704 145.003 26.1069 145.345 26.1069H159.392V22.6584H153.119C152.004 22.6584 151.246 22.4652 150.845 22.1085C150.443 21.722 150.25 21.0531 150.25 20.0869V10.2468C150.25 10.1279 150.295 10.0238 150.399 9.9198C150.503 9.86034 150.622 9.81575 150.741 9.81575H154.011C154.13 9.81575 154.249 9.86034 154.368 9.9198C154.486 10.0238 154.531 10.1279 154.531 10.2468V13.1007H168.489V10.2022C168.489 10.0833 168.548 9.96439 168.652 9.87521C168.741 9.77116 168.86 9.72656 168.979 9.72656H172.294C172.413 9.72656 172.532 9.77116 172.621 9.87521C172.725 9.94953 172.769 10.0833 172.769 10.2022V20.191C172.769 21.0234 172.576 21.6328 172.175 22.0341M172.755 46.2628C172.651 46.3818 172.532 46.4263 172.413 46.4263H169.202C169.053 46.4263 168.92 46.3818 168.816 46.2628C168.712 46.1588 168.652 46.0547 168.652 45.9358V36.0214C168.652 35.7836 168.593 35.62 168.489 35.5606C168.399 35.4714 168.206 35.4565 167.939 35.4565H149.938C149.819 35.4565 149.7 35.3971 149.581 35.3079C149.462 35.2038 149.418 35.1147 149.418 34.9809V32.4094C149.418 32.2756 149.462 32.1715 149.581 32.0824C149.685 32.008 149.804 31.9783 149.938 31.9783H170.466C171.417 31.9783 172.056 32.1716 172.413 32.5432C172.755 32.9148 172.918 33.5539 172.918 34.4755V45.9507C172.918 46.0845 172.859 46.1736 172.755 46.2777M168.503 16.3709H154.546V18.7194C154.546 19.1356 154.784 19.3289 155.259 19.3289H167.805C168.266 19.3289 168.503 19.1356 168.503 18.7194V16.3709Z" fill="#3D3939"/>
<path d="M183.174 34.9511C182.981 35.0849 182.758 35.1295 182.535 35.0998C182.312 35.0849 182.149 34.966 182.015 34.7728L180.573 32.8701C180.395 32.6472 180.38 32.4391 180.484 32.2607C180.603 32.0823 180.722 31.9337 180.9 31.8296C182.461 30.8932 183.947 29.8081 185.359 28.5744C186.757 27.3555 188.035 26.0475 189.165 24.7097C190.294 23.357 191.246 21.9598 192.033 20.5477C192.836 19.1356 193.386 17.7829 193.743 16.4898C193.832 16.0736 193.832 15.806 193.773 15.6871C193.698 15.5533 193.446 15.5087 193.029 15.5087H183.442C183.293 15.5087 183.174 15.4493 183.085 15.3452C182.996 15.2412 182.951 15.1074 182.951 14.9587V12.5359C182.951 12.194 183.13 12.0305 183.486 12.0305H195.571C196.537 12.0305 197.295 12.2237 197.845 12.5805C198.395 12.9372 198.663 13.4129 198.663 13.9777C198.663 14.2898 198.648 14.6169 198.589 14.9439C198.544 15.2858 198.485 15.5533 198.395 15.8357C198.053 17.1141 197.593 18.4072 197.013 19.6856C196.433 20.9788 195.72 22.2868 194.887 23.58C195.363 24.2192 195.898 24.8732 196.522 25.5569C197.147 26.2407 197.786 26.9096 198.47 27.5636C199.124 28.2176 199.778 28.8419 200.417 29.377C201.071 29.9716 201.651 30.4324 202.171 30.804C202.334 30.9081 202.453 31.0716 202.528 31.2797C202.587 31.4729 202.542 31.6661 202.394 31.8445L200.803 33.6133C200.476 33.9552 200.075 33.9701 199.57 33.6877C199.124 33.3904 198.589 33.0039 197.994 32.4688C197.399 31.9783 196.775 31.3688 196.136 30.7743C195.482 30.1351 194.843 29.4662 194.233 28.7676C193.609 28.069 193.059 27.415 192.569 26.7609C191.305 28.2771 189.893 29.7486 188.332 31.1459C186.771 32.5283 185.047 33.8066 183.174 34.966M209.648 45.9655C209.648 46.2777 209.469 46.4263 209.127 46.4263H205.857C205.738 46.4263 205.604 46.3817 205.515 46.3074C205.396 46.2331 205.337 46.0993 205.337 45.9655V9.78599C205.337 9.68194 205.396 9.56302 205.515 9.47384C205.604 9.36979 205.738 9.3252 205.857 9.3252H209.127C209.469 9.3252 209.648 9.4887 209.648 9.80085V45.9804V45.9655Z" fill="#3D3939"/>
<path d="M217.095 35.0252C216.946 35.1293 216.753 35.2036 216.53 35.2036C216.307 35.2036 216.128 35.1293 215.98 34.936L214.449 33.2118C214.33 33.0483 214.285 32.8551 214.3 32.6618C214.33 32.4686 214.449 32.2902 214.642 32.1564C216.128 31.1457 217.496 30.016 218.745 28.7228C219.978 27.4593 221.093 26.1216 222.029 24.7392C222.966 23.3419 223.739 21.9447 224.363 20.5475C224.987 19.1502 225.419 17.8125 225.671 16.5639C225.716 16.222 225.716 15.9842 225.671 15.8652C225.612 15.7315 225.433 15.6571 225.106 15.6571H217.05C216.916 15.6571 216.827 15.5977 216.753 15.4936C216.678 15.3896 216.649 15.2558 216.649 15.1072V12.7883C216.649 12.4316 216.797 12.2384 217.095 12.2384H227.232C228.317 12.2384 229.09 12.4167 229.551 12.7438C229.997 13.0856 230.22 13.5613 230.22 14.2004C230.22 14.4085 230.22 14.6612 230.22 14.9437C230.22 15.2112 230.175 15.4639 230.131 15.6869C229.848 17.0841 229.462 18.4516 228.956 19.7894C228.466 21.142 227.871 22.465 227.187 23.7581C227.559 24.4122 227.99 25.0513 228.466 25.7202C228.956 26.3891 229.491 27.058 230.026 27.6823C230.591 28.2917 231.112 28.8714 231.617 29.362C232.122 29.8822 232.583 30.2687 233.014 30.566C233.282 30.7592 233.416 30.9524 233.401 31.1308C233.401 31.3092 233.297 31.5024 233.133 31.6956L231.721 33.3902C231.379 33.8212 230.963 33.8212 230.458 33.4496C230.086 33.1821 229.655 32.8253 229.209 32.3645C228.748 31.9335 228.273 31.4281 227.782 30.8781C227.292 30.3281 226.816 29.7336 226.34 29.0944C225.865 28.4701 225.448 27.8607 225.047 27.2215C222.892 30.1944 220.246 32.8105 217.109 35.055M241.903 9.80064C241.903 9.48849 242.081 9.33984 242.408 9.33984H245.619C245.946 9.33984 246.11 9.48849 246.11 9.80064V45.9802C246.11 46.2923 245.946 46.4558 245.619 46.4558H242.394C242.081 46.4558 241.918 46.2923 241.918 45.9802V25.9581H238.841V44.5829C238.841 44.7464 238.796 44.8653 238.677 44.9694C238.559 45.0586 238.455 45.1032 238.321 45.1032H235.318C235.169 45.1032 235.021 45.0586 234.917 44.9694C234.813 44.8653 234.738 44.7464 234.738 44.5829V10.4547C234.738 10.3209 234.813 10.2168 234.917 10.1128C235.021 10.0236 235.169 9.97901 235.318 9.97901H238.321C238.44 9.97901 238.559 10.0236 238.677 10.1128C238.796 10.202 238.841 10.306 238.841 10.4547V22.4798H241.918V9.80064H241.903Z" fill="#3D3939"/>
<path d="M271.572 26.7757C271.438 26.8649 271.304 26.9541 271.186 26.9689C270.279 27.2513 269.134 27.4594 267.811 27.6527C266.459 27.831 265.047 27.9946 263.545 28.1135C262.044 28.2175 260.558 28.3216 259.071 28.3513C257.585 28.4108 256.247 28.4108 255.028 28.3513C254.211 28.3216 253.557 28.1135 253.096 27.727C252.59 27.3703 252.367 26.7608 252.367 25.9136V13.6803C252.367 12.833 252.546 12.2385 252.917 11.8966C253.244 11.5547 253.928 11.3912 254.865 11.3912H267.915C268.257 11.3912 268.436 11.5399 268.436 11.8669V14.4086C268.436 14.7059 268.257 14.8546 267.915 14.8546H257.302C256.856 14.8546 256.633 15.0478 256.633 15.4789V23.8326C256.633 24.2339 256.708 24.4866 256.827 24.6055C256.96 24.7096 257.287 24.7987 257.763 24.8136C258.536 24.8731 259.458 24.8731 260.513 24.8433C261.568 24.7839 262.653 24.7393 263.813 24.6501C264.957 24.5758 266.117 24.4569 267.291 24.3082C268.45 24.1744 269.55 23.9812 270.561 23.788C270.992 23.7285 271.23 23.8474 271.304 24.1893L271.721 26.2108C271.765 26.4933 271.721 26.6419 271.587 26.7311M279.108 45.6533C279.004 45.7127 278.9 45.7573 278.751 45.7573H259.131C258.016 45.7573 257.258 45.5641 256.886 45.1776C256.5 44.7763 256.306 44.1074 256.306 43.1709V35.4564C256.306 35.3375 256.366 35.2186 256.485 35.0848C256.589 34.9807 256.708 34.9213 256.827 34.9213H260.022C260.186 34.9213 260.305 34.9659 260.424 35.0699C260.543 35.2037 260.587 35.3226 260.587 35.4564V41.6845C260.587 41.9372 260.647 42.0858 260.736 42.1602C260.84 42.2345 261.004 42.2642 261.256 42.2642H278.781C278.93 42.2642 279.034 42.3237 279.138 42.4129C279.272 42.502 279.316 42.6358 279.316 42.7399V45.3114C279.316 45.46 279.272 45.5492 279.138 45.6533M282.586 23.6988C282.468 23.7731 282.363 23.8177 282.244 23.8177H277.874V33.197C277.874 33.5092 277.726 33.6875 277.399 33.6875H274.084C273.757 33.6875 273.623 33.5092 273.623 33.197V9.74128C273.623 9.42913 273.772 9.26562 274.084 9.26562H277.399C277.726 9.26562 277.874 9.41427 277.874 9.74128V20.3395H282.244C282.363 20.3395 282.468 20.3692 282.586 20.4733C282.72 20.5624 282.765 20.6665 282.765 20.7854V23.4164C282.765 23.5204 282.72 23.6393 282.586 23.7137" fill="#3D3939"/>
<path d="M51.849 2.23451C55.461 4.9398 55.1638 10.7963 51.195 15.8055C47.2411 20.8148 41.3103 22.2715 37.7131 19.5365C34.116 16.8163 34.1903 10.9747 38.1442 5.95057C42.0981 0.941322 48.2519 -0.500508 51.849 2.23451Z" fill="#E41D25"/>
<path d="M67.7537 15.8949C65.9106 10.7222 59.5635 4.79134 53.1868 2.84413C59.1474 8.65604 60.7378 22.8662 52.6219 34.2225C43.3169 47.2733 29.2257 53.3974 21.1395 47.9273C13.0682 42.4276 14.9262 27.4147 24.2313 14.3639C29.0324 7.61555 36.4794 2.16038 45.5466 0.748274C39.0212 0.510446 30.6675 1.68472 25.9109 3.52789C7.49414 10.6627 -3.05949 27.2066 2.33623 40.4655C7.73194 53.7244 27.2487 59.2093 45.4574 51.5691C62.5661 44.4045 72.6292 29.5106 67.7537 15.9098" fill="#009E4A"/>
</svg>
