<svg width="224" height="112" viewBox="0 0 224 112" fill="none" xmlns="http://www.w3.org/2000/svg">
<g clip-path="url(#clip0_526_197)">
<path d="M188.295 0.44873H9.24484C4.38745 0.44873 0.449753 4.37548 0.449753 9.21936V102.507C0.449753 107.351 4.38745 111.278 9.24484 111.278H188.295C193.152 111.278 197.09 107.351 197.09 102.507V9.21936C197.09 4.37548 193.152 0.44873 188.295 0.44873Z" fill="#5E5E5E"/>
<path d="M188.295 111.701H9.24484C4.14769 111.701 0 107.565 0 102.482V9.21913C0 4.13615 4.14769 0 9.24484 0H188.27C193.367 0 197.515 4.13615 197.515 9.21913V102.482C197.515 107.565 193.367 111.701 188.27 111.701H188.295ZM9.24484 0.896997C4.64741 0.896997 0.899498 4.63448 0.899498 9.21913V102.482C0.899498 107.067 4.64741 110.829 9.26983 110.829H188.295C192.892 110.829 196.665 107.091 196.665 102.482V9.21913C196.665 4.63448 192.917 0.87208 188.295 0.87208H9.24484V0.896997Z" fill="black"/>
<path d="M189.619 7.62402H7.8956V104.076H189.619V7.62402Z" fill="#FFC800"/>
<path d="M189.744 104.201H7.77067V7.49951H189.744V104.201ZM8.02053 103.952H189.494V7.74868H8.02053V103.952Z" fill="#231815"/>
<path d="M89.0253 42.8311L108.489 55.4638L89.0253 68.1214V42.8311Z" fill="white"/>
<path d="M89.0253 68.5949C89.0253 68.5949 88.8754 68.5949 88.8004 68.5451C88.6505 68.4704 88.5506 68.2959 88.5506 68.1215V42.8312C88.5506 42.6568 88.6505 42.5073 88.8004 42.4076C88.9504 42.3329 89.1502 42.3329 89.2752 42.4076L108.739 55.0403C108.864 55.14 108.964 55.2646 108.964 55.439C108.964 55.6134 108.889 55.738 108.739 55.8377L89.2752 68.4704C89.2752 68.4704 89.1003 68.5451 89.0253 68.5451V68.5949ZM89.5 43.7282V67.2494L107.615 55.4888L89.5 43.7282Z" fill="#231815"/>
<path d="M189.519 7.62451H7.89559V16.4201H189.519V7.62451Z" fill="#404040"/>
<path d="M189.519 16.8933H7.8956C7.64573 16.8933 7.42086 16.6939 7.42086 16.4198V7.62429C7.42086 7.37513 7.62075 7.15088 7.8956 7.15088H189.519C189.769 7.15088 189.994 7.35021 189.994 7.62429V16.4198C189.994 16.669 189.794 16.8933 189.519 16.8933ZM8.37033 15.9713H189.045V8.09771H8.37033V15.9713Z" fill="#231815"/>
<path d="M177.476 9.51807H183.722C184.572 9.51807 185.272 10.2157 185.272 11.0629V12.6326C185.272 13.4798 184.572 14.1775 183.722 14.1775H177.476C176.626 14.1775 175.927 13.4798 175.927 12.6326V11.0629C175.927 10.2157 176.626 9.51807 177.476 9.51807Z" fill="#FECE57"/>
<path d="M183.722 14.6756H177.476C176.352 14.6756 175.452 13.7786 175.452 12.6573V11.0876C175.452 9.96633 176.352 9.06934 177.476 9.06934H183.722C184.847 9.06934 185.746 9.96633 185.746 11.0876V12.6573C185.746 13.7786 184.847 14.6756 183.722 14.6756ZM177.476 9.99125C176.876 9.99125 176.402 10.4647 176.402 11.0627V12.6324C176.402 13.2304 176.876 13.7038 177.476 13.7038H183.722C184.322 13.7038 184.797 13.2304 184.797 12.6324V11.0627C184.797 10.4647 184.322 9.99125 183.722 9.99125H177.476Z" fill="#231815"/>
<path d="M165.133 9.51807H171.379C172.229 9.51807 172.928 10.2157 172.928 11.0629V12.6326C172.928 13.4798 172.229 14.1775 171.379 14.1775H165.133C164.283 14.1775 163.584 13.4798 163.584 12.6326V11.0629C163.584 10.2157 164.283 9.51807 165.133 9.51807Z" fill="#4AC6D8"/>
<path d="M171.379 14.6756H165.133C164.008 14.6756 163.109 13.7786 163.109 12.6573V11.0876C163.109 9.96633 164.008 9.06934 165.133 9.06934H171.379C172.504 9.06934 173.403 9.96633 173.403 11.0876V12.6573C173.403 13.7786 172.504 14.6756 171.379 14.6756ZM165.133 9.99125C164.533 9.99125 164.058 10.4647 164.058 11.0627V12.6324C164.058 13.2304 164.533 13.7038 165.133 13.7038H171.379C171.979 13.7038 172.454 13.2304 172.454 12.6324V11.0627C172.454 10.4647 171.979 9.99125 171.379 9.99125H165.133Z" fill="#231815"/>
<path d="M175.177 93.7363H33.1565V97.0751H175.177V93.7363Z" fill="#C0C0C0"/>
<path d="M175.177 97.5733H33.1565C32.9066 97.5733 32.6818 97.3739 32.6818 97.0998V93.761C32.6818 93.5119 32.8817 93.2876 33.1565 93.2876H175.177C175.427 93.2876 175.652 93.4869 175.652 93.761V97.0998C175.652 97.349 175.452 97.5733 175.177 97.5733ZM33.6312 96.6264H174.702V94.2344H33.6312V96.6264Z" fill="#231815"/>
<path d="M72.2097 93.7363H33.1565V97.0751H72.2097V93.7363Z" fill="white"/>
<path d="M72.2097 97.5733H33.1565C32.9066 97.5733 32.6818 97.3739 32.6818 97.0998V93.761C32.6818 93.5119 32.8817 93.2876 33.1565 93.2876H72.2097C72.4596 93.2876 72.6844 93.4869 72.6844 93.761V97.0998C72.6844 97.349 72.4846 97.5733 72.2097 97.5733ZM33.6312 96.6264H71.735V94.2344H33.6312V96.6264Z" fill="#231815"/>
<path d="M22.0627 92.2661H20.1637V98.57H22.0627V92.2661Z" fill="white"/>
<path d="M22.0627 99.0432H20.1637C19.9139 99.0432 19.689 98.8439 19.689 98.5698V92.2659C19.689 92.0167 19.8889 91.7925 20.1637 91.7925H22.0627C22.3125 91.7925 22.5374 91.9918 22.5374 92.2659V98.5698C22.5374 98.819 22.3375 99.0432 22.0627 99.0432ZM20.6385 98.0964H21.588V92.7393H20.6385V98.0964Z" fill="#231815"/>
<path d="M25.2109 92.2661H23.312V98.57H25.2109V92.2661Z" fill="white"/>
<path d="M25.2109 99.0432H23.312C23.0621 99.0432 22.8372 98.8439 22.8372 98.5698V92.2659C22.8372 92.0167 23.0371 91.7925 23.312 91.7925H25.2109C25.4608 91.7925 25.6857 91.9918 25.6857 92.2659V98.5698C25.6857 98.819 25.4858 99.0432 25.2109 99.0432ZM23.7867 98.0964H24.7362V92.7393H23.7867V98.0964Z" fill="#231815"/>
<path d="M194.541 45.2984C192.817 45.2984 191.368 46.5193 191.043 48.1388L147.268 65.1569L148.667 68.7448L192.468 51.7268C193.042 52.1504 193.767 52.3996 194.541 52.3996C196.515 52.3996 198.114 50.8049 198.114 48.8365C198.114 46.8681 196.515 45.2734 194.541 45.2734V45.2984Z" fill="#12B512"/>
<path d="M148.667 69.3926C148.667 69.3926 148.492 69.3926 148.392 69.3427C148.242 69.268 148.117 69.1434 148.042 68.969L146.643 65.381C146.518 65.0571 146.668 64.6584 147.018 64.5338L190.494 47.6404C191.018 45.8713 192.667 44.6255 194.541 44.6255C196.865 44.6255 198.764 46.5191 198.764 48.8364C198.764 51.1536 196.865 53.0473 194.541 53.0473C193.792 53.0473 193.042 52.848 192.393 52.4493L148.917 69.3427C148.917 69.3427 148.767 69.3926 148.667 69.3926ZM148.117 65.5305L149.042 67.8976L192.218 51.1038C192.418 51.029 192.667 51.054 192.842 51.1785C193.342 51.5523 193.942 51.7267 194.541 51.7267C196.141 51.7267 197.44 50.4311 197.44 48.8364C197.44 47.2417 196.141 45.9461 194.541 45.9461C193.167 45.9461 191.968 46.9178 191.693 48.2633C191.643 48.4876 191.493 48.662 191.293 48.7367L148.117 65.5305Z" fill="#231815"/>
<path d="M138.947 66.6019V108.412C138.947 109.994 140.234 111.277 141.821 111.277H220.427C222.014 111.277 223.3 109.994 223.3 108.412V66.6019C223.3 65.0194 222.014 63.7365 220.427 63.7365L141.821 63.7365C140.234 63.7365 138.947 65.0194 138.947 66.6019Z" fill="#FF6400"/>
<path d="M220.402 112H141.821C139.847 112 138.223 110.381 138.223 108.412V66.6271C138.223 64.6586 139.847 63.0391 141.821 63.0391H220.402C222.376 63.0391 224 64.6586 224 66.6271V108.412C224 110.381 222.376 112 220.402 112ZM141.821 64.4593C140.622 64.4593 139.672 65.4311 139.672 66.6021V108.387C139.672 109.583 140.647 110.53 141.821 110.53H220.402C221.601 110.53 222.551 109.558 222.551 108.387V66.6021C222.551 65.4061 221.576 64.4593 220.402 64.4593H141.821Z" fill="black"/>
<path d="M169.505 87.9307C169.505 94.5585 164.133 99.9155 157.487 99.9155C150.841 99.9155 145.469 94.5585 145.469 87.9307C145.469 81.3029 150.841 75.9458 157.487 75.9458C164.133 75.9458 169.505 81.3029 169.505 87.9307Z" fill="white"/>
<path d="M157.487 100.165C150.716 100.165 145.219 94.6583 145.219 87.9059C145.219 81.1535 150.716 75.647 157.487 75.647C164.258 75.647 169.78 81.1535 169.78 87.9059C169.78 94.6583 164.258 100.165 157.487 100.165ZM157.487 76.1951C151.016 76.1951 145.744 81.4525 145.744 87.9308C145.744 94.4092 151.016 99.6665 157.487 99.6665C163.958 99.6665 169.256 94.4092 169.256 87.9308C169.256 81.4525 163.983 76.1951 157.487 76.1951Z" fill="#231815"/>
<path d="M157.487 100.563C150.516 100.563 144.819 94.9072 144.819 87.9306C144.819 80.9539 150.491 75.2979 157.487 75.2979C164.483 75.2979 170.155 80.9539 170.155 87.9306C170.155 94.9072 164.483 100.563 157.487 100.563ZM157.487 76.5935C151.216 76.5935 146.118 81.6765 146.118 87.9306C146.118 94.1846 151.216 99.2676 157.487 99.2676C163.759 99.2676 168.856 94.1846 168.856 87.9306C168.856 81.6765 163.759 76.5935 157.487 76.5935Z" fill="#505050"/>
<path d="M157.487 100.813C150.366 100.813 144.569 95.0319 144.569 87.9307C144.569 80.8295 150.366 75.0488 157.487 75.0488C164.608 75.0488 170.405 80.8295 170.405 87.9307C170.405 95.0319 164.608 100.813 157.487 100.813ZM157.487 75.5472C150.641 75.5472 145.094 81.1036 145.094 87.9058C145.094 94.708 150.666 100.264 157.487 100.264C164.308 100.264 169.88 94.708 169.88 87.9058C169.88 81.1036 164.308 75.5472 157.487 75.5472ZM157.487 99.5169C151.066 99.5169 145.844 94.3093 145.844 87.9058C145.844 81.5022 151.066 76.2947 157.487 76.2947C163.909 76.2947 169.131 81.5022 169.131 87.9058C169.131 94.3093 163.909 99.5169 157.487 99.5169ZM157.487 76.8428C151.366 76.8428 146.368 81.8261 146.368 87.9307C146.368 94.0353 151.366 99.0186 157.487 99.0186C163.609 99.0186 168.606 94.0353 168.606 87.9307C168.606 81.8261 163.609 76.8428 157.487 76.8428Z" fill="#231815"/>
<path d="M163.934 87.9304C163.934 91.4686 161.06 94.3589 157.487 94.3589C153.914 94.3589 151.041 91.4935 151.041 87.9304C151.041 84.3674 153.914 81.502 157.487 81.502C161.06 81.502 163.934 84.3674 163.934 87.9304Z" fill="#12B512"/>
<path d="M157.487 94.6082C153.789 94.6082 150.791 91.6182 150.791 87.9306C150.791 84.2429 153.789 81.2529 157.487 81.2529C161.185 81.2529 164.183 84.2429 164.183 87.9306C164.183 91.6182 161.185 94.6082 157.487 94.6082ZM157.487 81.7762C154.089 81.7762 151.316 84.5419 151.316 87.9306C151.316 91.3192 154.089 94.085 157.487 94.085C160.885 94.085 163.659 91.3192 163.659 87.9306C163.659 84.5419 160.885 81.7762 157.487 81.7762Z" fill="#231815"/>
<path d="M211.457 75.522H183.523C181.425 75.522 179.725 77.2176 179.725 79.3093V87.5816C179.725 89.6733 181.425 91.3689 183.523 91.3689H211.457C213.554 91.3689 215.255 89.6733 215.255 87.5816V79.3093C215.255 77.2176 213.554 75.522 211.457 75.522Z" fill="white"/>
<path d="M211.457 91.6182H183.523C181.299 91.6182 179.475 89.7993 179.475 87.5817V79.3094C179.475 77.0919 181.299 75.2729 183.523 75.2729H211.457C213.681 75.2729 215.505 77.0919 215.505 79.3094V87.5817C215.505 89.7993 213.681 91.6182 211.457 91.6182ZM183.523 75.7713C181.574 75.7713 180 77.341 180 79.2845V87.5568C180 89.5003 181.574 91.0701 183.523 91.0701H211.457C213.406 91.0701 214.98 89.5003 214.98 87.5568V79.2845C214.98 77.341 213.406 75.7713 211.457 75.7713H183.523Z" fill="#231815"/>
<path d="M211.457 91.9917H183.523C181.074 91.9917 179.1 89.9984 179.1 87.5815V79.3092C179.1 76.8674 181.099 74.874 183.523 74.874H211.457C213.906 74.874 215.905 76.8674 215.905 79.3092V87.5815C215.905 90.0233 213.906 91.9917 211.457 91.9917ZM183.523 76.1448C181.799 76.1448 180.374 77.5401 180.374 79.2843V87.5566C180.374 89.2758 181.799 90.6961 183.523 90.6961H211.457C213.181 90.6961 214.605 89.3007 214.605 87.5566V79.2843C214.605 77.565 213.181 76.1448 211.457 76.1448H183.523Z" fill="#505050"/>
<path d="M211.457 92.241H183.523C180.924 92.241 178.825 90.148 178.825 87.5567V79.2844C178.825 76.6931 180.924 74.6001 183.523 74.6001H211.457C214.056 74.6001 216.154 76.6931 216.154 79.2844V87.5567C216.154 90.148 214.056 92.241 211.457 92.241ZM183.523 75.1233C181.224 75.1233 179.35 76.9921 179.35 79.2844V87.5567C179.35 89.849 181.224 91.7178 183.523 91.7178H211.457C213.756 91.7178 215.63 89.849 215.63 87.5567V79.2844C215.63 76.9921 213.756 75.1233 211.457 75.1233H183.523ZM211.457 90.9703H183.523C181.649 90.9703 180.124 89.4504 180.124 87.5816V79.3093C180.124 77.4406 181.649 75.9207 183.523 75.9207H211.457C213.331 75.9207 214.855 77.4406 214.855 79.3093V87.5816C214.855 89.4504 213.331 90.9703 211.457 90.9703ZM183.523 76.419C181.923 76.419 180.649 77.7147 180.649 79.2844V87.5567C180.649 89.1514 181.948 90.4221 183.523 90.4221H211.457C213.056 90.4221 214.33 89.1265 214.33 87.5567V79.2844C214.33 77.6898 213.031 76.419 211.457 76.419H183.523Z" fill="#231815"/>
<path d="M193.717 99.9155C193.717 102.283 191.793 104.201 189.419 104.201C187.046 104.201 185.122 102.283 185.122 99.9155C185.122 97.5485 187.046 95.6299 189.419 95.6299C191.793 95.6299 193.717 97.5485 193.717 99.9155Z" fill="#12B512"/>
<path d="M189.419 104.45C186.921 104.45 184.872 102.407 184.872 99.9157C184.872 97.424 186.921 95.3809 189.419 95.3809C191.918 95.3809 193.967 97.424 193.967 99.9157C193.967 102.407 191.918 104.45 189.419 104.45ZM189.419 95.8792C187.196 95.8792 185.397 97.6732 185.397 99.8908C185.397 102.108 187.196 103.902 189.419 103.902C191.643 103.902 193.442 102.108 193.442 99.8908C193.442 97.6732 191.643 95.8792 189.419 95.8792Z" fill="#231815"/>
<path d="M189.419 104.824C186.696 104.824 184.472 102.606 184.472 99.8905C184.472 97.1746 186.696 94.957 189.419 94.957C192.143 94.957 194.367 97.1746 194.367 99.8905C194.367 102.606 192.143 104.824 189.419 104.824ZM189.419 96.2527C187.395 96.2527 185.771 97.8723 185.771 99.8905C185.771 101.909 187.395 103.528 189.419 103.528C191.443 103.528 193.067 101.909 193.067 99.8905C193.067 97.8723 191.443 96.2527 189.419 96.2527Z" fill="#505050"/>
<path d="M189.419 105.098C186.546 105.098 184.222 102.781 184.222 99.9156C184.222 97.0501 186.546 94.7329 189.419 94.7329C192.293 94.7329 194.616 97.0501 194.616 99.9156C194.616 102.781 192.293 105.098 189.419 105.098ZM189.419 95.2562C186.846 95.2562 184.747 97.3491 184.747 99.9156C184.747 102.482 186.846 104.575 189.419 104.575C191.993 104.575 194.092 102.482 194.092 99.9156C194.092 97.3491 191.993 95.2562 189.419 95.2562ZM189.419 103.827C187.27 103.827 185.521 102.083 185.521 99.9405C185.521 97.7976 187.27 96.0535 189.419 96.0535C191.568 96.0535 193.317 97.7976 193.317 99.9405C193.317 102.083 191.568 103.827 189.419 103.827ZM189.419 96.5518C187.545 96.5518 186.046 98.0717 186.046 99.9156C186.046 101.759 187.57 103.279 189.419 103.279C191.268 103.279 192.792 101.759 192.792 99.9156C192.792 98.0717 191.268 96.5518 189.419 96.5518Z" fill="#231815"/>
<path d="M209.858 99.9155C209.858 102.283 207.934 104.201 205.56 104.201C203.187 104.201 201.263 102.283 201.263 99.9155C201.263 97.5485 203.187 95.6299 205.56 95.6299C207.934 95.6299 209.858 97.5485 209.858 99.9155Z" fill="#12B512"/>
<path d="M205.585 104.45C203.087 104.45 201.038 102.407 201.038 99.9157C201.038 97.424 203.087 95.3809 205.585 95.3809C208.084 95.3809 210.133 97.424 210.133 99.9157C210.133 102.407 208.084 104.45 205.585 104.45ZM205.585 95.8792C203.362 95.8792 201.563 97.6732 201.563 99.8908C201.563 102.108 203.362 103.902 205.585 103.902C207.809 103.902 209.608 102.108 209.608 99.8908C209.608 97.6732 207.809 95.8792 205.585 95.8792Z" fill="#231815"/>
<path d="M205.585 104.824C202.862 104.824 200.638 102.606 200.638 99.8905C200.638 97.1746 202.862 94.957 205.585 94.957C208.309 94.957 210.533 97.1746 210.533 99.8905C210.533 102.606 208.309 104.824 205.585 104.824ZM205.585 96.2527C203.561 96.2527 201.937 97.8723 201.937 99.8905C201.937 101.909 203.586 103.528 205.585 103.528C207.584 103.528 209.233 101.909 209.233 99.8905C209.233 97.8723 207.609 96.2527 205.585 96.2527Z" fill="#505050"/>
<path d="M205.585 105.098C202.712 105.098 200.388 102.781 200.388 99.9156C200.388 97.0501 202.712 94.7329 205.585 94.7329C208.459 94.7329 210.782 97.0501 210.782 99.9156C210.782 102.781 208.459 105.098 205.585 105.098ZM205.585 95.2562C203.012 95.2562 200.913 97.3491 200.913 99.9156C200.913 102.482 203.012 104.575 205.585 104.575C208.159 104.575 210.258 102.482 210.258 99.9156C210.258 97.3491 208.159 95.2562 205.585 95.2562ZM205.585 103.827C203.436 103.827 201.662 102.083 201.662 99.9405C201.662 97.7976 203.411 96.0535 205.585 96.0535C207.759 96.0535 209.483 97.7976 209.483 99.9405C209.483 102.083 207.734 103.827 205.585 103.827ZM205.585 96.5518C203.711 96.5518 202.187 98.0717 202.187 99.9156C202.187 101.759 203.711 103.279 205.585 103.279C207.459 103.279 208.958 101.759 208.958 99.9156C208.958 98.0717 207.434 96.5518 205.585 96.5518Z" fill="#231815"/>
<path d="M189.369 89.6495L187.545 82.623L182.423 86.5598L181.524 85.5631L188.395 80.3057L189.919 86.211L195.316 77.6147L200.713 86.7093L206.035 79.5333L208.684 86.4352L212.981 81.8755L214.031 82.7226L208.159 88.9518L205.635 82.3489L200.563 89.1511L195.266 80.231L189.369 89.6495Z" fill="#FECE57"/>
<path d="M189.369 89.8988C189.369 89.8988 189.344 89.8988 189.319 89.8988C189.219 89.8988 189.119 89.7991 189.094 89.6994L187.37 83.0467L182.573 86.7344C182.573 86.7344 182.298 86.8091 182.223 86.7094L181.324 85.7128C181.324 85.7128 181.249 85.5882 181.249 85.5135C181.249 85.4387 181.299 85.364 181.349 85.339L188.195 80.0816C188.195 80.0816 188.345 80.0069 188.445 80.0318C188.52 80.0567 188.595 80.1315 188.62 80.2062L189.994 85.5384L195.066 77.4654C195.066 77.4654 195.191 77.3408 195.291 77.3408C195.391 77.3408 195.466 77.3907 195.516 77.4654L200.713 86.2111L205.81 79.3591C205.81 79.3591 205.96 79.2345 206.06 79.2594C206.16 79.2594 206.235 79.3341 206.26 79.4338L208.759 85.937L212.781 81.6763C212.781 81.6763 213.031 81.5766 213.131 81.6763L214.18 82.5235C214.18 82.5235 214.28 82.6231 214.28 82.6979C214.28 82.7726 214.28 82.8474 214.205 82.8972L208.334 89.1264C208.334 89.1264 208.184 89.226 208.084 89.2011C207.984 89.2011 207.934 89.1264 207.884 89.0267L205.51 82.8723L200.738 89.3008C200.738 89.3008 200.588 89.4004 200.513 89.4004C200.413 89.4004 200.338 89.3506 200.313 89.2759L195.241 80.7295L189.569 89.7742C189.569 89.7742 189.444 89.8988 189.344 89.8988H189.369ZM187.545 82.349C187.545 82.349 187.595 82.349 187.62 82.349C187.695 82.374 187.77 82.4487 187.795 82.5235L189.469 88.9519L195.041 80.0567C195.041 80.0567 195.141 79.9571 195.266 79.9321C195.366 79.9321 195.441 79.982 195.491 80.0567L200.588 88.628L205.41 82.1497C205.41 82.1497 205.56 82.0251 205.66 82.0501C205.76 82.0501 205.835 82.1248 205.86 82.2245L208.259 88.4287L213.656 82.7228L213.006 82.1996L208.858 86.5849C208.858 86.5849 208.709 86.6845 208.609 86.6596C208.509 86.6596 208.459 86.5849 208.409 86.4852L205.935 80.0318L200.888 86.8091C200.888 86.8091 200.738 86.9088 200.663 86.9088C200.563 86.9088 200.488 86.859 200.463 86.7842L195.291 78.0634L190.119 86.2859C190.119 86.2859 189.969 86.4105 189.869 86.4105C189.769 86.4105 189.669 86.3108 189.644 86.2111L188.22 80.6796L181.898 85.5135L182.448 86.1115L187.37 82.3241C187.37 82.3241 187.47 82.2743 187.52 82.2743L187.545 82.349Z" fill="#231815"/>
</g>
<defs>
<clipPath id="clip0_526_197">
<rect width="224" height="112" fill="white"/>
</clipPath>
</defs>
</svg>
