<svg width="261" height="103" viewBox="0 0 261 103" fill="none" xmlns="http://www.w3.org/2000/svg">
<g clip-path="url(#clip0_540_750)">
<path d="M84.6493 87.6978C84.6493 87.6978 31.2246 86.028 31.0085 85.9121C27.6295 84.0799 29.5052 75.0258 29.5052 75.0258L36.6677 56.7505L48.1563 45.5674L72.085 51.8431L82.6081 55.3358L89.3155 75.9813L84.6493 87.6978Z" fill="#407BFF"/>
<path d="M84.6493 87.6978C84.6493 87.6978 31.2246 86.028 31.0085 85.9121C27.6295 84.0799 29.5052 75.0258 29.5052 75.0258L36.6677 56.7505L48.1563 45.5674L72.085 51.8431L82.6081 55.3358L89.3155 75.9813L84.6493 87.6978Z" fill="#CCCCCC"/>
<path d="M84.7274 87.814H84.6493C68.5773 87.3085 31.174 86.1303 30.9579 86.0143C27.5422 84.1636 29.3167 75.3739 29.3949 74.9982L36.5942 56.6626L48.1287 45.4331L48.193 45.4517L72.1217 51.7274L82.7046 55.2433L82.723 55.299L89.4442 75.9862L89.4304 76.0233L84.732 87.814H84.7274ZM31.0499 85.801C32.1808 85.9401 82.2403 87.5033 84.5757 87.5775L89.196 75.9722L82.5207 55.4196L72.0528 51.9454L48.193 45.6882L36.7689 56.8111L29.6155 75.0631C29.6017 75.1327 27.8088 84.0106 31.0499 85.7963V85.801Z" fill="black"/>
<path d="M127.004 5.21776C127.004 5.21776 119.119 1.16381 116.996 1.01075C114.872 0.85768 38.5204 -0.213787 36.7735 0.245413C35.0311 0.704613 30.3281 3.33922 29.6477 4.31792L33.9737 7.20763L46.253 4.48026C46.253 4.48026 47.5402 1.92915 49.894 1.85029C52.2432 1.77608 67.2579 1.85029 67.2579 1.85029V4.71218H75.8271V2.61563L110.628 2.99598C110.628 2.99598 113.056 4.90699 113.359 6.21038C113.663 7.50913 127.008 5.21776 127.008 5.21776H127.004Z" fill="#263238"/>
<path d="M33.9737 7.32379C33.9737 7.32379 33.9278 7.31915 33.9094 7.30524L29.5834 4.41552C29.5558 4.39697 29.5374 4.36914 29.5328 4.34131C29.5282 4.30884 29.5328 4.28101 29.5512 4.25318C30.2775 3.20954 35.0127 0.593493 36.7413 0.138931C38.7917 -0.399122 116.347 0.853242 117 0.899626C119.124 1.05269 126.728 4.95358 127.054 5.12056C127.1 5.14375 127.123 5.19013 127.114 5.24116C127.105 5.29218 127.068 5.32928 127.018 5.33856C124.77 5.72355 113.548 7.58354 113.24 6.24768C112.968 5.07881 110.858 3.34869 110.582 3.12141L75.9375 2.74107V4.71702C75.9375 4.78196 75.8869 4.83298 75.8226 4.83298H67.2533C67.1889 4.83298 67.1383 4.78196 67.1383 4.71702V1.97109C65.7408 1.96645 52.1053 1.90152 49.894 1.97109C47.6414 2.04531 46.3679 4.50829 46.3541 4.53612C46.3404 4.56859 46.3082 4.59178 46.276 4.59642L33.9967 7.32379C33.9967 7.32379 33.9783 7.32379 33.9737 7.32379ZM29.8178 4.29029L33.9967 7.08259L46.1794 4.37842C46.3771 4.00734 47.6552 1.80875 49.8894 1.73454C52.2156 1.66032 67.1062 1.73454 67.2579 1.73454C67.3222 1.73454 67.3728 1.78556 67.3728 1.8505V4.59642H75.7122V2.61583C75.7122 2.58336 75.726 2.55553 75.7444 2.53234C75.7628 2.50915 75.795 2.50915 75.8272 2.49987L110.628 2.88022C110.651 2.88022 110.679 2.88949 110.697 2.90341C110.798 2.98226 113.157 4.85617 113.469 6.18275C113.649 6.94344 120.324 6.22913 126.641 5.15766C125.156 4.40625 118.825 1.25214 116.986 1.12227C115.966 1.04805 96.8136 0.746559 76.742 0.510002C52.0823 0.222422 37.5274 0.162123 36.8056 0.352297C35.0633 0.811497 30.6775 3.29303 29.8178 4.28565V4.29029Z" fill="#251E1C"/>
<path d="M245.305 84.2096C245.305 84.2096 192.179 86.1206 192.312 85.9165C192.446 85.7124 188.933 72.3446 188.933 72.3446L196.096 54.0694L207.584 42.8862L231.513 49.162L242.036 52.6547L248.744 73.3001L245.3 84.2096H245.305Z" fill="#407BFF"/>
<path d="M245.305 84.2096C245.305 84.2096 192.179 86.1206 192.312 85.9165C192.446 85.7124 188.933 72.3446 188.933 72.3446L196.096 54.0694L207.584 42.8862L231.513 49.162L242.036 52.6547L248.744 73.3001L245.3 84.2096H245.305Z" fill="#CCCCCC"/>
<path d="M193.011 86.0327C192.248 86.0327 192.234 86.0049 192.216 85.9724L192.184 85.9121L192.207 85.875C192.184 85.3091 190.184 77.5259 188.828 72.3727L188.818 72.3356L188.832 72.2985L196.022 53.9815L207.557 42.752L207.621 42.7705L231.55 49.0462L242.133 52.5621L242.151 52.6178L248.872 73.3004L248.863 73.3375L245.397 84.3258H245.314C245.181 84.3351 231.941 84.8082 218.862 85.2535C200.404 85.8843 194.763 86.0327 193.02 86.0327H193.011ZM192.409 85.8101C194.17 85.8889 227.491 84.734 245.222 84.0939L248.629 73.2957L241.949 52.7384L231.481 49.2642L207.621 43.0071L196.197 54.1299L189.058 72.3495C191.168 80.3785 192.294 84.901 192.409 85.8101Z" fill="black"/>
<path d="M5.46611 57.2189L6.62922 30.9981L25.832 4.3877C25.832 4.3877 116.407 5.17158 138.52 6.15028C160.628 7.12898 189.724 32.9602 189.724 32.9602C214.191 34.7413 236.653 37.7655 253.529 44.2407C259.005 46.6759 259.515 48.0442 260.775 52.7568V81.7189C258.963 84.103 249.98 86.0233 249.98 86.0233L244.321 85.5965C244.059 77.0434 241.236 53.8839 218.154 55.9573C198.33 57.7384 194.547 77.5861 194.059 89.2702L82.2633 89.516C82.0012 89.0197 81.8357 88.6996 81.8357 88.6996C81.8357 88.6996 83.9321 53.4154 55.6773 55.9573C35.7115 57.7523 32.0199 77.8644 31.5739 89.516H29.7166L5.23165 82.0389C2.26642 81.1344 0.234436 78.3746 0.234436 75.2437V61.1383L5.47071 57.2235L5.46611 57.2189Z" fill="#F9F9F9"/>
<path d="M82.2541 89.7435C82.1667 89.7435 82.0932 89.6971 82.0518 89.6183C81.7898 89.1173 81.6243 88.8019 81.6243 88.8019C81.6059 88.7648 81.5967 88.7231 81.5967 88.6813C81.6059 88.5051 82.5437 70.8003 73.1515 61.5978C68.8209 57.3537 62.9456 55.5354 55.6911 56.1848C35.9459 57.9613 32.2451 77.8321 31.7946 89.5209C31.79 89.6461 31.6889 89.7435 31.5647 89.7435H29.7074C29.7074 89.7435 29.6615 89.7435 29.6385 89.7342L5.1535 82.2571C2.06874 81.3156 -0.00921631 78.4954 -0.00921631 75.2439V61.1386C-0.00921631 61.0644 0.0275617 60.9948 0.0827288 60.953L5.23166 57.1032L6.39016 30.9937C6.39016 30.9473 6.40855 30.9056 6.43614 30.8685L25.6435 4.24877C25.6848 4.18847 25.7538 4.15137 25.8274 4.15137C26.733 4.16064 116.66 4.94453 138.52 5.91395C159.984 6.86482 188.322 31.4297 189.807 32.7285C219.156 34.8668 238.832 38.3502 253.598 44.0183C259.12 46.4766 259.69 47.845 260.982 52.6874C260.986 52.706 260.991 52.7292 260.991 52.7477V81.7098C260.991 81.7608 260.972 81.8119 260.945 81.849C259.101 84.2748 250.385 86.158 250.013 86.2369C249.99 86.2369 249.971 86.2415 249.948 86.2369L244.289 85.8102C244.169 85.8009 244.082 85.7035 244.077 85.5875C243.921 80.4992 242.726 67.9153 234.975 60.9809C230.718 57.1681 225.059 55.554 218.158 56.1709C198.509 57.9381 194.758 77.6605 194.271 89.2611C194.266 89.3863 194.165 89.4837 194.041 89.4837L82.2449 89.7296L82.2541 89.7435ZM29.7442 89.2797H31.3487C31.8406 77.41 35.6839 57.5206 55.6544 55.7209C63.0513 55.0577 69.0462 56.9223 73.4779 61.2638C82.7276 70.3319 82.1208 87.4429 82.0656 88.6442C82.1162 88.7416 82.2357 88.9689 82.3966 89.2797L193.834 89.0338C194.367 77.2523 198.257 57.5067 218.131 55.7209C225.164 55.0901 230.939 56.746 235.292 60.6469C242.809 67.3726 244.321 78.9361 244.542 85.3788L249.962 85.787C250.541 85.6617 258.752 83.8342 260.545 81.6356V52.7848C259.276 48.0351 258.761 46.8199 253.438 44.4497C238.713 38.8001 219.055 35.326 189.71 33.1877C189.66 33.1877 189.614 33.1645 189.577 33.132C189.287 32.8723 160.292 7.34258 138.515 6.38243C117.023 5.43156 29.712 4.65695 25.9561 4.62448L6.85908 31.0818L5.70058 57.2331C5.70058 57.3026 5.6638 57.3676 5.60863 57.4093L0.464301 61.2545V75.2439C0.464301 78.2913 2.40894 80.9306 5.30061 81.8165L29.7534 89.2843L29.7442 89.2797Z" fill="black"/>
<path d="M184.345 35.4187C184.345 35.4187 44.3681 33.9437 44.2348 33.5402C44.1015 33.1366 30.4108 16.6425 30.4108 16.6425L38.6537 7.92236L135.716 8.94745C139.531 9.00311 144.441 9.93078 148.114 10.9744C152.408 12.199 158.04 14.1749 162.55 17.0414C168.664 20.933 183.95 29.3795 184.35 35.4141L184.345 35.4187Z" fill="#263238"/>
<path d="M184.345 35.5347C183.996 35.5347 148.951 35.159 114.338 34.7461C94.0093 34.5049 77.8086 34.2916 66.1821 34.12C44.198 33.7953 44.1658 33.7025 44.1245 33.5773C43.9176 33.1459 35.0035 22.357 30.3189 16.7167C30.2821 16.6704 30.2821 16.6054 30.3235 16.5637L38.5664 7.84814C38.5664 7.84814 38.617 7.81104 38.6491 7.81104L135.711 8.83612C139.821 8.89642 144.827 9.92614 148.137 10.8677C152.188 12.0227 157.985 14.0126 162.6 16.9487C163.432 17.4774 164.412 18.0804 165.547 18.7762C172.489 23.0296 184.106 30.1402 184.451 35.4141C184.451 35.4465 184.442 35.479 184.419 35.5022C184.396 35.5254 184.368 35.5393 184.336 35.5393L184.345 35.5347ZM44.3084 33.4428C47.0345 33.8463 179.376 35.2517 184.221 35.3027C183.706 30.1588 172.282 23.1641 165.437 18.971C164.301 18.2752 163.318 17.6722 162.485 17.1435C157.893 14.2213 152.119 12.2407 148.082 11.0904C144.781 10.1534 139.803 9.12834 135.716 9.06804L38.7043 8.04295L30.5672 16.6472C32.2038 18.6185 43.5728 32.3249 44.3084 33.4428Z" fill="#251E1C"/>
<path d="M124.176 32.4778L122.448 11.2201C128.999 10.8722 135.477 11.016 139.49 11.6886C139.49 11.6886 148.395 12.3751 157.29 17.5793C162.269 20.4922 178.185 28.6419 176.833 33.4751L124.176 32.4825V32.4778Z" fill="#407BFF"/>
<path d="M116.012 32.4083V11.1923L75.5743 10.3481L70.8391 31.1559L116.012 32.4083Z" fill="#407BFF"/>
<path d="M67.1107 30.9611L71.1977 10.3481L40.0237 10.0977L33.9737 17.2732L44.8094 30.6503L67.1107 30.9611Z" fill="#407BFF"/>
<path d="M124.176 32.4778L122.448 11.2201C128.999 10.8722 135.477 11.016 139.49 11.6886C139.49 11.6886 148.395 12.3751 157.29 17.5793C162.269 20.4922 178.185 28.6419 176.833 33.4751L124.176 32.4825V32.4778Z" fill="#B0D0FF"/>
<path d="M116.012 32.4083V11.1923L75.5743 10.3481L70.8391 31.1559L116.012 32.4083Z" fill="#B0D0FF"/>
<path d="M67.1107 30.9611L71.1977 10.3481L40.0237 10.0977L33.9737 17.2732L44.8094 30.6503L67.1107 30.9611Z" fill="#B0D0FF"/>
<path d="M36.4884 62.4142C25.6481 59.7703 25.5377 59.4363 25.4918 59.2926C25.2895 58.8844 19.2717 50.5075 15.2812 44.9831L15.6536 44.7095C17.9523 47.8914 25.2849 58.0587 25.8917 59.0746C26.4434 59.4132 32.7232 61.018 36.5987 61.9643L36.4884 62.4142Z" fill="#263238"/>
<path d="M18.5269 33.4701L15.4651 44.8434H5.9856L6.60623 30.8958L12.2563 23.0615L18.5269 33.4701Z" fill="#D7504D"/>
<path d="M15.5525 44.9596H5.86609L6.49132 30.8542L6.5097 30.8264L12.2609 22.853L12.3528 23.0015L18.6465 33.4517L18.6327 33.4981L15.5479 44.9549L15.5525 44.9596ZM6.10515 44.7277H15.3778L18.4028 33.4888L12.2471 23.2705L6.71658 30.9331L6.10515 44.723V44.7277Z" fill="black"/>
<path d="M64.5776 56.3887H64.1179V42.3204C64.1179 39.0411 67.6164 32.5705 67.7681 32.2969L68.1727 32.5195C68.1359 32.5845 64.5822 39.157 64.5822 42.3204V56.3887H64.5776Z" fill="#263238"/>
<path d="M121.202 80.8238L120.798 80.6011C120.816 80.5687 122.572 77.3079 123.68 72.034C124.77 66.839 124.342 47.7428 124.324 46.8801L120.779 34.0178L121.22 33.8926L124.779 46.8383C124.797 47.65 125.252 66.788 124.126 72.1268C123.004 77.4749 121.216 80.7867 121.197 80.8238H121.202Z" fill="#263238"/>
<path d="M154.822 81.014C126.958 81.014 86.4376 80.9444 83.8723 80.9398V80.4759C84.8285 80.4759 179.27 80.6383 180.856 80.4759C181.049 80.4574 181.251 80.4481 181.458 80.4388C182.929 80.3785 184.759 80.3043 186.101 75.434C187.614 69.9515 188.244 59.631 188.074 52.7013C187.917 46.3003 183.803 35.0986 183.761 34.9827L184.194 34.8203C184.235 34.9316 188.373 46.2075 188.533 52.6874C188.708 59.6496 188.069 70.0303 186.543 75.5546C185.108 80.7542 183.095 80.8331 181.472 80.898C181.274 80.9073 181.081 80.912 180.897 80.9305C180.346 80.9862 169.289 81.0047 154.817 81.0047L154.822 81.014Z" fill="#263238"/>
<path d="M25.8044 4.28076H15.4651V7.20758L19.5107 13.0056L25.8044 4.28076Z" fill="#F9F9F9"/>
<path d="M19.5107 13.2053L15.3502 7.24493V4.16504H26.0342L19.5107 13.2053ZM15.5801 7.17071L19.5107 12.8064L25.5791 4.39696H15.5801V7.17071Z" fill="black"/>
<path opacity="0.3" d="M32.0475 68.5369L5.44314 57.1172L0.202271 61.032L32.5624 71.1622L32.0475 68.5369Z" fill="black"/>
<path opacity="0.3" d="M194.023 89.1542C194.023 89.1542 187.826 81.1205 184.309 80.8329C180.792 80.5453 83.877 80.8329 83.877 80.8329L97.871 82.8738C97.871 82.8738 179.21 82.7857 181.849 85.0863C184.488 87.3869 186.433 89.1727 186.433 89.1727L194.023 89.1495V89.1542Z" fill="black"/>
<path d="M219.924 102.777C232.032 102.777 241.848 92.8962 241.848 80.7076C241.848 68.519 232.032 58.6382 219.924 58.6382C207.815 58.6382 197.999 68.519 197.999 80.7076C197.999 92.8962 207.815 102.777 219.924 102.777Z" fill="#263238"/>
<path d="M219.924 103C214.251 103 208.578 100.824 204.256 96.4783C200.073 92.2667 197.765 86.6635 197.765 80.7078C197.765 74.7521 200.068 69.1489 204.256 64.9373C212.894 56.2403 226.948 56.2403 235.586 64.9373C239.77 69.1489 242.078 74.7521 242.078 80.7078C242.078 86.6635 239.775 92.2667 235.586 96.4783C231.27 100.824 225.597 103 219.924 103ZM219.924 58.8796C214.37 58.8796 208.812 61.0086 204.583 65.2666C200.486 69.3901 198.229 74.8773 198.229 80.7078C198.229 86.5382 200.486 92.0255 204.583 96.149C213.041 104.665 226.806 104.665 235.265 96.149C239.361 92.0255 241.618 86.5382 241.618 80.7078C241.618 74.8773 239.361 69.3901 235.265 65.2666C231.035 61.0086 225.482 58.8796 219.924 58.8796Z" fill="#251E1C"/>
<g opacity="0.4">
<path d="M219.924 94.2381C227.348 94.2381 233.366 88.1804 233.366 80.7079C233.366 73.2354 227.348 67.1777 219.924 67.1777C212.5 67.1777 206.481 73.2354 206.481 80.7079C206.481 88.1804 212.5 94.2381 219.924 94.2381Z" fill="white"/>
<path d="M219.924 94.4654C216.425 94.4654 212.922 93.1249 210.256 90.4393C207.672 87.8418 206.251 84.3816 206.251 80.708C206.251 77.0344 207.672 73.5741 210.256 70.9766C215.584 65.61 224.259 65.61 229.587 70.9766C232.171 73.5741 233.591 77.0344 233.591 80.708C233.591 84.3816 232.171 87.8418 229.587 90.4393C226.921 93.1249 223.422 94.4654 219.919 94.4654H219.924ZM219.924 67.4143C216.54 67.4143 213.156 68.7084 210.582 71.3013C208.086 73.8153 206.711 77.155 206.711 80.7033C206.711 84.2517 208.086 87.596 210.582 90.1053C215.735 95.291 224.116 95.291 229.265 90.1053C231.762 87.5913 233.136 84.2517 233.136 80.7033C233.136 77.155 231.762 73.8107 229.265 71.3013C226.691 68.7084 223.307 67.4143 219.924 67.4143Z" fill="#251E1C"/>
</g>
<g opacity="0.3">
<path d="M219.919 68.5366H219.933C220.526 68.5366 221.004 69.019 221.004 69.6174V76.5518C221.004 77.1501 220.526 77.6325 219.933 77.6325H219.919C219.326 77.6325 218.848 77.1501 218.848 76.5518V69.6174C218.848 69.019 219.326 68.5366 219.919 68.5366Z" fill="white"/>
<path d="M219.928 77.8644C219.202 77.8644 218.618 77.2753 218.618 76.5517V69.6174C218.618 68.8938 219.202 68.3047 219.919 68.3047C220.636 68.3047 221.229 68.8938 221.229 69.6174V76.5517C221.229 77.2753 220.645 77.8644 219.928 77.8644ZM219.928 68.7685C219.455 68.7685 219.078 69.1489 219.078 69.6174V76.5517C219.078 77.0202 219.455 77.4006 219.919 77.4006C220.383 77.4006 220.769 77.0202 220.769 76.5517V69.6174C220.769 69.1489 220.392 68.7685 219.928 68.7685Z" fill="#251E1C"/>
</g>
<g opacity="0.3">
<path d="M219.928 83.7832H219.919C219.327 83.7832 218.848 84.2671 218.848 84.8639V91.7983C218.848 92.3952 219.327 92.8791 219.919 92.8791H219.928C220.52 92.8791 220.999 92.3952 220.999 91.7983V84.8639C220.999 84.2671 220.52 83.7832 219.928 83.7832Z" fill="white"/>
<path d="M219.928 93.111C219.202 93.111 218.618 92.5219 218.618 91.7983V84.8639C218.618 84.1403 219.202 83.5513 219.919 83.5513C220.636 83.5513 221.229 84.1403 221.229 84.8639V91.7983C221.229 92.5219 220.645 93.111 219.928 93.111ZM219.928 84.0151C219.455 84.0151 219.078 84.3955 219.078 84.8639V91.7983C219.078 92.2668 219.455 92.6471 219.919 92.6471C220.383 92.6471 220.769 92.2668 220.769 91.7983V84.8639C220.769 84.3955 220.392 84.0151 219.928 84.0151Z" fill="#251E1C"/>
</g>
<g opacity="0.3">
<path d="M215.823 79.576C216.338 79.8682 216.986 79.6873 217.276 79.1679C217.574 78.653 217.4 77.9897 216.889 77.6928L210.922 74.2094C210.407 73.9126 209.75 74.0888 209.456 74.6083C209.161 75.1278 209.336 75.7865 209.851 76.0833L215.814 79.5668C215.814 79.5668 215.823 79.5714 215.827 79.576H215.823Z" fill="white"/>
<path d="M216.347 79.9422C216.131 79.9422 215.915 79.8866 215.712 79.7752L209.731 76.2779C209.428 76.1016 209.212 75.8233 209.125 75.4847C209.033 75.1461 209.079 74.7936 209.253 74.4875C209.612 73.8567 210.412 73.6387 211.032 74.0005L217.004 77.4885C217.308 77.6648 217.519 77.9477 217.611 78.2863C217.699 78.6249 217.653 78.9774 217.478 79.2836C217.239 79.7057 216.802 79.9422 216.347 79.9422ZM210.384 74.288C210.09 74.288 209.81 74.4411 209.653 74.7148C209.538 74.9142 209.511 75.1415 209.571 75.3595C209.63 75.5775 209.768 75.763 209.966 75.8744L215.929 79.3624L215.827 79.5712L215.942 79.3671C216.342 79.5943 216.857 79.4552 217.082 79.047C217.197 78.8476 217.23 78.6203 217.17 78.4023C217.11 78.1843 216.972 77.9987 216.779 77.8874L210.812 74.404C210.678 74.3251 210.531 74.288 210.389 74.288H210.384Z" fill="#251E1C"/>
</g>
<g opacity="0.3">
<path d="M230.401 86.7655C230.695 86.246 230.52 85.5874 230.005 85.2905L224.043 81.8071C223.528 81.5056 222.87 81.6818 222.567 82.1967C222.268 82.7162 222.447 83.3795 222.962 83.681L228.925 87.1644C229.44 87.4659 230.102 87.285 230.401 86.7655Z" fill="white"/>
<path d="M229.463 87.5403C229.242 87.5403 229.017 87.4847 228.81 87.3641L222.847 83.8806C222.544 83.7044 222.328 83.4214 222.236 83.0782C222.144 82.7396 222.19 82.3824 222.365 82.0763C222.728 81.4501 223.532 81.2367 224.153 81.6032L230.116 85.0866C230.419 85.2629 230.635 85.5458 230.722 85.8844C230.814 86.223 230.768 86.5755 230.594 86.8817L230.391 86.7704L230.589 86.8863C230.346 87.3084 229.904 87.545 229.454 87.545L229.463 87.5403ZM223.5 81.8861C223.206 81.8861 222.921 82.0392 222.765 82.3082C222.654 82.503 222.622 82.735 222.682 82.9576C222.742 83.1802 222.88 83.3611 223.077 83.4771L229.04 86.9605C229.444 87.1971 229.969 87.0579 230.198 86.6497L230.208 86.6358C230.313 86.4457 230.341 86.2184 230.286 86.005C230.226 85.787 230.088 85.6015 229.89 85.4902L223.928 82.0021C223.794 81.9232 223.647 81.8861 223.5 81.8861Z" fill="#251E1C"/>
</g>
<g opacity="0.3">
<path d="M209.451 86.798C209.75 87.3128 210.403 87.4891 210.918 87.1922L216.885 83.7088C217.4 83.4073 217.57 82.744 217.271 82.2245C216.972 81.7097 216.315 81.5334 215.804 81.8349L209.842 85.3183C209.327 85.6152 209.152 86.2785 209.451 86.7933V86.798Z" fill="white"/>
<path d="M210.384 87.568C209.934 87.568 209.497 87.3315 209.253 86.914V86.9001H209.249C209.074 86.5847 209.033 86.2415 209.12 85.9168C209.212 85.5782 209.423 85.2952 209.727 85.119L215.69 81.6309C216.31 81.2691 217.11 81.4778 217.469 82.104C217.832 82.7302 217.62 83.5373 217 83.9083L211.028 87.3964C210.821 87.517 210.6 87.5727 210.38 87.5727L210.384 87.568ZM216.347 81.9138C216.204 81.9138 216.057 81.951 215.924 82.0298L209.961 85.5132C209.764 85.6292 209.626 85.8101 209.566 86.0327C209.506 86.2507 209.538 86.478 209.649 86.6775C209.883 87.0856 210.398 87.2248 210.803 86.9882L216.77 83.5048C217.17 83.2683 217.308 82.7441 217.073 82.3359C216.917 82.0669 216.632 81.9138 216.342 81.9138H216.347Z" fill="#251E1C"/>
</g>
<g opacity="0.3">
<path d="M222.572 79.1774C222.87 79.6922 223.528 79.8639 224.038 79.5624L230.001 76.0789C230.516 75.7821 230.69 75.1188 230.391 74.6039C230.093 74.0844 229.431 73.9082 228.916 74.205L222.953 77.6885C222.438 77.9853 222.264 78.6486 222.562 79.1635C222.562 79.1635 222.562 79.1727 222.567 79.1727L222.572 79.1774Z" fill="white"/>
<path d="M223.5 79.9473C223.054 79.9473 222.618 79.7154 222.374 79.3026L222.365 79.284C222.19 78.9825 222.144 78.63 222.236 78.2914C222.323 77.9528 222.539 77.6699 222.843 77.4936L228.81 74.0055C229.435 73.6437 230.235 73.8571 230.598 74.4879C230.773 74.7941 230.819 75.1466 230.732 75.4852C230.644 75.8145 230.437 76.0928 230.148 76.2691L230.12 76.2876L224.158 79.771C223.951 79.8916 223.725 79.9519 223.505 79.9519L223.5 79.9473ZM222.769 79.066C223.004 79.4696 223.523 79.6041 223.923 79.3675L229.9 75.8748C230.083 75.7681 230.221 75.5872 230.281 75.3646C230.341 75.1466 230.309 74.9193 230.198 74.7198C229.964 74.3117 229.444 74.1725 229.035 74.4091L223.073 77.8925C222.875 78.0085 222.737 78.1894 222.677 78.412C222.618 78.63 222.65 78.8573 222.76 79.0521L222.567 79.182L222.765 79.066H222.769Z" fill="#251E1C"/>
</g>
<path d="M219.919 78.8896C218.921 78.8896 218.112 79.706 218.112 80.7079C218.112 81.7098 218.921 82.5261 219.919 82.5261C220.917 82.5261 221.726 81.7098 221.726 80.7079C221.726 79.706 220.917 78.8896 219.919 78.8896Z" fill="#263238"/>
<path d="M219.919 82.758C218.797 82.758 217.882 81.8396 217.882 80.7079C217.882 79.5761 218.797 78.6577 219.919 78.6577C221.041 78.6577 221.956 79.5761 221.956 80.7079C221.956 81.8396 221.041 82.758 219.919 82.758ZM219.919 79.1216C219.05 79.1216 218.342 79.8359 218.342 80.7079C218.342 81.5799 219.05 82.2942 219.919 82.2942C220.788 82.2942 221.496 81.5799 221.496 80.7079C221.496 79.8359 220.788 79.1216 219.919 79.1216Z" fill="#251E1C"/>
<path d="M57.3461 102.777C69.4546 102.777 79.2704 92.8962 79.2704 80.7076C79.2704 68.519 69.4546 58.6382 57.3461 58.6382C45.2377 58.6382 35.4218 68.519 35.4218 80.7076C35.4218 92.8962 45.2377 102.777 57.3461 102.777Z" fill="#263238"/>
<path d="M57.3461 103C51.6731 103 46.0001 100.824 41.6787 96.4783C37.4952 92.2667 35.1874 86.6635 35.1874 80.7078C35.1874 74.7521 37.4906 69.1489 41.6787 64.9373C50.3169 56.2403 64.3708 56.2403 73.009 64.9373C77.1925 69.1489 79.5003 74.7521 79.5003 80.7078C79.5003 86.6635 77.1971 92.2667 73.009 96.4783C68.6922 100.824 63.0146 103 57.3461 103ZM57.3461 58.8796C51.7927 58.8796 46.2346 61.0086 42.0051 65.2666C37.909 69.3901 35.6517 74.8773 35.6517 80.7078C35.6517 86.5382 37.909 92.0255 42.0051 96.149C50.4641 104.665 64.2282 104.665 72.6872 96.149C76.7833 92.0255 79.0406 86.5382 79.0406 80.7078C79.0406 74.8773 76.7833 69.3901 72.6872 65.2666C68.4577 61.0086 62.9042 58.8796 57.3461 58.8796Z" fill="#251E1C"/>
<g opacity="0.4">
<path d="M57.3461 94.2381C64.7701 94.2381 70.7885 88.1804 70.7885 80.7079C70.7885 73.2354 64.7701 67.1777 57.3461 67.1777C49.9221 67.1777 43.9037 73.2354 43.9037 80.7079C43.9037 88.1804 49.9221 94.2381 57.3461 94.2381Z" fill="white"/>
<path d="M57.3461 94.4654C53.843 94.4654 50.3445 93.1249 47.6781 90.4393C45.0944 87.8418 43.6739 84.3816 43.6739 80.708C43.6739 77.0344 45.0944 73.5741 47.6781 70.9766C53.0063 65.61 61.6813 65.61 67.0096 70.9766C69.5932 73.5741 71.0138 77.0344 71.0138 80.708C71.0138 84.3816 69.5932 87.8418 67.0096 90.4393C64.3431 93.1249 60.8446 94.4654 57.3415 94.4654H57.3461ZM57.3461 67.4143C53.9625 67.4143 50.579 68.7084 48.0045 71.3013C45.5082 73.8153 44.1336 77.155 44.1336 80.7033C44.1336 84.2517 45.5082 87.596 48.0045 90.1053C53.158 95.291 61.5388 95.291 66.6877 90.1053C69.1841 87.5913 70.5586 84.2517 70.5586 80.7033C70.5586 77.155 69.1841 73.8107 66.6877 71.3013C64.1133 68.7084 60.7297 67.4143 57.3461 67.4143Z" fill="#251E1C"/>
</g>
<g opacity="0.3">
<path d="M56.2704 69.6174V76.5518C56.2704 77.1501 56.7531 77.6325 57.3415 77.6325H57.3507C57.9438 77.6325 58.4219 77.1501 58.4219 76.5518V69.6174C58.4219 69.019 57.9392 68.5366 57.3507 68.5366H57.3415C56.7485 68.5366 56.2704 69.019 56.2704 69.6174Z" fill="white"/>
<path d="M57.3507 77.8644C56.6244 77.8644 56.0405 77.2753 56.0405 76.5517V69.6174C56.0405 68.8938 56.6244 68.3047 57.3416 68.3047C58.0587 68.3047 58.6518 68.8938 58.6518 69.6174V76.5517C58.6518 77.2753 58.0679 77.8644 57.3507 77.8644ZM57.3507 68.7685C56.8772 68.7685 56.5003 69.1489 56.5003 69.6174V76.5517C56.5003 77.0202 56.8772 77.4006 57.3416 77.4006C57.8059 77.4006 58.192 77.0202 58.192 76.5517V69.6174C58.192 69.1489 57.8151 68.7685 57.3507 68.7685Z" fill="#251E1C"/>
</g>
<g opacity="0.3">
<path d="M57.3415 83.7832H57.3553C57.9484 83.7832 58.4265 84.2656 58.4265 84.8639V91.7983C58.4265 92.3967 57.9484 92.8791 57.3553 92.8791H57.3415C56.7485 92.8791 56.2704 92.3967 56.2704 91.7983V84.8639C56.2704 84.2656 56.7485 83.7832 57.3415 83.7832Z" fill="white"/>
<path d="M57.3507 93.111C56.6244 93.111 56.0405 92.5219 56.0405 91.7983V84.8639C56.0405 84.1403 56.6244 83.5513 57.3416 83.5513C58.0587 83.5513 58.6518 84.1403 58.6518 84.8639V91.7983C58.6518 92.5219 58.0679 93.111 57.3507 93.111ZM57.3507 84.0151C56.8772 84.0151 56.5003 84.3955 56.5003 84.8639V91.7983C56.5003 92.2668 56.8772 92.6471 57.3416 92.6471C57.8059 92.6471 58.192 92.2668 58.192 91.7983V84.8639C58.192 84.3955 57.8151 84.0151 57.3507 84.0151Z" fill="#251E1C"/>
</g>
<g opacity="0.3">
<path d="M53.2454 79.576C53.7603 79.8682 54.4085 79.6873 54.6981 79.1679C54.9969 78.653 54.8222 77.9897 54.312 77.6928L48.3447 74.2094C47.8298 73.9126 47.1724 74.0888 46.8782 74.6083C46.584 75.1278 46.7587 75.7865 47.2736 76.0833L53.2362 79.5668C53.2362 79.5668 53.2454 79.5714 53.25 79.576H53.2454Z" fill="white"/>
<path d="M53.7695 79.9422C53.5534 79.9422 53.3373 79.8866 53.135 79.7752L47.154 76.2779C46.8506 76.1016 46.6345 75.8233 46.5472 75.4847C46.4552 75.1461 46.5012 74.7936 46.6759 74.4875C47.0345 73.8567 47.8344 73.6387 48.455 74.0005L54.4269 77.4885C54.7303 77.6648 54.9418 77.9477 55.0337 78.2863C55.1211 78.6249 55.0751 78.9774 54.9004 79.2836C54.6613 79.7057 54.2246 79.9422 53.7695 79.9422ZM47.8068 74.288C47.5126 74.288 47.2322 74.4411 47.0759 74.7148C46.9609 74.9142 46.9333 75.1415 46.9931 75.3595C47.0529 75.5775 47.1908 75.763 47.3885 75.8744L53.3511 79.3624L53.25 79.5712L53.3649 79.3671C53.7649 79.5943 54.2798 79.4552 54.505 79.047C54.62 78.8476 54.6521 78.6203 54.5924 78.4023C54.5326 78.1843 54.3947 77.9987 54.2016 77.8874L48.2344 74.404C48.101 74.3251 47.9539 74.288 47.8114 74.288H47.8068Z" fill="#251E1C"/>
</g>
<g opacity="0.3">
<path d="M67.8233 86.7655C68.1175 86.246 67.9428 85.5874 67.4279 85.2905L61.4653 81.8071C60.9504 81.5056 60.293 81.6818 59.9895 82.1967C59.6907 82.7162 59.87 83.3795 60.3849 83.681L66.3476 87.1644C66.8624 87.4659 67.5244 87.285 67.8233 86.7655Z" fill="white"/>
<path d="M66.8854 87.5403C66.6648 87.5403 66.4395 87.4847 66.2326 87.3641L60.27 83.8806C59.9666 83.7044 59.7505 83.4214 59.6586 83.0782C59.5666 82.7396 59.6126 82.3824 59.7873 82.0763C60.1505 81.4501 60.955 81.2367 61.5756 81.6032L67.5383 85.0866C67.8417 85.2629 68.0577 85.5458 68.1451 85.8798C68.237 86.2184 68.1911 86.5709 68.0164 86.877C67.7727 87.3038 67.3314 87.5403 66.8808 87.5403H66.8854ZM60.9228 81.8861C60.6286 81.8861 60.3436 82.0392 60.1872 82.3082C60.0769 82.503 60.0447 82.735 60.1045 82.9576C60.1643 83.1802 60.3022 83.3611 60.4999 83.4771L66.4625 86.9605C66.8671 87.1971 67.3819 87.0579 67.621 86.6544L67.6394 86.6219C67.7359 86.4503 67.7635 86.2184 67.7084 86.0004C67.6486 85.7824 67.5107 85.5968 67.313 85.4855L61.3503 81.9974C61.217 81.9186 61.0699 81.8815 60.9228 81.8815V81.8861Z" fill="#251E1C"/>
</g>
<g opacity="0.3">
<path d="M46.8736 86.798C47.1724 87.3128 47.8252 87.4891 48.3401 87.1922L54.3074 83.7088C54.8222 83.4073 54.9923 82.744 54.6935 82.2245C54.3947 81.7097 53.7373 81.5334 53.227 81.8349L47.2644 85.3183C46.7495 85.6152 46.5748 86.2785 46.8736 86.7933V86.798Z" fill="white"/>
<path d="M47.8068 87.568C47.3563 87.568 46.9195 87.3315 46.6759 86.914V86.9001H46.6713C46.4966 86.5847 46.4552 86.2415 46.5426 85.9168C46.6345 85.5782 46.846 85.2952 47.1494 85.119L53.112 81.6309C53.7327 81.2691 54.5326 81.4778 54.8958 82.104C55.259 82.7302 55.0475 83.5419 54.4269 83.9083L48.455 87.3964C48.2482 87.517 48.0275 87.5727 47.8068 87.5727V87.568ZM53.7695 81.9138C53.6269 81.9138 53.4798 81.951 53.3465 82.0298L47.3839 85.5132C47.1862 85.6292 47.0483 85.8101 46.9885 86.0327C46.9287 86.2507 46.9609 86.478 47.0713 86.6775C47.3057 87.0856 47.8206 87.2248 48.2252 86.9882L54.1924 83.5048C54.5924 83.2683 54.7303 82.7441 54.4958 82.3359C54.3395 82.0669 54.0545 81.9138 53.7649 81.9138H53.7695Z" fill="#251E1C"/>
</g>
<g opacity="0.3">
<path d="M59.9942 79.1774C60.293 79.6922 60.9504 79.8639 61.4607 79.5624L67.4233 76.0789C67.9382 75.7821 68.1129 75.1188 67.8141 74.6039C67.5153 74.0844 66.8533 73.9082 66.3384 74.205L60.3757 77.6885C59.8609 77.9853 59.6862 78.6486 59.985 79.1635C59.985 79.1635 59.985 79.1727 59.9896 79.1727L59.9942 79.1774Z" fill="white"/>
<path d="M60.9228 79.9473C60.4769 79.9473 60.0401 79.7154 59.7965 79.2979V79.2887C59.6172 78.9825 59.5666 78.63 59.6585 78.2914C59.7459 77.9528 59.962 77.6699 60.2654 77.4936L66.2326 74.0055C66.8579 73.6437 67.6624 73.8571 68.021 74.4879C68.1957 74.7941 68.2416 75.1466 68.1497 75.4852C68.0623 75.8145 67.8555 76.0928 67.5658 76.2691L67.5382 76.2876L61.5756 79.771C61.3687 79.8916 61.1435 79.9519 60.9228 79.9519V79.9473ZM60.1918 79.066C60.4263 79.4696 60.9458 79.6041 61.3457 79.3675L67.3406 75.8655C67.5061 75.7681 67.644 75.5826 67.7037 75.3646C67.7635 75.1466 67.7313 74.9193 67.621 74.7198C67.3865 74.3117 66.867 74.1725 66.4579 74.4091L60.4952 77.8925C60.2976 78.0085 60.1596 78.1894 60.0999 78.412C60.0401 78.63 60.0723 78.8573 60.1826 79.0521L59.9896 79.182L60.1872 79.066H60.1918Z" fill="#251E1C"/>
</g>
<path d="M57.3462 78.8896C56.3485 78.8896 55.5394 79.706 55.5394 80.7079C55.5394 81.7098 56.3485 82.5261 57.3462 82.5261C58.3438 82.5261 59.1529 81.7098 59.1529 80.7079C59.1529 79.706 58.3438 78.8896 57.3462 78.8896Z" fill="#263238"/>
<path d="M57.3462 82.758C56.2244 82.758 55.3096 81.8396 55.3096 80.7079C55.3096 79.5761 56.2244 78.6577 57.3462 78.6577C58.4679 78.6577 59.3827 79.5761 59.3827 80.7079C59.3827 81.8396 58.4679 82.758 57.3462 82.758ZM57.3462 79.1216C56.4773 79.1216 55.7693 79.8359 55.7693 80.7079C55.7693 81.5799 56.4773 82.2942 57.3462 82.2942C58.215 82.2942 58.923 81.5799 58.923 80.7079C58.923 79.8359 58.215 79.1216 57.3462 79.1216Z" fill="#251E1C"/>
<path d="M163.189 24.0548C163.189 24.0548 150.905 13.6463 137.61 12.6119C125.013 11.6332 123.56 12.6537 123.56 12.6537L124.655 22.2505L163.189 24.0502V24.0548Z" fill="#DCE3FF"/>
<path d="M163.69 24.2542L124.498 22.422L123.372 12.5747L123.455 12.5144C123.514 12.4727 125.101 11.4708 137.614 12.4402C150.813 13.4653 163.17 23.8182 163.295 23.9202L163.685 24.2495L163.69 24.2542ZM124.811 22.088L162.669 23.8553C160.43 22.0741 149.342 13.7018 137.596 12.7881C126.737 11.9439 124.213 12.584 123.744 12.7603L124.811 22.088Z" fill="#251E1C"/>
<path d="M115.226 12.1894L114.904 21.3781L74.2502 19.9958L76.296 11.6421L115.226 12.1894Z" fill="#DCE3FF"/>
<path d="M115.069 21.5589L74.0342 20.1628L76.1627 11.4658H76.3006L115.405 12.0178L115.069 21.5589ZM74.4709 19.8288L114.738 21.1972L115.051 12.361L76.4339 11.8183L74.4755 19.8288H74.4709Z" fill="#251E1C"/>
<path d="M69.984 11.6421L68.375 18.9568L37.0861 15.2971L40.9432 11.2246L69.984 11.6421Z" fill="#DCE3FF"/>
<path d="M68.5083 19.147L36.7229 15.4316L40.8696 11.0483H40.9432L70.1955 11.4704L68.5083 19.1423V19.147ZM37.4493 15.1672L68.2371 18.7666L69.768 11.8137L41.0121 11.4009L37.4493 15.1672Z" fill="#251E1C"/>
<path d="M169.418 28.7674C169.478 27.8026 170.232 27.0373 171.183 26.9584C174.098 26.7219 179.776 27.0141 179.344 33.0162C178.902 39.1342 173.119 38.1091 170.37 37.2649C169.524 37.0052 168.968 36.1935 169.023 35.3029L169.418 28.7628V28.7674Z" fill="#F9F9F9"/>
<path d="M174.185 38.0254C172.742 38.0254 171.308 37.6822 170.333 37.3853C169.436 37.107 168.848 36.2535 168.903 35.3027L169.299 28.7625C169.363 27.7375 170.149 26.9304 171.17 26.8469C172.958 26.6985 176.231 26.7309 178.079 28.5816C179.127 29.6299 179.592 31.1281 179.454 33.0299C179.316 34.9409 178.645 36.3278 177.463 37.1487C176.521 37.8028 175.349 38.0254 174.181 38.0254H174.185ZM169.533 28.7765L169.138 35.3166C169.087 36.1561 169.607 36.9168 170.402 37.1627C172.121 37.6914 175.307 38.364 177.335 36.9586C178.456 36.1793 179.095 34.8527 179.229 33.0159C179.362 31.1838 178.921 29.7459 177.918 28.7486C176.135 26.9675 172.94 26.9397 171.188 27.0835C170.282 27.1577 169.584 27.872 169.528 28.7811L169.533 28.7765Z" fill="black"/>
<path d="M179.343 33.0205L172.723 33.5029C172.723 33.5029 172.682 34.9501 173.482 35.1217C174.282 35.2933 178.893 35.1217 178.893 35.1217C178.893 35.1217 179.325 33.9389 179.343 33.0205Z" fill="#CCCCCC"/>
<path d="M175.257 35.3119C174.443 35.3119 173.735 35.2933 173.459 35.233C172.572 35.0428 172.609 33.5632 172.609 33.4983V33.3916L172.714 33.3823L179.458 32.8906V33.0159C179.44 33.9435 179.017 35.1078 178.999 35.1542L178.971 35.2284H178.893C178.769 35.2376 176.81 35.3072 175.252 35.3072L175.257 35.3119ZM172.838 33.6096C172.848 33.9296 172.921 34.8805 173.505 35.0057C174.227 35.1588 178.199 35.0289 178.81 35.0057C178.898 34.7506 179.183 33.8786 179.224 33.1411L172.838 33.6096Z" fill="black"/>
<path d="M174.19 38.1458C172.921 38.1458 171.629 37.8768 170.554 37.566C169.455 37.246 168.733 36.2209 168.807 35.0659L169.142 29.4998C169.239 27.9367 170.475 26.7261 172.02 26.6797C173.979 26.6194 176.654 26.9024 178.245 28.5768C179.261 29.6483 179.707 31.1465 179.573 33.0343C179.436 34.9685 178.755 36.3786 177.56 37.2228C176.594 37.9 175.404 38.1458 174.19 38.1458ZM172.494 27.1389C172.337 27.1389 172.181 27.1389 172.034 27.1482C170.728 27.1853 169.68 28.215 169.602 29.5323L169.266 35.0984C169.211 36.0307 169.79 36.8656 170.682 37.1254C172.328 37.6031 175.372 38.2015 177.298 36.8471C178.378 36.0864 178.99 34.7969 179.118 33.0065C179.242 31.2578 178.838 29.8756 177.918 28.9061C176.558 27.4775 174.305 27.1435 172.498 27.1435L172.494 27.1389Z" fill="#263238"/>
<path d="M35.4218 45.7992C32.5302 45.7992 30.181 43.5496 30.181 40.7851C30.181 38.0206 32.5348 35.771 35.4218 35.771C38.3089 35.771 40.6627 38.0206 40.6627 40.7851C40.6627 43.5496 38.3089 45.7992 35.4218 45.7992ZM35.4218 36.2395C32.783 36.2395 30.6407 38.2804 30.6407 40.7897C30.6407 43.2991 32.7876 45.34 35.4218 45.34C38.0561 45.34 40.203 43.2991 40.203 40.7897C40.203 38.2804 38.0561 36.2395 35.4218 36.2395Z" fill="#263238"/>
<path d="M239.945 45.6738H232.644C232.644 45.6738 248.693 58.4711 252.504 58.986C256.315 59.5009 258.136 58.0537 258.136 58.0537L258.444 50.7297C258.444 50.7297 256.348 47.7704 253.015 46.9494C249.167 46.0032 239.945 45.6738 239.945 45.6738Z" fill="#D8D8D8"/>
<path d="M254.104 59.2135C253.612 59.2135 253.074 59.181 252.486 59.1022C248.689 58.592 233.228 46.291 232.571 45.7668L232.313 45.5581H239.949C240.041 45.5581 249.222 45.8967 253.042 46.8383C256.38 47.6593 258.517 50.6325 258.536 50.665L258.559 50.6974V50.7392L258.246 58.1142L258.205 58.1467C258.141 58.1977 256.821 59.2182 254.104 59.2182V59.2135ZM232.975 45.79C235.067 47.4413 249.047 58.4064 252.518 58.8703C255.92 59.3295 257.731 58.1931 258.021 57.989L258.329 50.7624C258.095 50.4423 256.058 47.817 252.992 47.0609C249.217 46.1333 240.128 45.7947 239.949 45.79H232.98H232.975Z" fill="#251E1C"/>
<path d="M239.963 47.3761L239.172 50.3029C239.172 50.3029 248.693 56.8987 252.504 57.4136C256.315 57.9284 258.154 56.5276 258.154 56.5276L258.444 50.7296C258.444 50.7296 255.934 47.0282 252.504 46.903C249.075 46.7731 239.963 47.3807 239.963 47.3807V47.3761Z" fill="white"/>
<path d="M254.145 57.6411C253.64 57.6411 253.088 57.6086 252.486 57.5251C248.693 57.0149 239.494 50.6649 239.103 50.3959L239.034 50.3495L239.871 47.265H239.954C240.046 47.2511 249.107 46.6527 252.504 46.7826C255.952 46.9125 258.508 50.6232 258.536 50.6603L258.559 50.6928V50.7299L258.265 56.5789L258.223 56.6113C258.159 56.6624 256.844 57.6364 254.15 57.6364L254.145 57.6411ZM239.301 50.2521C240.161 50.8412 248.941 56.8154 252.518 57.2932C255.92 57.7524 257.745 56.6531 258.039 56.4583L258.324 50.7577C258.072 50.4005 255.663 47.1305 252.495 47.0099C249.282 46.8893 240.965 47.4227 240.05 47.483L239.301 50.2475V50.2521Z" fill="#251E1C"/>
<path d="M185.173 34.1104C185.173 34.1104 186.943 35.9425 187.531 35.9889C188.12 36.0399 238.74 44.3983 238.74 44.3983C238.74 44.3983 226.714 40.8314 216.977 38.9343C201.617 35.9425 185.178 34.1104 185.178 34.1104H185.173Z" fill="#D8D8D8"/>
<path d="M238.717 44.5145C238.211 44.431 188.097 36.1561 187.517 36.1051C186.906 36.0541 185.274 34.3796 185.09 34.1894L184.865 33.9575L185.182 33.9946C185.348 34.0132 201.801 35.8639 216.99 38.8232C226.622 40.6971 238.644 44.2547 238.768 44.2872L238.717 44.5145ZM185.486 34.2637C186.189 34.9687 187.182 35.8453 187.54 35.8778C188.069 35.9242 227.394 42.4133 236.814 43.9672C233.035 42.8911 224.296 40.4837 216.954 39.0551C202.95 36.3277 187.871 34.542 185.49 34.2683L185.486 34.2637Z" fill="#251E1C"/>
<path d="M253.019 63.1281C255.938 63.2905 255.543 68.5365 255.543 68.5365L260.743 74.5386V81.6121C258.931 83.9962 249.948 85.9165 249.948 85.9165L244.289 85.4898C244.151 80.9906 243.301 72.4513 239.172 65.6653C239.172 65.6653 250.105 62.9658 253.019 63.1281Z" fill="#BCBCBC"/>
<path d="M249.962 86.1485H249.93L244.064 85.7032V85.4945C243.921 81.0277 243.08 72.5255 238.975 65.7859L238.809 65.5169L239.117 65.4427C239.563 65.3314 250.114 62.7385 253.033 62.9009C253.686 62.938 254.237 63.2116 254.67 63.708C255.888 65.1134 255.81 67.8918 255.778 68.4623L260.972 74.4597V81.6956L260.926 81.7559C259.083 84.1818 250.367 86.065 249.994 86.1438H249.962V86.1485ZM244.51 85.2718L249.93 85.68C250.509 85.5547 258.72 83.7272 260.513 81.5286V74.6267L255.304 68.6154L255.313 68.518C255.313 68.4855 255.529 65.3963 254.325 64.0048C253.971 63.5966 253.539 63.3833 253.005 63.3554C250.426 63.2163 241.319 65.3778 239.531 65.8138C243.489 72.4977 244.358 80.7679 244.514 85.2718H244.51Z" fill="#263238"/>
<path d="M260.743 60.7532C260.743 60.7532 257.17 59.807 256.522 62.9332C255.603 67.3629 254.21 77.6601 254.21 77.6601C254.21 77.6601 258.839 75.3688 260.747 77.1128V60.7486L260.743 60.7532Z" fill="#D8D8D8"/>
<path d="M253.92 78.0639L253.98 77.6325C253.994 77.5304 255.387 67.275 256.297 62.8871C256.485 61.9826 256.922 61.31 257.603 60.8879C258.945 60.053 260.729 60.5122 260.802 60.5308L260.972 60.5771V77.6418L260.586 77.2892C258.821 75.6704 254.352 77.8505 254.306 77.8737L253.92 78.0639ZM259.566 60.8554C259.028 60.8554 258.38 60.9482 257.837 61.2868C257.272 61.6393 256.904 62.2099 256.743 62.9891C255.938 66.8529 254.762 75.3087 254.49 77.2846C255.589 76.8022 258.72 75.5962 260.513 76.6677V60.9482C260.32 60.9111 259.97 60.8601 259.566 60.8601V60.8554Z" fill="#263238"/>
<path d="M12.2563 24.6201C12.2563 24.6201 16.3156 32.1807 15.98 32.408C14.9411 33.1176 7.89806 37.487 7.81991 37.218C7.47052 36.012 7.59005 33.3867 7.70498 31.7864C7.76474 30.933 8.07736 30.1166 8.59225 29.4348L12.2517 24.6201H12.2563Z" fill="#FFE6E6"/>
<path d="M7.8199 37.3388C7.8199 37.3388 7.80151 37.3388 7.79231 37.3388L7.73715 37.3202L7.70956 37.2553C7.35098 36.0169 7.4797 33.2941 7.59004 31.782C7.6544 30.9054 7.96701 30.0751 8.50029 29.3701L12.2654 24.4116L12.3482 24.5693C16.4581 32.218 16.1409 32.436 16.0352 32.5102C15.7226 32.7236 8.45432 37.3481 7.8107 37.3481L7.8199 37.3388ZM12.2379 24.8337L8.68878 29.5092C8.18308 30.1771 7.88426 30.9657 7.8245 31.7959C7.71876 33.257 7.59003 35.8545 7.91184 37.0976C8.70717 36.8286 14.6054 33.2014 15.8881 32.334C15.8789 31.8145 13.6952 27.5518 12.2425 24.8337H12.2379Z" fill="black"/>
<path d="M74.2502 47.5201C77.7109 47.5201 80.5163 46.0872 80.5163 44.3196C80.5163 42.552 77.7109 41.1191 74.2502 41.1191C70.7896 41.1191 67.9842 42.552 67.9842 44.3196C67.9842 46.0872 70.7896 47.5201 74.2502 47.5201Z" fill="#F9F9F9"/>
<path d="M74.2502 47.6363C70.7288 47.6363 67.8693 46.1474 67.8693 44.3199C67.8693 42.4923 70.7333 41.0034 74.2502 41.0034C77.7671 41.0034 80.6312 42.4923 80.6312 44.3199C80.6312 46.1474 77.7671 47.6363 74.2502 47.6363ZM74.2502 41.2353C70.8575 41.2353 68.0991 42.6176 68.0991 44.3199C68.0991 46.0222 70.8575 47.4044 74.2502 47.4044C77.643 47.4044 80.4014 46.0222 80.4014 44.3199C80.4014 42.6176 77.643 41.2353 74.2502 41.2353Z" fill="black"/>
<path d="M80.383 43.4526H68.1221V43.6892H80.383V43.4526Z" fill="black"/>
<path d="M80.383 44.9556H68.1221V45.1921H80.383V44.9556Z" fill="black"/>
<path d="M132.994 47.5201C136.455 47.5201 139.26 46.0872 139.26 44.3196C139.26 42.552 136.455 41.1191 132.994 41.1191C129.533 41.1191 126.728 42.552 126.728 44.3196C126.728 46.0872 129.533 47.5201 132.994 47.5201Z" fill="#F9F9F9"/>
<path d="M132.994 47.6363C129.473 47.6363 126.613 46.1474 126.613 44.3199C126.613 42.4923 129.477 41.0034 132.994 41.0034C136.511 41.0034 139.375 42.4923 139.375 44.3199C139.375 46.1474 136.511 47.6363 132.994 47.6363ZM132.994 41.2353C129.601 41.2353 126.843 42.6176 126.843 44.3199C126.843 46.0222 129.601 47.4044 132.994 47.4044C136.387 47.4044 139.145 46.0222 139.145 44.3199C139.145 42.6176 136.387 41.2353 132.994 41.2353Z" fill="black"/>
<path d="M139.127 43.4526H126.866V43.6892H139.127V43.4526Z" fill="black"/>
<path d="M139.127 44.9556H126.866V45.1921H139.127V44.9556Z" fill="black"/>
<path d="M132.424 62.6692C132.378 63.2768 132.254 63.7917 132.047 64.2184C131.527 65.2528 130.626 65.7676 129.344 65.7676C128.061 65.7676 127.16 65.2528 126.65 64.2184C126.549 64.005 126.457 63.7685 126.379 63.5041C126.3 63.2443 126.259 62.966 126.259 62.6646V57.8035C126.259 57.5067 126.296 57.2284 126.379 56.964C126.457 56.7042 126.549 56.4677 126.65 56.2543C127.16 55.2199 128.057 54.7051 129.344 54.7051C130.631 54.7051 131.532 55.2199 132.047 56.2543C132.249 56.6903 132.378 57.2098 132.424 57.8035C132.378 58.323 132.121 58.5874 131.661 58.5874H130.879C130.397 58.5874 130.144 58.3277 130.116 57.8035C130.107 57.3304 129.849 57.0707 129.339 57.0335C128.833 57.0707 128.576 57.3258 128.576 57.8035V62.6646C128.576 63.1377 128.829 63.3974 129.339 63.4345C129.845 63.3974 130.107 63.1423 130.116 62.6646C130.144 62.1451 130.401 61.8807 130.879 61.8807H131.661C132.125 61.8807 132.383 62.1404 132.424 62.6646V62.6692Z" fill="#D2772E"/>
<path d="M129.344 65.8882C128.015 65.8882 127.077 65.3455 126.549 64.2741C126.443 64.0561 126.351 63.8102 126.273 63.5458C126.19 63.2768 126.149 62.9846 126.149 62.6738V57.8128C126.149 57.502 126.19 57.2098 126.273 56.9408C126.351 56.6764 126.448 56.4306 126.549 56.2125C127.077 55.1411 128.015 54.5938 129.344 54.5938C130.672 54.5938 131.615 55.1364 132.153 56.2079C132.364 56.6578 132.493 57.1912 132.539 57.7989C132.475 58.5503 132.024 58.708 131.661 58.708H130.879C130.337 58.708 130.029 58.3972 130.001 57.8174C129.992 57.4 129.781 57.1912 129.33 57.1588C128.898 57.1912 128.691 57.4 128.691 57.8128V62.6738C128.691 63.0866 128.898 63.2954 129.344 63.3278C129.776 63.2954 129.987 63.0866 129.997 62.6738C130.029 62.0847 130.332 61.7786 130.879 61.7786H131.661C132.029 61.7786 132.475 61.9317 132.539 62.6645C132.539 62.6692 132.539 62.6785 132.539 62.6831C132.493 63.3 132.364 63.8381 132.153 64.2741C131.615 65.3455 130.672 65.8929 129.344 65.8929V65.8882ZM129.344 54.8257C128.093 54.8257 127.247 55.3127 126.756 56.3146C126.659 56.5187 126.567 56.7552 126.493 57.0104C126.42 57.2562 126.379 57.5252 126.379 57.8128V62.6738C126.379 62.9614 126.415 63.2304 126.493 63.4763C126.572 63.7314 126.659 63.9633 126.76 64.172C127.252 65.1693 128.098 65.6563 129.348 65.6563C130.599 65.6563 131.449 65.1693 131.95 64.1674C132.144 63.7592 132.268 63.2536 132.314 62.6692C132.272 62.2146 132.065 62.0013 131.665 62.0013H130.884C130.466 62.0013 130.259 62.2146 130.231 62.6738C130.222 63.2072 129.918 63.5087 129.348 63.5505C128.765 63.5087 128.466 63.2026 128.466 62.6645V57.8035C128.466 57.2655 128.765 56.9593 129.335 56.9176C129.918 56.9593 130.222 57.2655 130.231 57.7989C130.254 58.2534 130.461 58.4668 130.884 58.4668H131.665C132.07 58.4668 132.277 58.2534 132.318 57.7896C132.272 57.2284 132.153 56.7228 131.955 56.3007C131.454 55.3034 130.603 54.8164 129.353 54.8164L129.344 54.8257Z" fill="#231815"/>
<path d="M139.954 64.8911C139.954 65.1508 139.885 65.3456 139.752 65.4801C139.619 65.61 139.43 65.6749 139.191 65.6749H138.41C138.166 65.6749 137.982 65.61 137.844 65.4801C137.711 65.3503 137.642 65.1554 137.642 64.8911V62.5719H136.106V64.8911C136.106 65.1508 136.037 65.3456 135.899 65.4801C135.762 65.61 135.573 65.6749 135.329 65.6749H134.566C134.327 65.6749 134.139 65.61 133.996 65.4801C133.858 65.3503 133.789 65.1554 133.789 64.8911V57.8082C133.789 56.5234 134.304 55.6189 135.329 55.0994C135.541 54.9974 135.775 54.9093 136.037 54.835C136.295 54.7608 136.575 54.7191 136.869 54.7098C137.518 54.6913 138.065 54.8165 138.515 55.0809C138.966 55.3453 139.315 55.7395 139.577 56.2637C139.678 56.477 139.766 56.7136 139.839 56.9733C139.913 57.2331 139.95 57.5114 139.95 57.8129V64.8957L139.954 64.8911ZM137.642 60.2388V57.8082C137.642 57.3259 137.384 57.0661 136.869 57.0383C136.63 57.029 136.442 57.0893 136.309 57.2192C136.175 57.349 136.106 57.5439 136.106 57.8036V60.2341H137.642V60.2388Z" fill="#D2772E"/>
<path d="M139.191 65.7863H138.41C138.138 65.7863 137.922 65.7121 137.766 65.559C137.61 65.406 137.527 65.1787 137.527 64.8865V62.6832H136.221V64.8865C136.221 65.1787 136.139 65.406 135.978 65.559C135.817 65.7074 135.601 65.7863 135.329 65.7863H134.566C134.3 65.7863 134.079 65.7121 133.918 65.559C133.757 65.406 133.674 65.1787 133.674 64.8865V57.8036C133.674 56.4771 134.212 55.5308 135.279 54.9881C135.499 54.8815 135.743 54.7933 136.005 54.7145C136.272 54.6356 136.561 54.5939 136.865 54.5846C137.531 54.5614 138.106 54.6959 138.57 54.9696C139.035 55.2432 139.407 55.6561 139.678 56.1988C139.784 56.4214 139.876 56.6626 139.95 56.9316C140.028 57.2006 140.065 57.4929 140.065 57.8036V64.8865C140.065 65.1787 139.986 65.406 139.826 65.559C139.669 65.7074 139.453 65.7863 139.182 65.7863H139.191ZM136.106 62.4559H137.642C137.706 62.4559 137.757 62.507 137.757 62.5719V64.8911C137.757 65.123 137.812 65.2854 137.922 65.3967C138.037 65.508 138.193 65.559 138.405 65.559H139.186C139.398 65.559 139.559 65.5034 139.669 65.3967C139.78 65.29 139.835 65.123 139.835 64.8911V57.8083C139.835 57.5207 139.798 57.2517 139.729 57.0012C139.655 56.7507 139.573 56.5142 139.472 56.3101C139.223 55.8138 138.883 55.4288 138.456 55.1783C138.028 54.9278 137.495 54.8026 136.874 54.8258C136.589 54.8351 136.318 54.8768 136.07 54.9464C135.817 55.0206 135.587 55.1041 135.38 55.2061C134.387 55.7071 133.904 56.5605 133.904 57.8129V64.8957C133.904 65.123 133.964 65.29 134.074 65.3967C134.194 65.508 134.35 65.559 134.562 65.559H135.325C135.532 65.559 135.697 65.5034 135.817 65.3967C135.932 65.29 135.987 65.123 135.987 64.8957V62.5765C135.987 62.5116 136.037 62.4606 136.102 62.4606L136.106 62.4559ZM137.642 60.3547H136.106C136.042 60.3547 135.991 60.3037 135.991 60.2388V57.8083C135.991 57.5161 136.07 57.2888 136.226 57.1403C136.382 56.9873 136.598 56.9177 136.869 56.927C137.449 56.9595 137.752 57.2609 137.752 57.8129V60.2434C137.752 60.3084 137.702 60.3594 137.637 60.3594L137.642 60.3547ZM136.221 60.1228H137.527V57.8083C137.527 57.3862 137.315 57.1775 136.86 57.1543C136.658 57.145 136.497 57.196 136.387 57.3027C136.276 57.4094 136.221 57.5764 136.221 57.8036V60.1182V60.1228Z" fill="#231815"/>
<path d="M147.485 62.6695C147.475 62.9664 147.434 63.2447 147.36 63.5091C147.287 63.7688 147.199 64.01 147.098 64.2234C146.841 64.7429 146.487 65.1371 146.041 65.4062C145.59 65.6706 145.048 65.7958 144.4 65.7772C144.106 65.768 143.825 65.7262 143.568 65.652C143.31 65.5778 143.071 65.4897 142.86 65.3876C142.345 65.1279 141.954 64.7707 141.687 64.3254C141.425 63.8801 141.301 63.3282 141.32 62.6788C141.338 62.1593 141.595 61.8949 142.097 61.8949H142.86C143.338 61.8949 143.6 62.15 143.637 62.6649C143.683 63.1844 143.935 63.4488 144.4 63.4488H144.414C144.671 63.4488 144.864 63.3792 144.988 63.2447C145.112 63.1102 145.177 62.92 145.177 62.6788C145.177 62.4376 145.062 62.1871 144.832 61.9506C144.584 61.7001 144.174 61.38 143.614 60.9858C142.855 60.4663 142.349 60.0581 142.092 59.7705C141.834 59.4922 141.637 59.1907 141.503 58.8707C141.37 58.5506 141.31 58.2028 141.329 57.8317C141.338 57.5348 141.379 57.2519 141.453 56.9875C141.526 56.7231 141.614 56.4819 141.715 56.2685C141.972 55.7444 142.322 55.3548 142.768 55.0858C143.209 54.8214 143.756 54.6961 144.404 54.7147C144.699 54.724 144.974 54.7657 145.236 54.8399C145.494 54.9141 145.728 55.0023 145.94 55.1043C146.469 55.3641 146.859 55.7212 147.126 56.1711C147.388 56.6211 147.512 57.173 147.494 57.827C147.485 58.3419 147.227 58.597 146.717 58.597H145.94C145.48 58.597 145.227 58.3373 145.181 57.8131C145.135 57.2936 144.878 57.0339 144.404 57.0432C143.894 57.071 143.641 57.3307 143.641 57.827C143.641 58.0126 143.779 58.2306 144.055 58.4857C144.129 58.5506 144.257 58.6573 144.45 58.8011C144.639 58.9449 144.882 59.1304 145.177 59.3531C145.926 59.9143 146.446 60.3689 146.74 60.7214C146.988 61.0183 147.181 61.329 147.314 61.6583C147.448 61.983 147.508 62.3263 147.489 62.6788L147.485 62.6695Z" fill="#D2772E"/>
<path d="M144.524 65.8883C144.483 65.8883 144.441 65.8883 144.4 65.8883C144.096 65.8791 143.807 65.8327 143.54 65.7585C143.273 65.6796 143.03 65.5915 142.814 65.4848C142.28 65.2158 141.871 64.8447 141.595 64.3762C141.324 63.9124 141.195 63.3372 141.214 62.6647C141.237 62.0802 141.545 61.7695 142.106 61.7695H142.869C143.411 61.7695 143.719 62.071 143.761 62.6461C143.802 63.1053 144.009 63.3233 144.409 63.3233C144.648 63.3233 144.809 63.2677 144.915 63.1563C145.016 63.045 145.071 62.878 145.071 62.6693C145.071 62.4606 144.965 62.2333 144.758 62.0246C144.515 61.7834 144.11 61.4633 143.554 61.0737C142.782 60.5403 142.276 60.1367 142.009 59.8399C141.743 59.5523 141.54 59.2415 141.402 58.9076C141.264 58.5736 141.2 58.2072 141.218 57.8176C141.228 57.5114 141.274 57.2192 141.347 56.9455C141.421 56.6765 141.513 56.426 141.618 56.208C141.885 55.6653 142.253 55.2525 142.717 54.9789C143.177 54.7052 143.742 54.5707 144.414 54.5939C144.717 54.6032 145.002 54.6495 145.273 54.7238C145.535 54.798 145.779 54.8907 145.995 54.9928C146.538 55.2618 146.956 55.6375 147.227 56.106C147.498 56.5745 147.627 57.1543 147.609 57.8222C147.599 58.3974 147.291 58.7035 146.717 58.7035H145.94C145.577 58.7035 145.131 58.5504 145.066 57.8176C145.025 57.3676 144.823 57.1543 144.432 57.1543C144.423 57.1543 144.418 57.1543 144.409 57.1543C143.968 57.1775 143.761 57.3908 143.761 57.8222C143.761 57.9242 143.825 58.1098 144.138 58.3927C144.211 58.4577 144.34 58.5597 144.524 58.7035L145.25 59.2555C146.013 59.826 146.528 60.2805 146.832 60.6423C147.089 60.9485 147.287 61.2732 147.425 61.6071C147.563 61.9457 147.627 62.3075 147.609 62.6739C147.599 62.9801 147.553 63.2677 147.48 63.5413C147.406 63.8104 147.314 64.0515 147.209 64.2742C146.942 64.8122 146.57 65.2251 146.105 65.5034C145.669 65.7631 145.14 65.893 144.529 65.893L144.524 65.8883ZM142.101 62.0014C141.669 62.0014 141.458 62.2147 141.439 62.6693C141.421 63.2955 141.54 63.8289 141.789 64.2556C142.041 64.6824 142.418 65.0256 142.91 65.2714C143.113 65.3688 143.342 65.457 143.595 65.5312C143.844 65.6008 144.11 65.6425 144.4 65.6518C145.02 65.6703 145.549 65.5497 145.977 65.2993C146.404 65.0442 146.744 64.6638 146.993 64.1675C147.089 63.9634 147.177 63.7315 147.245 63.4764C147.314 63.2259 147.356 62.9523 147.365 62.6647C147.383 62.3307 147.328 62.006 147.2 61.6952C147.071 61.3845 146.882 61.0783 146.643 60.7908C146.358 60.4475 145.839 59.993 145.099 59.441L144.372 58.889C144.179 58.7406 144.046 58.6339 143.972 58.569C143.664 58.2907 143.517 58.0495 143.517 57.8268C143.517 57.2702 143.816 56.9595 144.386 56.927C144.754 56.927 145.218 57.0661 145.282 57.799C145.324 58.2628 145.531 58.4762 145.926 58.4762H146.703C147.144 58.4762 147.356 58.2675 147.365 57.8222C147.383 57.196 147.264 56.658 147.016 56.2266C146.763 55.7952 146.381 55.452 145.88 55.2015C145.678 55.1041 145.443 55.016 145.195 54.9464C144.947 54.8722 144.676 54.8351 144.391 54.8258C143.77 54.8026 143.241 54.9278 142.818 55.1783C142.395 55.4334 142.055 55.8138 141.812 56.3101C141.715 56.5142 141.628 56.7507 141.554 57.0058C141.485 57.2563 141.444 57.5346 141.435 57.8222C141.416 58.1793 141.471 58.5133 141.6 58.8148C141.729 59.1256 141.917 59.4132 142.166 59.6822C142.418 59.9651 142.924 60.3687 143.669 60.8835C144.243 61.2824 144.648 61.6025 144.905 61.8622C145.158 62.1173 145.287 62.391 145.287 62.6693C145.287 62.9476 145.213 63.1563 145.071 63.314C144.924 63.4717 144.703 63.5552 144.414 63.5552C144.037 63.5552 143.591 63.4022 143.526 62.6693C143.494 62.2147 143.283 62.006 142.864 62.006H142.101V62.0014Z" fill="#231815"/>
<path d="M155.033 64.891C155.033 65.1507 154.964 65.3455 154.831 65.4801C154.698 65.6099 154.509 65.6749 154.266 65.6749H153.484C153.24 65.6749 153.052 65.6099 152.919 65.4801C152.785 65.3502 152.716 65.1554 152.716 64.891V61.0226H151.181V64.891C151.181 65.1507 151.112 65.3455 150.974 65.4801C150.836 65.6099 150.647 65.6749 150.408 65.6749H149.645C149.406 65.6749 149.218 65.6099 149.08 65.4801C148.942 65.3502 148.873 65.1554 148.873 64.891V55.5864C148.873 55.3266 148.942 55.1318 149.08 55.0019C149.218 54.8721 149.406 54.8071 149.645 54.8071H150.408C150.647 54.8071 150.836 54.8721 150.974 55.0019C151.112 55.1318 151.181 55.3266 151.181 55.5864V58.6848H152.716V55.5864C152.716 55.3266 152.785 55.1318 152.919 55.0019C153.052 54.8721 153.24 54.8071 153.484 54.8071H154.266C154.509 54.8071 154.693 54.8721 154.831 55.0019C154.964 55.1318 155.033 55.3266 155.033 55.5864V64.891Z" fill="#D2772E"/>
<path d="M154.266 65.7864H153.484C153.213 65.7864 152.997 65.7076 152.84 65.5591C152.684 65.4061 152.601 65.1788 152.601 64.8866V61.1341H151.296V64.8866C151.296 65.1788 151.213 65.4061 151.052 65.5591C150.891 65.7076 150.675 65.7864 150.404 65.7864H149.641C149.374 65.7864 149.153 65.7122 148.997 65.5591C148.836 65.4061 148.753 65.1788 148.753 64.8866V55.582C148.753 55.2898 148.836 55.0625 148.997 54.9094C149.158 54.761 149.374 54.6821 149.645 54.6821H150.408C150.675 54.6821 150.896 54.7563 151.052 54.9094C151.213 55.0625 151.296 55.2898 151.296 55.582V58.5645H152.601V55.582C152.601 55.2898 152.679 55.0671 152.84 54.9094C152.997 54.7563 153.213 54.6821 153.484 54.6821H154.266C154.537 54.6821 154.753 54.761 154.909 54.9094C155.065 55.0625 155.148 55.2898 155.148 55.582V64.8866C155.148 65.1788 155.07 65.4061 154.909 65.5591C154.753 65.7076 154.537 65.7864 154.266 65.7864ZM151.181 60.9022H152.716C152.781 60.9022 152.831 60.9532 152.831 61.0182V64.8866C152.831 65.1139 152.886 65.2808 153.001 65.3922C153.112 65.4988 153.277 65.5545 153.484 65.5545H154.266C154.477 65.5545 154.638 65.4988 154.748 65.3922C154.859 65.2855 154.914 65.1139 154.914 64.8866V55.582C154.914 55.3547 154.859 55.1877 154.748 55.0764C154.638 54.9697 154.472 54.914 154.266 54.914H153.484C153.273 54.914 153.112 54.9697 153.001 55.0764C152.886 55.1877 152.831 55.3501 152.831 55.582V58.6804C152.831 58.7454 152.781 58.7964 152.716 58.7964H151.181C151.116 58.7964 151.066 58.7454 151.066 58.6804V55.582C151.066 55.3547 151.011 55.1877 150.896 55.081C150.781 54.9743 150.615 54.9187 150.408 54.9187H149.645C149.434 54.9187 149.273 54.9743 149.158 55.081C149.043 55.1924 148.988 55.3547 148.988 55.582V64.8866C148.988 65.1139 149.048 65.2808 149.158 65.3875C149.278 65.4988 149.434 65.5499 149.645 65.5499H150.408C150.615 65.5499 150.781 65.4942 150.896 65.3875C151.011 65.2808 151.066 65.1092 151.066 64.8866V61.0182C151.066 60.9532 151.116 60.9022 151.181 60.9022Z" fill="#231815"/>
<path d="M163.414 62.6692C163.368 63.2768 163.244 63.7917 163.037 64.2184C162.518 65.2528 161.617 65.7676 160.334 65.7676C159.051 65.7676 158.15 65.2528 157.644 64.2184C157.543 64.005 157.451 63.7685 157.373 63.5041C157.295 63.2443 157.254 62.966 157.254 62.6646V57.8035C157.254 57.5067 157.295 57.2284 157.373 56.964C157.451 56.7042 157.543 56.4677 157.644 56.2543C158.15 55.2199 159.051 54.7051 160.334 54.7051C161.617 54.7051 162.522 55.2199 163.037 56.2543C163.239 56.6903 163.368 57.2098 163.414 57.8035C163.368 58.323 163.115 58.5874 162.651 58.5874H161.869C161.387 58.5874 161.134 58.3277 161.102 57.8035C161.092 57.3304 160.835 57.0707 160.325 57.0335C159.819 57.0707 159.562 57.3258 159.562 57.8035V62.6646C159.562 63.1377 159.814 63.3974 160.325 63.4345C160.835 63.3974 161.092 63.1423 161.102 62.6646C161.129 62.1451 161.382 61.8807 161.869 61.8807H162.651C163.115 61.8807 163.368 62.1404 163.414 62.6646V62.6692Z" fill="#3D3D3E"/>
<path d="M160.334 65.8882C159.005 65.8882 158.067 65.3455 157.539 64.2741C157.433 64.0561 157.341 63.8102 157.263 63.5458C157.18 63.2722 157.139 62.98 157.139 62.6738V57.8128C157.139 57.5067 157.18 57.2144 157.263 56.9408C157.346 56.6717 157.438 56.4306 157.539 56.2125C158.067 55.1411 159.005 54.5938 160.334 54.5938C161.662 54.5938 162.605 55.1364 163.143 56.2079C163.354 56.6578 163.483 57.1912 163.529 57.7989C163.465 58.5503 163.014 58.708 162.651 58.708H161.869C161.327 58.708 161.019 58.3972 160.987 57.8174C160.978 57.4 160.766 57.1912 160.315 57.1588C159.883 57.1912 159.676 57.4 159.676 57.8128V62.6738C159.676 63.0866 159.883 63.2954 160.329 63.3278C160.761 63.2954 160.973 63.0866 160.982 62.6738C161.014 62.0847 161.318 61.7786 161.865 61.7786H162.646C163.009 61.7786 163.46 61.9317 163.524 62.6645C163.524 62.6692 163.524 62.6785 163.524 62.6831C163.478 63.3 163.35 63.8381 163.138 64.2741C162.6 65.3455 161.658 65.8929 160.329 65.8929L160.334 65.8882ZM160.334 54.8257C159.083 54.8257 158.238 55.3127 157.746 56.3146C157.649 56.5187 157.557 56.7506 157.484 57.0104C157.41 57.2608 157.369 57.5298 157.369 57.8128V62.6738C157.369 62.9568 157.405 63.2304 157.484 63.4809C157.562 63.736 157.649 63.9679 157.75 64.1767C158.242 65.1739 159.088 65.6609 160.338 65.6609C161.589 65.6609 162.439 65.1739 162.941 64.172C163.134 63.7638 163.258 63.2583 163.304 62.6738C163.262 62.2193 163.055 62.0059 162.656 62.0059H161.874C161.456 62.0059 161.249 62.2193 161.221 62.6785C161.212 63.2119 160.909 63.5134 160.338 63.5551C159.755 63.5134 159.456 63.2072 159.456 62.6692V57.8082C159.456 57.2701 159.755 56.964 160.325 56.9222C160.909 56.964 161.212 57.2701 161.221 57.8035C161.244 58.2581 161.451 58.4714 161.874 58.4714H162.656C163.06 58.4714 163.267 58.2581 163.308 57.7942C163.262 57.233 163.143 56.7274 162.945 56.3053C162.444 55.3081 161.594 54.821 160.343 54.821L160.334 54.8257Z" fill="#231815"/>
<path d="M170.949 64.8911C170.949 65.1508 170.88 65.3456 170.747 65.4801C170.613 65.61 170.425 65.6749 170.181 65.6749H169.4C169.156 65.6749 168.972 65.61 168.834 65.4801C168.701 65.3503 168.632 65.1554 168.632 64.8911V62.5719H167.096V64.8911C167.096 65.1508 167.027 65.3456 166.89 65.4801C166.752 65.61 166.563 65.6749 166.32 65.6749H165.556C165.317 65.6749 165.129 65.61 164.986 65.4801C164.848 65.3503 164.779 65.1554 164.779 64.8911V57.8082C164.779 56.5234 165.294 55.6189 166.32 55.0994C166.531 54.9974 166.765 54.9093 167.027 54.835C167.285 54.7608 167.565 54.7191 167.86 54.7098C168.508 54.6913 169.055 54.8165 169.505 55.0809C169.956 55.3453 170.31 55.7395 170.567 56.2637C170.669 56.477 170.756 56.7136 170.829 56.9733C170.903 57.2331 170.94 57.5114 170.94 57.8129V64.8957L170.949 64.8911ZM168.637 60.2388V57.8082C168.637 57.3259 168.379 57.0661 167.86 57.0383C167.621 57.029 167.432 57.0893 167.299 57.2192C167.165 57.349 167.096 57.5439 167.096 57.8036V60.2341H168.632L168.637 60.2388Z" fill="#3D3D3E"/>
<path d="M170.181 65.7863H169.4C169.128 65.7863 168.912 65.7121 168.756 65.559C168.6 65.406 168.522 65.1787 168.522 64.8865V62.6832H167.216V64.8865C167.216 65.1787 167.133 65.406 166.972 65.559C166.811 65.7074 166.595 65.7863 166.324 65.7863H165.561C165.294 65.7863 165.074 65.7121 164.913 65.559C164.752 65.406 164.669 65.1787 164.669 64.8865V57.8036C164.669 56.4771 165.207 55.5308 166.274 54.9881C166.494 54.8815 166.738 54.7887 167 54.7145C167.267 54.6356 167.556 54.5939 167.86 54.5846C168.526 54.5614 169.101 54.6959 169.565 54.9696C170.029 55.2432 170.402 55.6607 170.673 56.1988C170.779 56.4214 170.871 56.6626 170.944 56.9316C171.022 57.2006 171.059 57.4929 171.059 57.8036V64.8865C171.059 65.1787 170.981 65.406 170.82 65.559C170.664 65.7121 170.448 65.7863 170.177 65.7863H170.181ZM167.096 62.4559H168.632C168.696 62.4559 168.747 62.507 168.747 62.5719V64.8911C168.747 65.1184 168.802 65.29 168.912 65.3967C169.027 65.5034 169.184 65.559 169.395 65.559H170.177C170.383 65.559 170.549 65.5034 170.659 65.3967C170.77 65.29 170.825 65.1184 170.825 64.8911V57.8083C170.825 57.5207 170.788 57.2517 170.719 57.0012C170.646 56.7507 170.563 56.5142 170.462 56.3101C170.213 55.8138 169.873 55.4334 169.446 55.1783C169.018 54.9278 168.485 54.8026 167.864 54.8258C167.579 54.8351 167.308 54.8768 167.06 54.9464C166.811 55.016 166.577 55.1041 166.37 55.2061C165.377 55.7071 164.894 56.5605 164.894 57.8129V64.8957C164.894 65.123 164.954 65.29 165.064 65.3967C165.179 65.5034 165.345 65.559 165.552 65.559H166.315C166.526 65.559 166.687 65.5034 166.807 65.3967C166.922 65.29 166.977 65.123 166.977 64.8957V62.5765C166.977 62.5116 167.027 62.4606 167.092 62.4606L167.096 62.4559ZM168.632 60.3547H167.096C167.032 60.3547 166.981 60.3037 166.981 60.2388V57.8083C166.981 57.5161 167.06 57.2888 167.221 57.1403C167.377 56.9873 167.593 56.9177 167.864 56.927C168.443 56.9595 168.751 57.2609 168.751 57.8129V60.2434C168.751 60.3084 168.701 60.3594 168.637 60.3594L168.632 60.3547ZM167.211 60.1228H168.517V57.8083C168.517 57.3862 168.305 57.1775 167.85 57.1543C167.643 57.1403 167.487 57.196 167.377 57.3027C167.267 57.4094 167.211 57.5764 167.211 57.8036V60.1182V60.1228Z" fill="#231815"/>
<path d="M178.479 58.3367C178.479 59.7885 177.849 60.744 176.599 61.1986L178.424 64.1625C178.47 64.2367 178.502 64.3109 178.521 64.3852C178.539 64.4594 178.548 64.5336 178.548 64.6078C178.548 64.8675 178.424 65.0716 178.171 65.2201L177.518 65.6375C177.39 65.7303 177.252 65.7767 177.1 65.7767C176.971 65.7767 176.852 65.7442 176.737 65.6839C176.627 65.6236 176.53 65.5216 176.447 65.3824L174.627 62.3628V64.8907C174.627 65.1505 174.558 65.3453 174.42 65.4705C174.282 65.5958 174.093 65.6607 173.85 65.6607H173.087C172.848 65.6607 172.659 65.5958 172.517 65.4705C172.379 65.3453 172.31 65.1505 172.31 64.8907V56.3422C172.31 55.8598 172.438 55.4794 172.691 55.2058C172.944 54.9321 173.33 54.793 173.85 54.793H175.39C176.677 54.793 177.578 55.3078 178.093 56.3422C178.194 56.5556 178.282 56.7921 178.355 57.0519C178.429 57.3116 178.465 57.5946 178.465 57.8914V58.3228L178.479 58.3367ZM176.167 58.3367V57.9053C176.167 57.6641 176.102 57.474 175.974 57.3394C175.845 57.2049 175.652 57.1354 175.395 57.1354H175.004C174.756 57.1354 174.631 57.2652 174.631 57.525V59.102H175.395C175.652 59.102 175.845 59.0325 175.974 58.8979C176.102 58.7634 176.167 58.5733 176.167 58.3321V58.3367Z" fill="#3D3D3E"/>
<path d="M177.105 65.9021C176.958 65.9021 176.82 65.865 176.691 65.7955C176.562 65.7259 176.447 65.6099 176.355 65.4522L174.751 62.7898V64.9049C174.751 65.1971 174.668 65.4197 174.503 65.5682C174.342 65.712 174.126 65.7862 173.859 65.7862H173.096C172.829 65.7862 172.613 65.712 172.452 65.5682C172.291 65.4197 172.209 65.1971 172.209 64.9002V56.3517C172.209 55.8368 172.347 55.4287 172.622 55.1364C172.898 54.8396 173.317 54.6865 173.864 54.6865H175.404C176.732 54.6865 177.675 55.2292 178.213 56.3007C178.318 56.5233 178.41 56.7692 178.484 57.0335C178.562 57.3072 178.599 57.5994 178.599 57.9056V58.3369C178.599 59.7841 177.983 60.7675 176.774 61.2591L178.525 64.1024C178.576 64.1859 178.617 64.2741 178.636 64.3576C178.654 64.441 178.668 64.5245 178.668 64.608C178.668 64.9095 178.521 65.1507 178.236 65.3223L177.587 65.7398C177.445 65.8418 177.279 65.8975 177.109 65.8975L177.105 65.9021ZM174.631 62.261C174.673 62.261 174.71 62.2796 174.728 62.3167L176.548 65.3316C176.622 65.4522 176.705 65.5403 176.797 65.5914C177.004 65.7027 177.243 65.6981 177.454 65.5496L178.111 65.1275C178.328 64.9977 178.433 64.8307 178.433 64.6127C178.433 64.5477 178.424 64.4828 178.41 64.4179C178.397 64.3576 178.369 64.2926 178.328 64.2277L176.502 61.2638C176.484 61.2359 176.479 61.1988 176.493 61.1663C176.502 61.1339 176.53 61.1061 176.562 61.0968C177.776 60.6561 178.369 59.7516 178.369 58.3416V57.9102C178.369 57.6273 178.332 57.3536 178.263 57.1031C178.19 56.8526 178.107 56.6161 178.006 56.412C177.505 55.4148 176.654 54.9277 175.404 54.9277H173.864C173.381 54.9277 173.018 55.053 172.788 55.3034C172.553 55.5539 172.438 55.9111 172.438 56.361V64.9095C172.438 65.1322 172.494 65.2992 172.609 65.4012C172.728 65.5079 172.889 65.5589 173.1 65.5589H173.864C174.075 65.5589 174.241 65.5032 174.356 65.4012C174.47 65.2992 174.526 65.1322 174.526 64.9095V62.3816C174.526 62.3306 174.558 62.2842 174.608 62.2703C174.618 62.2703 174.627 62.2703 174.641 62.2703L174.631 62.261ZM175.395 59.2275H174.631C174.567 59.2275 174.516 59.1765 174.516 59.1115V57.5345C174.516 57.2098 174.696 57.0289 175.004 57.0289H175.395C175.684 57.0289 175.905 57.1078 176.057 57.2655C176.208 57.4232 176.282 57.6412 176.282 57.9102V58.3416C176.282 58.6152 176.204 58.8332 176.057 58.9863C175.905 59.144 175.68 59.2229 175.395 59.2229V59.2275ZM174.746 58.9956H175.395C175.62 58.9956 175.785 58.9399 175.891 58.8286C175.997 58.7173 176.052 58.5549 176.052 58.3416V57.9102C176.052 57.7015 175.997 57.5391 175.891 57.4232C175.785 57.3119 175.615 57.2562 175.395 57.2562H175.004C174.82 57.2562 174.746 57.335 174.746 57.5299V58.9909V58.9956Z" fill="#231815"/>
<path d="M185.826 59.4129C185.936 59.4639 186.033 59.5474 186.115 59.6634C186.198 59.7794 186.244 59.9417 186.244 60.1551V60.9993C186.244 61.2126 186.203 61.3703 186.115 61.4816C186.028 61.593 185.931 61.6718 185.826 61.7228C185.706 61.7831 185.568 61.8202 185.407 61.8295H184.584V63.504C184.575 63.6663 184.538 63.8055 184.479 63.9261C184.428 64.0374 184.345 64.1348 184.23 64.2183C184.115 64.3018 183.955 64.3482 183.743 64.3482H182.92C182.709 64.3482 182.548 64.3064 182.433 64.2183C182.318 64.1348 182.235 64.0328 182.185 63.9261C182.125 63.8055 182.088 63.6663 182.079 63.504V61.8295H181.256C181.095 61.8202 180.957 61.7831 180.838 61.7228C180.727 61.6718 180.631 61.593 180.548 61.4816C180.465 61.3703 180.419 61.208 180.419 60.9993V60.1551C180.419 59.9417 180.461 59.7794 180.548 59.6634C180.631 59.5474 180.732 59.4639 180.838 59.4129C180.957 59.3526 181.095 59.3155 181.256 59.3062H182.079V57.6318C182.088 57.4834 182.125 57.3442 182.185 57.2236C182.235 57.1123 182.318 57.0149 182.433 56.9314C182.548 56.8479 182.709 56.8062 182.92 56.8062H183.743C183.955 56.8062 184.115 56.8479 184.23 56.9314C184.345 57.0149 184.428 57.1169 184.479 57.2236C184.538 57.3442 184.575 57.4787 184.584 57.6318V59.3062H185.407C185.564 59.3155 185.706 59.3526 185.826 59.4129Z" fill="#3D3D3E"/>
<path d="M183.748 64.4595H182.925C182.69 64.4595 182.506 64.4085 182.369 64.3064C182.24 64.209 182.143 64.0977 182.084 63.9678C182.019 63.8333 181.978 63.6756 181.969 63.504V61.9408H181.261C181.077 61.9316 180.925 61.8898 180.792 61.8249C180.668 61.7692 180.557 61.6764 180.461 61.5512C180.36 61.4213 180.309 61.2312 180.309 60.9992V60.1551C180.309 59.9185 180.36 59.733 180.461 59.5938C180.557 59.4639 180.668 59.3665 180.796 59.3109C180.925 59.2459 181.077 59.2042 181.256 59.1949H181.969V57.6364C181.978 57.4694 182.019 57.3164 182.084 57.1772C182.143 57.052 182.24 56.936 182.364 56.8433C182.497 56.7458 182.686 56.6948 182.92 56.6948H183.743C183.978 56.6948 184.166 56.7458 184.299 56.8433C184.428 56.9407 184.525 57.052 184.584 57.1819C184.649 57.3164 184.69 57.4694 184.699 57.6318V59.1995H185.407C185.587 59.2088 185.743 59.2506 185.876 59.3155C186 59.3712 186.115 59.4686 186.212 59.5985C186.313 59.733 186.364 59.9231 186.364 60.1597V61.0039C186.364 61.2404 186.313 61.426 186.212 61.5559C186.115 61.6811 186.005 61.7739 185.876 61.8342C185.748 61.8991 185.591 61.9362 185.417 61.9501H184.704V63.5086C184.695 63.6895 184.653 63.8472 184.589 63.9817C184.529 64.107 184.437 64.2229 184.309 64.3157C184.175 64.4177 183.987 64.4688 183.752 64.4688L183.748 64.4595ZM182.093 61.7089C182.157 61.7089 182.208 61.7599 182.208 61.8249V63.4993C182.217 63.6338 182.244 63.7591 182.3 63.8704C182.346 63.9632 182.415 64.0513 182.511 64.1209C182.603 64.1905 182.746 64.2276 182.929 64.2276H183.752C183.936 64.2276 184.074 64.1905 184.171 64.1209C184.267 64.0467 184.341 63.9632 184.382 63.8704C184.437 63.7591 184.469 63.6339 184.474 63.4901V61.8249C184.474 61.7599 184.525 61.7089 184.589 61.7089H185.412C185.545 61.6996 185.674 61.6672 185.78 61.6161C185.876 61.5698 185.959 61.5048 186.033 61.4074C186.102 61.3193 186.134 61.1801 186.134 60.9946V60.1504C186.134 59.9649 186.097 59.8257 186.028 59.7283C185.954 59.6263 185.876 59.5567 185.78 59.515C185.674 59.4639 185.55 59.4315 185.407 59.4222H184.594C184.529 59.4222 184.479 59.3712 184.479 59.3062V57.6318C184.469 57.5065 184.437 57.3859 184.387 57.2746C184.341 57.1772 184.272 57.0937 184.175 57.0241C184.083 56.9546 183.941 56.9175 183.757 56.9175H182.934C182.75 56.9175 182.612 56.9546 182.516 57.0241C182.419 57.0984 182.35 57.1819 182.304 57.2746C182.249 57.3859 182.217 57.5112 182.212 57.6411V59.3062C182.212 59.3712 182.162 59.4222 182.097 59.4222H181.274C181.136 59.4315 181.012 59.4639 180.907 59.515C180.81 59.5613 180.727 59.6309 180.654 59.7283C180.585 59.8257 180.548 59.9649 180.548 60.1504V60.9946C180.548 61.1801 180.585 61.3147 180.649 61.4074C180.723 61.5002 180.805 61.5698 180.897 61.6161C181.008 61.6718 181.132 61.7043 181.274 61.7089H182.088H182.093Z" fill="#231815"/>
</g>
<defs>
<clipPath id="clip0_540_750">
<rect width="261" height="103" fill="white"/>
</clipPath>
</defs>
</svg>
