<svg width="83" height="119" viewBox="0 0 83 119" fill="none" xmlns="http://www.w3.org/2000/svg">
<g clip-path="url(#clip0_526_593)">
<path d="M3.55849 9.15625H79.4415C81.1896 9.15625 82.6098 10.5978 82.6098 12.372V115.388C82.6098 117.162 81.1896 118.604 79.4415 118.604H3.54289C1.79486 118.604 0.390198 117.162 0.390198 115.404V12.372C0.390198 10.5978 1.81047 9.15625 3.55849 9.15625Z" fill="#12B512"/>
<path d="M79.4415 119H3.55848C1.59195 119 0 117.384 0 115.404V12.3716C0 10.3756 1.59195 8.75977 3.55848 8.75977H79.4415C81.4081 8.75977 83 10.3756 83 12.3716V115.404C83 117.384 81.4081 119 79.4415 119ZM3.55848 9.55183C2.02896 9.55183 0.780369 10.8191 0.780369 12.3716V115.404C0.780369 116.956 2.02896 118.207 3.55848 118.207H79.4415C80.971 118.207 82.2196 116.94 82.2196 115.404V12.3716C82.2196 10.8191 80.971 9.55183 79.4415 9.55183H3.55848Z" fill="#231815"/>
<path d="M79.4415 12.3721H3.55847V115.404H79.4415V12.3721Z" fill="white"/>
<path d="M79.4415 115.784H3.55846C3.33996 115.784 3.16827 115.609 3.16827 115.388V12.3716C3.16827 12.1498 3.33996 11.9756 3.55846 11.9756H79.4415C79.66 11.9756 79.8317 12.1498 79.8317 12.3716V115.404C79.8317 115.625 79.66 115.8 79.4415 115.8V115.784ZM3.94864 114.992H79.0513V12.7677H3.94864V115.008V114.992Z" fill="#231815"/>
<path d="M45.9793 4.94294C45.9793 2.44001 43.966 0.396484 41.5 0.396484C39.0341 0.396484 37.0207 2.44001 37.0207 4.94294H29.9037V17.2516H53.0963V4.94294H45.9793ZM41.5 1.99646C43.092 1.99646 44.403 3.31129 44.403 4.94294H38.6127C38.6127 3.32713 39.9081 1.99646 41.5156 1.99646H41.5Z" fill="#FFC800"/>
<path d="M53.0963 17.6472H29.9037C29.6852 17.6472 29.5135 17.473 29.5135 17.2512V4.94249C29.5135 4.72071 29.6852 4.54646 29.9037 4.54646H36.6461C36.849 2.01185 38.9404 0 41.5 0C44.0596 0 46.151 2.01185 46.3539 4.54646H53.0963C53.3148 4.54646 53.4865 4.72071 53.4865 4.94249V17.2512C53.4865 17.473 53.3148 17.6472 53.0963 17.6472ZM30.2939 16.8552H52.7061V5.33852H45.9793C45.7608 5.33852 45.5891 5.16427 45.5891 4.94249C45.5891 2.66134 43.7475 0.792066 41.5 0.792066C39.2526 0.792066 37.4109 2.66134 37.4109 4.94249C37.4109 5.16427 37.2392 5.33852 37.0207 5.33852H30.2939V16.8552ZM44.403 5.33852H38.6126C38.3941 5.33852 38.2225 5.16427 38.2225 4.94249C38.2225 3.1049 39.6896 1.59997 41.5156 1.59997C43.3417 1.59997 44.8088 3.1049 44.8088 4.94249C44.8088 5.16427 44.6371 5.33852 44.4186 5.33852H44.403ZM39.034 4.54646H43.9816C43.7943 3.32668 42.7486 2.39204 41.5 2.39204C40.2514 2.39204 39.2057 3.32668 39.0184 4.54646H39.034Z" fill="#231815"/>
<path d="M46.1666 20.6416H40.9537V51.2787H46.1666V20.6416Z" fill="#FF6400"/>
<path d="M46.1666 51.6743H40.9537C40.7352 51.6743 40.5635 51.5 40.5635 51.2783V20.6412C40.5635 20.4194 40.7352 20.2451 40.9537 20.2451H46.1666C46.3851 20.2451 46.5568 20.4194 46.5568 20.6412V51.2783C46.5568 51.5 46.3851 51.6743 46.1666 51.6743ZM41.3439 50.8822H45.7764V21.0372H41.3439V50.8822Z" fill="#231815"/>
<path d="M53.2523 23.8887H48.0395V51.2625H53.2523V23.8887Z" fill="#FFC800"/>
<path d="M53.268 51.6739H48.0551C47.8366 51.6739 47.6649 51.4996 47.6649 51.2779V23.8882C47.6649 23.6664 47.8366 23.4922 48.0551 23.4922H53.268C53.4865 23.4922 53.6581 23.6664 53.6581 23.8882V51.262C53.6581 51.4838 53.4865 51.6581 53.268 51.6581V51.6739ZM48.4453 50.8818H52.8778V24.2843H48.4453V50.866V50.8818Z" fill="#231815"/>
<path d="M60.3537 32.4268H55.1409V51.2621H60.3537V32.4268Z" fill="#00A0B4"/>
<path d="M60.3537 51.6743H55.1409C54.9224 51.6743 54.7507 51.5 54.7507 51.2782V32.4429C54.7507 32.2211 54.9224 32.0469 55.1409 32.0469H60.3537C60.5722 32.0469 60.7439 32.2211 60.7439 32.4429V51.2782C60.7439 51.5 60.5722 51.6743 60.3537 51.6743ZM55.531 50.8822H59.9635V32.8389H55.531V50.8822Z" fill="#231815"/>
<path d="M67.4394 27.0088H62.2266V51.2619H67.4394V27.0088Z" fill="#96B400"/>
<path d="M67.4394 51.674H62.2265C62.008 51.674 61.8364 51.4998 61.8364 51.278V27.0249C61.8364 26.8032 62.008 26.6289 62.2265 26.6289H67.4394C67.6579 26.6289 67.8296 26.8032 67.8296 27.0249V51.278C67.8296 51.4998 67.6579 51.674 67.4394 51.674ZM62.6167 50.882H67.0492V27.421H62.6167V50.882Z" fill="#231815"/>
<path d="M74.5252 37.9238H69.3123V51.2622H74.5252V37.9238Z" fill="#B4B4B4"/>
<path d="M74.5252 51.6744H69.3123C69.0938 51.6744 68.9221 51.5001 68.9221 51.2784V37.94C68.9221 37.7182 69.0938 37.5439 69.3123 37.5439H74.5252C74.7437 37.5439 74.9154 37.7182 74.9154 37.94V51.2784C74.9154 51.5001 74.7437 51.6744 74.5252 51.6744ZM69.7025 50.8823H74.135V38.336H69.7025V50.8823Z" fill="#231815"/>
<path d="M34.3674 20.6416H7.88171V23.8574H34.3674V20.6416Z" fill="#B4B4B4"/>
<path d="M34.3674 24.253H7.8817C7.6632 24.253 7.49152 24.0787 7.49152 23.8569V20.6412C7.49152 20.4194 7.6632 20.2451 7.8817 20.2451H34.3674C34.5859 20.2451 34.7576 20.4194 34.7576 20.6412V23.8569C34.7576 24.0787 34.5859 24.253 34.3674 24.253ZM8.27188 23.4609H33.9772V21.0372H8.27188V23.4609Z" fill="#231815"/>
<path d="M34.3674 26.123H7.88171V29.3388H34.3674V26.123Z" fill="#B4B4B4"/>
<path d="M34.3674 29.7344H7.8817C7.6632 29.7344 7.49152 29.5602 7.49152 29.3384V26.1226C7.49152 25.9008 7.6632 25.7266 7.8817 25.7266H34.3674C34.5859 25.7266 34.7576 25.9008 34.7576 26.1226V29.3384C34.7576 29.5602 34.5859 29.7344 34.3674 29.7344ZM8.27188 28.9424H33.9772V26.5186H8.27188V28.9424Z" fill="#231815"/>
<path d="M34.3674 31.6035H7.88171V34.8193H34.3674V31.6035Z" fill="#B4B4B4"/>
<path d="M34.3674 35.2149H7.8817C7.6632 35.2149 7.49152 35.0406 7.49152 34.8189V31.6031C7.49152 31.3813 7.6632 31.207 7.8817 31.207H34.3674C34.5859 31.207 34.7576 31.3813 34.7576 31.6031V34.8189C34.7576 35.0406 34.5859 35.2149 34.3674 35.2149ZM8.27188 34.4228H33.9772V31.9991H8.27188V34.4228Z" fill="#231815"/>
<path d="M34.3674 37.1006H7.88171V40.3005H34.3674V37.1006Z" fill="#B4B4B4"/>
<path d="M34.3674 40.6963H7.8817C7.6632 40.6963 7.49152 40.5221 7.49152 40.3003V37.0845C7.49152 36.8627 7.6632 36.6885 7.8817 36.6885H34.3674C34.5859 36.6885 34.7576 36.8627 34.7576 37.0845V40.3003C34.7576 40.5221 34.5859 40.6963 34.3674 40.6963ZM8.27188 39.9043H33.9772V37.4805H8.27188V39.9043Z" fill="#231815"/>
<path d="M34.3674 42.582H7.88171V45.782H34.3674V42.582Z" fill="#B4B4B4"/>
<path d="M34.3674 46.1778H7.8817C7.6632 46.1778 7.49152 46.0035 7.49152 45.7817V42.566C7.49152 42.3442 7.6632 42.1699 7.8817 42.1699H34.3674C34.5859 42.1699 34.7576 42.3442 34.7576 42.566V45.7817C34.7576 46.0035 34.5859 46.1778 34.3674 46.1778ZM8.27188 45.3857H33.9772V42.962H8.27188V45.3857Z" fill="#231815"/>
<path d="M74.5408 55.0332H7.88171V58.249H74.5408V55.0332Z" fill="#B4B4B4"/>
<path d="M74.5252 58.6446H7.8817C7.6632 58.6446 7.49152 58.4703 7.49152 58.2485V55.0328C7.49152 54.811 7.6632 54.6367 7.8817 54.6367H74.5408C74.7593 54.6367 74.931 54.811 74.931 55.0328V58.2485C74.931 58.4703 74.7593 58.6446 74.5408 58.6446H74.5252ZM8.25628 57.8525H74.135V55.4288H8.27188V57.8525H8.25628Z" fill="#231815"/>
<path d="M74.5408 60.6729H7.88171V63.8886H74.5408V60.6729Z" fill="#B4B4B4"/>
<path d="M74.5252 64.2842H7.8817C7.6632 64.2842 7.49152 64.11 7.49152 63.8882V60.6724C7.49152 60.4506 7.6632 60.2764 7.8817 60.2764H74.5408C74.7593 60.2764 74.931 60.4506 74.931 60.6724V63.8882C74.931 64.11 74.7593 64.2842 74.5408 64.2842H74.5252ZM8.25628 63.4922H74.135V61.0684H8.27188V63.4922H8.25628Z" fill="#231815"/>
<path d="M24.3319 91.8167L37.645 82.0109C42.9827 89.4721 41.3596 99.9116 34.0085 105.329C26.6574 110.747 16.3722 109.1 11.0344 101.638C5.69672 94.177 7.31988 83.7376 14.671 78.3198C17.6051 76.1496 20.711 75.1357 24.3475 75.1357V91.8325L24.3319 91.8167Z" fill="#FF6400"/>
<path d="M24.3631 108.925C23.4735 108.925 22.5839 108.862 21.6943 108.703C17.2462 107.99 13.3443 105.567 10.7067 101.86C8.06902 98.1688 6.99211 93.654 7.69444 89.1392C8.39677 84.6245 10.7847 80.6641 14.4212 77.9869C17.4334 75.7533 20.5861 74.7236 24.3163 74.7236C24.5348 74.7236 24.7065 74.8979 24.7065 75.1197V91.0402L37.3953 81.678C37.4733 81.6146 37.5826 81.5988 37.6918 81.6146C37.8011 81.6305 37.8791 81.6938 37.9415 81.773C43.4041 89.3927 41.7185 100.101 34.2114 105.646C31.3084 107.784 27.8748 108.909 24.3475 108.909L24.3631 108.925ZM23.9417 75.5315C20.5393 75.5949 17.6676 76.5929 14.8894 78.6364C11.4246 81.1869 9.14593 84.973 8.47481 89.266C7.80369 93.5748 8.81817 97.8836 11.3466 101.4C13.875 104.917 17.5895 107.246 21.8191 107.927C26.0643 108.608 30.2939 107.579 33.7744 105.012C40.8289 99.8004 42.4833 89.8204 37.5513 82.5651L24.566 92.1491C24.4411 92.2283 24.2851 92.2441 24.1602 92.1808C24.0354 92.1174 23.9417 91.9748 23.9417 91.8323V75.5315Z" fill="#231815"/>
<path d="M24.3319 91.8169V75.1201C29.7789 75.1201 34.4299 77.528 37.645 82.0111L24.3319 91.8169Z" fill="white"/>
<path d="M24.3319 92.2125C24.3319 92.2125 24.207 92.2125 24.1602 92.1649C24.0354 92.1016 23.9417 91.959 23.9417 91.8164V75.1197C23.9417 74.8979 24.1134 74.7236 24.3319 74.7236C29.9505 74.7236 34.6484 77.1632 37.9571 81.773C38.0196 81.8522 38.0508 81.9631 38.0196 82.074C38.004 82.1849 37.9415 82.2641 37.8635 82.3275L24.5504 92.1332C24.5504 92.1332 24.3943 92.2125 24.3163 92.2125H24.3319ZM24.7221 75.5157V91.0402L37.0987 81.9156C34.0397 77.8285 29.7789 75.6266 24.7221 75.5157Z" fill="#231815"/>
<path d="M74.5408 66.2959H7.88171V69.4958H74.5408V66.2959Z" fill="#B4B4B4"/>
<path d="M74.5252 69.9073H7.8817C7.6632 69.9073 7.49152 69.733 7.49152 69.5112V66.2954C7.49152 66.0737 7.6632 65.8994 7.8817 65.8994H74.5408C74.7593 65.8994 74.931 66.0737 74.931 66.2954V69.5112C74.931 69.733 74.7593 69.9073 74.5408 69.9073H74.5252ZM8.25628 69.1152H74.135V66.6915H8.27188V69.1152H8.25628Z" fill="#231815"/>
<path d="M74.5252 88.8545H48.0395V92.0703H74.5252V88.8545Z" fill="#B4B4B4"/>
<path d="M74.5252 92.4659H48.0395C47.821 92.4659 47.6493 92.2916 47.6493 92.0698V88.854C47.6493 88.6323 47.821 88.458 48.0395 88.458H74.5252C74.7437 88.458 74.9154 88.6323 74.9154 88.854V92.0698C74.9154 92.2916 74.7437 92.4659 74.5252 92.4659ZM48.4297 91.6738H74.135V89.2501H48.4297V91.6738Z" fill="#231815"/>
<path d="M74.5408 94.3516H48.0551V97.5515H74.5408V94.3516Z" fill="#B4B4B4"/>
<path d="M74.5252 97.9471H48.0395C47.821 97.9471 47.6493 97.7728 47.6493 97.5511V94.3511C47.6493 94.1293 47.821 93.9551 48.0395 93.9551H74.5252C74.7437 93.9551 74.9154 94.1293 74.9154 94.3511V97.5511C74.9154 97.7728 74.7437 97.9471 74.5252 97.9471ZM48.4297 97.155H74.135V94.7471H48.4297V97.155Z" fill="#231815"/>
<path d="M74.5408 99.832H48.0551V103.032H74.5408V99.832Z" fill="#B4B4B4"/>
<path d="M74.5252 103.428H48.0395C47.821 103.428 47.6493 103.254 47.6493 103.032V99.816C47.6493 99.5942 47.821 99.4199 48.0395 99.4199H74.5252C74.7437 99.4199 74.9154 99.5942 74.9154 99.816V103.032C74.9154 103.254 74.7437 103.428 74.5252 103.428ZM48.4297 102.636H74.135V100.212H48.4297V102.636Z" fill="#231815"/>
<path d="M74.5408 105.313H48.0551V108.529H74.5408V105.313Z" fill="#B4B4B4"/>
<path d="M74.5252 108.909H48.0395C47.821 108.909 47.6493 108.735 47.6493 108.513V105.297C47.6493 105.076 47.821 104.901 48.0395 104.901H74.5252C74.7437 104.901 74.9154 105.076 74.9154 105.297V108.513C74.9154 108.735 74.7437 108.909 74.5252 108.909ZM48.4297 108.117H74.135V105.693H48.4297V108.117Z" fill="#231815"/>
<path d="M74.5252 75.1201H48.0395V82.2329H74.5252V75.1201Z" fill="#B4B4B4"/>
<path d="M74.5252 82.6285H48.0395C47.821 82.6285 47.6493 82.4542 47.6493 82.2324V75.1197C47.6493 74.8979 47.821 74.7236 48.0395 74.7236H74.5252C74.7437 74.7236 74.9154 74.8979 74.9154 75.1197V82.2324C74.9154 82.4542 74.7437 82.6285 74.5252 82.6285ZM48.4297 81.8364H74.135V75.5157H48.4297V81.8364Z" fill="#231815"/>
</g>
<defs>
<clipPath id="clip0_526_593">
<rect width="83" height="119" fill="white"/>
</clipPath>
</defs>
</svg>
