<svg width="54" height="53" viewBox="0 0 54 53" fill="none" xmlns="http://www.w3.org/2000/svg">
<path d="M36.21 6.5999C28.02 -1.5001 14.87 -1.5001 6.68 6.5999C-1.52 14.6999 -1.52 27.6999 6.68 35.7999C14.87 43.8999 28.02 43.8999 36.22 35.7999C44.41 27.6999 44.41 14.5999 36.22 6.5999H36.21Z" fill="#FFE600"/>
<path d="M21.45 42.0899C16.04 42.0899 10.63 40.0499 6.51 35.9799C2.49 32.0099 0.279999 26.7599 0.279999 21.1999C0.279999 15.6399 2.49 10.3899 6.5 6.41994C14.74 -1.72006 28.15 -1.72006 36.39 6.41994C40.38 10.3199 42.59 15.5299 42.61 21.0999C42.63 26.7099 40.42 31.9999 36.39 35.9799C32.27 40.0499 26.86 42.0899 21.44 42.0899H21.45ZM21.45 0.809942C16.17 0.809942 10.88 2.79994 6.86 6.77994C2.94 10.6499 0.779999 15.7699 0.779999 21.1999C0.779999 26.6299 2.94 31.7499 6.85 35.6199C14.9 43.5699 27.99 43.5699 36.04 35.6199C39.97 31.7299 42.13 26.5799 42.11 21.0999C42.09 15.6699 39.94 10.5799 36.04 6.77994C32.02 2.79994 26.73 0.809942 21.45 0.809942Z" fill="#2E2138"/>
<path d="M51.39 44.6004C52.3 45.5004 52.71 46.6004 52.71 47.7004C52.71 48.8004 52.3 49.9004 51.39 50.8004C49.67 52.5004 46.84 52.5004 45.12 50.8004L39.76 45.5004C38.04 43.8004 38.04 41.0004 39.76 39.3004C41.48 37.6004 44.31 37.6004 46.03 39.3004L51.39 44.6004Z" fill="#FFE600"/>
<path d="M48.25 52.3302C47.05 52.3302 45.85 51.8802 44.94 50.9802L39.58 45.6802C38.7 44.8102 38.22 43.6502 38.22 42.4002C38.22 41.1502 38.7 39.9902 39.58 39.1202C41.41 37.3102 44.38 37.3102 46.2 39.1202L51.56 44.4202C52.47 45.3202 52.95 46.4502 52.95 47.7002C52.95 48.9502 52.47 50.0802 51.56 50.9802C50.65 51.8802 49.45 52.3302 48.25 52.3302ZM42.89 38.2702C41.82 38.2702 40.75 38.6702 39.93 39.4802C39.15 40.2502 38.71 41.2902 38.71 42.4002C38.71 43.5102 39.14 44.5502 39.93 45.3202L45.29 50.6202C46.92 52.2302 49.58 52.2302 51.21 50.6202C52.02 49.8202 52.45 48.8102 52.45 47.7002C52.45 46.5902 52.02 45.5802 51.21 44.7802L45.85 39.4802C45.03 38.6702 43.96 38.2702 42.89 38.2702Z" fill="#2E2138"/>
<path d="M21.45 30.5999C15.08 30.5999 8.90999 26.8999 6.37999 21.4999C6.27999 21.2999 6.27999 21.0999 6.37999 20.9999C9.00999 15.5999 15.08 11.8999 21.45 11.8999H22.56C25.49 12.0999 28.33 13.0999 30.85 14.6999C33.38 16.2999 35.3 18.4999 36.51 20.9999C36.61 21.1999 36.61 21.3999 36.51 21.4999C33.88 26.8999 27.91 30.4999 21.54 30.5999C21.54 30.4999 21.54 30.5999 21.44 30.5999H21.45ZM7.68999 21.1999C10.12 25.9999 15.68 29.2999 21.45 29.2999H21.55C27.32 29.1999 32.78 25.9999 35.21 21.1999C32.88 16.6999 27.83 13.4999 22.46 13.0999H21.45C15.68 13.0999 10.12 16.2999 7.68999 21.1999Z" fill="black"/>
<path d="M21.45 42.4C15.68 42.4 10.32 40.2 6.28 36.2C2.23 32.2 0 26.9 0 21.2C0 15.5 2.23 10.2 6.27 6.2C10.32 2.2 15.68 0 21.45 0C27.22 0 32.58 2.2 36.62 6.2C40.67 10.2 42.89 15.5 42.89 21.2C42.89 26.9 40.66 32.2 36.62 36.2C32.57 40.2 27.21 42.4 21.45 42.4ZM21.45 1.2C16.09 1.2 10.93 3.3 7.19 7.1C3.34 10.9 1.21 15.9 1.21 21.2C1.21 26.5 3.33 31.6 7.18 35.3C11.02 39.1 16.08 41.2 21.44 41.2C26.8 41.2 31.96 39.1 35.7 35.3C39.54 31.5 41.67 26.5 41.67 21.2C41.67 15.9 39.55 10.8 35.7 7.1C31.96 3.3 26.9 1.2 21.44 1.2H21.45Z" fill="black"/>
<path d="M21.45 36.2002C13.05 36.2002 6.28 29.5002 6.28 21.2002C6.28 12.9002 13.06 6.2002 21.45 6.2002C29.84 6.2002 36.62 12.9002 36.62 21.2002C36.62 29.5002 29.84 36.2002 21.45 36.2002ZM21.45 7.4002C13.76 7.4002 7.49 13.6002 7.49 21.2002C7.49 28.8002 13.76 35.0002 21.45 35.0002C29.14 35.0002 35.41 28.8002 35.41 21.2002C35.41 13.6002 29.14 7.4002 21.45 7.4002Z" fill="black"/>
<path d="M48.35 52.6999C47.04 52.6999 45.72 52.1999 44.81 51.1999L39.45 45.8999C38.54 44.9999 37.93 43.6999 37.93 42.3999C37.93 41.0999 38.44 39.7999 39.45 38.8999C40.36 37.9999 41.68 37.3999 42.99 37.3999C44.3 37.3999 45.62 37.8999 46.53 38.8999L51.89 44.1999C52.8 45.0999 53.41 46.3999 53.41 47.6999C53.41 48.9999 52.9 50.2999 51.89 51.1999C50.88 52.1999 49.66 52.6999 48.35 52.6999ZM42.89 38.5999C41.88 38.5999 40.97 38.9999 40.16 39.6999C39.45 40.3999 39.05 41.2999 39.05 42.3999C39.05 43.4999 39.46 44.2999 40.16 45.0999L45.52 50.3999C46.23 51.0999 47.14 51.4999 48.25 51.4999C49.26 51.4999 50.17 51.0999 50.98 50.3999C51.69 49.6999 52.09 48.6999 52.09 47.6999C52.09 46.6999 51.69 45.7999 50.98 44.9999L45.62 39.6999C44.91 38.9999 43.9 38.5999 42.89 38.5999Z" fill="black"/>
<path d="M39.86 39.8999C39.66 39.8999 39.56 39.7999 39.46 39.6999L35.92 36.1999C35.72 35.9999 35.72 35.5999 35.92 35.2999C36.12 35.0999 36.53 35.0999 36.83 35.2999L40.37 38.7999C40.57 38.9999 40.57 39.3999 40.37 39.6999C40.17 39.8999 39.97 39.8999 39.86 39.8999Z" fill="black"/>
<path d="M21.75 26.7998C20.33 26.7998 19.22 25.6998 19.22 24.2998C19.22 22.8998 20.33 21.7998 21.75 21.7998C23.17 21.7998 24.28 22.8998 24.28 24.2998C24.28 25.6998 23.17 26.7998 21.75 26.7998ZM21.75 23.0998C21.04 23.0998 20.43 23.6998 20.43 24.3998C20.43 25.0998 21.04 25.6998 21.75 25.6998C22.46 25.6998 23.07 25.0998 23.07 24.3998C23.07 23.6998 22.46 23.0998 21.75 23.0998Z" fill="black"/>
<path d="M36.01 21.1999C36.01 21.1999 36.01 21.1999 36.01 21.1899C35.95 13.2399 29.4 6.8999 21.45 6.8999C13.5 6.8999 6.95001 13.3399 6.89001 21.1899C6.89001 21.1899 6.89001 21.1899 6.89001 21.1999C6.89001 21.2199 6.89001 21.2299 6.89001 21.2499C6.89001 21.2699 6.89001 21.2799 6.89001 21.2999C6.94001 29.2599 13.49 35.6099 21.45 35.6099C29.41 35.6099 35.96 29.1599 36.01 21.2999C36.01 21.2799 36.01 21.2699 36.01 21.2499C36.01 21.2299 36.01 21.2199 36.01 21.1999Z" fill="#FDFFF3"/>
<path d="M21.45 35.8499C13.67 35.8499 7.24001 29.8499 6.68001 22.2799L6.64001 22.3599V21.1299V21.1199C6.74001 13.1299 13.37 6.6499 21.45 6.6499C29.53 6.6499 36.18 13.1499 36.26 21.1399V21.2099V21.2399V22.3099L36.22 22.2399C35.68 29.8299 29.24 35.8499 21.44 35.8499H21.45ZM7.14001 21.2499V21.2899C7.19001 29.0399 13.61 35.3499 21.45 35.3499C29.29 35.3499 35.71 29.0399 35.76 21.2899V21.1999C35.7 13.4599 29.28 7.1599 21.45 7.1599C13.62 7.1599 7.20001 13.4599 7.14001 21.1999V21.2599V21.2499Z" fill="#231815"/>
</svg>
