<svg width="190" height="154" viewBox="0 0 190 154" fill="none" xmlns="http://www.w3.org/2000/svg">
<path d="M160.236 31.4686C160.418 29.5814 160.372 28.2172 160.236 26.8984C161.918 26.5119 163.806 26.0117 165.284 25.5569C165.056 24.0335 164.92 22.4874 163.692 19.0768C162.214 19.3496 160.327 19.7817 158.599 20.2137C157.803 18.2128 157.121 17.2351 156.484 16.1664C157.735 15.075 159.053 13.8699 160.327 12.6194C157.621 8.98142 155.893 7.63991 155.893 7.63991C154.71 8.59488 153.073 9.95912 151.914 11.0278C150.299 9.6408 149.276 9.14058 148.162 8.41298C148.571 7.34433 149.23 5.66176 149.913 3.50172C145.706 1.47809 143.66 1.13703 143.66 1.13703C143.068 2.50127 142.318 4.343 141.727 5.98009C140.112 5.59355 138.839 5.5026 137.179 5.43439C136.906 2.91055 136.634 1.29619 136.452 0.227539C134.974 0.295751 132.882 0.295751 129.835 1.04608C129.949 2.54675 130.13 4.41121 130.358 6.25293C128.789 6.66221 127.447 7.2079 126.083 7.86729C125.151 6.48031 124.128 5.04786 123.013 3.6154C120.785 4.82048 118.375 6.61673 117.533 7.41254C118.42 8.86773 119.58 10.573 120.421 11.7781C119.307 12.7558 118.238 14.0746 117.374 15.1887C115.805 14.3474 114.077 13.4834 112.69 12.824C112.145 13.4379 110.189 17.0077 109.598 18.7357C110.871 19.4861 112.577 20.441 114.191 21.2596C113.509 23.124 113.281 24.6474 113.1 25.6934C111.576 25.6934 109.871 25.6934 107.847 25.807C107.642 26.9212 107.597 31.0366 107.847 32.4691C109.28 32.5373 111.394 32.5828 113.1 32.5828C113.281 33.6514 113.372 34.7428 114.191 37.0166C112.736 37.7669 111.167 38.6082 109.598 39.5404C110.144 41.1548 112.281 44.9974 112.69 45.4521C114.055 44.8155 115.76 43.9742 117.374 43.0874C118.307 44.338 119.239 45.4521 120.421 46.498C119.489 47.8395 118.352 49.5221 117.533 50.8636C117.533 50.8636 117.829 51.1592 118.329 51.5457C119.421 52.3643 121.081 53.6603 123.013 54.6607C123.013 54.6607 124.378 52.9327 126.083 50.4089C127.72 51.2047 129.175 51.7276 130.358 52.0232C130.13 53.8422 129.949 55.7066 129.835 57.2301C133.064 58.0031 135.269 58.0031 136.452 58.0486C136.634 56.9799 136.906 55.3429 137.179 52.8417C138.748 52.7735 140.158 52.6826 141.727 52.296C142.364 54.0241 143.068 55.7976 143.682 57.1391C143.682 57.1391 145.752 56.798 149.935 54.7744C149.299 52.819 148.685 51.2047 148.185 49.8404C149.481 49.0446 150.299 48.6353 151.936 47.2256C152.982 48.1806 154.551 49.5221 155.916 50.6135C158.121 48.749 159.554 46.7027 160.349 45.634C159.281 44.5654 157.803 43.2011 156.507 42.087C157.416 40.6091 157.916 39.8132 158.621 38.0397C161.35 38.7446 163.715 39.1766 163.715 39.1766C164.488 37.062 164.67 36.9029 165.306 32.6965C163.806 32.2417 161.873 31.7188 160.258 31.355L160.236 31.4686ZM151.322 42.2234C150.208 43.5422 148.844 44.5881 147.775 45.3839C147.775 45.4521 145.047 47.1119 143.569 47.5894C135.065 51.1137 123.059 47.2711 118.42 36.7664C112.94 21.7371 124.219 7.45801 140.454 9.89091C143.591 10.6867 144.433 10.9596 147.457 12.7786C147.684 12.8922 147.798 13.0059 147.798 13.0059C151.345 15.6435 152.346 17.2351 153.869 19.6907C154.005 19.9181 154.051 20.0545 154.051 20.0545C158.371 28.9903 155.756 37.8806 151.345 42.2461L151.322 42.2234Z" fill="#999999" stroke="#231815" stroke-width="0.22" stroke-miterlimit="10"/>
<path d="M185.589 48.6353C185.271 47.3166 184.929 46.4071 184.543 45.543C185.589 44.8837 186.748 44.1106 187.658 43.4739C187.158 42.4962 186.703 41.4731 185.089 39.4494C184.156 39.9951 182.974 40.7 181.905 41.4048C180.905 40.2225 180.223 39.7223 179.541 39.1539C180.132 38.1307 180.768 37.0165 181.337 35.8569C178.676 34.0152 177.198 33.4923 177.198 33.4923C176.607 34.4017 175.834 35.7205 175.288 36.6982C173.879 36.1298 173.06 36.0161 172.128 35.7887C172.173 34.9702 172.219 33.6742 172.196 32.0371C168.876 31.6278 167.421 31.8779 167.421 31.8779C167.33 32.9466 167.262 34.3563 167.216 35.6068C166.034 35.7205 165.147 35.9479 164.01 36.2889C163.237 34.6519 162.669 33.6059 162.305 32.9238C161.327 33.3104 159.895 33.7878 158.007 35.0157C158.417 36.0161 158.985 37.2439 159.554 38.4263C158.599 39.0629 157.803 39.745 157.03 40.5181C156.075 39.7905 155.052 39.0629 153.96 38.3353C152.732 39.6541 151.504 41.4503 151.118 42.1779C152.05 42.951 153.232 43.8605 154.074 44.4744C153.551 45.4066 153.119 46.5435 152.8 47.4985C151.55 47.2938 150.163 47.0892 149.071 46.9755C148.844 47.5212 148.344 50.3861 148.344 51.7049C149.39 51.9322 150.754 52.1824 152.027 52.3642C152.005 53.7967 152.186 54.8654 152.323 55.6157C151.277 55.9567 150.14 56.366 148.799 56.889C148.912 57.6848 149.844 60.5042 150.345 61.4137C151.345 61.1409 152.778 60.6861 153.915 60.2768C154.278 60.959 154.597 61.6866 155.665 63.0281C154.847 63.8693 153.983 64.8016 153.142 65.802C153.892 66.757 156.234 68.8943 156.598 69.0989C157.371 68.3486 158.349 67.3936 159.235 66.4159C160.145 67.0526 161.054 67.5983 162.078 68.0303C161.737 69.1444 161.373 70.5541 161.123 71.6455C161.123 71.6455 161.395 71.7819 161.805 71.9411C162.737 72.2367 164.17 72.7369 165.693 72.9643C165.693 72.9643 166.216 71.4636 166.784 69.3718C168.08 69.5309 169.195 69.5537 170.059 69.4855C170.309 70.7815 170.627 72.0775 170.9 73.1234C173.265 72.9188 174.765 72.3958 175.584 72.1457C175.47 71.3954 175.266 70.2131 174.879 68.4623C175.925 68.053 176.857 67.6665 177.835 67.0526C178.676 68.0757 179.563 69.1217 180.268 69.8947C180.268 69.8947 181.61 69.1899 183.952 66.8479C183.065 65.6656 182.292 64.7106 181.632 63.9148C182.337 63.0735 182.792 62.6188 183.588 61.2773C184.52 61.6866 185.884 62.2323 187.067 62.6643C188.113 60.8907 188.636 59.1627 188.931 58.276C187.954 57.7985 186.635 57.2073 185.498 56.7526C185.771 55.5247 185.93 54.8881 185.998 53.5239C188.022 53.3647 189.704 53.1373 189.704 53.1373C189.727 51.523 189.818 51.3865 189.295 48.3852C188.158 48.4307 186.726 48.5216 185.566 48.6353H185.589ZM182.019 57.9804C181.564 59.1172 180.882 60.1632 180.336 60.9362C180.336 60.9817 178.881 62.7325 177.994 63.3919C173.037 67.7347 164.033 67.8939 158.439 61.8457C151.254 52.9327 155.62 40.6545 167.171 38.5399C169.49 38.358 170.104 38.358 172.583 38.881C172.765 38.9037 172.855 38.9492 172.855 38.9492C175.857 39.9269 176.903 40.7682 178.517 42.087C178.654 42.2007 178.722 42.2916 178.722 42.2916C183.724 47.362 183.997 53.9786 181.996 57.9576L182.019 57.9804Z" fill="#999999" stroke="#231815" stroke-width="0.21" stroke-miterlimit="10"/>
<path d="M95.0228 134.287H71.5797V147.179H95.0228V134.287Z" fill="#323232" stroke="#231815" stroke-width="0.61" stroke-linecap="round" stroke-linejoin="round"/>
<path d="M104.686 153.296H61.916V151.704C61.916 149.203 63.9397 147.179 66.4409 147.179H100.184C102.686 147.179 104.709 149.203 104.709 151.704V153.296H104.686Z" fill="#4F4F4F" stroke="#231815" stroke-width="0.61" stroke-linecap="round" stroke-linejoin="round"/>
<path d="M161.395 25.7163H5.22979C2.73076 25.7163 0.704895 27.7421 0.704895 30.241V131.695C0.704895 134.194 2.73076 136.22 5.22979 136.22H161.395C163.894 136.22 165.92 134.194 165.92 131.695V30.241C165.92 27.7421 163.894 25.7163 161.395 25.7163Z" fill="#4F4F4F" stroke="#231815" stroke-width="0.61" stroke-miterlimit="10"/>
<path d="M160.554 31.5142H6.04837V128.853H160.554V31.5142Z" fill="#FDFFF3" stroke="#231815" stroke-width="0.51" stroke-miterlimit="10"/>
<path d="M160.554 31.5142H6.04837V42.0415H160.554V31.5142Z" fill="#77DD00" stroke="#231815" stroke-width="0.51" stroke-miterlimit="10"/>
<path d="M152.346 36.7893C152.346 38.2218 151.186 39.3814 149.753 39.3814C148.321 39.3814 147.161 38.2218 147.161 36.7893C147.161 35.3569 148.321 34.1973 149.753 34.1973C151.186 34.1973 152.346 35.3569 152.346 36.7893Z" fill="white" stroke="#231815" stroke-width="0.25" stroke-miterlimit="10"/>
<path d="M143.137 36.7893C143.137 38.2218 141.977 39.3814 140.545 39.3814C139.112 39.3814 137.952 38.2218 137.952 36.7893C137.952 35.3569 139.112 34.1973 140.545 34.1973C141.977 34.1973 143.137 35.3569 143.137 36.7893Z" fill="white" stroke="#231815" stroke-width="0.25" stroke-miterlimit="10"/>
<path d="M133.95 36.7893C133.95 38.2218 132.791 39.3814 131.358 39.3814C129.926 39.3814 128.766 38.2218 128.766 36.7893C128.766 35.3569 129.926 34.1973 131.358 34.1973C132.791 34.1973 133.95 35.3569 133.95 36.7893Z" fill="white" stroke="#231815" stroke-width="0.25" stroke-miterlimit="10"/>
<path d="M27.6042 53.251H21.6468V87.7208H27.6042V53.251Z" fill="#FF6400" stroke="#231815" stroke-width="0.25" stroke-miterlimit="10"/>
<path d="M35.7217 56.9116H29.7643V87.7435H35.7217V56.9116Z" fill="#FFC800" stroke="#231815" stroke-width="0.25" stroke-miterlimit="10"/>
<path d="M43.8165 66.5298H37.8591V87.721H43.8165V66.5298Z" fill="#96B400" stroke="#231815" stroke-width="0.25" stroke-miterlimit="10"/>
<path d="M51.9112 60.436H45.9538V87.7436H51.9112V60.436Z" fill="#007896" stroke="#231815" stroke-width="0.25" stroke-miterlimit="10"/>
<path d="M60.006 72.7144H54.0486V87.7437H60.006V72.7144Z" fill="#FF6400" stroke="#231815" stroke-width="0.25" stroke-miterlimit="10"/>
<path d="M68.1235 54.4561H62.1661V87.7208H68.1235V54.4561Z" fill="#FFC800" stroke="#231815" stroke-width="0.25" stroke-miterlimit="10"/>
<path d="M76.2183 65.2563H70.2609V87.7436H76.2183V65.2563Z" fill="#648C00" stroke="#231815" stroke-width="0.25" stroke-miterlimit="10"/>
<path d="M152.346 46.6802H97.4785V50.8184H152.346V46.6802Z" fill="#B4B4B4" stroke="#231815" stroke-width="0.25" stroke-miterlimit="10"/>
<path d="M152.346 55.7295H97.4785V59.8677H152.346V55.7295Z" fill="#B4B4B4" stroke="#231815" stroke-width="0.25" stroke-miterlimit="10"/>
<path d="M152.346 105.274H96.7281V65.8931H98.2288V103.773H152.346V105.274Z" fill="#B4B4B4" stroke="#231815" stroke-width="0.25" stroke-miterlimit="10"/>
<path d="M143.228 77.8527C142.75 75.7154 142.818 72.7368 143.159 70.4858C141.454 71.9865 138.998 73.6691 136.952 74.4421L139.931 74.8969L131.04 91.2905L124.696 88.6984L118.761 96.2245L112.372 86.4702L101.799 99.5442L102.981 100.499L112.236 89.0395L118.648 98.8166L125.174 90.5402L131.722 93.2232L141.249 75.6472L143.25 77.8982L143.228 77.8527Z" fill="#FF0000" stroke="#231815" stroke-width="0.25" stroke-miterlimit="10"/>
<path d="M152.346 109.663H97.4785V113.801H152.346V109.663Z" fill="#B4B4B4" stroke="#231815" stroke-width="0.25" stroke-miterlimit="10"/>
<path d="M152.346 118.325H97.4785V122.463H152.346V118.325Z" fill="#B4B4B4" stroke="#231815" stroke-width="0.25" stroke-miterlimit="10"/>
<path d="M83.2899 88.4714H15.6894V46.6802H17.1901V86.9707H83.2899V88.4714Z" fill="#B4B4B4" stroke="#231815" stroke-width="0.25" stroke-miterlimit="10"/>
<path d="M30.3782 109.458L41.7473 101.181C46.3176 107.48 44.9079 116.256 38.6321 120.826C32.3564 125.397 23.5567 124.01 18.9864 117.711C14.416 111.413 15.803 102.637 22.1015 98.0663C24.6254 96.2473 27.2631 95.3833 30.3782 95.3833V109.458Z" fill="#007896" stroke="#231815" stroke-width="0.25" stroke-miterlimit="10"/>
<path d="M30.3782 109.458V95.3833C35.0395 95.3833 39.0187 97.4069 41.7473 101.181L30.3782 109.458Z" fill="#EFEFEF" stroke="#231815" stroke-width="0.25" stroke-miterlimit="10"/>
<path d="M73.4215 120.827C67.1231 125.397 58.3234 123.987 53.7758 117.712C49.2054 111.436 50.6152 102.637 56.8909 98.0665C59.3921 96.2475 62.0524 95.4062 65.1676 95.4062V109.458L76.5594 101.182C77.9691 103.16 78.8332 105.342 79.1288 107.593C79.7655 112.55 77.7872 117.712 73.4443 120.849L73.4215 120.827Z" fill="#FF6400" stroke="#231815" stroke-width="0.25" stroke-miterlimit="10"/>
<path d="M76.5367 101.182L65.1448 109.458V95.4062C69.8062 95.4062 73.7853 97.4299 76.5367 101.182Z" fill="#DCDCDC" stroke="#231815" stroke-width="0.25" stroke-miterlimit="10"/>
<path d="M79.1061 107.571L65.1676 109.435V95.3833C69.8289 95.3833 73.8081 97.4069 76.5594 101.159C77.9691 103.137 78.8332 105.32 79.1288 107.571H79.1061Z" fill="#EFEFEF" stroke="#231815" stroke-width="0.25" stroke-miterlimit="10"/>
<path d="M89.7248 46.6802H89.1791V48.6811H89.7248V46.6802Z" fill="#DCDCDC" stroke="#231815" stroke-width="0.13" stroke-miterlimit="10"/>
<path d="M89.7248 117.689H89.1791V113.846H89.7248V117.689ZM89.7248 110.026H89.1791V106.207H89.7248V110.026ZM89.7248 102.364H89.1791V98.544H89.7248V102.364ZM89.7248 94.7014H89.1791V90.8588H89.7248V94.7014ZM89.7248 87.0389H89.1791V83.1963H89.7248V87.0389ZM89.7248 79.3764H89.1791V75.5566H89.7248V79.3764ZM89.7248 71.714H89.1791V67.8941H89.7248V71.714ZM89.7248 64.0515H89.1791V60.2089H89.7248V64.0515ZM89.7248 56.389H89.1791V52.5464H89.7248V56.389Z" fill="#DCDCDC" stroke="#231815" stroke-width="0.13" stroke-miterlimit="10"/>
<path d="M89.7248 121.509H89.1791V123.51H89.7248V121.509Z" fill="#DCDCDC" stroke="#231815" stroke-width="0.13" stroke-miterlimit="10"/>
<path d="M129.244 65.5747H120.399V67.5756H129.244V65.5747Z" fill="#B4B4B4" stroke="#231815" stroke-width="0.25" stroke-miterlimit="10"/>
<path d="M118.398 65.5747H108.666V67.5756H118.398V65.5747Z" fill="#B4B4B4" stroke="#231815" stroke-width="0.25" stroke-miterlimit="10"/>
<path d="M106.665 65.5747H102.776V67.5756H106.665V65.5747Z" fill="#B4B4B4" stroke="#231815" stroke-width="0.25" stroke-miterlimit="10"/>
<path d="M129.244 70.0996H115.942V72.1005H129.244V70.0996Z" fill="#B4B4B4" stroke="#231815" stroke-width="0.25" stroke-miterlimit="10"/>
<path d="M113.941 70.0996H102.776V72.1005H113.941V70.0996Z" fill="#B4B4B4" stroke="#231815" stroke-width="0.25" stroke-miterlimit="10"/>
<path d="M129.244 74.6016H121.831V76.6024H129.244V74.6016Z" fill="#B4B4B4" stroke="#231815" stroke-width="0.25" stroke-miterlimit="10"/>
<path d="M119.807 74.6016H107.961V76.6024H119.807V74.6016Z" fill="#B4B4B4" stroke="#231815" stroke-width="0.25" stroke-miterlimit="10"/>
<path d="M105.983 74.6016H102.776V76.6024H105.983V74.6016Z" fill="#B4B4B4" stroke="#231815" stroke-width="0.25" stroke-miterlimit="10"/>
<g style="mix-blend-mode:screen" opacity="0.1">
<path d="M62.4845 31.5142L6.04837 87.9255V56.6617L31.1968 31.5142H62.4845Z" fill="white"/>
</g>
<g style="mix-blend-mode:screen" opacity="0.1">
<path d="M161.646 66.689V107.161L139.953 128.853H99.4567L161.646 66.689Z" fill="white"/>
</g>
</svg>
