<svg width="80" height="55" viewBox="0 0 80 55" fill="none" xmlns="http://www.w3.org/2000/svg">
<g clip-path="url(#clip0_526_909)">
<path d="M6.22 0.649902L73.01 0.709902V45.4499H6.22V0.649902Z" fill="#FDFFF3" stroke="#231815" stroke-width="0.51" stroke-miterlimit="10"/>
<path d="M73.01 46.1H6.22C5.86 46.1 5.57 45.81 5.57 45.45V0.65C5.57 0.48 5.64 0.31 5.76 0.19C5.88 0.07 6.05 0 6.22 0L73.01 0.06C73.37 0.06 73.66 0.35 73.66 0.71V45.45C73.66 45.81 73.37 46.1 73.01 46.1ZM6.87 44.8H72.36V1.36L6.87 1.3V44.8Z" fill="black"/>
<path d="M1.82 45.4502H77.4C78.05 45.4502 78.58 45.9802 78.58 46.6202V49.5802C78.58 51.8402 76.73 53.7002 74.45 53.7002H4.78C2.5 53.7002 0.650002 51.8402 0.650002 49.5802V46.6202C0.650002 45.9702 1.18 45.4502 1.82 45.4502Z" fill="#FFE600"/>
<path d="M74.45 54.36H4.78C2.15 54.36 0 52.22 0 49.58V46.62C0 45.61 0.81 44.79 1.82 44.79H77.4C78.41 44.79 79.23 45.61 79.23 46.62V49.58C79.23 52.21 77.09 54.36 74.45 54.36ZM1.82 46.1C1.54 46.1 1.3 46.34 1.3 46.62V49.58C1.3 51.5 2.86 53.05 4.78 53.05H74.45C76.37 53.05 77.93 51.49 77.93 49.58V46.62C77.93 46.33 77.69 46.1 77.4 46.1H1.82Z" fill="black"/>
<path d="M39.61 52.5901C37.95 52.5901 36.59 51.2401 36.59 49.5801C36.59 47.9201 37.94 46.5601 39.61 46.5601C41.28 46.5601 42.63 47.9101 42.63 49.5801C42.63 51.2501 41.28 52.5901 39.61 52.5901ZM39.61 47.8601C38.66 47.8601 37.89 48.6301 37.89 49.5801C37.89 50.5301 38.66 51.2901 39.61 51.2901C40.56 51.2901 41.33 50.5201 41.33 49.5801C41.33 48.6401 40.56 47.8601 39.61 47.8601Z" fill="black"/>
<path d="M39.61 8.46973C48.22 8.46973 55.2 15.4397 55.2 24.0497C55.2 32.6597 48.22 39.6297 39.61 39.6297C31 39.6297 24.02 32.6497 24.02 24.0497C24.02 15.4497 31 8.46973 39.61 8.46973Z" fill="#00DD05" stroke="#2E2138" stroke-width="0.5" stroke-linecap="round" stroke-linejoin="round"/>
<path d="M39.61 39.2898C30.66 39.2898 23.37 32.0098 23.37 23.0598C23.37 14.1098 30.66 6.81982 39.61 6.81982C48.56 6.81982 55.85 14.0998 55.85 23.0498C55.85 31.9998 48.57 39.2798 39.61 39.2798V39.2898ZM39.61 8.11982C31.37 8.11982 24.67 14.8198 24.67 23.0498C24.67 31.2798 31.37 37.9798 39.61 37.9798C47.85 37.9798 54.55 31.2798 54.55 23.0498C54.55 14.8198 47.85 8.11982 39.61 8.11982Z" fill="black"/>
<path d="M39.61 7.47021C42.94 7.47021 45.65 14.4402 45.65 23.0502C45.65 31.6602 42.94 38.6302 39.61 38.6302C36.28 38.6302 33.57 31.6502 33.57 23.0502C33.57 14.4502 36.28 7.47021 39.61 7.47021Z" fill="#007896" stroke="#231815" stroke-width="0.25" stroke-miterlimit="10"/>
<path d="M39.61 39.2901C35.86 39.2901 32.92 32.1601 32.92 23.0601C32.92 13.9601 35.86 6.83008 39.61 6.83008C43.36 6.83008 46.3 13.9601 46.3 23.0601C46.3 32.1601 43.36 39.2901 39.61 39.2901ZM39.61 8.12008C37.06 8.12008 34.22 14.2501 34.22 23.0501C34.22 31.8501 37.06 37.9801 39.61 37.9801C42.16 37.9801 45 31.8501 45 23.0501C45 14.2501 42.16 8.12008 39.61 8.12008Z" fill="black"/>
<path d="M50.39 12.4499H28.84C28.48 12.4499 28.19 12.1599 28.19 11.7999C28.19 11.4399 28.48 11.1499 28.84 11.1499H50.39C50.75 11.1499 51.04 11.4399 51.04 11.7999C51.04 12.1599 50.75 12.4499 50.39 12.4499Z" fill="black"/>
<path d="M55.2 23.6999H24.02C23.66 23.6999 23.37 23.4099 23.37 23.0499C23.37 22.6899 23.66 22.3999 24.02 22.3999H55.2C55.56 22.3999 55.85 22.6899 55.85 23.0499C55.85 23.4099 55.56 23.6999 55.2 23.6999Z" fill="black"/>
<path d="M50.39 34.9602H28.84C28.48 34.9602 28.19 34.6702 28.19 34.3102C28.19 33.9502 28.48 33.6602 28.84 33.6602H50.39C50.75 33.6602 51.04 33.9502 51.04 34.3102C51.04 34.6702 50.75 34.9602 50.39 34.9602Z" fill="black"/>
</g>
<defs>
<clipPath id="clip0_526_909">
<rect width="79.22" height="54.36" fill="white"/>
</clipPath>
</defs>
</svg>
