<svg width="66" height="58" viewBox="0 0 66 58" fill="none" xmlns="http://www.w3.org/2000/svg">
<g clip-path="url(#clip0_526_1012)">
<path d="M3.78365 28.5957C5.66182 28.5957 7.18437 27.0799 7.18437 25.21C7.18437 23.3401 5.66182 21.8242 3.78365 21.8242C1.90549 21.8242 0.382935 23.3401 0.382935 25.21C0.382935 27.0799 1.90549 28.5957 3.78365 28.5957Z" fill="#12B512"/>
<path d="M3.78368 28.9769C1.70036 28.9769 0 27.2917 0 25.2099C0 23.1281 1.6927 21.4429 3.78368 21.4429C5.87467 21.4429 7.56737 23.1281 7.56737 25.2099C7.56737 27.2917 5.87467 28.9769 3.78368 28.9769ZM3.78368 22.2131C2.12162 22.2131 0.765928 23.5628 0.765928 25.2175C0.765928 26.8723 2.12162 28.222 3.78368 28.222C5.44575 28.222 6.80144 26.8723 6.80144 25.2175C6.80144 23.5628 5.44575 22.2131 3.78368 22.2131Z" fill="black"/>
<path d="M14.8513 35.1465H24.7012V53.7528C24.7012 55.888 22.9625 57.619 20.8179 57.619H16.4751C15.579 57.619 14.859 56.8946 14.859 56.01V35.1465H14.8513Z" fill="#FFBF3D"/>
<path d="M20.8179 58.0002H16.4751C15.3721 58.0002 14.476 57.108 14.476 56.0099V35.1464C14.476 34.9329 14.6445 34.7651 14.859 34.7651H24.7088C24.9233 34.7651 25.0918 34.9329 25.0918 35.1464V53.7528C25.0918 56.0938 23.177 58.0002 20.8256 58.0002H20.8179ZM15.2343 35.5201V56.0023C15.2343 56.681 15.7858 57.23 16.4674 57.23H20.8102C22.7404 57.23 24.3105 55.6668 24.3105 53.7452V35.5201H15.2266H15.2343Z" fill="black"/>
<path d="M11.9255 35.5957H27.6194V37.708C27.6194 39.5915 26.0799 41.1242 24.188 41.1242H15.3492C13.4574 41.1242 11.9178 39.5915 11.9178 37.708V35.5957H11.9255Z" fill="#12B512"/>
<path d="M24.1957 41.4981H15.3569C13.2582 41.4981 11.5425 39.7976 11.5425 37.7006V35.5883C11.5425 35.3748 11.711 35.207 11.9255 35.207H27.6194C27.8338 35.207 28.0023 35.3748 28.0023 35.5883V37.7006C28.0023 39.79 26.2943 41.4981 24.188 41.4981H24.1957ZM12.3161 35.9772V37.7082C12.3161 39.3782 13.6795 40.7432 15.3645 40.7432H24.2033C25.8807 40.7432 27.2517 39.3858 27.2517 37.7082V35.9772H12.3238H12.3161Z" fill="black"/>
<path d="M11.5655 13.3979C7.2686 13.3979 3.78363 16.8676 3.78363 21.1455V29.282C3.78363 33.5599 7.2686 37.0296 11.5655 37.0296H11.7799V13.3979H11.5655Z" fill="#FFBF3D"/>
<path d="M11.7799 37.4108H11.5655C7.06183 37.4108 3.4007 33.7657 3.4007 29.2819V21.1454C3.4007 16.6616 7.06183 13.0166 11.5655 13.0166H11.7799C11.9944 13.0166 12.1629 13.1844 12.1629 13.3979V37.0295C12.1629 37.243 11.9944 37.4108 11.7799 37.4108ZM11.397 13.7792C7.39118 13.8707 4.16662 17.142 4.16662 21.1454V29.2819C4.16662 33.2853 7.39884 36.5567 11.397 36.6482V13.7792Z" fill="black"/>
<path d="M27.7802 13.3979H11.78V37.0296H27.7802V13.3979Z" fill="#FF502E"/>
<path d="M27.7726 37.4108H11.78C11.5655 37.4108 11.397 37.243 11.397 37.0295V13.3979C11.397 13.1844 11.5655 13.0166 11.78 13.0166H27.7802C27.9947 13.0166 28.1632 13.1844 28.1632 13.3979V37.0295C28.1632 37.243 27.9947 37.4108 27.7802 37.4108H27.7726ZM12.1553 36.6482H27.3896V13.7792H12.163V36.6482H12.1553Z" fill="black"/>
<path d="M27.7725 13.3977C36.8028 13.3977 51.769 7.91491 57.0999 0.380859V50.0461C51.769 42.5121 36.8028 37.0293 27.7725 37.0293V13.3977Z" fill="#FFBF3D"/>
<path d="M57.0999 50.4276C56.9774 50.4276 56.8625 50.3666 56.7859 50.2675C51.6618 43.0308 36.979 37.4108 27.7726 37.4108C27.5581 37.4108 27.3896 37.243 27.3896 37.0295V13.3979C27.3896 13.1844 27.5581 13.0166 27.7726 13.0166C36.9867 13.0166 51.6618 7.40422 56.7859 0.159939C56.8778 0.0226793 57.054 -0.0306996 57.2148 0.0150537C57.3757 0.0684327 57.4829 0.213318 57.4829 0.381081V50.0463C57.4829 50.2141 57.3757 50.359 57.2148 50.4124C57.1765 50.4276 57.1382 50.4276 57.0999 50.4276ZM28.1555 36.6559C37.1781 36.8008 51.0185 42.0471 56.717 48.9254V1.50966C51.0185 8.38792 37.1781 13.6343 28.1555 13.7792V36.6559Z" fill="black"/>
<path d="M57.0999 50.039C61.8038 50.039 65.6171 38.9227 65.6171 25.2102C65.6171 11.4976 61.8038 0.381348 57.0999 0.381348C52.3961 0.381348 48.5828 11.4976 48.5828 25.2102C48.5828 38.9227 52.3961 50.039 57.0999 50.039Z" fill="#FF502E"/>
<path d="M57.0999 50.4278C52.1137 50.4278 48.1998 39.3555 48.1998 25.2177C48.1998 11.0799 52.1137 0 57.0999 0C62.0861 0 66 11.0723 66 25.2101C66 39.3479 62.0938 50.4202 57.0999 50.4202V50.4278ZM57.0999 0.762556C52.6958 0.762556 48.9658 11.9569 48.9658 25.2101C48.9658 38.4633 52.6882 49.6576 57.0999 49.6576C61.5117 49.6576 65.2341 38.4633 65.2341 25.2101C65.2341 11.9569 61.5117 0.762556 57.0999 0.762556Z" fill="black"/>
<path d="M57.682 45.2652C60.9392 45.2652 63.5797 36.2862 63.5797 25.21C63.5797 14.1338 60.9392 5.15479 57.682 5.15479C54.4248 5.15479 51.7844 14.1338 51.7844 25.21C51.7844 36.2862 54.4248 45.2652 57.682 45.2652Z" fill="#FFBF3D"/>
<path d="M57.682 45.6542C53.7528 45.6542 51.4014 35.2606 51.4014 25.2177C51.4014 15.1749 53.7528 4.78125 57.682 4.78125C61.6112 4.78125 63.9626 15.1749 63.9626 25.2177C63.9626 35.2606 61.6112 45.6542 57.682 45.6542ZM57.682 5.53618C55.0166 5.53618 52.1674 13.4439 52.1674 25.2101C52.1674 36.9764 55.0166 44.8841 57.682 44.8841C60.3475 44.8841 63.1967 36.9764 63.1967 25.2101C63.1967 13.4439 60.3475 5.53618 57.682 5.53618Z" fill="black"/>
<path d="M51.7844 25.2097C51.7844 26.8339 51.8456 28.4048 51.9529 29.9146L58.0037 28.5878V21.8239L51.9529 20.4971C51.8456 22.0069 51.7844 23.5778 51.7844 25.202V25.2097Z" fill="white"/>
<path d="M51.9529 30.2961C51.8686 30.2961 51.7921 30.2732 51.7231 30.2199C51.6312 30.1512 51.5776 30.0521 51.5699 29.9377C51.455 28.3364 51.4014 26.7426 51.4014 25.2022C51.4014 23.6619 51.4627 22.0681 51.5699 20.4668C51.5776 20.3524 51.6312 20.2533 51.7231 20.1846C51.815 20.116 51.9223 20.0931 52.0371 20.116L58.088 21.4428C58.2641 21.481 58.3867 21.6335 58.3867 21.8165V28.5804C58.3867 28.7558 58.2641 28.9159 58.088 28.954L52.0371 30.2809C52.0371 30.2809 51.9835 30.2885 51.9529 30.2885V30.2961ZM52.3052 20.9701C52.2133 22.4037 52.1674 23.8296 52.1674 25.2099C52.1674 26.5901 52.2133 28.0161 52.3052 29.4497L57.6208 28.2906V22.1368L52.3052 20.9777V20.9701Z" fill="black"/>
<path d="M57.682 28.7866C58.803 28.7866 59.7117 27.1854 59.7117 25.2102C59.7117 23.235 58.803 21.6338 57.682 21.6338C56.561 21.6338 55.6523 23.235 55.6523 25.2102C55.6523 27.1854 56.561 28.7866 57.682 28.7866Z" fill="white"/>
<path d="M57.682 29.1678C56.3263 29.1678 55.2693 27.4291 55.2693 25.2101C55.2693 22.9911 56.3263 21.2524 57.682 21.2524C59.0377 21.2524 60.0947 22.9911 60.0947 25.2101C60.0947 27.4291 59.0377 29.1678 57.682 29.1678ZM57.682 22.015C56.8855 22.015 56.0353 23.2961 56.0353 25.2101C56.0353 27.1241 56.8855 28.4052 57.682 28.4052C58.4786 28.4052 59.3288 27.1241 59.3288 25.2101C59.3288 23.2961 58.4786 22.015 57.682 22.015Z" fill="black"/>
</g>
<defs>
<clipPath id="clip0_526_1012">
<rect width="66" height="58" fill="white"/>
</clipPath>
</defs>
</svg>
