<svg width="211" height="142" viewBox="0 0 211 142" fill="none" xmlns="http://www.w3.org/2000/svg">
<g clip-path="url(#clip0_526_500)">
<path d="M119.875 14.7239C119.875 22.7089 113.433 29.1935 105.5 29.1935C97.5673 29.1935 91.1251 22.7089 91.1251 14.7239C91.1251 6.73899 97.5673 0.254395 105.5 0.254395C113.433 0.254395 119.875 6.73899 119.875 14.7239Z" fill="#77DD00"/>
<path d="M105.5 29.4223C97.441 29.4223 90.8725 22.8106 90.8725 14.6985C90.8725 6.58636 97.441 -0.0253906 105.5 -0.0253906C113.559 -0.0253906 120.128 6.58636 120.128 14.6985C120.128 22.8106 113.559 29.4223 105.5 29.4223ZM105.5 0.483205C97.7189 0.483205 91.3778 6.86609 91.3778 14.6985C91.3778 22.5308 97.7189 28.9137 105.5 28.9137C113.281 28.9137 119.622 22.5308 119.622 14.6985C119.622 6.86609 113.306 0.483205 105.5 0.483205Z" fill="black"/>
<path d="M100.119 13.9868C99.7652 13.9868 99.462 14.292 99.462 14.648C99.462 15.004 99.7652 15.3092 100.119 15.3092C100.473 15.3092 100.776 15.004 100.776 14.648C100.776 14.292 100.473 13.9868 100.119 13.9868Z" fill="white"/>
<path d="M100.119 15.5634C99.6136 15.5634 99.2094 15.1565 99.2094 14.6479C99.2094 14.1393 99.6136 13.7324 100.119 13.7324C100.624 13.7324 101.028 14.1393 101.028 14.6479C101.028 15.1565 100.624 15.5634 100.119 15.5634ZM100.119 14.241C99.8915 14.241 99.7147 14.419 99.7147 14.6733C99.7147 14.9276 99.8915 15.0802 100.119 15.0802C100.346 15.0802 100.523 14.9022 100.523 14.6733C100.523 14.4445 100.346 14.241 100.119 14.241Z" fill="black"/>
<path d="M106.612 13.9355C106.233 13.9355 105.904 14.2661 105.904 14.6476C105.904 15.029 106.233 15.3596 106.612 15.3596C106.991 15.3596 107.319 15.029 107.319 14.6476C107.319 14.2661 106.991 13.9355 106.612 13.9355Z" fill="white"/>
<path d="M106.612 15.5884C106.081 15.5884 105.652 15.1561 105.652 14.6221C105.652 14.0881 106.081 13.6558 106.612 13.6558C107.142 13.6558 107.572 14.0881 107.572 14.6221C107.572 15.1561 107.142 15.5884 106.612 15.5884ZM106.612 14.1644C106.359 14.1644 106.157 14.3678 106.157 14.6221C106.157 14.8764 106.359 15.0798 106.612 15.0798C106.864 15.0798 107.066 14.8764 107.066 14.6221C107.066 14.3678 106.864 14.1644 106.612 14.1644Z" fill="black"/>
<path d="M112.498 7.42578H98.5273C97.1126 7.42578 95.9757 8.57012 95.9757 9.99419V18.3352C95.9757 19.7592 97.1126 20.9036 98.5273 20.9036H103.454L105.121 24.8961C105.121 24.8961 105.247 25.2521 105.525 25.2521C105.803 25.2521 105.929 24.8961 105.929 24.8961L107.597 20.9036H112.498C113.913 20.9036 115.05 19.7592 115.05 18.3352V9.99419C115.05 8.57012 113.913 7.42578 112.498 7.42578ZM101.963 14.8004C101.963 16.3262 100.397 16.3771 100.397 16.3771C99.7905 16.3771 99.4368 15.9702 99.4368 15.9702V16.2499H98.2999V11.52H99.4368V13.3255C99.7147 12.8678 100.473 12.8678 100.473 12.8678C102.165 13.0203 101.963 14.8004 101.963 14.8004ZM103.984 12.9949V16.2499H102.873V13.0458C102.873 12.6135 102.342 12.4863 102.342 12.4863V11.342C104.136 11.4183 104.009 12.9949 104.009 12.9949H103.984ZM106.637 16.3771C105.601 16.3771 104.767 15.5887 104.767 14.6478C104.767 13.7069 105.601 12.9186 106.637 12.9186C107.673 12.9186 108.506 13.7069 108.506 14.6478C108.506 15.5887 107.673 16.3771 106.637 16.3771ZM112.751 16.3771C112.751 16.3771 112.751 18.03 111.108 18.03H110.603V16.962H110.906C110.906 16.962 111.614 17.0382 111.588 15.9448C111.588 15.9448 111.462 16.3771 110.477 16.3771C110.477 16.3771 109.087 16.2754 109.087 14.9021V14.3935C109.087 14.3935 109.113 12.9695 110.654 12.8678C110.654 12.8678 111.26 12.7915 111.639 13.3001V12.944H112.776V16.3771H112.751Z" fill="white"/>
<path d="M105.525 25.4808C105.172 25.4808 104.969 25.1503 104.894 24.9722L103.277 21.1578H98.5021C96.961 21.1578 95.6978 19.8863 95.6978 18.3351V9.99409C95.6978 8.44288 96.961 7.17139 98.5021 7.17139H112.473C114.014 7.17139 115.277 8.44288 115.277 9.99409V18.3351C115.277 19.8863 114.014 21.1578 112.473 21.1578H107.748L106.132 24.9977C106.081 25.1757 105.879 25.5063 105.525 25.5063V25.4808ZM98.5021 7.65455C97.2389 7.65455 96.1778 8.69717 96.1778 9.99409V18.3351C96.1778 19.6066 97.2136 20.6746 98.5021 20.6746H103.428C103.428 20.6746 103.605 20.7255 103.656 20.8272L105.348 24.8197C105.348 24.8197 105.449 25.0231 105.525 25.0231C105.601 25.0231 105.677 24.8705 105.702 24.8451L107.395 20.8526C107.395 20.8526 107.521 20.7 107.622 20.7H112.523C113.786 20.7 114.822 19.6574 114.822 18.3605V10.0195C114.822 8.74803 113.786 7.67998 112.523 7.67998H98.5526L98.5021 7.65455ZM111.083 18.2588H110.578C110.452 18.2588 110.325 18.1571 110.325 18.0045V16.9364C110.325 16.8093 110.426 16.6821 110.578 16.6821H110.881C110.881 16.6821 111.033 16.6821 111.134 16.5804C111.159 16.555 111.184 16.5041 111.21 16.4787C111.007 16.555 110.78 16.5804 110.452 16.5804C109.871 16.5296 108.81 16.1227 108.81 14.8766V14.368C108.81 13.8086 109.214 12.6897 110.603 12.5879C110.603 12.5879 111.007 12.5371 111.412 12.7659C111.462 12.7151 111.513 12.6642 111.614 12.6642H112.751C112.877 12.6642 113.003 12.7659 113.003 12.9185V16.3515C113.003 16.3515 113.003 17.1907 112.447 17.7502C112.119 18.0808 111.664 18.2588 111.108 18.2588H111.083ZM110.831 17.7756H111.083C111.513 17.7756 111.841 17.6485 112.094 17.4196C112.498 17.0127 112.498 16.377 112.498 16.377V13.1982H111.841V13.3C111.841 13.3 111.765 13.5034 111.664 13.5288C111.563 13.5543 111.462 13.5288 111.386 13.4525C111.108 13.0711 110.654 13.122 110.628 13.122C109.34 13.2237 109.29 14.368 109.29 14.4189V14.9275C109.29 16.0464 110.401 16.1481 110.452 16.1481C111.184 16.1481 111.336 15.8684 111.336 15.8684C111.361 15.7667 111.462 15.6904 111.588 15.7158C111.715 15.7158 111.791 15.8429 111.791 15.9701C111.791 16.4533 111.664 16.7838 111.437 17.0127C111.159 17.267 110.856 17.2416 110.831 17.2416H110.78V17.8265L110.831 17.7756ZM106.612 16.6058C105.449 16.6058 104.489 15.7158 104.489 14.6223C104.489 13.5288 105.449 12.6388 106.612 12.6388C107.774 12.6388 108.734 13.5288 108.734 14.6223C108.734 15.7158 107.774 16.6058 106.612 16.6058ZM106.612 13.122C105.702 13.122 104.969 13.7831 104.969 14.6223C104.969 15.4615 105.702 16.1227 106.612 16.1227C107.521 16.1227 108.254 15.4615 108.254 14.6223C108.254 13.7831 107.521 13.122 106.612 13.122ZM100.372 16.6058C100.043 16.6058 99.7905 16.5041 99.5884 16.4024C99.5378 16.4533 99.4873 16.4787 99.4115 16.4787H98.2747C98.1484 16.4787 98.022 16.377 98.022 16.2244V11.5199C98.022 11.5199 98.022 11.4436 98.022 11.4182C98.0473 11.291 98.1736 11.2147 98.3252 11.2402C98.4515 11.2402 99.0073 11.2402 99.4115 11.2402C99.4621 11.2402 99.5378 11.2402 99.5884 11.3164C99.6389 11.3673 99.6642 11.4182 99.6642 11.4945V12.7914C100.043 12.6134 100.447 12.6134 100.473 12.6134C101.054 12.6642 101.483 12.8931 101.761 13.2491C102.241 13.8594 102.191 14.6986 102.191 14.8258C102.191 16.199 101.003 16.6058 100.372 16.6313V16.6058ZM99.4115 15.7158C99.4115 15.7158 99.5378 15.7412 99.5884 15.7921C99.5884 15.7921 99.8663 16.0972 100.346 16.0972C100.397 16.0972 101.685 16.0464 101.685 14.7749C101.685 14.7749 101.685 14.7749 101.685 14.7495C101.685 14.7495 101.761 14.012 101.357 13.5288C101.155 13.2745 100.826 13.122 100.422 13.0711C100.27 13.0711 99.7652 13.122 99.6136 13.4017C99.5631 13.5034 99.4368 13.5543 99.3357 13.5034C99.2347 13.478 99.1589 13.3763 99.1589 13.2745V11.6979C98.881 11.6979 98.6536 11.6979 98.5021 11.6979V15.9447H99.1589C99.1589 15.8175 99.2347 15.7158 99.3105 15.6904C99.3357 15.6904 99.361 15.6904 99.3863 15.6904L99.4115 15.7158ZM103.959 16.4787H102.847C102.721 16.4787 102.595 16.377 102.595 16.2244V13.0202C102.595 12.7914 102.241 12.6897 102.241 12.6897C102.14 12.6897 102.064 12.5625 102.064 12.4608V11.3164C102.064 11.3164 102.089 11.1893 102.14 11.1384C102.191 11.0876 102.241 11.0621 102.317 11.0621C102.948 11.0876 103.428 11.291 103.782 11.6725C104.237 12.2065 104.212 12.8677 104.212 12.9694V16.199C104.212 16.3261 104.111 16.4533 103.959 16.4533V16.4787ZM103.075 15.9955H103.706V12.9948C103.706 12.9948 103.732 12.4354 103.378 12.0285C103.176 11.7996 102.898 11.6725 102.519 11.6216V12.3082C102.772 12.4099 103.049 12.6388 103.049 13.0457V16.021L103.075 15.9955Z" fill="black"/>
<path d="M110.957 13.936C110.578 13.936 110.275 14.2412 110.275 14.6226C110.275 15.0041 110.578 15.3092 110.957 15.3092C111.336 15.3092 111.639 15.0041 111.639 14.6226C111.639 14.2412 111.336 13.936 110.957 13.936Z" fill="white"/>
<path d="M110.957 15.5888C110.452 15.5888 110.022 15.1565 110.022 14.6479C110.022 14.1393 110.452 13.707 110.957 13.707C111.462 13.707 111.892 14.1393 111.892 14.6479C111.892 15.1565 111.462 15.5888 110.957 15.5888ZM110.957 14.1902C110.704 14.1902 110.502 14.3936 110.502 14.6479C110.502 14.9022 110.704 15.1057 110.957 15.1057C111.21 15.1057 111.412 14.9022 111.412 14.6479C111.412 14.3936 111.21 14.1902 110.957 14.1902Z" fill="black"/>
<path d="M210.747 82.5452C210.747 90.5302 204.305 97.0148 196.373 97.0148C188.44 97.0148 181.998 90.5302 181.998 82.5452C181.998 74.5603 188.44 68.0757 196.373 68.0757C204.305 68.0757 210.747 74.5603 210.747 82.5452Z" fill="#77DD00"/>
<path d="M196.373 97.269C188.313 97.269 181.745 90.6572 181.745 82.5451C181.745 74.433 188.313 67.8213 196.373 67.8213C204.432 67.8213 211 74.433 211 82.5451C211 90.6572 204.432 97.269 196.373 97.269ZM196.373 68.3299C188.591 68.3299 182.25 74.7128 182.25 82.5451C182.25 90.3775 188.591 96.7604 196.373 96.7604C204.154 96.7604 210.495 90.3775 210.495 82.5451C210.495 74.7128 204.154 68.3299 196.373 68.3299Z" fill="black"/>
<path d="M199.227 86.2837V79.1125C199.227 79.1125 200.036 80.4603 202.941 80.5366C203.093 80.5366 203.219 80.4094 203.219 80.2568V78.2225C203.219 78.0699 203.093 77.9427 202.941 77.9427C200.693 77.8156 199.631 76.0864 199.505 74.4843C199.505 74.3317 199.379 74.23 199.227 74.23H196.928C196.777 74.23 196.65 74.3571 196.65 74.5097V85.9023C196.65 87.1483 195.716 88.2164 194.478 88.2672C193.063 88.3435 191.926 87.1229 192.103 85.6988C192.229 84.6816 193.038 83.8679 194.048 83.7153C194.25 83.6899 194.452 83.6899 194.629 83.7153C194.806 83.7153 194.933 83.6136 194.933 83.4356V81.4012C194.933 81.2486 194.831 81.1215 194.68 81.1215C194.402 81.1215 194.099 81.1215 193.796 81.1215C191.572 81.3758 189.804 83.1813 189.551 85.4191C189.223 88.3689 191.497 90.8611 194.377 90.8611C197.055 90.8611 199.227 88.6741 199.227 85.9785" fill="white"/>
<path d="M194.377 91.1152C192.937 91.1152 191.547 90.5049 190.587 89.4114C189.602 88.3179 189.172 86.8938 189.324 85.4189C189.577 83.0794 191.446 81.1721 193.796 80.9178C194.099 80.8924 194.427 80.867 194.73 80.9178C195.008 80.9178 195.21 81.1721 195.21 81.4519V83.4863C195.21 83.6388 195.135 83.766 195.034 83.8677C194.932 83.9694 194.781 84.0203 194.629 83.9948C194.452 83.9948 194.276 83.9948 194.099 83.9948C193.215 84.122 192.482 84.8595 192.356 85.7749C192.28 86.3852 192.482 86.9956 192.886 87.4279C193.29 87.8602 193.871 88.1399 194.478 88.089C195.539 88.0382 196.423 87.0719 196.423 85.9529V74.5604C196.423 74.2807 196.65 74.0264 196.954 74.0264H199.253C199.53 74.0264 199.758 74.2298 199.783 74.5095C199.884 76.0353 200.92 77.6374 202.992 77.7391C203.269 77.7391 203.497 77.9934 203.497 78.2731V80.3075C203.497 80.4347 203.446 80.5873 203.345 80.689C203.244 80.7907 203.118 80.867 202.966 80.8416C201.071 80.7907 200.036 80.2058 199.505 79.7735V86.3344C199.505 86.3344 199.505 86.3852 199.505 86.4107C199.328 89.0554 197.105 91.166 194.427 91.166L194.377 91.1152ZM194.25 81.3756C194.124 81.3756 193.972 81.3756 193.846 81.3756C191.749 81.6044 190.031 83.3337 189.804 85.4443C189.652 86.7921 190.057 88.0636 190.941 89.0554C191.825 90.0471 193.063 90.6066 194.377 90.6066C196.903 90.6066 198.975 88.5214 198.975 85.9784V79.0869C198.975 79.0869 199.05 78.8835 199.151 78.858C199.253 78.8072 199.379 78.858 199.429 78.9597C199.429 78.9597 200.213 80.2058 202.941 80.2821V78.2223C200.566 78.0443 199.404 76.2388 199.278 74.5095H196.928L196.903 85.9021C196.903 87.3007 195.842 88.4451 194.503 88.5214C194.452 88.5214 194.427 88.5214 194.377 88.5214C193.669 88.5214 193.012 88.2162 192.532 87.7076C192.027 87.1481 191.8 86.4107 191.876 85.6732C192.002 84.5543 192.911 83.6388 194.023 83.4863C194.225 83.4608 194.452 83.4608 194.68 83.4863L194.73 81.4264C194.579 81.401 194.427 81.3756 194.276 81.3756H194.25Z" fill="black"/>
<path d="M29.0024 82.5452C29.0024 90.5302 22.5602 97.0148 14.6275 97.0148C6.69479 97.0148 0.252625 90.5302 0.252625 82.5452C0.252625 74.5603 6.69479 68.0757 14.6275 68.0757C22.5602 68.0757 29.0024 74.5603 29.0024 82.5452Z" fill="#77DD00"/>
<path d="M14.6275 97.269C6.56849 97.269 0 90.6572 0 82.5451C0 74.433 6.56849 67.8213 14.6275 67.8213C22.6865 67.8213 29.255 74.433 29.255 82.5451C29.255 90.6572 22.6865 97.269 14.6275 97.269ZM14.6275 68.3299C6.84638 68.3299 0.505268 74.7128 0.505268 82.5451C0.505268 90.3775 6.84638 96.7604 14.6275 96.7604C22.4086 96.7604 28.7498 90.3775 28.7498 82.5451C28.7498 74.7128 22.4086 68.3299 14.6275 68.3299Z" fill="black"/>
<path d="M18.8717 81.4265L18.6444 83.3592C18.5939 83.6898 18.3412 83.9187 18.0128 83.9187H14.9054V92.0053C14.577 92.0308 14.2485 92.0562 13.8949 92.0562C13.137 92.0562 12.4043 91.9799 11.6969 91.8273V83.9187H9.29691C9.06954 83.9187 8.8927 83.7407 8.8927 83.5118V81.096C8.8927 80.8671 9.06954 80.6891 9.29691 80.6891H11.6969V77.0526C11.6969 74.8148 13.4906 73.0093 15.6886 73.0093H18.4928C18.7202 73.0093 18.897 73.1873 18.897 73.4162V75.832C18.897 76.0609 18.7202 76.2389 18.4928 76.2389H16.497C15.6128 76.2389 14.9054 76.9509 14.9054 77.8664V80.6891H18.2654C18.6444 80.6891 18.9475 81.0197 18.897 81.4265H18.8717Z" fill="white"/>
<path d="M13.8949 92.3103C13.137 92.3103 12.3791 92.234 11.6464 92.0814C11.5454 92.0814 11.4443 91.9543 11.4443 91.8525V84.1727H9.29693C8.94324 84.1727 8.66534 83.893 8.66534 83.537V81.1212C8.66534 80.7652 8.94324 80.4854 9.29693 80.4854H11.4443V77.1033C11.4443 74.7383 13.3391 72.8311 15.6886 72.8311H18.4928C18.8465 72.8311 19.1244 73.1108 19.1244 73.4668V75.8826C19.1244 76.2387 18.8465 76.5184 18.4928 76.5184H16.497C15.7391 76.5184 15.1328 77.1287 15.1328 77.8916V80.4854H18.2402C18.4928 80.4854 18.7202 80.5871 18.897 80.7906C19.0739 80.994 19.1497 81.2229 19.0991 81.4772L18.8718 83.4099C18.8212 83.8422 18.4423 84.1982 17.9875 84.1982H15.1075V92.056C15.1075 92.056 15.0065 92.2849 14.8801 92.2849C14.5517 92.3103 14.198 92.3357 13.8696 92.3357L13.8949 92.3103ZM11.9496 91.6491C12.8338 91.8017 13.7686 91.8525 14.6528 91.8017V83.9439C14.6528 83.8167 14.7538 83.6896 14.9054 83.6896H18.0128C18.2149 83.6896 18.3918 83.537 18.417 83.3336L18.6444 81.4009C18.6444 81.4009 18.6444 81.172 18.5433 81.0957C18.4675 81.0195 18.3665 80.9686 18.2402 80.9686H14.8801C14.7538 80.9686 14.6275 80.8669 14.6275 80.7143V77.8916C14.6275 76.8744 15.4612 76.0352 16.4717 76.0352H18.4675C18.4675 76.0352 18.6191 75.9589 18.6191 75.8826V73.4668C18.6191 73.4668 18.5433 73.3142 18.4675 73.3142H15.6633C13.5917 73.3142 11.8991 75.018 11.8991 77.1033V80.7397C11.8991 80.8669 11.798 80.994 11.6464 80.994H9.2464C9.2464 80.994 9.09482 81.0703 9.09482 81.1466V83.5624C9.09482 83.5624 9.17061 83.715 9.2464 83.715H11.6464C11.7727 83.715 11.8991 83.8167 11.8991 83.9693V91.7L11.9496 91.6491Z" fill="black"/>
<path d="M180.33 33.4149C180.33 41.3998 173.888 47.8844 165.955 47.8844C158.023 47.8844 151.58 41.3998 151.58 33.4149C151.58 25.4299 158.023 18.9453 165.955 18.9453C173.888 18.9453 180.33 25.4299 180.33 33.4149Z" fill="#77DD00"/>
<path d="M165.955 48.1386C157.896 48.1386 151.328 41.5269 151.328 33.4148C151.328 25.3027 157.896 18.6909 165.955 18.6909C174.014 18.6909 180.583 25.3027 180.583 33.4148C180.583 41.5269 174.014 48.1386 165.955 48.1386ZM165.955 19.1995C158.174 19.1995 151.833 25.5824 151.833 33.4148C151.833 41.2472 158.174 47.63 165.955 47.63C173.736 47.63 180.078 41.2472 180.078 33.4148C180.078 25.5824 173.736 19.1995 165.955 19.1995Z" fill="black"/>
<path d="M169.846 25.8369H162.039C160.018 25.8369 158.402 27.4899 158.402 29.4988V37.3566C158.402 39.391 160.044 41.0185 162.039 41.0185H169.846C171.867 41.0185 173.484 39.3656 173.484 37.3566V29.4988C173.484 27.4644 171.842 25.8369 169.846 25.8369ZM172.195 37.1023C172.195 38.5518 171.033 39.7216 169.593 39.7216H162.317C160.877 39.7216 159.715 38.5518 159.715 37.1023V29.7785C159.715 28.329 160.877 27.1593 162.317 27.1593H169.593C171.033 27.1593 172.195 28.329 172.195 29.7785V37.1023Z" fill="white"/>
<path d="M169.846 41.2727H162.039C159.892 41.2727 158.149 39.518 158.149 37.3565V29.4987C158.149 27.3372 159.892 25.5825 162.039 25.5825H169.846C171.993 25.5825 173.736 27.3372 173.736 29.4987V37.3565C173.736 39.518 171.993 41.2727 169.846 41.2727ZM162.039 26.0911C160.17 26.0911 158.629 27.6169 158.629 29.4987V37.3565C158.629 39.2383 160.145 40.7895 162.039 40.7895H169.846C171.715 40.7895 173.256 39.2637 173.256 37.3565V29.4987C173.256 27.6169 171.741 26.0911 169.846 26.0911H162.039ZM169.568 39.9758H162.292C160.726 39.9758 159.463 38.7043 159.463 37.1276V29.8039C159.463 28.2272 160.726 26.9557 162.292 26.9557H169.568C171.134 26.9557 172.397 28.2272 172.397 29.8039V37.1276C172.397 38.7043 171.134 39.9758 169.568 39.9758ZM162.292 27.4135C160.978 27.4135 159.943 28.4815 159.943 29.7784V37.1022C159.943 38.3991 161.004 39.4672 162.292 39.4672H169.568C170.882 39.4672 171.917 38.3991 171.917 37.1022V29.7784C171.917 28.4815 170.856 27.4135 169.568 27.4135H162.292Z" fill="black"/>
<path d="M165.955 29.499C163.808 29.499 162.065 31.2537 162.065 33.4152C162.065 35.5767 163.808 37.3314 165.955 37.3314C168.103 37.3314 169.846 35.5767 169.846 33.4152C169.846 31.2537 168.103 29.499 165.955 29.499ZM165.955 36.0345C164.515 36.0345 163.353 34.8647 163.353 33.4152C163.353 31.9657 164.515 30.7959 165.955 30.7959C167.395 30.7959 168.557 31.9657 168.557 33.4152C168.557 34.8647 167.395 36.0345 165.955 36.0345Z" fill="white"/>
<path d="M165.955 37.5856C163.682 37.5856 161.812 35.7038 161.812 33.4151C161.812 31.1264 163.682 29.2446 165.955 29.2446C168.229 29.2446 170.099 31.1264 170.099 33.4151C170.099 35.7038 168.229 37.5856 165.955 37.5856ZM165.955 29.7278C163.934 29.7278 162.292 31.3807 162.292 33.4151C162.292 35.4495 163.934 37.1024 165.955 37.1024C167.976 37.1024 169.619 35.4495 169.619 33.4151C169.619 31.3807 167.976 29.7278 165.955 29.7278ZM165.955 36.2633C164.389 36.2633 163.126 34.9918 163.126 33.4151C163.126 31.8385 164.389 30.567 165.955 30.567C167.522 30.567 168.785 31.8385 168.785 33.4151C168.785 34.9918 167.522 36.2633 165.955 36.2633ZM165.955 31.0247C164.642 31.0247 163.606 32.0928 163.606 33.3897C163.606 34.6866 164.667 35.7547 165.955 35.7547C167.244 35.7547 168.305 34.6866 168.305 33.3897C168.305 32.0928 167.244 31.0247 165.955 31.0247Z" fill="black"/>
<path d="M170.124 30.0327C170.556 30.0327 170.907 29.6798 170.907 29.2444C170.907 28.809 170.556 28.4561 170.124 28.4561C169.691 28.4561 169.341 28.809 169.341 29.2444C169.341 29.6798 169.691 30.0327 170.124 30.0327Z" fill="white"/>
<path d="M170.124 30.2614C169.568 30.2614 169.113 29.8037 169.113 29.2442C169.113 28.6848 169.568 28.2271 170.124 28.2271C170.68 28.2271 171.134 28.6848 171.134 29.2442C171.134 29.8037 170.68 30.2614 170.124 30.2614ZM170.124 28.6848C169.821 28.6848 169.593 28.9391 169.593 29.2188C169.593 29.4985 169.846 29.7528 170.124 29.7528C170.402 29.7528 170.654 29.4985 170.654 29.2188C170.654 28.9391 170.402 28.6848 170.124 28.6848Z" fill="black"/>
<path d="M62.4258 33.4149C62.4258 41.3998 55.9837 47.8844 48.051 47.8844C40.1183 47.8844 33.6761 41.3998 33.6761 33.4149C33.6761 25.4299 40.1183 18.9453 48.051 18.9453C55.9837 18.9453 62.4258 25.4299 62.4258 33.4149Z" fill="#77DD00"/>
<path d="M48.051 48.1386C39.992 48.1386 33.4235 41.5269 33.4235 33.4148C33.4235 25.3027 39.992 18.6909 48.051 18.6909C56.11 18.6909 62.6785 25.3027 62.6785 33.4148C62.6785 41.5269 56.11 48.1386 48.051 48.1386ZM48.051 19.1995C40.2698 19.1995 33.9287 25.5824 33.9287 33.4148C33.9287 41.2472 40.2698 47.63 48.051 47.63C55.8321 47.63 62.1732 41.2472 62.1732 33.4148C62.1732 25.5824 55.8321 19.1995 48.051 19.1995Z" fill="black"/>
<path d="M54.2405 27.2861H41.8614C40.6488 27.2861 39.6382 28.2779 39.6382 29.524V37.3309C39.6382 38.5515 40.6235 39.5687 41.8614 39.5687H54.2405C55.4531 39.5687 56.4637 38.577 56.4637 37.3309V29.524C56.4637 28.3033 55.4784 27.2861 54.2405 27.2861ZM50.0468 33.9487L46.6109 35.678C46.2067 35.8814 45.752 35.5762 45.752 35.1439V31.6855C45.752 31.2278 46.232 30.948 46.6109 31.1515L50.0468 32.8807C50.4762 33.1096 50.4762 33.7453 50.0468 33.9487Z" fill="white"/>
<path d="M54.2405 39.7975H41.8614C40.4972 39.7975 39.4109 38.6785 39.4109 37.3308V29.5238C39.4109 28.1506 40.5225 27.0571 41.8614 27.0571H54.2405C55.6047 27.0571 56.6911 28.176 56.6911 29.5238V37.3308C56.6911 38.704 55.5795 39.7975 54.2405 39.7975ZM41.8614 27.5403C40.7751 27.5403 39.8909 28.4303 39.8909 29.5238V37.3308C39.8909 38.4242 40.7751 39.3143 41.8614 39.3143H54.2405C55.3268 39.3143 56.2111 38.4242 56.2111 37.3308V29.5238C56.2111 28.4303 55.3268 27.5403 54.2405 27.5403H41.8614ZM46.3331 36.0084C46.1815 36.0084 46.0299 35.9576 45.8783 35.8813C45.6257 35.7287 45.4741 35.449 45.4741 35.1692V31.7108C45.4741 31.4056 45.6257 31.1513 45.8783 30.9987C46.131 30.8462 46.4341 30.8207 46.6867 30.9479L50.1226 32.6771C50.4005 32.8297 50.5773 33.1094 50.5773 33.44C50.5773 33.7706 50.4005 34.0503 50.1226 34.2029L46.6867 35.9321C46.6867 35.9321 46.4341 36.0338 46.3078 36.0338L46.3331 36.0084ZM46.3331 31.3293C46.3331 31.3293 46.2067 31.3293 46.1562 31.3802C46.0552 31.4565 45.9794 31.5582 45.9794 31.6854V35.1438C45.9794 35.1438 46.0299 35.3727 46.1562 35.449C46.2573 35.4998 46.3836 35.5253 46.5099 35.449L49.9457 33.7197C49.9457 33.7197 50.1478 33.5417 50.1478 33.3891C50.1478 33.2366 50.072 33.1349 49.9457 33.0586L46.5099 31.3293C46.5099 31.3293 46.4089 31.3039 46.3583 31.3039L46.3331 31.3293Z" fill="black"/>
<path d="M57.5248 68.6348H153.475C159.665 68.6348 164.692 73.6953 164.692 79.9256V129.997C164.692 136.227 159.665 141.313 153.45 141.313H57.5248C51.3353 141.313 46.3079 136.253 46.3079 130.022V79.951C46.3079 73.7207 51.3353 68.6348 57.5501 68.6348H57.5248Z" fill="#FFC800"/>
<path d="M153.475 142H57.5248C50.9563 142 45.6005 136.609 45.6005 129.997V79.9257C45.6005 73.314 50.9563 67.9229 57.5248 67.9229H153.475C160.044 67.9229 165.4 73.314 165.4 79.9257V129.997C165.4 136.609 160.044 142 153.475 142ZM57.5248 69.3469C51.7142 69.3469 46.99 74.1023 46.99 79.9512V130.022C46.99 135.871 51.7142 140.627 57.5248 140.627H153.475C159.286 140.627 164.01 135.871 164.01 130.022V79.9512C164.01 74.1023 159.286 69.3469 153.475 69.3469H57.5248Z" fill="black"/>
<path d="M132.961 68.635H78.0387L86.1735 46.918H124.827L132.961 68.635Z" fill="#FFC800"/>
<path d="M132.961 69.3471H78.0134C77.7861 69.3471 77.5587 69.2454 77.4324 69.042C77.3061 68.8385 77.2808 68.6097 77.3566 68.4062L85.4914 46.6892C85.5925 46.4095 85.8451 46.2314 86.1483 46.2314H124.801C125.079 46.2314 125.357 46.4095 125.458 46.6892L133.593 68.4062C133.669 68.6097 133.643 68.864 133.517 69.042C133.391 69.22 133.163 69.3471 132.936 69.3471H132.961ZM79.024 67.9485H131.951L124.347 47.6301H86.6535L79.0492 67.9485H79.024Z" fill="black"/>
<path d="M123.361 63.0656H87.6388L91.9083 52.4868H119.092L123.361 63.0656Z" fill="#8ED2F4"/>
<path d="M123.361 63.7778H87.6388C87.4114 63.7778 87.1841 63.6506 87.0578 63.4726C86.9314 63.2946 86.9062 63.0403 86.982 62.8114L91.2767 52.2072C91.3778 51.9529 91.6304 51.7749 91.9336 51.7749H119.092C119.37 51.7749 119.622 51.9529 119.749 52.2072L124.018 62.8114C124.094 63.0149 124.069 63.2692 123.942 63.4726C123.816 63.676 123.589 63.7778 123.361 63.7778ZM88.6746 62.3791H122.325L118.612 53.199H92.3883L88.6746 62.3791Z" fill="black"/>
<path d="M135.538 104.974C135.538 121.682 122.098 135.21 105.5 135.21C88.902 135.21 75.4619 121.682 75.4619 104.974C75.4619 88.2669 88.902 74.7383 105.5 74.7383C122.098 74.7383 135.538 88.2669 135.538 104.974Z" fill="#FF6400"/>
<path d="M105.5 135.897C88.5483 135.897 74.7545 122.012 74.7545 104.949C74.7545 87.8856 88.5483 74.001 105.5 74.001C122.452 74.001 136.22 87.8856 136.22 104.949C136.22 122.012 122.427 135.897 105.5 135.897ZM105.5 75.425C89.3314 75.425 76.1692 88.674 76.1692 104.949C76.1692 121.224 89.3314 134.473 105.5 134.473C121.669 134.473 134.831 121.224 134.831 104.949C134.831 88.674 121.669 75.425 105.5 75.425Z" fill="black"/>
<path d="M125.509 104.974C125.509 116.087 116.565 125.115 105.5 125.115C94.4346 125.115 85.4914 116.113 85.4914 104.974C85.4914 93.8361 94.4346 84.834 105.5 84.834C116.565 84.834 125.509 93.8616 125.509 104.974Z" fill="#8ED2F4"/>
<path d="M105.5 125.801C94.0809 125.801 84.8093 116.469 84.8093 104.974C84.8093 93.4802 94.1062 84.1475 105.5 84.1475C116.894 84.1475 126.191 93.5056 126.191 104.974C126.191 116.443 116.919 125.801 105.5 125.801ZM105.5 85.5461C94.8641 85.5461 86.1988 94.2685 86.1988 104.974C86.1988 115.68 94.8641 124.403 105.5 124.403C116.136 124.403 124.801 115.68 124.801 104.974C124.801 94.2685 116.136 85.5461 105.5 85.5461Z" fill="black"/>
<path d="M72.7839 80.9429C72.7839 82.8755 71.2429 84.4268 69.3229 84.4268H58.5606C56.6406 84.4268 55.0995 82.8755 55.0995 80.9429C55.0995 79.0102 56.6406 77.459 58.5606 77.459H69.3229C71.2429 77.459 72.7839 79.0102 72.7839 80.9429Z" fill="#FF6400"/>
<path d="M69.3228 85.1389H58.5606C56.2616 85.1389 54.3922 83.2571 54.3922 80.943C54.3922 78.6289 56.2616 76.7471 58.5606 76.7471H69.3228C71.6218 76.7471 73.4913 78.6289 73.4913 80.943C73.4913 83.2571 71.6218 85.1389 69.3228 85.1389ZM58.5606 78.1711C57.0448 78.1711 55.7816 79.4172 55.7816 80.9684C55.7816 82.5196 57.0195 83.7657 58.5606 83.7657H69.3228C70.8386 83.7657 72.1018 82.5196 72.1018 80.9684C72.1018 79.4172 70.8639 78.1711 69.3228 78.1711H58.5606Z" fill="black"/>
<path d="M153.147 62.0996H140.136V68.6351H153.147V62.0996Z" fill="#FF6400"/>
<path d="M153.147 69.3472H140.136C139.757 69.3472 139.429 69.0421 139.429 68.6352V62.0997C139.429 61.7183 139.732 61.3877 140.136 61.3877H153.147C153.526 61.3877 153.854 61.6929 153.854 62.0997V68.6352C153.854 69.0166 153.551 69.3472 153.147 69.3472ZM140.818 67.9486H152.439V62.8372H140.818V67.9486Z" fill="black"/>
</g>
<defs>
<clipPath id="clip0_526_500">
<rect width="211" height="142" fill="white"/>
</clipPath>
</defs>
</svg>
