<svg width="165" height="126" viewBox="0 0 165 126" fill="none" xmlns="http://www.w3.org/2000/svg">
<g clip-path="url(#clip0_148_137)">
<path d="M42.9573 60.5336C38.011 60.5336 33.985 56.5182 33.985 51.5847C33.985 46.6512 38.011 42.6357 42.9573 42.6357C47.9037 42.6357 51.9296 46.6512 51.9296 51.5847C51.9296 56.5182 47.9037 60.5336 42.9573 60.5336ZM42.9573 45.0815C39.367 45.0815 36.4442 47.9967 36.4442 51.5777C36.4442 55.1587 39.367 58.0739 42.9573 58.0739C46.5476 58.0739 49.4705 55.1587 49.4705 51.5777C49.4705 47.9967 46.5476 45.0815 42.9573 45.0815Z" fill="#4C86C6"/>
<path d="M42.9573 61.0594C37.7159 61.0594 33.4581 56.8057 33.4581 51.5849C33.4581 46.3641 37.7229 42.1104 42.9573 42.1104C48.1917 42.1104 52.4566 46.3641 52.4566 51.5849C52.4566 56.8057 48.1917 61.0594 42.9573 61.0594ZM42.9573 43.1545C38.2991 43.1545 34.512 46.9317 34.512 51.5779C34.512 56.224 38.2991 60.0012 42.9573 60.0012C47.6156 60.0012 51.4027 56.224 51.4027 51.5779C51.4027 46.9317 47.6156 43.1545 42.9573 43.1545ZM42.9573 58.6067C39.0719 58.6067 35.9172 55.4532 35.9172 51.5849C35.9172 47.7166 39.0789 44.5631 42.9573 44.5631C46.8357 44.5631 49.9974 47.7166 49.9974 51.5849C49.9974 55.4532 46.8357 58.6067 42.9573 58.6067ZM42.9573 45.6072C39.6551 45.6072 36.9711 48.2842 36.9711 51.5779C36.9711 54.8715 39.6551 57.5485 42.9573 57.5485C46.2596 57.5485 48.9435 54.8715 48.9435 51.5779C48.9435 48.2842 46.2596 45.6072 42.9573 45.6072Z" fill="#4C86C6"/>
<path d="M59.9463 78.2777C59.2648 78.2777 58.7168 77.7311 58.7168 77.0514C58.7168 71.2139 55.5621 65.9651 50.4471 63.211C45.8029 65.5166 40.0837 65.5095 35.4816 63.211C30.3596 65.958 27.1979 71.1999 27.1979 77.0514C27.1979 77.7311 26.6498 78.2777 25.9683 78.2777C25.2868 78.2777 24.7388 77.7311 24.7388 77.0514C24.7388 70.0506 28.6523 63.7996 34.9476 60.7232C35.306 60.548 35.7275 60.555 36.0788 60.7513C38.1726 61.9005 40.5474 62.5102 42.9644 62.5102C45.3813 62.5102 47.721 61.9216 49.8499 60.7513C50.2012 60.5621 50.6228 60.548 50.9811 60.7232C57.2694 63.8067 61.1759 70.0646 61.1759 77.0444C61.1759 77.7241 60.6279 78.2707 59.9463 78.2707V78.2777Z" fill="#4C86C6"/>
<path d="M59.9463 78.8029C58.9767 78.8029 58.1898 78.018 58.1898 77.0509C58.1898 71.5428 55.2248 66.4902 50.426 63.7992C45.7818 66.0066 40.1118 66.0066 35.4886 63.7992C30.6898 66.4762 27.7178 71.5288 27.7178 77.0509C27.7178 78.018 26.9309 78.8029 25.9613 78.8029C24.9917 78.8029 24.2048 78.018 24.2048 77.0509C24.2048 69.8469 28.2307 63.4138 34.7087 60.2532C35.2216 60.001 35.8259 60.015 36.3318 60.2953C38.3412 61.4025 40.6387 61.9842 42.9644 61.9842C45.29 61.9842 47.5453 61.4165 49.597 60.2883C50.0958 60.015 50.7071 60.001 51.22 60.2532C57.691 63.4278 61.7099 69.8609 61.7099 77.0509C61.7099 78.018 60.923 78.8029 59.9534 78.8029H59.9463ZM50.4471 62.6849C50.5314 62.6849 50.6228 62.706 50.7 62.748C55.9766 65.5862 59.2508 71.0663 59.2508 77.0509C59.2508 77.4363 59.5669 77.7517 59.9534 77.7517C60.3398 77.7517 60.656 77.4363 60.656 77.0509C60.656 70.2674 56.8619 64.1916 50.7563 61.1993C50.5525 61.1012 50.3066 61.1012 50.1099 61.2133C47.8966 62.4257 45.4937 63.0353 42.9714 63.0353C40.449 63.0353 38.004 62.4046 35.8329 61.2133C35.6291 61.1012 35.3903 61.0942 35.1865 61.1993C29.0738 64.1776 25.2727 70.2534 25.2727 77.0509C25.2727 77.4363 25.5889 77.7517 25.9753 77.7517C26.3618 77.7517 26.6779 77.4363 26.6779 77.0509C26.6779 71.0522 29.9591 65.5722 35.2357 62.748C35.3832 62.6639 35.5659 62.6639 35.7205 62.741C40.182 64.9625 45.7396 64.9625 50.2152 62.741C50.2925 62.706 50.3698 62.6849 50.4471 62.6849Z" fill="#4C86C6"/>
<path d="M42.9573 107.724C38.011 107.724 33.985 103.709 33.985 98.7751C33.985 93.8416 38.011 89.8262 42.9573 89.8262C47.9037 89.8262 51.9296 93.8416 51.9296 98.7751C51.9296 103.709 47.9037 107.724 42.9573 107.724ZM42.9573 92.2719C39.367 92.2719 36.4442 95.1871 36.4442 98.7681C36.4442 102.349 39.367 105.264 42.9573 105.264C46.5476 105.264 49.4705 102.349 49.4705 98.7681C49.4705 95.1871 46.5476 92.2719 42.9573 92.2719Z" fill="#4C86C6"/>
<path d="M42.9573 108.25C37.7159 108.25 33.4581 103.996 33.4581 98.7753C33.4581 93.5545 37.7229 89.3008 42.9573 89.3008C48.1917 89.3008 52.4566 93.5545 52.4566 98.7753C52.4566 103.996 48.1917 108.25 42.9573 108.25ZM42.9573 90.3449C38.2991 90.3449 34.512 94.1221 34.512 98.7683C34.512 103.414 38.2991 107.192 42.9573 107.192C47.6156 107.192 51.4027 103.414 51.4027 98.7683C51.4027 94.1221 47.6156 90.3449 42.9573 90.3449ZM42.9573 105.797C39.0719 105.797 35.9172 102.644 35.9172 98.7753C35.9172 94.907 39.0789 91.7535 42.9573 91.7535C46.8357 91.7535 49.9974 94.907 49.9974 98.7753C49.9974 102.644 46.8357 105.797 42.9573 105.797ZM42.9573 92.7977C39.6551 92.7977 36.9711 95.4746 36.9711 98.7683C36.9711 102.062 39.6551 104.739 42.9573 104.739C46.2596 104.739 48.9435 102.062 48.9435 98.7683C48.9435 95.4746 46.2596 92.7977 42.9573 92.7977Z" fill="#4C86C6"/>
<path d="M59.9463 125.474C59.2648 125.474 58.7168 124.928 58.7168 124.248C58.7168 118.411 55.5621 113.162 50.4471 110.408C45.8099 112.713 40.0837 112.699 35.4816 110.408C30.3596 113.148 27.1979 118.397 27.1979 124.248C27.1979 124.928 26.6498 125.474 25.9683 125.474C25.2868 125.474 24.7388 124.928 24.7388 124.248C24.7388 117.247 28.6523 110.989 34.9476 107.92C35.306 107.745 35.7275 107.759 36.0788 107.948C38.1656 109.097 40.5474 109.707 42.9644 109.707C45.3813 109.707 47.721 109.118 49.8499 107.948C50.2012 107.759 50.6228 107.745 50.9811 107.92C57.2694 111.003 61.1759 117.261 61.1759 124.241C61.1759 124.921 60.6279 125.467 59.9463 125.467V125.474Z" fill="#4C86C6"/>
<path d="M59.9463 126C58.9767 126 58.1898 125.215 58.1898 124.248C58.1898 118.74 55.2248 113.688 50.426 110.997C45.7818 113.204 40.1118 113.204 35.4886 110.997C30.6898 113.674 27.7178 118.726 27.7178 124.248C27.7178 125.215 26.9309 126 25.9613 126C24.9917 126 24.2048 125.215 24.2048 124.248C24.2048 117.044 28.2307 110.611 34.7087 107.451C35.2216 107.198 35.8259 107.212 36.3247 107.493C38.3412 108.6 40.6317 109.189 42.9573 109.189C45.283 109.189 47.5383 108.621 49.5899 107.493C50.0888 107.219 50.7 107.205 51.2129 107.458C57.684 110.632 61.7029 117.065 61.7029 124.255C61.7029 125.222 60.9159 126.007 59.9463 126.007V126ZM50.4471 109.882C50.5314 109.882 50.6228 109.903 50.7001 109.946C55.9766 112.784 59.2508 118.264 59.2508 124.248C59.2508 124.634 59.5669 124.949 59.9534 124.949C60.3398 124.949 60.656 124.634 60.656 124.248C60.656 117.465 56.8619 111.389 50.7563 108.397C50.5525 108.299 50.3066 108.299 50.1099 108.411C47.8966 109.623 45.4937 110.233 42.9714 110.233C40.449 110.233 38.004 109.602 35.8329 108.411C35.6362 108.299 35.3903 108.299 35.1865 108.397C29.0738 111.375 25.2727 117.451 25.2727 124.248C25.2727 124.634 25.5889 124.949 25.9753 124.949C26.3618 124.949 26.6779 124.634 26.6779 124.248C26.6779 118.25 29.9591 112.77 35.2357 109.946C35.3832 109.861 35.5659 109.861 35.7205 109.946C40.182 112.167 45.7396 112.167 50.2153 109.946C50.2925 109.91 50.3698 109.889 50.4471 109.889V109.882Z" fill="#4C86C6"/>
<path d="M85.9849 60.5336C81.0386 60.5336 77.0126 56.5182 77.0126 51.5847C77.0126 46.6512 81.0386 42.6357 85.9849 42.6357C90.9313 42.6357 94.9572 46.6512 94.9572 51.5847C94.9572 56.5182 90.9313 60.5336 85.9849 60.5336ZM85.9849 45.0815C82.3946 45.0815 79.4718 47.9967 79.4718 51.5777C79.4718 55.1587 82.3946 58.0739 85.9849 58.0739C89.5752 58.0739 92.4981 55.1587 92.4981 51.5777C92.4981 47.9967 89.5752 45.0815 85.9849 45.0815Z" fill="#4C86C6"/>
<path d="M85.9849 61.0594C80.7435 61.0594 76.4857 56.8057 76.4857 51.5849C76.4857 46.3641 80.7505 42.1104 85.9849 42.1104C91.2193 42.1104 95.4841 46.3641 95.4841 51.5849C95.4841 56.8057 91.2193 61.0594 85.9849 61.0594ZM85.9849 43.1545C81.3266 43.1545 77.5396 46.9317 77.5396 51.5779C77.5396 56.224 81.3266 60.0012 85.9849 60.0012C90.6432 60.0012 94.4302 56.224 94.4302 51.5779C94.4302 46.9317 90.6432 43.1545 85.9849 43.1545ZM85.9849 58.6067C82.0995 58.6067 78.9448 55.4532 78.9448 51.5849C78.9448 47.7166 82.1065 44.5631 85.9849 44.5631C89.8633 44.5631 93.025 47.7166 93.025 51.5849C93.025 55.4532 89.8633 58.6067 85.9849 58.6067ZM85.9849 45.6072C82.6827 45.6072 79.9987 48.2842 79.9987 51.5779C79.9987 54.8715 82.6827 57.5485 85.9849 57.5485C89.2872 57.5485 91.9711 54.8715 91.9711 51.5779C91.9711 48.2842 89.2872 45.6072 85.9849 45.6072Z" fill="#4C86C6"/>
<path d="M102.974 78.2777C102.292 78.2777 101.744 77.7311 101.744 77.0514C101.744 71.2139 98.5897 65.9651 93.4747 63.211C88.8305 65.5166 83.1113 65.5025 78.5092 63.211C73.3872 65.958 70.2255 71.2069 70.2255 77.0514C70.2255 77.7311 69.6774 78.2777 68.9959 78.2777C68.3144 78.2777 67.7664 77.7311 67.7664 77.0514C67.7664 70.0506 71.6799 63.7996 77.9752 60.7232C78.3336 60.548 78.7551 60.555 79.1064 60.7513C81.1932 61.9005 83.575 62.5102 85.992 62.5102C88.4089 62.5102 90.7486 61.9216 92.8775 60.7513C93.2288 60.5621 93.6504 60.548 94.0087 60.7232C100.297 63.8067 104.204 70.0646 104.204 77.0444C104.204 77.7241 103.655 78.2707 102.974 78.2707V78.2777Z" fill="#4C86C6"/>
<path d="M102.974 78.8029C102.004 78.8029 101.217 78.018 101.217 77.0509C101.217 71.5428 98.2524 66.4902 93.4536 63.7992C88.8094 66.0066 83.1394 66.0066 78.5162 63.7992C73.7174 66.4762 70.7454 71.5288 70.7454 77.0509C70.7454 78.018 69.9585 78.8029 68.9889 78.8029C68.0193 78.8029 67.2324 78.018 67.2324 77.0509C67.2324 69.8469 71.2583 63.4138 77.7363 60.2532C78.2492 60.001 78.8535 60.015 79.3594 60.2953C81.3688 61.4025 83.6663 61.9842 85.9849 61.9842C88.3035 61.9842 90.5659 61.4165 92.6175 60.2883C93.1164 60.015 93.7277 60.001 94.2406 60.2532C100.712 63.4278 104.73 69.8609 104.73 77.0509C104.73 78.018 103.944 78.8029 102.974 78.8029ZM93.4677 62.6849C93.552 62.6849 93.6433 62.706 93.7206 62.748C98.9972 65.5862 102.271 71.0663 102.271 77.0509C102.271 77.4363 102.588 77.7517 102.974 77.7517C103.36 77.7517 103.677 77.4363 103.677 77.0509C103.677 70.2674 99.8825 64.1916 93.7768 61.1993C93.5731 61.0942 93.3272 61.1012 93.1304 61.2133C90.9172 62.4257 88.5143 63.0353 85.992 63.0353C83.4696 63.0353 81.0245 62.4046 78.8535 61.2133C78.6497 61.1012 78.4108 61.0942 78.2071 61.1993C72.0944 64.1776 68.2933 70.2534 68.2933 77.0509C68.2933 77.4363 68.6095 77.7517 68.9959 77.7517C69.3823 77.7517 69.6985 77.4363 69.6985 77.0509C69.6985 71.0522 72.9797 65.5722 78.2563 62.748C78.4038 62.6639 78.5865 62.6639 78.7411 62.741C83.2026 64.9625 88.7532 64.9695 93.2358 62.741C93.3061 62.706 93.3904 62.6849 93.4677 62.6849Z" fill="#4C86C6"/>
<path d="M85.9849 107.724C81.0386 107.724 77.0126 103.709 77.0126 98.7751C77.0126 93.8416 81.0386 89.8262 85.9849 89.8262C90.9313 89.8262 94.9572 93.8416 94.9572 98.7751C94.9572 103.709 90.9313 107.724 85.9849 107.724ZM85.9849 92.2719C82.3946 92.2719 79.4718 95.1871 79.4718 98.7681C79.4718 102.349 82.3946 105.264 85.9849 105.264C89.5752 105.264 92.4981 102.349 92.4981 98.7681C92.4981 95.1871 89.5752 92.2719 85.9849 92.2719Z" fill="#4C86C6"/>
<path d="M85.9849 108.25C80.7435 108.25 76.4857 103.996 76.4857 98.7753C76.4857 93.5545 80.7505 89.3008 85.9849 89.3008C91.2193 89.3008 95.4841 93.5545 95.4841 98.7753C95.4841 103.996 91.2193 108.25 85.9849 108.25ZM85.9849 90.3449C81.3266 90.3449 77.5396 94.1221 77.5396 98.7683C77.5396 103.414 81.3266 107.192 85.9849 107.192C90.6432 107.192 94.4302 103.414 94.4302 98.7683C94.4302 94.1221 90.6432 90.3449 85.9849 90.3449ZM85.9849 105.797C82.0995 105.797 78.9448 102.644 78.9448 98.7753C78.9448 94.907 82.1065 91.7535 85.9849 91.7535C89.8633 91.7535 93.025 94.907 93.025 98.7753C93.025 102.644 89.8633 105.797 85.9849 105.797ZM85.9849 92.7977C82.6827 92.7977 79.9987 95.4746 79.9987 98.7683C79.9987 102.062 82.6827 104.739 85.9849 104.739C89.2872 104.739 91.9711 102.062 91.9711 98.7683C91.9711 95.4746 89.2872 92.7977 85.9849 92.7977Z" fill="#4C86C6"/>
<path d="M102.974 125.474C102.292 125.474 101.744 124.928 101.744 124.248C101.744 118.411 98.5897 113.162 93.4747 110.408C88.8375 112.713 83.1113 112.699 78.5092 110.408C73.3872 113.148 70.2255 118.397 70.2255 124.248C70.2255 124.928 69.6774 125.474 68.9959 125.474C68.3144 125.474 67.7664 124.928 67.7664 124.248C67.7664 117.247 71.6799 110.989 77.9752 107.92C78.3336 107.745 78.7551 107.759 79.1064 107.948C81.1932 109.097 83.575 109.707 85.992 109.707C88.4089 109.707 90.7486 109.118 92.8775 107.948C93.2288 107.759 93.6504 107.745 94.0087 107.92C100.297 111.003 104.204 117.261 104.204 124.241C104.204 124.921 103.655 125.467 102.974 125.467V125.474Z" fill="#4C86C6"/>
<path d="M102.974 126C102.004 126 101.217 125.215 101.217 124.248C101.217 118.74 98.2524 113.687 93.4536 110.996C88.8094 113.204 83.1394 113.204 78.5162 110.996C73.7174 113.673 70.7454 118.726 70.7454 124.248C70.7454 125.215 69.9585 126 68.9889 126C68.0193 126 67.2324 125.215 67.2324 124.248C67.2324 117.044 71.2583 110.611 77.7363 107.45C78.2492 107.198 78.8535 107.219 79.3523 107.492C81.3618 108.599 83.6593 109.188 85.9849 109.188C88.3106 109.188 90.5659 108.621 92.6175 107.492C93.1234 107.219 93.7277 107.205 94.2406 107.457C100.712 110.632 104.73 117.065 104.73 124.255C104.73 125.222 103.944 126.007 102.974 126.007V126ZM93.4677 109.882C93.552 109.882 93.6433 109.903 93.7206 109.945C98.9972 112.783 102.271 118.263 102.271 124.248C102.271 124.633 102.588 124.949 102.974 124.949C103.36 124.949 103.677 124.633 103.677 124.248C103.677 117.464 99.8825 111.389 93.7768 108.396C93.5731 108.298 93.3272 108.298 93.1304 108.41C90.9172 109.623 88.5143 110.232 85.992 110.232C83.4696 110.232 81.0175 109.602 78.8535 108.41C78.6568 108.298 78.4108 108.298 78.2071 108.396C72.0944 111.375 68.2933 117.45 68.2933 124.248C68.2933 124.633 68.6095 124.949 68.9959 124.949C69.3823 124.949 69.6985 124.633 69.6985 124.248C69.6985 118.249 72.9797 112.769 78.2563 109.945C78.4038 109.861 78.5865 109.861 78.7411 109.945C83.2026 112.166 88.7602 112.166 93.2358 109.945C93.3131 109.91 93.3904 109.889 93.4677 109.889V109.882Z" fill="#4C86C6"/>
<path d="M127.186 125.467H102.981C102.299 125.467 101.751 124.921 101.751 124.241C101.751 123.561 102.299 123.014 102.981 123.014H125.696L117.005 78.2838H11.4946L3.23902 123.014H25.9683C26.6499 123.014 27.1979 123.561 27.1979 124.241C27.1979 124.921 26.6499 125.467 25.9683 125.467H1.75652C1.39117 125.467 1.04689 125.306 0.815031 125.026C0.583171 124.745 0.484806 124.374 0.54804 124.017L9.26035 76.8332C9.36575 76.2515 9.87865 75.8311 10.4688 75.8311H118.017C118.607 75.8311 119.113 76.2445 119.225 76.8262L128.394 124.01C128.464 124.367 128.366 124.738 128.134 125.026C127.902 125.306 127.551 125.474 127.186 125.474V125.467Z" fill="#4C86C6"/>
<path d="M127.186 125.993H102.981C102.011 125.993 101.225 125.208 101.225 124.241C101.225 123.274 102.011 122.489 102.981 122.489H125.057L116.569 78.8096H11.9303L3.86438 122.489H25.9613C26.9309 122.489 27.7179 123.274 27.7179 124.241C27.7179 125.208 26.9309 125.993 25.9613 125.993H1.75656C1.23663 125.993 0.744805 125.762 0.407554 125.362C0.0703027 124.963 -0.0631924 124.437 0.0281463 123.926L8.74046 76.7423C8.89503 75.9083 9.61872 75.3057 10.4689 75.3057H118.017C118.86 75.3057 119.584 75.9013 119.738 76.7212L128.907 123.905C129.006 124.423 128.872 124.949 128.535 125.355C128.198 125.762 127.706 125.993 127.179 125.993H127.186ZM102.974 123.54C102.588 123.54 102.271 123.856 102.271 124.241C102.271 124.626 102.588 124.942 102.974 124.942H127.179C127.39 124.942 127.586 124.851 127.72 124.69C127.853 124.528 127.909 124.318 127.867 124.108L118.698 76.9245C118.635 76.5951 118.347 76.3568 118.01 76.3568H10.4689C10.1316 76.3568 9.83653 76.5951 9.78032 76.9315L1.068 124.115C1.03287 124.318 1.08206 124.528 1.21555 124.69C1.34905 124.851 1.54578 124.942 1.75656 124.942H25.9613C26.3478 124.942 26.6639 124.626 26.6639 124.241C26.6639 123.856 26.3478 123.54 25.9613 123.54H3.23203C3.07746 123.54 2.92991 123.47 2.82452 123.351C2.72615 123.232 2.684 123.071 2.7121 122.917L10.9677 78.1859C11.0169 77.9336 11.2347 77.7584 11.4877 77.7584H116.998C117.251 77.7584 117.469 77.9336 117.518 78.1859L126.209 122.917C126.237 123.071 126.195 123.232 126.097 123.351C125.998 123.47 125.851 123.54 125.689 123.54H102.974Z" fill="#4C86C6"/>
<path d="M68.9959 125.467H59.9393C59.2578 125.467 58.7098 124.921 58.7098 124.241C58.7098 123.561 59.2578 123.015 59.9393 123.015H68.9959C69.6774 123.015 70.2255 123.561 70.2255 124.241C70.2255 124.921 69.6774 125.467 68.9959 125.467Z" fill="#4C86C6"/>
<path d="M68.9959 125.993H59.9393C58.9697 125.993 58.1828 125.208 58.1828 124.241C58.1828 123.274 58.9697 122.489 59.9393 122.489H68.9959C69.9655 122.489 70.7524 123.274 70.7524 124.241C70.7524 125.208 69.9655 125.993 68.9959 125.993ZM59.9463 123.54C59.5599 123.54 59.2437 123.856 59.2437 124.241C59.2437 124.627 59.5599 124.942 59.9463 124.942H69.0029C69.3894 124.942 69.7055 124.627 69.7055 124.241C69.7055 123.856 69.3894 123.54 69.0029 123.54H59.9463Z" fill="#4C86C6"/>
<path d="M110.33 64.0937C110.07 64.0937 109.81 64.0096 109.6 63.8484C109.241 63.5821 109.059 63.1476 109.115 62.7062L111.145 46.8195C109.29 44.2266 107.885 41.3534 106.958 38.291C102.285 22.8248 111.096 6.44063 126.61 1.78046C134.12 -0.476051 142.067 0.315829 148.981 4.01594C155.894 7.71605 160.946 13.8829 163.215 21.3742C165.478 28.8656 164.684 36.7914 160.974 43.687C157.264 50.5827 151.081 55.6213 143.571 57.8848C137.57 59.6858 131.31 59.5527 125.429 57.4994L110.843 63.9746C110.682 64.0446 110.513 64.0797 110.344 64.0797L110.33 64.0937ZM135.118 2.97879C132.511 2.97879 129.884 3.36422 127.312 4.13507C113.098 8.40982 105.026 23.4135 109.304 37.5902C110.197 40.5475 111.581 43.3016 113.408 45.7753C113.597 46.0276 113.675 46.343 113.64 46.6583L111.827 60.8631L124.867 55.0747C125.162 54.9485 125.492 54.9345 125.795 55.0466C131.31 57.0719 137.212 57.2541 142.854 55.5582C157.068 51.2835 165.141 36.2798 160.862 22.103C158.789 15.2354 154.159 9.58713 147.821 6.19536C143.852 4.072 139.509 2.9858 135.125 2.9858L135.118 2.97879Z" fill="#4C86C6"/>
<path d="M110.33 64.619C109.958 64.619 109.585 64.4929 109.283 64.2756C108.777 63.8972 108.51 63.2735 108.588 62.6498L110.59 46.9664C108.763 44.3665 107.372 41.5073 106.452 38.4519C101.695 22.7054 110.667 6.0339 126.455 1.28262C134.099 -1.01593 142.193 -0.210036 149.226 3.56015C156.267 7.33034 161.41 13.6023 163.714 21.2338C166.019 28.8583 165.211 36.9312 161.431 43.946C157.651 50.9608 151.362 56.0975 143.711 58.3961C137.683 60.2041 131.366 60.092 125.436 58.0737L111.04 64.4648C110.815 64.5629 110.569 64.619 110.323 64.619H110.33ZM135.118 1.05137C132.322 1.05137 129.511 1.45782 126.757 2.29174C111.525 6.86783 102.869 22.9577 107.457 38.1506C108.363 41.1569 109.747 43.9811 111.567 46.5249C111.644 46.63 111.679 46.7632 111.658 46.8963L109.628 62.783C109.6 63.0352 109.705 63.2805 109.909 63.4347C110.112 63.5818 110.379 63.6169 110.611 63.5118L125.197 57.0366C125.317 56.9805 125.457 56.9735 125.584 57.0226C131.352 59.0408 137.521 59.1669 143.402 57.401C150.779 55.1795 156.85 50.232 160.496 43.4625C164.143 36.693 164.923 28.9073 162.702 21.5491C160.475 14.191 155.515 8.13624 148.728 4.4992C144.47 2.22167 139.819 1.06538 135.118 1.06538V1.05137ZM111.827 61.3884C111.714 61.3884 111.602 61.3534 111.511 61.2833C111.356 61.1712 111.279 60.982 111.3 60.7927L113.113 46.588C113.134 46.4058 113.091 46.2306 112.979 46.0834C111.117 43.5606 109.705 40.7575 108.799 37.7371C106.684 30.7504 107.435 23.3431 110.906 16.896C114.377 10.4488 120.153 5.73257 127.158 3.63023C129.757 2.85237 132.434 2.45292 135.111 2.45292C139.587 2.45292 144.062 3.58118 148.06 5.71855C154.517 9.17339 159.239 14.9338 161.353 21.9416C163.468 28.9283 162.717 36.3356 159.246 42.7827C155.775 49.2299 149.999 53.9461 142.994 56.0485C137.24 57.7794 131.226 57.5972 125.605 55.5299C125.429 55.4668 125.247 55.4738 125.078 55.5509L112.038 61.3394C111.967 61.3674 111.897 61.3814 111.827 61.3814V61.3884ZM135.118 3.50409C132.54 3.50409 129.968 3.88251 127.467 4.63935C120.729 6.6646 115.178 11.1986 111.841 17.4005C108.503 23.6024 107.78 30.7223 109.81 37.4428C110.689 40.344 112.038 43.042 113.829 45.4667C114.096 45.8311 114.216 46.2796 114.159 46.7281L112.466 60.0079L124.649 54.5979C125.071 54.4087 125.542 54.3946 125.97 54.5558C131.38 56.546 137.163 56.7212 142.692 55.0534C149.43 53.0281 154.981 48.4941 158.318 42.2922C161.656 36.0903 162.379 28.9704 160.349 22.2499C158.311 15.5154 153.772 9.97929 147.561 6.65059C143.718 4.59731 139.418 3.50409 135.111 3.50409H135.118Z" fill="#4C86C6"/>
<path d="M141.399 42.5936C141.168 42.5936 140.936 42.5305 140.725 42.3903L123.588 31.1849C123.019 30.8135 122.865 30.0566 123.237 29.489C123.609 28.9214 124.368 28.7672 124.937 29.1386L142.074 40.3441C142.643 40.7155 142.798 41.4723 142.425 42.04C142.186 42.3974 141.793 42.5936 141.392 42.5936H141.399Z" fill="#4C86C6"/>
<path d="M124.263 31.3877C123.862 31.3877 123.469 31.1915 123.23 30.8341C122.858 30.2664 123.019 29.5096 123.581 29.1382L140.718 17.9327C141.287 17.5613 142.046 17.7225 142.418 18.2831C142.791 18.8507 142.629 19.6076 142.067 19.979L124.93 31.1845C124.72 31.3176 124.488 31.3877 124.256 31.3877H124.263Z" fill="#4C86C6"/>
<path d="M124.263 36.3771C120.827 36.3771 118.031 33.588 118.031 30.1612C118.031 26.7344 120.827 23.9453 124.263 23.9453C127.699 23.9453 130.495 26.7344 130.495 30.1612C130.495 33.588 127.699 36.3771 124.263 36.3771ZM124.263 26.398C122.183 26.398 120.49 28.0869 120.49 30.1612C120.49 32.2355 122.183 33.9244 124.263 33.9244C126.343 33.9244 128.036 32.2355 128.036 30.1612C128.036 28.0869 126.343 26.398 124.263 26.398Z" fill="#4C86C6"/>
<path d="M141.266 25.1789C137.83 25.1789 135.034 22.3898 135.034 18.963C135.034 15.5362 137.83 12.7471 141.266 12.7471C144.702 12.7471 147.498 15.5362 147.498 18.963C147.498 22.3898 144.702 25.1789 141.266 25.1789ZM141.266 15.1928C139.186 15.1928 137.493 16.8817 137.493 18.956C137.493 21.0303 139.186 22.7191 141.266 22.7191C143.346 22.7191 145.039 21.0303 145.039 18.956C145.039 16.8817 143.346 15.1928 141.266 15.1928Z" fill="#4C86C6"/>
<path d="M141.266 47.5832C137.83 47.5832 135.034 44.7941 135.034 41.3673C135.034 37.9405 137.83 35.1514 141.266 35.1514C144.702 35.1514 147.498 37.9405 147.498 41.3673C147.498 44.7941 144.702 47.5832 141.266 47.5832ZM141.266 37.5971C139.186 37.5971 137.493 39.286 137.493 41.3603C137.493 43.4346 139.186 45.1234 141.266 45.1234C143.346 45.1234 145.039 43.4346 145.039 41.3603C145.039 39.286 143.346 37.5971 141.266 37.5971Z" fill="#4C86C6"/>
</g>
<defs>
<clipPath id="clip0_148_137">
<rect width="165" height="126" fill="white"/>
</clipPath>
</defs>
</svg>
