<svg width="139" height="104" viewBox="0 0 139 104" fill="none" xmlns="http://www.w3.org/2000/svg">
<g clip-path="url(#clip0_526_775)">
<path d="M137.529 17.2624C141.36 29.758 134.16 42.9438 121.435 46.7137C116.235 48.2535 110.92 47.9822 106.188 46.2653L93.3372 51.8878L95.1208 38.112C93.5294 35.994 92.2743 33.5751 91.4516 30.9084C87.6204 18.4128 94.8205 5.227 107.545 1.45708C120.264 -2.30693 133.685 4.76682 137.523 17.2683L137.529 17.2624Z" fill="#FDFFF3"/>
<path d="M92.7908 52.6073L94.6523 38.2239C93.037 36.041 91.8179 33.6221 91.0253 31.0262C87.128 18.3124 94.4782 4.85513 107.419 1.02622C120.354 -2.80859 134.058 4.41855 137.955 17.1324C141.852 29.8463 134.502 43.3035 121.561 47.1324C116.481 48.6368 111.178 48.5011 106.2 46.7371L92.7848 52.6014L92.7908 52.6073ZM114.481 0.884626C112.229 0.884626 109.941 1.20321 107.683 1.87578C95.2228 5.56899 88.1368 18.5306 91.89 30.7784C92.6707 33.333 93.8837 35.7106 95.4871 37.8463L95.5952 37.9879L93.8897 51.1619L106.176 45.7873L106.35 45.8522C111.19 47.6044 116.361 47.7578 121.309 46.2947C133.77 42.6014 140.856 29.6398 137.102 17.392C134.028 7.3684 124.63 0.890525 114.487 0.890525L114.481 0.884626Z" fill="black"/>
<path d="M87.0499 103.551H107.743L99.9068 63.834H87.0499H58.0093H50.2747H21.234H7.98679L0.540466 103.551H21.234" fill="#FFE600"/>
<path d="M108.29 103.999H87.0499V103.114H107.197L99.5345 64.2766H8.3591L1.08092 103.114H21.228V103.999H0L7.60846 63.3916H100.279L108.29 103.999Z" fill="black"/>
<path d="M58.0153 103.114H50.2747V103.999H58.0153V103.114Z" fill="black"/>
<path d="M35.7543 48.8848C39.4091 48.8848 42.372 45.974 42.372 42.3833C42.372 38.7926 39.4091 35.8818 35.7543 35.8818C32.0995 35.8818 29.1367 38.7926 29.1367 42.3833C29.1367 45.974 32.0995 48.8848 35.7543 48.8848Z" fill="#FF6400"/>
<path d="M35.7543 49.3274C31.857 49.3274 28.6863 46.2123 28.6863 42.3834C28.6863 38.5545 31.857 35.4395 35.7543 35.4395C39.6516 35.4395 42.8223 38.5545 42.8223 42.3834C42.8223 46.2123 39.6516 49.3274 35.7543 49.3274ZM35.7543 36.3244C32.3555 36.3244 29.5871 39.0442 29.5871 42.3834C29.5871 45.7226 32.3555 48.4424 35.7543 48.4424C39.1532 48.4424 41.9216 45.7226 41.9216 42.3834C41.9216 39.0442 39.1532 36.3244 35.7543 36.3244Z" fill="black"/>
<path d="M21.234 63.8288C21.234 58.2005 24.5488 53.3273 29.3709 51.0146C31.2625 52.0412 33.4424 52.6253 35.7603 52.6253C38.0783 52.6253 40.2522 52.0412 42.1498 51.0146C46.9598 53.3391 50.2747 58.2005 50.2747 63.8288" fill="#FF6400"/>
<path d="M50.725 63.8283H49.8243C49.8243 58.5894 46.8938 53.8932 42.1558 51.5097C40.1921 52.5245 37.9822 53.0614 35.7603 53.0614C33.5385 53.0614 31.3166 52.5245 29.3589 51.5097C24.6149 53.8814 21.6844 58.5776 21.6844 63.8283H20.7836C20.7836 58.1646 23.9964 53.1027 29.1728 50.613L29.3829 50.5127L29.5871 50.6248C31.4607 51.6395 33.5985 52.1764 35.7603 52.1764C37.9222 52.1764 40.024 51.6513 41.9336 50.6248L42.1378 50.5127L42.3479 50.613C47.5123 53.1086 50.725 58.1705 50.725 63.8283Z" fill="black"/>
<path d="M38.3007 88.1107C41.6734 86.7273 43.266 82.9198 41.858 79.6063C40.4499 76.2928 36.5743 74.7281 33.2017 76.1114C29.829 77.4948 28.2363 81.3023 29.6444 84.6158C31.0525 87.9293 34.928 89.494 38.3007 88.1107Z" fill="#FF6400"/>
<path d="M35.7544 89.0559C31.8571 89.0559 28.6864 85.9408 28.6864 82.1119C28.6864 78.283 31.8571 75.168 35.7544 75.168C39.6517 75.168 42.8224 78.283 42.8224 82.1119C42.8224 85.9408 39.6517 89.0559 35.7544 89.0559ZM35.7544 76.0529C32.3555 76.0529 29.5871 78.7727 29.5871 82.1119C29.5871 85.4511 32.3555 88.1709 35.7544 88.1709C39.1533 88.1709 41.9216 85.4511 41.9216 82.1119C41.9216 78.7727 39.1533 76.0529 35.7544 76.0529Z" fill="black"/>
<path d="M21.234 103.557C21.234 97.929 24.5488 93.0558 29.3709 90.7432C31.2625 91.7697 33.4424 92.3538 35.7603 92.3538C38.0783 92.3538 40.2522 91.7697 42.1498 90.7432C46.9598 93.0676 50.2747 97.929 50.2747 103.557" fill="#FF6400"/>
<path d="M50.725 103.557H49.8243C49.8243 98.3179 46.8938 93.6217 42.1558 91.2383C40.1921 92.253 37.9822 92.7899 35.7603 92.7899C33.5385 92.7899 31.3166 92.253 29.3589 91.2383C24.6209 93.6099 21.6844 98.3061 21.6844 103.557H20.7836C20.7836 97.8931 23.9964 92.8312 29.1728 90.3415L29.3829 90.2412L29.5871 90.3533C31.4607 91.368 33.5985 91.9049 35.7603 91.9049C37.9222 91.9049 40.024 91.3798 41.9336 90.3533L42.1378 90.2412L42.3479 90.3415C47.5123 92.8371 50.725 97.899 50.725 103.557Z" fill="black"/>
<path d="M72.5296 48.8848C76.1844 48.8848 79.1472 45.974 79.1472 42.3833C79.1472 38.7926 76.1844 35.8818 72.5296 35.8818C68.8748 35.8818 65.912 38.7926 65.912 42.3833C65.912 45.974 68.8748 48.8848 72.5296 48.8848Z" fill="#FF6400"/>
<path d="M72.5296 49.3274C68.6323 49.3274 65.4616 46.2123 65.4616 42.3834C65.4616 38.5545 68.6323 35.4395 72.5296 35.4395C76.4269 35.4395 79.5976 38.5545 79.5976 42.3834C79.5976 46.2123 76.4269 49.3274 72.5296 49.3274ZM72.5296 36.3244C69.1307 36.3244 66.3623 39.0442 66.3623 42.3834C66.3623 45.7226 69.1307 48.4424 72.5296 48.4424C75.9285 48.4424 78.6968 45.7226 78.6968 42.3834C78.6968 39.0442 75.9285 36.3244 72.5296 36.3244Z" fill="black"/>
<path d="M58.0033 63.8288C58.0033 58.2005 61.3181 53.3273 66.1402 51.0146C68.0318 52.0412 70.2116 52.6253 72.5296 52.6253C74.8475 52.6253 77.0214 52.0412 78.919 51.0146C83.7291 53.3391 87.0439 58.2005 87.0439 63.8288" fill="#FF6400"/>
<path d="M87.5003 63.8283H86.5995C86.5995 58.5894 83.669 53.8932 78.931 51.5097C76.9673 52.5245 74.7575 53.0614 72.5356 53.0614C70.3137 53.0614 68.0918 52.5245 66.1341 51.5097C61.3901 53.8814 58.4596 58.5776 58.4596 63.8283H57.5589C57.5589 58.1646 60.7716 53.1027 65.948 50.613L66.1582 50.5127L66.3623 50.6248C68.2359 51.6395 70.3737 52.1764 72.5356 52.1764C74.6974 52.1764 76.7992 51.6513 78.7088 50.6248L78.913 50.5127L79.1232 50.613C84.2876 53.1086 87.5003 58.1705 87.5003 63.8283Z" fill="black"/>
<path d="M78.8848 83.917C79.8984 80.4672 77.8734 76.8633 74.3619 75.8676C70.8504 74.8719 67.1822 76.8613 66.1687 80.3111C65.1552 83.761 67.1801 87.3648 70.6916 88.3606C74.2031 89.3563 77.8713 87.3669 78.8848 83.917Z" fill="#FF6400"/>
<path d="M72.5296 89.0559C68.6323 89.0559 65.4616 85.9408 65.4616 82.1119C65.4616 78.283 68.6323 75.168 72.5296 75.168C76.4269 75.168 79.5976 78.283 79.5976 82.1119C79.5976 85.9408 76.4269 89.0559 72.5296 89.0559ZM72.5296 76.0529C69.1307 76.0529 66.3623 78.7727 66.3623 82.1119C66.3623 85.4511 69.1307 88.1709 72.5296 88.1709C75.9285 88.1709 78.6968 85.4511 78.6968 82.1119C78.6968 78.7727 75.9285 76.0529 72.5296 76.0529Z" fill="black"/>
<path d="M58.0033 103.557C58.0033 97.929 61.3181 93.0558 66.1402 90.7432C68.0318 91.7697 70.2116 92.3538 72.5296 92.3538C74.8475 92.3538 77.0214 91.7697 78.919 90.7432C83.7291 93.0676 87.0439 97.929 87.0439 103.557" fill="#FF6400"/>
<path d="M87.5003 103.557H86.5995C86.5995 98.3179 83.669 93.6217 78.931 91.2383C76.9673 92.253 74.7575 92.7899 72.5356 92.7899C70.3137 92.7899 68.0918 92.253 66.1341 91.2383C61.3901 93.6099 58.4596 98.3061 58.4596 103.557H57.5589C57.5589 97.8931 60.7716 92.8312 65.948 90.3415L66.1582 90.2412L66.3623 90.3533C68.2359 91.368 70.3737 91.9049 72.5356 91.9049C74.6974 91.9049 76.7992 91.3798 78.7088 90.3533L78.913 90.2412L79.1232 90.3415C84.2876 92.8371 87.5003 97.899 87.5003 103.557Z" fill="black"/>
<path d="M120.973 15.0439L104.657 24.3419L120.973 34.0292" fill="white"/>
<path d="M121.423 15.8109L120.973 15.0439L104.663 24.3419L105.113 25.1088L121.423 15.8109ZM105.125 23.5867L104.657 24.3419L120.967 34.0292L121.435 33.274L105.125 23.5867Z" fill="black"/>
<path d="M100.94 24.3414C100.94 22.3237 102.603 20.6895 104.657 20.6895C106.711 20.6895 108.374 22.3237 108.374 24.3414C108.374 26.3591 106.711 27.9933 104.657 27.9933C102.603 27.9933 100.94 26.3591 100.94 24.3414Z" fill="#12B512"/>
<path d="M104.657 28.4359C102.357 28.4359 100.489 26.6011 100.489 24.3415C100.489 22.0819 102.357 20.2471 104.657 20.2471C106.957 20.2471 108.824 22.0819 108.824 24.3415C108.824 26.6011 106.957 28.4359 104.657 28.4359ZM104.657 21.132C102.855 21.132 101.39 22.5716 101.39 24.3415C101.39 26.1114 102.855 27.5509 104.657 27.5509C106.458 27.5509 107.924 26.1114 107.924 24.3415C107.924 22.5716 106.458 21.132 104.657 21.132Z" fill="black"/>
<path d="M117.256 15.0445C117.256 13.0268 118.919 11.3926 120.973 11.3926C123.026 11.3926 124.69 13.0268 124.69 15.0445C124.69 17.0622 123.026 18.6964 120.973 18.6964C118.919 18.6964 117.256 17.0622 117.256 15.0445Z" fill="#12B512"/>
<path d="M120.973 19.139C118.673 19.139 116.805 17.3042 116.805 15.0446C116.805 12.785 118.673 10.9502 120.973 10.9502C123.273 10.9502 125.14 12.785 125.14 15.0446C125.14 17.3042 123.273 19.139 120.973 19.139ZM120.973 11.8352C119.171 11.8352 117.706 13.2747 117.706 15.0446C117.706 16.8145 119.171 18.254 120.973 18.254C122.774 18.254 124.239 16.8145 124.239 15.0446C124.239 13.2747 122.774 11.8352 120.973 11.8352Z" fill="black"/>
<path d="M117.256 34.0298C117.256 32.0121 118.919 30.3779 120.973 30.3779C123.026 30.3779 124.69 32.0121 124.69 34.0298C124.69 36.0475 123.026 37.6818 120.973 37.6818C118.919 37.6818 117.256 36.0475 117.256 34.0298Z" fill="#12B512"/>
<path d="M120.973 38.1243C118.673 38.1243 116.805 36.2895 116.805 34.0299C116.805 31.7704 118.673 29.9355 120.973 29.9355C123.273 29.9355 125.14 31.7704 125.14 34.0299C125.14 36.2895 123.273 38.1243 120.973 38.1243ZM120.973 30.8205C119.171 30.8205 117.706 32.26 117.706 34.0299C117.706 35.7999 119.171 37.2394 120.973 37.2394C122.774 37.2394 124.239 35.7999 124.239 34.0299C124.239 32.26 122.774 30.8205 120.973 30.8205Z" fill="black"/>
</g>
<defs>
<clipPath id="clip0_526_775">
<rect width="139" height="104" fill="white"/>
</clipPath>
</defs>
</svg>
