<svg width="68" height="58" viewBox="0 0 68 58" fill="none" xmlns="http://www.w3.org/2000/svg">
<g clip-path="url(#clip0_526_930)">
<path d="M66.867 0.488281H1.17596V14.2928H66.867V0.488281Z" fill="#00DD05"/>
<path d="M0.557938 14.2842H49.0815L67.4421 14.3103V57.4332H12.8326L0.557938 57.3721V14.2842Z" fill="#FDFFF3"/>
<path d="M67.4421 58H12.8326L0.55794 57.9302C0.248927 57.9302 0 57.6773 0 57.3634V0.566832C0 0.252894 0.248927 0 0.55794 0H49.0815L67.4421 0.0261615C67.7511 0.0261615 68 0.279056 68 0.592993V57.4244C68 57.7384 67.7511 57.9913 67.4421 57.9913V58ZM1.11588 56.7966L12.8326 56.8663H66.8841V1.15983L49.0815 1.13366H1.11588V56.7966Z" fill="black"/>
<path d="M67.4421 14.4061H0.55794C0.248927 14.4061 0 14.1532 0 13.8393C0 13.5254 0.248927 13.2725 0.55794 13.2725H67.4421C67.7511 13.2725 68 13.5254 68 13.8393C68 14.1532 67.7511 14.4061 67.4421 14.4061Z" fill="black"/>
<path d="M9.71674 5.05811C10.8841 5.05811 11.8283 6.01736 11.8283 7.20335C11.8283 8.38933 10.8841 9.34859 9.71674 9.34859C8.54935 9.34859 7.60515 8.38061 7.60515 7.20335C7.60515 6.02608 8.54077 5.05811 9.71674 5.05811Z" fill="#007896"/>
<path d="M9.71674 9.91536C8.24034 9.91536 7.04721 8.69449 7.04721 7.20328C7.04721 5.71208 8.24893 4.49121 9.71674 4.49121C11.1845 4.49121 12.3863 5.71208 12.3863 7.20328C12.3863 8.69449 11.1845 9.91536 9.71674 9.91536ZM9.71674 5.62487C8.85837 5.62487 8.16309 6.33124 8.16309 7.20328C8.16309 8.07533 8.85837 8.78169 9.71674 8.78169C10.5751 8.78169 11.2704 8.07533 11.2704 7.20328C11.2704 6.33124 10.5751 5.62487 9.71674 5.62487Z" fill="black"/>
<path d="M23.9485 5.05811C25.1159 5.05811 26.0601 6.01736 26.0601 7.20335C26.0601 8.38933 25.1159 9.34859 23.9485 9.34859C22.7811 9.34859 21.8369 8.38061 21.8369 7.20335C21.8369 6.02608 22.7811 5.05811 23.9485 5.05811Z" fill="#007896"/>
<path d="M23.9485 9.91536C22.4721 9.91536 21.279 8.69449 21.279 7.20328C21.279 5.71208 22.4807 4.49121 23.9485 4.49121C25.4163 4.49121 26.618 5.71208 26.618 7.20328C26.618 8.69449 25.4163 9.91536 23.9485 9.91536ZM23.9485 5.62487C23.0901 5.62487 22.3949 6.33124 22.3949 7.20328C22.3949 8.07533 23.0901 8.78169 23.9485 8.78169C24.8069 8.78169 25.5022 8.07533 25.5022 7.20328C25.5022 6.33124 24.8069 5.62487 23.9485 5.62487Z" fill="black"/>
<path d="M38.1803 5.05811C39.3476 5.05811 40.2918 6.01736 40.2918 7.20335C40.2918 8.38933 39.3476 9.34859 38.1803 9.34859C37.0129 9.34859 36.0687 8.38061 36.0687 7.20335C36.0687 6.02608 37.0129 5.05811 38.1803 5.05811Z" fill="#007896"/>
<path d="M38.1803 9.91536C36.7039 9.91536 35.5107 8.69449 35.5107 7.20328C35.5107 5.71208 36.7124 4.49121 38.1803 4.49121C39.6481 4.49121 40.8498 5.71208 40.8498 7.20328C40.8498 8.69449 39.6481 9.91536 38.1803 9.91536ZM38.1803 5.62487C37.3219 5.62487 36.6266 6.33124 36.6266 7.20328C36.6266 8.07533 37.3219 8.78169 38.1803 8.78169C39.0386 8.78169 39.7339 8.07533 39.7339 7.20328C39.7339 6.33124 39.0386 5.62487 38.1803 5.62487Z" fill="black"/>
<path d="M10.8412 18.9409H31.0043C31.8884 18.9409 32.6094 19.6647 32.6094 20.5717V34.2977C32.6094 35.1959 31.8884 35.9197 31.0043 35.9197H16.6609L14.6781 37.0883L12.618 38.3004V35.9197H10.8412C9.94849 35.9197 9.22746 35.1959 9.22746 34.2977V20.5717C9.22746 19.6734 9.94849 18.9409 10.8412 18.9409Z" fill="#FFC800"/>
<path d="M12.5064 38.4837V36.0245H10.8412C9.89699 36.0245 9.12446 35.2484 9.12446 34.2979V20.5718C9.12446 19.6125 9.89699 18.8364 10.8412 18.8364H31.0043C31.9485 18.8364 32.721 19.6125 32.721 20.5718V34.2979C32.721 35.2484 31.9485 36.0245 31.0043 36.0245H16.6867L12.5064 38.4837ZM10.8412 19.0457C10.0086 19.0457 9.33905 19.7259 9.33905 20.5631V34.2891C9.33905 35.1263 10.0172 35.8065 10.8412 35.8065H12.721V38.1087L16.6352 35.8065H31.0043C31.8369 35.8065 32.5064 35.1263 32.5064 34.2891V20.5631C32.5064 19.7259 31.8283 19.0457 31.0043 19.0457H10.8412Z" fill="#231815"/>
<path d="M12.618 38.8672C12.5236 38.8672 12.4292 38.841 12.3433 38.7887C12.1717 38.6841 12.0601 38.5009 12.0601 38.3003V36.4865H10.8412C9.64807 36.4865 8.66953 35.5011 8.66953 34.2976V20.5716C8.66953 19.3594 9.63948 18.374 10.8412 18.374H31.0043C32.1974 18.374 33.1674 19.3594 33.1674 20.5716V34.2976C33.1674 35.5098 32.1974 36.4865 31.0043 36.4865H16.8069L12.8927 38.7887C12.8069 38.841 12.7124 38.8672 12.6094 38.8672H12.618ZM10.8412 19.5077C10.2575 19.5077 9.7854 19.9786 9.7854 20.5629V34.2889C9.7854 34.8732 10.2575 35.3441 10.8412 35.3441H12.618C12.927 35.3441 13.176 35.597 13.176 35.9109V37.3062L16.3863 35.4226C16.4721 35.3703 16.5665 35.3441 16.6695 35.3441H31.0129C31.588 35.3441 32.0601 34.8732 32.0601 34.2889V20.5629C32.0601 19.9786 31.588 19.5077 31.0129 19.5077H10.8412Z" fill="black"/>
<path d="M57.1588 32.9634H36.9957C36.1116 32.9634 35.382 33.6959 35.382 34.5941V48.3289C35.382 49.2184 36.103 49.9509 36.9957 49.9509H51.3305L53.3219 51.1194L55.382 52.3316V49.9509H57.1588C58.0343 49.9509 58.7639 49.2184 58.7639 48.3289V34.5941C58.7639 33.7046 58.0343 32.9634 57.1588 32.9634Z" fill="#00DD05"/>
<path d="M55.3906 52.8896C55.2961 52.8896 55.2017 52.8634 55.1073 52.8111L51.1846 50.5089H36.9957C35.8026 50.5089 34.824 49.5235 34.824 48.32V34.5853C34.824 33.3731 35.794 32.3877 36.9957 32.3877H57.1588C58.3519 32.3877 59.3219 33.3731 59.3219 34.5853V48.32C59.3219 49.5322 58.3519 50.5089 57.1588 50.5089H55.9399V52.3227C55.9399 52.5233 55.8369 52.7152 55.6567 52.8111C55.5708 52.8634 55.4764 52.8896 55.3734 52.8896H55.3906ZM36.9957 33.5301C36.412 33.5301 35.9399 34.001 35.9399 34.5853V48.32C35.9399 48.9043 36.412 49.3752 36.9957 49.3752H51.3305C51.4249 49.3752 51.5279 49.4014 51.6052 49.4537L54.824 51.3373V49.942C54.824 49.6281 55.073 49.3752 55.382 49.3752H57.1588C57.7253 49.3752 58.206 48.8956 58.206 48.32V34.5853C58.206 34.0097 57.7253 33.5301 57.1588 33.5301H36.9957Z" fill="black"/>
<path d="M27.1674 23.4232H13.3476C13.0386 23.4232 12.7897 23.1703 12.7897 22.8564C12.7897 22.5424 13.0386 22.2896 13.3476 22.2896H27.1674C27.4764 22.2896 27.7253 22.5424 27.7253 22.8564C27.7253 23.1703 27.4764 23.4232 27.1674 23.4232Z" fill="black"/>
<path d="M27.1674 28.1761H14.4721C14.1631 28.1761 13.9142 27.9232 13.9142 27.6093C13.9142 27.2954 14.1631 27.0425 14.4721 27.0425H27.1674C27.4764 27.0425 27.7253 27.2954 27.7253 27.6093C27.7253 27.9232 27.4764 28.1761 27.1674 28.1761Z" fill="black"/>
<path d="M27.1674 32.9462H18.515C18.206 32.9462 17.9571 32.6933 17.9571 32.3793C17.9571 32.0654 18.206 31.8125 18.515 31.8125H27.1674C27.4764 31.8125 27.7253 32.0654 27.7253 32.3793C27.7253 32.6933 27.4764 32.9462 27.1674 32.9462Z" fill="black"/>
<path d="M54.6609 37.4457H40.8326C40.5236 37.4457 40.2747 37.1928 40.2747 36.8788C40.2747 36.5649 40.5236 36.312 40.8326 36.312H54.6609C54.97 36.312 55.2189 36.5649 55.2189 36.8788C55.2189 37.1928 54.97 37.4457 54.6609 37.4457Z" fill="black"/>
<path d="M53.5365 42.1986H40.8326C40.5236 42.1986 40.2747 41.9457 40.2747 41.6318C40.2747 41.3178 40.5236 41.0649 40.8326 41.0649H53.5365C53.8455 41.0649 54.0944 41.3178 54.0944 41.6318C54.0944 41.9457 53.8455 42.1986 53.5365 42.1986Z" fill="black"/>
<path d="M49.4936 46.9598H40.8326C40.5236 46.9598 40.2747 46.7069 40.2747 46.393C40.2747 46.0791 40.5236 45.8262 40.8326 45.8262H49.4936C49.8026 45.8262 50.0515 46.0791 50.0515 46.393C50.0515 46.7069 49.8026 46.9598 49.4936 46.9598Z" fill="black"/>
</g>
<defs>
<clipPath id="clip0_526_930">
<rect width="68" height="58" fill="white"/>
</clipPath>
</defs>
</svg>
