<svg width="159" height="133" viewBox="0 0 159 133" fill="none" xmlns="http://www.w3.org/2000/svg">
<g clip-path="url(#clip0_148_248)">
<path d="M127.903 112.097H17.5323C14.6228 112.097 12.2574 109.721 12.2574 106.799V32.3941C12.2574 29.4643 14.6228 27.0811 17.5323 27.0811H89.4148C90.1478 27.0811 90.7373 27.6731 90.7373 28.4093C90.7373 29.1455 90.1478 29.7376 89.4148 29.7376H17.5323C16.0813 29.7376 14.9024 30.9292 14.9024 32.3941V106.799C14.9024 108.256 16.0813 109.44 17.5323 109.44H127.895C129.354 109.44 130.54 108.256 130.54 106.799V69.6004C130.54 68.8641 131.13 68.2721 131.863 68.2721C132.596 68.2721 133.185 68.8641 133.185 69.6004V106.799C133.185 109.721 130.812 112.097 127.895 112.097H127.903Z" fill="#4C86C6"/>
<path d="M127.903 112.666H17.5323C14.313 112.666 11.6907 110.032 11.6907 106.799V32.394C11.6907 29.153 14.313 26.5117 17.5323 26.5117H89.4148C90.4576 26.5117 91.304 27.3618 91.304 28.4092C91.304 29.4566 90.4576 30.3067 89.4148 30.3067H17.5323C16.3911 30.3067 15.4692 31.2403 15.4692 32.394V106.799C15.4692 107.945 16.3911 108.871 17.5323 108.871H127.895C129.036 108.871 129.973 107.945 129.973 106.799V69.6003C129.973 68.5529 130.82 67.7028 131.863 67.7028C132.906 67.7028 133.752 68.5529 133.752 69.6003V106.799C133.752 110.032 131.122 112.666 127.895 112.666H127.903ZM17.5323 27.6502C14.9326 27.6502 12.8242 29.7754 12.8242 32.394V106.799C12.8242 109.41 14.9326 111.528 17.5323 111.528H127.895C130.495 111.528 132.618 109.41 132.618 106.799V69.6003C132.618 69.1828 132.278 68.8413 131.863 68.8413C131.447 68.8413 131.107 69.1828 131.107 69.6003V106.799C131.107 108.567 129.664 110.01 127.895 110.01H17.5323C15.7715 110.01 14.3356 108.567 14.3356 106.799V32.394C14.3356 30.6179 15.7715 29.1682 17.5323 29.1682H89.4148C89.8304 29.1682 90.1705 28.8267 90.1705 28.4092C90.1705 27.9918 89.8304 27.6502 89.4148 27.6502H17.5323Z" fill="#4C86C6"/>
<path d="M139.594 132.431H5.84914C2.93968 132.431 0.566772 130.047 0.566772 127.125V119.93C0.566772 119.194 1.15622 118.602 1.88925 118.602H143.553C144.286 118.602 144.876 119.194 144.876 119.93V127.125C144.876 130.047 142.503 132.431 139.594 132.431ZM3.21173 121.258V127.125C3.21173 128.582 4.39063 129.774 5.84914 129.774H139.594C141.044 129.774 142.231 128.59 142.231 127.125V121.258H3.21173Z" fill="#4C86C6"/>
<path d="M139.594 133H5.84914C2.62229 133 0 130.366 0 127.125V119.93C0 118.882 0.846388 118.032 1.88926 118.032H143.553C144.596 118.032 145.443 118.882 145.443 119.93V127.125C145.443 130.366 142.82 133 139.594 133ZM1.88926 119.171C1.47362 119.171 1.13356 119.512 1.13356 119.93V127.125C1.13356 129.736 3.24952 131.861 5.84914 131.861H139.594C142.193 131.861 144.309 129.736 144.309 127.125V119.93C144.309 119.512 143.969 119.171 143.553 119.171H1.88926ZM139.594 130.343H5.84914C4.0808 130.343 2.64496 128.901 2.64496 127.125V120.689H142.798V127.125C142.798 128.901 141.362 130.343 139.594 130.343ZM3.77852 121.827V127.125C3.77852 128.271 4.70803 129.205 5.84914 129.205H139.594C140.735 129.205 141.664 128.271 141.664 127.125V121.827H3.77852Z" fill="#4C86C6"/>
<path d="M122.908 102.351H22.5276C21.7945 102.351 21.2051 101.759 21.2051 101.023V38.1622C21.2051 37.426 21.7945 36.834 22.5276 36.834H88.5307C89.2637 36.834 89.8532 37.426 89.8532 38.1622C89.8532 38.8985 89.2637 39.4905 88.5307 39.4905H23.85V99.6946H121.585V70.8221C121.585 70.0859 122.175 69.4939 122.908 69.4939C123.641 69.4939 124.23 70.0859 124.23 70.8221V101.023C124.23 101.759 123.641 102.351 122.908 102.351Z" fill="#4C86C6"/>
<path d="M122.908 102.92H22.5276C21.4847 102.92 20.6383 102.07 20.6383 101.023V38.1622C20.6383 37.1147 21.4847 36.2646 22.5276 36.2646H88.5307C89.5736 36.2646 90.42 37.1147 90.42 38.1622C90.42 39.2096 89.5736 40.0597 88.5307 40.0597H24.4168V99.1252H121.018V70.822C121.018 69.7746 121.865 68.9245 122.908 68.9245C123.951 68.9245 124.797 69.7746 124.797 70.822V101.023C124.797 102.07 123.951 102.92 122.908 102.92ZM22.5276 37.4032C22.1119 37.4032 21.7719 37.7447 21.7719 38.1622V101.023C21.7719 101.44 22.1119 101.782 22.5276 101.782H122.908C123.323 101.782 123.663 101.44 123.663 101.023V70.822C123.663 70.4046 123.323 70.063 122.908 70.063C122.492 70.063 122.152 70.4046 122.152 70.822V100.264H23.2833V38.9212H88.5307C88.9463 38.9212 89.2864 38.5796 89.2864 38.1622C89.2864 37.7447 88.9463 37.4032 88.5307 37.4032H22.5276Z" fill="#4C86C6"/>
<path d="M91.9465 73.3419C91.6443 73.3419 91.3344 73.2357 91.0926 73.0308C90.6845 72.6892 90.5258 72.1275 90.6845 71.619L94.7729 58.4427C88.9237 50.9665 86.309 41.684 87.4048 32.2268C88.5081 22.7317 93.2161 14.2308 100.682 8.30303C108.149 2.36763 117.459 -0.288882 126.913 0.811671C136.367 1.91982 144.831 6.6484 150.733 14.1473C156.642 21.6463 159.287 30.9972 158.192 40.4923C157.088 49.9874 152.38 58.4883 144.914 64.4161C137.447 70.3515 128.137 73.008 118.683 71.9074C113.605 71.3154 108.837 69.6835 104.491 67.065L92.5511 73.1901C92.3622 73.2888 92.1581 73.3344 91.9465 73.3344V73.3419ZM104.544 64.2187C104.786 64.2187 105.035 64.287 105.247 64.4237C109.426 67.065 114.043 68.6968 118.978 69.2737C127.729 70.2907 136.352 67.8316 143.266 62.344C150.181 56.8564 154.541 48.9856 155.562 40.1963C156.582 31.4071 154.126 22.7393 148.662 15.802C143.191 8.86469 135.362 4.47765 126.611 3.453C117.86 2.43594 109.237 4.8951 102.322 10.3827C95.4152 15.8779 91.0473 23.7411 90.0271 32.5304C88.9842 41.5094 91.5536 50.3138 97.2591 57.3194C97.5388 57.6685 97.6294 58.1315 97.501 58.5566L94.1381 69.3875L103.94 64.3554C104.128 64.2567 104.333 64.2111 104.544 64.2111V64.2187Z" fill="#4C86C6"/>
<path d="M91.9465 73.9112C91.5006 73.9112 91.0699 73.7518 90.7298 73.4634C90.1479 72.97 89.9136 72.1806 90.1404 71.4444L94.138 58.5566C88.3342 51.0045 85.7422 41.646 86.8379 32.1584C87.9564 22.5115 92.7475 13.8817 100.327 7.85519C107.907 1.82871 117.368 -0.87334 126.981 0.249984C136.586 1.37331 145.178 6.18538 151.179 13.7982C157.179 21.411 159.869 30.9213 158.751 40.5682C157.632 50.2151 152.841 58.845 145.261 64.879C137.682 70.9055 128.22 73.6076 118.608 72.4842C113.56 71.8922 108.799 70.2983 104.461 67.7329L92.8004 73.7138C92.5359 73.8504 92.2412 73.9188 91.9389 73.9188L91.9465 73.9112ZM122.734 1.13802C114.875 1.13802 107.295 3.77175 101.038 8.75081C93.6922 14.5875 89.0521 22.9517 87.9715 32.2951C86.8984 41.5853 89.4678 50.7464 95.2187 58.0936L95.4001 58.3288L91.2286 71.786C91.1379 72.0744 91.2286 72.3932 91.4628 72.5905C91.6896 72.7803 92.0296 72.8182 92.2941 72.6892L104.514 66.4198L104.786 66.5792C109.063 69.1522 113.756 70.7537 118.751 71.3382C128.054 72.4311 137.221 69.805 144.566 63.9682C151.912 58.1315 156.552 49.7673 157.632 40.424C158.713 31.0807 156.106 21.874 150.294 14.4965C144.483 7.11896 136.155 2.45868 126.852 1.37331C125.477 1.21392 124.102 1.13043 122.734 1.13043V1.13802ZM93.201 70.5184L96.9644 58.3896C97.0399 58.1467 96.987 57.881 96.8283 57.6837C91.0245 50.5567 88.4098 41.6004 89.4678 32.4696C90.5031 23.5286 94.9466 15.5287 101.967 9.93486C108.995 4.3486 117.761 1.84389 126.671 2.88372C135.573 3.92356 143.538 8.38649 149.1 15.4452C154.662 22.5039 157.156 31.316 156.121 40.257C155.086 49.1981 150.642 57.1979 143.621 62.7918C136.593 68.378 127.827 70.8827 118.918 69.8429C113.9 69.2585 109.199 67.5963 104.945 64.9094C104.725 64.7728 104.431 64.7576 104.196 64.879L93.1934 70.526L93.201 70.5184ZM104.544 63.6495C104.899 63.6495 105.247 63.7481 105.549 63.9379C109.653 66.5337 114.194 68.1352 119.046 68.7044C127.646 69.7063 136.125 67.2851 142.911 61.8886C149.705 56.4921 153.99 48.7578 154.995 40.1204C155.992 31.4829 153.589 22.9669 148.209 16.1511C142.836 9.32765 135.135 5.02411 126.535 4.01464C117.935 3.01275 109.456 5.43397 102.67 10.8305C95.8761 16.227 91.5913 23.9612 90.5862 32.5987C89.566 41.4259 92.0901 50.0785 97.6974 56.9626C98.0979 57.456 98.2264 58.1163 98.0375 58.7311L95.0751 68.2718L103.683 63.8544C103.947 63.7178 104.242 63.6495 104.544 63.6495Z" fill="#4C86C6"/>
<path d="M132.089 49.821C131.84 49.821 131.591 49.7527 131.364 49.6009L112.932 37.4645C112.32 37.0622 112.154 36.2425 112.554 35.6277C112.955 35.0129 113.771 34.8459 114.383 35.2482L132.815 47.3846C133.427 47.7869 133.593 48.6066 133.193 49.2214C132.936 49.6085 132.513 49.821 132.082 49.821H132.089Z" fill="#4C86C6"/>
<path d="M113.658 37.6921C113.227 37.6921 112.804 37.4796 112.547 37.0925C112.146 36.4777 112.32 35.658 112.925 35.2557L131.356 23.1193C131.969 22.717 132.785 22.8916 133.185 23.4988C133.586 24.1136 133.412 24.9333 132.807 25.3356L114.376 37.472C114.149 37.6162 113.9 37.6921 113.65 37.6921H113.658Z" fill="#4C86C6"/>
<path d="M113.65 43.0965C109.955 43.0965 106.947 40.0757 106.947 36.3642C106.947 32.6527 109.955 29.6318 113.65 29.6318C117.346 29.6318 120.353 32.6527 120.353 36.3642C120.353 40.0757 117.346 43.0965 113.65 43.0965ZM113.65 32.2883C111.413 32.2883 109.592 34.1175 109.592 36.3642C109.592 38.6108 111.413 40.44 113.65 40.44C115.887 40.44 117.708 38.6108 117.708 36.3642C117.708 34.1175 115.887 32.2883 113.65 32.2883Z" fill="#4C86C6"/>
<path d="M131.938 30.9676C128.243 30.9676 125.235 27.9468 125.235 24.2353C125.235 20.5238 128.243 17.5029 131.938 17.5029C135.634 17.5029 138.641 20.5238 138.641 24.2353C138.641 27.9468 135.634 30.9676 131.938 30.9676ZM131.938 20.1518C129.701 20.1518 127.88 21.981 127.88 24.2277C127.88 26.4743 129.701 28.3035 131.938 28.3035C134.175 28.3035 135.996 26.4743 135.996 24.2277C135.996 21.981 134.175 20.1518 131.938 20.1518Z" fill="#4C86C6"/>
<path d="M131.938 55.2333C128.243 55.2333 125.235 52.2124 125.235 48.5009C125.235 44.7894 128.243 41.7686 131.938 41.7686C135.634 41.7686 138.641 44.7894 138.641 48.5009C138.641 52.2124 135.634 55.2333 131.938 55.2333ZM131.938 44.4175C129.701 44.4175 127.88 46.2467 127.88 48.4933C127.88 50.74 129.701 52.5692 131.938 52.5692C134.175 52.5692 135.996 50.74 135.996 48.4933C135.996 46.2467 134.175 44.4175 131.938 44.4175Z" fill="#4C86C6"/>
</g>
<defs>
<clipPath id="clip0_148_248">
<rect width="159" height="133" fill="white"/>
</clipPath>
</defs>
</svg>
