<svg width="247" height="155" viewBox="0 0 247 155" fill="none" xmlns="http://www.w3.org/2000/svg">
<g clip-path="url(#clip0_526_430)">
<path d="M201.959 34.6748H48.8948C43.7281 34.6748 39.5397 38.86 39.5397 44.0227V143.513C39.5397 148.675 43.7281 152.861 48.8948 152.861H201.959C207.125 152.861 211.314 148.675 211.314 143.513V44.0227C211.314 38.86 207.125 34.6748 201.959 34.6748Z" fill="#FFE600"/>
<path d="M201.959 153.374H48.8948C43.4359 153.374 39.0045 148.946 39.0045 143.492V44.0228C39.0045 38.5681 43.4359 34.1401 48.8948 34.1401H201.937C207.396 34.1401 211.827 38.5681 211.827 44.0228V143.492C211.827 148.946 207.396 153.374 201.937 153.374H201.959ZM48.8948 35.2097C44.0353 35.2097 40.0749 39.167 40.0749 44.0228V143.492C40.0749 148.347 44.0353 152.305 48.8948 152.305H201.937C206.797 152.305 210.757 148.347 210.757 143.492V44.0228C210.757 39.167 206.797 35.2097 201.937 35.2097H48.8948Z" fill="#2E2138"/>
<path d="M200.76 52.6006H50.0936C46.9132 52.6006 44.335 55.1768 44.335 58.3548V142.422C44.335 145.6 46.9132 148.176 50.0936 148.176H200.76C203.94 148.176 206.518 145.6 206.518 142.422V58.3548C206.518 55.1768 203.94 52.6006 200.76 52.6006Z" fill="white"/>
<path d="M200.76 148.711H50.115C46.647 148.711 43.8212 145.887 43.8212 142.422V58.3549C43.8212 54.8895 46.647 52.0659 50.115 52.0659H200.76C204.228 52.0659 207.054 54.8895 207.054 58.3549V142.422C207.054 145.887 204.228 148.711 200.76 148.711ZM50.115 53.1355C47.225 53.1355 44.8916 55.4885 44.8916 58.3549V142.422C44.8916 145.31 47.2464 147.641 50.115 147.641H200.76C203.65 147.641 205.983 145.288 205.983 142.422V58.3549C205.983 55.4671 203.628 53.1355 200.76 53.1355H50.115Z" fill="#2E2138"/>
<path d="M172.202 43.3599C172.202 45.5846 170.404 47.3814 168.178 47.3814C165.951 47.3814 164.153 45.5846 164.153 43.3599C164.153 41.1352 165.951 39.3384 168.178 39.3384C170.404 39.3384 172.202 41.1352 172.202 43.3599Z" fill="#FF502E"/>
<path d="M168.178 47.8948C165.673 47.8948 163.618 45.8627 163.618 43.3385C163.618 40.8144 165.651 38.7822 168.178 38.7822C170.704 38.7822 172.737 40.8144 172.737 43.3385C172.737 45.8627 170.704 47.8948 168.178 47.8948ZM168.178 39.8732C166.251 39.8732 164.688 41.4347 164.688 43.3599C164.688 45.2851 166.251 46.8467 168.178 46.8467C170.104 46.8467 171.667 45.2851 171.667 43.3599C171.667 41.4347 170.104 39.8732 168.178 39.8732Z" fill="#2E2138"/>
<path d="M185.453 43.3599C185.453 45.5846 183.655 47.3814 181.429 47.3814C179.202 47.3814 177.404 45.5846 177.404 43.3599C177.404 41.1352 179.202 39.3384 181.429 39.3384C183.655 39.3384 185.453 41.1352 185.453 43.3599Z" fill="#14CE00"/>
<path d="M181.429 47.8948C178.924 47.8948 176.869 45.8627 176.869 43.3385C176.869 40.8144 178.903 38.7822 181.429 38.7822C183.955 38.7822 185.989 40.8144 185.989 43.3385C185.989 45.8627 183.955 47.8948 181.429 47.8948ZM181.429 39.8732C179.502 39.8732 177.939 41.4347 177.939 43.3599C177.939 45.2851 179.502 46.8467 181.429 46.8467C183.355 46.8467 184.918 45.2851 184.918 43.3599C184.918 41.4347 183.355 39.8732 181.429 39.8732Z" fill="#2E2138"/>
<path d="M198.705 43.3599C198.705 45.5846 196.906 47.3814 194.68 47.3814C192.454 47.3814 190.655 45.5846 190.655 43.3599C190.655 41.1352 192.454 39.3384 194.68 39.3384C196.906 39.3384 198.705 41.1352 198.705 43.3599Z" fill="white"/>
<path d="M194.68 47.8948C192.175 47.8948 190.12 45.8627 190.12 43.3385C190.12 40.8144 192.154 38.7822 194.68 38.7822C197.206 38.7822 199.24 40.8144 199.24 43.3385C199.24 45.8627 197.206 47.8948 194.68 47.8948ZM194.68 39.8732C192.753 39.8732 191.191 41.4347 191.191 43.3599C191.191 45.2851 192.753 46.8467 194.68 46.8467C196.607 46.8467 198.169 45.2851 198.169 43.3599C198.169 41.4347 196.607 39.8732 194.68 39.8732Z" fill="#2E2138"/>
<path d="M88.8626 105.073H74.434V134.785H88.8626V105.073Z" fill="#5DED61"/>
<path d="M88.8626 135.32H74.434C74.1343 135.32 73.8988 135.085 73.8988 134.786V105.073C73.8988 104.774 74.1343 104.539 74.434 104.539H88.8626C89.1623 104.539 89.3978 104.774 89.3978 105.073V134.786C89.3978 135.085 89.1623 135.32 88.8626 135.32ZM74.9691 134.251H88.3274V105.608H74.9691V134.251Z" fill="#2E2138"/>
<path d="M119.796 96.9233H105.368V134.786H119.796V96.9233Z" fill="#2BD62F"/>
<path d="M119.796 135.32H105.368C105.068 135.32 104.833 135.085 104.833 134.786V96.9234C104.833 96.624 105.068 96.3887 105.368 96.3887H119.796C120.096 96.3887 120.332 96.624 120.332 96.9234V134.786C120.332 135.085 120.096 135.32 119.796 135.32ZM105.903 134.251H119.261V97.4582H105.903V134.251Z" fill="#2E2138"/>
<path d="M150.73 84.1099H136.302V134.785H150.73V84.1099Z" fill="#12B512"/>
<path d="M150.73 135.32H136.302C136.002 135.32 135.767 135.085 135.767 134.786V84.11C135.767 83.8105 136.002 83.5752 136.302 83.5752H150.73C151.03 83.5752 151.266 83.8105 151.266 84.11V134.786C151.266 135.085 151.03 135.32 150.73 135.32ZM136.837 134.251H150.195V84.6448H136.837V134.251Z" fill="#2E2138"/>
<path d="M181.664 70.1416H167.236V134.786H181.664V70.1416Z" fill="#00DD05"/>
<path d="M181.664 135.32H167.236C166.936 135.32 166.7 135.085 166.7 134.786V70.1417C166.7 69.8422 166.936 69.6069 167.236 69.6069H181.664C181.964 69.6069 182.199 69.8422 182.199 70.1417V134.786C182.199 135.085 181.964 135.32 181.664 135.32ZM167.771 134.251H181.129V70.6765H167.771V134.251Z" fill="#2E2138"/>
<path d="M192.603 135.32H57.7361V65.1147H58.8065V134.251H192.603V135.32Z" fill="#2E2138"/>
<path d="M193.096 118.271H193.931H196.971H209.066C210.2 118.271 210.971 117.159 210.607 116.089C207.31 106.912 208.574 99.7891 216.216 99.1474C217.822 99.019 219.213 100.324 219.213 101.95V102.741C219.213 106.955 220.262 111.084 222.274 114.784L227.326 124.132C228.012 125.416 229.36 126.207 230.795 126.207H232.357V151.106L224.886 153.502H201.873H199.283H198.255C195.964 153.502 193.867 151.855 193.631 149.566C193.353 146.935 195.386 144.732 197.955 144.689H196.542C194.23 144.689 192.133 143.021 191.897 140.732C191.64 138.101 193.695 135.876 196.286 135.876H195.108C192.796 135.876 190.698 134.207 190.463 131.919C190.206 129.287 192.261 127.063 194.851 127.063H193.096C190.655 127.063 188.686 125.095 188.686 122.656C188.686 120.218 190.655 118.25 193.096 118.25V118.271Z" fill="#FFD3AB"/>
<path d="M224.907 154.037H198.276C195.665 154.037 193.396 152.112 193.139 149.652C192.989 148.262 193.417 146.914 194.359 145.866C194.637 145.545 194.937 145.288 195.279 145.053C193.224 144.54 191.619 142.871 191.426 140.796C191.276 139.384 191.726 138.037 192.668 137.01C192.967 136.689 193.289 136.411 193.652 136.176C191.704 135.619 190.206 133.972 189.992 131.983C189.842 130.571 190.291 129.224 191.233 128.197C191.49 127.919 191.769 127.683 192.068 127.469C189.863 126.977 188.215 125.009 188.215 122.678C188.215 119.983 190.42 117.779 193.117 117.779H209.109C209.473 117.779 209.815 117.608 210.029 117.309C210.243 117.009 210.286 116.624 210.179 116.282C207.974 110.121 207.846 105.223 209.858 102.121C211.164 100.089 213.305 98.9337 216.216 98.677C217.115 98.6128 217.993 98.8909 218.656 99.5112C219.341 100.132 219.748 101.03 219.748 101.971V102.763C219.748 106.87 220.776 110.955 222.745 114.571L227.797 123.919C228.397 125.031 229.574 125.737 230.837 125.737H232.4C232.678 125.737 232.892 125.951 232.892 126.229V151.128C232.892 151.342 232.743 151.534 232.55 151.599L225.079 153.994C225.079 153.994 224.972 154.016 224.929 154.016L224.907 154.037ZM196.799 135.898C196.799 136.176 196.585 136.39 196.307 136.39C195.194 136.39 194.145 136.86 193.417 137.673C192.668 138.507 192.304 139.577 192.432 140.711C192.625 142.679 194.445 144.219 196.585 144.219H197.998C198.234 144.219 198.448 144.39 198.491 144.625C198.512 144.775 198.491 144.925 198.384 145.032C198.276 145.138 198.148 145.203 197.998 145.224C196.906 145.224 195.857 145.716 195.13 146.529C194.402 147.363 194.059 148.433 194.166 149.545C194.38 151.492 196.179 153.032 198.298 153.032H224.865L231.908 150.764V126.721H230.837C229.21 126.721 227.712 125.822 226.92 124.389L221.868 115.041C219.834 111.276 218.763 107.02 218.763 102.763V101.971C218.763 101.329 218.485 100.688 218.014 100.26C217.543 99.8321 216.944 99.6182 216.323 99.6824C213.733 99.8963 211.849 100.902 210.714 102.656C208.916 105.458 209.066 110.185 211.142 115.961C211.378 116.603 211.271 117.33 210.886 117.908C210.479 118.464 209.837 118.806 209.151 118.806H193.16C190.998 118.806 189.243 120.56 189.243 122.721C189.243 124.881 190.998 126.635 193.16 126.635H194.916C195.194 126.635 195.408 126.849 195.408 127.127C195.408 127.405 195.194 127.619 194.916 127.619C193.802 127.619 192.753 128.09 192.004 128.903C191.255 129.737 190.912 130.806 191.019 131.919C191.212 133.887 193.032 135.427 195.172 135.427H196.35C196.628 135.427 196.842 135.641 196.842 135.919L196.799 135.898Z" fill="#2E2138"/>
<path d="M232.379 154.508H246.508V124.197H232.379V154.508Z" fill="#FFBF3D"/>
<path d="M246.486 155H232.357C232.079 155 231.865 154.786 231.865 154.508V124.197C231.865 123.919 232.079 123.705 232.357 123.705H246.486C246.765 123.705 246.979 123.919 246.979 124.197V154.508C246.979 154.786 246.765 155 246.486 155ZM232.871 153.994H245.994V124.689H232.871V153.994Z" fill="#2E2138"/>
<path d="M237.024 147.855C237.024 149.182 238.094 150.251 239.422 150.251C240.749 150.251 241.819 149.182 241.819 147.855C241.819 146.529 240.749 145.459 239.422 145.459C238.094 145.459 237.024 146.529 237.024 147.855Z" fill="white"/>
<path d="M239.422 150.764C237.816 150.764 236.532 149.46 236.532 147.877C236.532 146.294 237.838 144.989 239.422 144.989C241.006 144.989 242.312 146.294 242.312 147.877C242.312 149.46 241.006 150.764 239.422 150.764ZM239.422 145.973C238.373 145.973 237.516 146.828 237.516 147.877C237.516 148.925 238.373 149.78 239.422 149.78C240.471 149.78 241.327 148.925 241.327 147.877C241.327 146.828 240.471 145.973 239.422 145.973Z" fill="#2E2138"/>
<path d="M237.024 138.679C237.024 140.005 238.094 141.074 239.422 141.074C240.749 141.074 241.819 140.005 241.819 138.679C241.819 137.352 240.749 136.283 239.422 136.283C238.094 136.283 237.024 137.352 237.024 138.679Z" fill="white"/>
<path d="M239.422 141.566C237.816 141.566 236.532 140.261 236.532 138.678C236.532 137.095 237.838 135.791 239.422 135.791C241.006 135.791 242.312 137.095 242.312 138.678C242.312 140.261 241.006 141.566 239.422 141.566ZM239.422 136.775C238.373 136.775 237.516 137.63 237.516 138.678C237.516 139.726 238.373 140.582 239.422 140.582C240.471 140.582 241.327 139.726 241.327 138.678C241.327 137.63 240.471 136.775 239.422 136.775Z" fill="#2E2138"/>
<path d="M9.3765 7.95701L25.582 21.7971L25.689 21.6687C28.5576 18.3317 27.6371 12.8342 23.6339 9.433L13.1656 0.44873L9.3765 7.93562V7.95701Z" fill="white"/>
<path d="M25.582 22.2679C25.475 22.2679 25.3679 22.2251 25.2823 22.1609L9.0768 8.29949C8.90554 8.17114 8.86273 7.93584 8.96976 7.74332L12.7375 0.256428C12.8017 0.128082 12.9087 0.0425171 13.0586 0.021126C13.2085 -0.000265093 13.3369 0.021126 13.4439 0.128082L23.9336 9.09096C28.1081 12.6633 29.05 18.4389 26.0316 21.9898L25.9245 22.1181C25.9245 22.1181 25.7319 22.2679 25.6034 22.2679C25.6034 22.2679 25.582 22.2679 25.5606 22.2679H25.582ZM9.95451 7.85027L25.5392 21.1555C28.0225 17.9897 27.0805 12.9414 23.3556 9.77547L13.3155 1.19764L9.95451 7.85027Z" fill="#231815"/>
<path d="M7.27855 10.396L23.4841 24.236L23.377 24.3644C20.5084 27.7014 14.9639 27.6586 10.9606 24.236L0.449554 15.2946L7.27855 10.396Z" fill="white"/>
<path d="M17.6826 27.3164C15.3064 27.3164 12.7803 26.418 10.6609 24.6212L0.17126 15.6369C0.0642226 15.5513 0 15.4016 0 15.2732C0 15.1449 0.0856301 14.9952 0.192668 14.9096L7.02167 10.011C7.19293 9.88269 7.42841 9.90408 7.59967 10.0324L23.8052 23.8725C23.9978 24.0436 24.0192 24.3217 23.848 24.5142L23.7409 24.6426C22.2424 26.3966 20.0374 27.2737 17.6826 27.2737V27.3164ZM1.19882 15.316L11.2389 23.9153C14.9425 27.0811 20.0803 27.2309 22.8204 24.3003L7.25715 10.995L1.19882 15.316Z" fill="#231815"/>
<path d="M60.6047 69.4142C73.3636 65.5638 80.6207 52.066 76.7674 39.3169C72.914 26.5678 59.3845 19.3376 46.6256 23.188C33.8667 27.0384 26.6095 40.5362 30.4629 53.2853C34.3376 66.0131 47.8458 73.2646 60.6047 69.4142ZM84.5383 36.9639C89.6761 54.0126 79.9999 72.0667 62.9381 77.2006C45.9191 82.3345 27.8512 72.6657 22.692 55.617C17.5542 38.5683 27.2304 20.5142 44.2921 15.3803C61.3325 10.2464 79.3791 19.9152 84.5383 36.9639Z" fill="#FF2E2E"/>
<path d="M53.6472 79.0402C39.5825 79.0402 26.5453 69.9062 22.2638 55.7666C17.0404 38.4612 26.8878 20.1504 44.1851 14.9524C61.461 9.73295 79.7644 19.5515 85.0093 36.8355C90.2327 54.1409 80.3852 72.4517 63.088 77.6497C59.9411 78.5909 56.7727 79.0402 53.6472 79.0402ZM53.6044 14.4604C50.5646 14.4604 47.4819 14.8882 44.442 15.808C27.6371 20.8777 18.0679 38.6751 23.1415 55.4671C28.2365 72.2592 46.0262 81.7996 62.8097 76.7299C79.6146 71.6602 89.1837 53.8628 84.1102 37.0708C79.9571 23.3377 67.2624 14.439 53.6044 14.439V14.4604ZM53.6472 70.8901C43.0719 70.8901 33.2459 64.0236 30.0347 53.4136C28.1295 47.1246 28.8145 40.472 31.9186 34.675C35.0227 28.878 40.2033 24.6426 46.4971 22.7387C59.5129 18.8028 73.2994 26.1827 77.2169 39.1671C79.1222 45.4561 78.4372 52.1087 75.3331 57.9057C72.229 63.7027 67.0484 67.9382 60.7545 69.842C58.3997 70.5479 56.0021 70.8901 53.6687 70.8901H53.6472ZM53.6258 22.589C51.3566 22.589 49.066 22.9099 46.7754 23.5944C34.252 27.3592 27.1447 40.6217 30.9125 53.1141C34.7016 65.6065 47.9528 72.7084 60.4762 68.9436C66.5346 67.1253 71.5225 63.0396 74.5196 57.4565C77.5166 51.8734 78.1589 45.4775 76.3392 39.4238C73.2565 29.1989 63.8158 22.589 53.6258 22.589Z" fill="#2E2138"/>
<path d="M76.8958 39.2741C80.7706 52.0874 73.4706 65.6493 60.6475 69.5211C47.8244 73.3929 34.252 66.0985 30.3559 53.3067C26.4811 40.4934 33.7811 26.9314 46.6042 23.0596C59.4273 19.1878 73.0211 26.4394 76.8958 39.2741Z" fill="#1DA9FF"/>
<path d="M53.6473 70.9757C43.0291 70.9757 33.1817 64.0877 29.9491 53.435C28.0439 47.1246 28.7289 40.4506 31.833 34.6322C34.9585 28.8138 40.1605 24.557 46.4757 22.6745C59.5343 18.7386 73.3636 26.1399 77.2812 39.1671C81.2201 52.1943 73.7917 66.0129 60.7546 69.9275C58.3783 70.6334 56.0021 70.9757 53.6258 70.9757H53.6473ZM53.6258 22.4392C51.3352 22.4392 49.0232 22.7601 46.7326 23.466C40.6315 25.3056 35.6221 29.4127 32.6037 35.0386C29.5852 40.6645 28.943 47.1032 30.784 53.1997C34.5946 65.7776 47.9529 72.9223 60.5619 69.136C73.1709 65.3498 80.321 52.0018 76.5319 39.4024C73.4278 29.1133 63.9229 22.4606 53.6687 22.4606L53.6258 22.4392Z" fill="#231815"/>
<path d="M68.5897 41.777C71.073 50.034 66.3847 58.7401 58.1428 61.2429C49.8795 63.7243 41.1667 59.0396 38.662 50.804C36.1787 42.5471 40.867 33.8409 49.1089 31.3381C57.3722 28.8568 66.1064 33.52 68.5897 41.777Z" fill="#FFCE00"/>
<path d="M53.6472 62.3765C46.7326 62.3765 40.3318 57.8844 38.2124 50.9537C36.9708 46.8466 37.4203 42.5042 39.4541 38.7179C41.4878 34.9317 44.8702 32.1723 48.9804 30.9316C53.0906 29.6909 57.4364 30.1187 61.2469 32.1509C65.036 34.183 67.819 37.5628 69.0607 41.6699C71.6296 50.1622 66.7915 59.1465 58.2927 61.692C56.7513 62.1626 55.1886 62.3765 53.6687 62.3765H53.6472ZM53.6472 31.1455C52.1701 31.1455 50.693 31.3594 49.2373 31.7872C45.3625 32.9637 42.1728 35.5735 40.2461 39.1244C38.3195 42.6967 37.9127 46.7824 39.0901 50.6756C41.5092 58.6545 50.008 63.2108 57.993 60.7936C65.9994 58.3764 70.5592 49.9055 68.1401 41.9052C66.9627 38.0334 64.351 34.8462 60.7759 32.9423C58.5282 31.7444 56.0877 31.1455 53.6258 31.1455H53.6472Z" fill="#2E2138"/>
<path d="M60.5191 44.2153C61.6537 48.0015 59.5129 52.0231 55.7238 53.1568C51.9347 54.2905 47.91 52.1514 46.7754 48.3652C45.6408 44.579 47.7816 40.5574 51.5707 39.4237C55.3599 38.29 59.3845 40.4291 60.5191 44.2153Z" fill="#FFF3F3"/>
<path d="M53.6259 53.9267C50.3505 53.9267 47.2892 51.7876 46.3045 48.4934C45.0843 44.4504 47.3749 40.1936 51.4209 38.9743C55.4669 37.755 59.727 40.0439 60.9472 44.0654C62.1675 48.0869 59.8769 52.3651 55.8308 53.5844C55.103 53.7984 54.3537 53.9053 53.6259 53.9053V53.9267ZM53.6259 39.5733C52.9836 39.5733 52.3414 39.6588 51.6778 39.8513C48.1241 40.9209 46.1118 44.6857 47.1822 48.2153C48.2526 51.7662 51.9989 53.7556 55.5739 52.7074C59.1276 51.6378 61.1399 47.8944 60.0695 44.3435C59.1918 41.4557 56.5159 39.5733 53.6259 39.5733Z" fill="#231815"/>
<path d="M7.42841 6.16064L54.3537 44.9641C55.0816 45.5845 55.1672 46.654 54.5464 47.3813C53.9255 48.1086 52.8552 48.1942 52.1273 47.5738L5.20203 8.77036L7.42841 6.16064Z" fill="#513518"/>
<path d="M53.2405 48.4294C52.7481 48.4294 52.2343 48.2583 51.8276 47.916L4.90231 9.11253C4.90231 9.11253 4.75246 8.92001 4.73105 8.79166C4.73105 8.66331 4.75246 8.55636 4.83809 8.4494L7.06447 5.83968C7.23573 5.64716 7.51403 5.62577 7.70669 5.77551L54.632 44.579C55.5525 45.3705 55.6595 46.7395 54.8675 47.6593C54.4393 48.1513 53.8185 48.4294 53.2191 48.4294H53.2405ZM5.86565 8.70609L52.427 47.2101C52.9622 47.6593 53.7543 47.5951 54.2038 47.0818C54.6534 46.547 54.5892 45.7555 54.0754 45.3063L7.49262 6.80229L5.86565 8.70609Z" fill="#231815"/>
<path d="M62.3815 122.764C61.9962 122.764 61.6322 122.571 61.4396 122.207C61.1613 121.694 61.3539 121.031 61.8677 120.753L93.6151 103.554C93.6151 103.554 93.7649 103.49 93.8506 103.469L126.989 94.4418L160.578 80.4734L190.42 66.12C190.955 65.8633 191.597 66.0772 191.854 66.612C192.111 67.1468 191.897 67.7885 191.362 68.0452L161.477 82.42L127.717 96.4526L94.5784 105.48L62.9381 122.635C62.7668 122.721 62.5956 122.764 62.4243 122.764H62.3815Z" fill="#FF0000"/>
<path d="M188.279 78.0563L186.288 77.2648L190.142 67.4463L180.059 64.3232L180.701 62.291L192.967 66.0986L188.279 78.0563Z" fill="#FF0000"/>
</g>
<defs>
<clipPath id="clip0_526_430">
<rect width="247" height="155" fill="white"/>
</clipPath>
</defs>
</svg>
