<svg width="146" height="120" viewBox="0 0 146 120" fill="none" xmlns="http://www.w3.org/2000/svg">
<g clip-path="url(#clip0_148_220)">
<path d="M101.5 117.13H44.5002V119.494H101.5V117.13Z" fill="#4C86C6"/>
<path d="M102.009 120H43.9913V116.623H102.009V120ZM45.0092 118.987H100.991V117.636H45.0092V118.987Z" fill="#4C86C6"/>
<path d="M139.533 103.002H6.46671C3.18246 103.002 0.508911 100.341 0.508911 97.0728V6.43626C0.508911 3.16765 3.18246 0.506836 6.46671 0.506836H139.533C142.818 0.506836 145.491 3.16765 145.491 6.43626V97.0795C145.491 100.348 142.818 103.009 139.533 103.009V103.002ZM6.46671 2.8705C4.49209 2.8705 2.88389 4.47104 2.88389 6.43626V97.0795C2.88389 99.0447 4.49209 100.645 6.46671 100.645H139.533C141.508 100.645 143.116 99.0447 143.116 97.0795V6.43626C143.116 4.47104 141.508 2.8705 139.533 2.8705H6.46671Z" fill="#4C86C6"/>
<path d="M139.533 103.508H6.46672C2.90426 103.508 0 100.625 0 97.0724V6.43593C0 2.88367 2.89747 0 6.46672 0H139.533C143.096 0 146 2.88367 146 6.43593V97.0792C146 100.625 143.103 103.515 139.533 103.515V103.508ZM6.46672 1.013C3.46068 1.013 1.01785 3.4442 1.01785 6.43593V97.0792C1.01785 100.071 3.46068 102.502 6.46672 102.502H139.533C142.539 102.502 144.982 100.071 144.982 97.0792V6.43593C144.982 3.4442 142.539 1.013 139.533 1.013H6.46672ZM139.533 101.145H6.46672C4.21389 101.145 2.37498 99.3213 2.37498 97.0724V6.43593C2.37498 4.19382 4.2071 2.36367 6.46672 2.36367H139.533C141.786 2.36367 143.625 4.18707 143.625 6.43593V97.0792C143.625 99.3213 141.793 101.151 139.533 101.151V101.145ZM6.46672 3.37667C4.77031 3.37667 3.39282 4.74759 3.39282 6.43593V97.0792C3.39282 98.7675 4.77031 100.138 6.46672 100.138H139.533C141.23 100.138 142.607 98.7675 142.607 97.0792V6.43593C142.607 4.74759 141.23 3.37667 139.533 3.37667H6.46672Z" fill="#4C86C6"/>
<path d="M69.1797 76.2386C56.5177 76.2386 46.2103 65.9871 46.2103 53.3786C46.2103 40.7701 56.5109 30.5186 69.1797 30.5186H70.3672V52.1968H92.1491V53.3786C92.1491 65.9803 81.8485 76.2386 69.1797 76.2386ZM67.9922 32.9227C57.1894 33.5373 48.5852 42.4787 48.5852 53.3853C48.5852 64.292 57.8205 73.8817 69.1797 73.8817C80.5389 73.8817 89.1227 65.3252 89.7402 54.5672H67.9922V32.9227Z" fill="#4C86C6"/>
<path d="M69.1797 76.7448C56.2327 76.7448 45.7014 66.2636 45.7014 53.3783C45.7014 40.4929 56.2327 30.0117 69.1797 30.0117H70.8761V51.6899H92.658V53.3783C92.658 66.2636 82.1267 76.7448 69.1797 76.7448ZM69.1797 31.0315C56.7959 31.0315 46.7192 41.0602 46.7192 53.385C46.7192 65.7098 56.7959 75.7386 69.1797 75.7386C81.5635 75.7386 91.6402 65.7098 91.6402 53.385V52.7097H69.8583V31.0315H69.1797ZM69.1797 74.3811C57.5423 74.3811 48.0763 64.9602 48.0763 53.3783C48.0763 41.7963 56.8095 33.044 67.9583 32.4092L68.4943 32.3821V54.0536H90.2695L90.2423 54.5871C89.6045 65.6828 80.3489 74.3744 69.1729 74.3744L69.1797 74.3811ZM67.4833 33.4627C57.1284 34.3271 49.0942 42.9714 49.0942 53.3783C49.0942 64.3997 58.1055 73.3681 69.1797 73.3681C79.6364 73.3681 88.322 65.3722 89.1906 55.0666H67.4833V33.4627Z" fill="#4C86C6"/>
<path d="M99.7897 46.8417H75.6328V22.7998H76.8203C89.4823 22.7998 99.7897 33.0514 99.7897 45.6598V46.8417ZM78.0078 44.478H97.3808C96.7837 34.1184 88.4238 25.7915 78.0078 25.1972V44.478Z" fill="#4C86C6"/>
<path d="M100.299 47.3478H75.1239V22.293H76.8203C89.7673 22.293 100.299 32.7741 100.299 45.6595V47.3478ZM76.1417 46.3348H99.2808V45.6595C99.2808 33.3347 89.2041 23.306 76.8203 23.306H76.1417V46.3348ZM97.9169 44.9842H77.4989V24.6634L78.0349 24.6972C88.7427 25.305 97.2723 33.8007 97.883 44.4507L97.9169 44.9842ZM78.5167 43.9712H96.8312C96.0169 34.2599 88.2745 26.5543 78.5167 25.7439V43.9712Z" fill="#4C86C6"/>
<path d="M81.5802 101.342L79.4133 102.31L86.8452 118.798L89.0122 117.831L81.5802 101.342Z" fill="#4C86C6"/>
<path d="M86.5917 119.466L78.7407 102.049L81.8349 100.665L89.6859 118.082L86.5917 119.466ZM80.091 102.563L87.1074 118.129L88.3424 117.575L81.326 102.009L80.091 102.563Z" fill="#4C86C6"/>
<path d="M64.4154 101.331L56.9835 117.82L59.1504 118.788L66.5824 102.299L64.4154 101.331Z" fill="#4C86C6"/>
<path d="M59.4083 119.466L56.3141 118.082L64.1651 100.665L67.2593 102.049L59.4083 119.466ZM57.6576 117.575L58.8926 118.129L65.909 102.563L64.674 102.009L57.6576 117.575Z" fill="#4C86C6"/>
<path d="M144.31 87.6514H1.70319V90.015H144.31V87.6514Z" fill="#4C86C6"/>
<path d="M144.819 90.5212H1.19427V87.1445H144.819V90.5212ZM2.21212 89.5082H143.801V88.1575H2.21212V89.5082Z" fill="#4C86C6"/>
<path d="M73.0068 99.4766C70.7743 99.4766 68.9557 97.6667 68.9557 95.4448C68.9557 93.223 70.7743 91.4131 73.0068 91.4131C75.2393 91.4131 77.0578 93.223 77.0578 95.4448C77.0578 97.6667 75.2393 99.4766 73.0068 99.4766ZM73.0068 93.7835C72.0839 93.7835 71.3307 94.5331 71.3307 95.4516C71.3307 96.37 72.0839 97.1197 73.0068 97.1197C73.9296 97.1197 74.6828 96.37 74.6828 95.4516C74.6828 94.5331 73.9296 93.7835 73.0068 93.7835Z" fill="#4C86C6"/>
<path d="M73.0068 99.9827C70.4961 99.9827 68.4468 97.95 68.4468 95.4445C68.4468 92.939 70.4893 90.9062 73.0068 90.9062C75.5243 90.9062 77.5667 92.939 77.5667 95.4445C77.5667 97.95 75.5243 99.9827 73.0068 99.9827ZM73.0068 91.926C71.0525 91.926 69.4647 93.5063 69.4647 95.4512C69.4647 97.3962 71.0525 98.9765 73.0068 98.9765C74.9611 98.9765 76.5489 97.3962 76.5489 95.4512C76.5489 93.5063 74.9611 91.926 73.0068 91.926ZM73.0068 97.6191C71.8057 97.6191 70.8218 96.6466 70.8218 95.4445C70.8218 94.2424 71.7989 93.2699 73.0068 93.2699C74.2146 93.2699 75.1918 94.2424 75.1918 95.4445C75.1918 96.6466 74.2146 97.6191 73.0068 97.6191ZM73.0068 94.2897C72.3622 94.2897 71.8397 94.8097 71.8397 95.4512C71.8397 96.0928 72.3622 96.6128 73.0068 96.6128C73.6514 96.6128 74.1739 96.0928 74.1739 95.4512C74.1739 94.8097 73.6514 94.2897 73.0068 94.2897Z" fill="#4C86C6"/>
<path d="M144.297 9.58984H1.69641V11.9535H144.297V9.58984Z" fill="#4C86C6"/>
<path d="M144.806 12.4597H1.1875V9.08301H144.806V12.4597ZM2.20535 11.4467H143.788V10.096H2.20535V11.4467Z" fill="#4C86C6"/>
</g>
<defs>
<clipPath id="clip0_148_220">
<rect width="146" height="120" fill="white"/>
</clipPath>
</defs>
</svg>
