<svg width="116" height="95" viewBox="0 0 116 95" fill="none" xmlns="http://www.w3.org/2000/svg">
<g clip-path="url(#clip0_526_672)">
<path d="M63.7491 80.458L69.8704 94.3207L45.3702 94.0489L51.8256 81.5453L63.7491 80.458Z" fill="#12B512"/>
<path d="M0.182251 70.9746H115.62V76.9244C115.62 79.4764 113.539 81.5453 110.972 81.5453H5.24026C2.44544 81.5453 0.182251 79.2952 0.182251 76.5167V70.9746Z" fill="#12B512"/>
<path d="M115.62 7.55053H0.182248C0.121491 7.32402 -0.683537 3.8206 1.70117 1.51016C2.79479 0.437992 4.08587 0.120872 4.73901 6.48e-05C40.6919 0.0453676 76.6295 0.105771 112.582 0.151074C113.327 -0.120743 113.813 0.0151657 114.101 0.151074C115.514 0.845717 116.243 3.8206 115.62 7.55053Z" fill="#12B512"/>
<path d="M114.861 8.30566H0.941711V70.9746H114.861V8.30566Z" fill="#FDFFF3"/>
<path d="M80.9129 94.9997H35.0871C34.7073 94.9997 34.4036 94.6977 34.4036 94.3202C34.4036 93.9426 34.7073 93.6406 35.0871 93.6406H80.9129C81.2927 93.6406 81.5964 93.9426 81.5964 94.3202C81.5964 94.6977 81.2927 94.9997 80.9129 94.9997Z" fill="black"/>
<path d="M111.474 81.7565H4.5112C2.02016 81.7565 0 79.7481 0 77.2715V4.48498C0 2.00842 2.02016 0 4.5112 0H111.474C113.965 0 116 2.00842 116 4.48498V77.2715C116 79.7481 113.98 81.7565 111.489 81.7565H111.474ZM4.5112 1.35908C2.77963 1.35908 1.36703 2.76347 1.36703 4.48498V77.2715C1.36703 78.993 2.77963 80.4125 4.52638 80.4125H111.489C113.22 80.4125 114.648 79.0081 114.648 77.2715V4.48498C114.648 2.76347 113.236 1.35908 111.489 1.35908H4.5112Z" fill="black"/>
<path d="M54.9242 24.7803C45.2487 24.7803 37.4111 32.5724 37.4111 42.1917C37.4111 51.811 45.2487 59.603 54.9242 59.603C64.5998 59.603 72.4374 51.811 72.4374 42.1917H54.9242V24.7803Z" fill="#FEC100"/>
<path d="M54.9242 60.2673C44.8993 60.2673 36.7275 52.1581 36.7275 42.1764C36.7275 32.1947 44.8841 24.1006 54.9242 24.1006H55.6077V41.512H73.1209V42.1915C73.1209 52.1581 64.9643 60.2824 54.9242 60.2824V60.2673ZM54.2407 25.4748C45.2791 25.8372 38.0946 33.1914 38.0946 42.1915C38.0946 51.1917 45.6436 58.9234 54.9242 58.9234C64.2048 58.9234 71.3741 51.7806 71.7387 42.8711H54.2407V25.4748Z" fill="white"/>
<path d="M55.6077 24.101H54.9242C44.8993 24.101 36.7275 32.2102 36.7275 42.1769C36.7275 52.1435 44.8841 60.2678 54.9242 60.2678C64.9643 60.2678 73.1209 52.1586 73.1209 42.1769V41.4973H55.6077V24.0859V24.101ZM54.9242 58.9087C45.6436 58.9087 38.0946 51.4035 38.0946 42.1769C38.0946 32.9502 45.2791 25.8225 54.2407 25.4601V42.8564H71.7387C71.3741 51.766 63.977 58.9087 54.9242 58.9087Z" fill="black"/>
<path d="M61.0758 18.5742V35.9856H78.589C78.589 26.3663 70.7513 18.5742 61.0758 18.5742Z" fill="#FF6400"/>
<path d="M79.2573 36.6655H60.3923V17.9102H61.0758C71.1007 17.9102 79.2725 26.0194 79.2725 36.0011V36.6806L79.2573 36.6655ZM61.7593 35.3064H77.8902C77.5409 26.6234 70.4931 19.6166 61.7593 19.2692V35.3064Z" fill="black"/>
<path d="M70.0071 95C69.7488 95 69.4906 94.849 69.3843 94.5923L63.4149 81.3488C63.263 81.0014 63.4149 80.6088 63.7643 80.4578C64.1136 80.3068 64.5086 80.4578 64.6605 80.8051L70.6298 94.0487C70.7817 94.396 70.6298 94.7886 70.2805 94.9396C70.1893 94.9849 70.0982 95 70.0071 95Z" fill="black"/>
<path d="M45.9929 95C45.9018 95 45.8106 94.9849 45.7195 94.9396C45.3701 94.7886 45.2182 94.3809 45.3701 94.0487L51.3395 80.8051C51.4914 80.4578 51.9015 80.3068 52.2357 80.4578C52.585 80.6088 52.7369 81.0165 52.585 81.3488L46.6157 94.5923C46.5093 94.849 46.2511 95 45.9929 95Z" fill="black"/>
<path d="M115.316 71.3366H0.683514C0.303784 71.3366 0 71.0346 0 70.6571C0 70.2796 0.303784 69.9775 0.683514 69.9775H115.316C115.696 69.9775 116 70.2796 116 70.6571C116 71.0346 115.696 71.3366 115.316 71.3366Z" fill="black"/>
<path d="M58.0076 78.9323C56.3672 78.9323 55.0305 77.6034 55.0305 75.9725C55.0305 74.3416 56.3672 73.0127 58.0076 73.0127C59.648 73.0127 60.9847 74.3416 60.9847 75.9725C60.9847 77.6034 59.648 78.9323 58.0076 78.9323ZM58.0076 74.3567C57.1114 74.3567 56.3824 75.0815 56.3824 75.9574C56.3824 76.8332 57.1114 77.5732 58.0076 77.5732C58.9038 77.5732 59.6177 76.8483 59.6177 75.9574C59.6177 75.0664 58.8886 74.3567 58.0076 74.3567Z" fill="black"/>
<path d="M115.301 8.65303H0.683514C0.303784 8.65303 0 8.35101 0 7.97349C0 7.59596 0.303784 7.29395 0.683514 7.29395H115.301C115.681 7.29395 115.985 7.59596 115.985 7.97349C115.985 8.35101 115.681 8.65303 115.301 8.65303Z" fill="black"/>
</g>
<defs>
<clipPath id="clip0_526_672">
<rect width="116" height="95" fill="white"/>
</clipPath>
</defs>
</svg>
