<svg width="262" height="77" viewBox="0 0 262 77" fill="none" xmlns="http://www.w3.org/2000/svg">
<g clip-path="url(#clip0_721_9165)">
<path d="M38.8152 0.297852C17.7335 0.297852 0.639038 17.3923 0.639038 38.4969C0.639038 59.6015 17.7335 76.673 38.8152 76.673C59.9197 76.673 77.0142 59.5785 77.0142 38.4969C77.0142 17.4152 59.9197 0.297852 38.8152 0.297852Z" fill="white"/>
<path d="M38.8151 0C17.596 0 0.341125 17.2778 0.341125 38.4969C0.341125 59.7161 17.596 76.9938 38.8151 76.9938C60.0343 76.9938 77.3121 59.7161 77.3121 38.4969C77.3121 17.2778 60.0572 0 38.8151 0ZM0.936911 38.4969C0.936911 17.5986 17.9397 0.618701 38.8151 0.595786C59.7135 0.595786 76.6934 17.5986 76.6934 38.474C76.6934 59.3494 59.6906 76.3522 38.8151 76.3522C17.9397 76.3752 0.936911 59.3723 0.936911 38.4969Z" fill="#231815"/>
<path d="M18.2376 17.8964C12.7381 23.3959 9.71332 30.7058 9.71332 38.4739C9.71332 54.5372 22.7748 67.5986 38.8381 67.5986C54.9014 67.5986 67.9628 54.5372 67.9628 38.4739C67.9628 22.4106 54.9014 9.34912 38.8381 9.34912C31.047 9.34912 23.7372 12.3739 18.2376 17.8734V17.8964ZM10.3091 38.4739C10.3091 30.8662 13.2651 23.6938 18.6501 18.3088C24.0351 12.9238 31.1845 9.94491 38.8152 9.94491C54.5347 9.94491 67.3441 22.7314 67.3441 38.451C67.3441 54.1705 54.5577 66.957 38.8152 66.957C23.0727 66.957 10.3091 54.1705 10.3091 38.451V38.4739Z" fill="#231815"/>
<path d="M2.54098 35.7241L2.44932 38.5884C2.4264 39.3675 2.65555 40.0092 3.11385 40.5133L3.20551 40.6049C3.70963 41.0862 4.44291 41.3611 5.3595 41.3841C6.39067 41.407 7.14686 41.132 7.65099 40.5362C8.01762 40.1237 8.20094 39.6196 8.22386 39.0467C8.22386 39.0467 8.31552 35.9532 8.31552 35.8845C8.24677 35.8845 2.60972 35.7012 2.54098 35.7012V35.7241ZM7.46767 38.1989C7.46767 38.8634 7.19269 39.3675 6.71148 39.6425C6.34484 39.8488 5.90946 39.9404 5.33659 39.9175C4.7408 39.9175 4.23668 39.7571 3.89295 39.505C3.43466 39.1842 3.20551 38.6801 3.22842 38.0156L3.25134 37.6489L3.29717 37.2365C3.29717 37.2365 3.36591 37.1448 3.41174 37.1448L7.37601 37.2594C7.37601 37.2594 7.49058 37.3281 7.49058 37.374L7.44475 38.1989H7.46767Z" fill="#231815"/>
<path d="M8.68217 43.4463C8.68217 43.4463 2.67848 42.5068 2.5639 42.4839C2.5639 42.5755 2.72431 43.2401 2.74722 43.2859C2.79305 43.2859 4.32835 43.538 4.32835 43.538L4.37418 43.6296L4.8783 45.944C4.8783 45.944 4.8783 46.0357 4.83247 46.0586C4.83247 46.0586 3.57216 46.8835 3.52633 46.9064C3.52633 46.9523 3.8013 48.1668 3.82422 48.2584C3.91588 48.1897 8.98006 44.9129 9.02589 44.867C9.02589 44.8212 8.72799 43.4921 8.72799 43.4463H8.68217ZM7.62808 44.1338C7.62808 44.1338 7.62808 44.2254 7.58225 44.2483L5.65741 45.5086C5.65741 45.5086 5.58866 45.5316 5.54283 45.5086C5.51992 45.5086 5.497 45.4628 5.47409 45.4399L5.13037 43.8359C5.13037 43.8359 5.13037 43.7671 5.17619 43.7213C5.17619 43.6984 5.22202 43.6755 5.26785 43.6984L7.53642 44.0421C7.53642 44.0421 7.62808 44.0879 7.62808 44.1338Z" fill="#231815"/>
<path d="M5.38242 50.7104V50.6187L5.45117 50.55L6.98646 49.9313C6.98646 49.9313 7.07812 49.9313 7.10103 49.9313V49.9771C7.10103 49.9771 7.81139 51.7186 7.85722 51.7874C7.92597 51.7645 8.43009 51.5582 8.47592 51.5353C8.40718 51.3291 7.74265 49.725 7.74265 49.725V49.6334L7.81139 49.5876L9.18628 49.0376C9.18628 49.0376 9.25503 49.0376 9.30086 49.0376H9.34669C9.34669 49.0376 10.1945 51.2145 10.2175 51.3062C10.2862 51.2832 10.882 51.0541 10.9507 51.0312C10.9278 50.9624 9.53001 47.5023 9.50709 47.4106C9.43835 47.4336 4.21376 49.5188 4.14502 49.5646C4.16793 49.6334 4.90121 51.4666 4.90121 51.4666C4.90121 51.4666 5.63448 53.2768 5.6574 53.3685C5.72614 53.3456 6.29901 53.0935 6.36776 53.0706C6.34484 53.0019 5.40534 50.6646 5.40534 50.6646L5.38242 50.7104Z" fill="#231815"/>
<path d="M10.2404 56.5306L8.68215 57.5388C8.63632 57.5617 8.59049 57.5617 8.56758 57.5388H8.54466V57.5159C8.15511 56.9201 8.01762 56.3243 8.15511 55.7973C8.2926 55.2703 8.65924 54.789 9.27794 54.3995C9.80498 54.0558 10.332 53.8954 10.8132 53.9412C11.1111 53.9641 11.409 54.0558 11.6382 54.2391C11.8673 54.3995 12.0735 54.6057 12.2569 54.9036C12.4173 55.1557 12.5548 55.4307 12.6693 55.7286C12.6693 55.7286 12.8756 56.3931 12.8985 56.4847C12.9901 56.4389 13.6088 56.0264 13.6547 56.0035C13.4255 55.4307 13.1047 54.812 12.7152 54.1933C12.4173 53.7579 12.0965 53.3912 11.7298 53.1392C11.4319 52.9329 11.134 52.7955 10.7903 52.7267C10.0341 52.5434 9.23211 52.7038 8.453 53.2308C7.65098 53.735 7.16977 54.3995 7.03228 55.1786C6.89479 55.9348 7.10103 56.7139 7.60515 57.5159C8.01762 58.1346 8.453 58.6617 8.93421 59.097C8.98004 59.0741 10.9507 57.7909 11.0195 57.7451C10.9736 57.6763 10.3091 56.6451 10.2633 56.5764L10.2404 56.5306Z" fill="#231815"/>
<path d="M14.7546 63.1075C14.7546 63.1075 17.5044 60.7244 17.5502 60.6785C17.5044 60.6327 16.8399 59.8536 16.794 59.7849C16.6107 59.9453 14.1359 62.0993 14.1359 62.0993C13.7005 62.4659 13.3339 62.6721 13.0131 62.6951C12.7839 62.6951 12.5548 62.6492 12.3715 62.5117L12.1423 62.3055C11.8444 61.9618 11.7757 61.641 11.8673 61.2972C11.9819 60.9994 12.2569 60.6327 12.7152 60.2432C12.7152 60.2432 15.19 58.0892 15.2587 58.0433C15.19 57.9746 14.4109 57.058 14.3421 56.9893C14.0442 57.2642 11.5465 59.4182 11.5465 59.4182C10.9737 59.8994 10.6987 60.4723 10.7216 61.0681C10.7445 61.6181 10.9966 62.1909 11.5007 62.7638C11.7069 62.9929 11.9132 63.1992 12.1194 63.3367C12.4402 63.5658 12.7839 63.7033 13.1047 63.7491C13.6318 63.795 14.1817 63.5887 14.7317 63.1075H14.7546Z" fill="#231815"/>
<path d="M22.5915 68.6301C22.5915 68.6301 24.5163 65.5595 24.5392 65.4907C24.4705 65.4449 23.6226 64.9179 23.5539 64.872C23.4393 65.0783 21.6978 67.8739 21.6978 67.8739C21.377 68.3551 21.102 68.653 20.8041 68.7905C20.5062 68.9051 20.1854 68.8592 19.8417 68.653C19.4751 68.4238 19.2917 68.1259 19.2917 67.7822C19.2917 67.4614 19.4751 67.026 19.7959 66.499C19.7959 66.499 21.5374 63.7034 21.5832 63.6346C21.5145 63.5888 20.4604 62.9472 20.4146 62.9014C20.1854 63.2451 18.4668 66.0178 18.4439 66.0407C18.0543 66.6823 17.9398 67.301 18.146 67.8739C18.3293 68.4009 18.7418 68.8592 19.4063 69.2717C20.0938 69.6842 20.6895 69.8446 21.2395 69.73C21.7436 69.6383 22.2019 69.2488 22.5915 68.6301Z" fill="#231815"/>
<path d="M29.0763 67.4841C28.9847 67.7132 27.7015 70.7151 27.7015 70.7151C27.6785 70.7609 27.5869 70.8755 27.541 70.8525C27.4952 70.8525 27.4952 70.6921 27.4952 70.6921C27.4952 70.6921 26.5557 66.4758 26.5328 66.43C26.5099 66.43 25.5245 65.9946 25.4558 65.9717C25.4329 66.0404 24.333 68.6298 24.333 68.6298C24.333 68.6298 23.2331 71.2192 23.2101 71.2879C23.2789 71.3108 24.058 71.6546 24.1038 71.6775C24.1955 71.4712 25.4787 68.4465 25.4787 68.4465C25.4787 68.4007 25.5704 68.309 25.6162 68.309C25.662 68.309 25.6849 68.4694 25.6849 68.4694C25.6849 68.4694 26.6245 72.7086 26.6474 72.7316C26.6703 72.7316 27.6327 73.144 27.7244 73.1899C27.7473 73.1211 29.9242 67.9194 29.97 67.8507C29.9013 67.8278 29.1222 67.4841 29.0763 67.4611V67.4841Z" fill="#231815"/>
<path d="M30.9325 68.2173L30.245 71.0358C30.245 71.0358 29.5805 73.7627 29.5347 73.8543C29.6034 73.8543 30.8179 74.1751 30.8866 74.1981C30.8866 74.1064 32.2615 68.6527 32.2844 68.5839C32.2157 68.5839 31.0241 68.2631 30.9325 68.2402V68.2173Z" fill="#231815"/>
<path d="M37.8986 69.1112C37.7611 69.4091 35.9738 73.2588 35.9738 73.2588C35.9738 73.3046 35.905 73.3275 35.8592 73.3275H35.8363L35.7675 73.2588C35.7675 73.2588 34.6218 68.8821 34.5989 68.8362C34.553 68.8362 33.2698 68.7216 33.1323 68.6987C33.1552 68.8133 34.6905 74.5878 34.7134 74.6566C34.7593 74.6566 36.0883 74.7941 36.1571 74.7941C36.1571 74.7482 38.6548 69.3174 38.7235 69.2029C38.6319 69.2029 37.9444 69.1341 37.8986 69.1341V69.1112Z" fill="#231815"/>
<path d="M43.1232 71.3107C42.894 71.3107 41.1983 71.494 41.1983 71.494C41.1983 71.494 41.1525 71.494 41.1296 71.494L41.0838 71.4024L40.9463 69.9358C40.9463 69.9358 40.9921 69.8212 41.0379 69.8212C41.0379 69.8212 43.3294 69.5921 43.4211 69.5921C43.4211 69.5233 43.3523 68.8817 43.3523 68.813C43.2607 68.813 39.5714 69.1796 39.4797 69.1796C39.4797 69.2713 39.7547 72.0669 39.7547 72.0669C39.7547 72.0669 40.0297 74.8625 40.0297 74.9542C40.1214 74.9542 44.0169 74.5875 44.0856 74.5646C44.0856 74.4959 44.0169 73.8543 44.0169 73.7855C43.7877 73.8084 41.4504 74.0376 41.4504 74.0376C41.4504 74.0376 41.4046 74.0376 41.3817 74.0376L41.3358 73.9688L41.1754 72.319C41.1754 72.319 41.1984 72.2044 41.2671 72.2044C41.2671 72.2044 43.1232 72.0211 43.1919 72.0211C43.1919 71.9523 43.1461 71.4024 43.1461 71.3336L43.1232 71.3107Z" fill="#231815"/>
<path d="M49.0581 69.7984C49.1727 69.4547 49.1956 69.1339 49.1039 68.7902C48.9893 68.3548 48.7602 68.0569 48.3477 67.8736C48.0269 67.7361 47.6603 67.7132 47.2707 67.8278C47.2707 67.8278 44.6814 68.4923 44.6126 68.5152C44.6355 68.5839 46.0562 74.0377 46.0792 74.1064C46.1708 74.1064 47.2478 73.8085 47.3166 73.7856C47.2707 73.5794 46.7437 71.5629 46.7437 71.5629V71.4712L46.8354 71.4254L47.3853 71.2879H47.454C47.454 71.2879 49.2414 73.2127 49.2872 73.2357C49.3331 73.2357 50.7538 72.8461 50.8913 72.8232C50.7767 72.7315 48.4852 70.7379 48.4852 70.7379C48.4623 70.7379 48.4394 70.6921 48.4394 70.6463C48.4394 70.6234 48.4394 70.5775 48.4852 70.5546C48.7602 70.3484 48.9435 70.0505 49.0581 69.7297V69.7984ZM47.1562 70.6692L46.6291 70.8067H46.5375L46.4916 70.7379L46.0562 69.0652V68.9735L46.125 68.9277L46.6062 68.7902C46.9728 68.6985 47.2478 68.6985 47.4311 68.7902C47.6145 68.8818 47.729 69.0422 47.7749 69.2943C47.8436 69.5693 47.8436 69.8213 47.7519 70.0734C47.6374 70.3713 47.4311 70.5775 47.1332 70.6463L47.1562 70.6692Z" fill="#231815"/>
<path d="M54.0994 68.3319C53.8931 68.2861 53.389 68.2403 52.5641 68.2174C52.2662 68.2174 52.037 68.1715 51.8766 68.1028C51.6933 68.0341 51.5558 67.9195 51.4871 67.8049C51.3954 67.6216 51.4183 67.4154 51.5558 67.2091C51.6704 67.0716 51.8079 66.9341 51.9912 66.8425C52.1974 66.7279 52.4495 66.6592 52.7245 66.5904C52.7245 66.5904 53.2973 66.4758 53.389 66.4758C53.3432 66.3842 53.0224 65.7426 52.9995 65.6738C52.9078 65.6967 52.1974 65.9259 52.1974 65.9259L51.4183 66.2696C50.9142 66.5217 50.5476 66.8425 50.3184 67.232C50.0664 67.6674 50.0664 68.1257 50.2955 68.584C50.5247 69.0423 50.9142 69.3402 51.4642 69.4548C51.6016 69.4777 52.1058 69.5235 52.9536 69.5923C53.5494 69.6381 53.8931 69.7756 54.0306 70.0506C54.1681 70.3255 54.1223 70.5547 53.939 70.7838C53.8244 70.9442 53.6182 71.1046 53.3661 71.2192C53.114 71.3338 52.862 71.4484 52.587 71.5171C52.587 71.5171 51.9683 71.6088 51.8766 71.6317C51.9225 71.7233 52.2662 72.4337 52.2891 72.4795C52.4495 72.4108 53.114 72.1816 53.114 72.1816L53.916 71.815C54.7181 71.4255 55.2222 70.9213 55.3826 70.3714C55.4972 70.0047 55.4513 69.6381 55.268 69.2485C55.0618 68.8361 54.741 68.5611 54.3056 68.4007C54.2139 68.3778 54.1452 68.3549 54.0535 68.3319H54.0994Z" fill="#231815"/>
<path d="M54.466 64.9403C54.466 64.9403 57.422 69.8212 57.4678 69.8899C57.5366 69.8441 58.5907 69.2254 58.6594 69.1796C58.6136 69.1108 55.7034 64.2987 55.6576 64.23C55.5888 64.2758 54.5577 64.8945 54.466 64.9403Z" fill="#231815"/>
<path d="M56.895 64.0239C56.895 64.0239 57.1012 64.2759 57.147 64.3218C57.3075 64.1843 58.7282 62.9927 58.7282 62.9927C58.7511 62.9698 58.7969 62.9469 58.8427 62.9927H58.8886C58.8886 62.9927 61.9592 66.7278 62.0279 66.7966C62.0966 66.7507 63.0362 65.9487 63.1049 65.9029C63.0591 65.8341 59.9885 62.1449 59.9885 62.1449V62.0532V61.9845C59.9885 61.9845 61.5238 60.7241 61.5696 60.6783C61.5238 60.6325 61.1113 60.1283 61.0655 60.0825C60.9967 60.1283 56.7117 63.6801 56.6658 63.7489C56.7117 63.7947 56.9179 64.0468 56.9179 64.0468L56.895 64.0239Z" fill="#231815"/>
<path d="M65.2131 58.4786C65.2131 58.4786 65.2131 58.5473 65.2131 58.5932C65.1902 58.6161 65.1443 58.639 65.0985 58.639C65.0985 58.639 62.4862 58.2724 62.4404 58.2724C62.4175 58.3182 61.6155 59.3264 61.5238 59.441C62.2571 59.5556 65.2589 59.968 65.3735 59.991C65.3735 59.991 67.2067 61.4346 67.2754 61.4804C67.3213 61.4117 68.1004 60.4493 68.1233 60.3805C67.5275 59.9222 66.2213 58.8911 66.1984 58.8452C66.1984 58.8452 64.8694 55.3851 64.8006 55.2705C64.709 55.3622 64.2507 55.958 64.2278 55.9809C64.2278 56.0267 65.1902 58.4786 65.1902 58.4786H65.2131Z" fill="#231815"/>
<path d="M66.9316 52.7038C66.9316 52.7038 66.9316 52.7038 66.9546 52.7038C67.0004 52.6121 67.2754 52.0851 67.2754 52.0851L67.3441 52.0393C67.3441 52.0393 67.3899 52.0393 67.4129 52.0393C67.4129 52.0393 71.5375 54.1245 71.6063 54.1703C71.6292 54.1016 72.1333 53.1392 72.1562 53.0704C72.0875 53.0475 67.2525 50.5956 67.1837 50.5498C67.1608 50.6185 66.4963 52.383 66.4504 52.4517C66.5192 52.4747 66.9087 52.7038 66.9087 52.7038H66.9316Z" fill="#231815"/>
<path d="M68.1232 47.1357C67.8941 47.8002 67.9399 48.396 68.2607 48.9001C68.5127 49.3126 68.8336 49.5875 69.2689 49.725C69.7043 49.8854 70.1626 49.8625 70.5522 49.6563C70.9417 49.4501 71.2396 49.1063 71.3771 48.6709C71.4459 48.4418 71.4917 48.2127 71.4688 47.9835C71.4688 47.7314 71.3771 47.5481 71.2396 47.3648L70.9188 46.9753L71.4 47.1357C71.8125 47.2731 72.1562 47.5023 72.4312 47.8002C72.8437 48.2356 72.9582 48.7397 72.752 49.2667C72.6833 49.4959 72.5687 49.725 72.4312 49.9542C72.4312 49.9542 72.1104 50.3666 72.0416 50.4354C72.1333 50.4583 72.7062 50.6645 72.7749 50.6875C73.0499 50.2292 73.302 49.7479 73.4394 49.2667C73.7144 48.4418 73.6457 47.7544 73.2332 47.1127C72.8666 46.5399 72.2708 46.1274 71.4917 45.8524C70.6897 45.5774 69.9564 45.5545 69.3606 45.7837C68.7419 46.0128 68.3294 46.4711 68.1003 47.1586L68.1232 47.1357ZM70.1626 46.7919C70.4376 46.8836 70.6438 47.044 70.8042 47.2502C70.9876 47.5023 71.0334 47.7544 70.9417 48.0293C70.8271 48.3272 70.6209 48.5105 70.323 48.5564C70.0939 48.6022 69.8189 48.5793 69.521 48.4876C69.2231 48.396 69.0169 48.2356 68.8565 48.0293C68.6961 47.8231 68.6502 47.571 68.7648 47.2731C68.8565 46.9752 69.0627 46.7919 69.3835 46.7232C69.6356 46.6544 69.9106 46.6774 70.1855 46.769L70.1626 46.7919Z" fill="#231815"/>
<path d="M71.9729 41.5901C71.6292 42.0025 71.3771 42.5067 71.2626 43.1254L71.2167 43.4004L71.1709 43.4691H71.1022L70.1856 43.1712C70.1397 43.1712 70.0939 43.1025 70.1168 43.0566C70.1168 43.0566 70.5522 40.6964 70.5522 40.6047C70.4835 40.6047 69.7044 40.4443 69.6585 40.4443C69.6585 40.5131 69.3836 41.9796 69.3836 41.9796C69.3836 41.9796 69.0627 43.7212 69.0627 43.7899C69.1315 43.7899 71.675 44.2711 71.7667 44.2711L71.7896 43.9732C71.8813 43.4462 72.0417 43.0337 72.225 42.7817C72.5 42.3921 72.8666 42.2546 73.3249 42.3463C73.6228 42.415 73.829 42.5525 73.9894 42.7587C74.1269 42.9879 74.1728 43.2399 74.1269 43.5149C74.1269 43.6295 74.0353 43.9503 73.8978 44.2482C73.8978 44.2482 73.6915 44.6607 73.6457 44.7294C73.7374 44.7294 74.3102 44.844 74.3561 44.8669C74.379 44.7752 74.631 44.2024 74.631 44.2024L74.8144 43.5149C74.9289 42.8046 74.8602 42.2088 74.6081 41.7505C74.379 41.3838 74.0582 41.1318 73.6228 41.0401C73.5999 41.0401 73.5541 41.0401 73.5082 41.0401C72.9354 40.9255 72.4312 41.1318 71.9958 41.613L71.9729 41.5901Z" fill="#231815"/>
<path d="M71.9729 35.5407C71.675 35.9073 71.5605 36.2969 71.6063 36.7552C71.6063 37.0073 71.698 37.2364 71.8125 37.4655C71.9271 37.6718 72.0875 37.8093 72.2479 37.9238C72.4083 38.0155 72.5458 38.0842 72.5458 38.0842V38.1301L72.225 38.2217C71.7896 38.2676 71.4001 38.2217 71.0105 38.0613C70.4605 37.8322 70.1397 37.4197 70.0939 36.8698C70.071 36.6177 70.0939 36.3656 70.1168 36.1136C70.1168 36.1136 70.2543 35.6094 70.2772 35.5178C70.1856 35.5178 69.5669 35.5865 69.521 35.5865C69.4523 36.1365 69.4523 36.6635 69.4981 37.1677C69.5898 38.0384 69.9564 38.68 70.598 39.0696C71.148 39.3904 71.9042 39.5279 72.7062 39.4591C73.5541 39.3675 74.2186 39.0925 74.654 38.6571C75.1123 38.1988 75.2956 37.6259 75.2268 36.8698C75.1581 36.1594 74.8831 35.6553 74.379 35.3116C73.9894 35.0366 73.577 34.922 73.1416 34.9678C72.6604 35.0137 72.2708 35.2199 71.9958 35.5636L71.9729 35.5407ZM74.1498 36.3198C74.4019 36.4573 74.5394 36.6635 74.5623 36.9843C74.5852 37.2822 74.4936 37.5343 74.2415 37.7405C74.0353 37.9009 73.7832 37.9926 73.4853 38.0155C73.1874 38.0384 72.9354 38.0155 72.6833 37.8551C72.4312 37.7176 72.2937 37.4885 72.2708 37.2135C72.2479 36.8927 72.3625 36.6406 72.6145 36.4573C72.7979 36.3198 73.0728 36.2281 73.3707 36.2052C73.6686 36.1823 73.9436 36.2052 74.1498 36.3427V36.3198Z" fill="#231815"/>
<path d="M5.74904 27.9104C5.70321 28.5978 6.20734 29.2165 6.9177 29.2623C7.60515 29.3082 8.22385 28.804 8.26968 28.1166C8.31551 27.4291 7.81138 26.8334 7.10102 26.7646C6.41358 26.7188 5.81779 27.2229 5.74904 27.9104Z" fill="#231815"/>
<path d="M71.9042 27.9104C71.95 28.5978 71.4459 29.2165 70.7584 29.2623C70.071 29.3082 69.4523 28.804 69.4065 28.1166C69.3606 27.4291 69.8648 26.8334 70.5751 26.7646C71.2626 26.7188 71.8583 27.2229 71.9271 27.9104H71.9042Z" fill="#231815"/>
<path d="M11.9361 15.9944L11.4778 16.636L9.89663 15.4903L9.18627 16.4756L12.2569 18.6984C12.2569 18.6984 12.1881 18.9275 12.1194 19.0879C12.0506 19.2483 11.959 19.4087 11.8215 19.5921L10.8361 20.944L8.40717 19.1796L9.57582 17.5756L9.02587 17.186L7.14685 19.7754L10.057 21.8835C10.2404 22.021 10.4466 22.0669 10.6528 22.021C10.8591 21.9752 11.0424 21.8377 11.2028 21.6086L12.3485 20.0274C12.486 19.8441 12.5777 19.6608 12.6464 19.5004C12.6922 19.34 12.7381 19.2025 12.761 19.065L15.0525 20.7378L15.6483 19.9129C15.6483 19.9129 15.4191 19.5004 14.8921 19.1338L12.0277 17.0714L12.5089 16.4298L16.2211 19.1338L16.8169 18.3088C16.8169 18.3088 16.5878 17.8964 16.0607 17.5297L11.0882 13.9092L10.3778 14.8945L11.959 16.0403L11.9361 15.9944Z" fill="#231815"/>
<path d="M25.9599 7.56166C25.9599 7.42417 25.9599 7.26377 25.9141 7.01171C25.8683 6.78256 25.7995 6.57632 25.7078 6.393L24.6767 4.39941L19.3375 7.10336L19.6354 7.69915L23.8747 5.52224L24.6079 6.96588C24.6996 7.14919 24.7913 7.33251 24.86 7.51583C24.9287 7.69915 24.9746 7.88247 24.9975 8.01996L20.3229 10.4031L20.6208 10.9989L23.3247 9.624L24.6767 12.2821L25.5704 11.8238C25.5704 11.8238 25.5704 11.3426 25.2725 10.7927L24.4017 9.07404L26.3266 8.0887L26.8078 7.83664C27.1057 7.67624 27.2431 7.49292 27.2431 7.49292L26.9911 6.98879L25.9599 7.51583V7.56166Z" fill="#231815"/>
<path d="M41.1525 3.55177H40.3504V1.604H39.1359V5.40787C39.1359 5.40787 38.9068 5.47661 38.7464 5.52244C38.586 5.54536 38.4027 5.56827 38.1735 5.56827H36.5007V2.56643H38.4943V1.9019H35.2863V5.47661C35.2863 5.72867 35.355 5.91199 35.5154 6.04948C35.6758 6.18697 35.882 6.25572 36.1799 6.25572H38.1277C38.3568 6.25572 38.5631 6.2328 38.7235 6.18697C38.8839 6.14114 39.0214 6.0724 39.1359 6.00365V8.84509H40.1442C40.1442 8.84509 40.3275 8.40971 40.3275 7.79101V4.26213H41.1295V8.84509H42.1378C42.1378 8.84509 42.344 8.40971 42.344 7.79101V1.604H41.1295V3.55177H41.1525Z" fill="#231815"/>
<path d="M54.0306 8.845C54.4889 8.6846 54.8785 8.38671 55.0847 7.97424C55.3139 7.53886 55.3368 7.05765 55.1764 6.59935C55.1764 6.5306 55.1305 6.46186 55.0847 6.3702L56.07 6.87433L56.3679 6.30146L54.7868 5.49944L55.0389 4.9724L53.9619 4.42244L53.6869 4.94948L52.1058 4.14746L51.8079 4.72033L52.7703 5.20154C52.2204 5.2932 51.7391 5.63693 51.4871 6.14105C51.2808 6.55352 51.235 7.05765 51.3954 7.51594C51.5787 8.02007 51.9454 8.45545 52.4266 8.70751C52.9307 8.95958 53.4807 9.02832 54.0077 8.845H54.0306ZM52.4266 7.63052C52.3808 7.33262 52.4266 6.96599 52.6099 6.64518C52.7703 6.32437 53.0224 6.04939 53.2974 5.9119C53.5036 5.82024 53.7327 5.79733 53.8931 5.9119C54.0535 6.00356 54.1681 6.16397 54.2139 6.39312C54.2827 6.69101 54.2139 7.05765 54.0306 7.37845C53.7098 7.99715 53.1369 8.34088 52.7474 8.13464C52.587 8.04298 52.4724 7.88258 52.4266 7.65343V7.63052ZM57.1012 8.57002L57.9949 6.8285L56.9179 6.27854L54.9701 10.1053L56.0471 10.6553L56.8033 9.18873L57.2845 9.44079C57.5824 9.60119 57.8345 9.60119 57.8345 9.60119L58.0866 9.09707L57.1012 8.59294V8.57002ZM50.6851 9.07415L54.4202 10.9761L53.5723 12.6489L54.5577 13.153C54.5577 13.153 54.9243 12.8551 55.2222 12.3051L55.8867 10.9761L50.983 8.47837L50.6851 9.07415Z" fill="#231815"/>
<path d="M67.4129 19.7755C66.9775 20.0963 66.6109 20.3484 66.29 20.5088C65.9922 20.6692 65.6943 20.7838 65.3964 20.7838L66.038 21.6545C66.313 21.6545 66.6108 21.5629 66.9546 21.4254C67.2983 21.2879 67.6649 21.0587 68.0545 20.7838L70.2543 19.1797L66.9546 14.6426L66.4046 15.0321L68.994 18.6068L67.4129 19.7526V19.7755Z" fill="#231815"/>
<path d="M66.1984 22.6856L65.6026 21.8836L64.9839 21.0358L64.8235 20.8066L67.1608 19.1109L66.4505 18.1256L64.1131 19.8213L63.7923 19.4088L63.6778 19.2484L66.0151 17.5527L65.3047 16.5674L62.9445 18.2631L62.2112 17.2319L61.6613 17.6215L63.2424 19.7755L65.0756 22.2961L65.3964 22.7315C65.3964 22.7315 65.3964 22.7315 65.3964 22.7544C65.5797 23.0065 65.7859 23.121 65.7859 23.121L66.2442 22.8002L66.1526 22.6856H66.1984Z" fill="#231815"/>
<path d="M46.5603 63.7032C46.6978 63.7032 46.9499 63.6115 46.9728 63.4053C47.0186 61.8471 47.8207 55.3164 55.9554 48.0982C60.653 43.9506 63.9069 40.3301 64.8693 33.4327C64.9151 33.0202 64.8464 32.8369 64.3652 32.814C62.784 32.7453 58.7739 32.2182 55.3138 29.583C55.4055 33.5014 53.6639 38.199 51.3954 41.6133C43.4898 52.2229 28.6868 51.6958 28.6868 51.6958V51.7646C28.893 51.925 29.0763 52.0625 29.2367 52.2C34.2322 57.1266 40.1213 62.8783 46.5833 63.6803L46.5603 63.7032Z" fill="#DFD900"/>
<path d="M55.3138 29.606C52.9994 28.002 51.0287 25.573 49.2643 23.3503C45.4833 18.3319 40.1671 13.474 35.0342 12.3741C34.5988 12.2824 34.2551 12.4428 34.1405 12.7865C33.6822 14.1614 32.2844 17.9424 29.4659 21.5629C28.618 22.6399 26.3495 25.4584 24.6308 27.0625C18.1689 33.0203 14.8462 37.0763 12.8068 42.3925C12.6464 42.7591 12.738 43.1029 13.0818 43.1716C14.6171 43.5382 19.3146 44.8673 24.1267 48.2587C25.2495 49.0378 28.6638 51.6959 28.6638 51.6959C28.6638 51.6959 43.971 54.0332 52.6786 43.3091C55.0617 39.9635 56.1846 34.3952 55.2909 29.5831L55.3138 29.606Z" fill="#6FB92C"/>
<path d="M29.6721 22.2274C29.5117 22.2274 29.3742 22.342 29.3284 22.5253C29.1909 24.2897 27.9764 36.0909 24.2413 47.6171C24.1726 47.8233 24.2413 47.9837 24.4705 47.9837C28.5035 48.0295 49.1268 48.5336 49.1039 33.9598C49.0581 23.2586 34.026 22.1816 29.695 22.2274H29.6721Z" fill="#007A66"/>
<path d="M113.701 22.8919V14.2988H118.994V41.3154C118.994 44.0881 118.146 45.9671 118.146 45.9671H113.678V25.8021H110.172V41.3154C110.172 44.0881 109.324 45.9671 109.324 45.9671H104.856V33.5015C104.352 33.7994 103.733 34.0743 103.023 34.2806C102.289 34.4868 101.418 34.6014 100.41 34.6014H91.8401C90.6485 34.6014 89.6861 34.3035 88.9757 33.7077C88.2654 33.1119 87.9216 32.287 87.9216 31.2329V15.4904H102.014V18.4235H93.2379V31.6683H100.639C101.602 31.6683 102.427 31.5995 103.137 31.462C103.847 31.3246 104.42 31.1642 104.879 30.9808V14.3217H110.195V22.9148H113.701V22.8919Z" fill="#231C1C"/>
<path d="M257.583 14.8716V26.8102C257.583 28.9642 257.377 30.7974 257.01 32.3785C256.621 33.9367 256.094 35.2429 255.429 36.2282H250.709C251.396 35.1741 251.854 33.868 251.992 32.3098C252.152 30.7745 252.244 28.8267 252.244 26.4436V17.8276H232.881V14.8716H257.56H257.583Z" fill="#231C1C"/>
<path d="M259.462 38.2905H260.081V40.7653C260.081 40.7653 259.164 41.1777 257.789 41.2006H229.879V38.2905H235.447V25.5498H240.741V38.2905H243.857V25.5498H249.173V38.2905H259.439H259.462Z" fill="#231C1C"/>
<path d="M228.619 25.3895C228.619 25.3895 227.61 25.8478 226.167 25.8478H223.807V33.066H218.49V14.2529H223.807V22.8918H228.642V25.3895H228.619Z" fill="#231C1C"/>
<path d="M199.654 34.7387H223.784V41.2465C223.784 44.0192 222.913 45.8983 222.913 45.8983H218.101V37.626H199.631V34.7158L199.654 34.7387Z" fill="#231C1C"/>
<path d="M209.37 24.3353C209.37 22.7084 208.912 21.1731 208.11 20.119C207.468 19.2941 206.666 18.8358 205.841 18.8358C205.016 18.8358 204.214 19.2941 203.573 20.119C202.771 21.1731 202.312 22.7084 202.312 24.3353C202.312 25.9623 202.771 27.4976 203.573 28.5746C204.214 29.3995 205.016 29.8349 205.841 29.8349C207.789 29.8349 209.37 27.383 209.37 24.3353ZM212.28 18.9733C213.816 20.4857 214.687 22.4563 214.687 24.5645C214.687 26.6727 213.816 28.6204 212.28 30.1328C210.585 31.7827 208.293 32.6993 205.841 32.6993C203.389 32.6993 201.075 31.7827 199.402 30.1328C197.867 28.6204 196.996 26.6497 196.996 24.5645C196.996 22.0668 198.234 19.8211 200.181 18.3317H195.392V15.5131H203.183V12.8779H208.499V15.5131H216.313V18.3317H211.478C211.753 18.5379 212.005 18.767 212.258 18.9962L212.28 18.9733Z" fill="#231C1C"/>
<path d="M181.07 25.8021V41.3155C181.07 44.0882 180.223 45.9672 180.223 45.9672H175.754V33.5015C175.273 33.7994 174.654 34.0744 173.898 34.2806C173.165 34.4868 172.294 34.6014 171.286 34.6014H162.716C161.524 34.6014 160.562 34.3035 159.851 33.7077C159.164 33.1119 158.797 32.287 158.797 31.2329V15.4904H172.89V18.4235H164.136V31.6683H171.515C172.477 31.6683 173.302 31.5996 174.013 31.4621C174.746 31.3246 175.296 31.1642 175.754 30.9809V14.3218H181.07V22.9148H184.576V14.3218H189.893V41.3384C189.893 44.1111 189.045 45.9901 189.045 45.9901H184.576V25.825H181.07V25.8021Z" fill="#231C1C"/>
<path d="M150.617 29.835H155.704V32.3327C155.704 32.3327 154.695 32.791 153.252 32.791H141.451V41.2924C141.451 44.0651 140.603 45.9441 140.603 45.9441H136.134V32.791H122.89V29.835H145.942C146.194 29.1704 146.354 28.4143 146.446 27.5435C146.515 26.6727 146.561 25.802 146.561 24.9083V17.7818H125.617V14.8716H151.9V24.7479C151.9 25.6416 151.762 26.604 151.51 27.6122C151.258 28.6205 150.96 29.3767 150.64 29.835H150.617Z" fill="#231C1C"/>
<path d="M261.341 51.7876L257.125 58.7995V63.8637H254.604V58.7995L250.571 51.7876H253.344L256.277 56.8976L259.37 51.7876H261.341Z" fill="#231815"/>
<path d="M248.6 51.7876V53.4833H244.269V63.8637H241.749V53.4833H237.418V51.7876H248.6Z" fill="#231815"/>
<path d="M234.302 51.7876H231.781V63.8637H234.302V51.7876Z" fill="#231815"/>
<path d="M227.725 58.7079C228.092 59.2808 228.252 59.8995 228.252 60.564C228.252 61.5723 227.885 62.4201 227.129 63.1076C226.373 63.795 225.159 64.1617 223.532 64.1617C222.569 64.1617 221.401 64.0242 220.117 63.7492V61.6868C221.057 62.0764 221.767 62.3285 222.225 62.3972C222.684 62.466 223.119 62.5118 223.509 62.5118C224.219 62.5118 224.723 62.3514 225.067 62.0535C225.411 61.7327 225.571 61.366 225.571 60.9077C225.571 60.564 225.502 60.2661 225.296 59.9912C225.113 59.7391 224.654 59.3954 223.898 58.96L223.073 58.5017C221.905 57.8601 221.126 57.2643 220.713 56.6914C220.301 56.1644 220.094 55.4998 220.094 54.7895C220.094 53.8958 220.438 53.0938 221.148 52.4522C221.836 51.8106 222.844 51.4897 224.15 51.4897C225.113 51.4897 226.213 51.6272 227.45 51.9022V53.85C226.213 53.3917 225.227 53.1625 224.494 53.1625C223.875 53.1625 223.44 53.2771 223.119 53.5521C222.798 53.8041 222.638 54.125 222.638 54.4916C222.638 54.7895 222.73 55.0415 222.913 55.2936C223.073 55.5457 223.555 55.8894 224.288 56.3019L225.159 56.7831C226.488 57.5164 227.335 58.158 227.702 58.7308L227.725 58.7079Z" fill="#231815"/>
<path d="M213.701 58.2496L217.643 63.8867H214.572L211.57 58.96H210.195V63.8867H207.835V51.8105H212.372C213.289 51.8105 213.976 51.9251 214.48 52.1543C214.961 52.3605 215.351 52.7271 215.626 53.2083C215.924 53.6896 216.061 54.2166 216.061 54.8124C216.061 55.5227 215.855 56.1873 215.443 56.806C215.053 57.4476 214.457 57.9059 213.701 58.2496ZM213.518 55.0874C213.518 54.5832 213.357 54.1937 213.037 53.8958C212.716 53.5979 212.074 53.4604 211.089 53.4604H210.195V57.2872H210.791C211.822 57.2872 212.532 57.058 212.922 56.5997C213.312 56.1644 213.518 55.6373 213.518 55.0874Z" fill="#231815"/>
<path d="M204.512 62.168V63.8637H196.378V51.7876H204.123V53.4833H198.921V56.8059H203.206V58.4787H198.921V62.168H204.512Z" fill="#231815"/>
<path d="M193.284 51.7876L188.93 63.8637H186.432L181.964 51.7876H184.668L188.128 61.1369L191.474 51.7876H193.284Z" fill="#231815"/>
<path d="M178.825 51.7876H176.304V63.8637H178.825V51.7876Z" fill="#231815"/>
<path d="M171.721 51.7876V63.8637H169.476L163.953 55.6373V63.8637H161.914V51.7876H164.159L169.705 60.0369V51.7876H171.721Z" fill="#231815"/>
<path d="M157.583 51.7875V59.189C157.583 60.5868 157.422 61.5951 157.056 62.1909C156.712 62.7867 156.185 63.2679 155.543 63.6116C154.856 63.9553 154.031 64.1386 153.023 64.1386C152.014 64.1386 151.167 63.9782 150.433 63.6574C149.723 63.3137 149.15 62.8325 148.738 62.2138C148.325 61.5722 148.096 60.5639 148.096 59.1432V51.7417H150.617V59.1432C150.617 60.4723 150.846 61.3659 151.304 61.8013C151.762 62.2367 152.358 62.4429 153.068 62.4429C153.779 62.4429 154.352 62.2367 154.764 61.8013C155.2 61.3888 155.406 60.541 155.406 59.3265V51.7417H157.606L157.583 51.7875Z" fill="#231815"/>
<path d="M142.23 52.0624V59.166C142.23 60.4951 142.069 61.4575 141.726 62.0304C141.382 62.6033 140.901 63.0845 140.259 63.4053C139.618 63.749 138.838 63.9094 137.853 63.9094C136.868 63.9094 136.066 63.749 135.401 63.4511C134.714 63.1303 134.164 62.672 133.751 62.0533C133.362 61.4575 133.156 60.4722 133.156 59.1202V52.0395H135.562V59.1202C135.562 60.4034 135.768 61.2513 136.226 61.6637C136.661 62.0762 137.234 62.2824 137.899 62.2824C138.563 62.2824 139.136 62.0762 139.526 61.6867C139.915 61.2742 140.122 60.4722 140.122 59.2806V52.0166H142.23V52.0624Z" fill="#231815"/>
<path d="M130.429 58.3641V63.3366C129.397 63.5887 128.641 63.772 128.16 63.8178C127.702 63.8866 127.198 63.9095 126.671 63.9095C124.494 63.9095 122.913 63.3137 121.927 62.1909C120.965 61.0451 120.461 59.5786 120.461 57.8141C120.461 56.6684 120.667 55.6143 121.125 54.6977C121.561 53.7811 122.202 53.0708 123.073 52.5208C123.967 52.0167 125.158 51.7417 126.648 51.7417C127.908 51.7417 129.168 51.8792 130.406 52.1771V54.0561C129.352 53.7124 128.618 53.5061 128.137 53.4374C127.679 53.3687 127.243 53.3457 126.808 53.3457C125.479 53.3457 124.494 53.7811 123.898 54.6519C123.302 55.5226 123.004 56.5996 123.004 57.837C123.004 59.189 123.348 60.266 124.058 61.091C124.769 61.893 125.754 62.2825 127.037 62.2825C127.312 62.2825 127.633 62.2596 128 62.1679V58.3641H130.406H130.429Z" fill="#231815"/>
<path d="M119.2 61.9846V63.6116H111.432V52.0625H118.834V53.6665H113.838V56.8517H117.963V58.4557H113.838V61.9846H119.2Z" fill="#231815"/>
<path d="M105.154 52.0625L109.668 63.6116H107.17L105.978 60.5181H101.189L99.9977 63.6116H98.2562L102.77 52.0625H105.176H105.154ZM105.383 59.0057L103.595 54.3998L101.785 59.0057H105.383Z" fill="#231815"/>
<path d="M97.2021 57.585C97.2021 58.7307 96.9959 59.7619 96.5834 60.6785C96.148 61.5951 95.5522 62.2825 94.7273 62.8096C93.9253 63.3366 92.8254 63.6116 91.4276 63.6116H86.6842V52.0625H91.6567C92.9858 52.0625 94.0169 52.2687 94.7731 52.6812C95.5064 53.1166 96.1022 53.7353 96.5605 54.5831C96.9959 55.4081 97.2021 56.4392 97.2021 57.6079V57.585ZM94.6586 57.7225C94.6586 56.8975 94.5211 56.1872 94.2232 55.5456C93.9482 54.9039 93.5587 54.4227 93.0774 54.1019C92.5962 53.7811 91.7484 53.6207 90.5797 53.6207H89.1132V61.9617H90.9005C91.84 61.9617 92.5504 61.8013 93.0316 61.5263C93.5128 61.2284 93.9253 60.7472 94.2232 60.0598C94.4982 59.3723 94.6586 58.5932 94.6586 57.7454V57.7225Z" fill="#231815"/>
</g>
<defs>
<clipPath id="clip0_721_9165">
<rect width="261" height="76.9709" fill="white" transform="translate(0.341125)"/>
</clipPath>
</defs>
</svg>
