<svg width="284" height="43" viewBox="0 0 284 43" fill="none" xmlns="http://www.w3.org/2000/svg">
<g clip-path="url(#clip0_721_9541)">
<path d="M24.4276 24.6492C26.131 23.7466 27.5421 22.539 28.6226 21.0262C29.9574 19.1575 30.6311 16.8185 30.6311 14.0472V13.0556C30.6311 9.2801 29.3726 6.21645 26.8937 3.96638C24.4403 1.74174 20.9698 0.610352 16.5841 0.610352H6.22362C4.1261 0.610352 2.6642 1.04257 1.74891 1.91971C0.82092 2.82228 0.375992 4.25877 0.375992 6.33086V38.2259C0.375992 40.0564 1.215 41.0099 1.92689 41.4929C2.81674 42.1031 3.87186 42.4082 5.06681 42.4082C6.26176 42.4082 7.30417 42.1031 8.20673 41.4929C8.91862 41.0099 9.75763 40.0437 9.75763 38.2259V26.4416H15.4654L22.6478 40.1836C23.4741 41.8235 24.6945 42.3065 25.5844 42.4082C25.8259 42.4336 26.0547 42.4464 26.2963 42.4464C27.1607 42.4464 27.9997 42.243 28.826 41.8616C29.9447 41.3277 30.7201 40.5014 31.1396 39.4081C31.4447 38.62 31.6227 37.3615 30.7583 35.8233L24.4403 24.6365L24.4276 24.6492ZM21.3131 13.2209V13.9328C21.3131 15.3693 20.8936 16.4117 20.0418 17.1108C19.1393 17.8482 17.4104 18.2295 15.0459 18.2295H9.75763V8.82246H15.6434C17.7282 8.82246 19.2283 9.20383 20.0927 9.94114C20.919 10.653 21.3131 11.7336 21.3131 13.2209Z" fill="#1E1E1E"/>
<path d="M66.5687 4.88152C65.0178 3.2035 63.0728 1.9577 60.81 1.15683C58.5981 0.381384 56.0683 -0.0126953 53.2589 -0.0126953C50.4495 -0.0126953 47.9198 0.381384 45.7079 1.15683C43.4451 1.94499 41.5128 3.2035 39.9492 4.88152C38.411 6.54682 37.2161 8.68248 36.4152 11.2504C35.6271 13.7547 35.233 16.7675 35.233 20.2252V22.488C35.233 25.933 35.6271 28.9585 36.4152 31.4501C37.2161 34.0053 38.411 36.1536 39.9492 37.8189C41.5001 39.497 43.4451 40.7428 45.7079 41.5436C47.9198 42.3191 50.4622 42.7132 53.2589 42.7132C56.0556 42.7132 58.5981 42.3191 60.81 41.5436C63.0728 40.7555 65.005 39.497 66.5687 37.8189C68.1068 36.1536 69.3018 34.018 70.1027 31.4501C70.8908 28.9458 71.2849 25.933 71.2849 22.488V20.2252C71.2849 16.7802 70.8908 13.7674 70.1027 11.2504C69.3018 8.69519 68.1068 6.54682 66.5687 4.88152ZM61.8524 20.7718V21.9286C61.8524 24.3185 61.6617 26.3525 61.2804 27.9415C60.9244 29.4543 60.3778 30.662 59.6659 31.5264C58.9667 32.3781 58.1277 32.9756 57.1107 33.3442C56.0302 33.7383 54.7336 33.9417 53.2716 33.9417C51.8097 33.9417 50.5004 33.7383 49.4198 33.3442C48.4029 32.9756 47.5638 32.3781 46.8647 31.5264C46.1528 30.662 45.6062 29.4543 45.2502 27.9415C44.8689 26.3525 44.6782 24.3313 44.6782 21.9286V20.7718C44.6782 18.3692 44.8689 16.348 45.2502 14.7589C45.6062 13.2462 46.1528 12.0385 46.8647 11.1741C47.5638 10.3224 48.4029 9.72488 49.4198 9.35623C50.5004 8.96215 51.797 8.75875 53.2716 8.75875C54.7463 8.75875 56.0429 8.96215 57.1107 9.35623C58.1277 9.72488 58.9667 10.3224 59.6659 11.1741C60.3778 12.0385 60.9244 13.2462 61.2804 14.7589C61.6617 16.348 61.8524 18.3692 61.8524 20.7718Z" fill="#1E1E1E"/>
<path d="M104.082 30.7255C102.977 30.5476 101.909 30.8145 100.943 31.4756C99.7476 32.2637 98.5145 32.8485 97.2433 33.2298C95.9848 33.6112 94.472 33.8146 92.7686 33.8146C89.8829 33.8146 87.8235 32.9629 86.4633 31.2086C85.0523 29.3907 84.3404 26.2635 84.3404 21.9159V20.7591C84.3404 16.3226 85.0904 13.1699 86.5523 11.3902C87.9888 9.64863 89.9973 8.80962 92.705 8.80962C94.3576 8.80962 95.7687 8.94945 96.8746 9.24184C97.9679 9.52151 99.0739 9.99186 100.129 10.6148C101.184 11.2758 102.277 11.4411 103.371 11.1232C104.4 10.8309 105.252 10.208 105.875 9.29268C106.549 8.33927 106.841 7.28415 106.739 6.15276C106.663 5.32646 106.282 4.14423 104.858 3.15267C103.472 2.21196 101.769 1.43652 99.7857 0.851754C97.8153 0.266991 95.4763 -0.0253906 92.8449 -0.0253906C90.0863 -0.0253906 87.5566 0.368689 85.3573 1.14414C83.0946 1.9323 81.1623 3.19081 79.5987 4.86882C78.0605 6.53413 76.8656 8.66979 76.0647 11.2377C75.2765 13.742 74.8825 16.7548 74.8825 20.2125V22.4753C74.8825 25.9203 75.2765 28.9458 76.0647 31.4374C76.8656 33.9926 78.0478 36.1409 79.5606 37.7935C81.0987 39.4716 82.9929 40.7174 85.2048 41.5182C87.3659 42.2937 89.8321 42.6878 92.5652 42.6878C95.2983 42.6878 97.6374 42.3827 99.8493 41.7598C102.087 41.1369 104.07 40.2089 105.748 39.0012C106.905 38.1876 107.566 37.1325 107.718 35.874C107.858 34.6663 107.566 33.5349 106.854 32.5307C106.116 31.501 105.176 30.8908 104.057 30.7128L104.082 30.7255Z" fill="#1E1E1E"/>
<path d="M131.02 19.6146L142.512 7.65239C143.376 6.78795 143.77 5.6947 143.643 4.52517C143.516 3.43192 143.046 2.46579 142.257 1.67763C141.469 0.838622 140.49 0.368269 139.334 0.266571C138.139 0.177585 137.02 0.597089 136.155 1.51237L122.019 16.7035V4.46161C122.019 2.63105 121.18 1.67763 120.469 1.19456C119.579 0.584377 118.524 0.279283 117.341 0.279283C116.159 0.279283 115.104 0.584377 114.201 1.19456C113.49 1.67763 112.651 2.64376 112.651 4.46161V38.238C112.651 40.0686 113.49 41.022 114.201 41.5051C115.091 42.1153 116.146 42.4204 117.341 42.4204C118.536 42.4204 119.579 42.1153 120.481 41.5051C121.193 41.022 122.032 40.0559 122.032 38.238V28.6276L124.803 25.78L136.817 40.7805C137.897 42.1661 139.13 42.4712 139.995 42.4712C140.02 42.4712 140.045 42.4712 140.071 42.4712C141.215 42.4458 142.257 42.0517 143.198 41.3017C144.19 40.5008 144.787 39.522 144.99 38.3906C145.194 37.1956 144.813 36.0134 143.859 34.9074L131.032 19.6146H131.02Z" fill="#1E1E1E"/>
<path d="M210.128 0.610368H184.068C182.517 0.610368 181.678 1.36039 181.233 1.996C180.699 2.77145 180.42 3.69944 180.42 4.74185C180.42 5.78425 180.686 6.71225 181.233 7.48769C181.665 8.12331 182.504 8.87333 184.068 8.87333H192.433V38.2386C192.433 40.0692 193.272 41.0226 193.983 41.5057C194.873 42.1158 195.928 42.4209 197.123 42.4209C198.318 42.4209 199.361 42.1158 200.263 41.5057C200.975 41.0226 201.814 40.0565 201.814 38.2386V8.87333H210.128C211.679 8.87333 212.531 8.12331 212.95 7.48769C213.484 6.71225 213.764 5.78425 213.764 4.72914C213.764 3.67402 213.497 2.75874 212.95 1.98329C212.518 1.34768 211.666 0.597656 210.115 0.597656L210.128 0.610368Z" fill="#1E1E1E"/>
<path d="M241.095 24.6492C242.799 23.7466 244.21 22.539 245.29 21.0262C246.625 19.1575 247.299 16.8185 247.299 14.0472V13.0556C247.299 9.2801 246.04 6.21645 243.561 3.96638C241.108 1.74174 237.637 0.610352 233.252 0.610352H222.891C220.794 0.610352 219.332 1.04257 218.416 1.93243C217.488 2.83499 217.044 4.27148 217.044 6.34357V38.2386C217.044 40.0692 217.883 41.0226 218.594 41.5056C219.484 42.1158 220.539 42.4209 221.734 42.4209C222.929 42.4209 223.972 42.1158 224.862 41.5056C225.573 41.0226 226.412 40.0564 226.412 38.2386V26.4543H232.12L239.303 40.1963C240.116 41.8362 241.349 42.3192 242.239 42.4336C242.481 42.4591 242.71 42.4718 242.951 42.4718C243.815 42.4718 244.654 42.2684 245.481 41.887C246.599 41.3531 247.375 40.5268 247.794 39.4335C248.1 38.6454 248.277 37.3869 247.426 35.8614L241.095 24.6619V24.6492ZM237.981 13.2209V13.9328C237.981 15.3693 237.561 16.4117 236.709 17.1108C235.807 17.8482 234.078 18.2295 231.713 18.2295H226.425V8.82246H232.311C234.396 8.82246 235.896 9.20383 236.76 9.94114C237.586 10.653 237.981 11.7336 237.981 13.2209Z" fill="#1E1E1E"/>
<path d="M283.084 3.02556C282.613 2.04672 281.838 1.2967 280.745 0.775497H280.719C279.588 0.254295 278.469 0.127173 277.376 0.419554C276.232 0.724648 275.304 1.51281 274.643 2.7459L267.003 16.615L259.223 2.69505C258.536 1.42382 257.57 0.661087 256.35 0.406842C255.206 0.165309 254.1 0.317856 253.045 0.839058C251.862 1.44925 251.074 2.31368 250.693 3.39422C250.299 4.5129 250.451 5.68242 251.138 6.86466L262.159 25.8186V38.2258C262.159 40.0563 262.998 41.0098 263.71 41.4928C264.6 42.103 265.655 42.4081 266.85 42.4081C268.045 42.4081 269.087 42.103 269.99 41.4928C270.702 41.0098 271.541 40.0436 271.541 38.2258V25.8186L282.613 6.81381C283.44 5.40275 283.592 4.13153 283.071 3.02556H283.084Z" fill="#1E1E1E"/>
<path d="M177.788 25.3863H156.139C153.826 25.3863 151.957 23.6574 151.957 21.5217C151.957 19.3861 153.826 17.6572 156.139 17.6572H177.788C180.102 17.6572 181.97 19.3861 181.97 21.5217C181.97 23.6574 180.102 25.3863 177.788 25.3863Z" fill="#EF8203"/>
<path d="M166.957 8.3394H156.126C153.813 8.3394 151.944 6.61053 151.944 4.47487C151.944 2.33922 153.813 0.610352 156.126 0.610352H166.957C169.271 0.610352 171.14 2.33922 171.14 4.47487C171.14 6.61053 169.271 8.3394 166.957 8.3394Z" fill="#EF8203"/>
<path d="M166.957 42.0777H156.126C153.813 42.0777 151.944 40.3488 151.944 38.2132C151.944 36.0775 153.813 34.3486 156.126 34.3486H166.957C169.271 34.3486 171.14 36.0775 171.14 38.2132C171.14 40.3488 169.271 42.0777 166.957 42.0777Z" fill="#EF8203"/>
</g>
<defs>
<clipPath id="clip0_721_9541">
<rect width="283" height="42.7004" fill="white" transform="translate(0.375992)"/>
</clipPath>
</defs>
</svg>
