<svg width="246" height="68" viewBox="0 0 246 68" fill="none" xmlns="http://www.w3.org/2000/svg">
<g clip-path="url(#clip0_721_9678)">
<path d="M84.4996 33.7587L106.731 11.5274L118.042 0L95.2469 0.043336L77.8042 17.4861V0H9.31169C8.85666 0 8.48831 0.368356 8.48831 0.823384C8.48831 1.27841 8.85666 1.64677 9.31169 1.64677H11.9335C12.1935 1.86345 12.3669 2.21014 12.3669 2.57849C12.3669 2.96852 12.1719 3.33687 11.8902 3.55355H3.85136C3.39633 3.55355 3.02797 3.92191 3.02797 4.37693C3.02797 4.83196 3.39633 5.20032 3.85136 5.20032H15.7471C16.0071 5.39533 16.1804 5.72035 16.1804 6.08871C16.1804 6.54373 15.9204 6.93376 15.5304 7.1071H7.64325C7.18823 7.1071 6.81987 7.47546 6.81987 7.93049C6.81987 8.38551 7.18823 8.75387 7.64325 8.75387H12.6702C12.8219 8.99222 12.9086 9.2739 12.9086 9.59892C12.9086 10.0106 12.7569 10.379 12.4969 10.6607H1.16452C0.709497 10.6607 0.341141 11.029 0.341141 11.484C0.341141 11.9391 0.709497 12.3074 1.16452 12.3074H13.4069C13.732 12.5891 13.9486 13.0225 13.9486 13.4992C13.9486 13.9325 13.7753 14.3225 13.4936 14.6042H6.7982C6.34317 14.6042 5.97482 14.9726 5.97482 15.4276C5.97482 15.8826 6.34317 16.251 6.7982 16.251H26.7328C26.7328 16.251 26.7978 16.251 26.8411 16.251H35.0533V67.4958H51.3259V16.2727H61.5099V67.5391H77.7826V50.0531L95.2253 67.4958L118.02 67.5391L106.709 56.0118L84.478 33.7804L84.4996 33.7587Z" fill="#1B4D9F"/>
<path d="M1.27286 5.22196C1.72789 5.22196 2.09625 4.85361 2.09625 4.39858C2.09625 3.94355 1.72789 3.5752 1.27286 3.5752C0.817835 3.5752 0.449479 3.94355 0.449479 4.39858H0.427811C0.427811 4.85361 0.796167 5.22196 1.25119 5.22196H1.27286Z" fill="#1B4D9F"/>
<path d="M3.95969 14.604H2.59461C2.13958 14.604 1.77122 14.9724 1.77122 15.4274C1.77122 15.8824 2.13958 16.2508 2.59461 16.2508H3.95969C4.41472 16.2508 4.78308 15.8824 4.78308 15.4274C4.78308 14.9724 4.41472 14.604 3.95969 14.604Z" fill="#1B4D9F"/>
<path d="M224.432 50.7029L241.766 34.2569C242.828 33.1952 243.608 31.8951 244.019 30.4433L245.254 27.2148C245.731 25.5897 244.084 24.138 242.524 24.8097L239.469 26.4348C238.104 27.0415 236.891 27.9732 235.981 29.1649L222.113 48.0378L216.111 48.4061C215.699 48.4278 215.309 48.6228 215.049 48.9261L214.789 49.2078C214.573 49.4462 214.681 49.8362 215.006 49.9445L219.903 51.3963C219.903 51.7646 220.011 52.133 220.315 52.3714L220.51 52.5447L220.705 52.718C220.943 52.913 221.225 53.0214 221.506 53.0214L223.413 57.3333C223.543 57.6367 223.933 57.7017 224.15 57.4417L224.41 57.16C224.692 56.8566 224.822 56.4449 224.8 56.0332L224.475 50.7029H224.432Z" fill="#D61518"/>
<path d="M231.994 32.2416L217.909 30.9415C217.368 30.8981 216.826 31.0931 216.479 31.5048L215.916 32.1332C215.699 32.3716 215.786 32.7399 216.089 32.8483L228.007 37.6369L231.972 32.2416H231.994Z" fill="#D61518"/>
<path d="M242.156 52.3065L239.122 38.6123L234.29 43.2059L240.488 54.3433C240.639 54.625 241.008 54.6466 241.224 54.4299L241.788 53.8016C242.156 53.3899 242.286 52.8482 242.178 52.3065H242.156Z" fill="#D61518"/>
<path d="M135.614 26.4781V31.6134H138.301V25.2863H141.768V43.6174H138.301V34.7552H135.614V39.9122H124.694V26.4781H128.161V30.5083H132.148V26.4781H135.614ZM132.148 36.9004V33.4552H128.161V36.9004H132.148ZM132.819 48.5794H147.467V51.7213H129.114V42.8374H132.819V48.5794ZM147.077 44.2458H143.588V24.918H147.077V44.2458Z" fill="#231815"/>
<path d="M151.324 28.688H157.044V25.1128H160.771V28.688H166.231V31.8299H160.771V33.975C160.771 36.2501 161.334 37.5936 162.894 39.2837C163.934 40.4104 165.625 42.0788 167.098 43.4006L164.736 45.8491C163.501 44.679 162.201 43.4006 161.118 42.2955C159.948 41.1038 159.146 40.1937 158.951 39.7387H158.886C158.626 40.3021 157.629 41.4288 156.676 42.4255C155.592 43.5523 154.487 44.6573 152.884 46.1524L150.457 43.6823C152.039 42.2738 153.512 40.8221 154.769 39.457C156.481 37.5286 157.001 36.3368 157.001 33.9967V31.8515H151.28V28.7097L151.324 28.688ZM164.91 34.6034H169.655V24.9395H173.36V52.0461H169.655V37.8319H164.91V34.625V34.6034Z" fill="#231815"/>
<path d="M201.853 45.5024V48.6226H177.022V45.5024H201.853ZM189.524 35.6868C189.243 36.3585 188.159 37.0735 186.708 38.0703C185.126 39.1103 183.067 40.3671 180.272 41.9488L178.474 39.0453C180.597 37.8536 182.937 36.4885 184.627 35.3184C186.924 33.7367 187.596 32.3066 187.596 29.7931V26.7812H191.323V29.7931C191.323 32.3283 191.995 33.7583 194.291 35.3184C195.981 36.4885 198.3 37.8536 200.445 39.0453L198.668 41.9055C195.873 40.3237 193.793 39.067 192.233 38.0269C190.781 37.0302 189.871 36.3368 189.589 35.6868H189.568H189.524Z" fill="#231815"/>
<path d="M125.17 54.668H127.576L130.891 64.5702L134.336 54.668H136.611L131.823 67.3437H129.807L125.149 54.668H125.17Z" fill="#231815"/>
<path d="M146.687 54.6682V56.5316H140.771V59.9335H146.318V61.7536H140.771V65.4588H146.817V67.3223H138.54V54.6465H146.687V54.6682Z" fill="#231815"/>
<path d="M149.2 54.6682H151.779L156.091 62.3386C156.351 62.8153 156.697 63.5087 156.892 64.3321V54.6465H158.994V67.3223H156.416L152.082 59.6301C151.757 59.0668 151.454 58.3951 151.302 57.68V67.3223H149.2V54.6465V54.6682Z" fill="#231815"/>
<path d="M170.305 54.668V56.5748H166.6V67.3437H164.346V56.5748H160.619V54.668H170.305Z" fill="#231815"/>
<path d="M179.275 62.1654V54.6899H181.529V62.1437C181.529 66.2823 179.795 67.5607 176.61 67.5607C173.425 67.5607 171.692 66.304 171.692 62.1437V54.6899H173.945V62.1654C173.945 64.6572 174.768 65.5023 176.61 65.5023C178.452 65.5023 179.275 64.6572 179.275 62.1654Z" fill="#231815"/>
<path d="M188.961 62.2734H186.383V67.3437H184.129V54.668H188.918C191.561 54.668 193.013 56.1197 193.013 58.1565V58.8066C193.013 60.1283 192.341 61.2767 191.041 61.8401C191.886 63.6819 192.666 65.502 193.511 67.3437H191.063L188.939 62.2734H188.961ZM186.383 56.5531V60.3883H188.463C190.196 60.3883 190.803 59.7166 190.803 58.7632V58.2432C190.803 57.2681 190.196 56.5748 188.658 56.5748H186.383V56.5531Z" fill="#231815"/>
<path d="M203.89 54.6682V56.5316H197.975V59.9335H203.522V61.7536H197.975V65.4588H204.02V67.3223H195.743V54.6465H203.89V54.6682Z" fill="#231815"/>
<path d="M215.981 55.7519C215.504 55.7085 215.049 55.5569 214.638 55.3402C213.403 54.6901 211.907 54.4735 210.629 54.4735C207.205 54.4735 206.1 56.5103 206.1 58.0487V58.287C206.1 61.2122 208.462 61.5806 210.586 62.0573C212.016 62.3823 212.817 62.8156 212.817 63.834V64.029C212.817 64.8958 212.124 65.5458 210.521 65.5458C209.004 65.5458 207.747 64.9608 206.967 64.3107L205.884 66.1092C206.859 66.9109 208.592 67.5609 210.412 67.5609C212.882 67.5609 215.071 66.6725 215.071 63.8557V63.6174C215.071 61.8839 214.074 60.6488 211.084 59.9771C209.589 59.6521 208.332 59.4788 208.332 58.2437V58.027C208.332 57.3336 209.069 56.4886 210.672 56.4886C211.561 56.4886 212.492 56.5319 213.403 56.9869C213.533 57.052 213.663 57.117 213.793 57.1603C215.006 57.6803 216.068 58.027 217.693 56.9869C218.95 56.0336 219.275 53.9751 219.275 53.9751C219.275 53.9751 218.278 55.9469 215.981 55.7519Z" fill="#231815"/>
</g>
<defs>
<clipPath id="clip0_721_9678">
<rect width="245" height="67.5391" fill="white" transform="translate(0.341141)"/>
</clipPath>
</defs>
</svg>
