<svg width="132" height="131" viewBox="0 0 132 131" fill="none" xmlns="http://www.w3.org/2000/svg">
<g clip-path="url(#clip0_721_9242)">
<path d="M126.186 39.9906C122.892 32.1858 118.166 25.1686 112.151 19.1538C106.136 13.1391 99.1192 8.41317 91.3143 5.11937C83.223 1.71817 74.6663 -0.0361328 65.8232 -0.0361328C56.9801 -0.0361328 48.3876 1.68237 40.3321 5.11937C32.5272 8.41317 25.51 13.1391 19.4952 19.1538C13.4805 25.1686 8.7546 32.1858 5.4608 39.9906C2.0596 48.0819 0.305298 56.6386 0.305298 65.4818C0.305298 74.3249 2.0238 82.9174 5.4608 90.9729C8.7546 98.7777 13.4805 105.795 19.4952 111.81C25.51 117.824 32.5272 122.55 40.3321 125.844C48.4234 129.245 56.9801 131 65.8232 131C74.6663 131 83.2588 129.281 91.3143 125.844C99.1192 122.55 106.136 117.824 112.151 111.81C118.166 105.795 122.892 98.7777 126.186 90.9729C129.587 82.8816 131.341 74.3249 131.341 65.4818C131.341 56.6386 129.623 48.0461 126.186 39.9906Z" fill="white"/>
<path d="M65.859 129.89C101.411 129.89 130.231 101.069 130.231 65.5177C130.231 29.9662 101.411 1.14551 65.859 1.14551C30.3075 1.14551 1.48682 29.9662 1.48682 65.5177C1.48682 101.069 30.3075 129.89 65.859 129.89ZM28.1952 110.056C28.1952 110.306 28.2668 110.557 28.41 110.772C28.5174 110.986 28.6964 111.201 28.9112 111.38C29.0903 111.523 29.3409 111.667 29.6631 111.774C29.7705 111.81 29.8779 111.846 30.0211 111.882L31.131 110.557L32.2766 111.523L30.5939 113.564C30.3075 113.564 29.9853 113.493 29.6631 113.385C29.3409 113.278 29.0187 113.17 28.6964 112.991C28.3742 112.848 28.1236 112.669 27.873 112.454C27.4792 112.132 27.1569 111.774 26.9421 111.344C26.7273 110.951 26.5841 110.521 26.5125 110.056C26.4409 109.59 26.5125 109.161 26.6199 108.731C26.7631 108.301 26.9779 107.872 27.2643 107.514C27.5866 107.12 27.9446 106.833 28.3384 106.654C28.7322 106.44 29.1619 106.332 29.6273 106.296C30.0927 106.296 30.5223 106.296 30.9878 106.475C31.4532 106.654 31.8828 106.869 32.2766 107.191C32.5273 107.406 32.7779 107.657 32.9569 107.907C33.1717 108.194 33.3507 108.48 33.4581 108.767C33.6013 109.053 33.7087 109.375 33.7445 109.662L32.2408 109.948C32.2408 109.626 32.0976 109.304 31.9544 109.017C31.8112 108.731 31.5964 108.48 31.3458 108.265C31.131 108.086 30.9162 107.979 30.6656 107.907C30.4149 107.836 30.2001 107.836 29.9495 107.836C29.6989 107.836 29.4841 107.943 29.2335 108.086C29.0187 108.23 28.8038 108.373 28.6248 108.588C28.4458 108.803 28.3026 109.053 28.231 109.304C28.1594 109.554 28.1236 109.805 28.1236 110.056H28.1952ZM37.1457 116.858L36.3939 118.111L32.5273 115.712L36.0359 110.056L37.5038 110.951L34.7828 115.354L37.1815 116.822L37.1457 116.858ZM38.542 119.221L41.4778 113.242L43.0531 113.994L40.1173 119.973L38.542 119.221ZM48.7098 118.433C48.5308 118.218 48.3518 118.004 48.137 117.825C47.9222 117.646 47.7074 117.467 47.4926 117.323C47.2777 117.18 47.0987 117.073 46.9197 117.001C46.7407 116.93 46.5617 116.894 46.4185 116.93C46.2753 116.93 46.1679 117.037 46.1321 117.216C46.0605 117.359 46.0963 117.502 46.1321 117.646C46.2037 117.789 46.3469 117.932 46.5259 118.075C46.7049 118.218 46.8839 118.362 47.0987 118.505C47.3135 118.648 47.5284 118.827 47.7074 119.006C47.9222 119.185 48.0654 119.364 48.2086 119.579C48.3518 119.794 48.4592 120.044 48.495 120.295C48.5308 120.546 48.495 120.868 48.3876 121.19C48.2444 121.62 47.9938 121.942 47.6716 122.121C47.3493 122.336 46.9555 122.443 46.5259 122.443C46.0963 122.443 45.6308 122.372 45.1654 122.193C44.8074 122.049 44.4852 121.906 44.163 121.691C43.8407 121.476 43.5543 121.262 43.3037 120.975C43.0531 120.725 42.8383 120.438 42.6593 120.116L43.7691 119.078C43.9123 119.364 44.0914 119.615 44.3062 119.83C44.521 120.08 44.7358 120.295 44.9864 120.474C45.237 120.653 45.4518 120.796 45.6666 120.868C45.9173 120.975 46.1321 120.975 46.2753 120.939C46.4543 120.904 46.5617 120.796 46.6333 120.617C46.7049 120.474 46.6691 120.331 46.5975 120.188C46.5259 120.044 46.3827 119.901 46.2037 119.758C46.0247 119.615 45.8457 119.472 45.6308 119.328C45.416 119.185 45.2012 119.006 45.0222 118.863C44.8074 118.684 44.6284 118.505 44.4852 118.29C44.342 118.075 44.2346 117.86 44.1988 117.61C44.163 117.359 44.1988 117.073 44.3062 116.751C44.4494 116.357 44.6642 116.07 44.9864 115.856C45.3086 115.641 45.6666 115.533 46.0963 115.498C46.5259 115.498 46.9913 115.569 47.4926 115.748C47.958 115.927 48.3876 116.142 48.7814 116.428C49.1753 116.715 49.4975 117.037 49.7481 117.359L48.674 118.433H48.7098ZM56.3357 125.092L54.653 124.734L55.19 122.228L52.5765 121.655L52.0394 124.162L50.3567 123.804L51.7172 117.288L53.3999 117.646L52.8271 120.295L55.4406 120.868L56.0135 118.218L57.6962 118.576L56.3357 125.092ZM65.1788 125.773H63.4603L63.6393 119.078H65.3578L65.1788 125.773ZM72.8047 125.379L69.4393 121.655L69.7973 125.665L68.1862 125.809L67.6134 119.185L69.117 119.042L72.4824 122.801L72.1244 118.791L73.7355 118.648L74.3083 125.271L72.8047 125.415V125.379ZM81.9342 122.765C81.7552 123.123 81.5046 123.41 81.1466 123.66C80.7885 123.911 80.3589 124.09 79.8935 124.197C79.5355 124.269 79.1416 124.341 78.7836 124.341C78.4256 124.341 78.0318 124.305 77.6738 124.233C77.3157 124.162 76.9935 124.018 76.6713 123.875L77.0293 122.407C77.2799 122.551 77.6021 122.658 77.8886 122.765C78.2108 122.837 78.4972 122.909 78.8194 122.909C79.1058 122.909 79.3923 122.909 79.6071 122.873C79.8577 122.801 80.0367 122.73 80.1799 122.586C80.2873 122.443 80.3589 122.3 80.2873 122.121C80.2515 121.978 80.1441 121.834 80.0009 121.763C79.8577 121.691 79.6787 121.655 79.4639 121.62C79.249 121.62 78.9984 121.62 78.7478 121.584C78.4972 121.548 78.2108 121.584 77.9602 121.512C77.7096 121.512 77.4589 121.405 77.2083 121.333C76.9577 121.226 76.7787 121.118 76.5997 120.904C76.4207 120.725 76.3133 120.438 76.2417 120.116C76.1343 119.722 76.1701 119.328 76.3133 119.006C76.4565 118.648 76.7071 118.362 77.0651 118.111C77.4231 117.86 77.8528 117.681 78.354 117.538C78.8194 117.431 79.3206 117.395 79.7861 117.431C80.2873 117.431 80.7169 117.538 81.1108 117.681L80.7885 119.149C80.5379 119.078 80.2515 119.006 79.9651 118.97C79.6787 118.935 79.4281 118.899 79.1774 118.899C78.9268 118.899 78.712 118.899 78.533 118.97C78.3182 119.006 78.175 119.078 78.0676 119.185C77.9602 119.293 77.9244 119.436 77.9602 119.579C77.996 119.722 78.1034 119.865 78.2466 119.937C78.3898 120.009 78.5688 120.044 78.7836 120.08C78.9984 120.08 79.249 120.08 79.4997 120.116C79.7503 120.116 80.0367 120.116 80.2873 120.188C80.5379 120.223 80.7885 120.295 81.0392 120.402C81.2898 120.51 81.4688 120.653 81.6478 120.832C81.8268 121.047 81.97 121.297 82.0416 121.655C82.149 122.085 82.1132 122.479 81.9342 122.837V122.765ZM87.9132 121.584L86.3021 122.193L84.4404 117.288L82.5786 117.968L82.0774 116.643L87.4119 114.638L87.9132 115.963L86.0515 116.679L87.9132 121.584ZM91.923 119.83L88.9514 113.886L90.4909 113.099L93.4625 119.042L91.923 119.83ZM97.2575 116.93L94.465 112.49L92.7822 113.528L92.0304 112.347L96.8637 109.304L97.6155 110.485L95.9328 111.559L98.7254 115.999L97.2575 116.93ZM105.743 110.378C105.564 110.843 105.206 111.273 104.74 111.667C104.275 112.061 103.774 112.311 103.272 112.419C102.771 112.526 102.306 112.49 101.804 112.347C101.339 112.168 100.909 111.882 100.551 111.416L98.0452 108.444L99.3698 107.335L101.876 110.342C102.162 110.664 102.485 110.843 102.807 110.879C103.165 110.879 103.487 110.807 103.774 110.557C104.06 110.306 104.203 110.02 104.239 109.698C104.239 109.375 104.132 109.017 103.845 108.695L101.339 105.724L102.664 104.614L105.17 107.621C105.528 108.051 105.778 108.516 105.886 109.017C105.993 109.519 105.922 109.984 105.743 110.449V110.378ZM110.003 106.511L106.101 103.003L104.776 104.47L103.738 103.54L107.569 99.3149L108.607 100.246L107.282 101.714L111.185 105.222L110.003 106.511ZM123.214 63.477C124.324 63.477 125.219 64.3721 125.219 65.4819C125.219 66.5918 124.324 67.4869 123.214 67.4869C122.104 67.4869 121.209 66.5918 121.209 65.4819C121.209 64.3721 122.104 63.477 123.214 63.477ZM117.056 97.3816L114.013 101.785L108.535 97.9903L111.507 93.6582L112.617 94.4459L110.612 97.3458L111.65 98.0619L113.44 95.4483L114.55 96.236L112.76 98.8495L113.834 99.5656L115.875 96.594L116.984 97.3816H117.056ZM101.697 16.97L100.945 18.1157L98.0452 16.1466L97.3291 17.1849L99.9427 18.9392L99.1908 20.049L96.5773 18.2947L95.8612 19.3688L98.8686 21.3737L98.1168 22.5194L93.6773 19.5478L97.4007 14.0343L101.769 16.97H101.697ZM88.5934 14.3207C88.7008 14.6071 88.844 14.8577 89.0588 15.1441C89.2736 15.4306 89.4527 15.6454 89.6675 15.8602C89.8823 16.075 90.0971 16.2182 90.3119 16.3256C90.5267 16.433 90.7415 16.5046 90.9205 16.4688C91.0995 16.4688 91.2428 16.3614 91.3144 16.1824C91.386 16.0392 91.386 15.896 91.3144 15.7528C91.2428 15.6096 91.1354 15.4664 90.9921 15.2873C90.8489 15.1083 90.6699 14.9651 90.4551 14.7861C90.2761 14.6071 90.0613 14.4281 89.8823 14.2491C89.7033 14.0701 89.5601 13.8553 89.4168 13.6405C89.3094 13.4256 89.2378 13.175 89.202 12.9244C89.202 12.6738 89.2736 12.3874 89.4168 12.0652C89.5959 11.7071 89.8465 11.4207 90.2045 11.2417C90.5267 11.0627 90.9205 10.9911 91.3502 11.0269C91.7798 11.0269 92.2452 11.1701 92.7106 11.4207C93.1403 11.6355 93.5341 11.9219 93.8921 12.2442C94.2501 12.5664 94.5366 12.9244 94.7514 13.2824L93.5699 14.2133C93.4267 13.9627 93.2477 13.7479 93.0687 13.533C92.8897 13.3182 92.6748 13.1392 92.4958 12.9602C92.3168 12.7812 92.1378 12.6738 91.9588 12.6022C91.7798 12.4948 91.6008 12.459 91.4576 12.4948C91.3144 12.4948 91.207 12.6022 91.1354 12.7454C91.0638 12.8886 91.0638 13.0318 91.1354 13.175C91.207 13.3182 91.3144 13.4614 91.4576 13.6405C91.6008 13.7837 91.7798 13.9627 91.9946 14.1417C92.1736 14.3207 92.3884 14.4997 92.5674 14.6787C92.7465 14.8577 92.8897 15.0725 93.0329 15.3232C93.1403 15.538 93.2119 15.7886 93.2119 16.075C93.2119 16.3256 93.1403 16.612 92.9971 16.9342C92.7822 17.3281 92.5316 17.6145 92.1736 17.7935C91.8156 17.9725 91.4218 18.0083 90.9921 17.9725C90.5625 17.9367 90.1329 17.7935 89.6675 17.5787C89.3452 17.3997 89.023 17.2207 88.7366 16.97C88.4502 16.7194 88.1996 16.4688 87.949 16.1824C87.7341 15.896 87.5551 15.5738 87.4119 15.2873L88.5934 14.3923V14.3207ZM80.0367 10.2034C80.1799 9.73802 80.3947 9.3442 80.7169 8.98617C81.0033 8.62815 81.3614 8.37754 81.791 8.19853C82.1848 8.01952 82.6144 7.91211 83.1157 7.87631C83.5811 7.87631 84.0465 7.91211 84.5478 8.05532C85.049 8.19853 85.4786 8.44914 85.8366 8.73556C86.1947 9.02198 86.4811 9.38 86.6959 9.77382C86.9107 10.1676 87.0539 10.5973 87.0897 11.0269C87.1255 11.4923 87.0897 11.9219 86.9465 12.3874C86.8033 12.8528 86.5527 13.2466 86.2663 13.6046C85.9798 13.9627 85.6218 14.2133 85.1922 14.4281C84.7626 14.6429 84.3329 14.7503 83.8675 14.7861C83.4021 14.7861 82.9367 14.7861 82.4354 14.6071C81.9342 14.4639 81.5404 14.2133 81.1466 13.9269C80.7885 13.6405 80.5021 13.2824 80.2873 12.8886C80.0725 12.4948 79.9293 12.0652 79.8935 11.5997C79.8577 11.1343 79.8935 10.6689 80.0725 10.2034H80.0367ZM72.9121 5.58497L75.8478 6.0504C76.7071 6.19361 77.3515 6.51583 77.7812 6.98126C78.2108 7.44668 78.3182 8.05532 78.2108 8.80716C78.0676 9.55901 77.7454 10.1318 77.2083 10.4899C77.0651 10.5973 76.8861 10.6689 76.7071 10.7405L77.7096 13.1034L75.7762 12.7812L75.096 10.8121L73.8429 10.5973L73.5565 12.4232L71.838 12.1368L72.9121 5.58497ZM61.6344 5.37016L61.7776 8.30593L64.1047 5.26275L66.1097 5.15535L63.7825 8.01952L66.6109 11.7787L64.5344 11.8861L62.6727 9.38L61.885 10.3467L61.9566 11.9936L60.2381 12.0652L59.9159 5.40596L61.6344 5.33436V5.37016ZM51.8604 8.80716C51.9678 8.37754 52.1468 7.94791 52.3974 7.58989C52.6481 7.23187 52.9703 6.90965 53.3641 6.65904C53.7579 6.40842 54.1876 6.22941 54.6888 6.122C55.011 6.0504 55.3332 6.0504 55.6912 6.0504C56.0493 6.0504 56.3715 6.15781 56.6937 6.26521C57.0159 6.37262 57.3023 6.51583 57.553 6.73064L56.8011 8.09112C56.5505 7.87631 56.2283 7.6973 55.9061 7.58989C55.5838 7.48248 55.2974 7.48248 55.011 7.51829C54.7604 7.55409 54.5456 7.6615 54.3308 7.8047C54.1159 7.94791 53.9727 8.12692 53.8295 8.30593C53.6863 8.52075 53.6147 8.73556 53.5789 8.98617C53.5431 9.23679 53.5789 9.4874 53.5789 9.77382C53.6147 10.0602 53.7221 10.2751 53.8653 10.4899C54.0085 10.7047 54.1518 10.8837 54.3666 11.0269C54.5456 11.1701 54.7604 11.2775 55.011 11.3133C55.2616 11.3849 55.4764 11.3849 55.727 11.3133C56.0135 11.2775 56.2641 11.1343 56.5147 10.9553C56.7653 10.7763 57.0159 10.5257 57.1949 10.2392L58.4122 11.0985C58.2332 11.3849 57.9826 11.6713 57.732 11.8861C57.4814 12.1368 57.1949 12.3158 56.8727 12.4948C56.5505 12.6738 56.2641 12.7812 55.9419 12.817C55.4406 12.9244 54.9752 12.9244 54.5456 12.817C54.0802 12.7454 53.6863 12.5664 53.3283 12.3158C52.9703 12.0652 52.6481 11.7429 52.3974 11.3849C52.1468 10.9911 51.9678 10.5615 51.8604 10.096C51.753 9.63061 51.753 9.16519 51.8604 8.73556V8.80716ZM45.1654 8.87877L46.8481 8.30593L51.6814 13.6763L49.9271 14.2849L49.1036 13.3182L46.3827 14.2849V15.5738L44.6642 16.1466L45.1654 8.91457V8.87877ZM38.2198 11.9219L40.5827 16.5404L43.0889 15.2515L43.7691 16.5404L39.7235 18.6169L36.6803 12.7096L38.2198 11.9219ZM32.0976 15.5738C32.5273 15.2873 32.9211 15.1083 33.2791 15.0009C33.6729 14.8935 33.9952 14.8935 34.3174 15.0009C34.6396 15.0725 34.8902 15.2873 35.0692 15.5738C35.2482 15.8602 35.3556 16.1824 35.3198 16.5046C35.3198 16.8268 35.1766 17.1491 34.926 17.3997C35.3198 17.2207 35.7137 17.1849 36.0717 17.3281C36.4297 17.4355 36.7519 17.6861 37.0025 18.0441C37.2173 18.3663 37.3247 18.6886 37.2889 19.0466C37.2889 19.4046 37.1457 19.7268 36.9309 20.0848C36.7161 20.4071 36.3581 20.7293 35.9285 21.0515L33.2075 22.9132L29.4483 17.4355L32.0618 15.6454L32.0976 15.5738ZM65.859 15.717C93.3193 15.717 115.588 37.9859 115.588 65.4461C115.588 92.9064 93.3193 115.175 65.859 115.175C38.3988 115.175 16.1299 92.9064 16.1299 65.4461C16.1299 37.9859 38.3988 15.717 65.859 15.717ZM8.50403 67.5227C7.39417 67.5227 6.49911 66.6276 6.49911 65.5177C6.49911 64.4079 7.39417 63.5128 8.50403 63.5128C9.6139 63.5128 10.509 64.4079 10.509 65.5177C10.509 66.6276 9.6139 67.5227 8.50403 67.5227ZM17.3472 101.356L14.3756 96.9162L19.8891 93.2286L22.8249 97.5965L21.6792 98.3483L19.7101 95.4483L18.6718 96.1644L20.4261 98.7779L19.3163 99.5298L17.562 96.9162L16.4879 97.6323L18.4928 100.64L17.3472 101.391V101.356ZM19.1015 103.647L24.0422 99.1717L25.0804 100.317L24.1138 105.258L27.1211 102.537L28.1952 103.719L23.2545 108.194L22.2521 107.084L23.2187 102.143L20.2471 104.828L19.1731 103.611L19.1015 103.647Z" fill="#040000"/>
<path d="M76.1343 9.34377C76.3491 9.20056 76.4923 8.94995 76.5639 8.62773C76.6355 8.30551 76.5639 8.01909 76.3849 7.84008C76.2059 7.62527 75.9553 7.51786 75.5973 7.44626L74.3442 7.23145L74.022 9.27217L75.275 9.48698C75.6331 9.55858 75.9195 9.48698 76.1343 9.34377Z" fill="#040000"/>
<path d="M33.8519 17.3635C33.8519 17.3635 33.8519 17.0055 33.7445 16.8265C33.6371 16.6474 33.4939 16.5758 33.3149 16.54C33.1359 16.54 32.9569 16.5758 32.7421 16.7191L31.6322 17.4709L32.384 18.545L33.4939 17.7931C33.7087 17.6499 33.8161 17.5067 33.8519 17.3277V17.3635Z" fill="#040000"/>
<path d="M34.9976 20.0489C35.2483 19.8699 35.3915 19.6909 35.4989 19.4761C35.5705 19.2613 35.5347 19.0823 35.4273 18.8675C35.3199 18.6885 35.1408 18.6169 34.926 18.5811C34.7112 18.5811 34.4606 18.6527 34.2458 18.8317L33.1359 19.5835L33.9594 20.765L35.0692 20.0131L34.9976 20.0489Z" fill="#040000"/>
<path d="M81.791 12.316C81.8984 12.5308 82.0416 12.7457 82.2206 12.8889C82.3996 13.0679 82.6144 13.1753 82.8292 13.2469C83.0799 13.3185 83.2947 13.3543 83.5453 13.3185C83.7959 13.3185 84.0107 13.2111 84.2255 13.1037C84.4403 12.9963 84.6194 12.8173 84.7984 12.6024C84.9774 12.3876 85.0848 12.1728 85.1564 11.8864C85.228 11.6 85.2638 11.3494 85.2638 11.0988C85.2638 10.8481 85.1922 10.5975 85.0848 10.3827C84.9774 10.1679 84.8342 9.95309 84.6552 9.80988C84.4761 9.66667 84.2613 9.52347 84.0465 9.45186C83.7959 9.38026 83.5811 9.34445 83.3305 9.38026C83.0799 9.38026 82.865 9.48766 82.6502 9.59507C82.4354 9.70248 82.2564 9.88149 82.0774 10.0605C81.8984 10.2395 81.791 10.4901 81.6836 10.7765C81.612 11.0272 81.5762 11.3136 81.5762 11.5642C81.5762 11.8148 81.6478 12.0654 81.7552 12.2802L81.791 12.316Z" fill="#040000"/>
<path d="M46.4901 10.2754L46.4185 12.8531L48.1728 12.2445L46.4901 10.2754Z" fill="#040000"/>
<path d="M66.6825 73.1074C64.4986 73.537 63.9257 76.5444 65.8949 77.2246C67.1479 77.6542 69.1529 77.0814 70.2269 76.616C71.838 75.9357 69.1171 72.6419 66.6825 73.1074Z" fill="#040000"/>
<path d="M67.2911 83.884C68.4726 83.9557 69.6899 83.7408 70.8355 83.1322C73.9861 81.4495 75.2034 77.5471 73.5923 74.3965C73.7355 79.5878 66.4677 80.089 67.2911 83.884Z" fill="#040000"/>
<path d="M63.1739 72.3556C62.3862 73.3938 62.3504 74.7543 63.8541 76.1864C62.6726 70.9951 72.3034 70.3507 71.48 77.3679C72.6972 75.363 72.6972 73.6803 72.017 72.463C70.2985 69.4198 65.0714 69.8136 63.1739 72.3556Z" fill="#040000"/>
<path d="M74.0219 73.179C77.4947 70.7087 75.7762 69.3124 73.9503 68.8827C72.9837 68.6679 72.2676 68.2025 71.659 67.7371C68.6516 65.4815 66.7899 67.4507 68.1504 69.7778C70.7639 69.7778 72.5898 71.1383 74.0577 73.179H74.0219Z" fill="#040000"/>
<path d="M61.9924 80.411C62.8875 82.0937 64.3912 83.2036 66.1097 83.669C65.8949 79.6591 70.5134 79.3011 70.585 77.4752C66.7541 79.0863 63.4961 78.1555 61.706 74.8975C61.0258 76.616 61.0616 78.6209 61.9924 80.411Z" fill="#040000"/>
<path d="M74.3442 73.788C75.6688 76.0436 75.454 80.4114 72.9479 82.5596C77.2799 84.9225 79.3565 80.9127 78.6046 79.1942C78.2108 78.2991 78.354 77.3683 78.4614 76.6164C78.891 72.8572 75.7046 71.4251 74.38 73.788H74.3442Z" fill="#040000"/>
<path d="M72.3751 83.0254C69.6183 85.0661 66.3961 85.0661 64.1048 83.7772C63.2455 84.6365 61.706 84.9587 60.5246 84.5291C60.0949 84.6365 59.7727 84.9229 59.6653 85.6389C59.5579 86.176 59.9159 87.1068 60.6678 87.1068C63.4603 87.1068 64.9998 89.7204 67.1122 89.8636C67.6492 89.8994 68.1862 89.8636 68.7232 89.792C68.7232 89.792 68.7233 89.792 68.7591 89.792C68.8665 89.7562 68.9739 89.6846 69.0813 89.6846C69.1529 89.6846 69.2603 89.6846 69.3677 89.6488C69.5467 89.6488 69.6899 89.613 69.8689 89.5414C69.8689 89.5414 69.9405 89.5414 69.9763 89.5056C70.0479 89.4698 70.1195 89.4698 70.1911 89.4698C71.122 89.1118 71.9812 88.6463 72.6973 88.2525C76.3849 85.997 74.38 84.2785 72.4467 83.1686L72.3751 83.0254Z" fill="#040000"/>
<path d="M54.0085 80.6267C54.4381 82.3094 56.5863 81.8797 57.9109 82.5242C58.806 82.9538 59.8085 83.276 60.7035 83.634C61.706 84.0279 62.422 83.8489 63.2097 83.1328C60.5245 80.9847 59.7011 77.9057 60.3455 75.328C60.4529 72.07 55.727 72.5712 55.9776 74.8267C56.2998 77.6909 53.5431 78.5501 53.9727 80.6267H54.0085Z" fill="#040000"/>
<path d="M58.269 72.1414C58.269 72.1414 58.3406 72.1414 58.3764 72.1414C59.6295 72.213 60.5603 72.8932 60.99 73.8599C61.9566 71.7833 63.7109 70.4229 65.6084 69.8858C68.4726 68.3463 65.68 64.5155 63.8541 65.8402C61.5628 67.5587 59.4147 65.6254 57.8394 67.0217C56.6221 68.2389 58.0184 69.8858 58.1616 71.3537C58.1616 71.6043 58.1974 71.8908 58.2332 72.1414H58.269Z" fill="#040000"/>
<path d="M53.4357 103.218C54.4382 103.683 55.5122 104.148 56.5147 104.65C61.4196 107.048 65.501 110.736 65.5726 110.772L66.3961 111.524L67.2195 110.772C67.2195 110.772 71.3368 107.048 76.2775 104.65C77.2799 104.148 78.3182 103.683 79.3564 103.218C85.049 100.604 90.9563 97.9189 90.9563 92.3695V52.1279H41.9074V92.3695C41.9074 97.9189 47.8148 100.604 53.5073 103.218H53.4357ZM44.2704 54.5625H88.4502V92.3695C88.4502 96.3794 83.5095 98.6349 78.2824 100.998C77.2441 101.463 76.17 101.965 75.1676 102.466C71.2294 104.399 67.864 107.013 66.3603 108.266C64.8566 107.013 61.527 104.399 57.5529 102.466C56.5147 101.965 55.4764 101.463 54.4382 100.998C49.211 98.5991 44.2704 96.3436 44.2704 92.3695V54.5625Z" fill="#040000"/>
<path d="M48.2086 95.8426C49.9987 97.1673 52.5049 98.3487 55.19 99.566C56.2283 100.031 57.3024 100.533 58.3406 101.034C61.4554 102.538 64.2122 104.507 66.0023 105.867L66.3603 106.154L66.7183 105.867C68.5084 104.507 71.2652 102.538 74.38 101.034C75.4182 100.533 76.4923 100.031 77.5306 99.566C80.2157 98.3487 82.7219 97.2031 84.512 95.8426C86.4811 94.3747 86.7675 93.2648 86.7675 92.3698V56.1738H45.9889V92.3698C45.9889 93.2648 46.2395 94.3747 48.2444 95.8426H48.2086ZM47.1704 57.3911H85.5502V92.3698C85.5502 92.7636 85.5502 93.5513 83.7959 94.8759C82.1132 96.129 79.6429 97.2747 77.0651 98.4562C76.0269 98.9216 74.9528 99.4228 73.8788 99.9598C70.8714 101.428 68.222 103.254 66.3961 104.65C64.5702 103.289 61.885 101.428 58.9135 99.9598C57.8394 99.4228 56.7653 98.9574 55.7271 98.4562C53.1135 97.2747 50.6432 96.129 48.9963 94.8759C47.242 93.5513 47.242 92.7636 47.242 92.3698V57.3911H47.1704Z" fill="#040000"/>
<path d="M86.0873 39.311C84.9416 38.0221 83.9033 39.7764 83.9033 39.7764C83.0799 38.774 81.1824 39.7406 81.5762 40.9579C81.791 41.6739 82.3638 41.8888 82.8293 41.9604C82.328 42.4258 81.8268 42.6048 81.3256 42.4974C80.5379 42.3184 80.4663 41.6023 80.4663 41.5307V40.7789C80.9676 40.7789 81.3972 40.3135 81.3972 39.7406C81.3972 39.1678 80.9676 38.7024 80.4305 38.7024C79.8935 38.7024 79.4639 39.1678 79.4639 39.7406C79.4639 40.1703 79.7145 40.5283 80.0367 40.6715L79.6787 41.2801C79.6787 41.2801 79.2491 41.8888 78.0676 41.6739C77.2083 41.4949 76.7429 40.7789 76.4923 40.2777C76.4923 40.1345 76.5281 39.9912 76.7787 40.1345C77.2083 40.3851 78.3898 41.3875 79.1059 39.669C79.8219 37.9863 77.9602 37.7715 77.9602 37.7715C77.9602 37.7715 78.4972 36.3036 76.8861 36.0172C75.275 35.695 75.096 37.1629 75.096 37.1629C74.738 36.9123 73.3059 36.5542 73.1627 38.3801C73.0553 40.2061 74.5948 40.0986 74.9528 40.0628C75.0602 40.0628 75.096 40.0628 75.1318 40.0628C74.8096 40.4567 74.2726 40.9579 73.4849 40.9221C72.2318 40.8147 71.9812 39.5616 71.9454 39.5258L71.7306 38.4876C72.2676 38.4876 72.6973 38.0221 72.6973 37.4493C72.6973 36.8765 72.2676 36.411 71.7306 36.411C71.1936 36.411 70.764 36.8765 70.764 37.4493C70.764 37.9147 71.0862 38.3443 71.48 38.4518L71.0862 39.4184C71.0862 39.4184 70.6207 40.4925 69.0813 40.4925C68.0788 40.4925 67.5418 39.8838 67.2195 39.311C67.2911 39.1678 67.3269 38.9888 67.3627 38.8456C67.506 38.8456 67.7208 38.8456 67.8998 38.9888C68.2936 39.2394 69.9405 39.848 70.2627 37.6641C70.5849 35.516 68.2578 35.8024 68.2578 35.8024C68.8664 35.2296 68.6158 33.4395 66.6825 33.4395C64.7492 33.4395 64.4628 35.1938 65.1072 35.8024C65.1072 35.8024 62.7801 35.516 63.1023 37.6641C63.4245 39.8122 65.0714 39.2036 65.4652 38.9888C65.6443 38.8814 65.8591 38.8098 66.0023 38.8456C66.0381 38.9888 66.1097 39.132 66.1455 39.311C65.8233 39.8838 65.2504 40.4925 64.2838 40.4925C62.7801 40.4925 62.3146 39.4542 62.2788 39.4184L61.885 38.4518C62.3147 38.3443 62.6011 37.9505 62.6011 37.4493C62.6011 36.8765 62.1714 36.411 61.6344 36.411C61.0974 36.411 60.6678 36.8765 60.6678 37.4493C60.6678 38.0221 61.0974 38.4876 61.6344 38.4876L61.4196 39.5258C61.4196 39.5258 61.1332 40.8147 59.9159 40.9221C59.1283 40.9937 58.5912 40.4925 58.269 40.0628C58.3048 40.0628 58.3764 40.0628 58.448 40.0628C58.806 40.0628 60.3813 40.2061 60.2381 38.3801C60.1307 36.5542 58.6628 36.9481 58.3048 37.1629C58.3048 37.1629 58.09 35.695 56.5147 36.0172C54.9036 36.3394 55.4406 37.7715 55.4406 37.7715C55.4406 37.7715 53.5789 37.9863 54.295 39.669C55.011 41.3517 56.1925 40.3493 56.6221 40.1345C56.8727 39.9912 56.9085 40.1345 56.9085 40.2777C56.6937 40.8147 56.2283 41.5307 55.3332 41.6739C54.1876 41.8888 53.7579 41.2801 53.7221 41.2801L53.3641 40.6715C53.6863 40.4925 53.937 40.1345 53.937 39.7406C53.937 39.1678 53.5073 38.7024 52.9703 38.7024C52.4333 38.7024 52.0036 39.1678 52.0036 39.7406C52.0036 40.3135 52.4333 40.7789 52.9703 40.7789V41.5307C52.9703 41.5307 52.8987 42.3184 52.111 42.4974C51.6098 42.6048 51.1086 42.4258 50.6074 41.9604C51.0728 41.8888 51.6456 41.6739 51.8604 40.9579C52.2543 39.7048 50.3567 38.774 49.5333 39.7764C49.5333 39.7764 48.495 38.0221 47.3494 39.311C46.3469 40.4209 47.5642 41.0295 48.316 41.1727C48.316 41.1369 48.316 41.1011 48.316 41.0295C48.316 40.4567 48.7456 39.9912 49.3185 39.9912C49.8913 39.9912 50.3209 40.4567 50.3209 41.0295C50.3209 41.4949 49.9987 41.9246 49.6049 42.032C50.1419 42.748 50.7148 43.2134 51.3234 43.3924C50.7506 43.5357 50.3209 43.6431 50.1777 43.7147C49.2111 44.0727 49.8913 44.8603 50.3567 44.7529C50.3567 44.7529 50.4641 45.0393 50.6074 45.4332C50.7864 45.3258 50.9654 45.2542 51.216 45.2542C51.7888 45.2542 52.2543 45.7554 52.2543 46.364C52.2543 46.9727 51.7888 47.4739 51.216 47.4739C51.1802 47.4739 51.1444 47.4739 51.0728 47.4739C51.0728 47.6529 51.0728 47.8319 51.0728 47.9751C51.0728 47.9751 50.6074 48.2973 50.7506 48.7986C50.8938 49.2998 51.2876 49.2282 52.0394 48.9418C52.7555 48.6912 58.0184 46.9011 66.7183 46.9011C75.4182 46.9011 80.6811 48.6912 81.3972 48.9418C82.1132 49.1924 82.5071 49.2998 82.6861 48.7986C82.8293 48.2973 82.3638 47.9751 82.3638 47.9751C82.3638 47.7961 82.3638 47.6529 82.3638 47.4739C82.328 47.4739 82.2922 47.4739 82.2206 47.4739C81.6478 47.4739 81.1824 46.9727 81.1824 46.364C81.1824 45.7554 81.6478 45.2542 82.2206 45.2542C82.4355 45.2542 82.6503 45.3258 82.8293 45.4332C82.9725 45.0035 83.0799 44.7529 83.0799 44.7529C83.5453 44.8603 84.2256 44.0369 83.2589 43.7147C83.0799 43.6431 82.6861 43.5357 82.1132 43.3924C82.7219 43.2134 83.2589 42.748 83.8317 42.032C83.4021 41.9246 83.1157 41.4949 83.1157 41.0295C83.1157 40.4567 83.5453 39.9912 84.1181 39.9912C84.691 39.9912 85.1206 40.4567 85.1206 41.0295C85.1206 41.0653 85.1206 41.1369 85.1206 41.1727C85.8725 41.0295 87.0539 40.4209 86.0873 39.311ZM79.8219 42.39C79.9293 42.6048 80.0725 42.8196 80.2873 42.9986C79.7861 42.8912 79.2133 42.7838 78.6046 42.6764C79.1417 42.6764 79.5355 42.5332 79.8219 42.3542V42.39ZM75.0602 38.7024C75.0602 38.1295 75.4898 37.6641 76.0627 37.6641C76.6355 37.6641 77.0651 38.1295 77.0651 38.7024C77.0651 39.2752 76.6355 39.7406 76.0627 39.7406C75.4898 39.7406 75.0602 39.2752 75.0602 38.7024ZM65.4652 37.2703C65.4652 36.4826 66.0739 35.8382 66.8257 35.8382C67.5776 35.8382 68.1862 36.4826 68.1862 37.2703C68.1862 38.0579 67.5776 38.7024 66.8257 38.7024C66.0739 38.7024 65.4652 38.0579 65.4652 37.2703ZM56.6221 38.7024C56.6221 38.1295 57.0517 37.6641 57.6246 37.6641C58.1974 37.6641 58.627 38.1295 58.627 38.7024C58.627 39.2752 58.1974 39.7406 57.6246 39.7406C57.0517 39.7406 56.6221 39.2752 56.6221 38.7024ZM57.8394 40.8505C58.3048 41.3875 59.0567 41.9962 60.1307 41.9246C61.1332 41.853 61.7776 41.2443 62.1356 40.6357C62.5653 41.0653 63.2813 41.5307 64.427 41.5307C65.5726 41.5307 66.2887 40.9579 66.8257 40.2777C67.3269 40.9579 68.0788 41.5307 69.1887 41.5307C70.2985 41.5307 71.0504 41.0653 71.48 40.6357C71.838 41.2443 72.4825 41.853 73.4849 41.9246C74.559 41.9962 75.3108 41.4233 75.7763 40.8505C76.0627 41.4591 76.5997 42.1752 77.4948 42.5332C74.4516 42.032 70.5849 41.6023 66.7899 41.6023C62.9949 41.6023 59.1641 42.032 56.0851 42.5332C56.9801 42.211 57.5172 41.4591 57.8036 40.8505H57.8394ZM53.7937 42.39C54.0802 42.569 54.474 42.7122 55.011 42.7122C54.4024 42.8196 53.8295 42.927 53.3283 43.0344C53.5431 42.8554 53.6863 42.6406 53.7937 42.4258V42.39ZM81.7194 47.6529L81.6478 47.9751C81.6478 47.9751 74.9528 46.1134 66.8257 46.1134C58.6986 46.1134 52.0394 47.9751 52.0036 47.9751L51.932 47.6529C51.932 47.6529 58.6628 45.7912 66.8615 45.7912C75.0602 45.7912 81.7194 47.6529 81.791 47.6529H81.7194ZM56.1209 45.1467L58.1616 43.7505L60.5961 44.3949L58.5554 45.8628L56.1209 45.1826V45.1467ZM64.6776 44.2159C64.6776 43.6431 65.143 43.1776 65.6801 43.1776H67.9356C68.4726 43.1776 68.938 43.6431 68.938 44.2159C68.938 44.7887 68.4726 45.2542 67.9356 45.2542H65.6801C65.143 45.2542 64.6776 44.7887 64.6776 44.2159ZM73.0553 44.3591L75.4898 43.7147L77.5306 45.1109L75.096 45.7912L73.0553 44.3233V44.3591ZM82.5787 44.4307L82.5071 44.7529C75.5972 42.748 66.8973 42.7122 66.8257 42.7122C66.7541 42.7122 58.0542 42.748 51.1444 44.7529L51.0728 44.4307C58.0184 42.4258 66.7541 42.3542 66.8257 42.3542C66.8973 42.3542 75.633 42.39 82.5787 44.4307Z" fill="#040000"/>
<path d="M66.7899 25.0255C68.222 25.0255 69.1886 24.9181 69.8689 24.7749C69.8689 24.5959 69.9047 24.4169 69.9047 24.2379V24.1663C69.1886 23.9515 68.1146 23.7725 66.7899 23.7725C65.3578 23.7725 64.3195 23.9873 63.6751 24.2379C63.6751 24.4169 63.6751 24.5959 63.7109 24.7749C64.3195 24.9181 65.2862 25.0613 66.7899 25.0613V25.0255Z" fill="#040000"/>
<path d="M63.7109 23.8442C64.3912 23.6294 65.4294 23.4145 66.8257 23.4145C68.1504 23.4145 69.1887 23.5936 69.9047 23.8084C69.7257 22.5553 68.7232 21.517 67.4702 21.2664L67.0047 19.3331L69.1529 20.2998V17.7578L67.0047 18.8319H66.6467L64.4986 17.7578V20.2998L66.6467 19.3331L66.1813 21.2664C64.8924 21.517 63.8899 22.5553 63.7467 23.88L63.7109 23.8442Z" fill="#040000"/>
<path d="M66.7899 32.2579C67.1479 32.2579 67.4343 31.9357 67.4343 31.5777C67.4343 31.2197 67.1479 30.8975 66.7899 30.8975C66.4319 30.8975 66.1454 31.2197 66.1454 31.5777C66.1454 31.9357 66.4319 32.2579 66.7899 32.2579Z" fill="#040000"/>
<path d="M67.4702 28.9634C67.4702 28.5696 67.1837 28.2832 66.8257 28.2832C66.4677 28.2832 66.1813 28.6054 66.1813 28.9634C66.1813 29.3215 66.4677 29.6437 66.8257 29.6437C67.1837 29.6437 67.4702 29.3215 67.4702 28.9634Z" fill="#040000"/>
<path d="M64.785 27.8185C63.8899 27.6753 62.7084 27.3889 61.4196 26.9235C61.2047 26.8518 61.0257 26.7802 60.8109 26.7444C60.2739 26.7086 59.6653 26.637 59.0566 26.5654C58.2332 26.637 57.6245 26.9951 57.2307 27.6037C58.1258 27.6753 58.9492 27.7469 59.6653 27.7827C61.3122 27.8543 63.3171 27.8543 64.8208 27.8543L64.785 27.8185Z" fill="#040000"/>
<path d="M44.4852 35.0855C44.4852 35.4793 44.7716 35.7658 45.1296 35.7658C45.4876 35.7658 45.774 35.4435 45.774 35.0855C45.774 34.7275 45.4876 34.4053 45.1296 34.4053C44.7716 34.4053 44.4852 34.7275 44.4852 35.0855Z" fill="#040000"/>
<path d="M47.9222 38.272C47.9222 37.8782 47.6358 37.5918 47.2777 37.5918C46.9197 37.5918 46.6333 37.914 46.6333 38.272C46.6333 38.6301 46.9197 38.9523 47.2777 38.9523C47.6358 38.9523 47.9222 38.6301 47.9222 38.272Z" fill="#040000"/>
<path d="M45.0938 31.8283C45.4519 31.8283 45.7383 31.506 45.7383 31.148C45.7383 30.79 45.4519 30.4678 45.0938 30.4678C44.7358 30.4678 44.4494 30.79 44.4494 31.148C44.4494 31.506 44.7358 31.8283 45.0938 31.8283Z" fill="#040000"/>
<path d="M47.063 28.5695C47.421 28.5695 47.7074 28.2472 47.7074 27.8892C47.7074 27.5312 47.421 27.209 47.063 27.209C46.7049 27.209 46.4185 27.5312 46.4185 27.8892C46.4185 28.2472 46.7049 28.5695 47.063 28.5695Z" fill="#040000"/>
<path d="M50.321 26.5646C50.679 26.5646 50.9654 26.2424 50.9654 25.8843C50.9654 25.5263 50.679 25.2041 50.321 25.2041C49.9629 25.2041 49.6765 25.5263 49.6765 25.8843C49.6765 26.2424 49.9629 26.5646 50.321 26.5646Z" fill="#040000"/>
<path d="M54.9036 36.1603C55.2616 36.1603 55.548 35.8381 55.548 35.48C55.548 35.122 55.2616 34.7998 54.9036 34.7998C54.5456 34.7998 54.2592 35.122 54.2592 35.48C54.2592 35.8381 54.5456 36.1603 54.9036 36.1603Z" fill="#040000"/>
<path d="M53.8296 33.4035C54.1876 33.4035 54.474 33.0812 54.474 32.7232C54.474 32.3652 54.1876 32.043 53.8296 32.043C53.4715 32.043 53.1851 32.3652 53.1851 32.7232C53.1851 33.0812 53.4715 33.4035 53.8296 33.4035Z" fill="#040000"/>
<path d="M53.9012 30.3243C54.2592 30.3243 54.5456 30.0021 54.5456 29.6441C54.5456 29.2861 54.2592 28.9639 53.9012 28.9639C53.5431 28.9639 53.2567 29.2861 53.2567 29.6441C53.2567 30.0021 53.5431 30.3243 53.9012 30.3243Z" fill="#040000"/>
<path d="M54.7246 27.3888C55.0826 27.3888 55.369 27.0666 55.369 26.7086C55.369 26.3505 55.0826 26.0283 54.7246 26.0283C54.3666 26.0283 54.0801 26.3505 54.0801 26.7086C54.0801 27.0666 54.3666 27.3888 54.7246 27.3888Z" fill="#040000"/>
<path d="M57.0517 25.2765C57.4097 25.2765 57.6962 24.9543 57.6962 24.5963C57.6962 24.2382 57.4097 23.916 57.0517 23.916C56.6937 23.916 56.4073 24.2382 56.4073 24.5963C56.4073 24.9543 56.6937 25.2765 57.0517 25.2765Z" fill="#040000"/>
<path d="M55.7271 26.7078C55.7271 27.2807 55.2616 27.7819 54.7246 27.7819C54.5098 27.7819 54.3308 27.7103 54.1518 27.6029C54.0444 27.8177 53.9727 28.0683 53.8653 28.3189C53.8653 28.4263 53.7937 28.4979 53.7937 28.6054C53.8295 28.6054 53.8653 28.6054 53.9011 28.6054C54.474 28.6054 54.9036 29.0708 54.9036 29.6794C54.9036 30.2881 54.4382 30.7535 53.9011 30.7535C53.7579 30.7535 53.6147 30.7535 53.5073 30.6819C53.5073 31.0399 53.5073 31.3979 53.5789 31.7559C53.6505 31.7559 53.7579 31.7201 53.8295 31.7201C54.4024 31.7201 54.832 32.1856 54.832 32.7942C54.832 33.2596 54.5456 33.6893 54.116 33.8325C54.2234 34.1189 54.3308 34.3695 54.474 34.6201C54.6172 34.5485 54.7604 34.5127 54.9036 34.5127C55.4764 34.5127 55.9061 34.9781 55.9061 35.5868C55.9061 35.6942 55.9061 35.8374 55.8345 35.9448C57.0517 35.2646 57.9468 35.7658 57.9468 35.7658C57.9468 35.7658 56.0135 32.651 56.1925 29.572C56.3715 26.493 58.4838 25.4906 61.4912 26.5646C64.4986 27.6387 66.7541 27.6745 66.7541 27.6745C66.7541 27.6745 69.0096 27.6745 72.017 26.5646C75.0244 25.4906 77.1367 26.493 77.3157 29.572C77.4948 32.651 75.5614 35.7658 75.5614 35.7658C75.5614 35.7658 76.4565 35.2288 77.6738 35.9448C77.638 35.8374 77.6022 35.73 77.6022 35.5868C77.6022 35.0139 78.0676 34.5127 78.6046 34.5127C78.7478 34.5127 78.9268 34.5485 79.0342 34.6201C79.1416 34.3695 79.2849 34.1189 79.3923 33.8325C78.9626 33.6893 78.6762 33.2954 78.6762 32.7942C78.6762 32.2214 79.1416 31.7201 79.6787 31.7201C79.7503 31.7201 79.8577 31.7201 79.9293 31.7559C79.9651 31.3979 80.0009 31.0399 80.0009 30.6819C79.8935 30.7177 79.7503 30.7535 79.6071 30.7535C79.0342 30.7535 78.6046 30.2881 78.6046 29.6794C78.6046 29.0708 79.07 28.6054 79.6071 28.6054C79.6429 28.6054 79.6787 28.6054 79.7145 28.6054C79.7145 28.4979 79.6429 28.4263 79.6429 28.3189C79.5713 28.0683 79.4639 27.8535 79.3565 27.6029C79.1775 27.7103 78.9984 27.7819 78.7836 27.7819C78.2108 27.7819 77.7812 27.3165 77.7812 26.7078C77.7812 26.3498 77.9244 26.0634 78.175 25.8486C77.8886 25.5622 77.6022 25.3474 77.3157 25.1325C77.1367 25.419 76.8145 25.6338 76.4565 25.6338C75.8837 25.6338 75.454 25.1684 75.454 24.5597C75.454 24.4881 75.454 24.4165 75.454 24.3807C74.0935 24.0943 72.7331 24.3091 71.7306 24.8461C70.6207 25.4906 69.7615 25.956 68.9738 26.2782C69.2961 25.9202 69.5467 25.5264 69.6899 25.0609C69.0096 25.2042 68.043 25.3116 66.6825 25.3116C65.322 25.3116 64.3196 25.2042 63.6751 25.0609C63.8183 25.5264 64.0689 25.956 64.427 26.2782C63.6751 25.956 62.7801 25.4906 61.6702 24.8461C60.6677 24.2733 59.2715 24.0585 57.9468 24.3807C57.9468 24.4523 57.9468 24.5239 57.9468 24.5597C57.9468 25.1325 57.4814 25.6338 56.9443 25.6338C56.5863 25.6338 56.2641 25.419 56.0851 25.1325C55.7629 25.3474 55.4764 25.5622 55.2258 25.8486C55.4764 26.0276 55.6196 26.3498 55.6196 26.7078H55.7271Z" fill="#040000"/>
<path d="M46.0962 31.1478C46.0962 31.7206 45.6308 32.2218 45.0938 32.2218C45.0938 32.2218 45.0938 32.2218 45.058 32.2218C45.058 32.8305 45.1296 33.4749 45.237 34.0477C45.7382 34.0835 46.1679 34.549 46.1679 35.1218C46.1679 35.4082 46.0604 35.6946 45.8814 35.8736C46.132 36.4823 46.4543 37.0193 46.7049 37.4489C46.8839 37.3057 47.0629 37.2341 47.2777 37.2341C47.8505 37.2341 48.2802 37.6996 48.2802 38.3082C48.2802 38.3082 48.2802 38.3082 48.2802 38.344C49.211 38.2724 49.8197 39.0958 49.8197 39.0958C50.2135 38.7736 50.8221 38.8452 50.8221 38.8452C46.4543 34.728 46.7407 30.7539 49.211 28.6416C50.3209 27.675 52.0036 27.3885 53.7579 27.3527C53.7579 27.3169 53.7937 27.2453 53.8295 27.2095C53.7579 27.0663 53.6863 26.8873 53.6863 26.6725C53.6863 26.2787 53.8653 25.9565 54.1517 25.7774C53.1493 25.7058 52.1826 25.7058 51.3234 25.8132C51.3234 25.8132 51.3234 25.8132 51.3234 25.849C51.3234 26.4219 50.8579 26.9231 50.3209 26.9231C49.9271 26.9231 49.5691 26.6725 49.39 26.3145C48.8172 26.5293 48.316 26.8157 47.8147 27.1737C47.958 27.3527 48.0296 27.6034 48.0296 27.854C48.0296 28.4268 47.5641 28.928 47.0271 28.928C46.7765 28.928 46.5259 28.8206 46.3469 28.6416C46.0604 29.0354 45.8098 29.4651 45.5592 29.9305C45.5592 30.0021 45.4876 30.0737 45.4518 30.1453C45.8098 30.3243 46.0604 30.6823 46.0604 31.112L46.0962 31.1478Z" fill="#040000"/>
<path d="M76.3849 27.5676C75.9911 26.9589 75.3466 26.6009 74.559 26.5293C73.9503 26.6009 73.3775 26.6725 72.8047 26.7083C72.5899 26.7441 72.4108 26.8157 72.196 26.8873C70.9072 27.3527 69.7257 27.6392 68.8306 27.7824C70.2985 27.7824 72.3392 27.7824 73.9861 27.7108C74.7022 27.7108 75.5256 27.6034 76.4207 27.5318L76.3849 27.5676Z" fill="#040000"/>
<path d="M88.486 34.4053C88.128 34.4053 87.8416 34.7275 87.8416 35.0855C87.8416 35.4435 88.128 35.7658 88.486 35.7658C88.844 35.7658 89.1304 35.4435 89.1304 35.0855C89.1304 34.7275 88.844 34.4053 88.486 34.4053Z" fill="#040000"/>
<path d="M86.9823 38.272C86.9823 37.8782 86.6959 37.5918 86.3379 37.5918C85.9798 37.5918 85.6934 37.914 85.6934 38.272C85.6934 38.6301 85.9798 38.9523 86.3379 38.9523C86.6959 38.9523 86.9823 38.6301 86.9823 38.272Z" fill="#040000"/>
<path d="M87.8774 31.148C87.8774 31.5418 88.1638 31.8283 88.5218 31.8283C88.8798 31.8283 89.1663 31.506 89.1663 31.148C89.1663 30.79 88.8798 30.4678 88.5218 30.4678C88.1638 30.4678 87.8774 30.79 87.8774 31.148Z" fill="#040000"/>
<path d="M86.5527 28.5695C86.9107 28.5695 87.1971 28.2472 87.1971 27.8892C87.1971 27.5312 86.9107 27.209 86.5527 27.209C86.1947 27.209 85.9083 27.5312 85.9083 27.8892C85.9083 28.2472 86.1947 28.5695 86.5527 28.5695Z" fill="#040000"/>
<path d="M83.2947 26.5646C83.6527 26.5646 83.9391 26.2424 83.9391 25.8843C83.9391 25.5263 83.6527 25.2041 83.2947 25.2041C82.9367 25.2041 82.6503 25.5263 82.6503 25.8843C82.6503 26.2424 82.9367 26.5646 83.2947 26.5646Z" fill="#040000"/>
<path d="M78.712 36.1603C79.07 36.1603 79.3564 35.8381 79.3564 35.48C79.3564 35.122 79.07 34.7998 78.712 34.7998C78.354 34.7998 78.0676 35.122 78.0676 35.48C78.0676 35.8381 78.354 36.1603 78.712 36.1603Z" fill="#040000"/>
<path d="M79.1417 32.7232C79.1417 33.117 79.4281 33.4035 79.7861 33.4035C80.1441 33.4035 80.4305 33.0812 80.4305 32.7232C80.4305 32.3652 80.1441 32.043 79.7861 32.043C79.4281 32.043 79.1417 32.3652 79.1417 32.7232Z" fill="#040000"/>
<path d="M79.7144 28.9639C79.3564 28.9639 79.07 29.2861 79.07 29.6441C79.07 30.0021 79.3564 30.3243 79.7144 30.3243C80.0725 30.3243 80.3589 30.0021 80.3589 29.6441C80.3589 29.2861 80.0725 28.9639 79.7144 28.9639Z" fill="#040000"/>
<path d="M78.891 27.3888C79.2469 27.3888 79.5355 27.0842 79.5355 26.7086C79.5355 26.3329 79.2469 26.0283 78.891 26.0283C78.5351 26.0283 78.2466 26.3329 78.2466 26.7086C78.2466 27.0842 78.5351 27.3888 78.891 27.3888Z" fill="#040000"/>
<path d="M76.5639 25.2765C76.9219 25.2765 77.2083 24.9543 77.2083 24.5963C77.2083 24.2382 76.9219 23.916 76.5639 23.916C76.2059 23.916 75.9194 24.2382 75.9194 24.5963C75.9194 24.9543 76.2059 25.2765 76.5639 25.2765Z" fill="#040000"/>
<path d="M79.9293 26.7083C79.9293 26.8873 79.8935 27.0663 79.7861 27.2453C79.7861 27.2811 79.8219 27.3527 79.8577 27.3885C81.612 27.3885 83.2589 27.7107 84.4045 28.6774C86.8749 30.7897 87.1613 34.7638 82.7934 38.881C82.7934 38.881 83.4021 38.8094 83.7959 39.1316C83.7959 39.1316 84.4045 38.3082 85.3354 38.3798C85.3354 38.3798 85.3354 38.3798 85.3354 38.344C85.3354 37.7711 85.8008 37.2699 86.3379 37.2699C86.5527 37.2699 86.7675 37.3415 86.9107 37.4847C87.1613 37.0551 87.4835 36.5181 87.7341 35.9094C87.5551 35.7304 87.4477 35.444 87.4477 35.1576C87.4477 34.5848 87.8415 34.1551 88.3786 34.0835C88.5218 33.5107 88.5934 32.8663 88.5576 32.2576C88.5576 32.2576 88.5576 32.2576 88.5218 32.2576C87.9489 32.2576 87.5193 31.7922 87.5193 31.1835C87.5193 30.7539 87.7699 30.3601 88.128 30.2169C88.128 30.1453 88.0564 30.0737 88.0205 30.0021C87.7699 29.5367 87.5193 29.107 87.2329 28.7132C87.0539 28.8922 86.8033 28.9996 86.5527 28.9996C85.9798 28.9996 85.5502 28.5342 85.5502 27.9256C85.5502 27.6749 85.6218 27.4243 85.765 27.2453C85.2996 26.8873 84.7626 26.6009 84.1897 26.3861C84.0465 26.7441 83.6885 26.9947 83.2589 26.9947C82.686 26.9947 82.2564 26.5293 82.2564 25.9206C82.2564 25.9206 82.2564 25.9206 82.2564 25.8848C81.3972 25.7774 80.4305 25.7416 79.428 25.849C79.7145 26.028 79.8935 26.3861 79.8935 26.7441L79.9293 26.7083Z" fill="#040000"/>
<path d="M65.322 28.2832C64.8566 30.2881 65.5368 33.3671 65.5368 33.3671C66.1455 33.1165 66.8257 33.1523 66.8257 33.1523C66.8257 33.1523 67.5059 33.1165 68.1146 33.3671C68.1146 33.3671 68.759 30.2881 68.3294 28.2832C68.3294 28.2832 68.1146 28.2832 67.6492 28.2832C67.7924 28.4622 67.864 28.7128 67.864 28.9634C67.864 29.5363 67.3985 30.0375 66.8615 30.0375C66.3245 30.0375 65.859 29.5721 65.859 28.9634C65.859 28.7128 65.9307 28.4622 66.1097 28.2832C65.6442 28.2832 65.4294 28.2832 65.4294 28.2832H65.322ZM66.7899 30.5029C67.3627 30.5029 67.7924 30.9684 67.7924 31.577C67.7924 32.1856 67.3269 32.6511 66.7899 32.6511C66.2529 32.6511 65.7874 32.1856 65.7874 31.577C65.7874 30.9684 66.2529 30.5029 66.7899 30.5029Z" fill="#040000"/>
</g>
<defs>
<clipPath id="clip0_721_9242">
<rect width="131" height="131" fill="white" transform="translate(0.341125)"/>
</clipPath>
</defs>
</svg>
