<svg width="183" height="57" viewBox="0 0 183 57" fill="none" xmlns="http://www.w3.org/2000/svg">
<g clip-path="url(#clip0_721_9154)">
<path d="M21.3622 0H4.27261V1.08028L7.51344 2.33765C7.51344 2.33765 7.54886 2.42619 7.54886 2.69184V53.3409L0.358826 54.6514V55.4306H17.9797V54.6514L10.7897 53.3409V30.4248H21.2206C33.4401 30.4248 39.6384 25.2714 39.6384 15.1239C39.6384 4.97636 33.3161 0 21.3622 0ZM21.2028 28.3351H10.772V2.39078H21.3622C32.0765 2.39078 37.283 6.5525 37.283 15.1239C37.283 23.6952 32.0233 28.3351 21.2028 28.3351Z" fill="black"/>
<path d="M72.7551 27.8747C72.7551 19.3741 70.7716 14.3978 62.9618 14.3978C55.1519 14.3978 47.5014 19.8346 44.7741 27.7153V0H38.2216V1.08028L41.4979 2.39078V53.3409L34.3079 54.6514V55.4306H51.9642V54.6514L44.7741 53.3409V39.3858C44.7741 25.8558 54.0716 15.5843 62.9618 15.5843C69.6028 15.5843 69.4965 20.4367 69.4965 28.0163V53.3763L62.3773 54.6868V55.4129H79.9451V54.6868L72.7905 53.3763L72.7551 27.8393V27.8747Z" fill="black"/>
<path d="M107.979 28.229C107.979 19.3035 101.745 14.3979 92.5542 14.3979C84.6558 14.3979 77.9794 18.8961 77.9794 24.2267C77.9794 25.8205 78.9002 26.9539 80.2107 26.9539C81.4504 26.9539 82.3536 26.157 82.3536 25.059C82.3536 24.209 81.8223 23.2173 80.3524 23.0225C81.3973 19.7285 85.8601 15.5845 92.5542 15.5845C100.506 15.5845 104.544 20.3837 104.544 28.2467V31.399C85.134 32.3199 75.6771 36.4462 75.6771 45.1416C75.6771 51.6586 81.8046 56.0329 89.1894 56.0329C99.5672 56.0329 104.703 39.8287 104.703 39.8287V55.4662H115.169V54.6869L107.979 53.3764V28.2644V28.229ZM104.544 33.9315C104.544 44.3269 96.6805 53.9254 89.278 53.9254C83.0797 53.9254 80.0691 50.4721 80.0691 45.1238C80.0691 39.7756 82.1942 33.5242 104.544 32.497V33.9492V33.9315Z" fill="black"/>
<path d="M142.495 17.8688C137.465 15.478 133.569 14.0967 127.938 14.0967C118.463 14.0967 111.556 18.7543 111.556 24.9703C111.556 32.302 119.207 34.1615 127.725 35.5428C136.686 37.0481 143.327 39.0139 143.327 44.6986C143.327 50.3833 136.668 52.845 127.92 52.845C122.749 52.845 117.17 51.7116 113.575 49.9406V43.211H111.061L112.637 50.2948C112.637 50.2948 117.507 55.4305 127.938 55.4305C138.369 55.4305 144.602 51.3928 144.602 44.6101C144.602 36.3752 136.916 33.276 128.628 31.9124C121.244 30.7259 113.398 31.1686 113.398 24.9526C113.398 19.7814 119.526 15.5666 127.637 15.5666C132.702 15.5666 138.404 17.1604 142.442 19.1085L142.495 17.8334V17.8688Z" fill="black"/>
<path d="M141.556 18.2228V24.9524H144.071L142.495 17.8687" fill="black"/>
<path d="M179.419 41.8474L179.313 42.237C177.453 49.5156 172.867 53.9075 164.561 53.9075C154.75 53.9075 148.534 45.8143 148.534 35.0292V34.8876H182.323V32.7447C182.323 21.9242 175.116 14.3623 164.809 14.3623C153.528 14.3623 145.665 22.8274 145.665 34.923C145.665 47.0185 153.616 55.4128 164.561 55.4128C173.841 55.4128 180.269 50.7552 182.235 42.662L182.341 41.8297H179.419V41.8474ZM164.738 15.602C173.858 15.602 179.667 23.0931 179.295 32.9041H148.587C149.419 23.0045 155.494 15.602 164.738 15.602Z" fill="black"/>
<path d="M175.612 41.8473H182.341V39.3325L175.257 40.9087" fill="black"/>
</g>
<defs>
<clipPath id="clip0_721_9154">
<rect width="182" height="56.015" fill="white" transform="translate(0.341125)"/>
</clipPath>
</defs>
</svg>
