<svg width="190" height="56" viewBox="0 0 190 56" fill="none" xmlns="http://www.w3.org/2000/svg">
<mask id="mask0_724_11300" style="mask-type:luminance" maskUnits="userSpaceOnUse" x="155" y="0" width="35" height="21">
<path d="M159.449 0.227858C157.086 0.48055 155.228 2.42776 156.075 4.6574C157.398 8.16535 164.443 8.83424 171.37 10.0828C184.391 12.4314 188.746 18.1838 189.282 20.5175C187.914 14.2002 183.455 7.82348 175.711 3.72095L175.815 3.48312C176.35 2.33858 175.859 0.985933 174.715 0.465685C173.57 -0.0694269 172.203 0.421092 171.682 1.56564L171.534 1.87779C168.264 0.703513 164.949 0.138672 161.768 0.138672C160.98 0.138672 160.207 0.168401 159.449 0.242722" fill="white"/>
</mask>
<g mask="url(#mask0_724_11300)">
<path d="M167.27 -16.3585L145.379 13.2266L177.234 36.7982L199.126 7.2132L167.27 -16.3585Z" fill="url(#paint0_linear_724_11300)"/>
</g>
<mask id="mask1_724_11300" style="mask-type:luminance" maskUnits="userSpaceOnUse" x="162" y="22" width="28" height="12">
<path d="M162.838 23.2525C164.785 23.0741 165.424 22.9552 166.658 23.7133C172.782 27.5185 176.023 31.413 180.393 32.9737C186.071 34.9953 188.33 32.1859 189.103 29.436C188.88 27.801 185.595 23.9511 178.891 22.7471C176.379 22.3012 174.046 22.1377 171.95 22.1377C166.48 22.1377 162.823 23.2674 162.823 23.2674" fill="white"/>
</mask>
<g mask="url(#mask1_724_11300)">
<path d="M171.032 9.973L156.905 30.9961L180.963 47.1625L195.09 26.1394L171.032 9.973Z" fill="url(#paint1_linear_724_11300)"/>
</g>
<mask id="mask2_724_11300" style="mask-type:luminance" maskUnits="userSpaceOnUse" x="142" y="3" width="48" height="29">
<path d="M142.861 10.8115C142.385 11.8222 141.582 14.1708 142.578 16.8315C143.381 18.9868 145.536 20.9786 147.721 22.0042C152.255 24.1149 156.833 23.8177 164.711 23.0893C172.589 22.361 177.063 22.6731 181.151 23.9217C184.674 25.0068 186.814 26.8648 187.825 28.6188C188.598 29.9714 188.375 31.0714 188.003 31.7254C188.969 30.462 189.386 28.6188 189.594 26.8351C189.906 20.9191 181.537 15.6126 166.138 15.2707C158.691 15.1072 150.947 13.9775 148.152 10.0534C146.086 7.16973 147.736 4.61308 149.401 3.4834C146.562 5.26711 144.288 7.74943 142.846 10.8115" fill="white"/>
</mask>
<g mask="url(#mask2_724_11300)">
<path d="M147.019 -11.7976L132.654 28.5449L184.479 46.999L198.844 6.65644L147.019 -11.7976Z" fill="url(#paint2_linear_724_11300)"/>
</g>
<mask id="mask3_724_11300" style="mask-type:luminance" maskUnits="userSpaceOnUse" x="147" y="0" width="43" height="27">
<path d="M149.416 3.48302C147.736 4.6127 146.101 7.15449 148.167 10.053C150.962 13.9772 158.706 15.1068 166.153 15.2704C181.552 15.6122 189.936 20.9188 189.623 26.8347C189.861 24.7983 189.757 22.6579 189.282 20.5026C188.746 18.1837 184.391 12.4164 171.37 10.0679C164.443 8.81928 157.398 8.15039 156.075 4.64243C155.228 2.4128 157.086 0.465582 159.449 0.212891C155.748 0.539904 152.299 1.65472 149.416 3.46816" fill="white"/>
</mask>
<g mask="url(#mask3_724_11300)">
<path d="M154.459 -16.9842L135.643 21.7656L181.56 44.0616L200.376 5.31179L154.459 -16.9842Z" fill="url(#paint3_linear_724_11300)"/>
</g>
<path d="M137.316 8.74461H135.562C135.428 8.74461 135.324 8.71488 135.295 8.67029C135.265 8.62569 135.25 8.53651 135.25 8.40273V4.5083C135.25 4.06238 135.042 3.86914 134.685 3.86914H133.823C133.466 3.86914 133.273 4.06238 133.273 4.5083V16.4443C133.273 16.8902 133.481 17.0834 133.823 17.0834H134.685C135.042 17.0834 135.25 16.8902 135.25 16.4443V10.9296C135.25 10.7364 135.25 10.6324 135.265 10.6026C135.295 10.5729 135.354 10.558 135.473 10.558H137.301C137.732 10.558 137.941 10.3499 137.941 9.9932V9.29458C137.941 8.93784 137.747 8.72974 137.301 8.72974M134.953 19.0158H127.417C127.253 19.0158 127.149 19.0009 127.09 18.9563C127.045 18.9117 127.03 18.8226 127.03 18.6888V15.8348C127.03 15.4038 126.822 15.1957 126.48 15.1957H125.618C125.261 15.1957 125.068 15.3889 125.068 15.8348V19.1496C125.068 19.6401 125.172 20.0266 125.395 20.3387C125.648 20.6806 126.019 20.8589 126.495 20.8589H134.968C135.399 20.8589 135.607 20.6509 135.607 20.2941V19.5509C135.607 19.1942 135.414 18.9861 134.968 18.9861" fill="#51AC32"/>
<path d="M127.58 4.15234C127.937 4.15234 128.145 4.34558 128.145 4.79151V6.0401C128.145 8.37378 129.691 11.0642 131.906 12.1642C132.262 12.3425 132.277 12.6398 132.084 12.8925C131.638 13.4722 131.861 13.1898 131.638 13.4722C131.43 13.7398 131.088 13.8438 130.761 13.6357C129.081 12.625 127.922 11.0345 127.149 9.4886C126.376 11.0345 125.217 12.625 123.537 13.6357C123.21 13.8438 122.853 13.7398 122.66 13.4722C122.452 13.1898 122.66 13.4722 122.214 12.8925C122.036 12.6398 122.051 12.3425 122.392 12.1642C124.592 11.0642 126.153 8.37378 126.153 6.0401V4.79151C126.153 4.36044 126.361 4.15234 126.703 4.15234H127.58Z" fill="#51AC32"/>
<path d="M87.1048 16.1471H80.9659C80.8916 16.1471 80.847 16.1174 80.8173 16.0728C80.7875 16.0282 80.7875 15.9687 80.7875 15.8647V13.5161C80.7875 13.0702 80.5794 12.877 80.2227 12.877H79.3606C79.0038 12.877 78.7957 13.0702 78.7957 13.5161V15.8647C78.7957 15.9538 78.7809 16.0282 78.7363 16.0728C78.7065 16.1322 78.6471 16.1471 78.5579 16.1471H72.4338C72.0325 16.1768 71.8541 16.37 71.8541 16.7119V17.4551C71.8541 17.797 72.0325 17.9902 72.4338 18.0051H87.09C87.521 18.0051 87.7291 17.797 87.7291 17.4403V16.6971C87.7291 16.3403 87.5359 16.1322 87.09 16.1322" fill="#51AC32"/>
<path d="M85.7374 11.9856C84.2213 11.7776 80.8471 10.1425 80.8471 8.46283C80.8471 8.34391 80.8471 8.26959 80.8917 8.23986C80.9214 8.23986 80.9957 8.225 81.0998 8.225H84.7415C85.1874 8.225 85.3807 8.0169 85.3807 7.67502V6.93181C85.3807 6.57507 85.1874 6.38184 84.7415 6.38184H74.7082C74.2622 6.38184 74.069 6.58994 74.069 6.93181V7.67502C74.069 8.03177 74.2622 8.225 74.7082 8.225H78.4985C78.5729 8.225 78.6323 8.23987 78.6472 8.28446C78.6769 8.31419 78.7066 8.37364 78.7066 8.46283C78.7066 10.1573 75.3176 11.7776 73.8163 11.9856C73.4893 12.0302 73.3406 12.3573 73.4893 12.6248C73.6825 12.9964 73.7866 13.1005 73.9649 13.4275C74.1136 13.695 74.3514 13.8139 74.7676 13.7099C76.1054 13.3978 78.3796 12.1343 79.7917 10.4546C80.966 11.837 82.8686 13.264 84.8158 13.7099C85.232 13.7991 85.455 13.695 85.6185 13.4275C85.7969 13.1005 85.8861 12.9964 86.0942 12.6248C86.2428 12.3573 86.0942 12.0451 85.7671 11.9856" fill="#51AC32"/>
<path d="M82.6456 3.42383H77.1904C76.7594 3.42383 76.5513 3.63193 76.5513 3.9738V4.71702C76.5513 5.07376 76.7445 5.26699 77.1904 5.26699H82.6456C83.0767 5.26699 83.2848 5.05889 83.2848 4.71702V3.9738C83.2848 3.61706 83.0915 3.42383 82.6456 3.42383Z" fill="#51AC32"/>
<path d="M120.743 13.1006H106.503C106.072 13.1006 105.864 13.3087 105.864 13.6654V14.4086C105.864 14.7654 106.072 14.9586 106.503 14.9586H112.27C112.419 14.9586 112.508 14.9586 112.538 15.0032C112.582 15.0478 112.597 15.1221 112.597 15.2559V20.2651C112.597 20.6962 112.805 20.9043 113.162 20.9043H114.024C114.381 20.9043 114.574 20.7111 114.574 20.2651V15.3154C114.574 15.1667 114.589 15.0775 114.633 15.0329C114.678 14.9883 114.782 14.9735 114.916 14.9735H120.728C121.159 14.9735 121.367 14.7654 121.367 14.4235V13.6803C121.367 13.3235 121.174 13.1155 120.728 13.1155" fill="#51AC32"/>
<path d="M115.481 9.41421C115.005 9.88987 114.44 10.1277 113.786 10.1277C113.132 10.1277 112.508 9.88987 112.032 9.41421C111.556 8.93856 111.304 8.37372 111.304 7.70483C111.304 6.99135 111.542 6.38191 112.017 5.89139C112.478 5.4306 113.043 5.19277 113.742 5.19277C114.44 5.19277 114.99 5.4306 115.481 5.90626C115.971 6.38191 116.224 6.97648 116.224 7.70483C116.224 8.37372 115.986 8.93856 115.496 9.41421M116.863 4.5982C115.986 3.76581 114.96 3.34961 113.801 3.34961C112.642 3.34961 111.556 3.76581 110.694 4.5982C109.817 5.44547 109.371 6.48596 109.371 7.70483C109.371 8.9237 109.832 9.90473 110.724 10.752C111.601 11.5993 112.627 12.0155 113.786 12.0155C114.946 12.0155 115.971 11.5993 116.848 10.752C117.755 9.90473 118.201 8.89397 118.201 7.70483C118.201 6.51569 117.755 5.46033 116.848 4.5982" fill="#51AC32"/>
<path d="M104.02 12.8479H97.9707C97.8815 12.8479 97.822 12.8479 97.7923 12.8033C97.7477 12.7736 97.7329 12.7141 97.7329 12.6249V11.5993H98.0301C99.6949 11.5993 100.973 11.525 101.865 11.0642C102.504 10.7372 102.831 10.4102 102.742 9.88991C102.683 9.51831 102.668 9.45885 102.668 9.45885C102.668 9.45885 101.211 9.78587 98.8328 9.78587H93.4371C93.333 9.78587 93.2587 9.75613 93.2141 9.69668C93.1695 9.65209 93.1547 9.5629 93.1547 9.47372V8.96833C93.1547 8.81969 93.1695 8.71564 93.2141 8.67105C93.2587 8.62646 93.333 8.59673 93.4668 8.59673H100.557C101.538 8.59673 102.058 8.10621 102.058 7.12517V5.34146C102.058 4.41988 101.642 3.88477 100.735 3.88477H92.2034C91.7723 3.88477 91.5642 4.09287 91.5642 4.44961V5.1185C91.5642 5.47524 91.7723 5.66847 92.2034 5.66847H99.7395C99.8436 5.66847 99.9327 5.6982 99.9922 5.74279C100.052 5.80225 100.081 5.89144 100.081 6.02521V6.42655C100.081 6.56033 100.052 6.64951 100.007 6.70897C99.9625 6.78329 99.8733 6.81302 99.7544 6.81302H92.4858C92.0844 6.81302 91.7723 6.93193 91.5345 7.16976C91.3115 7.40759 91.1926 7.74947 91.1926 8.18053V10.1129C91.1926 10.5439 91.2966 10.8858 91.5196 11.1534C91.7574 11.4507 92.0993 11.5993 92.5601 11.5993H95.7708V12.6249C95.7708 12.729 95.7708 12.8033 95.741 12.8033C95.7113 12.833 95.6519 12.8479 95.5627 12.8479H89.4386C89.0075 12.8479 88.7994 13.056 88.7994 13.3979V14.1411C88.7994 14.4978 88.9927 14.7059 89.4386 14.7059H104.035C104.466 14.7059 104.674 14.4978 104.674 14.1411V13.3979C104.674 13.0411 104.466 12.8479 104.035 12.8479M100.646 15.8059H91.8318C91.4007 15.8059 91.1926 16.014 91.1926 16.3559V17.0991C91.1926 17.4558 91.4007 17.6639 91.8318 17.6639H99.6949C99.8584 17.6639 99.9625 17.6788 100.022 17.7234C100.067 17.768 100.081 17.8423 100.081 17.9909V20.8449C100.081 21.2759 100.289 21.484 100.631 21.484H101.494C101.85 21.484 102.058 21.2908 102.058 20.8449V17.5301C102.058 17.0396 101.939 16.6531 101.731 16.341C101.479 15.9991 101.107 15.8207 100.646 15.8207" fill="#51AC32"/>
<path d="M70.0705 41.0297C69.357 42.0999 68.4354 42.635 67.276 42.635C66.1166 42.635 65.2248 42.0999 64.5113 41.0297C63.7978 39.9595 63.4411 38.4433 63.4411 36.4813C63.4411 34.5192 63.7978 32.9584 64.5113 31.8882C65.2248 30.8328 66.1463 30.2829 67.276 30.2829C68.4057 30.2829 69.357 30.818 70.0705 31.8882C70.784 32.9584 71.1407 34.4894 71.1407 36.4813C71.1407 38.4731 70.784 39.9743 70.0705 41.0297ZM67.276 27.5479C64.7045 27.5479 62.6087 28.3802 61.0033 30.0302C59.398 31.6801 58.5804 33.8354 58.5804 36.4664C58.5804 39.0974 59.3831 41.2229 61.0033 42.8729C62.6235 44.5228 64.7045 45.3552 67.276 45.3552C69.8475 45.3552 71.9434 44.5228 73.5487 42.8729C75.1689 41.2081 75.9716 39.0825 75.9716 36.4664C75.9716 33.8503 75.1689 31.6801 73.5487 30.0302C71.9434 28.3654 69.8475 27.5479 67.276 27.5479Z" fill="#004419"/>
<path d="M81.397 26.166C80.1335 26.166 79.1079 27.1916 79.1079 28.4551V51.9257C79.1079 53.1892 80.1335 54.2148 81.397 54.2148C82.6605 54.2148 83.6861 53.1892 83.6861 51.9257V28.4551C83.6861 27.1916 82.6605 26.166 81.397 26.166Z" fill="#004419"/>
<path d="M11.7432 41.03C11.0297 42.1003 10.0933 42.6354 8.94874 42.6354C7.80419 42.6354 6.89748 42.1003 6.19887 41.03C5.48538 39.9598 5.12864 38.4437 5.12864 36.4816C5.12864 34.5195 5.48538 32.9439 6.19887 31.8737C6.91235 30.8183 7.83392 30.2683 8.94874 30.2683C10.0636 30.2683 11.0297 30.8034 11.7432 31.8737C12.4567 32.9439 12.8134 34.4749 12.8134 36.4816C12.8134 38.4882 12.4567 39.9747 11.7432 41.03ZM23.1887 26.1807C21.9252 26.1807 20.8996 27.2063 20.8996 28.4698V34.7871H17.5105C17.2281 32.8993 16.47 31.3237 15.2214 30.0305C13.6012 28.3657 11.5202 27.5482 8.94874 27.5482C6.37722 27.5482 4.28136 28.3806 2.67603 30.0305C1.05583 31.6804 0.253174 33.8357 0.253174 36.4816C0.253174 39.1274 1.05583 41.2381 2.67603 42.8881C4.28136 44.5529 6.37722 45.3852 8.94874 45.3852C11.5202 45.3852 13.6161 44.5529 15.2214 42.8881C16.6187 41.4611 17.4065 39.6625 17.5849 37.5221H20.8847V51.9404C20.8847 53.2038 21.9104 54.2295 23.1738 54.2295C24.4373 54.2295 25.4629 53.2038 25.4629 51.9404V28.4698C25.4629 27.2063 24.4373 26.1807 23.1738 26.1807" fill="#004419"/>
<path d="M102.906 41.8775L102.772 41.6545C101.092 38.9195 99.5165 37.2845 97.272 35.5007C97.7476 33.9697 98.0449 32.0225 98.0301 30.2239H101.835C102.593 30.2239 103.203 29.6145 103.203 28.8564C103.203 28.0984 102.593 27.4889 101.835 27.4889H89.7656C89.0075 27.4889 88.3981 28.0984 88.3981 28.8564C88.3981 29.6145 89.0075 30.2239 89.7656 30.2239H93.5708C93.5708 36.2142 90.8952 40.0789 88.0116 42.9923C87.5359 43.5869 87.4765 44.4044 88.1156 44.8949C88.7251 45.3706 89.2899 45.1922 90.1669 44.6571C92.5303 43.2153 94.7302 40.6735 96.1126 38.1317C97.9409 40.5695 99.4868 43.9882 99.8881 44.5977C100.453 45.4449 101.791 45.6084 102.697 44.7463C103.5 43.9734 103.426 42.7545 102.846 41.8626L102.906 41.8775ZM113.593 26.166C112.374 26.166 111.452 27.1471 111.452 28.3659V34.7724H109.223V28.3659C109.223 27.1471 108.301 26.166 107.082 26.166C105.864 26.166 104.942 27.1471 104.942 28.3659V52.0149C104.942 53.2338 105.864 54.2148 107.082 54.2148C108.301 54.2148 109.223 53.2338 109.223 52.0149V37.5074H111.452V52.0149C111.452 53.2338 112.374 54.2148 113.593 54.2148C114.812 54.2148 115.733 53.2338 115.733 52.0149V28.3659C115.733 27.1471 114.812 26.166 113.593 26.166Z" fill="#004419"/>
<path d="M45.9607 42.4572C47.462 41.8032 47.7444 40.8221 47.6403 40.1978C47.5511 39.6776 47.1647 39.4398 46.5998 39.5438C45.3512 39.7965 43.4337 40.0492 40.6393 40.0492H35.7489C35.1841 40.0492 34.9017 39.7668 34.9017 39.2019V37.1655C34.9017 36.6007 35.1841 36.3183 35.7489 36.3183H42.8986C44.6526 36.3183 45.5445 35.4413 45.5445 33.6724V28.7078C45.5445 28.3065 45.4404 27.9943 45.2472 27.8011C45.0391 27.593 44.6972 27.5038 44.1621 27.5038H32.0775C31.3194 27.5038 30.7099 28.1132 30.7099 28.8713C30.7099 29.6294 31.3194 30.2388 32.0775 30.2388H41.0109V32.9441C41.0109 33.3752 40.7879 33.5833 40.342 33.5833H32.5977C31.2005 33.5833 30.3829 34.3711 30.3829 35.7237V39.9452C30.3829 42.2937 31.7505 43.2896 34.1139 43.2896H39.1083C42.2743 43.2896 44.6229 43.0369 45.9607 42.4423M51.7874 26.166C50.524 26.166 49.4983 27.1916 49.4983 28.4551V45.6976C49.4983 46.9611 50.524 47.9867 51.7874 47.9867C53.0509 47.9867 54.0765 46.9611 54.0765 45.6976V28.4551C54.0765 27.1916 53.0509 26.166 51.7874 26.166ZM52.709 52.9068H40.4312C40.0001 52.9068 39.9109 52.8027 39.8961 52.8027C39.8217 52.7135 39.7771 52.5649 39.7771 52.3568V47.1097C39.7771 45.8611 38.7664 44.8503 37.5178 44.8503C36.2692 44.8503 35.2435 45.8611 35.2435 47.1097V53.65C35.2435 54.1554 35.4219 54.5716 35.7489 54.9134C36.2097 55.404 36.9827 55.6566 38.0083 55.6566H52.6942C53.4522 55.6566 54.0617 55.0472 54.0617 54.2891C54.0617 53.5311 53.4522 52.9216 52.6942 52.9216" fill="#004419"/>
<path d="M136.246 41.1046C137.747 40.4505 138.03 39.4695 137.926 38.8452C137.836 38.325 137.45 38.0871 136.885 38.1912C135.637 38.4439 133.719 38.6966 130.925 38.6966H126.034C125.469 38.6966 125.187 38.4141 125.187 37.8493V31.0712C125.187 30.5064 125.469 30.2239 126.034 30.2239H134.046C134.804 30.2239 135.414 29.6145 135.414 28.8564C135.414 28.0984 134.804 27.4889 134.046 27.4889H122.868C121.456 27.4889 120.653 28.2767 120.653 29.6294V38.5925C120.653 40.9411 122.021 41.937 124.384 41.937H129.379C132.545 41.937 134.893 41.6843 136.246 41.0897M142.994 52.8919H130.717C130.285 52.8919 130.196 52.7878 130.181 52.7878C130.107 52.6987 130.062 52.55 130.062 52.3419V47.0948C130.062 45.8462 129.052 44.8355 127.803 44.8355C126.555 44.8355 125.529 45.8462 125.529 47.0948V53.6351C125.529 54.1256 125.707 54.5567 126.034 54.8986C126.51 55.3891 127.268 55.6418 128.294 55.6418H142.979C143.738 55.6418 144.347 55.0323 144.347 54.2743C144.347 53.5162 143.738 52.9068 142.979 52.9068M147.097 34.9954H144.347V28.4551C144.347 27.1916 143.321 26.166 142.058 26.166C140.794 26.166 139.769 27.1916 139.769 28.4551V45.6976C139.769 46.9611 140.794 47.9867 142.058 47.9867C143.321 47.9867 144.347 46.9611 144.347 45.6976V37.7452H147.097C147.855 37.7452 148.464 37.1358 148.464 36.3777C148.464 35.6197 147.855 35.0102 147.097 35.0102" fill="#004419"/>
<defs>
<linearGradient id="paint0_linear_724_11300" x1="153.763" y1="4.06207" x2="180.541" y2="23.8766" gradientUnits="userSpaceOnUse">
<stop stop-color="#D1D600"/>
<stop offset="0.64" stop-color="#AEC90F"/>
<stop offset="1" stop-color="#A0C416"/>
</linearGradient>
<linearGradient id="paint1_linear_724_11300" x1="172.167" y1="24.7007" x2="176.368" y2="18.4485" gradientUnits="userSpaceOnUse">
<stop stop-color="#00712F"/>
<stop offset="0.17" stop-color="#00672A"/>
<stop offset="0.69" stop-color="#004D1D"/>
<stop offset="1" stop-color="#004419"/>
</linearGradient>
<linearGradient id="paint2_linear_724_11300" x1="150.214" y1="6.58672" x2="197.182" y2="23.3116" gradientUnits="userSpaceOnUse">
<stop stop-color="#51AC32"/>
<stop offset="1" stop-color="#008A3B"/>
</linearGradient>
<linearGradient id="paint3_linear_724_11300" x1="143.772" y1="8.10503" x2="184.411" y2="27.8386" gradientUnits="userSpaceOnUse">
<stop stop-color="#A0C416"/>
<stop offset="1" stop-color="#51AC32"/>
</linearGradient>
</defs>
</svg>
