<svg width="243" height="71" viewBox="0 0 243 71" fill="none" xmlns="http://www.w3.org/2000/svg">
<g clip-path="url(#clip0_721_9422)">
<path d="M61.8291 17.3261C64.7474 13.8772 66.0331 12.2854 65.7678 11.4078C65.5637 10.7548 64.8699 10.1834 63.8495 9.79564C62.7475 9.38748 61.2373 9.18341 60.4822 9.63237C60.2373 9.77523 59.8088 10.2446 58.8292 11.367L57.9109 12.4078C57.319 11.816 56.6864 11.2038 56.0742 10.6732C51.6049 6.77531 46.1357 4.24476 40.2379 3.32642C37.8706 0.795871 34.7686 -0.367364 31.7075 0.102011C29.1565 0.510164 26.8913 2.04074 25.3403 4.40802C19.3404 6.2243 13.9324 9.67319 9.62641 14.3669C8.66725 14.0812 6.56527 14.4486 5.23877 15.1628C4.48369 15.571 4.05513 16.0608 3.95309 16.5914C3.87146 16.9995 4.05513 17.6322 5.68774 19.5097C1.48377 26.2646 -0.332514 34.2032 0.565422 41.9377C1.50417 49.8558 5.25918 57.0597 11.157 62.2024C13.259 64.0187 15.5446 65.5493 18.0139 66.7533C21.5853 68.488 25.5036 69.692 29.7075 70.2635C38.5236 71.4471 47.054 69.5492 54.0334 65.4881C54.9314 64.9779 55.2375 63.8963 54.8089 62.8963L54.6865 62.5902C52.8702 58.5291 47.3601 46.162 50.4213 34.8562C51.707 30.142 55.4211 25.1014 58.6251 21.1627C62.0332 26.4687 63.7883 32.7542 63.523 38.9377C63.2781 44.7947 61.3598 50.264 57.9109 54.8353C57.8088 54.9577 57.7476 55.121 57.768 55.3047C57.768 55.3863 57.7884 55.4475 57.8088 55.5087L58.1558 56.325C58.2782 56.5699 58.5231 56.7332 58.8088 56.7128C58.9925 56.7128 59.1761 56.6107 59.2782 56.4679C68.3392 44.9784 69.4208 29.1625 61.8087 17.3261H61.8291ZM21.7894 44.0192C21.0751 48.264 20.0751 54.0802 20.9731 62.8351C18.6466 61.6514 16.4222 60.1617 14.4426 58.4474C9.03459 53.7333 5.38162 47.3253 4.15717 40.3867C2.97352 33.7338 4.07554 26.938 7.27953 21.2035C8.50399 22.4688 9.95293 23.9381 11.5039 25.4483C15.2589 29.1829 19.5241 33.4073 21.6057 36.4072C22.8097 38.1418 22.4424 40.3459 21.8098 43.9988M54.5028 16.02C47.5642 22.9994 41.0338 26.7748 35.0747 27.2238C30.5034 27.5707 25.6464 26.2034 20.6669 23.1626C16.5446 20.6525 13.361 17.6526 11.4631 15.8567L11.2794 15.673C14.6671 12.0405 18.9935 9.34667 23.8097 7.91813C23.2995 9.79564 23.1975 11.816 23.524 13.8363C24.0954 17.4485 25.9525 20.6525 28.6259 22.5912C30.7279 24.1218 33.1768 24.7544 35.5441 24.3871C37.9114 24.0198 40.0542 22.6524 41.5644 20.5709C43.5235 17.8975 44.299 14.2853 43.748 10.6732C43.6459 9.99971 43.5031 9.34667 43.299 8.71403C46.7683 10.0405 49.9723 11.9588 52.809 14.4486C53.3804 14.9588 53.9518 15.4894 54.5232 16.0404L54.5028 16.02Z" fill="#E60012"/>
<path d="M87.3185 34.3054C86.9103 33.9993 86.4817 33.734 86.0532 33.4687C86.7062 32.285 87.2368 30.9381 87.6654 29.4484C88.094 27.9586 88.298 26.2648 88.298 24.3465H84.3185C84.3798 25.0811 84.3594 26.0607 84.3389 26.7954C84.3389 26.8566 84.3389 26.9178 84.3389 26.979C84.3389 27.0607 84.3389 27.1219 84.3389 27.1831C84.3389 27.5913 84.2981 27.8566 84.2981 27.8566V27.6729C84.2369 28.3668 84.1349 29.0402 83.9512 29.7137C83.7063 30.6116 83.4002 31.5095 83.0737 32.4075C82.6247 33.5911 81.9717 34.7543 81.1758 35.8564C80.3595 36.9584 79.5432 37.8767 78.7473 38.6318L80.2982 40.244C81.2166 39.6318 82.0329 38.9175 82.7676 38.1216C83.5022 37.3257 84.1553 36.4686 84.7675 35.5707C85.1144 35.8359 85.441 36.1012 85.7471 36.387C86.0532 36.6931 86.3593 36.9788 86.6246 37.2849C87.0532 37.7543 87.5225 38.3461 88.0735 39.0399C88.6041 39.7338 89.0327 40.3256 89.3184 40.8358L91.2571 38.1828C90.9306 37.7134 90.5225 37.2237 90.0531 36.7135C89.5837 36.2237 89.0531 35.7135 88.4817 35.2237C88.1348 34.8768 87.747 34.5707 87.3389 34.2646M92.4408 46.8357H96.0937V23.4281H92.4408V25.4893V29.8157V30.3871H89.3184V33.2442H92.4408V46.8153V46.8357ZM97.6855 46.8357H101.339V23.4281H97.6855V46.8357ZM114.399 32.7748C114.399 34.3462 114.073 35.6931 113.399 36.8155C112.726 37.9379 111.93 38.4889 110.991 38.4889C110.053 38.4889 109.257 37.9175 108.583 36.8155C107.93 35.6931 107.583 34.3462 107.583 32.7748C107.583 31.2034 107.91 29.8361 108.583 28.7137C109.257 27.5913 110.053 27.0403 110.991 27.0403C111.93 27.0403 112.726 27.6117 113.399 28.7137C114.073 29.8361 114.399 31.183 114.399 32.7748ZM116.154 38.4889C117.583 36.8971 118.318 34.9992 118.318 32.7748C118.318 30.5504 117.603 28.6116 116.154 27.0403C114.726 25.4689 112.991 24.673 110.971 24.673C108.951 24.673 107.236 25.4689 105.808 27.0403C104.379 28.6116 103.645 30.53 103.645 32.7748C103.645 35.0196 104.359 36.9176 105.808 38.4889C107.236 40.0807 108.971 40.8562 110.971 40.8562C112.971 40.8562 114.726 40.0603 116.154 38.4889ZM120.909 46.8153H124.766V23.4077H120.909V46.8153ZM134.399 30.9993H143.072V34.7339H135.562C135.134 34.7339 134.868 34.6727 134.685 34.5095C134.501 34.3666 134.399 34.0809 134.399 33.6727V30.9993ZM133.317 37.6318H146.97V24.6526H143.072V28.1015H134.399V24.6526H130.44V34.6523C130.44 35.6319 130.746 36.3665 131.256 36.8563C131.807 37.3665 132.481 37.6114 133.297 37.6114M127.154 43.7337H150.215V40.8358H127.154V43.7337ZM156.378 27.53H164.847V24.6322H152.46V37.7951C152.46 38.8155 152.705 39.591 153.215 40.0807C153.684 40.5297 154.255 40.7746 154.929 40.795C154.99 40.795 155.031 40.795 155.072 40.795H164.827V37.8971H157.113C156.745 37.8971 156.582 37.8155 156.521 37.7543C156.419 37.6726 156.378 37.489 156.378 37.2237V27.5096V27.53ZM168.663 46.7744H172.561V23.3669H171.704L168.663 26.6117V31.2646H161.623V34.1625H168.663V46.7744ZM187.683 35.5502L190.153 33.3258C189.887 32.9177 189.499 32.5299 189.03 32.1422C188.561 31.7544 188.051 31.3871 187.5 31.0402C186.949 30.6932 186.357 30.3667 185.765 30.0606C185.153 29.7545 184.581 29.4892 184.03 29.2647C184.214 28.9586 184.398 28.6729 184.52 28.3872C184.663 28.1015 184.785 27.7953 184.908 27.4688H189.214V24.6118H184.908V22.5098H181.173V24.6118H175.867V27.4688H180.847C180.663 28.1015 180.336 28.7545 179.908 29.3871C179.479 30.0198 178.99 30.632 178.459 31.2034C177.867 31.8361 177.255 32.3871 176.602 32.8564C175.949 33.3462 175.377 33.7136 174.867 33.938L176.561 35.6115C177.092 35.3666 177.643 35.0809 178.173 34.7748C178.704 34.4482 179.255 34.1013 179.785 33.6931C180.296 33.3054 180.806 32.8973 181.296 32.4687C181.785 32.0197 182.234 31.5503 182.683 31.0606C183.173 31.3463 183.663 31.6524 184.153 31.9993C184.642 32.3462 185.112 32.734 185.561 33.1217C186.01 33.5095 186.418 33.8972 186.785 34.3054C187.153 34.7135 187.459 35.1217 187.683 35.5298M191.581 35.5298H195.438V23.3057H191.581V35.5298ZM181.622 47.754H195.438V44.8969H183.867C183.642 44.8969 183.54 44.8561 183.5 44.8357C183.438 44.7949 183.418 44.6725 183.418 44.5092V43.6317H195.438V38.4889C195.438 37.9788 195.316 37.5502 195.05 37.2033C194.785 36.8359 194.316 36.6523 193.703 36.6523H179.479V39.5093H191.01C191.459 39.5093 191.52 39.693 191.52 39.8767V40.8154H179.479V45.5704C179.479 47.0193 180.214 47.7948 181.622 47.7948M204.989 27.53H217.519V24.6322H201.071V34.489C201.071 35.5094 201.315 36.2849 201.826 36.7747C202.295 37.2237 202.866 37.4686 203.54 37.5094C203.581 37.5094 203.642 37.5094 203.683 37.5094H217.499V34.6115H205.703C205.336 34.6115 205.173 34.5299 205.111 34.4686C205.009 34.387 204.968 34.2033 204.968 33.938V27.53H204.989ZM197.765 43.7337H220.825V40.8358H197.765V43.7337ZM225.274 38.9787H234.662V36.1217H227.539C227.315 36.1217 227.213 36.0808 227.172 36.04C227.111 35.9992 227.09 35.8768 227.09 35.7135V33.2238H234.682V26.4688C234.682 25.9587 234.56 25.5301 234.294 25.1832C234.029 24.8158 233.56 24.6322 232.947 24.6322H223.172V27.4688H230.274C230.723 27.4688 230.784 27.6525 230.784 27.8566V30.3871H223.172V36.7543C223.172 38.2032 223.907 38.9787 225.315 38.9787M239.11 40.9991H242.967V23.3669H239.11V30.3667H235.886V33.2646H239.11V40.9991ZM242.967 47.7744V44.7541H231.927C231.56 44.7541 231.396 44.6725 231.335 44.6112C231.233 44.5296 231.192 44.3459 231.192 44.0806V40.1624H227.254V44.7745C227.254 45.7949 227.498 46.5704 228.009 47.0601C228.478 47.5091 229.049 47.754 229.723 47.7948C229.764 47.7948 229.805 47.7948 229.866 47.7948H229.907H242.967V47.7744Z" fill="#1C1C1B"/>
</g>
<defs>
<clipPath id="clip0_721_9422">
<rect width="242.586" height="70.59" fill="white" transform="translate(0.341125)"/>
</clipPath>
</defs>
</svg>
