<svg width="314" height="56" viewBox="0 0 314 56" fill="none" xmlns="http://www.w3.org/2000/svg">
<g clip-path="url(#clip0_721_9305)">
<path d="M28.2677 55.7834C43.6719 55.7834 56.1594 43.2959 56.1594 27.8917C56.1594 12.4875 43.6719 0 28.2677 0C12.8635 0 0.375977 12.4875 0.375977 27.8917C0.375977 43.2959 12.8635 55.7834 28.2677 55.7834Z" fill="#00AA87"/>
<path d="M28.2677 48.4972C39.6477 48.4972 48.873 39.2719 48.873 27.8919C48.873 16.5119 39.6477 7.28662 28.2677 7.28662C16.8877 7.28662 7.66245 16.5119 7.66245 27.8919C7.66245 39.2719 16.8877 48.4972 28.2677 48.4972Z" fill="white"/>
<path d="M35.9034 21.0338H29.1091V19.4145L35.8875 15.9698L27.3787 11.6519V17.3032V21.0338H20.5844V22.7641H35.9034V21.0338ZM29.1091 14.4617L32.0776 15.9698L29.1091 17.4778V14.4617Z" fill="#00AA87"/>
<path d="M32.1252 35.4323V28.6855H23.8546V36.4324L24.9975 37.8611H20.5685V39.5914H28.5693L25.5849 35.8291V30.4H30.3949V36.0355L33.2206 39.5914H35.9351V37.8611H34.0461L32.1252 35.4323Z" fill="#00AA87"/>
<path d="M17.2666 37.0991V32.5748C17.2666 31.4636 16.8062 30.781 15.822 30.4635C16.8062 30.146 17.2507 29.4951 17.2507 28.3521V23.5739C17.2507 22.8913 17.5206 22.8754 18.1079 22.8119L18.981 22.7643V21.0498H17.6476C15.9172 21.0498 15.0441 21.3673 15.0441 23.1453V27.9394C15.0441 29.13 14.8219 29.6539 13.4726 29.8126H13.4249V31.1778H13.4726C14.7108 31.3207 15.06 31.7493 15.06 33.051V37.5277C15.06 39.0993 15.7109 39.6231 17.6635 39.6231H18.9969V37.9087L18.1238 37.861C17.5365 37.7975 17.2666 37.7817 17.2666 37.0991Z" fill="#00AA87"/>
<path d="M43.0629 29.7647C41.7135 29.606 41.4913 29.0821 41.4913 27.8915V23.0974C41.4913 21.7004 41.0944 21.002 38.8878 21.002H37.5544V22.7164L38.4275 22.764C39.0148 22.8275 39.2847 22.8434 39.2847 23.526V28.3043C39.2847 29.4314 39.7292 30.0981 40.7134 30.4156C39.7292 30.7331 39.2688 31.4157 39.2688 32.5269V37.0512C39.2688 37.7338 38.9989 37.7497 38.4116 37.8132L37.5385 37.8608V39.5753H38.872C40.8245 39.5753 41.4754 39.0514 41.4754 37.4798V33.0032C41.4754 31.7015 41.8246 31.2887 43.0629 31.13H43.1105V29.7647H43.0629Z" fill="#00AA87"/>
<path d="M7.82118 14.1127L8.23392 13.4936L7.97993 13.3189L7.61481 13.8745C8.07517 14.3984 7.94818 15.1445 7.67831 15.8113L7.23382 15.6208C7.50369 14.9858 7.61481 14.3984 7.09095 14.0492L6.45596 14.9858L6.10672 14.7477L7.01157 13.3983L7.31319 13.6047L7.66243 13.0808L7.21794 12.7792L7.50369 12.3506L9.21815 13.4936L8.9324 13.9222L8.61491 13.6999L8.20217 14.319L7.8688 14.0968L7.82118 14.1127ZM8.56729 14.4302C8.8689 13.9698 9.34514 13.8269 9.71026 14.0809C10.0754 14.319 10.123 14.827 9.82138 15.2715C9.51976 15.716 9.04353 15.8589 8.67841 15.6208C8.31329 15.3668 8.26567 14.8747 8.56729 14.4302ZM9.48802 15.0493C9.63089 14.8429 9.61501 14.6207 9.42452 14.4937C9.2499 14.3825 9.04353 14.446 8.90065 14.6524C8.75778 14.8588 8.78953 15.081 8.96415 15.1921C9.13877 15.3033 9.34514 15.2556 9.48802 15.0334V15.0493Z" fill="white"/>
<path d="M8.32917 11.4615L8.66253 11.0805L8.88478 11.271L9.71026 10.3503L9.48802 10.1598L9.82138 9.77881L10.8056 10.6678L9.29752 12.3346L8.31329 11.4456L8.32917 11.4615ZM10.1706 10.7948L9.98013 10.6202L9.15465 11.5409L9.34514 11.7155L10.1706 10.7948ZM11.266 10.4932L11.5676 10.763L10.6786 11.7473L10.9009 11.9378L11.5041 11.271L12.3613 12.0489L12.0121 12.4299L11.4565 11.9219L10.2659 13.2395L9.96425 12.9696L10.5516 12.3187L10.3294 12.1283L9.45627 13.0966L9.15465 12.8267L11.266 10.4932Z" fill="white"/>
<path d="M11.9327 9.06433C11.9962 8.82621 11.9803 8.79446 11.901 8.69921L11.5993 8.34997L12.0121 8.0166L12.3137 8.36584C12.3772 8.44522 12.4089 8.46109 12.6788 8.46109L13.8377 8.42934V8.90558L12.7106 8.93733C12.6153 8.93733 12.5359 8.93733 12.4566 8.93733C12.4566 9.0167 12.4407 9.09608 12.4089 9.19132L12.1708 10.3025L11.6946 10.2073L11.9486 9.0802L11.9327 9.06433ZM13.0915 10.1279L12.6788 9.61994L13.0757 9.28657L13.4884 9.79456L14.5044 8.93733L14.7743 9.25482L12.3613 11.2709L12.0914 10.9534L13.0915 10.1121V10.1279Z" fill="white"/>
<path d="M13.7742 6.73067L15.8537 5.44482L16.076 5.79407L15.7109 6.01631L16.2506 6.88942L16.6157 6.66717L16.8221 7.01641L14.7425 8.30226L14.5362 7.95302L14.9013 7.73077L14.3615 6.85767L13.9964 7.07991L13.7742 6.73067ZM17.346 7.19103L17.5682 7.55615L14.8854 9.20711L14.6631 8.84199L17.346 7.19103ZM15.8061 7.15928L15.2664 6.28618L14.7901 6.5878L15.3299 7.4609L15.8061 7.15928Z" fill="white"/>
<path d="M19.0922 3.90527L19.2509 4.28626L17.6158 5.00062L17.7428 5.30224L19.3779 4.58788L19.5367 4.953L17.9016 5.66736L18.0444 5.98485L19.6795 5.27049L19.8383 5.63561L17.7269 6.55634L16.965 4.826L19.0763 3.90527H19.0922ZM17.5206 7.11195L20.4098 5.85785L20.5685 6.23884L17.6793 7.49294L17.5206 7.11195Z" fill="white"/>
<path d="M20.1716 4.03202C20.0446 3.58753 20.2828 3.20653 20.7272 3.07954C21.1717 2.95254 21.5686 3.17479 21.6956 3.61927C21.8226 4.06376 21.5845 4.44476 21.14 4.57175C20.6955 4.68288 20.2986 4.4765 20.1716 4.03202ZM20.3304 4.90512L21.9972 4.44476L22.1083 4.84162L21.521 5.00037L21.8067 6.01634L21.3464 6.14334L21.0606 5.12736L20.4574 5.30199L20.3463 4.90512H20.3304ZM21.0289 4.17489C21.2194 4.12726 21.2987 3.95264 21.2352 3.74627C21.1717 3.5399 21.013 3.42878 20.8384 3.4764C20.6479 3.52403 20.5685 3.69865 20.632 3.90502C20.6955 4.11139 20.8384 4.22251 21.0289 4.15901V4.17489ZM21.775 5.14324L22.2988 5.00037L21.7115 2.88904L22.1718 2.76205L23.0132 5.82585L22.5528 5.95284L22.3941 5.38136L21.8702 5.52423L21.775 5.14324ZM22.3782 2.65092L22.8386 2.52393L23.7276 5.77822L23.2672 5.90522L22.3782 2.65092Z" fill="white"/>
<path d="M23.6323 3.66707C23.5529 3.07971 23.9022 2.60347 24.4737 2.53998C24.9816 2.47648 25.3944 2.76222 25.5214 3.23846L25.9976 3.17496L25.8547 2.07961L26.3627 2.01611L26.7914 5.36566L26.2834 5.42916L26.0452 3.5877L25.569 3.6512C25.5373 4.12744 25.2198 4.49255 24.7277 4.55605C24.1562 4.63543 23.7117 4.27031 23.6323 3.68295V3.66707ZM24.68 4.12744C24.9658 4.09569 25.1086 3.8417 25.0769 3.49245C25.0293 3.14321 24.8229 2.93684 24.5372 2.96859C24.2514 3.00034 24.1085 3.25433 24.1403 3.60358C24.1879 3.95282 24.3943 4.15919 24.68 4.12744Z" fill="white"/>
<path d="M28.9186 2.30186L28.8709 4.47668L27.2041 4.44493L27.2517 2.27011L28.9186 2.30186ZM28.3788 4.06394L28.4106 2.69872H27.7438L27.7121 4.04807H28.3788V4.06394ZM29.3631 2.01611H29.871L29.8552 3.33371H30.3473V3.76232H29.8552L29.8234 5.39741H29.3154L29.3789 2.01611H29.3631Z" fill="white"/>
<path d="M31.7919 2.50832C32.3633 2.60357 32.6808 3.07981 32.5856 3.66717C32.4903 4.25453 32.03 4.60377 31.4585 4.50853C30.887 4.41328 30.5695 3.93704 30.6648 3.34968C30.76 2.76232 31.2204 2.41308 31.7919 2.50832ZM31.5379 4.07991C31.8236 4.12753 32.03 3.93704 32.0935 3.5878C32.157 3.23856 31.9982 2.98456 31.7284 2.93694C31.4585 2.88931 31.2362 3.09568 31.1728 3.44493C31.1093 3.79417 31.268 4.04816 31.5379 4.09579V4.07991ZM33.6968 2.5242L33.1571 5.85787L32.6491 5.7785L33.1888 2.44482L33.6968 2.5242Z" fill="white"/>
<path d="M36.7447 6.04807L36.6178 6.44493L33.6174 5.50833L33.7444 5.11147L36.7447 6.04807ZM35.2367 3.96849C35.4748 3.88912 35.5065 3.85737 35.5383 3.74625L35.6811 3.30176L36.1891 3.4605L36.0463 3.90499C36.0145 4.00024 36.0145 4.04787 36.1733 4.25424L36.8241 5.20671L36.4273 5.47658L35.7764 4.53998C35.7764 4.53998 35.6811 4.38123 35.6494 4.31773C35.5859 4.34948 35.5065 4.38123 35.4113 4.41298L34.3477 4.80985L34.1731 4.36536L35.2525 3.95262L35.2367 3.96849Z" fill="white"/>
<path d="M38.0147 4.17529L39.5069 4.88965L39.3323 5.27064L38.3005 4.77853L38.0941 5.20714L39.0466 5.66751L38.8719 6.0485L37.9195 5.58813L37.7131 6.03262L38.8243 6.55649L38.6497 6.93748L37.0781 6.19137L38.0306 4.17529H38.0147ZM40.6499 5.08015L39.1894 8.12807L38.7291 7.90583L39.4911 6.31837L38.9989 6.08025L39.1736 5.69926L39.6657 5.93738L40.1895 4.8579L40.6499 5.08015Z" fill="white"/>
<path d="M40.8404 8.17559L41.4278 7.28662L41.8564 7.57236L41.269 8.46134L42.539 9.30269L42.3009 9.65193L39.6815 7.90573L39.9197 7.55648L40.8404 8.15972V8.17559ZM41.4754 5.88965L43.3645 7.14374L42.3485 8.68358L41.9199 8.39784L42.7136 7.20724L41.2531 6.23889L41.4913 5.88965H41.4754Z" fill="white"/>
<path d="M44.1582 10.1597C44.5868 10.5407 44.6662 11.0328 44.3646 11.3662C44.0629 11.6995 43.555 11.6678 43.1263 11.3027C42.7136 10.9217 42.6342 10.4137 42.92 10.0962C43.2216 9.76284 43.7137 9.79459 44.1423 10.1756L44.1582 10.1597ZM45.698 10.7947L45.4282 11.0963L43.0787 9.00086L43.3486 8.69924L45.698 10.7947ZM43.4121 10.9852C43.6185 11.1757 43.8407 11.1757 43.9836 11.0169C44.1106 10.8741 44.0788 10.6359 43.8725 10.4613C43.6661 10.2867 43.4438 10.2708 43.301 10.4137C43.1581 10.5724 43.1898 10.7947 43.3962 10.9852H43.4121ZM44.6503 7.92139L46.3171 9.42948L46.0473 9.73109L44.7456 8.57225L44.4598 8.88974L45.7615 10.0486L45.4917 10.3502L43.8248 8.84212L44.6503 7.92139Z" fill="white"/>
<path d="M45.6504 11.9058L47.095 13.6362L46.1902 14.3823L45.8568 13.9854L46.4441 13.4933L45.317 12.1598L45.6345 11.8899L45.6504 11.9058ZM46.841 10.3184L47.3014 10.874L47.603 10.6359L47.9205 11.0168L47.6189 11.255L48.0792 11.8106L47.7617 12.0804L47.6189 11.9058C47.5712 12.0487 47.4919 12.1916 47.3649 12.3027C46.9839 12.6202 46.4918 12.5726 46.1584 12.1757C45.8409 11.7947 45.8727 11.2867 46.2378 10.9692C46.3648 10.8581 46.5076 10.8105 46.6664 10.7946L46.5235 10.62L46.841 10.3501V10.3184ZM46.46 11.8899C46.6188 12.0646 46.841 12.0804 47.0474 11.9058C47.2538 11.7312 47.2855 11.509 47.1268 11.3185C46.9839 11.1438 46.7458 11.1438 46.5394 11.3185C46.333 11.4931 46.3013 11.7153 46.4441 11.8899H46.46ZM48.873 12.1598L48.1904 12.7313L48.4761 13.0805L48.1586 13.3504L47.8729 13.0012L47.2061 13.5568L46.8728 13.1599L48.5396 11.763L48.873 12.1598Z" fill="white"/>
<path d="M47.5871 14.7952L48.4126 14.2713L48.6825 14.6999L47.857 15.2079L48.0475 15.5095L48.873 14.9857L49.1428 15.4143L48.3173 15.9381L48.9206 16.9224L48.5713 17.1446L46.9204 14.4777L47.2696 14.2554L47.603 14.7793L47.5871 14.7952ZM49.4127 13.4141L50.6192 15.3666L49.0476 16.3509L48.7777 15.9064L50.0001 15.1444L49.0635 13.6363L49.4127 13.4141Z" fill="white"/>
<path d="M4.48749 23.7327L4.37637 24.2724L3.51914 24.0978C3.29689 23.812 3.2334 23.4469 3.31277 23.0183C3.37627 22.6691 3.56676 22.3833 3.83663 22.1928C4.12237 22.0023 4.43987 21.9388 4.80498 22.0023C5.1701 22.0658 5.43997 22.2563 5.63046 22.5421C5.82096 22.8278 5.88446 23.1612 5.82096 23.4945C5.75746 23.8438 5.58284 24.1137 5.2971 24.3359L4.94786 23.9708C5.05898 23.8755 5.15423 23.7962 5.20185 23.7168C5.24947 23.6374 5.2971 23.5422 5.31297 23.431C5.3606 23.2247 5.31297 23.0342 5.20185 22.8754C5.09073 22.7008 4.91611 22.6056 4.69386 22.5579C4.47162 22.5103 4.26525 22.5579 4.1065 22.6532C3.94775 22.7643 3.83663 22.9072 3.80488 23.0977C3.77313 23.2882 3.77313 23.4469 3.80488 23.5898L4.47162 23.7168L4.48749 23.7327Z" fill="white"/>
<path d="M2.97941 25.6693L3.02703 25.1296L3.99538 25.2249L5.56697 24.5264L5.50347 25.1137L4.53512 25.5582L5.39235 26.1773L5.32885 26.7647L3.93188 25.7646L2.96353 25.6693H2.97941Z" fill="white"/>
<path d="M5.34472 28.7015H4.85261V27.4792H4.34462V28.5745H3.88426V27.4633H3.37627V28.7174H2.88416V26.9077H5.34472V28.7015Z" fill="white"/>
<path d="M3.43976 31.3681C3.1699 31.1458 3.02702 30.8601 2.9794 30.495C2.94765 30.1298 3.02702 29.8124 3.24927 29.5425C3.47151 29.2726 3.75726 29.1139 4.1065 29.0821C4.47162 29.0504 4.77323 29.1456 5.0431 29.3679C5.31297 29.5901 5.45584 29.8759 5.50347 30.241C5.53521 30.6061 5.45584 30.9236 5.2336 31.1934C5.01135 31.4633 4.72561 31.6221 4.37637 31.6538C4.01125 31.6856 3.70963 31.5903 3.43976 31.3681ZM4.32874 31.0982C4.55099 31.0823 4.72561 30.9871 4.86848 30.8283C5.01135 30.6696 5.07485 30.495 5.0431 30.2886C5.02723 30.0822 4.93198 29.9235 4.75736 29.7965C4.58274 29.6695 4.39224 29.6219 4.17 29.6377C3.94775 29.6536 3.77313 29.7489 3.63026 29.9076C3.48739 30.0664 3.43976 30.241 3.45564 30.4473C3.47151 30.6537 3.56676 30.8125 3.74138 30.9395C3.916 31.0665 4.1065 31.1141 4.31287 31.0982H4.32874Z" fill="white"/>
<path d="M6.0432 33.5433L6.1702 34.083L3.77313 34.6228L3.64613 34.083L4.88435 32.5908L3.37626 32.9242L3.24927 32.3845L5.64634 31.8447L5.75746 32.3527L4.48749 33.8767L6.02733 33.5274L6.0432 33.5433Z" fill="white"/>
<path d="M5.69398 36.4641L5.88447 36.988L5.05899 37.2737C4.72562 37.1309 4.4875 36.861 4.32876 36.4483C4.20176 36.1149 4.21764 35.7815 4.36051 35.464C4.50338 35.1465 4.7415 34.9402 5.09074 34.8132C5.43998 34.6862 5.75747 34.7021 6.07497 34.8608C6.39246 35.0195 6.59883 35.2577 6.72583 35.591C6.83695 35.9244 6.83695 36.2578 6.70995 36.5753L6.23371 36.4483C6.28134 36.3054 6.31309 36.1943 6.31309 36.099C6.31309 36.0038 6.31309 35.8927 6.26546 35.7974C6.20196 35.6069 6.07497 35.464 5.88447 35.3688C5.70985 35.2735 5.50348 35.2735 5.28124 35.3688C5.05899 35.464 4.91612 35.5752 4.82087 35.7498C4.7415 35.9244 4.72562 36.099 4.78912 36.2895C4.85262 36.4641 4.93199 36.607 5.04312 36.7023L5.6781 36.48L5.69398 36.4641Z" fill="white"/>
<path d="M5.42411 38.9724L4.96375 38.004L7.18619 36.9404L7.59893 37.7977C7.67831 37.9405 7.71006 38.0834 7.72593 38.2104C7.7418 38.3374 7.72593 38.4485 7.69418 38.5279C7.63068 38.6866 7.51956 38.7978 7.37669 38.8613C7.20207 38.9406 7.04332 38.9565 6.90045 38.8771C6.85283 38.8613 6.82108 38.8295 6.8052 38.8295C6.8052 38.8295 6.77345 38.7978 6.72583 38.766C6.75758 38.9248 6.75758 39.0518 6.69408 39.1788C6.64646 39.3057 6.53533 39.401 6.40834 39.4645C6.24959 39.5439 6.09084 39.5439 5.91622 39.4962C5.72573 39.4327 5.55111 39.2581 5.40823 38.9565L5.42411 38.9724ZM5.6146 38.2898L5.77335 38.6231C5.83685 38.766 5.91622 38.8613 5.97972 38.9248C6.04322 38.9724 6.13847 38.9883 6.23372 38.9248C6.32896 38.8771 6.39246 38.7978 6.37659 38.7184C6.37659 38.6231 6.32896 38.4961 6.24959 38.3374L6.10672 38.0517L5.59873 38.2898H5.6146ZM6.51946 37.8612L6.63058 38.0993C6.69408 38.2421 6.75758 38.3374 6.82108 38.385C6.88457 38.4326 6.96395 38.4326 7.0592 38.385C7.15444 38.3374 7.20207 38.2739 7.21794 38.1945C7.23382 38.1152 7.18619 38.004 7.12269 37.8612L7.01157 37.623L6.53533 37.8453L6.51946 37.8612Z" fill="white"/>
<path d="M6.9798 40.5279C6.93218 40.6708 6.94806 40.7978 7.02743 40.9247C7.1068 41.0517 7.21792 41.1311 7.3608 41.147C7.50367 41.1629 7.66241 41.1152 7.83703 41.02L8.99588 40.3056L9.28163 40.766L8.1069 41.4804C7.80529 41.6709 7.51954 41.7344 7.24967 41.655C6.9798 41.5915 6.77344 41.4169 6.61469 41.1629C6.45594 40.893 6.40832 40.639 6.45594 40.3691C6.51944 40.0993 6.69406 39.877 6.99568 39.6865L8.1704 38.9722L8.45615 39.4325L7.2973 40.1469C7.12268 40.258 7.02743 40.3691 6.96393 40.512L6.9798 40.5279Z" fill="white"/>
<path d="M9.55149 41.1787L9.88485 41.6073L9.09112 42.2264L10.4563 42.3376L10.8691 42.8773L9.40861 42.7662C9.36099 42.909 9.29749 43.163 9.1705 43.544C9.0435 43.925 8.98 44.1949 8.9165 44.3854L8.51964 43.8774L8.853 42.7185L8.48789 42.6868L7.93227 43.1154L7.59891 42.6868L9.55149 41.1787Z" fill="white"/>
<path d="M11.7263 44.4646C11.7263 44.4646 11.5993 44.4805 11.5517 44.5281C11.5041 44.5757 11.4882 44.6392 11.5041 44.7186C11.52 44.798 11.5993 44.9408 11.7263 45.1313C11.8533 45.3377 11.9168 45.5282 11.9327 45.7028C11.9327 45.8774 11.8692 46.0362 11.7263 46.1949C11.5676 46.3537 11.393 46.4172 11.1707 46.4013C10.9485 46.3854 10.758 46.2743 10.5675 46.0997C10.2817 45.8298 10.1389 45.4806 10.123 45.052L10.631 44.9885C10.6627 45.3377 10.758 45.5917 10.9167 45.7504C10.9961 45.8139 11.0596 45.8616 11.139 45.8774C11.2025 45.8774 11.266 45.8774 11.3295 45.8139C11.3771 45.7663 11.393 45.7028 11.393 45.6234C11.393 45.5441 11.3295 45.4329 11.2183 45.2742C11.0596 45.0202 10.9802 44.8138 10.9485 44.6392C10.9167 44.4646 10.9961 44.3058 11.1707 44.1312C11.3295 43.9566 11.52 43.8931 11.7263 43.9249C11.9327 43.9566 12.1232 44.0519 12.3137 44.2265C12.4248 44.3376 12.5359 44.4805 12.5994 44.6392C12.6788 44.798 12.7264 44.9567 12.7423 45.1155L12.2661 45.2107C12.2343 44.9408 12.1232 44.7345 11.9644 44.5757C11.9009 44.5122 11.8374 44.4805 11.7581 44.4646H11.7263Z" fill="white"/>
<path d="M13.5043 48.1477C13.155 48.1795 12.8376 48.0842 12.5518 47.862C12.2661 47.6397 12.1073 47.354 12.0597 47.0047C12.0121 46.6555 12.1073 46.338 12.3296 46.0681C12.5518 45.7824 12.8376 45.6236 13.1868 45.5919C13.536 45.5601 13.8535 45.6554 14.1393 45.8776C14.425 46.0999 14.5838 46.3856 14.6314 46.7349C14.679 47.0841 14.5838 47.4016 14.3615 47.6715C14.1393 47.9572 13.8535 48.116 13.5043 48.1477ZM13.917 47.3222C14.0599 47.1476 14.1075 46.9571 14.0916 46.7507C14.0916 46.5444 13.9964 46.3697 13.8218 46.2427C13.663 46.1158 13.4725 46.0681 13.2662 46.0999C13.0598 46.1316 12.8852 46.2428 12.7582 46.4174C12.6153 46.592 12.5677 46.7825 12.5836 46.9889C12.5836 47.1952 12.6947 47.3698 12.8534 47.4968C13.0122 47.6238 13.2027 47.6715 13.409 47.6397C13.6154 47.608 13.79 47.4968 13.917 47.3381V47.3222Z" fill="white"/>
<path d="M16.8538 47.7986L16.5998 48.2114L15.6315 47.6082L15.3457 48.0526L16.2665 48.6241L16.0125 49.0369L15.0917 48.4654L14.5837 49.275L14.1234 48.9892L15.441 46.9097L16.8697 47.8145L16.8538 47.7986Z" fill="white"/>
<path d="M17.9015 48.878L16.9967 50.6401L16.5046 50.3861L17.4094 48.624L16.7903 48.3065L17.0126 47.8779L18.7429 48.7669L18.5207 49.1955L17.9015 48.878Z" fill="white"/>
<path d="M19.2191 50.513L20.1081 49.3383L20.6479 49.5288L20.5685 51.0052L21.521 49.8463L22.0766 50.0527L20.4256 52.0688L20.0446 51.9259L20.124 50.132L19.0286 51.5608L18.6477 51.4179L18.6794 48.8145L19.235 49.0208L19.2033 50.513H19.2191Z" fill="white"/>
<path d="M23.2831 52.7988L23.1719 52.2273L22.1718 51.9892L21.8226 52.4495L21.2511 52.3225L22.8386 50.1636L23.3624 50.2747L23.8545 52.9099L23.2831 52.7829V52.7988ZM22.9497 50.9414L22.4893 51.5764L23.0926 51.7193L22.9497 50.9573V50.9414Z" fill="white"/>
<path d="M26.4739 51.5926C26.4262 51.9895 26.2357 52.2118 25.9182 52.2911L26.4262 53.2436L25.7595 53.1642L25.315 52.3229L24.934 52.2753L24.8388 53.0531L24.299 52.9896L24.5848 50.5449L25.5055 50.656C25.8865 50.7037 26.1564 50.7989 26.2992 50.9418C26.4421 51.0847 26.5056 51.3069 26.4739 51.5926ZM25.7754 51.799C25.7754 51.799 25.9024 51.6561 25.9182 51.5291C25.9182 51.4022 25.9182 51.3069 25.8389 51.2434C25.7595 51.1799 25.6484 51.1482 25.4737 51.1323L25.061 51.0847L24.9816 51.8149L25.3785 51.8625C25.569 51.8784 25.696 51.8625 25.7754 51.8149V51.799Z" fill="white"/>
<path d="M28.8074 50.8306V51.3227L27.5692 51.3068V51.8148L28.6646 51.8307V52.291L27.5533 52.2752V52.7832L28.8074 52.799V53.2911L26.9818 53.2594L27.0295 50.7988L28.8074 50.8306Z" fill="white"/>
<path d="M32.4268 51.3861L31.9506 52.8148L31.6331 52.8624L30.7917 51.6242L31.014 53.164L30.4743 53.2434L30.1409 50.7987L30.8711 50.7035L31.6807 51.9576L32.1252 50.5288L32.8554 50.4336L33.2047 52.8783L32.665 52.9577L32.4427 51.4178L32.4268 51.3861Z" fill="white"/>
<path d="M35.0303 49.8306L35.1573 50.3068L33.9667 50.6243L34.0937 51.1164L35.1573 50.8307L35.2843 51.291L34.2207 51.5768L34.3477 52.0689L35.57 51.7514L35.697 52.2276L33.9508 52.688L33.3158 50.3068L35.0303 49.8464V49.8306Z" fill="white"/>
<path d="M35.4589 49.6717L35.9828 49.4971L36.7765 51.8306L36.2526 52.0053L35.4589 49.6717Z" fill="white"/>
<path d="M37.2051 49.5447C37.2051 49.5447 37.1734 49.6717 37.2051 49.7352C37.2369 49.7987 37.2845 49.8463 37.3638 49.8622C37.4432 49.8781 37.602 49.8622 37.8401 49.8304C38.0782 49.7987 38.2846 49.7987 38.4433 49.8622C38.6021 49.9098 38.7291 50.0527 38.8243 50.2432C38.9037 50.4495 38.9037 50.64 38.8084 50.8305C38.7132 51.021 38.5386 51.1639 38.2846 51.275C37.9195 51.4338 37.5543 51.4338 37.1416 51.275L37.2845 50.7829C37.6178 50.894 37.8877 50.9099 38.0941 50.8147C38.1893 50.7829 38.2528 50.7194 38.2846 50.6559C38.3163 50.5924 38.3163 50.5289 38.2846 50.4654C38.2528 50.4019 38.2052 50.3543 38.1258 50.3384C38.0465 50.3225 37.9195 50.3384 37.7448 50.3543C37.4591 50.4019 37.221 50.4019 37.0622 50.3543C36.9035 50.3067 36.7765 50.1797 36.6812 49.9574C36.586 49.7352 36.6019 49.5447 36.6971 49.3542C36.8082 49.1796 36.967 49.0367 37.2051 48.9256C37.3639 48.8621 37.5226 48.8303 37.6972 48.8145C37.8718 48.8145 38.0306 48.8145 38.1893 48.8621L38.0941 49.3383C37.8401 49.2748 37.602 49.2907 37.3956 49.3701C37.3162 49.4018 37.2527 49.4494 37.221 49.5129L37.2051 49.5447Z" fill="white"/>
<path d="M39.5863 48.3858L40.5229 50.132L40.0467 50.386L39.1101 48.6397L38.491 48.9731L38.2687 48.5604L39.9832 47.6396L40.2054 48.0524L39.5863 48.3858Z" fill="white"/>
<path d="M41.7135 46.481L41.9834 46.8937L40.9674 47.5763L41.2531 48.0049L42.1739 47.4017L42.4278 47.7986L41.5071 48.4018L41.7929 48.8304L42.8406 48.1319L43.1105 48.5288L41.6024 49.5289L40.2372 47.4811L41.7135 46.4968V46.481Z" fill="white"/>
<path d="M44.1106 45.608C44.3646 45.9096 44.3963 46.2113 44.2376 46.497L45.2853 46.7827L44.7614 47.2114L43.8407 46.9574L43.5391 47.1955L44.0312 47.7987L43.6026 48.148L42.0469 46.243L42.7612 45.6556C43.0628 45.4175 43.3168 45.2905 43.5232 45.2905C43.7296 45.2905 43.9201 45.4016 44.1106 45.6239V45.608ZM43.7772 46.2589C43.7772 46.1636 43.7613 46.0684 43.6661 45.9731C43.5867 45.8779 43.4915 45.8303 43.4121 45.8303C43.3327 45.8303 43.2216 45.8938 43.0787 46.0049L42.7612 46.2589L43.2216 46.8145L43.5391 46.5605C43.6819 46.4335 43.7613 46.3383 43.7772 46.243V46.2589Z" fill="white"/>
<path d="M45.6028 42.9093L45.9679 42.4966L47.7935 44.1475L47.4283 44.5603L46.714 43.9094L46.0631 44.6397L46.7775 45.2905L46.4124 45.7033L44.5868 44.0523L44.9519 43.6396L45.7139 44.3222L46.3647 43.5919L45.6028 42.9093Z" fill="white"/>
<path d="M46.2854 42.0678L46.6188 41.6392L48.5713 43.1473L48.238 43.5759L46.2854 42.0678Z" fill="white"/>
<path d="M48.8412 40.544L49.1428 40.0836L49.873 40.5599C49.9683 40.9091 49.9048 41.2742 49.6667 41.6394C49.4762 41.941 49.2063 42.1315 48.8729 42.2108C48.5396 42.2902 48.2221 42.2108 47.9046 42.0203C47.603 41.814 47.4125 41.5441 47.349 41.2107C47.2855 40.8615 47.349 40.544 47.5395 40.2583C47.73 39.9566 47.9998 39.7661 48.3332 39.6709L48.5237 40.1313C48.3808 40.1789 48.2697 40.2265 48.1903 40.2741C48.111 40.3376 48.0316 40.4011 47.984 40.4964C47.8728 40.671 47.8411 40.8615 47.8728 41.052C47.9205 41.2425 48.0316 41.4171 48.2221 41.5441C48.4126 41.6711 48.6031 41.7187 48.8094 41.6711C49.0158 41.6235 49.1428 41.5282 49.2539 41.3695C49.3651 41.2107 49.4127 41.052 49.4286 40.9091L48.8571 40.544H48.8412Z" fill="white"/>
<path d="M48.9999 37.7182L49.2539 37.2261L51.4605 38.3214L51.2065 38.8135L50.3334 38.3849L49.8889 39.258L50.762 39.6866L50.508 40.1788L48.3015 39.0834L48.5554 38.5913L49.4762 39.0517L49.9207 38.1785L48.9999 37.7182Z" fill="white"/>
<path d="M50.4128 35.5431C50.4128 35.5431 50.4763 35.6543 50.5557 35.6701C50.6192 35.686 50.6827 35.6701 50.7462 35.6384C50.8097 35.5908 50.9049 35.4638 51.0319 35.2574C51.1589 35.051 51.3018 34.9082 51.4446 34.8288C51.5875 34.7494 51.778 34.7335 51.9844 34.797C52.1907 34.8605 52.3336 35.0034 52.413 35.2098C52.4924 35.4161 52.4924 35.6384 52.413 35.8924C52.286 36.2575 52.0479 36.5432 51.6669 36.7496L51.397 36.3051C51.6986 36.1305 51.8891 35.9241 51.9526 35.7178C51.9844 35.6225 51.9844 35.5431 51.9526 35.4638C51.9368 35.4003 51.8891 35.3526 51.8098 35.3209C51.7463 35.305 51.6669 35.3209 51.6193 35.3526C51.5558 35.4003 51.4764 35.4955 51.3811 35.6543C51.2224 35.9083 51.0795 36.0829 50.9366 36.1622C50.7938 36.2416 50.6033 36.2575 50.381 36.194C50.1588 36.1305 50.0159 35.9876 49.9524 35.7813C49.8889 35.5749 49.8889 35.3685 49.9683 35.1304C50.0159 34.9716 50.0953 34.8288 50.2064 34.6859C50.3175 34.543 50.4287 34.4319 50.5715 34.3525L50.8573 34.7494C50.635 34.9082 50.4922 35.0828 50.4128 35.305C50.381 35.3844 50.381 35.4638 50.4128 35.5273V35.5431Z" fill="white"/>
<path d="M52.6035 33.2258C52.667 32.9559 52.6035 32.7178 52.4289 32.5114L52.8575 32.2416C53.1115 32.5908 53.1908 32.9401 53.0956 33.3052C53.0162 33.6703 52.8257 33.956 52.54 34.1465C52.2542 34.337 51.9367 34.3847 51.5716 34.3053C51.2224 34.2259 50.9525 34.0354 50.762 33.7338C50.5715 33.4322 50.5239 33.1147 50.6033 32.7654C50.6985 32.3686 50.9208 32.0828 51.27 31.8765L51.5716 32.2892C51.3176 32.4162 51.1748 32.6067 51.1113 32.8448C51.0636 33.0512 51.0954 33.2258 51.1906 33.4004C51.2859 33.5751 51.4446 33.6862 51.6828 33.7338C51.905 33.7814 52.0955 33.7497 52.2701 33.6544C52.4289 33.5433 52.54 33.4004 52.5876 33.2099L52.6035 33.2258Z" fill="white"/>
<path d="M51.1113 29.9553L51.1748 29.4155L53.6195 29.6854L53.556 30.2251L52.5876 30.114L52.4765 31.0824L53.4448 31.1935L53.3813 31.7332L50.9366 31.4634L51.0001 30.9236L52.0161 31.0347L52.1272 30.0664L51.1113 29.9553Z" fill="white"/>
<path d="M53.3178 26.8441C53.556 27.0981 53.683 27.3997 53.683 27.7648C53.683 28.13 53.5718 28.4316 53.3178 28.6856C53.0638 28.9396 52.7781 29.0666 52.413 29.0666C52.0479 29.0666 51.7463 28.9396 51.5081 28.7015C51.27 28.4475 51.143 28.1458 51.143 27.7807C51.143 27.4156 51.2541 27.114 51.5081 26.86C51.7621 26.606 52.0479 26.479 52.413 26.479C52.7781 26.479 53.0797 26.606 53.3178 26.8441ZM52.413 27.0346C52.1907 27.0346 52.0003 27.114 51.8574 27.241C51.6986 27.3839 51.6193 27.5585 51.6351 27.7648C51.6351 27.9712 51.7145 28.1458 51.8733 28.2887C52.032 28.4316 52.2225 28.4951 52.4289 28.4951C52.6511 28.4951 52.8416 28.4157 52.9845 28.2887C53.1432 28.1458 53.2067 27.9712 53.2067 27.7648C53.2067 27.5585 53.1274 27.3839 52.9686 27.241C52.8099 27.0981 52.6194 27.0346 52.413 27.0346Z" fill="white"/>
<path d="M53.0003 23.812C53.2702 24.0343 53.429 24.32 53.4766 24.6851C53.5242 25.0502 53.4448 25.3677 53.2226 25.6376C53.0162 25.9075 52.7305 26.0821 52.3654 26.1138C52.0002 26.1615 51.6986 26.0662 51.4129 25.8598C51.143 25.6376 50.9843 25.3519 50.9366 24.9867C50.889 24.6216 50.9684 24.3041 51.1906 24.0343C51.397 23.7644 51.6828 23.5898 52.0479 23.558C52.413 23.5263 52.7146 23.6057 53.0003 23.812ZM52.1272 24.1136C51.905 24.1454 51.7304 24.2406 51.6034 24.3994C51.4605 24.5581 51.4129 24.7327 51.4446 24.9391C51.4764 25.1455 51.5716 25.3042 51.7463 25.4312C51.9209 25.5582 52.1114 25.6059 52.3336 25.5741C52.5559 25.5424 52.7305 25.4471 52.8575 25.2884C52.9845 25.1296 53.048 24.955 53.0162 24.7486C52.9845 24.5423 52.8892 24.3835 52.7146 24.2565C52.54 24.1295 52.3495 24.0819 52.1272 24.1136Z" fill="white"/>
<path d="M53.1591 22.7959L50.762 23.3516L50.635 22.8118L52.5559 22.3673L52.3177 21.3514L52.794 21.2402L53.1591 22.7959Z" fill="white"/>
<path d="M5.94797 19.1133C6.3425 19.1133 6.66233 18.7935 6.66233 18.3989C6.66233 18.0044 6.3425 17.6846 5.94797 17.6846C5.55344 17.6846 5.23361 18.0044 5.23361 18.3989C5.23361 18.7935 5.55344 19.1133 5.94797 19.1133Z" fill="white"/>
<path d="M50.6509 19.1133C51.0454 19.1133 51.3653 18.7935 51.3653 18.3989C51.3653 18.0044 51.0454 17.6846 50.6509 17.6846C50.2564 17.6846 49.9366 18.0044 49.9366 18.3989C49.9366 18.7935 50.2564 19.1133 50.6509 19.1133Z" fill="white"/>
<path d="M73.4469 17.4621H77.1139V15.9223H73.8596C72.9865 19.2242 69.5735 20.7481 66.1446 21.4149L65.7318 19.0972C69.0655 18.4781 71.7165 17.3192 71.7165 14.2237L66.1446 14.2078V12.16H74.066V13.922H77.1139V11.3027H79.638V21.3672H77.1139V19.4464H73.4469V17.4462V17.4621ZM74.2247 21.3672C76.8917 21.3672 78.7649 22.9071 78.7649 25.0978C78.7649 27.2885 76.8917 28.8124 74.2247 28.8124C71.5578 28.8124 69.7005 27.2567 69.7005 25.0978C69.7005 22.9388 71.5737 21.3672 74.2247 21.3672ZM74.2247 26.8281C75.4788 26.8281 76.3043 26.1455 76.3043 25.0978C76.3043 24.0501 75.463 23.3675 74.2247 23.3675C72.9865 23.3675 72.161 24.0501 72.161 25.0978C72.161 26.1455 72.9706 26.8281 74.2247 26.8281Z" fill="#1E1815"/>
<path d="M97.4017 19.3193V21.3036H90.9248V22.7164H95.3062V28.3837H92.8139V24.6849H84.1622V22.7164H88.4484V21.3036H82.035V19.3193H97.4334H97.4017ZM84.2257 11.7788H86.6863V13.2075H92.7346V11.7788H95.211V18.2557H84.2257V11.7788ZM92.7346 16.2872V15.049H86.6863V16.2872H92.7346Z" fill="#1E1815"/>
<path d="M105.037 23.7644V20.5577H107.546V23.7644H114.054V25.8122H98.6399V23.7644H105.037ZM104.021 16.1287C105.006 15.462 105.037 15.2715 105.037 14.6683V12.4141H107.625V14.6683C107.625 15.1762 107.688 15.3667 108.704 16.1446L113.149 19.6053L111.705 21.4626L107.26 18.0019C106.895 17.7162 106.593 17.4463 106.355 17.1923C106.101 17.4781 105.768 17.7479 105.371 18.0337L100.958 21.4785L99.513 19.6211L104.006 16.1287H104.021Z" fill="#1E1815"/>
<path d="M130.659 23.7802V25.8439H115.245V23.7802H130.659ZM116.927 12.668H128.913V14.6682H126.817V19.6687H128.913V21.653H116.943V19.6687H119.007V14.6682H116.927V12.668ZM124.309 19.6687V14.6682H121.531V19.6687H124.309Z" fill="#1E1815"/>
<path d="M131.85 23.8435H147.264V25.8755H131.85V23.8435ZM145.184 12.5408V14.541H136.422V16.1919H145.184V18.1445H136.422V19.8272H145.184V21.8116H133.882V12.5249H145.184V12.5408Z" fill="#1E1815"/>
<path d="M148.486 19.3512H156.916V21.399H153.947V26.5583H151.582V21.399H148.502V19.3512H148.486ZM148.867 15.0333C148.867 12.795 150.455 11.2393 152.709 11.2393C154.963 11.2393 156.566 12.795 156.566 15.0333C156.566 17.2716 154.979 18.7956 152.709 18.7956C150.455 18.7321 148.867 17.2399 148.867 15.0333ZM152.709 16.7795C153.63 16.7795 154.265 16.0969 154.265 15.0333C154.265 13.9697 153.645 13.2712 152.709 13.2712C151.772 13.2712 151.169 13.9697 151.169 15.0333C151.169 16.0969 151.772 16.7795 152.709 16.7795ZM154.947 22.3515H157.598V11.6044H159.932V27.1615H157.598V24.2406H154.947V22.3515ZM161.011 11.3504H163.377V27.8282H161.011V11.3345V11.3504Z" fill="#1E1815"/>
<path d="M165.028 17.6685C165.028 14.7475 166.996 12.6838 169.806 12.6838C172.282 12.6838 174.124 14.3189 174.505 16.716H176.87V11.3027H179.362V27.8441H176.87V18.7479H174.489C174.06 21.0656 172.251 22.6055 169.806 22.6055C166.996 22.6055 165.028 20.5576 165.028 17.6685ZM169.806 20.51C171.187 20.51 172.092 19.3988 172.092 17.6685C172.092 15.9381 171.187 14.7952 169.806 14.7952C168.425 14.7952 167.52 15.9381 167.52 17.6685C167.52 19.3988 168.425 20.51 169.806 20.51Z" fill="#1E1815"/>
<path d="M190.364 12.8108V23.4309H182.204V12.8108H190.364ZM187.903 21.4466V14.7793H184.665V21.4466H187.903ZM192.538 11.3345H195.031V17.7319H197.475V19.7956H195.031V27.8123H192.538V11.3345Z" fill="#1E1815"/>
<path d="M203.206 12.6838C206.016 12.6838 207.984 14.7475 207.984 17.6685C207.984 20.5894 206.016 22.6055 203.206 22.6055C200.396 22.6055 198.428 20.5576 198.428 17.6685C198.428 14.7793 200.396 12.6838 203.206 12.6838ZM203.206 20.51C204.587 20.51 205.492 19.3988 205.492 17.6685C205.492 15.9381 204.587 14.7952 203.206 14.7952C201.825 14.7952 200.92 15.9381 200.92 17.6685C200.92 19.3988 201.825 20.51 203.206 20.51ZM212.429 11.3027V27.8441H209.889V11.3027H212.429Z" fill="#1E1815"/>
<path d="M230.336 23.685V25.7329H214.922V23.685H230.336ZM220.255 16.1446C221.256 15.4302 221.319 15.2397 221.319 14.6683V12.4141H223.907V14.6683C223.907 15.1762 223.97 15.3667 224.986 16.1446L229.415 19.637L227.97 21.4626L223.541 18.0178C223.176 17.7321 222.875 17.4463 222.637 17.1764C222.367 17.4622 222.049 17.7321 221.652 18.0178L217.239 21.4626L215.795 19.637L220.24 16.1446H220.255Z" fill="#1E1815"/>
<path d="M232.288 12.8108H240.416V14.8587H234.797V17.1922H239.988V19.2559H234.797V21.6689H240.845V23.7167H232.304V12.8267L232.288 12.8108ZM245.829 11.3027V27.8441H243.337V19.2083H240.67V17.1763H243.337V11.3027H245.829Z" fill="#1E1815"/>
<path d="M253.545 23.7328V18.5259H256.069V23.7328H263.546V25.7806H248.147V23.7328H253.545ZM249.909 12.6841H261.021V21.7009H258.482V14.7319H249.909V12.6841Z" fill="#1E1815"/>
<path d="M280.166 18.8274V20.8593H264.768V18.8274H280.166ZM266.99 11.7791H277.991V13.7793H269.483V15.8588H277.991V17.8273H266.99V11.7632V11.7791ZM272.467 21.5578C275.229 21.5578 277.182 23.0659 277.182 25.2725C277.182 27.4791 275.229 29.0348 272.467 29.0348C269.705 29.0348 267.768 27.4473 267.768 25.2725C267.768 23.0977 269.705 21.5578 272.467 21.5578ZM272.467 27.0187C273.816 27.0187 274.69 26.3043 274.69 25.2725C274.69 24.2406 273.816 23.5898 272.467 23.5898C271.118 23.5898 270.276 24.2883 270.276 25.2725C270.276 26.2567 271.134 27.0187 272.467 27.0187Z" fill="#1E1815"/>
<path d="M281.484 13.1921H284.992V11.3188H287.421V13.1921H290.945V15.2399H289.802C290.215 15.859 290.485 16.5892 290.485 17.3988C290.485 19.8118 288.723 21.5104 286.199 21.5104C283.675 21.5104 281.944 19.8118 281.944 17.3988C281.944 16.5892 282.214 15.859 282.627 15.2399H281.484V13.1921ZM283.722 22.6375H294.787V28.3841H292.263V24.6535H283.722V22.6533V22.6375ZM286.183 19.5102C287.342 19.5102 288.104 18.6847 288.104 17.383C288.104 16.0812 287.342 15.224 286.183 15.224C285.024 15.224 284.325 16.0812 284.325 17.383C284.325 18.6847 285.072 19.5102 286.183 19.5102ZM294.787 11.3347V15.6844H297.025V17.7322H294.787V21.9548H292.263V11.3347H294.787Z" fill="#1E1815"/>
<path d="M301.026 23.9233V19.1292H303.502V23.9233H305.248V19.1292H307.709V23.9233H313.376V25.9711H297.978V23.9233H301.026ZM299.978 12.7476H311.233V21.8278H308.693V14.7954H299.978V12.7476Z" fill="#1E1815"/>
<path d="M70.2561 40.9092H71.8277V43.3856C71.1292 44.1635 70.1767 44.5445 68.9544 44.5445C67.9384 44.5445 67.0653 44.2111 66.3827 43.5285C65.6842 42.8459 65.3349 41.9887 65.3349 40.9568C65.3349 39.925 65.6842 39.0677 66.3985 38.3693C67.1129 37.6708 67.9543 37.3374 68.9544 37.3374C69.9545 37.3374 70.8276 37.6708 71.5578 38.3216L70.7482 39.4805C70.4307 39.2106 70.145 39.0201 69.891 38.9249C69.6211 38.8296 69.3512 38.7661 69.0337 38.7661C68.4464 38.7661 67.9384 38.9725 67.5415 39.3694C67.1288 39.7662 66.9383 40.306 66.9383 40.9568C66.9383 41.6077 67.1288 42.1474 67.5256 42.5284C67.9066 42.9253 68.3829 43.1158 68.9226 43.1158C69.4624 43.1158 69.9068 43.0205 70.272 42.8141V40.8933L70.2561 40.9092Z" fill="#908F90"/>
<path d="M76.2091 44.4648H74.6534V41.7185L72.2404 37.5117H73.9231L75.4312 40.0993L76.9393 37.5117H78.622L76.2091 41.7185V44.4648Z" fill="#908F90"/>
<path d="M84.3845 37.4959V38.8769H80.9238V40.3057H84.0353V41.6233H80.9238V43.0678H84.4956V44.4489H79.3681V37.48H84.3845V37.4959Z" fill="#908F90"/>
<path d="M91.7503 43.4965C91.0519 44.1791 90.1787 44.5284 89.1469 44.5284C88.115 44.5284 87.2578 44.1791 86.5435 43.4965C85.845 42.8139 85.4799 41.9567 85.4799 40.9248C85.4799 39.893 85.8291 39.0516 86.5435 38.3531C87.2419 37.6705 88.115 37.3213 89.1469 37.3213C90.1787 37.3213 91.036 37.6705 91.7503 38.3531C92.4488 39.0357 92.8139 39.893 92.8139 40.9248C92.8139 41.9567 92.4647 42.798 91.7503 43.4965ZM91.2265 40.9407C91.2265 40.3216 91.0201 39.7819 90.6232 39.3532C90.2264 38.9088 89.7343 38.7024 89.1469 38.7024C88.5595 38.7024 88.0833 38.9246 87.6706 39.3532C87.2737 39.7977 87.0673 40.3216 87.0673 40.9407C87.0673 41.5598 87.2737 42.0837 87.6706 42.5282C88.0674 42.9568 88.5595 43.179 89.1469 43.179C89.7343 43.179 90.2105 42.9568 90.6232 42.5282C91.036 42.0996 91.2265 41.5598 91.2265 40.9407Z" fill="#908F90"/>
<path d="M98.9892 37.4961H100.545V44.4651H98.9892L95.6714 40.0995V44.4651H94.1156V37.4961H95.5761L98.9892 41.9727V37.4961Z" fill="#908F90"/>
<path d="M106.784 40.9092H108.355V43.3856C107.657 44.1635 106.704 44.5445 105.482 44.5445C104.466 44.5445 103.593 44.2111 102.91 43.5285C102.212 42.8459 101.862 41.9887 101.862 40.9568C101.862 39.925 102.212 39.0677 102.926 38.3693C103.64 37.6708 104.482 37.3374 105.482 37.3374C106.482 37.3374 107.355 37.6708 108.085 38.3216L107.276 39.4805C106.958 39.2106 106.672 39.0201 106.418 38.9249C106.149 38.8296 105.879 38.7661 105.561 38.7661C104.974 38.7661 104.466 38.9725 104.069 39.3694C103.656 39.7662 103.466 40.306 103.466 40.9568C103.466 41.6077 103.656 42.1474 104.053 42.5284C104.434 42.9253 104.91 43.1158 105.45 43.1158C105.99 43.1158 106.434 43.0205 106.799 42.8141V40.8933L106.784 40.9092Z" fill="#908F90"/>
<path d="M112.784 44.4651H109.736V37.4961H112.451C112.927 37.4961 113.324 37.5596 113.673 37.6707C114.022 37.7818 114.276 37.9406 114.451 38.1311C114.769 38.4962 114.927 38.8931 114.927 39.3534C114.927 39.8932 114.753 40.3059 114.403 40.5758C114.276 40.671 114.197 40.7345 114.149 40.7504C114.102 40.7663 114.022 40.8139 113.895 40.8615C114.324 40.9568 114.673 41.1473 114.927 41.4489C115.181 41.7505 115.308 42.1156 115.308 42.5442C115.308 43.0363 115.15 43.465 114.816 43.8301C114.435 44.2587 113.753 44.4809 112.8 44.4809L112.784 44.4651ZM111.292 40.3218H112.022C112.451 40.3218 112.768 40.2742 112.991 40.1789C113.197 40.0837 113.308 39.8773 113.308 39.5757C113.308 39.2741 113.213 39.0677 113.022 38.9566C112.832 38.8613 112.498 38.8137 112.038 38.8137H111.292V40.3218ZM111.292 43.1475H112.356C112.8 43.1475 113.133 43.0998 113.356 42.9887C113.578 42.8776 113.689 42.6553 113.689 42.3379C113.689 42.0204 113.578 41.7981 113.34 41.7029C113.102 41.6076 112.721 41.5441 112.213 41.5441H111.292V43.1475Z" fill="#908F90"/>
<path d="M118.436 42.671C118.69 42.9885 119.039 43.1472 119.483 43.1472C119.928 43.1472 120.261 42.9885 120.531 42.671C120.785 42.3535 120.912 41.909 120.912 41.3534V37.5117H122.468V41.401C122.468 42.417 122.182 43.179 121.626 43.7346C121.071 44.2902 120.356 44.5442 119.483 44.5442C118.61 44.5442 117.896 44.2743 117.34 43.7346C116.785 43.1948 116.499 42.417 116.499 41.4169V37.5276H118.055V41.3693C118.055 41.9249 118.182 42.3694 118.436 42.6868V42.671Z" fill="#908F90"/>
<path d="M124.087 37.4961H125.643V40.3535L128.278 37.4961H130.199L127.436 40.5758C127.675 40.9091 128.119 41.5282 128.754 42.4331C129.405 43.338 129.881 44.0206 130.199 44.4651H128.389L126.341 41.7187L125.643 42.4966V44.4651H124.087V37.4961Z" fill="#908F90"/>
<path d="M135.421 38.8929C135.279 39.0199 135.199 39.1786 135.199 39.385C135.199 39.5913 135.294 39.7501 135.469 39.8612C135.66 39.9882 136.072 40.1152 136.739 40.2898C137.406 40.4645 137.914 40.7026 138.279 41.0201C138.644 41.3376 138.834 41.8138 138.834 42.4488C138.834 43.0838 138.596 43.5759 138.136 43.9727C137.66 44.3537 137.057 44.5601 136.295 44.5601C135.199 44.5601 134.199 44.1474 133.31 43.3378L134.231 42.1948C134.977 42.8456 135.675 43.179 136.31 43.179C136.596 43.179 136.818 43.1155 136.977 42.9885C137.136 42.8615 137.215 42.7028 137.215 42.4964C137.215 42.29 137.136 42.1154 136.961 42.0043C136.787 41.8773 136.453 41.7503 135.929 41.6233C135.12 41.4328 134.532 41.1788 134.151 40.8772C133.77 40.5756 133.596 40.0835 133.596 39.4167C133.596 38.75 133.834 38.242 134.31 37.8928C134.786 37.5276 135.374 37.353 136.088 37.353C136.549 37.353 137.025 37.4324 137.485 37.5911C137.945 37.7499 138.358 37.9721 138.707 38.2738L137.914 39.4167C137.31 38.9564 136.691 38.7341 136.041 38.7341C135.787 38.7341 135.58 38.7976 135.421 38.9246V38.8929Z" fill="#908F90"/>
<path d="M145.994 43.4965C145.295 44.1791 144.422 44.5284 143.39 44.5284C142.359 44.5284 141.501 44.1791 140.787 43.4965C140.089 42.8139 139.723 41.9567 139.723 40.9248C139.723 39.893 140.073 39.0516 140.787 38.3531C141.486 37.6705 142.359 37.3213 143.39 37.3213C144.422 37.3213 145.28 37.6705 145.994 38.3531C146.692 39.0357 147.058 39.893 147.058 40.9248C147.058 41.9567 146.708 42.798 145.994 43.4965ZM145.47 40.9407C145.47 40.3216 145.264 39.7819 144.867 39.3532C144.47 38.9088 143.978 38.7024 143.39 38.7024C142.803 38.7024 142.327 38.9246 141.914 39.3532C141.517 39.7977 141.311 40.3216 141.311 40.9407C141.311 41.5598 141.517 42.0837 141.914 42.5282C142.311 42.9568 142.803 43.179 143.39 43.179C143.978 43.179 144.454 42.9568 144.867 42.5282C145.28 42.0996 145.47 41.5598 145.47 40.9407Z" fill="#908F90"/>
<path d="M153.153 37.4961V38.8613H149.931V40.3694H152.995V41.7346H149.931V44.4651H148.375V37.4961H153.153Z" fill="#908F90"/>
<path d="M157.424 38.8454V44.4651H155.868V38.8454H153.899V37.4961H159.392V38.8454H157.424Z" fill="#908F90"/>
<path d="M162.694 41.4965L163.932 37.4961H165.551L166.774 41.4965L168.155 37.4961H169.838L167.409 44.4651H166.25L164.726 39.6233L163.218 44.4651H162.059L159.63 37.4961H161.313L162.694 41.4965Z" fill="#908F90"/>
<path d="M175.648 44.4651L174.997 42.957H172.076L171.425 44.4651H169.774L172.79 37.4961H174.298L177.315 44.4651H175.664H175.648ZM173.552 39.5757L172.679 41.5917H174.425L173.552 39.5757Z" fill="#908F90"/>
<path d="M183.76 39.8138C183.76 40.925 183.315 41.6552 182.442 41.9727L184.204 44.4651H182.283L180.743 42.2426H179.664V44.4651H178.108V37.4961H180.743C181.823 37.4961 182.601 37.6866 183.061 38.0517C183.522 38.4168 183.76 39.0042 183.76 39.8138ZM181.886 40.6393C182.077 40.4646 182.172 40.1948 182.172 39.8138C182.172 39.4328 182.077 39.1788 181.871 39.0359C181.664 38.8931 181.315 38.8296 180.823 38.8296H179.664V40.8933H180.807C181.331 40.8933 181.696 40.8139 181.886 40.6393Z" fill="#908F90"/>
<path d="M190.379 37.4959V38.8769H186.919V40.3057H190.03V41.6233H186.919V43.0678H190.491V44.4489H185.363V37.48H190.379V37.4959Z" fill="#908F90"/>
<path d="M200.73 40.0837L198.841 43.8936H197.92L196.047 40.0837V44.4651H194.491V37.4961H196.586L198.38 41.3219L200.19 37.4961H202.285V44.4651H200.73V40.0837Z" fill="#908F90"/>
<path d="M209.032 37.4959V38.8769H205.571V40.3057H208.683V41.6233H205.571V43.0678H209.143V44.4489H204.016V37.48H209.032V37.4959Z" fill="#908F90"/>
<path d="M210.524 37.4961H212.08V44.4651H210.524V37.4961Z" fill="#908F90"/>
<path d="M215.414 38.8929C215.271 39.0199 215.191 39.1786 215.191 39.385C215.191 39.5913 215.287 39.7501 215.461 39.8612C215.652 39.9882 216.065 40.1152 216.731 40.2898C217.398 40.4645 217.906 40.7026 218.271 41.0201C218.636 41.3376 218.827 41.8138 218.827 42.4488C218.827 43.0838 218.589 43.5759 218.128 43.9727C217.652 44.3537 217.049 44.5601 216.287 44.5601C215.191 44.5601 214.191 44.1474 213.302 43.3378L214.223 42.1948C214.969 42.8456 215.668 43.179 216.303 43.179C216.588 43.179 216.811 43.1155 216.969 42.9885C217.128 42.8615 217.207 42.7028 217.207 42.4964C217.207 42.29 217.128 42.1154 216.953 42.0043C216.779 41.8773 216.446 41.7503 215.922 41.6233C215.112 41.4328 214.525 41.1788 214.144 40.8772C213.763 40.5756 213.588 40.0835 213.588 39.4167C213.588 38.75 213.826 38.242 214.302 37.8928C214.779 37.5276 215.366 37.353 216.08 37.353C216.541 37.353 217.017 37.4324 217.477 37.5911C217.938 37.7499 218.35 37.9721 218.7 38.2738L217.906 39.4167C217.303 38.9564 216.684 38.7341 216.033 38.7341C215.779 38.7341 215.572 38.7976 215.414 38.9246V38.8929Z" fill="#908F90"/>
<path d="M223.097 38.8454V44.4651H221.541V38.8454H219.573V37.4961H225.065V38.8454H223.097Z" fill="#908F90"/>
<path d="M231.225 37.4959V38.8769H227.764V40.3057H230.876V41.6233H227.764V43.0678H231.336V44.4489H226.208V37.48H231.225V37.4959Z" fill="#908F90"/>
<path d="M238.368 39.8138C238.368 40.925 237.924 41.6552 237.051 41.9727L238.813 44.4651H236.892L235.352 42.2426H234.273V44.4651H232.717V37.4961H235.352C236.432 37.4961 237.21 37.6866 237.67 38.0517C238.13 38.4168 238.368 39.0042 238.368 39.8138ZM236.495 40.6393C236.686 40.4646 236.781 40.1948 236.781 39.8138C236.781 39.4328 236.686 39.1788 236.479 39.0359C236.273 38.8931 235.924 38.8296 235.432 38.8296H234.273V40.8933H235.416C235.94 40.8933 236.305 40.8139 236.495 40.6393Z" fill="#908F90"/>
<path d="M246.925 37.4961H248.48V44.4651H246.925V41.7187H244.163V44.4651H242.607V37.4961H244.163V40.4011H246.925V37.4961Z" fill="#908F90"/>
<path d="M250.179 37.4961H251.735V44.4651H250.179V37.4961Z" fill="#908F90"/>
<path d="M257.974 40.9092H259.545V43.3856C258.847 44.1635 257.894 44.5445 256.672 44.5445C255.656 44.5445 254.783 44.2111 254.1 43.5285C253.402 42.8459 253.052 41.9887 253.052 40.9568C253.052 39.925 253.402 39.0677 254.116 38.3693C254.83 37.6708 255.672 37.3374 256.672 37.3374C257.672 37.3374 258.545 37.6708 259.275 38.3216L258.466 39.4805C258.148 39.2106 257.862 39.0201 257.608 38.9249C257.339 38.8296 257.069 38.7661 256.751 38.7661C256.164 38.7661 255.656 38.9725 255.259 39.3694C254.846 39.7662 254.656 40.306 254.656 40.9568C254.656 41.6077 254.846 42.1474 255.243 42.5284C255.624 42.9253 256.1 43.1158 256.64 43.1158C257.18 43.1158 257.624 43.0205 257.989 42.8141V40.8933L257.974 40.9092Z" fill="#908F90"/>
<path d="M265.26 37.4961H266.816V44.4651H265.26V41.7187H262.498V44.4651H260.942V37.4961H262.498V40.4011H265.26V37.4961Z" fill="#908F90"/>
<path d="M272.785 38.8929C272.642 39.0199 272.562 39.1786 272.562 39.385C272.562 39.5913 272.658 39.7501 272.832 39.8612C273.023 39.9882 273.435 40.1152 274.102 40.2898C274.769 40.4645 275.277 40.7026 275.642 41.0201C276.007 41.3376 276.198 41.8138 276.198 42.4488C276.198 43.0838 275.959 43.5759 275.499 43.9727C275.023 44.3537 274.42 44.5601 273.658 44.5601C272.562 44.5601 271.562 44.1474 270.673 43.3378L271.594 42.1948C272.34 42.8456 273.039 43.179 273.674 43.179C273.959 43.179 274.182 43.1155 274.34 42.9885C274.499 42.8615 274.578 42.7028 274.578 42.4964C274.578 42.29 274.499 42.1154 274.324 42.0043C274.15 41.8773 273.816 41.7503 273.293 41.6233C272.483 41.4328 271.896 41.1788 271.515 40.8772C271.134 40.5756 270.959 40.0835 270.959 39.4167C270.959 38.75 271.197 38.242 271.673 37.8928C272.15 37.5276 272.737 37.353 273.451 37.353C273.912 37.353 274.388 37.4324 274.848 37.5911C275.309 37.7499 275.721 37.9721 276.071 38.2738L275.277 39.4167C274.674 38.9564 274.055 38.7341 273.404 38.7341C273.15 38.7341 272.943 38.7976 272.785 38.9246V38.8929Z" fill="#908F90"/>
<path d="M280.706 43.084C281.468 43.084 282.087 42.7824 282.579 42.1792L283.579 43.211C282.786 44.1 281.865 44.5445 280.785 44.5445C279.706 44.5445 278.833 44.2111 278.134 43.5285C277.436 42.8459 277.087 41.9887 277.087 40.9568C277.087 39.925 277.436 39.0677 278.15 38.3693C278.865 37.6708 279.722 37.3374 280.754 37.3374C281.897 37.3374 282.849 37.766 283.627 38.6391L282.659 39.7345C282.166 39.1154 281.563 38.8137 280.817 38.8137C280.23 38.8137 279.738 39.0042 279.325 39.3852C278.912 39.7662 278.706 40.2742 278.706 40.9251C278.706 41.5759 278.896 42.0998 279.293 42.4808C279.69 42.8776 280.166 43.0681 280.722 43.0681L280.706 43.084Z" fill="#908F90"/>
<path d="M289.12 37.4961H290.675V44.4651H289.12V41.7187H286.357V44.4651H284.802V37.4961H286.357V40.4011H289.12V37.4961Z" fill="#908F90"/>
<path d="M298.247 43.4965C297.549 44.1791 296.676 44.5284 295.644 44.5284C294.612 44.5284 293.755 44.1791 293.041 43.4965C292.342 42.8139 291.977 41.9567 291.977 40.9248C291.977 39.893 292.326 39.0516 293.041 38.3531C293.739 37.6705 294.612 37.3213 295.644 37.3213C296.676 37.3213 297.533 37.6705 298.247 38.3531C298.946 39.0357 299.311 39.893 299.311 40.9248C299.311 41.9567 298.962 42.798 298.247 43.4965ZM297.724 40.9407C297.724 40.3216 297.517 39.7819 297.12 39.3532C296.723 38.9088 296.231 38.7024 295.644 38.7024C295.057 38.7024 294.58 38.9246 294.168 39.3532C293.771 39.7977 293.564 40.3216 293.564 40.9407C293.564 41.5598 293.771 42.0837 294.168 42.5282C294.565 42.9568 295.057 43.179 295.644 43.179C296.231 43.179 296.708 42.9568 297.12 42.5282C297.533 42.0996 297.724 41.5598 297.724 40.9407Z" fill="#908F90"/>
<path d="M306.486 43.4965C305.788 44.1791 304.915 44.5284 303.883 44.5284C302.851 44.5284 301.994 44.1791 301.28 43.4965C300.581 42.8139 300.216 41.9567 300.216 40.9248C300.216 39.893 300.565 39.0516 301.28 38.3531C301.978 37.6705 302.851 37.3213 303.883 37.3213C304.915 37.3213 305.772 37.6705 306.486 38.3531C307.185 39.0357 307.55 39.893 307.55 40.9248C307.55 41.9567 307.201 42.798 306.486 43.4965ZM305.963 40.9407C305.963 40.3216 305.756 39.7819 305.359 39.3532C304.962 38.9088 304.47 38.7024 303.883 38.7024C303.296 38.7024 302.819 38.9246 302.407 39.3532C302.01 39.7977 301.803 40.3216 301.803 40.9407C301.803 41.5598 302.01 42.0837 302.407 42.5282C302.803 42.9568 303.296 43.179 303.883 43.179C304.47 43.179 304.947 42.9568 305.359 42.5282C305.772 42.0996 305.963 41.5598 305.963 40.9407Z" fill="#908F90"/>
<path d="M308.852 44.4651V37.4961H310.407V43.0681H313.376V44.4492H308.852V44.4651Z" fill="#908F90"/>
</g>
<defs>
<clipPath id="clip0_721_9305">
<rect width="313" height="55.7834" fill="white" transform="translate(0.375977)"/>
</clipPath>
</defs>
</svg>
