<svg width="193" height="75" viewBox="0 0 193 75" fill="none" xmlns="http://www.w3.org/2000/svg">
<g clip-path="url(#clip0_721_9296)">
<path d="M23.044 0.84668H21.9338C21.3331 0.84668 20.8462 1.3336 20.8462 1.93424V10.4308C20.8462 11.0315 21.3331 11.5184 21.9338 11.5184H23.044C23.6446 11.5184 24.1315 11.0315 24.1315 10.4308V1.93424C24.1315 1.3336 23.6446 0.84668 23.044 0.84668Z" fill="#F6A151"/>
<path d="M33.8043 4.99832L32.9693 4.2666C32.5176 3.87072 31.8304 3.916 31.4346 4.36773L25.8346 10.7577C25.4387 11.2095 25.484 11.8966 25.9357 12.2925L26.7707 13.0242C27.2224 13.4201 27.9096 13.3748 28.3054 12.9231L33.9054 6.53304C34.3013 6.08132 34.256 5.3942 33.8043 4.99832Z" fill="#F6A151"/>
<path d="M17.382 13.847L18.217 13.1152C18.6687 12.7194 18.714 12.0322 18.3181 11.5805L12.7182 5.1905C12.3223 4.73877 11.6352 4.69349 11.1834 5.08937L10.3485 5.82109C9.89676 6.21697 9.85148 6.90408 10.2474 7.35581L15.8473 13.7458C16.2432 14.1976 16.9303 14.2428 17.382 13.847Z" fill="#F6A151"/>
<path d="M170.998 26.2914C157.041 27.9227 154.594 38.5944 154.594 38.5944C154.594 38.5944 151.308 26.2914 134.904 25.4757C134.904 25.4757 120.947 26.2914 117.685 38.5944C117.685 38.5944 113.584 24.6374 97.9951 25.4757C82.4067 26.2914 80.7754 40.2484 80.7754 40.2484C80.7754 40.2484 75.043 26.2914 60.2703 26.2914C45.4976 26.2914 42.2123 41.0641 42.2123 41.0641L35.6416 16.458L27.4395 18.9277L31.5406 33.7004L12.6668 45.1878H11.0355L15.1365 18.9277L8.56581 18.112L0.341125 65.6702L6.91181 67.3015L9.54009 55.8142C9.83464 55.0891 10.8089 54.9532 11.2847 55.5649L22.5002 69.7712L31.5179 71.4025L18.3992 50.8975L33.1719 41.0414L39.7426 65.6475L47.1289 64.0162L45.4976 56.6298C45.4976 56.6298 51.23 64.8318 59.4547 64.0162C67.6793 63.2005 72.5734 59.9152 72.5734 59.9152V63.2005H79.9597V74.6879H87.3461V59.0995C87.3461 59.0995 93.9168 65.6702 101.303 64.0162C108.689 62.3848 115.26 58.2838 117.707 51.7131C117.707 51.7131 121.808 64.0162 135.765 64.0162C149.722 64.0162 154.639 51.7131 154.639 51.7131C154.639 51.7131 161.21 65.6702 174.328 64.0162C187.447 62.3848 192.386 54.1601 192.386 45.1425C192.386 36.1248 185 24.6374 171.043 26.2687L170.998 26.2914ZM61.0407 57.4682C54.2434 57.4682 48.7376 51.9624 48.7376 45.1651C48.7376 38.3678 54.2434 32.8621 61.0407 32.8621C67.8379 32.8621 73.3437 38.3678 73.3437 45.1651C73.3437 51.9624 67.8379 57.4682 61.0407 57.4682ZM99.196 57.876C92.3987 57.876 86.8929 52.3702 86.8929 45.5729C86.8929 38.7757 92.3987 33.2699 99.196 33.2699C105.993 33.2699 111.499 38.7757 111.499 45.5729C111.499 52.3702 105.993 57.876 99.196 57.876ZM136.128 57.876C129.331 57.876 123.825 52.3702 123.825 45.5729C123.825 38.7757 129.331 33.2699 136.128 33.2699C142.925 33.2699 148.431 38.7757 148.431 45.5729C148.431 52.3702 142.925 57.876 136.128 57.876ZM173.875 57.876C167.078 57.876 161.572 52.3702 161.572 45.5729C161.572 38.7757 167.078 33.2699 173.875 33.2699C180.673 33.2699 186.178 38.7757 186.178 45.5729C186.178 52.3702 180.673 57.876 173.875 57.876Z" fill="#F6A151"/>
</g>
<defs>
<clipPath id="clip0_721_9296">
<rect width="192" height="73.8409" fill="white" transform="translate(0.341125 0.84668)"/>
</clipPath>
</defs>
</svg>
