<svg width="187" height="118" viewBox="0 0 187 118" fill="none" xmlns="http://www.w3.org/2000/svg">
<g clip-path="url(#clip0_721_9706)">
<path d="M66.221 61.956C68.2653 63.6706 70.2107 65.4512 70.9691 68.3198C72.7826 65.1874 72.3209 62.4177 70.5404 59.7469C68.3642 56.5155 68.5291 53.9107 71.3977 51.2398C73.3431 49.4263 75.4863 47.8766 77.6296 46.2939C80.8939 43.8869 83.9933 41.315 86.2685 37.9188C86.9279 36.9626 87.3895 35.8745 87.9501 34.8523C88.2468 35.9075 88.4447 36.8966 88.2139 37.8529C87.4885 41.1172 85.609 43.722 83.4328 46.195C79.7069 50.4485 79.7398 54.8009 83.4658 58.8566C83.9933 59.4171 84.8836 59.6809 85.9058 60.2414C86.4333 55.7242 88.9722 53.9766 92.5333 53.0863C95.8306 52.262 99.062 51.2728 102.26 50.1517C110.537 47.2831 114.757 41.0842 116.274 32.7421C116.472 31.654 116.406 30.4999 116.472 29.214C118.351 31.6869 119.538 35.9404 119.472 39.6334C119.274 47.1512 115.713 52.9215 109.778 57.9663C115.087 57.4058 119.472 55.7242 123.627 53.3501C127.814 50.9761 131.243 47.7118 134.178 43.5572C134.706 51.6685 131.639 58.0652 126.726 63.9014C132.595 62.5166 136.618 58.6258 139.586 53.7788C144.795 45.2388 144.894 36.501 139.322 27.994C135.893 22.7513 129.265 17.9043 126.429 18.4648C129.43 21.7951 131.375 25.554 131.408 30.0383C131.441 34.6215 129.826 38.4793 125.935 41.6777C126.166 40.7545 126.265 40.1939 126.396 39.6334C128.243 32.0826 125.968 25.9826 119.604 21.5643C117.527 20.1135 115.318 18.8275 113.141 17.4756C112.02 16.7832 110.866 16.1237 109.811 15.3324C104.535 11.4086 104.239 6.66052 108.954 2.07729C109.613 1.45081 110.339 0.890268 111.361 0C106.085 0.0989186 101.898 1.78054 98.3036 4.84701C95.402 7.31998 94.6106 10.5183 95.6987 14.0794C96.2593 15.86 97.2155 17.5745 98.2376 19.1572C99.6884 21.3664 101.403 23.4107 102.92 25.587C104.206 27.4005 104.931 29.4448 104.7 31.7199C104.173 36.6658 98.7322 42.4031 93.8522 43.2604C94.7425 40.7874 95.7317 38.3475 96.4571 35.8085C98.0728 30.2361 96.6549 25.3561 92.1047 21.861C89.0382 19.487 85.4771 17.7394 82.0479 15.86C81.3225 15.4643 80.3004 15.6291 79.1793 15.4973C80.1685 16.8491 81.0258 17.8383 81.6523 18.9264C84.422 23.6745 84.4879 27.4334 80.8609 31.2913C78.355 33.9291 75.5193 36.2702 72.8485 38.7761C69.815 41.6118 66.7485 44.3485 63.8469 47.3161C62.1983 48.9977 61.5718 51.2399 61.6377 53.6139C61.7367 57.175 63.6161 59.8128 66.221 61.989" fill="#E73F0E"/>
<path d="M70.6393 23.9717C70.5074 24.9609 70.7053 26.082 71.035 27.0711C71.6615 28.9176 73.7717 30.0387 75.6182 29.7419C77.4317 29.4452 78.7836 27.9944 78.7506 25.9171C78.7177 24.2025 78.4869 22.389 77.8274 20.8393C76.0798 16.8166 72.7496 14.2777 68.7599 12.629C68.1663 12.3982 67.4739 12.4312 66.7485 12.3652C66.8145 12.662 66.7815 12.7939 66.8474 12.8598C70.5404 15.7614 71.2328 19.6193 70.6393 23.9717Z" fill="#E73F0E"/>
<path d="M112.581 10.9143C113.636 12.7607 115.054 13.5191 116.241 12.7937C117.395 12.0683 117.494 10.1229 116.274 8.54021C114.295 5.93535 113.339 3.26455 115.285 0.0332031C114.823 0.264013 114.295 0.428878 113.9 0.725634C110.899 3.16563 110.405 7.02345 112.614 10.9143" fill="#E73F0E"/>
<path d="M160.919 78.6403C162.238 78.6403 162.766 79.2338 162.469 80.6187C161.051 86.8176 159.633 92.9835 158.314 99.2154C158.05 100.534 157.457 100.765 156.105 100.303C157.721 93.0165 159.303 85.8614 160.919 78.6403ZM161.677 104.458C165.041 104.458 168.107 103.403 169.624 100.172C170.58 98.0613 170.91 95.6543 171.602 93.1154H166.986C168.041 88.0706 169.096 83.2565 170.151 78.2776H174.801C175.13 76.8928 175.46 75.5738 175.757 74.2879C175.559 74.156 175.46 74.0571 175.394 74.0571C166.854 74.0571 158.281 74.0241 149.741 74.0571C149.412 74.0571 148.884 74.3868 148.785 74.6506C148.422 75.8046 148.225 76.9917 147.928 78.3106C148.917 78.3106 149.708 78.3106 150.467 78.3106C152.61 78.3106 153.137 79.003 152.709 81.0803C152.049 83.9819 151.39 86.8835 150.763 89.7522C149.972 93.3132 149.148 96.8743 148.356 100.468H125.111C125.111 99.8419 125.111 99.3143 125.111 98.7867C125.111 95.2586 124.055 93.8738 120.593 93.1484C119.934 93.0165 119.208 92.9835 118.549 92.9835C112.053 92.9835 105.591 92.9835 99.0949 92.9835H97.2155C97.6441 91.0381 98.0727 89.3565 98.4354 87.6419C98.8971 85.4657 97.8749 83.5862 95.7976 82.8608C95.1711 82.63 94.4787 82.4981 93.4565 82.2344C95.7976 81.443 97.743 80.8165 99.6884 80.0911C100.216 79.8933 100.842 79.4317 101.007 78.9371C101.403 77.816 101.568 76.596 101.865 75.2441C98.5673 75.2441 95.4349 75.343 92.3025 75.2441C90.0274 75.1452 87.7522 74.9803 85.5431 74.4857C83.4987 74.0241 83.0041 72.6722 83.6966 70.7268C84.1582 69.342 84.6528 67.9901 85.2133 66.3414C82.5096 66.3414 80.1355 66.3414 77.7615 66.3744C77.4317 66.3744 76.8712 66.8031 76.7723 67.1658C75.948 69.7706 74.4642 72.2106 75.0247 75.2771C72.6177 75.2771 70.3426 75.2441 68.0674 75.2771C67.5728 75.2771 66.8145 75.5738 66.6826 75.9036C66.2539 77.1236 66.0561 78.4425 65.7264 79.8933H86.0377C86.0377 79.8933 86.0706 80.1241 86.1036 80.223C78.1571 83.5203 70.2107 86.8176 61.8685 90.2468C68.628 91.0051 74.728 90.5435 80.5312 87.7738C82.2458 86.9495 84.0923 86.4219 85.9058 85.8284C86.5982 85.5976 87.3566 85.4327 88.049 85.4657C89.8955 85.5976 90.522 86.5538 90.1263 88.3673C89.8955 89.3565 89.5658 90.3127 89.4668 91.3019C89.3349 92.5878 88.7085 92.8846 87.4885 92.8846C77.5966 92.8516 67.7377 92.8846 57.8458 92.8516C57.2523 92.8516 56.6918 92.7857 56.0983 92.6868C54.8453 92.456 54.2848 91.6976 54.6145 90.3787C55.0431 88.697 55.4058 86.9825 55.8345 85.2679C56.6258 81.9376 57.4502 78.6073 58.3075 75.0463C55.9664 75.0463 53.7902 75.0792 51.614 75.0463C50.6907 75.0463 50.328 75.376 50.1632 76.2663C49.8664 77.7171 49.5037 79.1679 49.0421 80.5527C48.9102 80.9484 48.3497 81.443 47.921 81.509C44.8875 81.8387 44.8875 81.8057 44.1291 84.8062C44.0632 85.103 43.8983 85.3998 43.8324 85.5646C42.5794 84.9711 41.3594 84.4106 39.9745 83.7841C41.2605 82.5971 42.7772 81.5749 43.7334 80.19C44.6567 78.8382 45.0194 77.0576 45.6788 75.343C44.9864 75.2771 44.6567 75.2111 44.3599 75.2111C42.0848 75.2111 39.7767 75.2771 37.5016 75.1782C34.6 75.0463 33.6108 73.5295 34.534 70.8257C35.0286 69.4079 35.5232 67.9571 36.1167 66.2755C33.8416 66.2755 31.7643 66.3414 29.72 66.2755C28.7638 66.2425 28.2692 66.6052 27.9394 67.4625C26.9503 69.9355 25.3016 72.2106 25.9611 75.2111C23.587 75.2111 21.4768 75.1782 19.3335 75.2441C18.8719 75.2441 18.1465 75.6068 18.0476 75.9695C17.6189 77.2884 17.3881 78.6733 17.0584 80.223H35.0946C23.4551 92.4889 12.0465 104.491 0.374115 116.79C3.04492 116.79 5.28707 116.724 7.49626 116.79C8.61733 116.823 9.34274 116.46 10.1011 115.669C18.2124 106.964 26.3238 98.2592 34.4681 89.6203C34.8637 89.1916 35.5891 89.0597 36.1497 88.796C36.2486 89.4225 36.5124 90.0819 36.3805 90.6754C35.9519 92.7527 35.3583 94.7641 34.8308 96.9073H42.4805C43.2059 93.643 43.9313 90.4776 44.6567 87.1473H47.4264C47.1626 88.6311 46.9318 89.95 46.668 91.3019C46.0415 94.7641 47.7232 97.1381 51.2183 97.6657C52.0096 97.7646 52.801 97.7976 53.5923 97.7976C59.7912 97.7976 66.0231 97.7976 72.222 97.7976C72.7825 97.7976 73.3101 97.8635 73.9696 97.8965C73.3761 100.205 72.8485 102.282 72.255 104.59C75.0247 104.59 77.5636 104.623 80.1025 104.557C80.4323 104.557 80.8939 103.963 81.0258 103.535C81.4874 102.117 81.949 100.699 82.2128 99.2484C82.4436 98.0613 83.0041 97.7646 84.1582 97.7646C93.6214 97.7976 103.052 97.7646 112.515 97.7976C113.405 97.7976 114.394 97.7976 115.186 98.1273C115.713 98.3581 116.01 99.1494 116.406 99.71C115.911 99.9738 115.416 100.435 114.922 100.435C111.361 100.501 107.8 100.468 104.239 100.468C101.711 100.468 100.183 101.688 99.6554 104.128C99.6554 104.128 99.6554 104.425 99.7214 104.722H126.265C126.396 106.371 125.803 106.865 124.253 106.865C116.274 106.799 108.327 106.832 100.348 106.865C99.7873 106.865 98.8311 107.096 98.7652 107.426C97.9738 110.492 97.3144 113.559 96.589 116.757H133.65C133.914 115.504 134.178 114.284 134.508 112.833H106.316C106.052 111.316 106.712 111.053 107.899 111.053C115.977 111.086 124.055 111.053 132.101 111.086C133.123 111.086 133.65 110.888 133.782 109.767C133.947 108.58 134.442 107.393 134.574 106.206C134.739 104.788 135.365 104.326 136.849 104.359C145.125 104.425 153.401 104.425 161.71 104.359" fill="#00417B"/>
<path d="M108.228 74.0242C106.942 79.5636 105.657 85.0701 104.371 90.6755C113.603 90.6755 122.671 90.8074 131.738 90.6095C135.398 90.5106 138.761 88.9939 140.047 85.235C141.3 81.6739 141.96 77.915 142.949 74.0572C140.278 74.0572 137.904 74.0242 135.53 74.0901C135.2 74.0901 134.706 74.6507 134.574 75.0134C134.178 76.2663 133.881 77.5523 133.552 78.9371H118.186C117.824 80.5198 117.494 82.0036 117.098 83.6852H132.496C132.266 84.5425 132.101 85.202 131.936 85.8614H113.636C114.559 81.8717 115.449 77.9809 116.373 73.9912H108.228V74.0242Z" fill="#00417B"/>
<path d="M43.8324 106.272C43.5686 107.887 43.2059 109.503 42.7772 111.086C42.4475 112.372 41.5902 113.262 40.2713 113.427C38.6556 113.625 37.007 113.691 35.787 113.789C33.9405 113.691 32.4897 113.756 31.1048 113.526C29.1924 113.229 28.7967 112.536 29.1265 110.657C29.2583 109.932 29.5221 109.206 29.621 108.481C29.9508 105.249 31.8962 103.634 35.3583 103.568C37.5675 103.502 39.8097 103.568 42.0188 103.733C43.6015 103.865 44.1291 104.656 43.8653 106.239M47.5253 100.271C41.9529 100.007 36.3805 99.9408 30.841 100.04C27.247 100.106 24.3124 101.589 23.1913 105.348C22.6308 107.228 22.2351 109.14 21.8724 111.086C21.213 114.515 22.9276 116.922 26.3897 117.12C29.2583 117.285 32.127 117.153 34.9956 117.153V117.318C36.4135 117.318 37.8643 117.318 39.2821 117.318C40.7659 117.318 42.2497 117.285 43.7334 117.153C47.0967 116.889 49.6026 114.713 50.394 111.481C50.8226 109.668 51.2513 107.887 51.6469 106.074C52.3064 103.073 50.5918 100.468 47.5253 100.304" fill="#00417B"/>
<path d="M67.408 100.765H58.835C57.5821 106.205 56.3291 111.547 55.0432 117.02H92.4674C92.7641 115.668 93.0279 114.415 93.3576 112.998H64.6053C65.5615 108.843 66.4847 104.82 67.408 100.765Z" fill="#00417B"/>
<path d="M185.253 73.9256H178.032C175.559 84.7407 173.119 95.4568 170.646 106.404C172.657 106.404 174.57 106.338 176.449 106.404C177.57 106.47 178.032 106.074 178.263 104.986C179.351 99.9082 180.538 94.8633 181.692 89.8185C182.088 88.1039 183.121 87.2026 184.791 87.1147C184.791 87.1147 184.989 87.0488 185.187 86.9498C185.55 85.3342 185.945 83.6526 186.341 81.872C185.352 81.7731 184.528 81.7072 183.604 81.6082C184.165 78.9704 184.725 76.4645 185.286 73.8926" fill="#00417B"/>
<path d="M148.257 112.569C148.719 110.591 149.115 108.909 149.543 106.931C146.873 106.931 144.4 106.931 141.927 106.931C141.63 106.931 141.135 107.326 141.069 107.623C140.344 110.525 139.717 113.459 138.992 116.625H175.592C178.032 116.625 179.362 115.394 179.582 112.932C179.582 112.932 179.582 112.833 179.483 112.536H148.257V112.569Z" fill="#00417B"/>
<path d="M141.795 97.8631C142.125 97.8631 142.652 97.4015 142.718 97.0718C143.015 95.7528 143.18 94.4339 143.377 93.082H125.968C126.627 94.5328 127.32 96.0166 128.177 97.8961C132.43 97.8961 137.08 97.8961 141.762 97.8631" fill="#00417B"/>
</g>
<defs>
<clipPath id="clip0_721_9706">
<rect width="186" height="117.35" fill="white" transform="translate(0.341141)"/>
</clipPath>
</defs>
</svg>
