<svg width="279" height="74" viewBox="0 0 279 74" fill="none" xmlns="http://www.w3.org/2000/svg">
<g clip-path="url(#clip0_721_9428)">
<path d="M42.389 17.0917C45.8103 16.2842 47.9293 12.856 47.1218 9.43469C46.3143 6.01336 42.8861 3.89444 39.4648 4.70194C36.0434 5.50945 33.9245 8.9376 34.732 12.3589C35.5395 15.7803 38.9677 17.8992 42.389 17.0917Z" fill="url(#paint0_radial_721_9428)"/>
<path d="M7.77265 27.699C10.2697 27.699 12.294 25.6747 12.294 23.1776C12.294 20.6805 10.2697 18.6562 7.77265 18.6562C5.27555 18.6562 3.25125 20.6805 3.25125 23.1776C3.25125 25.6747 5.27555 27.699 7.77265 27.699Z" fill="url(#paint1_radial_721_9428)"/>
<path d="M21.4246 13.2349C18.8566 20.7852 15.2132 28.1818 11.4819 30.7937C6.14845 34.5249 0.375992 31.6497 0.375992 31.6497C7.48731 37.5758 11.1747 45.6089 2.70254 64.4408C7.81654 56.7588 16.6618 51.3156 25.112 54.8712C15.8717 41.5924 20.1736 20.6315 21.4246 13.2568V13.2349Z" fill="#E20413"/>
<path d="M27.1312 0C27.1312 0 6.76302 48.7696 46.1826 73.7251C46.1826 73.7251 39.2029 56.7369 42.4733 42.4045C45.7875 27.9624 54.084 21.4437 59.9443 17.7783C48.5091 20.8291 24.4755 30.8816 27.1312 0Z" fill="#C6C6C5"/>
<path d="M21.4246 13.2349C21.4246 13.2349 15.6522 32.7252 17.1886 41.329C18.8347 50.4596 25.112 54.8493 25.112 54.8493C15.8716 41.5704 20.1736 20.6096 21.4246 13.2349Z" fill="url(#paint2_linear_721_9428)"/>
<path d="M59.9443 17.7783C59.9443 17.7783 36.2838 27.6771 34.9888 45.0164C34.0889 57.0223 38.7859 67.4478 46.1606 73.7251C46.1606 73.7251 39.181 56.7369 42.4513 42.4046C45.7655 27.9624 54.0621 21.4437 59.9223 17.7783H59.9443Z" fill="url(#paint3_linear_721_9428)"/>
<path d="M62.6878 70.5424C62.1611 70.9375 61.4148 71.135 60.4491 71.135H58.4957V62.9263H60.493C60.9539 62.9263 61.349 62.9702 61.6782 63.0799C62.0074 63.1897 62.2928 63.3213 62.5123 63.5189C62.7317 63.6945 62.8854 63.9359 62.9951 64.1993C63.1049 64.4627 63.1488 64.748 63.1488 65.0772C63.1488 65.4942 63.039 65.8454 62.8415 66.1308C62.644 66.4161 62.3367 66.6356 61.9635 66.7892C62.4245 66.9209 62.7976 67.1404 63.0829 67.4696C63.3683 67.7769 63.4999 68.2159 63.4999 68.7646C63.4999 69.5986 63.2366 70.1912 62.6878 70.5863V70.5424ZM61.6782 64.1773C61.4368 63.9578 61.0198 63.8481 60.471 63.8481H59.5931V66.3502H60.3833C60.932 66.3502 61.349 66.2405 61.6343 65.9991C61.9197 65.7576 62.0513 65.4503 62.0513 65.0553C62.0513 64.6822 61.9197 64.3749 61.6782 64.1554V64.1773ZM61.9197 67.6672C61.5904 67.4257 61.1295 67.294 60.5149 67.294H59.5931V70.1912H60.5369C61.1295 70.1912 61.5904 70.0815 61.9197 69.8401C62.2489 69.5986 62.4025 69.2474 62.4025 68.7646C62.4025 68.2817 62.2489 67.9305 61.9197 67.6672Z" fill="#868686"/>
<path d="M70.0845 69.4228C69.9309 69.8179 69.7114 70.1471 69.448 70.4105C69.1846 70.6739 68.8773 70.8934 68.5262 71.0251C68.175 71.1787 67.8019 71.2446 67.4287 71.2446C67.0556 71.2446 66.6605 71.1787 66.3094 71.0251C65.9582 70.8934 65.6509 70.6739 65.3875 70.4105C65.1241 70.1471 64.9047 69.8179 64.751 69.4228C64.5974 69.0278 64.5096 68.5888 64.5096 68.1059C64.5096 67.6231 64.5974 67.1841 64.751 66.789C64.9047 66.3939 65.1241 66.0647 65.3875 65.8013C65.6509 65.5379 65.9582 65.3185 66.3094 65.1868C66.6605 65.0331 67.0337 64.9673 67.4068 64.9673C67.7799 64.9673 68.175 65.0331 68.5042 65.1868C68.8554 65.3185 69.1627 65.5379 69.4261 65.8013C69.6894 66.0647 69.9089 66.3939 70.0626 66.789C70.2162 67.1841 70.304 67.6231 70.304 68.1059C70.304 68.5888 70.2162 69.0278 70.0626 69.4228H70.0845ZM69.0968 67.2499C69.009 66.9865 68.8993 66.7451 68.7237 66.5476C68.5701 66.35 68.3725 66.1964 68.153 66.0647C67.9336 65.955 67.6921 65.8891 67.4068 65.8891C67.1215 65.8891 66.8581 65.955 66.6386 66.0647C66.4191 66.1745 66.2216 66.3281 66.0679 66.5256C65.9143 66.7232 65.8045 66.9646 65.7168 67.228C65.629 67.4914 65.607 67.7986 65.607 68.1059C65.607 68.4132 65.6509 68.6985 65.7387 68.9839C65.8265 69.2472 65.9362 69.4887 66.1118 69.6862C66.2655 69.8838 66.463 70.0593 66.6825 70.1691C66.902 70.2788 67.1654 70.3447 67.4287 70.3447C67.6921 70.3447 67.9774 70.2788 68.1969 70.1691C68.4164 70.0593 68.614 69.9057 68.7676 69.7082C68.9212 69.5106 69.031 69.2692 69.1188 69.0058C69.2066 68.7424 69.2285 68.4352 69.2285 68.1279C69.2285 67.8206 69.1846 67.5353 69.0968 67.2499Z" fill="#868686"/>
<path d="M76.9324 69.4228C76.7788 69.8179 76.5593 70.1471 76.2959 70.4105C76.0325 70.6739 75.7253 70.8934 75.3741 71.0251C75.0229 71.1787 74.6498 71.2446 74.2767 71.2446C73.9035 71.2446 73.5085 71.1787 73.1573 71.0251C72.8061 70.8934 72.4988 70.6739 72.2355 70.4105C71.9721 70.1471 71.7526 69.8179 71.5989 69.4228C71.4453 69.0278 71.3575 68.5888 71.3575 68.1059C71.3575 67.6231 71.4453 67.1841 71.5989 66.789C71.7526 66.3939 71.9721 66.0647 72.2355 65.8013C72.4988 65.5379 72.8061 65.3185 73.1573 65.1868C73.5085 65.0331 73.8816 64.9673 74.2547 64.9673C74.6278 64.9673 75.0229 65.0331 75.3521 65.1868C75.7033 65.3185 76.0106 65.5379 76.274 65.8013C76.5374 66.0647 76.7568 66.3939 76.9105 66.789C77.0641 67.1841 77.1519 67.6231 77.1519 68.1059C77.1519 68.5888 77.0641 69.0278 76.9105 69.4228H76.9324ZM75.9448 67.2499C75.857 66.9865 75.7472 66.7451 75.5716 66.5476C75.418 66.35 75.2205 66.1964 75.001 66.0647C74.7815 65.955 74.54 65.8891 74.2547 65.8891C73.9694 65.8891 73.706 65.955 73.4865 66.0647C73.267 66.1745 73.0695 66.3281 72.9159 66.5256C72.7622 66.7232 72.6525 66.9646 72.5647 67.228C72.4769 67.4914 72.4549 67.7986 72.4549 68.1059C72.4549 68.4132 72.4988 68.6985 72.5866 68.9839C72.6744 69.2472 72.7842 69.4887 72.9598 69.6862C73.1134 69.8838 73.3109 70.0593 73.5304 70.1691C73.7499 70.2788 74.0133 70.3447 74.2767 70.3447C74.54 70.3447 74.8254 70.2788 75.0449 70.1691C75.2644 70.0593 75.4619 69.9057 75.6155 69.7082C75.7692 69.5106 75.8789 69.2692 75.9667 69.0058C76.0545 68.7424 76.0764 68.4352 76.0764 68.1279C76.0764 67.8206 76.0325 67.5353 75.9448 67.2499Z" fill="#868686"/>
<path d="M82.244 70.1472C82.1342 70.3667 81.9806 70.5642 81.7831 70.7178C81.5855 70.8715 81.366 71.0032 81.0807 71.091C80.8173 71.1788 80.5101 71.2227 80.1808 71.2227C79.8297 71.2227 79.4565 71.1788 79.1053 71.091C78.7542 71.0032 78.4249 70.8934 78.0957 70.7617L78.2494 69.796C78.5347 69.9496 78.8639 70.0813 79.2151 70.1691C79.5663 70.2789 79.8955 70.3228 80.2247 70.3228C80.5759 70.3228 80.8612 70.2569 81.0807 70.1033C81.3002 69.9496 81.4099 69.7521 81.4099 69.5107C81.4099 69.379 81.388 69.2692 81.3441 69.1814C81.3002 69.0937 81.2344 69.0059 81.1466 68.94C81.0588 68.8742 80.9271 68.8083 80.7734 68.7425C80.6198 68.6766 80.4442 68.6108 80.2247 68.523C79.9174 68.4132 79.6321 68.3035 79.3907 68.1938C79.1492 68.084 78.9517 67.9523 78.7981 67.8206C78.6444 67.6889 78.5127 67.5353 78.4469 67.3597C78.381 67.1841 78.3372 66.9866 78.3372 66.7452C78.3372 66.4818 78.381 66.2403 78.4908 66.0428C78.6005 65.8453 78.7322 65.6477 78.9078 65.4941C79.0834 65.3405 79.3029 65.2307 79.5443 65.1429C79.7858 65.0551 80.0491 65.0112 80.3564 65.0112C80.7076 65.0112 81.0368 65.0551 81.3222 65.121C81.6075 65.1868 81.8709 65.2746 82.1123 65.3844L81.9587 66.372C81.6733 66.2184 81.4099 66.1087 81.1466 66.0428C80.8832 65.955 80.6198 65.9331 80.3345 65.9331C80.0272 65.9331 79.7858 65.9989 79.6102 66.1306C79.4346 66.2623 79.3468 66.4379 79.3468 66.6354C79.3468 66.8549 79.4346 67.0524 79.6321 67.1622C79.8297 67.2939 80.1589 67.4256 80.6198 67.5792C80.9271 67.689 81.2124 67.7987 81.4319 67.9084C81.6514 68.0182 81.8489 68.1499 82.0026 68.2816C82.1562 68.4133 82.2659 68.5669 82.3318 68.7425C82.3976 68.9181 82.4415 69.1156 82.4415 69.357C82.4415 69.6424 82.3976 69.8838 82.2879 70.1033L82.244 70.1472Z" fill="#868686"/>
<path d="M86.0191 66.0429V71.135H84.9437V66.0429H83.0561V65.0991H87.8628L88.0164 66.0429H86.0411H86.0191Z" fill="#868686"/>
<path d="M98.7273 70.5424C98.2006 70.9375 97.4543 71.135 96.4886 71.135H94.5352V62.9263H96.5325C96.9934 62.9263 97.3885 62.9702 97.7177 63.0799C98.0469 63.1897 98.3322 63.3213 98.5517 63.5189C98.7712 63.6945 98.9249 63.9359 99.0346 64.1993C99.1443 64.4627 99.1882 64.748 99.1882 65.0772C99.1882 65.4942 99.0785 65.8454 98.881 66.1308C98.6834 66.4161 98.3761 66.6356 98.003 66.7892C98.4639 66.9209 98.8371 67.1404 99.1224 67.4696C99.4077 67.7769 99.5394 68.2159 99.5394 68.7646C99.5394 69.5986 99.276 70.1912 98.7273 70.5863V70.5424ZM97.7177 64.1773C97.4763 63.9578 97.0592 63.8481 96.5105 63.8481H95.6326V66.3502H96.4227C96.9714 66.3502 97.3885 66.2405 97.6738 65.9991C97.9591 65.7576 98.0908 65.4503 98.0908 65.0553C98.0908 64.6822 97.9591 64.3749 97.7177 64.1554V64.1773ZM97.9591 67.6672C97.6299 67.4257 97.169 67.294 96.5544 67.294H95.6326V70.1912H96.5764C97.169 70.1912 97.6299 70.0815 97.9591 69.8401C98.2883 69.5986 98.442 69.2474 98.442 68.7646C98.442 68.2817 98.2883 67.9305 97.9591 67.6672Z" fill="#868686"/>
<path d="M100.9 71.135V65.0991H104.653V66.0429H101.976V67.5354H104.127L104.28 68.4792H101.976V70.2131H104.741V71.1569H100.9V71.135Z" fill="#868686"/>
<path d="M108.67 68.7864V71.1348H107.595V68.8083L105.422 65.2307L106.519 64.9893L108.143 67.8426L109.724 65.099H110.909L108.67 68.7864Z" fill="#868686"/>
<path d="M116.923 69.4228C116.769 69.8179 116.55 70.1471 116.286 70.4105C116.023 70.6739 115.715 70.8934 115.364 71.0251C115.013 71.1787 114.64 71.2446 114.267 71.2446C113.894 71.2446 113.499 71.1787 113.148 71.0251C112.796 70.8934 112.489 70.6739 112.226 70.4105C111.962 70.1471 111.743 69.8179 111.589 69.4228C111.436 69.0278 111.348 68.5888 111.348 68.1059C111.348 67.6231 111.436 67.1841 111.589 66.789C111.743 66.3939 111.962 66.0647 112.226 65.8013C112.489 65.5379 112.796 65.3185 113.148 65.1868C113.499 65.0331 113.872 64.9673 114.245 64.9673C114.618 64.9673 115.013 65.0331 115.342 65.1868C115.694 65.3185 116.001 65.5379 116.264 65.8013C116.528 66.0647 116.747 66.3939 116.901 66.789C117.054 67.1841 117.142 67.6231 117.142 68.1059C117.142 68.5888 117.054 69.0278 116.901 69.4228H116.923ZM115.935 67.2499C115.847 66.9865 115.737 66.7451 115.562 66.5476C115.408 66.35 115.211 66.1964 114.991 66.0647C114.772 65.955 114.53 65.8891 114.245 65.8891C113.96 65.8891 113.696 65.955 113.477 66.0647C113.257 66.1745 113.06 66.3281 112.906 66.5256C112.752 66.7232 112.643 66.9646 112.555 67.228C112.467 67.4914 112.445 67.7986 112.445 68.1059C112.445 68.4132 112.489 68.6985 112.577 68.9839C112.665 69.2472 112.774 69.4887 112.95 69.6862C113.104 69.8838 113.301 70.0593 113.521 70.1691C113.74 70.2788 114.003 70.3447 114.267 70.3447C114.53 70.3447 114.816 70.2788 115.035 70.1691C115.255 70.0593 115.452 69.9057 115.606 69.7082C115.759 69.5106 115.869 69.2692 115.957 69.0058C116.045 68.7424 116.067 68.4352 116.067 68.1279C116.067 67.8206 116.023 67.5353 115.935 67.2499Z" fill="#868686"/>
<path d="M122.541 71.135L119.513 66.6794V71.135H118.547V65.0991H119.622L122.52 69.3791V65.0991H123.485V71.135H122.541Z" fill="#868686"/>
<path d="M130.114 69.3133C129.96 69.6864 129.763 69.9937 129.477 70.279C129.192 70.5643 128.863 70.7619 128.446 70.9155C128.029 71.0691 127.546 71.1569 127.019 71.1569H125.197V65.1211H127.019C127.568 65.1211 128.029 65.1869 128.446 65.3406C128.863 65.4942 129.214 65.6918 129.477 65.9771C129.763 66.2405 129.982 66.5697 130.114 66.9209C130.267 67.294 130.333 67.6891 130.333 68.128C130.333 68.567 130.267 68.9621 130.114 69.3352V69.3133ZM128.643 66.5916C128.248 66.2185 127.721 66.0429 127.085 66.0429H126.273V70.1912H127.063C127.743 70.1912 128.27 70.0156 128.665 69.6425C129.06 69.2694 129.236 68.7645 129.236 68.1061C129.236 67.4476 129.038 66.9209 128.643 66.5697V66.5916Z" fill="#868686"/>
<path d="M141.286 70.5424C140.759 70.9375 140.013 71.135 139.047 71.135H137.093V62.9263H139.091C139.552 62.9263 139.947 62.9702 140.276 63.0799C140.605 63.1897 140.89 63.3213 141.11 63.5189C141.329 63.6945 141.483 63.9359 141.593 64.1993C141.703 64.4627 141.746 64.748 141.746 65.0772C141.746 65.4942 141.637 65.8454 141.439 66.1308C141.242 66.4161 140.934 66.6356 140.561 66.7892C141.022 66.9209 141.395 67.1404 141.681 67.4696C141.966 67.7769 142.098 68.2159 142.098 68.7646C142.098 69.5986 141.834 70.1912 141.286 70.5863V70.5424ZM140.276 64.1773C140.034 63.9578 139.617 63.8481 139.069 63.8481H138.191V66.3502H138.981C139.53 66.3502 139.947 66.2405 140.232 65.9991C140.517 65.7576 140.649 65.4503 140.649 65.0553C140.649 64.6822 140.517 64.3749 140.276 64.1554V64.1773ZM140.517 67.6672C140.188 67.4257 139.727 67.294 139.113 67.294H138.191V70.1912H139.135C139.727 70.1912 140.188 70.0815 140.517 69.8401C140.847 69.5986 141 69.2474 141 68.7646C141 68.2817 140.847 67.9305 140.517 67.6672Z" fill="#868686"/>
<path d="M148.682 69.4228C148.529 69.8179 148.309 70.1471 148.046 70.4105C147.782 70.6739 147.475 70.8934 147.124 71.0251C146.773 71.1787 146.4 71.2446 146.026 71.2446C145.653 71.2446 145.258 71.1787 144.907 71.0251C144.556 70.8934 144.249 70.6739 143.985 70.4105C143.722 70.1471 143.502 69.8179 143.349 69.4228C143.195 69.0278 143.107 68.5888 143.107 68.1059C143.107 67.6231 143.195 67.1841 143.349 66.789C143.502 66.3939 143.722 66.0647 143.985 65.8013C144.249 65.5379 144.556 65.3185 144.907 65.1868C145.258 65.0331 145.631 64.9673 146.004 64.9673C146.378 64.9673 146.773 65.0331 147.102 65.1868C147.453 65.3185 147.76 65.5379 148.024 65.8013C148.287 66.0647 148.507 66.3939 148.66 66.789C148.814 67.1841 148.902 67.6231 148.902 68.1059C148.902 68.5888 148.814 69.0278 148.66 69.4228H148.682ZM147.694 67.2499C147.607 66.9865 147.497 66.7451 147.321 66.5476C147.168 66.35 146.97 66.1964 146.751 66.0647C146.531 65.955 146.29 65.8891 146.004 65.8891C145.719 65.8891 145.456 65.955 145.236 66.0647C145.017 66.1745 144.819 66.3281 144.666 66.5256C144.512 66.7232 144.402 66.9646 144.314 67.228C144.227 67.4914 144.205 67.7986 144.205 68.1059C144.205 68.4132 144.249 68.6985 144.336 68.9839C144.424 69.2472 144.534 69.4887 144.709 69.6862C144.863 69.8838 145.061 70.0593 145.28 70.1691C145.5 70.2788 145.763 70.3447 146.026 70.3447C146.29 70.3447 146.575 70.2788 146.795 70.1691C147.014 70.0593 147.212 69.9057 147.365 69.7082C147.519 69.5106 147.629 69.2692 147.716 69.0058C147.804 68.7424 147.826 68.4352 147.826 68.1279C147.826 67.8206 147.782 67.5353 147.694 67.2499Z" fill="#868686"/>
<path d="M154.52 70.6082C154.082 71.0472 153.467 71.2447 152.699 71.2447C151.931 71.2447 151.338 71.0252 150.899 70.6082C150.46 70.1912 150.241 69.5766 150.241 68.7865V65.0991H151.316V68.7426C151.316 69.2254 151.426 69.6205 151.667 69.9058C151.887 70.1912 152.238 70.3448 152.721 70.3448C153.204 70.3448 153.533 70.2131 153.774 69.9497C154.016 69.6864 154.125 69.2913 154.125 68.7865V65.1211H155.201V68.7645C155.201 69.5766 154.981 70.2131 154.52 70.6301V70.6082Z" fill="#868686"/>
<path d="M160.886 71.135L157.857 66.6794V71.135H156.891V65.0991H157.966L160.864 69.3791V65.0991H161.829V71.135H160.886Z" fill="#868686"/>
<path d="M168.458 69.3133C168.304 69.6864 168.107 69.9937 167.821 70.279C167.536 70.5643 167.207 70.7619 166.79 70.9155C166.373 71.0691 165.89 71.1569 165.363 71.1569H163.541V65.1211H165.363C165.912 65.1211 166.373 65.1869 166.79 65.3406C167.207 65.4942 167.558 65.6918 167.821 65.9771C168.107 66.2405 168.326 66.5697 168.458 66.9209C168.611 67.294 168.677 67.6891 168.677 68.128C168.677 68.567 168.611 68.9621 168.458 69.3352V69.3133ZM166.987 66.5916C166.592 66.2185 166.065 66.0429 165.429 66.0429H164.617V70.1912H165.407C166.087 70.1912 166.614 70.0156 167.009 69.6425C167.404 69.2694 167.58 68.7645 167.58 68.1061C167.58 67.4476 167.382 66.9209 166.987 66.5697V66.5916Z" fill="#868686"/>
<path d="M170.28 71.1349H169.226L171.596 65.0332H172.782L175.13 71.0032L174.077 71.2446L173.484 69.6204H170.828L170.28 71.1349ZM173.155 68.6767C173.023 68.3035 172.913 67.9963 172.826 67.7548C172.738 67.5134 172.628 67.25 172.54 66.9866C172.43 66.7232 172.365 66.5038 172.299 66.3282C172.233 66.1526 172.211 66.0648 172.189 66.0648H172.167L171.201 68.6767H173.155Z" fill="#868686"/>
<path d="M179.739 71.2008L177.983 68.7864H177.325V71.113H176.25V65.0771H178.115C178.817 65.0771 179.366 65.2308 179.783 65.56C180.2 65.8892 180.398 66.3502 180.398 66.9428C180.398 67.4037 180.288 67.7549 180.047 68.0402C179.827 68.3255 179.52 68.5231 179.125 68.6548L180.837 70.9374L179.739 71.1788V71.2008ZM179.015 66.2843C178.817 66.1307 178.51 66.0429 178.115 66.0429H177.325V67.9744H178.115C178.51 67.9744 178.796 67.8866 179.015 67.711C179.235 67.5354 179.322 67.294 179.322 66.9647C179.322 66.6574 179.213 66.438 179.015 66.2624V66.2843Z" fill="#868686"/>
<path d="M182 71.135V65.0991H183.076V71.135H182Z" fill="#868686"/>
<path d="M184.853 71.135V65.0991H188.607V66.0429H185.929V67.5354H188.08L188.233 68.4792H185.929V70.2131H188.694V71.1569H184.853V71.135Z" fill="#868686"/>
<path d="M193.655 70.1472C193.545 70.3667 193.391 70.5642 193.194 70.7178C192.996 70.8715 192.777 71.0032 192.491 71.091C192.228 71.1788 191.921 71.2227 191.592 71.2227C191.24 71.2227 190.867 71.1788 190.516 71.091C190.165 71.0032 189.836 70.8934 189.506 70.7617L189.66 69.796C189.945 69.9496 190.275 70.0813 190.626 70.1691C190.977 70.2789 191.306 70.3228 191.635 70.3228C191.987 70.3228 192.272 70.2569 192.491 70.1033C192.711 69.9496 192.821 69.7521 192.821 69.5107C192.821 69.379 192.799 69.2692 192.755 69.1814C192.711 69.0937 192.645 69.0059 192.557 68.94C192.469 68.8742 192.338 68.8083 192.184 68.7425C192.03 68.6766 191.855 68.6108 191.635 68.523C191.328 68.4132 191.043 68.3035 190.801 68.1938C190.56 68.084 190.362 67.9523 190.209 67.8206C190.055 67.6889 189.923 67.5353 189.858 67.3597C189.792 67.1841 189.748 66.9866 189.748 66.7452C189.748 66.4818 189.792 66.2403 189.901 66.0428C190.011 65.8453 190.143 65.6477 190.319 65.4941C190.494 65.3405 190.714 65.2307 190.955 65.1429C191.196 65.0551 191.46 65.0112 191.767 65.0112C192.118 65.0112 192.448 65.0551 192.733 65.121C193.018 65.1868 193.282 65.2746 193.523 65.3844L193.369 66.372C193.084 66.2184 192.821 66.1087 192.557 66.0428C192.294 65.955 192.03 65.9331 191.745 65.9331C191.438 65.9331 191.196 65.9989 191.021 66.1306C190.845 66.2623 190.757 66.4379 190.757 66.6354C190.757 66.8549 190.845 67.0524 191.043 67.1622C191.24 67.2939 191.57 67.4256 192.03 67.5792C192.338 67.689 192.623 67.7987 192.843 67.9084C193.062 68.0182 193.26 68.1499 193.413 68.2816C193.567 68.4133 193.677 68.5669 193.742 68.7425C193.808 68.9181 193.852 69.1156 193.852 69.357C193.852 69.6424 193.808 69.8838 193.699 70.1033L193.655 70.1472Z" fill="#868686"/>
<path d="M168.985 30.4644C161.017 30.4644 154.52 36.9392 154.52 44.9284C154.52 52.9177 160.995 59.3925 168.985 59.3925C176.974 59.3925 183.449 52.9177 183.449 44.9284C183.449 36.9392 176.974 30.4644 168.985 30.4644ZM168.985 54.1468C163.892 54.1468 159.766 50.0205 159.766 44.9284C159.766 39.8364 163.892 35.7101 168.985 35.7101C174.077 35.7101 178.203 39.8364 178.203 44.9284C178.203 50.0205 174.077 54.1468 168.985 54.1468Z" fill="#1C1C1B"/>
<path d="M264.614 30.4644C257.042 30.4644 250.874 36.6319 250.874 44.2041V58.8657H256.12V44.2041C256.12 39.5071 259.939 35.6881 264.636 35.6881C269.333 35.6881 273.152 39.5071 273.152 44.2041V58.8657H278.398V44.2041C278.398 36.6319 272.23 30.4644 264.658 30.4644H264.614Z" fill="#1C1C1B"/>
<path d="M233.206 30.4644C225.239 30.4644 218.742 36.9392 218.742 44.9284C218.742 52.9177 225.217 59.3925 233.206 59.3925C238.43 59.3925 243.28 56.5611 245.826 51.9739L241.261 49.4279C239.637 52.347 236.542 54.1468 233.206 54.1468C229.036 54.1468 225.502 51.3594 224.361 47.5403H247.407C247.56 46.6843 247.648 45.8064 247.648 44.9284C247.648 36.9611 241.173 30.4644 233.184 30.4644H233.206ZM224.361 42.2946C225.502 38.4756 229.036 35.6881 233.206 35.6881C237.376 35.6881 240.91 38.4756 242.051 42.2946H224.361Z" fill="#1C1C1B"/>
<path d="M154.542 30.4644C146.575 30.4644 140.078 36.9392 140.078 44.9284V58.8877H145.324V44.9284C145.324 39.8364 149.45 35.7101 154.542 35.7101V30.4644Z" fill="#1C1C1B"/>
<path d="M201.095 30.4644C193.128 30.4644 186.631 36.9392 186.631 44.9284C186.631 52.9177 193.106 59.3925 201.095 59.3925C204.585 59.3925 207.811 58.1414 210.314 56.0563C210.27 61.1045 206.165 65.1869 201.095 65.1869V70.4326C209.063 70.4326 215.559 63.9578 215.559 55.9685V44.9284C215.559 36.9611 209.084 30.4644 201.095 30.4644ZM201.095 54.1468C196.003 54.1468 191.877 50.0205 191.877 44.9284C191.877 39.8364 196.003 35.7101 201.095 35.7101C206.187 35.7101 210.314 39.8364 210.314 44.9284C210.314 50.0205 206.187 54.1468 201.095 54.1468Z" fill="#1C1C1B"/>
<path d="M108.516 41.5045H98.42C96.9495 41.5045 95.7643 40.3193 95.7643 38.8487C95.7643 37.3782 96.9495 36.193 98.42 36.193H113.96V30.9473H98.42C94.0742 30.9473 90.5186 34.481 90.5186 38.8487C90.5186 43.2165 94.0523 46.7502 98.42 46.7502H108.516C110.426 46.7502 111.984 48.3085 111.984 50.2181C111.984 52.1276 110.426 53.6859 108.516 53.6859H91.6599V58.9316H108.516C113.301 58.9316 117.208 55.0248 117.208 50.24C117.208 45.4552 113.301 41.5484 108.516 41.5484V41.5045Z" fill="#1C1C1B"/>
<path d="M125.636 50.1963V36.1931H134.613V30.9474H125.636V23.0898H120.391V50.1743C120.391 54.9591 124.297 58.8659 129.082 58.8659H136.852V53.6202H129.082C127.173 53.6202 125.614 52.0619 125.614 50.1524L125.636 50.1963Z" fill="#1C1C1B"/>
<path d="M72.85 22.7388C64.6632 22.7388 58.0128 29.3892 58.0128 37.576V58.866H63.2585V44.9068H82.4635V58.866H87.7092V37.576C87.7092 29.3892 81.0588 22.7388 72.872 22.7388H72.85ZM63.2366 39.683V37.576C63.2366 32.2864 67.5385 27.9625 72.85 27.9625C78.1616 27.9625 82.4635 32.2644 82.4635 37.576V39.683H63.2585H63.2366Z" fill="#1C1C1B"/>
</g>
<defs>
<radialGradient id="paint0_radial_721_9428" cx="0" cy="0" r="1" gradientUnits="userSpaceOnUse" gradientTransform="translate(39.1641 9.01111) scale(6.84794)">
<stop stop-color="#ECECEC"/>
<stop offset="1" stop-color="#919191"/>
</radialGradient>
<radialGradient id="paint1_radial_721_9428" cx="0" cy="0" r="1" gradientUnits="userSpaceOnUse" gradientTransform="translate(6.3021 21.8388) scale(4.23606)">
<stop stop-color="#E20413"/>
<stop offset="0.24" stop-color="#D60510"/>
<stop offset="0.68" stop-color="#B60A0A"/>
<stop offset="1" stop-color="#9B0F05"/>
</radialGradient>
<linearGradient id="paint2_linear_721_9428" x1="19.3615" y1="27.7209" x2="22.2587" y2="49.5816" gradientUnits="userSpaceOnUse">
<stop offset="0.22" stop-color="#9B0F05"/>
<stop offset="1" stop-color="#E20413"/>
</linearGradient>
<linearGradient id="paint3_linear_721_9428" x1="51.8014" y1="20.2585" x2="39.2029" y2="63.2996" gradientUnits="userSpaceOnUse">
<stop stop-color="#919191"/>
<stop offset="1" stop-color="#ECECEC"/>
</linearGradient>
<clipPath id="clip0_721_9428">
<rect width="278" height="73.7251" fill="white" transform="translate(0.375992)"/>
</clipPath>
</defs>
</svg>
