<svg width="118" height="107" viewBox="0 0 118 107" fill="none" xmlns="http://www.w3.org/2000/svg">
<g clip-path="url(#clip0_526_721)">
<path d="M24.1061 82.1305C24.2247 78.0042 21.0044 74.5621 16.9134 74.4426C12.8224 74.323 9.40992 77.5711 9.29136 81.6975C9.1728 85.8239 12.3931 89.2659 16.4841 89.3855C20.575 89.5051 23.9876 86.2569 24.1061 82.1305Z" fill="#FF6400"/>
<path d="M16.6941 89.8548C12.3508 89.8548 8.81532 86.2887 8.81532 81.9079C8.81532 77.527 12.3508 73.9609 16.6941 73.9609C21.0374 73.9609 24.5728 77.527 24.5728 81.9079C24.5728 86.2887 21.0374 89.8548 16.6941 89.8548ZM16.6941 74.9056C12.8659 74.9056 9.75187 78.0466 9.75187 81.9079C9.75187 85.7691 12.8659 88.9101 16.6941 88.9101C20.5222 88.9101 23.6363 85.7691 23.6363 81.9079C23.6363 78.0466 20.5222 74.9056 16.6941 74.9056Z" fill="#2E2138"/>
<path d="M0.43901 106.557C0.43901 100.086 4.15011 94.4889 9.547 91.8262C11.6601 93.0011 14.1069 93.6742 16.6999 93.6742C19.293 93.6742 21.7281 93.0011 23.8529 91.8262C29.2381 94.5007 32.9492 100.086 32.9492 106.557" fill="#FF6400"/>
<path d="M32.9492 107C32.7092 107 32.5101 106.799 32.5101 106.557C32.5101 100.5 29.2029 95.0679 23.8587 92.3284C21.6578 93.5033 19.1877 94.1232 16.6941 94.1232C14.2005 94.1232 11.7186 93.5033 9.52944 92.3284C4.17937 95.0561 0.872166 100.488 0.872166 106.557C0.872166 106.799 0.673149 107 0.433156 107C0.193164 107 -0.00585341 106.799 -0.00585341 106.557C-0.00585341 100.069 3.57647 94.2768 9.34798 91.431C9.47676 91.366 9.62895 91.3719 9.75187 91.4428C11.8591 92.6177 14.259 93.2376 16.6941 93.2376C19.1291 93.2376 21.5173 92.6177 23.6363 91.4428C23.7592 91.3719 23.9114 91.3719 24.0402 91.431C29.8 94.2886 33.3823 100.086 33.3823 106.557C33.3823 106.799 33.1833 107 32.9433 107H32.9492Z" fill="#2E2138"/>
<path d="M67.4433 82.4797C67.7565 78.3637 64.7024 74.7709 60.6217 74.4549C56.541 74.1389 52.979 77.2194 52.6658 81.3354C52.3525 85.4514 55.4066 89.0442 59.4873 89.3602C63.568 89.6762 67.13 86.5957 67.4433 82.4797Z" fill="#FF6400"/>
<path d="M60.0566 89.825C55.7308 89.825 52.2071 86.2767 52.2071 81.9076C52.2071 77.5386 55.7308 73.9902 60.0566 73.9902C64.3823 73.9902 67.9061 77.5445 67.9061 81.9076C67.9061 86.2708 64.3823 89.825 60.0566 89.825ZM60.0566 74.8758C56.2108 74.8758 53.0851 78.0286 53.0851 81.9076C53.0851 85.7866 56.2108 88.9394 60.0566 88.9394C63.9023 88.9394 67.028 85.7866 67.028 81.9076C67.028 78.0286 63.9023 74.8758 60.0566 74.8758Z" fill="#2E2138"/>
<path d="M43.8015 106.557C43.8015 100.086 47.5126 94.4889 52.9095 91.8262C55.0226 93.0011 57.4693 93.6742 60.0624 93.6742C62.6555 93.6742 65.0905 93.0011 67.2153 91.8262C72.6005 94.5007 76.3116 100.086 76.3116 106.557" fill="#FF6400"/>
<path d="M76.3116 107C76.0716 107 75.8726 106.799 75.8726 106.557C75.8726 100.5 72.5654 95.0679 67.2212 92.3284C65.0203 93.5033 62.5501 94.1232 60.0566 94.1232C57.563 94.1232 55.0811 93.5033 52.8919 92.3284C47.5418 95.0561 44.2346 100.488 44.2346 106.557C44.2346 106.799 44.0356 107 43.7956 107C43.5556 107 43.3566 106.799 43.3566 106.557C43.3566 100.069 46.9389 94.2768 52.7105 91.431C52.8392 91.366 52.9914 91.3719 53.1143 91.4428C55.2216 92.6177 57.6215 93.2376 60.0566 93.2376C62.4916 93.2376 64.8798 92.6177 66.9988 91.4428C67.1217 91.3719 67.2739 91.3719 67.4027 91.431C73.1625 94.2886 76.7448 100.086 76.7448 106.557C76.7448 106.799 76.5458 107 76.3058 107H76.3116Z" fill="#2E2138"/>
<path d="M108.695 82.4778C109.008 78.3618 105.954 74.7689 101.874 74.453C97.7928 74.137 94.2308 77.2175 93.9175 81.3335C93.6043 85.4495 96.6584 89.0423 100.739 89.3583C104.82 89.6743 108.382 86.5937 108.695 82.4778Z" fill="#FF6400"/>
<path d="M101.306 89.825C96.9802 89.825 93.4564 86.2767 93.4564 81.9076C93.4564 77.5386 96.9802 73.9902 101.306 73.9902C105.632 73.9902 109.155 77.5445 109.155 81.9076C109.155 86.2708 105.632 89.825 101.306 89.825ZM101.306 74.8758C97.4602 74.8758 94.3344 78.0286 94.3344 81.9076C94.3344 85.7866 97.4602 88.9394 101.306 88.9394C105.152 88.9394 108.277 85.7866 108.277 81.9076C108.277 78.0286 105.152 74.8758 101.306 74.8758Z" fill="#2E2138"/>
<path d="M85.0508 106.557C85.0508 100.086 88.7619 94.4889 94.1588 91.8262C96.2719 93.0011 98.7187 93.6742 101.312 93.6742C103.905 93.6742 106.34 93.0011 108.465 91.8262C113.85 94.5007 117.561 100.086 117.561 106.557" fill="#FF6400"/>
<path d="M117.561 107C117.321 107 117.122 106.799 117.122 106.557C117.122 100.5 113.815 95.0679 108.471 92.3284C106.27 93.5033 103.799 94.1232 101.306 94.1232C98.8123 94.1232 96.3305 93.5033 94.1413 92.3284C88.7912 95.0561 85.484 100.488 85.484 106.557C85.484 106.799 85.285 107 85.045 107C84.805 107 84.606 106.799 84.606 106.557C84.606 100.069 88.1883 94.2768 93.9598 91.431C94.0886 91.366 94.2408 91.3719 94.3637 91.4428C96.471 92.6177 98.8709 93.2376 101.306 93.2376C103.741 93.2376 106.1 92.6354 108.248 91.4428C108.371 91.3719 108.523 91.3719 108.652 91.431C114.412 94.2886 117.994 100.086 117.994 106.557C117.994 106.799 117.795 107 117.555 107H117.561Z" fill="#2E2138"/>
<path d="M107.032 29.2043C107.69 25.1299 104.949 21.289 100.909 20.6254C96.8698 19.9618 93.0618 22.7269 92.4039 26.8013C91.7461 30.8757 94.4874 34.7166 98.5269 35.3802C102.566 36.0438 106.374 33.2787 107.032 29.2043Z" fill="#FF6400"/>
<path d="M99.7196 35.9207C95.3939 35.9207 91.8701 32.3665 91.8701 28.0033C91.8701 23.6402 95.3939 20.0859 99.7196 20.0859C104.045 20.0859 107.569 23.6402 107.569 28.0033C107.569 32.3665 104.045 35.9207 99.7196 35.9207ZM99.7196 20.9716C95.8739 20.9716 92.7482 24.1243 92.7482 28.0033C92.7482 31.8823 95.8739 35.0351 99.7196 35.0351C103.565 35.0351 106.691 31.8823 106.691 28.0033C106.691 24.1243 103.565 20.9716 99.7196 20.9716Z" fill="#2E2138"/>
<path d="M83.4646 52.6467C83.4646 46.1758 87.1698 40.5788 92.5725 37.916C94.6856 39.0909 97.1324 39.764 99.7255 39.764C102.319 39.764 104.754 39.0909 106.878 37.916C112.264 40.5906 115.975 46.1758 115.975 52.6467" fill="#FF6400"/>
<path d="M115.975 53.0899C115.735 53.0899 115.536 52.8892 115.536 52.6471C115.536 46.5895 112.228 41.1577 106.884 38.4182C104.683 39.5932 102.213 40.2131 99.7196 40.2131C97.2261 40.2131 94.7442 39.5932 92.555 38.4182C87.2049 41.1459 83.8977 46.5777 83.8977 52.6471C83.8977 52.8892 83.6987 53.0899 83.4587 53.0899C83.2187 53.0899 83.0197 52.8892 83.0197 52.6471C83.0197 46.1585 86.602 40.3666 92.3735 37.5208C92.5023 37.4559 92.6545 37.4618 92.7774 37.5326C94.8847 38.7075 97.2846 39.3275 99.7196 39.3275C102.155 39.3275 104.514 38.7253 106.662 37.5326C106.785 37.4618 106.937 37.4618 107.066 37.5208C112.826 40.3784 116.408 46.1762 116.408 52.6471C116.408 52.8892 116.209 53.0899 115.969 53.0899H115.975Z" fill="#2E2138"/>
<path d="M8.99092 6.13379H73.5429V49.1393C73.5429 51.0463 72.0093 52.5932 70.1187 52.5932H12.4152C10.5245 52.5932 8.99092 51.0463 8.99092 49.1393V6.13379Z" fill="#FDFFF3"/>
<path d="M70.1245 53.0305H12.4152C10.2845 53.0305 8.55191 51.2829 8.55191 49.1338V5.69141H73.9819V49.1397C73.9819 51.2888 72.2493 53.0364 70.1187 53.0364L70.1245 53.0305ZM9.42993 6.57702V49.1397C9.42993 50.7987 10.7704 52.1508 12.4152 52.1508H70.1245C71.7693 52.1508 73.1098 50.7987 73.1098 49.1397V6.57702H9.42993Z" fill="#231815"/>
<path d="M80.5144 0.442383H2.01945V6.13394H80.5144V0.442383Z" fill="#FFE600"/>
<path d="M80.5144 6.57717H2.01945C1.77945 6.57717 1.58044 6.37643 1.58044 6.13436V0.442807C1.58044 0.200739 1.77945 0 2.01945 0H80.5144C80.7544 0 80.9534 0.200739 80.9534 0.442807V6.13436C80.9534 6.37643 80.7544 6.57717 80.5144 6.57717ZM2.45846 5.69155H80.0754V0.885615H2.45846V5.69155Z" fill="#2E2138"/>
<path d="M54.8353 20.5283H48.0043V43.9912H54.8353V20.5283Z" fill="#00DD05"/>
<path d="M54.8353 44.4344H48.0043C47.7643 44.4344 47.5653 44.2337 47.5653 43.9916V20.5287C47.5653 20.2867 47.7643 20.0859 48.0043 20.0859H54.8353C55.0753 20.0859 55.2743 20.2867 55.2743 20.5287V43.9916C55.2743 44.2337 55.0753 44.4344 54.8353 44.4344ZM48.4433 43.5488H54.3963V20.9716H48.4433V43.5488Z" fill="#2E2138"/>
<path d="M48.0043 24.791H41.1733V43.9911H48.0043V24.791Z" fill="#12B512"/>
<path d="M48.0043 44.4344H41.1733C40.9333 44.4344 40.7343 44.2336 40.7343 43.9916V24.7914C40.7343 24.5494 40.9333 24.3486 41.1733 24.3486H48.0043C48.2443 24.3486 48.4433 24.5494 48.4433 24.7914V43.9916C48.4433 44.2336 48.2443 44.4344 48.0043 44.4344ZM41.6123 43.5488H47.5653V25.2342H41.6123V43.5488Z" fill="#2E2138"/>
<path d="M41.1674 28.9121H34.3364V43.9912H41.1674V28.9121Z" fill="#2BD62F"/>
<path d="M41.1733 44.4344H34.3423C34.1023 44.4344 33.9033 44.2337 33.9033 43.9916V28.9125C33.9033 28.6705 34.1023 28.4697 34.3423 28.4697H41.1733C41.4133 28.4697 41.6123 28.6705 41.6123 28.9125V43.9916C41.6123 44.2337 41.4133 44.4344 41.1733 44.4344ZM34.7754 43.5488H40.7284V29.3553H34.7754V43.5488Z" fill="#2E2138"/>
<path d="M34.3364 32.5605H27.5054V43.9909H34.3364V32.5605Z" fill="#5DED61"/>
<path d="M34.3364 44.4341H27.5054C27.2654 44.4341 27.0664 44.2334 27.0664 43.9913V32.561C27.0664 32.3189 27.2654 32.1182 27.5054 32.1182H34.3364C34.5764 32.1182 34.7754 32.3189 34.7754 32.561V43.9913C34.7754 44.2334 34.5764 44.4341 34.3364 44.4341ZM27.9444 43.5485H33.8974V33.0038H27.9444V43.5485Z" fill="#2E2138"/>
<path d="M21.7632 43.5605V44.4462H60.7765V43.5605H21.7632Z" fill="black"/>
<path d="M56.7378 18.3531C56.3749 16.7295 56.4335 14.4564 56.6793 12.7383C55.3798 13.8837 53.5243 15.1708 51.979 15.7494L54.2267 16.0918L47.5011 28.5849L42.7071 26.607L38.2175 32.3458L33.3884 24.9066L25.4042 34.8787L26.294 35.599L33.2947 26.8491L38.1355 34.306L43.07 27.9886L48.0162 30.0314L55.2277 16.6291L56.7378 18.3472V18.3531Z" fill="#FF0000"/>
<path d="M26.3408 36.0238L25.0004 34.9315L33.4235 24.4163L38.2526 31.8496L42.6251 26.2584L47.3782 28.2186L53.776 16.3277L50.82 15.879L51.8795 15.4834C53.495 14.8753 55.374 13.5114 56.4861 12.5255L57.0832 12L56.972 12.7911C56.7613 14.2731 56.65 16.6052 57.0247 18.2997L57.2705 19.4155L55.2862 17.1602L48.1508 30.4267L43.1695 28.3662L38.118 34.8312L33.2713 27.3743L26.3349 36.0356L26.3408 36.0238ZM25.8198 34.843L26.253 35.1913L33.324 26.3588L38.1648 33.8097L42.9881 27.64L47.8933 29.6651L55.175 16.127L56.2871 17.3904C56.1349 16.0915 56.1818 14.645 56.2988 13.4406C55.3681 14.1963 54.1857 15.0229 53.0268 15.6074L54.6833 15.8613L47.6357 28.9625L42.8066 26.9669L38.2058 32.8533L33.3708 25.4141L25.8198 34.843Z" fill="#231815"/>
</g>
<defs>
<clipPath id="clip0_526_721">
<rect width="118" height="107" fill="white"/>
</clipPath>
</defs>
</svg>
