<svg width="144" height="131" viewBox="0 0 144 131" fill="none" xmlns="http://www.w3.org/2000/svg">
<g clip-path="url(#clip0_148_2)">
<path d="M121.658 45.0947C116.083 45.0947 111.54 40.5137 111.54 34.876C111.54 29.2383 116.076 24.6572 121.658 24.6572C127.24 24.6572 131.776 29.2383 131.776 34.876C131.776 40.5137 127.24 45.0947 121.658 45.0947ZM121.658 27.1392C117.431 27.1392 113.998 30.6069 113.998 34.876C113.998 39.145 117.431 42.6127 121.658 42.6127C125.885 42.6127 129.318 39.145 129.318 34.876C129.318 30.6069 125.885 27.1392 121.658 27.1392Z" fill="#4C86C6"/>
<path d="M121.658 45.6262C115.788 45.6262 111.014 40.804 111.014 34.8756C111.014 28.9472 115.788 24.125 121.658 24.125C127.528 24.125 132.302 28.9472 132.302 34.8756C132.302 40.804 127.528 45.6262 121.658 45.6262ZM121.658 25.1887C116.371 25.1887 112.067 29.5358 112.067 34.8756C112.067 40.2155 116.371 44.5625 121.658 44.5625C126.945 44.5625 131.249 40.2155 131.249 34.8756C131.249 29.5358 126.945 25.1887 121.658 25.1887ZM121.658 43.1442C117.144 43.1442 113.471 39.4354 113.471 34.8756C113.471 30.3158 117.144 26.607 121.658 26.607C126.173 26.607 129.845 30.3158 129.845 34.8756C129.845 39.4354 126.173 43.1442 121.658 43.1442ZM121.658 27.6707C117.726 27.6707 114.525 30.9044 114.525 34.8756C114.525 38.8468 117.726 42.0805 121.658 42.0805C125.59 42.0805 128.792 38.8468 128.792 34.8756C128.792 30.9044 125.59 27.6707 121.658 27.6707Z" fill="#4C86C6"/>
<path d="M141.156 65.7165C140.475 65.7165 139.928 65.1634 139.928 64.4755C139.928 57.5898 136.234 51.406 130.252 48.1794C127.598 49.5339 124.642 50.243 121.665 50.243C118.688 50.243 115.718 49.5339 113.071 48.1794C107.082 51.3848 103.389 57.5756 103.389 64.4755C103.389 65.1634 102.841 65.7165 102.16 65.7165C101.479 65.7165 100.931 65.1634 100.931 64.4755C100.931 56.4126 105.383 49.2077 112.545 45.6691C112.903 45.4918 113.324 45.4989 113.675 45.6974C116.104 47.0519 118.864 47.761 121.665 47.761C124.467 47.761 127.184 47.0661 129.655 45.6974C130.007 45.506 130.428 45.4918 130.786 45.6691C137.941 49.2219 142.385 56.4268 142.385 64.4755C142.385 65.1634 141.837 65.7165 141.156 65.7165Z" fill="#4C86C6"/>
<path d="M141.156 66.2485C140.187 66.2485 139.401 65.4543 139.401 64.4757C139.401 57.9303 135.897 51.938 130.245 48.7824C127.584 50.0872 124.628 50.775 121.665 50.775C118.702 50.775 115.732 50.0872 113.085 48.7824C107.426 51.9239 103.915 57.9161 103.915 64.4757C103.915 65.4543 103.129 66.2485 102.16 66.2485C101.191 66.2485 100.405 65.4543 100.405 64.4757C100.405 56.2071 104.969 48.8178 112.313 45.1941C112.825 44.9388 113.429 44.953 113.935 45.2366C116.28 46.5415 118.955 47.2364 121.672 47.2364C124.389 47.2364 127.015 46.5627 129.41 45.2366C129.908 44.9601 130.519 44.9459 131.032 45.2012C138.369 48.8462 142.919 56.2354 142.919 64.4828C142.919 65.4614 142.132 66.2556 141.163 66.2556L141.156 66.2485ZM130.259 47.5839L130.498 47.7115C136.635 51.0162 140.454 57.441 140.454 64.4757C140.454 64.8657 140.77 65.1848 141.156 65.1848C141.543 65.1848 141.858 64.8657 141.858 64.4757C141.858 56.6326 137.526 49.612 130.554 46.1443C130.351 46.038 130.105 46.0451 129.908 46.1585C127.352 47.5768 124.579 48.293 121.665 48.293C118.751 48.293 115.929 47.5555 113.422 46.1585C113.219 46.0451 112.98 46.038 112.776 46.1443C105.797 49.5908 101.458 56.6184 101.458 64.4757C101.458 64.8657 101.774 65.1848 102.16 65.1848C102.546 65.1848 102.862 64.8657 102.862 64.4757C102.862 57.4268 106.682 51.002 112.825 47.7115L113.064 47.5839L113.31 47.7115C115.88 49.0235 118.765 49.7184 121.665 49.7184C124.565 49.7184 127.444 49.0235 130.021 47.7115L130.266 47.591L130.259 47.5839Z" fill="#4C86C6"/>
<path d="M21.2535 109.84C15.6786 109.84 11.1358 105.259 11.1358 99.6211C11.1358 93.9834 15.6716 89.4023 21.2535 89.4023C26.8354 89.4023 31.3712 93.9834 31.3712 99.6211C31.3712 105.259 26.8354 109.84 21.2535 109.84ZM21.2535 91.8844C17.0267 91.8844 13.5932 95.3521 13.5932 99.6211C13.5932 103.89 17.0267 107.358 21.2535 107.358C25.4803 107.358 28.9137 103.89 28.9137 99.6211C28.9137 95.3521 25.4803 91.8844 21.2535 91.8844Z" fill="#4C86C6"/>
<path d="M21.2535 110.371C15.3837 110.371 10.6092 105.549 10.6092 99.6207C10.6092 93.6923 15.3837 88.8701 21.2535 88.8701C27.1233 88.8701 31.8978 93.6923 31.8978 99.6207C31.8978 105.549 27.1233 110.371 21.2535 110.371ZM21.2535 89.9338C15.9665 89.9338 11.6624 94.2809 11.6624 99.6207C11.6624 104.961 15.9665 109.308 21.2535 109.308C26.5405 109.308 30.8446 104.961 30.8446 99.6207C30.8446 94.2809 26.5405 89.9338 21.2535 89.9338ZM21.2535 107.889C16.7388 107.889 13.0667 104.181 13.0667 99.6207C13.0667 95.0609 16.7388 91.3521 21.2535 91.3521C25.7682 91.3521 29.4403 95.0609 29.4403 99.6207C29.4403 104.181 25.7682 107.889 21.2535 107.889ZM21.2535 92.4158C17.3216 92.4158 14.1198 95.6495 14.1198 99.6207C14.1198 103.592 17.3216 106.826 21.2535 106.826C25.1854 106.826 28.3871 103.592 28.3871 99.6207C28.3871 95.6495 25.1854 92.4158 21.2535 92.4158Z" fill="#4C86C6"/>
<path d="M40.7517 130.468C40.0706 130.468 39.5229 129.914 39.5229 129.227C39.5229 122.341 35.8297 116.157 29.8476 112.93C27.1935 114.285 24.2376 114.994 21.2605 114.994C18.2835 114.994 15.3135 114.285 12.6664 112.93C6.67726 116.136 2.98405 122.327 2.98405 129.227C2.98405 129.914 2.43639 130.468 1.75532 130.468C1.07426 130.468 0.526596 129.914 0.526596 129.227C0.526596 121.164 4.97811 113.959 12.1398 110.42C12.4979 110.243 12.9192 110.25 13.2703 110.448C15.6926 111.803 18.459 112.512 21.2605 112.512C24.062 112.512 26.7793 111.817 29.2508 110.448C29.6018 110.257 30.0231 110.243 30.3812 110.42C37.5359 113.973 41.9804 121.178 41.9804 129.227C41.9804 129.914 41.4327 130.468 40.7517 130.468Z" fill="#4C86C6"/>
<path d="M40.7517 131C39.7827 131 38.9963 130.205 38.9963 129.227C38.9963 122.681 35.4927 116.689 29.8406 113.533C27.1795 114.838 24.2235 115.526 21.2605 115.526C18.2975 115.526 15.3275 114.838 12.6805 113.533C7.02131 116.675 3.51065 122.667 3.51065 129.227C3.51065 130.205 2.72427 131 1.75533 131C0.786386 131 0 130.205 0 129.227C0 120.958 4.56385 113.569 11.9081 109.945C12.4207 109.69 13.0245 109.704 13.5301 109.988C15.8752 111.292 18.5503 111.987 21.2675 111.987C23.9848 111.987 26.6108 111.314 29.005 109.988C29.5035 109.711 30.1144 109.697 30.6269 109.952C37.9642 113.597 42.521 120.986 42.521 129.234C42.521 130.212 41.7347 131.007 40.7657 131.007L40.7517 131ZM29.8546 112.335L30.0933 112.463C36.2299 115.767 40.0495 122.192 40.0495 129.227C40.0495 129.617 40.3655 129.936 40.7517 129.936C41.1378 129.936 41.4538 129.617 41.4538 129.227C41.4538 121.384 37.1217 114.363 30.1495 110.895C29.9459 110.789 29.7001 110.796 29.5035 110.909C26.9478 112.328 24.1744 113.044 21.2605 113.044C18.3467 113.044 15.5241 112.307 13.0175 110.909C12.8209 110.796 12.5752 110.789 12.3715 110.895C5.39237 114.342 1.0532 121.362 1.0532 129.227C1.0532 129.617 1.36916 129.936 1.75533 129.936C2.1415 129.936 2.45746 129.617 2.45746 129.227C2.45746 122.178 6.27705 115.753 12.4207 112.463L12.6594 112.335L12.9052 112.463C15.475 113.774 18.3607 114.469 21.2605 114.469C24.1603 114.469 27.032 113.774 29.6159 112.463L29.8616 112.342L29.8546 112.335Z" fill="#4C86C6"/>
<path d="M73.2673 109.84C67.6924 109.84 63.1496 105.259 63.1496 99.6211C63.1496 93.9834 67.6854 89.4023 73.2673 89.4023C78.8493 89.4023 83.3851 93.9834 83.3851 99.6211C83.3851 105.259 78.8493 109.84 73.2673 109.84ZM73.2673 91.8844C69.0405 91.8844 65.6071 95.3521 65.6071 99.6211C65.6071 103.89 69.0405 107.358 73.2673 107.358C77.4942 107.358 80.9276 103.89 80.9276 99.6211C80.9276 95.3521 77.4942 91.8844 73.2673 91.8844Z" fill="#4C86C6"/>
<path d="M73.2673 110.371C67.3975 110.371 62.623 105.549 62.623 99.6207C62.623 93.6923 67.3975 88.8701 73.2673 88.8701C79.1372 88.8701 83.9117 93.6923 83.9117 99.6207C83.9117 105.549 79.1372 110.371 73.2673 110.371ZM73.2673 89.9338C67.9803 89.9338 63.6762 94.2809 63.6762 99.6207C63.6762 104.961 67.9803 109.308 73.2673 109.308C78.5544 109.308 82.8585 104.961 82.8585 99.6207C82.8585 94.2809 78.5544 89.9338 73.2673 89.9338ZM73.2673 107.889C68.7526 107.889 65.0805 104.181 65.0805 99.6207C65.0805 95.0609 68.7526 91.3521 73.2673 91.3521C77.782 91.3521 81.4542 95.0609 81.4542 99.6207C81.4542 104.181 77.782 107.889 73.2673 107.889ZM73.2673 92.4158C69.3354 92.4158 66.1337 95.6495 66.1337 99.6207C66.1337 103.592 69.3354 106.826 73.2673 106.826C77.1993 106.826 80.401 103.592 80.401 99.6207C80.401 95.6495 77.1993 92.4158 73.2673 92.4158Z" fill="#4C86C6"/>
<path d="M92.7655 130.468C92.0845 130.468 91.5368 129.914 91.5368 129.227C91.5368 122.341 87.8436 116.157 81.8614 112.93C79.2074 114.285 76.2514 114.994 73.2744 114.994C70.2973 114.994 67.3273 114.285 64.6803 112.93C58.6911 116.136 54.9979 122.327 54.9979 129.227C54.9979 129.914 54.4502 130.468 53.7692 130.468C53.0881 130.468 52.5405 129.914 52.5405 129.227C52.5405 121.164 56.992 113.959 64.1537 110.42C64.5118 110.243 64.9331 110.25 65.2841 110.448C67.7135 111.803 70.4729 112.512 73.2744 112.512C76.0759 112.512 78.7931 111.817 81.2646 110.448C81.6157 110.257 82.037 110.243 82.3951 110.42C89.5498 113.973 93.9942 121.178 93.9942 129.227C93.9942 129.914 93.4466 130.468 92.7655 130.468Z" fill="#4C86C6"/>
<path d="M92.7655 131C91.7966 131 91.0102 130.205 91.0102 129.227C91.0102 122.681 87.5066 116.689 81.8544 113.533C79.1933 114.838 76.2374 115.526 73.2744 115.526C70.3114 115.526 67.3414 114.838 64.6943 113.533C59.0352 116.675 55.5245 122.667 55.5245 129.227C55.5245 130.205 54.7381 131 53.7692 131C52.8002 131 52.0139 130.205 52.0139 129.227C52.0139 120.958 56.5777 113.569 63.922 109.945C64.4345 109.69 65.0384 109.704 65.5439 109.988C67.889 111.292 70.5642 111.987 73.2814 111.987C75.9986 111.987 78.6246 111.314 81.0189 109.988C81.5174 109.711 82.1282 109.697 82.6408 109.952C89.9781 113.597 94.5349 120.986 94.5349 129.234C94.5349 130.212 93.7485 131.007 92.7796 131.007L92.7655 131ZM81.8685 112.335L82.1072 112.463C88.2438 115.767 92.0634 122.192 92.0634 129.227C92.0634 129.617 92.3793 129.936 92.7655 129.936C93.1517 129.936 93.4677 129.617 93.4677 129.227C93.4677 121.384 89.1355 114.363 82.1633 110.895C81.9597 110.789 81.714 110.796 81.5174 110.909C78.9616 112.328 76.1882 113.044 73.2744 113.044C70.3605 113.044 67.538 112.307 65.0314 110.909C64.8277 110.796 64.589 110.789 64.3854 110.895C57.4062 114.342 53.0671 121.369 53.0671 129.227C53.0671 129.617 53.383 129.936 53.7692 129.936C54.1554 129.936 54.4713 129.617 54.4713 129.227C54.4713 122.178 58.2909 115.753 64.4345 112.463L64.6733 112.335L64.919 112.463C67.4888 113.774 70.3746 114.469 73.2744 114.469C76.1742 114.469 79.0459 113.774 81.6297 112.463L81.8755 112.342L81.8685 112.335Z" fill="#4C86C6"/>
<path d="M122.747 109.84C117.172 109.84 112.629 105.259 112.629 99.6211C112.629 93.9834 117.165 89.4023 122.747 89.4023C128.328 89.4023 132.864 93.9834 132.864 99.6211C132.864 105.259 128.328 109.84 122.747 109.84ZM122.747 91.8844C118.52 91.8844 115.086 95.3521 115.086 99.6211C115.086 103.89 118.52 107.358 122.747 107.358C126.973 107.358 130.407 103.89 130.407 99.6211C130.407 95.3521 126.973 91.8844 122.747 91.8844Z" fill="#4C86C6"/>
<path d="M122.747 110.371C116.877 110.371 112.102 105.549 112.102 99.6207C112.102 93.6923 116.877 88.8701 122.747 88.8701C128.616 88.8701 133.391 93.6923 133.391 99.6207C133.391 105.549 128.616 110.371 122.747 110.371ZM122.747 89.9338C117.459 89.9338 113.155 94.2809 113.155 99.6207C113.155 104.961 117.459 109.308 122.747 109.308C128.034 109.308 132.338 104.961 132.338 99.6207C132.338 94.2809 128.034 89.9338 122.747 89.9338ZM122.747 107.889C118.232 107.889 114.56 104.181 114.56 99.6207C114.56 95.0609 118.232 91.3521 122.747 91.3521C127.261 91.3521 130.933 95.0609 130.933 99.6207C130.933 104.181 127.261 107.889 122.747 107.889ZM122.747 92.4158C118.815 92.4158 115.613 95.6495 115.613 99.6207C115.613 103.592 118.815 106.826 122.747 106.826C126.678 106.826 129.88 103.592 129.88 99.6207C129.88 95.6495 126.678 92.4158 122.747 92.4158Z" fill="#4C86C6"/>
<path d="M142.245 130.468C141.564 130.468 141.016 129.914 141.016 129.227C141.016 122.341 137.323 116.157 131.341 112.93C128.687 114.285 125.731 114.994 122.754 114.994C119.776 114.994 116.806 114.285 114.159 112.93C108.17 116.136 104.477 122.327 104.477 129.227C104.477 129.914 103.929 130.468 103.248 130.468C102.567 130.468 102.02 129.914 102.02 129.227C102.02 121.164 106.471 113.959 113.633 110.42C113.991 110.243 114.412 110.25 114.763 110.448C117.193 111.803 119.952 112.512 122.754 112.512C125.555 112.512 128.272 111.817 130.744 110.448C131.095 110.257 131.516 110.243 131.874 110.42C139.029 113.973 143.473 121.178 143.473 129.227C143.473 129.914 142.926 130.468 142.245 130.468Z" fill="#4C86C6"/>
<path d="M142.245 131C141.276 131 140.489 130.205 140.489 129.227C140.489 122.681 136.986 116.689 131.334 113.533C128.672 114.838 125.717 115.526 122.754 115.526C119.791 115.526 116.821 114.838 114.173 113.533C108.514 116.675 105.004 122.667 105.004 129.227C105.004 130.205 104.217 131 103.248 131C102.279 131 101.493 130.205 101.493 129.227C101.493 120.958 106.057 113.569 113.401 109.945C113.914 109.69 114.518 109.704 115.023 109.988C117.368 111.292 120.043 111.987 122.761 111.987C125.478 111.987 128.104 111.314 130.498 109.988C130.997 109.711 131.607 109.697 132.12 109.952C139.45 113.597 144.007 120.986 144.007 129.234C144.007 130.212 143.221 131.007 142.252 131.007L142.245 131ZM131.348 112.335L131.586 112.463C137.723 115.767 141.543 122.192 141.543 129.227C141.543 129.617 141.859 129.936 142.245 129.936C142.631 129.936 142.947 129.617 142.947 129.227C142.947 121.384 138.615 114.363 131.643 110.895C131.439 110.789 131.193 110.796 130.997 110.909C128.441 112.328 125.667 113.044 122.754 113.044C119.84 113.044 117.017 112.307 114.511 110.909C114.307 110.796 114.068 110.789 113.865 110.895C106.885 114.342 102.546 121.362 102.546 129.227C102.546 129.617 102.862 129.936 103.248 129.936C103.635 129.936 103.95 129.617 103.95 129.227C103.95 122.178 107.77 115.753 113.914 112.463L114.152 112.335L114.398 112.463C116.968 113.774 119.854 114.469 122.754 114.469C125.653 114.469 128.532 113.774 131.109 112.463L131.355 112.342L131.348 112.335Z" fill="#4C86C6"/>
<path d="M84.6068 65.6455H15.3837C12.4418 65.6455 10.0475 63.2274 10.0475 60.2561V8.60916C10.0475 7.9213 10.5952 7.36816 11.2762 7.36816H88.7072C89.3883 7.36816 89.9359 7.9213 89.9359 8.60916V60.2631C89.9359 63.2345 87.5417 65.6526 84.5997 65.6526L84.6068 65.6455ZM12.505 9.85016V60.2631C12.505 61.8658 13.7969 63.1706 15.3837 63.1706H84.6068C86.1936 63.1706 87.4855 61.8658 87.4855 60.2631V9.85016H12.505Z" fill="#4C86C6"/>
<path d="M84.6068 66.177H15.3837C12.1539 66.177 9.5209 63.5248 9.5209 60.2557V8.6088C9.5209 7.63018 10.3073 6.83594 11.2762 6.83594H88.7072C89.6761 6.83594 90.4625 7.63018 90.4625 8.6088V60.2628C90.4625 63.5248 87.8366 66.1841 84.5997 66.1841L84.6068 66.177ZM11.2762 7.89965C10.8901 7.89965 10.5741 8.21877 10.5741 8.6088V60.2628C10.5741 62.9433 12.7296 65.1204 15.3837 65.1204H84.6068C87.2608 65.1204 89.4164 62.9433 89.4164 60.2628V8.6088C89.4164 8.21877 89.1004 7.89965 88.7142 7.89965H11.2762ZM84.6068 63.695H15.3837C13.509 63.695 11.9784 62.1562 11.9784 60.2557V9.31794H88.0051V60.2628C88.0051 62.1562 86.4815 63.7021 84.5997 63.7021L84.6068 63.695ZM13.0316 10.3817V60.2628C13.0316 61.5747 14.0847 62.6384 15.3837 62.6384H84.6068C85.9057 62.6384 86.9589 61.5747 86.9589 60.2628V10.3817H13.0316Z" fill="#4C86C6"/>
<path d="M78.2946 55.3209H31.4976C30.8165 55.3209 30.2689 54.7677 30.2689 54.0799C30.2689 53.392 30.8165 52.8389 31.4976 52.8389H78.2946C78.9757 52.8389 79.5233 53.392 79.5233 54.0799C79.5233 54.7677 78.9757 55.3209 78.2946 55.3209Z" fill="#4C86C6"/>
<path d="M78.2946 55.8524H31.4976C30.5287 55.8524 29.7423 55.0581 29.7423 54.0795C29.7423 53.1009 30.5287 52.3066 31.4976 52.3066H78.2946C79.2635 52.3066 80.0499 53.1009 80.0499 54.0795C80.0499 55.0581 79.2635 55.8524 78.2946 55.8524ZM31.4976 53.3704C31.1114 53.3704 30.7955 53.6895 30.7955 54.0795C30.7955 54.4695 31.1114 54.7886 31.4976 54.7886H78.2946C78.6808 54.7886 78.9967 54.4695 78.9967 54.0795C78.9967 53.6895 78.6808 53.3704 78.2946 53.3704H31.4976Z" fill="#4C86C6"/>
<path d="M71.168 55.3206H62.9741C62.293 55.3206 61.7454 54.7674 61.7454 54.0796V25.8982C61.7454 25.2104 62.293 24.6572 62.9741 24.6572H71.168C71.849 24.6572 72.3967 25.2104 72.3967 25.8982V54.0796C72.3967 54.7674 71.849 55.3206 71.168 55.3206ZM64.2028 52.8386H69.9392V27.1392H64.2028V52.8386Z" fill="#4C86C6"/>
<path d="M71.168 55.8521H62.9741C62.0052 55.8521 61.2188 55.0578 61.2188 54.0792V25.8979C61.2188 24.9192 62.0052 24.125 62.9741 24.125H71.168C72.1369 24.125 72.9233 24.9192 72.9233 25.8979V54.0792C72.9233 55.0578 72.1369 55.8521 71.168 55.8521ZM62.9741 25.1887C62.5879 25.1887 62.272 25.5078 62.272 25.8979V54.0792C62.272 54.4692 62.5879 54.7883 62.9741 54.7883H71.168C71.5541 54.7883 71.8701 54.4692 71.8701 54.0792V25.8979C71.8701 25.5078 71.5541 25.1887 71.168 25.1887H62.9741ZM70.4658 53.3701H63.6762V26.607H70.4658V53.3701ZM64.7294 52.3063H69.4126V27.6707H64.7294V52.3063Z" fill="#4C86C6"/>
<path d="M62.9741 55.3207H54.7802C54.0992 55.3207 53.5515 54.7675 53.5515 54.0797V31.0183C53.5515 30.3305 54.0992 29.7773 54.7802 29.7773H62.9741C63.6552 29.7773 64.2028 30.3305 64.2028 31.0183V54.0797C64.2028 54.7675 63.6552 55.3207 62.9741 55.3207ZM56.002 52.8387H61.7384V32.2593H56.002V52.8387Z" fill="#4C86C6"/>
<path d="M62.9741 55.8522H54.7802C53.8113 55.8522 53.0249 55.0579 53.0249 54.0793V31.018C53.0249 30.0394 53.8113 29.2451 54.7802 29.2451H62.9741C63.9431 29.2451 64.7294 30.0394 64.7294 31.018V54.0793C64.7294 55.0579 63.9431 55.8522 62.9741 55.8522ZM54.7732 30.3088C54.3871 30.3088 54.0711 30.6279 54.0711 31.018V54.0793C54.0711 54.4693 54.3871 54.7885 54.7732 54.7885H62.9671C63.3533 54.7885 63.6692 54.4693 63.6692 54.0793V31.018C63.6692 30.6279 63.3533 30.3088 62.9671 30.3088H54.7732ZM62.272 53.3702H55.4824V31.7271H62.272V53.3702ZM56.5286 52.3065H61.2118V32.7908H56.5286V52.3065Z" fill="#4C86C6"/>
<path d="M54.7732 55.3211H46.5794C45.8983 55.3211 45.3506 54.7679 45.3506 54.0801V35.9685C45.3506 35.2807 45.8983 34.7275 46.5794 34.7275H54.7732C55.4543 34.7275 56.002 35.2807 56.002 35.9685V54.0801C56.002 54.7679 55.4543 55.3211 54.7732 55.3211ZM47.8081 52.8391H53.5445V37.2095H47.8081V52.8391Z" fill="#4C86C6"/>
<path d="M54.7732 55.8525H46.5794C45.6104 55.8525 44.824 55.0583 44.824 54.0797V35.9682C44.824 34.9896 45.6104 34.1953 46.5794 34.1953H54.7732C55.7422 34.1953 56.5286 34.9896 56.5286 35.9682V54.0797C56.5286 55.0583 55.7422 55.8525 54.7732 55.8525ZM46.5794 35.259C46.1932 35.259 45.8772 35.5781 45.8772 35.9682V54.0797C45.8772 54.4697 46.1932 54.7888 46.5794 54.7888H54.7732C55.1594 54.7888 55.4754 54.4697 55.4754 54.0797V35.9682C55.4754 35.5781 55.1594 35.259 54.7732 35.259H46.5794ZM54.0711 53.3705H47.2815V36.6773H54.0711V53.3705ZM48.3347 52.3068H53.0179V37.741H48.3347V52.3068Z" fill="#4C86C6"/>
<path d="M46.5793 55.3204H38.3855C37.7044 55.3204 37.1568 54.7673 37.1568 54.0794V40.3504C37.1568 39.6625 37.7044 39.1094 38.3855 39.1094H46.5793C47.2604 39.1094 47.8081 39.6625 47.8081 40.3504V54.0794C47.8081 54.7673 47.2604 55.3204 46.5793 55.3204ZM39.6142 52.8384H45.3506V41.5914H39.6142V52.8384Z" fill="#4C86C6"/>
<path d="M46.5793 55.8519H38.3855C37.4165 55.8519 36.6302 55.0576 36.6302 54.079V40.35C36.6302 39.3714 37.4165 38.5771 38.3855 38.5771H46.5793C47.5483 38.5771 48.3347 39.3714 48.3347 40.35V54.079C48.3347 55.0576 47.5483 55.8519 46.5793 55.8519ZM38.3855 39.6409C37.9993 39.6409 37.6834 39.96 37.6834 40.35V54.079C37.6834 54.469 37.9993 54.7882 38.3855 54.7882H46.5793C46.9655 54.7882 47.2815 54.469 47.2815 54.079V40.35C47.2815 39.96 46.9655 39.6409 46.5793 39.6409H38.3855ZM45.8772 53.3699H39.0876V41.0591H45.8772V53.3699ZM40.1408 52.3062H44.824V42.1229H40.1408V52.3062Z" fill="#4C86C6"/>
<path d="M96.8168 9.85037H2.66107C1.98 9.85037 1.43234 9.29723 1.43234 8.60937V1.77323C1.43234 1.08536 1.98 0.532227 2.66107 0.532227H96.8168C97.4979 0.532227 98.0455 1.08536 98.0455 1.77323V8.60937C98.0455 9.29723 97.4979 9.85037 96.8168 9.85037ZM3.8898 7.36837H95.5881V3.01423H3.8898V7.36837Z" fill="#4C86C6"/>
<path d="M96.8168 10.3819H2.66107C1.69213 10.3819 0.905746 9.58762 0.905746 8.609V1.77286C0.905746 0.79424 1.69213 0 2.66107 0H96.8168C97.7858 0 98.5721 0.79424 98.5721 1.77286V8.609C98.5721 9.58762 97.7858 10.3819 96.8168 10.3819ZM2.66107 1.06371C2.2749 1.06371 1.95894 1.38283 1.95894 1.77286V8.609C1.95894 8.99903 2.2749 9.31814 2.66107 9.31814H96.8168C97.203 9.31814 97.519 8.99903 97.519 8.609V1.77286C97.519 1.38283 97.203 1.06371 96.8168 1.06371H2.66107ZM96.1147 7.89985H3.3632V2.482H96.1147V7.89985ZM4.4164 6.83614H95.0615V3.54572H4.4164V6.83614Z" fill="#4C86C6"/>
</g>
<defs>
<clipPath id="clip0_148_2">
<rect width="144" height="131" fill="white"/>
</clipPath>
</defs>
</svg>
