<svg width="98" height="106" viewBox="0 0 98 106" fill="none" xmlns="http://www.w3.org/2000/svg">
<g clip-path="url(#clip0_526_697)">
<path d="M30.1098 59.2549H8.02792V80.2084H30.1098V59.2549Z" fill="#FEC100"/>
<path d="M30.8759 80.9824H7.2619V58.501H30.8759V80.9824ZM8.79395 79.4545H29.3438V60.0289H8.79395V79.4545Z" fill="black"/>
<path d="M45.89 74.9922H27.3318V95.9457H45.89V74.9922Z" fill="#FDFFF3"/>
<path d="M46.6458 96.71H26.5555V74.2285H46.6458V96.71ZM28.0978 95.182H45.1239V75.7565H28.0978V95.182Z" fill="black"/>
<path d="M77.5318 27.7068C80.8309 27.7781 82.5059 30.5284 82.5059 32.5657C82.5059 34.603 80.0138 37.5265 80.0138 37.5265C78.5532 40.2055 81.6582 40.2055 81.6582 40.2055H97.2238V6.45789C97.2238 3.31028 94.6703 0.763672 91.5143 0.763672H57.8093V16.41C57.8093 16.41 57.8706 18.2334 56.2262 18.0093C55.8993 17.9686 55.6031 17.8259 55.3376 17.6324C54.1936 16.7971 49.4239 13.894 46.7581 17.5611C45.4508 19.3539 45.4508 21.8292 46.7683 23.6118C49.4341 27.2076 54.1936 24.2027 55.3376 23.3674C55.6031 23.1738 55.8993 23.0312 56.2262 22.9905C57.8706 22.7562 57.8093 24.5897 57.8093 24.5897V40.2361H73.3749C73.3749 40.2361 76.49 40.2361 75.0193 37.5571C75.0193 37.5571 72.5272 34.6437 72.5272 32.5963C72.5272 30.5488 74.2124 27.666 77.5012 27.7373L77.5318 27.7068Z" fill="#12B512"/>
<path d="M97.234 40.98H81.6684C81.4845 40.98 79.8197 40.9495 79.1354 39.7984C78.7166 39.0853 78.7881 38.2093 79.3499 37.1703C79.3703 37.1295 79.4009 37.0786 79.4418 37.0379C80.0853 36.2841 81.7501 34.0125 81.7501 32.566C81.7501 30.9464 80.4121 28.522 77.5216 28.4711C76.4083 28.4303 75.4074 28.8276 74.6414 29.5814C73.8447 30.3658 73.3238 31.5372 73.3238 32.5762C73.3238 34.0227 74.9887 36.2943 75.6321 37.048C75.6628 37.0888 75.6934 37.1295 75.724 37.1805C76.2858 38.2195 76.3573 39.1057 75.9385 39.8086C75.2542 40.9596 73.5894 40.9902 73.4055 40.9902H57.8399C57.4212 40.9902 57.0739 40.6439 57.0739 40.2262V24.5799C57.0739 24.3863 57.0228 23.989 56.839 23.8159C56.7471 23.7344 56.5836 23.7038 56.3589 23.7344C56.1853 23.7548 56.0015 23.8363 55.8176 23.9687C52.9272 26.0976 48.6681 27.4015 46.1861 24.0502C44.6745 22.0129 44.6745 19.1607 46.1657 17.0928C47.0135 15.9316 48.1165 15.2389 49.4545 15.0352C52.4267 14.5768 55.4806 16.7567 55.8176 17.0012C56.0015 17.1336 56.1751 17.2151 56.3589 17.2354C56.5836 17.266 56.7369 17.2354 56.839 17.1539C57.0228 16.991 57.0841 16.5835 57.0739 16.4103V0.763982C57.0739 0.346339 57.4212 0 57.8399 0H91.545C95.1198 0 98.0204 2.89295 98.0204 6.4582V40.216C98.0204 40.6337 97.6732 40.98 97.2544 40.98H97.234ZM80.6572 37.9648C80.4121 38.4436 80.3304 38.8205 80.4427 39.0242C80.6266 39.3298 81.3415 39.4622 81.6582 39.4622H96.4577V6.4582C96.4577 3.73842 94.2414 1.52796 91.5143 1.52796H58.5753V16.4103C58.5753 16.5122 58.5957 17.6225 57.8297 18.305C57.5233 18.58 56.982 18.8856 56.1138 18.7634C55.6848 18.7023 55.2661 18.5291 54.878 18.2439C53.8362 17.4799 51.5687 16.2575 49.6588 16.553C48.7293 16.6956 47.9837 17.1743 47.3811 17.9994C46.2679 19.5274 46.2781 21.6462 47.3914 23.1436C49.7814 26.3625 54.3673 23.1232 54.8882 22.7361C55.2763 22.4509 55.6951 22.2777 56.124 22.2166C56.982 22.0944 57.5335 22.4 57.8399 22.675C58.6059 23.3575 58.5855 24.4678 58.5855 24.59V39.452H73.3953C73.7834 39.452 74.4473 39.3094 74.6107 39.014C74.7231 38.8205 74.6516 38.4334 74.3963 37.9648C73.9469 37.4351 71.7816 34.7255 71.7816 32.566C71.7816 31.1195 72.4659 29.5508 73.5587 28.4813C74.621 27.4422 75.9896 26.9126 77.5421 26.9431C81.076 27.0144 83.2719 29.9175 83.2719 32.566C83.2719 34.7154 81.1066 37.4249 80.6572 37.9648Z" fill="#2E2138"/>
<path d="M0.766022 65.7528V32.8914C0.766022 29.3363 3.65649 26.4434 7.23126 26.4434H40.1805V41.9675C40.1805 41.9675 40.1805 45.0743 37.5045 43.6075C37.5045 43.6075 34.5936 41.1322 32.5407 41.1322C30.4878 41.1322 27.7505 42.8028 27.679 46.093C27.6075 49.3832 30.498 51.0538 32.5407 51.0538C34.5834 51.0538 37.5045 48.5683 37.5045 48.5683C40.1805 47.1116 40.1805 50.2083 40.1805 50.2083V65.7324" fill="#FEC100"/>
<path d="M40.9465 65.7531H39.4145V50.229C39.4145 49.8419 39.2715 49.1798 38.9753 49.0066C38.7812 48.8946 38.4033 48.9659 37.9233 49.2205C37.3922 49.6687 34.6856 51.8283 32.5305 51.8283C31.0904 51.8283 29.5277 51.156 28.4552 50.066C27.4134 49.0066 26.8721 47.6315 26.9028 46.0831C26.9743 42.5586 29.8749 40.3685 32.5305 40.3685C34.6856 40.3685 37.3922 42.528 37.9233 42.9762C38.3931 43.2207 38.771 43.3022 38.9753 43.1902C39.2715 43.017 39.4043 42.3651 39.4145 41.9678V27.2077H7.23127C4.09567 27.2077 1.53205 29.7644 1.53205 32.8917V65.7531H0V32.8917C0 28.919 3.23773 25.6797 7.23127 25.6797H40.9465V41.9678C40.9465 42.1511 40.9159 43.8217 39.7617 44.5042C39.057 44.9219 38.1684 44.8506 37.1368 44.2801L37.0041 44.1884C36.2483 43.5467 33.9808 41.8965 32.5407 41.8965C30.9269 41.8965 28.5063 43.2309 28.445 46.1137C28.4246 47.2342 28.8025 48.2324 29.5583 48.9964C30.3345 49.791 31.5091 50.3003 32.5407 50.3003C33.9808 50.3003 36.2483 48.6399 37.0041 47.9982L37.1368 47.9065C38.1684 47.3462 39.057 47.2749 39.7617 47.6926C40.9159 48.3751 40.9465 50.0354 40.9465 50.2188V65.7429V65.7531Z" fill="black"/>
<path d="M40.1805 65.6918H40.1907L55.7768 65.7529C55.7768 65.7529 57.605 65.8039 57.3803 64.1638C57.3292 63.8379 57.1965 63.5425 57.0024 63.2776C56.1649 62.1469 53.1518 57.3899 56.7573 54.7414C58.5447 53.4273 61.0368 53.4273 62.8344 54.7414C66.4909 57.4001 63.5902 62.1571 62.7527 63.2878C62.5586 63.5527 62.4156 63.8481 62.3646 64.174C62.1399 65.814 63.9681 65.7631 63.9681 65.7631H79.595V99.1746C79.595 102.526 76.868 105.246 73.5077 105.246H40.1805" fill="#FDFFF3"/>
<path d="M73.5077 106H40.1805V104.472H73.5077C76.4492 104.472 78.829 102.088 78.829 99.1645V66.5068H63.9681C63.8762 66.517 62.7527 66.5272 62.0684 65.7632C61.7926 65.4576 61.4964 64.9177 61.6088 64.0519C61.67 63.6139 61.8539 63.186 62.1399 62.8091C62.9059 61.7803 64.1213 59.5291 63.8251 57.6141C63.6821 56.6871 63.2123 55.9435 62.385 55.3425C60.8529 54.2322 58.7285 54.2322 57.2169 55.3425C55.9402 56.2898 55.5214 57.6141 55.9606 59.3865C56.3692 61.0673 57.4212 62.5341 57.6254 62.8091C57.9114 63.186 58.085 63.6037 58.1463 64.0315C58.2689 64.8974 57.9625 65.4372 57.6867 65.7428C57.0024 66.5068 55.8891 66.4864 55.7665 66.4864L40.1907 66.4253V64.8974L55.787 64.9585C55.9708 64.9585 56.3794 64.9075 56.5428 64.714C56.5734 64.6834 56.6653 64.5714 56.6245 64.2352C56.5938 64.0621 56.5224 63.8787 56.3896 63.7056C56.0627 63.2573 54.9392 61.6479 54.4694 59.7328C53.8872 57.3594 54.5205 55.4036 56.3079 54.0997C58.3506 52.5922 61.2206 52.5922 63.294 54.0896C64.4482 54.935 65.1427 56.0352 65.347 57.3696C65.8066 60.3338 63.6208 63.3796 63.3757 63.7157C63.2429 63.8889 63.1612 64.0723 63.1306 64.2556C63.0795 64.5918 63.1817 64.6936 63.2123 64.7242C63.3859 64.9177 63.8047 64.9687 63.9477 64.9585H80.3712V99.134C80.3712 102.903 77.2969 105.969 73.5179 105.969L73.5077 106Z" fill="black"/>
<path d="M40.1805 105.206V105.237H7.70109C3.87097 105.237 0.766022 102.14 0.766022 98.3199V65.7845H16.3316C16.3316 65.7845 19.4366 65.7845 17.976 68.4635C17.976 68.4635 15.4839 71.3768 15.4839 73.4243C15.4839 75.4718 17.1691 78.3545 20.4579 78.2832C23.757 78.3545 25.432 75.4616 25.432 73.4243C25.432 71.387 22.9501 68.4635 22.9501 68.4635C21.4793 65.7845 24.5945 65.7845 24.5945 65.7845L40.1601 65.7539V81.4003C40.1601 81.4003 40.2214 83.2236 38.577 82.9995C38.2501 82.9588 37.9539 82.8162 37.6884 82.6226C36.5444 81.7873 31.7747 78.8842 29.1089 82.5513C27.8016 84.3441 27.8016 86.8194 29.1191 88.6021C31.7849 92.1979 36.5444 89.1929 37.6884 88.3576C37.9539 88.164 38.2501 88.0214 38.577 87.9807C40.2214 87.7464 40.1601 89.58 40.1601 89.58V105.226L40.1805 105.206Z" fill="#FF6400"/>
<path d="M40.9465 106H7.70109C3.45221 106 0 102.557 0 98.3198V65.0204H16.3316C16.5155 65.0204 18.1803 65.0509 18.8646 66.202C19.2834 66.915 19.2119 67.7911 18.6501 68.8301L18.5582 68.9625C17.9147 69.7163 16.2499 71.9879 16.2499 73.4344C16.2499 74.4734 16.7708 75.6448 17.5675 76.4292C18.3335 77.1728 19.3344 77.5701 20.4477 77.5395C21.5712 77.5802 22.5926 77.183 23.3586 76.4394C24.1553 75.655 24.6762 74.4836 24.6762 73.4445C24.6762 71.9981 23.0114 69.7265 22.3679 68.9727L22.276 68.8403C21.7142 67.8013 21.6325 66.915 22.0615 66.2122C22.7458 65.0611 24.4106 65.0306 24.6047 65.0306L40.9363 65V81.4103C40.9363 81.5122 40.9567 82.6225 40.1907 83.305C39.8843 83.58 39.343 83.8856 38.4748 83.7634C38.0459 83.7023 37.6271 83.5291 37.239 83.2439C36.1972 82.4799 33.9298 81.2677 32.0198 81.5529C31.0904 81.6956 30.3448 82.1743 29.7422 82.9994C28.6289 84.5274 28.6391 86.6462 29.7422 88.1436C30.692 89.4169 32.0198 89.8243 33.797 89.3965C35.4822 88.989 36.953 87.9398 37.2288 87.7361C37.6169 87.4509 38.0356 87.2777 38.4646 87.2166C39.3226 87.0944 39.8741 87.4 40.1805 87.675C40.9465 88.3575 40.9261 89.4678 40.9261 89.59V106.011L40.9465 106ZM1.53205 66.5483V98.3198C1.53205 101.712 4.29995 104.472 7.70109 104.472H39.4145V89.5595C39.4145 89.3659 39.3634 88.9585 39.1694 88.7955C39.0774 88.714 38.914 88.6936 38.6893 88.714C38.5157 88.7344 38.3318 88.8159 38.148 88.9483C37.6986 89.2743 36.0951 90.3948 34.1647 90.8633C31.7849 91.444 29.8239 90.8124 28.5063 89.0298C26.9947 86.9925 26.9947 84.1403 28.4859 82.0725C29.3336 80.9112 30.4367 80.2185 31.7747 80.0148C34.7468 79.5564 37.8007 81.7363 38.1378 81.9808C38.3216 82.1132 38.4953 82.1947 38.6791 82.2151C38.9038 82.2456 39.057 82.2151 39.1591 82.1336C39.343 81.9706 39.4043 81.5631 39.3941 81.39V66.4872L24.5945 66.5178C24.2064 66.5178 23.5425 66.6604 23.3688 66.9558C23.2565 67.1493 23.328 67.5364 23.5833 68.0152C24.0327 68.5449 26.198 71.2545 26.198 73.414C26.198 74.8605 25.5137 76.4292 24.4208 77.4988C23.3586 78.5378 21.9798 79.0471 20.4375 79.0369C18.9361 79.0471 17.5471 78.5378 16.4848 77.4886C15.392 76.419 14.7077 74.8503 14.7077 73.4038C14.7077 71.2545 16.873 68.5449 17.3224 68.005C17.5675 67.5262 17.6492 67.1493 17.5368 66.9456C17.3632 66.6502 16.7095 66.5178 16.3112 66.5076H1.53205V66.5483Z" fill="black"/>
</g>
<defs>
<clipPath id="clip0_526_697">
<rect width="98" height="106" fill="white"/>
</clipPath>
</defs>
</svg>
