<svg width="128" height="140" viewBox="0 0 128 140" fill="none" xmlns="http://www.w3.org/2000/svg">
<g clip-path="url(#clip0_148_179)">
<path d="M126.041 54.734H106.018C105.751 54.734 103.409 54.6866 102.422 53.0018C101.999 52.282 101.701 51.0323 102.696 49.1894C102.743 49.1024 102.798 49.0233 102.853 48.9521C103.965 47.6312 105.728 44.9498 105.728 43.3837C105.728 41.4301 104.122 38.5035 100.667 38.4323C99.2962 38.4007 98.1602 38.8515 97.2436 39.7611C96.2879 40.7103 95.6612 42.134 95.6612 43.3837C95.6612 44.9498 97.4238 47.6312 98.5363 48.9521C98.5989 49.0233 98.6538 49.1024 98.6929 49.1894C99.6879 51.0323 99.3902 52.282 98.9671 53.0018C97.98 54.6786 95.6377 54.734 95.3713 54.734H75.3476C74.5877 54.734 73.9766 54.1171 73.9766 53.3498V32.9747C73.9766 32.6741 73.8748 32.334 73.7964 32.2787C73.7964 32.2787 73.7181 32.2391 73.4909 32.2787C73.3342 32.3024 73.154 32.3815 72.9739 32.5159C69.1117 35.4029 63.4007 37.1351 60.0399 32.5476C58.0031 29.7634 57.9874 25.8481 60.0164 23.0323C61.168 21.4346 62.6721 20.4775 64.4975 20.1928C68.4771 19.5679 72.5273 22.4945 72.9739 22.8267C73.154 22.9611 73.3264 23.0402 73.4909 23.064C73.7181 23.0956 73.7964 23.064 73.7964 23.064C73.8904 22.9928 73.9766 22.5894 73.9766 22.4075V1.97695C73.9766 1.20972 74.5877 0.592773 75.3476 0.592773H118.701C123.503 0.592773 127.412 4.53967 127.412 9.38825V53.3498C127.412 54.1171 126.801 54.734 126.041 54.734ZM105.038 50.6368C104.725 51.2617 104.749 51.5464 104.78 51.5939C104.882 51.7679 105.524 51.9657 106.026 51.9657H124.671V9.38825C124.671 6.06622 121.991 3.36114 118.701 3.36114H76.7185V22.3521C76.7264 22.6052 76.7185 24.1238 75.6374 25.1125C75.1831 25.5238 74.3761 25.9826 73.1227 25.8007C72.5038 25.7137 71.9084 25.4606 71.3601 25.0493C70.0753 24.0922 67.2707 22.5657 64.9283 22.9295C63.8394 23.1035 62.962 23.6651 62.2491 24.6617C60.9173 26.5125 60.9251 29.0832 62.2569 30.9024C65.1007 34.786 70.7255 30.7679 71.3522 30.2933C71.9006 29.882 72.496 29.6289 73.1149 29.5419C74.3683 29.3679 75.1752 29.8188 75.6296 30.2301C76.7185 31.2109 76.7264 32.7374 76.7107 33.0301V51.9736H95.3713C95.8649 51.9736 96.5072 51.7758 96.6091 51.6018C96.6326 51.5544 96.6639 51.2617 96.3506 50.6447C95.7003 49.8538 92.9193 46.2945 92.9193 43.4075C92.9193 41.4222 93.8358 39.2786 95.3243 37.8075C96.7658 36.3758 98.6303 35.6481 100.722 35.6877C105.509 35.7826 108.47 39.769 108.47 43.4075C108.47 46.2945 105.689 49.8538 105.038 50.6447V50.6368Z" fill="#4C86C6"/>
<path d="M126.042 55.3277H106.018C105.72 55.3277 103.072 55.2723 101.921 53.3107C101.419 52.4565 101.059 51.0011 102.179 48.913C102.242 48.7944 102.32 48.6836 102.406 48.5808C103.511 47.2678 105.14 44.713 105.14 43.4C105.14 41.6836 103.715 39.1051 100.659 39.0418C99.4607 39.0102 98.4736 39.3898 97.6589 40.2045C96.805 41.0508 96.2566 42.3006 96.2566 43.4C96.2566 44.7209 97.8861 47.2757 98.9906 48.5808C99.0768 48.6836 99.1552 48.7943 99.2178 48.9209C100.346 51.009 99.9777 52.4644 99.4764 53.3186C98.3248 55.2802 95.6769 55.3356 95.3792 55.3356H75.3554C74.2743 55.3356 73.3969 54.4497 73.3969 53.3582V32.9831C73.3969 32.9831 73.3969 32.9593 73.3969 32.9514C73.3812 32.9593 73.3577 32.9751 73.3421 32.991C69.2606 36.0362 63.2049 37.8396 59.5855 32.896C57.3998 29.9062 57.3842 25.7062 59.5542 22.6847C60.7998 20.9525 62.4371 19.9164 64.4191 19.6079C68.6417 18.9435 72.872 22.0045 73.3421 22.3525C73.3656 22.3684 73.3812 22.3842 73.3969 22.3921V1.9774C73.3969 0.885876 74.2743 0 75.3554 0H118.709C123.84 0 128.008 4.21582 128.008 9.3887V53.3503C128.008 54.4418 127.13 55.3277 126.049 55.3277H126.042ZM100.534 37.8554C100.581 37.8554 100.636 37.8554 100.683 37.8554C104.521 37.9345 106.315 41.209 106.315 43.4C106.315 45.3379 104.138 48.3514 103.299 49.348C103.268 49.3876 103.237 49.435 103.205 49.4825C102.524 50.748 102.43 51.8633 102.923 52.7096C103.762 54.1333 105.924 54.1492 106.01 54.1492H126.034C126.465 54.1492 126.817 53.7932 126.817 53.3582V9.3887C126.817 4.86441 123.174 1.18644 118.693 1.18644H75.3397C74.9089 1.18644 74.5563 1.54237 74.5563 1.9774V22.3921C74.5563 22.3921 74.5563 23.2226 74.1333 23.5232L74.055 23.5706C73.8983 23.6497 73.6789 23.6734 73.4047 23.6339C73.1462 23.5944 72.8799 23.4836 72.6213 23.2859C72.1905 22.9695 68.3283 20.1774 64.5836 20.7627C62.9228 21.0237 61.544 21.9017 60.4865 23.365C58.6141 25.9751 58.622 29.5977 60.51 32.1763C63.6201 36.4158 68.9785 34.7469 72.6213 32.026C72.872 31.8362 73.1462 31.7175 73.4047 31.678C73.7259 31.6305 73.9688 31.6701 74.1333 31.7887C74.5563 32.0972 74.5563 32.9356 74.5563 32.9751V53.3424C74.5563 53.7774 74.9089 54.1333 75.3397 54.1333H95.3635C95.4575 54.1333 97.6197 54.1175 98.4501 52.6938C98.9436 51.8475 98.8496 50.7322 98.1681 49.4667C98.1446 49.4192 98.1132 49.3718 98.0741 49.3322C97.2358 48.3356 95.058 45.3299 95.058 43.3842C95.058 41.9842 95.7474 40.3944 96.8128 39.3424C97.8234 38.3458 99.0612 37.8396 100.51 37.8396L100.534 37.8554ZM125.258 52.5593H106.026C105.665 52.5593 104.584 52.4249 104.271 51.887C104.036 51.4836 104.271 50.835 104.514 50.3605L104.584 50.2497C105.133 49.5774 107.874 46.0972 107.874 43.3921C107.874 40.0384 105.133 36.3605 100.706 36.2655C98.787 36.226 97.0556 36.9062 95.7317 38.2192C94.3607 39.5797 93.5068 41.5571 93.5068 43.3921C93.5068 46.0972 96.2487 49.5853 96.7971 50.2497L96.8676 50.3605C97.1105 50.835 97.3455 51.4836 97.1105 51.887C96.805 52.417 95.7239 52.5514 95.3713 52.5593H76.1231V33.0226C76.1231 32.8486 76.1467 31.4881 75.2301 30.6655C74.8697 30.3333 74.2195 29.9774 73.1854 30.1198C72.6605 30.191 72.1591 30.4124 71.6891 30.7605C71.0075 31.2667 64.9518 35.5853 61.7712 31.2429C60.2828 29.2102 60.2828 26.3548 61.7556 24.2983C62.5625 23.1672 63.5652 22.5266 64.8187 22.3288C67.3491 21.9333 70.326 23.5469 71.6891 24.5593C72.1591 24.9153 72.6683 25.1288 73.1854 25.2C74.2195 25.3503 74.8619 24.9864 75.2301 24.6542C76.1623 23.8079 76.1231 22.4158 76.1231 22.3605V2.76836H118.693C122.313 2.76836 125.25 5.74237 125.25 9.3887V52.5593H125.258ZM105.399 51.2701C105.571 51.3175 105.806 51.3729 106.026 51.3729H124.075V9.3887C124.075 6.39096 121.662 3.9548 118.693 3.9548H77.2983V22.3525C77.2983 22.5345 77.3296 24.3616 76.0213 25.548C75.4729 26.0463 74.5093 26.5921 73.0287 26.3864C72.308 26.2836 71.6264 25.991 70.9919 25.5243C69.8638 24.678 67.161 23.1751 64.9988 23.5073C64.0588 23.6576 63.3302 24.1243 62.7035 25.0023C61.5205 26.6475 61.5284 28.9254 62.7035 30.5469C65.2104 33.9638 70.3965 30.2463 70.984 29.8113C71.6108 29.3367 72.3001 29.052 73.013 28.9492C74.4937 28.7435 75.4573 29.2893 76.0056 29.7876C77.2826 30.9503 77.2983 32.7062 77.2826 33.0463V51.3808H95.3557C95.5672 51.3808 95.8022 51.3333 95.9667 51.278C95.9354 51.1989 95.8962 51.0961 95.8335 50.9695C94.9483 49.8859 92.3161 46.3898 92.3161 43.4079C92.3161 41.2644 93.3031 38.9627 94.8935 37.3887C96.4524 35.8463 98.4658 35.0633 100.714 35.1028C105.853 35.2057 109.034 39.5006 109.034 43.4158C109.034 46.4057 106.394 49.8938 105.516 50.9774C105.454 51.104 105.415 51.2068 105.383 51.2859L105.399 51.2701Z" fill="#4C86C6"/>
<path d="M52.6524 139.399H10.8815C5.20963 139.399 0.587555 134.74 0.587555 129.006V86.6338C0.587555 85.8666 1.19861 85.2496 1.95851 85.2496H21.9823C22.2486 85.2496 24.5831 85.2971 25.5781 86.9739C26.0011 87.6937 26.2988 88.9434 25.3117 90.7863C25.2647 90.8733 25.2099 90.9524 25.155 91.0236C24.0426 92.3445 22.2799 95.0259 22.2799 96.592C22.2799 97.8417 22.8988 99.2575 23.8624 100.207C24.779 101.116 25.9228 101.567 27.2859 101.535C28.6882 101.567 29.8476 101.116 30.7642 100.207C31.7199 99.2575 32.3467 97.8338 32.3467 96.5841C32.3467 95.018 30.584 92.3366 29.4716 91.0157C29.4089 90.9445 29.3541 90.8654 29.3149 90.7863C28.32 88.9434 28.6177 87.6937 29.0407 86.9739C30.0278 85.2971 32.3702 85.2417 32.6365 85.2417L52.6524 85.2021C53.0128 85.2021 53.3653 85.3445 53.6238 85.6055C53.8824 85.8666 54.0234 86.2146 54.0234 86.5863V106.961C54.0312 107.215 54.0234 108.733 52.9423 109.722C52.4879 110.133 51.681 110.592 50.4276 110.41C49.8087 110.323 49.2133 110.07 48.6649 109.659C47.3801 108.702 44.5756 107.175 42.2332 107.531C41.1443 107.705 40.2668 108.267 39.554 109.263C38.2222 111.114 38.23 113.685 39.5618 115.504C40.6742 117.03 42.2567 117.513 44.3797 116.991C46.4792 116.477 48.3124 115.156 48.6571 114.895C49.2133 114.483 49.8008 114.23 50.4197 114.143C51.6732 113.961 52.4801 114.42 52.9345 114.832C54.0234 115.82 54.0312 117.339 54.0155 117.632V137.959V137.999C54.0155 138.766 53.4045 139.383 52.6446 139.383L52.6524 139.399ZM3.32946 88.0259V129.013C3.32946 133.213 6.71376 136.638 10.8815 136.638H51.2815V117.608C51.2815 117.307 51.1796 116.967 51.1013 116.912C51.0856 116.912 50.9916 116.88 50.7958 116.912C50.6391 116.935 50.4589 117.015 50.2787 117.149C49.6912 117.592 47.5603 119.079 45.0221 119.704C41.7945 120.495 39.1466 119.625 37.3526 117.173C35.3158 114.389 35.3001 110.473 37.3291 107.658C38.4807 106.06 39.9848 105.103 41.8102 104.818C45.782 104.193 49.84 107.12 50.2866 107.452C50.4667 107.586 50.6391 107.665 50.8036 107.689C50.9995 107.713 51.0935 107.689 51.1091 107.689C51.2031 107.618 51.2893 107.215 51.2893 107.033V88.0021L32.6365 88.0338C32.1351 88.0338 31.4928 88.2315 31.3909 88.4055C31.3674 88.453 31.3361 88.7377 31.6573 89.3626C32.2997 90.1536 35.0807 93.7129 35.0807 96.6078C35.0807 98.5931 34.1642 100.737 32.6757 102.208C31.2342 103.639 29.3697 104.367 27.278 104.328C25.2412 104.383 23.3767 103.639 21.9353 102.208C20.4546 100.745 19.5302 98.601 19.5302 96.6157C19.5302 93.7208 22.3113 90.1615 22.9615 89.3705C23.2749 88.7456 23.2514 88.4609 23.22 88.4134C23.1182 88.2394 22.4758 88.0417 21.9744 88.0417H3.32946V88.0259Z" fill="#4C86C6"/>
<path d="M52.6524 139.992H10.8814C4.88059 139.992 0 135.065 0 129.006V86.6341C0 85.5426 0.87741 84.6567 1.9585 84.6567H21.9823C22.2799 84.6567 24.9278 84.7121 26.0794 86.6737C26.5808 87.5279 26.9412 88.9833 25.8209 91.0714C25.7582 91.1901 25.6799 91.3008 25.5937 91.4036C24.4891 92.7166 22.8597 95.2714 22.8597 96.5923C22.8597 97.6918 23.408 98.9415 24.2619 99.7878C25.0767 100.595 26.0716 100.982 27.2624 100.951C28.5237 100.982 29.5264 100.602 30.3411 99.7878C31.1951 98.9415 31.7434 97.6918 31.7434 96.5923C31.7434 95.2714 30.114 92.7166 29.0094 91.4036C28.9232 91.3008 28.8449 91.1901 28.7822 91.0714C27.6541 88.9833 28.0144 87.5279 28.5237 86.6737C29.6753 84.7121 32.3232 84.6567 32.6287 84.6567L52.6446 84.6172C53.1695 84.6172 53.663 84.8228 54.0312 85.1946C54.3994 85.5663 54.6031 86.0646 54.6031 86.5946V106.97C54.6031 107.152 54.6344 108.979 53.3262 110.165C52.7778 110.664 51.8142 111.209 50.3336 111.004C49.6128 110.901 48.9313 110.616 48.3045 110.141C47.1764 109.303 44.4737 107.8 42.3115 108.125C41.3714 108.275 40.6429 108.741 40.0162 109.619C38.8332 111.265 38.8411 113.543 40.0162 115.164C40.9876 116.493 42.3272 116.888 44.223 116.43C46.2207 115.939 47.9599 114.682 48.2967 114.436C48.9313 113.962 49.6128 113.677 50.3336 113.574C51.8142 113.361 52.7778 113.914 53.3262 114.413C54.6031 115.575 54.6188 117.331 54.6031 117.671V137.975C54.6031 139.106 53.7257 139.992 52.6524 139.992ZM1.9585 85.8511C1.52763 85.8511 1.1751 86.207 1.1751 86.642V129.014C1.1751 134.416 5.53082 138.814 10.8814 138.814H52.6524C53.0833 138.814 53.4358 138.458 53.4358 138.023V117.656C53.4358 117.482 53.4515 116.121 52.5428 115.299C52.1824 114.966 51.5322 114.61 50.4981 114.753C49.9732 114.824 49.4718 115.045 49.0018 115.393C48.6414 115.662 46.7221 117.039 44.5129 117.584C42.1627 118.162 40.3374 117.584 39.0839 115.876C37.5954 113.843 37.5954 110.988 39.0682 108.931C39.8751 107.8 40.8779 107.16 42.1313 106.962C44.6696 106.574 47.6465 108.18 49.0018 109.192C49.4718 109.548 49.981 109.762 50.4981 109.833C51.5322 109.975 52.1824 109.619 52.5428 109.287C53.475 108.441 53.4358 107.049 53.4358 106.993V86.6025C53.4358 86.3889 53.3575 86.1912 53.2086 86.0409C53.0598 85.8906 52.8639 85.8115 52.6524 85.8115L32.6287 85.8511C32.5347 85.8511 30.3725 85.8669 29.5342 87.2906C29.0407 88.137 29.1347 89.2522 29.8163 90.5178C29.8398 90.5652 29.8711 90.6127 29.9103 90.6522C30.7485 91.6488 32.9185 94.6624 32.9185 96.6081C32.9185 98.0081 32.2291 99.598 31.1637 100.65C30.1218 101.678 28.8057 102.184 27.2624 102.145C25.7817 102.169 24.4813 101.678 23.4394 100.642C22.374 99.5901 21.6846 98.0002 21.6846 96.6002C21.6846 94.6545 23.8624 91.6409 24.7007 90.6443C24.7398 90.6048 24.7633 90.5573 24.7947 90.5098C25.4762 89.2443 25.5702 88.129 25.0767 87.2827C24.2384 85.859 22.0763 85.8432 21.9901 85.8432H1.9585V85.8511ZM51.869 137.224H10.8814C6.39256 137.224 2.74191 133.538 2.74191 129.006V87.4251H21.9744C22.3348 87.4251 23.4159 87.5596 23.7292 88.0974C23.9643 88.4929 23.7292 89.1494 23.4864 89.624L23.4159 89.7347C22.8675 90.407 20.1256 93.8872 20.1256 96.6002C20.1256 98.4353 20.9795 100.413 22.3505 101.773C23.6901 103.102 25.3979 103.774 27.2702 103.727C29.2287 103.758 30.9444 103.086 32.2683 101.781C33.6393 100.421 34.4932 98.4432 34.4932 96.6081C34.4932 93.8952 31.7513 90.4149 31.2029 89.7426L31.1324 89.6319C30.8895 89.1573 30.6545 88.5087 30.8817 88.1053C31.1872 87.5754 32.2683 87.4409 32.6208 87.433L51.8612 87.3935V107.017C51.8612 107.017 51.8612 107.848 51.4382 108.156L51.3676 108.204C51.211 108.291 50.9916 108.306 50.7096 108.275C50.4432 108.235 50.1847 108.117 49.9262 107.927C49.4953 107.61 45.6331 104.818 41.8885 105.404C40.2277 105.665 38.8489 106.543 37.7913 108.006C35.919 110.616 35.9268 114.239 37.8148 116.817C39.4599 119.056 41.8963 119.854 44.8732 119.119C47.3096 118.518 49.3543 117.086 49.9262 116.667C50.1847 116.477 50.4511 116.358 50.7096 116.319C50.9916 116.279 51.2188 116.303 51.3755 116.39C51.8612 116.738 51.8612 117.577 51.8612 117.616V137.232L51.869 137.224ZM3.91701 88.6194V129.014C3.91701 132.889 7.04278 136.045 10.8814 136.045H50.6939V117.608C50.6939 117.608 50.6939 117.584 50.6939 117.576C50.6783 117.584 50.6548 117.6 50.6391 117.616C50.028 118.075 47.8188 119.617 45.1709 120.274C41.6926 121.128 38.8332 120.179 36.8826 117.521C34.6969 114.531 34.6812 110.331 36.8512 107.31C38.0968 105.578 39.7341 104.541 41.7161 104.233C45.9387 103.577 50.169 106.622 50.6312 106.978C50.6548 106.993 50.6704 107.009 50.6861 107.017V88.5957L32.6287 88.6274C32.4172 88.6274 32.1821 88.6748 32.0098 88.7302C32.0411 88.8093 32.0803 88.9121 32.143 89.0387C33.0204 90.1223 35.6604 93.6183 35.6604 96.6081C35.6604 98.7516 34.6734 101.053 33.0831 102.627C31.5319 104.162 29.5264 104.945 27.2624 104.913C25.0767 104.961 23.0868 104.178 21.52 102.619C19.9297 101.045 18.9427 98.7358 18.9427 96.6002C18.9427 93.6104 21.5827 90.1144 22.4601 89.0307C22.5228 88.9042 22.562 88.8014 22.5933 88.7223C22.421 88.6748 22.1859 88.6194 21.9666 88.6194H3.91701Z" fill="#4C86C6"/>
<path d="M52.6524 87.9864C51.8925 87.9864 51.2815 87.3694 51.2815 86.6022V66.3852C51.2815 65.8869 51.0856 65.2383 50.9133 65.1355C50.8741 65.1118 50.5843 65.0881 49.9732 65.3965C49.1898 66.053 45.6802 68.8609 42.8207 68.8609C40.8622 68.8609 38.7549 67.9355 37.3056 66.4406C35.8876 64.9773 35.1591 63.0948 35.2061 60.983C35.3001 56.1581 39.2328 53.1683 42.8207 53.1683C45.6802 53.1683 49.1898 55.9762 49.9732 56.6248C50.5764 56.9412 50.8663 56.9174 50.9133 56.8937C51.0856 56.7909 51.2736 56.1423 51.2815 55.6361V36.8112H10.2704C6.4474 36.8112 3.32946 39.9593 3.32946 43.8271V86.6101C3.32946 87.3773 2.71841 87.9943 1.95851 87.9943C1.19861 87.9943 0.587555 87.3773 0.587555 86.6101V43.8271C0.587555 38.4406 4.9276 34.0508 10.2704 34.0508H52.6524C53.0128 34.0508 53.3653 34.1932 53.6238 34.4542C53.8824 34.7152 54.0234 35.0632 54.0234 35.435V55.6519C54.0234 55.9208 53.9764 58.2858 52.3077 59.2824C51.5948 59.7095 50.3649 60.0101 48.5474 59.0056C48.4691 58.9581 48.3907 58.9028 48.3124 58.8474C47.0119 57.7242 44.364 55.9525 42.8207 55.9525C40.8936 55.9525 38.0107 57.5739 37.9402 61.0542C37.9088 62.4225 38.3554 63.5932 39.2563 64.5186C40.1885 65.4835 41.5908 66.1084 42.8129 66.1084C44.3562 66.1084 46.9963 64.3288 48.3046 63.2056C48.3751 63.1423 48.4534 63.0869 48.5396 63.0395C50.3571 62.035 51.587 62.3355 52.2999 62.7626C53.9607 63.7593 54.0077 66.1242 54.0077 66.3932V86.6101C54.0077 87.3773 53.3967 87.9943 52.6368 87.9943L52.6524 87.9864Z" fill="#4C86C6"/>
<path d="M52.6524 88.58C51.5713 88.58 50.6939 87.6942 50.6939 86.6026V66.3857C50.6939 66.1721 50.6469 65.9428 50.5921 65.7767C50.5137 65.8004 50.4197 65.8478 50.2944 65.9032C49.2211 66.797 45.7742 69.4625 42.8207 69.4625C40.7134 69.4625 38.4415 68.4659 36.8826 66.8682C35.3549 65.2942 34.5637 63.2535 34.6107 60.9834C34.7125 55.7947 38.9507 52.5834 42.8129 52.5834C45.7663 52.5834 49.2133 55.249 50.2866 56.1348C50.4041 56.1981 50.5059 56.2377 50.5842 56.2614C50.6312 56.0953 50.6783 55.858 50.6861 55.6286V37.4049H10.2704C6.76859 37.4049 3.91701 40.284 3.91701 43.8275V86.6105C3.91701 87.7021 3.0396 88.588 1.9585 88.588C0.87741 88.588 0 87.7021 0 86.6105V43.8275C0 38.1089 4.6064 33.458 10.2704 33.458H52.6524C53.1773 33.458 53.6709 33.6557 54.0391 34.0354C54.4072 34.4072 54.6109 34.9055 54.6109 35.4354V55.6524C54.6109 55.9529 54.5561 58.6343 52.6133 59.797C51.7672 60.3032 50.3336 60.6671 48.2654 59.5281C48.1479 59.4648 48.0382 59.3857 47.9363 59.2987C46.6437 58.1913 44.1212 56.5461 42.8286 56.5461C41.1364 56.5461 38.5982 57.9857 38.5355 61.0704C38.512 62.2727 38.8959 63.301 39.6871 64.1077C40.5175 64.962 41.7475 65.5156 42.8286 65.5156C44.1212 65.5156 46.6437 63.8704 47.9363 62.7552C48.0382 62.6682 48.1479 62.5891 48.2732 62.5258C50.3336 61.3868 51.775 61.7507 52.6211 62.2648C54.5639 63.4275 54.6188 66.1009 54.6188 66.4015V86.6185C54.6188 87.71 53.7414 88.5959 52.6603 88.5959L52.6524 88.58ZM50.8193 64.5269C50.9681 64.5269 51.1013 64.5586 51.2188 64.6218C51.7358 64.9303 51.869 66.0139 51.869 66.3699V86.5947C51.869 87.0298 52.2216 87.3857 52.6524 87.3857C53.0833 87.3857 53.4358 87.0298 53.4358 86.5947V66.3778C53.4358 66.2829 53.4202 64.0998 52.01 63.2614C51.1718 62.7631 50.075 62.858 48.8294 63.5461C48.7824 63.5699 48.7354 63.6015 48.6962 63.6411C47.7092 64.4874 44.7401 66.6863 42.8207 66.6863C41.4419 66.6863 39.883 65.9902 38.8411 64.9224C37.8226 63.8704 37.3213 62.5654 37.3526 61.0309C37.4309 57.1552 40.6585 55.3439 42.8207 55.3439C44.7322 55.3439 47.7092 57.5348 48.6884 58.3812C48.7276 58.4128 48.7746 58.4445 48.8216 58.4761C50.0672 59.1642 51.1718 59.2671 52.0022 58.7687C53.4123 57.9224 53.428 55.7394 53.428 55.6444V35.4275C53.428 35.2139 53.3497 35.0162 53.2008 34.8659C53.052 34.7156 52.8561 34.6365 52.6446 34.6365H10.2704C5.25662 34.6365 1.1751 38.7574 1.1751 43.8275V86.6105C1.1751 87.0456 1.52763 87.4015 1.9585 87.4015C2.38938 87.4015 2.74191 87.0456 2.74191 86.6105V43.8275C2.74191 39.6354 6.11837 36.2264 10.2704 36.2264H51.869V55.6444C51.869 56.0083 51.7358 57.1077 51.211 57.4162C50.8271 57.6535 50.1847 57.4162 49.7068 57.1631L49.5972 57.0919C48.9391 56.5382 45.5 53.7699 42.8207 53.7699C39.5069 53.7699 35.8798 56.5382 35.7936 61.0072C35.7545 62.9529 36.4203 64.693 37.7286 66.0377C39.0682 67.4218 41.0189 68.2761 42.8286 68.2761C45.5078 68.2761 48.9391 65.5077 49.605 64.9541L49.7147 64.8829C50.0515 64.7089 50.4667 64.5428 50.8271 64.5428L50.8193 64.5269Z" fill="#4C86C6"/>
<path d="M95.5202 139.407H52.6524C51.8925 139.407 51.2815 138.79 51.2815 138.023C51.2815 137.255 51.8925 136.638 52.6524 136.638H95.5202C99.0846 136.638 101.983 133.712 101.983 130.113V87.9865H83.2521C83.0014 88.0023 81.4894 87.9865 80.518 86.8949C80.1106 86.4362 79.6641 85.6215 79.8365 84.356C79.9305 83.7153 80.189 83.0983 80.5964 82.5605C81.5364 81.2791 83.0484 78.4554 82.688 76.0904C82.5235 74.991 81.9673 74.1051 80.9881 73.3853C79.1549 72.0328 76.6088 72.0407 74.7914 73.3853C73.2794 74.5085 72.8015 76.0983 73.3186 78.2497C73.8278 80.3695 75.136 82.2204 75.3946 82.5684C75.7863 83.1062 76.0448 83.7153 76.1388 84.3401C76.3112 85.6136 75.8646 86.4283 75.4572 86.887C74.4858 87.9865 72.9739 87.9944 72.684 87.9865L52.6681 87.9074C51.916 87.9074 51.2893 87.2825 51.2971 86.5232C51.305 85.7639 51.9004 85.139 52.6603 85.139H52.6759L72.731 85.2181C73.0209 85.2181 73.3577 85.1153 73.4126 85.0362C73.4204 85.0204 73.4439 84.9334 73.4126 84.7277C73.3891 84.5695 73.3107 84.3876 73.1854 84.2136C72.7467 83.6125 71.2739 81.4689 70.655 78.8983C69.8638 75.6396 70.7333 72.9661 73.1619 71.1548C75.9273 69.0904 79.8051 69.0825 82.6019 71.139C84.1765 72.3017 85.1166 73.8204 85.3986 75.6633C86.0097 79.6814 83.1189 83.7627 82.7899 84.2136C82.6567 84.3955 82.5784 84.5695 82.5549 84.7435C82.5314 84.9334 82.5549 85.0283 82.5549 85.0441C82.6175 85.1311 82.9936 85.226 83.2051 85.226H103.346C103.707 85.226 104.059 85.3684 104.318 85.6294C104.576 85.8904 104.717 86.2384 104.717 86.6102V130.121C104.717 135.246 100.589 139.415 95.5123 139.415L95.5202 139.407Z" fill="#4C86C6"/>
<path d="M95.5202 140H52.6524C51.5713 140 50.6939 139.114 50.6939 138.023C50.6939 136.931 51.5713 136.045 52.6524 136.045H95.5202C98.7634 136.045 101.396 133.38 101.396 130.113V88.58H83.2521C83.0719 88.5958 81.2701 88.6274 80.0793 87.2907C79.5858 86.737 79.0452 85.7641 79.2489 84.2771C79.3586 83.5415 79.6563 82.8218 80.1185 82.2048C80.9489 81.0737 82.4295 78.3528 82.1005 76.1777C81.9595 75.2285 81.4894 74.4929 80.6355 73.8602C79.006 72.6579 76.742 72.6658 75.136 73.8602C73.8199 74.841 73.4204 76.1935 73.8904 78.1076C74.3761 80.1167 75.6217 81.8884 75.8646 82.2206C76.319 82.8376 76.6088 83.5415 76.7185 84.2613C76.9222 85.7641 76.3816 86.737 75.8959 87.2907C74.7835 88.5404 73.1462 88.5958 72.6683 88.5879L52.6602 88.5088C51.5792 88.5088 50.7017 87.615 50.7017 86.5314C50.7017 85.4398 51.5792 84.554 52.6524 84.554L72.731 84.6331C72.731 84.6331 72.7467 84.6331 72.7623 84.6331C72.7545 84.6172 72.7388 84.5935 72.7232 84.5777C72.2688 83.9607 70.7412 81.7302 70.0909 79.0489C69.2449 75.537 70.1849 72.65 72.8172 70.6884C75.7863 68.4737 79.954 68.4658 82.9544 70.6726C84.6622 71.9302 85.6806 73.5833 85.9862 75.5845C86.6285 79.8398 83.6124 84.1031 83.2677 84.5777C83.2521 84.6014 83.2364 84.6172 83.2286 84.641H103.362C103.887 84.641 104.38 84.8387 104.749 85.2105C105.117 85.5822 105.321 86.0805 105.321 86.6105V130.121C105.321 135.571 100.926 140.008 95.528 140.008L95.5202 140ZM52.6524 137.232C52.2215 137.232 51.869 137.588 51.869 138.023C51.869 138.458 52.2215 138.814 52.6524 138.814H95.5202C100.275 138.814 104.138 134.907 104.138 130.113V86.6026C104.138 86.389 104.059 86.1913 103.91 86.041C103.762 85.8907 103.566 85.8116 103.354 85.8116H83.2129C83.2129 85.8116 82.3668 85.8116 82.077 85.3766C81.9595 85.1788 81.936 84.9495 81.9751 84.6647C82.0143 84.3879 82.1318 84.1268 82.3277 83.8579C82.641 83.4308 85.3986 79.5314 84.8267 75.7506C84.576 74.0737 83.7065 72.6817 82.265 71.6139C79.6798 69.7076 76.084 69.7155 73.5222 71.6297C71.3052 73.2828 70.514 75.7506 71.2425 78.7562C71.8379 81.2161 73.2559 83.2805 73.6789 83.8579C73.8669 84.111 73.9844 84.38 74.0158 84.641C74.055 84.9495 74.0236 85.1867 73.9218 85.3449C73.6241 85.8037 72.778 85.8037 72.7467 85.8037L52.6759 85.7246C52.2372 85.7246 51.8847 86.0805 51.8847 86.5155C51.8847 86.9506 52.2372 87.3065 52.6759 87.3065L72.6918 87.3856C72.9582 87.3935 74.2351 87.3856 75.0264 86.4839C75.3476 86.1201 75.7079 85.4636 75.5669 84.4116C75.4886 83.8896 75.2692 83.3675 74.9324 82.9088C74.666 82.5449 73.3029 80.6071 72.7623 78.3766C72.1904 76.0037 72.7623 74.1608 74.4545 72.8952C76.4678 71.3924 79.3037 71.3845 81.3406 72.8952C82.453 73.7099 83.0876 74.7223 83.2756 75.9879C83.6673 78.5427 82.077 81.5404 81.0742 82.9009C80.7295 83.3675 80.5023 83.8896 80.424 84.4274C80.283 85.4636 80.6355 86.1201 80.9645 86.4839C81.8106 87.4331 83.1816 87.3935 83.2364 87.3856H102.579V130.097C102.579 134.021 99.4137 137.216 95.528 137.216H52.6602L52.6524 137.232Z" fill="#4C86C6"/>
</g>
<defs>
<clipPath id="clip0_148_179">
<rect width="128" height="140" fill="white"/>
</clipPath>
</defs>
</svg>
