<svg width="62" height="70" viewBox="0 0 62 70" fill="none" xmlns="http://www.w3.org/2000/svg">
<g clip-path="url(#clip0_526_870)">
<path d="M27.8138 13.5864H61.4279V69.4255H27.8138V13.5864Z" fill="#FFE600"/>
<path d="M61.4279 70H27.8138C27.4969 70 27.2416 69.7436 27.2416 69.4254V13.5863C27.2416 13.2681 27.4969 13.0117 27.8138 13.0117H61.4279C61.7448 13.0117 62 13.2681 62 13.5863V69.4254C62 69.7436 61.7448 70 61.4279 70ZM28.3859 68.8508H60.8558V14.1609H28.3859V68.8508Z" fill="black"/>
<path d="M61.4279 22.2932H27.8138C27.4969 22.2932 27.2416 22.0368 27.2416 21.7186C27.2416 21.4004 27.4969 21.144 27.8138 21.144H61.4279C61.7448 21.144 62 21.4004 62 21.7186C62 22.0368 61.7448 22.2932 61.4279 22.2932Z" fill="black"/>
<path d="M61.4279 61.8679H27.8138C27.4969 61.8679 27.2416 61.6115 27.2416 61.2933C27.2416 60.9751 27.4969 60.7188 27.8138 60.7188H61.4279C61.7448 60.7188 62 60.9751 62 61.2933C62 61.6115 61.7448 61.8679 61.4279 61.8679Z" fill="black"/>
<path d="M44.6252 63.0522C45.8927 63.0522 46.9225 64.0865 46.9225 65.3505C46.9225 66.6146 45.8927 67.6488 44.6252 67.6488C43.3578 67.6488 42.3279 66.6234 42.3279 65.3505C42.3279 64.0776 43.3578 63.0522 44.6252 63.0522Z" fill="#FFE600"/>
<path d="M44.6252 68.232C43.0497 68.232 41.7558 66.9414 41.7558 65.3592C41.7558 63.7769 43.0409 62.4863 44.6252 62.4863C46.2095 62.4863 47.4946 63.7769 47.4946 65.3592C47.4946 66.9414 46.2095 68.232 44.6252 68.232ZM44.6252 63.6266C43.6746 63.6266 42.9001 64.4045 42.9001 65.3503C42.9001 66.2962 43.6746 67.074 44.6252 67.074C45.5758 67.074 46.3416 66.2962 46.3416 65.3503C46.3416 64.4045 45.567 63.6266 44.6252 63.6266Z" fill="black"/>
<path d="M47.4418 18.2273H41.8086C41.4918 18.2273 41.2365 17.9709 41.2365 17.6527C41.2365 17.3345 41.4918 17.0781 41.8086 17.0781H47.4418C47.7587 17.0781 48.0139 17.3345 48.0139 17.6527C48.0139 17.9709 47.7587 18.2273 47.4418 18.2273Z" fill="black"/>
<path d="M44.6252 30.3018C47.2922 30.3018 49.4486 32.4674 49.4486 35.1458C49.4486 37.8242 47.2922 39.9899 44.6252 39.9899C41.9583 39.9899 39.8018 37.8242 39.8018 35.1458C39.8018 32.4674 41.9583 30.3018 44.6252 30.3018Z" fill="#FF6400"/>
<path d="M44.6252 40.5643C41.6502 40.5643 39.2297 38.1334 39.2297 35.1457C39.2297 32.1579 41.6502 29.7271 44.6252 29.7271C47.6002 29.7271 50.0207 32.1579 50.0207 35.1457C50.0207 38.1334 47.6002 40.5643 44.6252 40.5643ZM44.6252 30.8762C42.2839 30.8762 40.3739 32.7944 40.3739 35.1457C40.3739 37.497 42.2839 39.4151 44.6252 39.4151C46.9665 39.4151 48.8765 37.497 48.8765 35.1457C48.8765 32.7944 46.9665 30.8762 44.6252 30.8762Z" fill="black"/>
<path d="M42.2047 41.8638H47.0369C50.0119 41.8638 52.4324 44.3123 52.4324 47.2912V52.7098H36.8004V47.2912C36.8004 44.3123 39.2297 41.8638 42.1959 41.8638H42.2047Z" fill="#FF6400"/>
<path d="M52.4324 53.2843H36.8004C36.4835 53.2843 36.2283 53.0279 36.2283 52.7097V47.2911C36.2283 43.9851 38.904 41.2891 42.1959 41.2891H47.0281C50.32 41.2891 52.9957 43.9763 52.9957 47.2911V52.7097C52.9957 53.0279 52.7405 53.2843 52.4236 53.2843H52.4324ZM37.3813 52.1351H51.8691V47.2911C51.8691 44.6127 49.7039 42.4382 47.0457 42.4382H42.2135C39.5554 42.4382 37.3901 44.6127 37.3901 47.2911V52.1351H37.3813Z" fill="black"/>
<path d="M39.6874 53.2847C39.3705 53.2847 39.1153 53.0283 39.1153 52.7101V48.1224C39.1153 47.8042 39.3705 47.5479 39.6874 47.5479C40.0042 47.5479 40.2595 47.8042 40.2595 48.1224V52.7101C40.2595 53.0283 40.0042 53.2847 39.6874 53.2847Z" fill="black"/>
<path d="M49.5542 53.2847C49.2374 53.2847 48.9821 53.0283 48.9821 52.7101V48.1224C48.9821 47.8042 49.2374 47.5479 49.5542 47.5479C49.8711 47.5479 50.1264 47.8042 50.1264 48.1224V52.7101C50.1264 53.0283 49.8711 53.2847 49.5542 53.2847Z" fill="black"/>
<path d="M0.572113 0.574707H34.1862V13.5865H27.8137V56.4138H0.572113V0.574707Z" fill="#FDFFF3"/>
<path d="M27.8137 56.9883H0.572118C0.255253 56.9883 0 56.7319 0 56.4137V0.574567C0 0.256345 0.255253 0 0.572118 0H34.1863C34.5031 0 34.7584 0.256345 34.7584 0.574567V13.5863C34.7584 13.9045 34.5031 14.1609 34.1863 14.1609H28.3859V56.4137C28.3859 56.7319 28.1306 56.9883 27.8137 56.9883ZM1.14424 55.8391H27.2416V13.5863C27.2416 13.2681 27.4969 13.0117 27.8137 13.0117H33.6141V1.14913H1.14424V55.8391Z" fill="black"/>
<path d="M34.1863 9.28146H0.572118C0.255253 9.28146 0 9.02511 0 8.70689C0 8.38867 0.255253 8.13232 0.572118 8.13232H34.1863C34.5031 8.13232 34.7584 8.38867 34.7584 8.70689C34.7584 9.02511 34.5031 9.28146 34.1863 9.28146Z" fill="black"/>
<path d="M27.8137 48.8557H0.572118C0.255253 48.8557 0 48.5993 0 48.2811C0 47.9629 0.255253 47.7065 0.572118 47.7065H27.8137C28.1306 47.7065 28.3859 47.9629 28.3859 48.2811C28.3859 48.5993 28.1306 48.8557 27.8137 48.8557Z" fill="black"/>
<path d="M17.3748 50.0493C18.6423 50.0493 19.6721 51.0835 19.6721 52.3476C19.6721 53.6116 18.6423 54.637 17.3748 54.637C16.1073 54.637 15.0775 53.6116 15.0775 52.3476C15.0775 51.0835 16.1073 50.0493 17.3748 50.0493Z" fill="#FDFFF3"/>
<path d="M17.3748 55.2114C15.7993 55.2114 14.5054 53.9209 14.5054 52.3474C14.5054 50.774 15.7905 49.4746 17.3748 49.4746C18.9591 49.4746 20.2442 50.7652 20.2442 52.3474C20.2442 53.9297 18.9591 55.2114 17.3748 55.2114ZM17.3748 50.6237C16.4242 50.6237 15.6496 51.4016 15.6496 52.3474C15.6496 53.2933 16.4242 54.0623 17.3748 54.0623C18.3254 54.0623 19.1 53.2933 19.1 52.3474C19.1 51.4016 18.3254 50.6237 17.3748 50.6237Z" fill="black"/>
<path d="M20.2002 5.21554H14.567C14.2501 5.21554 13.9949 4.9592 13.9949 4.64097C13.9949 4.32275 14.2501 4.06641 14.567 4.06641H20.2002C20.517 4.06641 20.7723 4.32275 20.7723 4.64097C20.7723 4.9592 20.517 5.21554 20.2002 5.21554Z" fill="black"/>
<path d="M17.3748 17.2812C20.0417 17.2812 22.207 19.4558 22.207 22.1341C22.207 24.8125 20.0417 26.9782 17.3748 26.9782C14.7078 26.9782 12.5426 24.8125 12.5426 22.1341C12.5426 19.4558 14.7078 17.2812 17.3748 17.2812Z" fill="#00DD05"/>
<path d="M17.3748 27.5526C14.391 27.5526 11.9705 25.1217 11.9705 22.134C11.9705 19.1462 14.3998 16.7065 17.3748 16.7065C20.3498 16.7065 22.7791 19.1374 22.7791 22.134C22.7791 25.1306 20.3498 27.5526 17.3748 27.5526ZM17.3748 17.8557C15.0247 17.8557 13.1147 19.7739 13.1147 22.134C13.1147 24.4941 15.0247 26.4035 17.3748 26.4035C19.7249 26.4035 21.6349 24.4853 21.6349 22.134C21.6349 19.7827 19.7249 17.8557 17.3748 17.8557Z" fill="black"/>
<path d="M14.9631 28.8521H19.7953C22.7703 28.8521 25.1908 31.3006 25.1908 34.2707V39.6981H9.56757V34.2707C9.56757 31.3006 11.9969 28.8521 14.9631 28.8521Z" fill="#00DD05"/>
<path d="M25.1908 40.2725H9.56757C9.25071 40.2725 8.99545 40.0162 8.99545 39.698V34.2705C8.99545 30.9646 11.6712 28.2773 14.9631 28.2773H19.7953C23.0872 28.2773 25.7629 30.9646 25.7629 34.2705V39.698C25.7629 40.0162 25.5077 40.2725 25.1908 40.2725ZM10.1397 39.1234H24.6275V34.2705C24.6275 31.601 22.4622 29.4265 19.8041 29.4265H14.9719C12.3137 29.4265 10.1485 31.601 10.1485 34.2705V39.1234H10.1397Z" fill="black"/>
<path d="M12.4458 40.273C12.1289 40.273 11.8737 40.0166 11.8737 39.6984V35.1107C11.8737 34.7925 12.1289 34.5361 12.4458 34.5361C12.7626 34.5361 13.0179 34.7925 13.0179 35.1107V39.6984C13.0179 40.0166 12.7626 40.273 12.4458 40.273Z" fill="black"/>
<path d="M22.3126 40.273C21.9957 40.273 21.7405 40.0166 21.7405 39.6984V35.1107C21.7405 34.7925 21.9957 34.5361 22.3126 34.5361C22.6295 34.5361 22.8847 34.7925 22.8847 35.1107V39.6984C22.8847 40.0166 22.6295 40.273 22.3126 40.273Z" fill="black"/>
</g>
<defs>
<clipPath id="clip0_526_870">
<rect width="62" height="70" fill="white"/>
</clipPath>
</defs>
</svg>
