<svg width="68" height="64" viewBox="0 0 68 64" fill="none" xmlns="http://www.w3.org/2000/svg">
<g clip-path="url(#clip0_526_963)">
<path d="M67.4678 0.783203H9.52789V11.4257H67.4678V0.783203Z" fill="#00DD05"/>
<path d="M9.12445 11.8516H51.4335L67.442 11.8601V48.9472H46.8498V34.6692H40.5064H9.12445V11.8516Z" fill="#FDFFF3"/>
<path d="M67.6652 49.16H46.6352V34.882H8.90985V11.6387H67.6652V49.1685V49.16ZM47.0644 48.7343H67.2274V12.0814H51.4334L9.33904 12.0729V34.4648H47.0558V48.7428L47.0644 48.7343Z" fill="#231815"/>
<path d="M67.4421 49.5006H46.8412C46.5322 49.5006 46.2833 49.2537 46.2833 48.9472V30.8719H9.12447C8.81546 30.8719 8.56653 30.625 8.56653 30.3185V0.553412C8.56653 0.246907 8.81546 0 9.12447 0L67.4421 0.0170281C67.7511 0.0170281 68 0.263935 68 0.57044V48.9472C68 49.2537 67.7511 49.5006 67.4421 49.5006ZM47.4077 48.3938H66.8927V1.12385L9.69099 1.10682V29.7651H46.8498C47.1588 29.7651 47.4077 30.012 47.4077 30.3185V48.3938Z" fill="black"/>
<path d="M67.4421 12.4052H9.12447C8.81546 12.4052 8.56653 12.1583 8.56653 11.8518C8.56653 11.5452 8.81546 11.2983 9.12447 11.2983H67.4421C67.7511 11.2983 68 11.5452 68 11.8518C68 12.1583 67.7511 12.4052 67.4421 12.4052Z" fill="black"/>
<path d="M17.1074 4.37646C18.1288 4.37646 18.9614 5.19381 18.9614 6.20698C18.9614 7.22015 18.1374 8.0375 17.1074 8.0375C16.0773 8.0375 15.2704 7.22015 15.2704 6.20698C15.2704 5.19381 16.0859 4.37646 17.1074 4.37646Z" fill="#007896"/>
<path d="M17.1073 8.131C16.0344 8.131 15.1674 7.26257 15.1674 6.19831C15.1674 5.13406 16.0344 4.26562 17.1073 4.26562C18.1803 4.26562 19.0644 5.13406 19.0644 6.19831C19.0644 7.26257 18.1889 8.131 17.1073 8.131ZM17.1073 4.47848C16.1545 4.47848 15.3734 5.25325 15.3734 6.19831C15.3734 7.14337 16.146 7.91815 17.1073 7.91815C18.0687 7.91815 18.8498 7.14337 18.8498 6.19831C18.8498 5.25325 18.0687 4.47848 17.1073 4.47848Z" fill="#231815"/>
<path d="M17.1073 8.58231C15.7854 8.58231 14.7125 7.51806 14.7125 6.19838C14.7125 4.87871 15.7854 3.81445 17.1073 3.81445C18.4292 3.81445 19.5193 4.87871 19.5193 6.19838C19.5193 7.51806 18.4378 8.58231 17.1073 8.58231ZM17.1073 4.92979C16.4035 4.92979 15.8283 5.50023 15.8283 6.2069C15.8283 6.91356 16.4035 7.484 17.1073 7.484C17.8112 7.484 18.3949 6.91356 18.3949 6.2069C18.3949 5.50023 17.8198 4.92979 17.1073 4.92979Z" fill="black"/>
<path d="M29.5108 4.37646C30.5323 4.37646 31.3649 5.19381 31.3649 6.20698C31.3649 7.22015 30.5408 8.0375 29.5108 8.0375C28.4808 8.0375 27.6739 7.22015 27.6739 6.20698C27.6739 5.19381 28.4979 4.37646 29.5108 4.37646Z" fill="#007896"/>
<path d="M29.5108 8.131C28.4378 8.131 27.5709 7.26257 27.5709 6.19831C27.5709 5.13406 28.4378 4.26562 29.5108 4.26562C30.5837 4.26562 31.4679 5.13406 31.4679 6.19831C31.4679 7.26257 30.5923 8.131 29.5108 8.131ZM29.5108 4.47848C28.558 4.47848 27.7769 5.25325 27.7769 6.19831C27.7769 7.14337 28.5494 7.91815 29.5108 7.91815C30.4722 7.91815 31.2533 7.14337 31.2533 6.19831C31.2533 5.25325 30.4722 4.47848 29.5108 4.47848Z" fill="#231815"/>
<path d="M29.5108 8.58231C28.1889 8.58231 27.1159 7.51806 27.1159 6.19838C27.1159 4.87871 28.1889 3.81445 29.5108 3.81445C30.8326 3.81445 31.9228 4.87871 31.9228 6.19838C31.9228 7.51806 30.8412 8.58231 29.5108 8.58231ZM29.5108 4.92979C28.8069 4.92979 28.2318 5.50023 28.2318 6.2069C28.2318 6.91356 28.8069 7.484 29.5108 7.484C30.2146 7.484 30.7983 6.91356 30.7983 6.2069C30.7983 5.50023 30.2232 4.92979 29.5108 4.92979Z" fill="black"/>
<path d="M41.9314 4.37646C42.9442 4.37646 43.7769 5.19381 43.7769 6.20698C43.7769 7.22015 42.9528 8.0375 41.9314 8.0375C40.9099 8.0375 40.0859 7.22015 40.0859 6.20698C40.0859 5.19381 40.9099 4.37646 41.9314 4.37646Z" fill="#007896"/>
<path d="M41.9313 8.131C40.8584 8.131 39.9828 7.26257 39.9828 6.19831C39.9828 5.13406 40.8584 4.26562 41.9313 4.26562C43.0043 4.26562 43.8798 5.13406 43.8798 6.19831C43.8798 7.26257 43.0043 8.131 41.9313 8.131ZM41.9313 4.47848C40.97 4.47848 40.1889 5.25325 40.1889 6.19831C40.1889 7.14337 40.97 7.91815 41.9313 7.91815C42.8927 7.91815 43.6653 7.14337 43.6653 6.19831C43.6653 5.25325 42.8841 4.47848 41.9313 4.47848Z" fill="#231815"/>
<path d="M41.9313 8.58231C40.6094 8.58231 39.5279 7.51806 39.5279 6.19838C39.5279 4.87871 40.6094 3.81445 41.9313 3.81445C43.2532 3.81445 44.3348 4.87871 44.3348 6.19838C44.3348 7.51806 43.2618 8.58231 41.9313 8.58231ZM41.9313 4.92979C41.2189 4.92979 40.6438 5.50023 40.6438 6.2069C40.6438 6.91356 41.2189 7.484 41.9313 7.484C42.6438 7.484 43.2189 6.91356 43.2189 6.2069C43.2189 5.50023 42.6438 4.92979 41.9313 4.92979Z" fill="black"/>
<path d="M46.8412 30.3184H0.557922V63.4465H46.8412V30.3184Z" fill="#FFE600"/>
<path d="M46.8498 64.0001H0.55794C0.248927 64.0001 0 63.7532 0 63.4467V30.3186C0 30.012 0.248927 29.7651 0.55794 29.7651H46.8412C47.1502 29.7651 47.3991 30.012 47.3991 30.3186V63.4467C47.3991 63.7532 47.1502 64.0001 46.8412 64.0001H46.8498ZM1.11588 62.8932H46.2833V30.8805H1.11588V62.8932Z" fill="black"/>
<path d="M6.90126 64.0001C6.59225 64.0001 6.34332 63.7532 6.34332 63.4467V30.3186C6.34332 30.012 6.59225 29.7651 6.90126 29.7651C7.21028 29.7651 7.4592 30.012 7.4592 30.3186V63.4467C7.4592 63.7532 7.21028 64.0001 6.90126 64.0001Z" fill="black"/>
<path d="M40.5064 64.0001C40.1974 64.0001 39.9485 63.7532 39.9485 63.4467V30.3186C39.9485 30.012 40.1974 29.7651 40.5064 29.7651C40.8154 29.7651 41.0644 30.012 41.0644 30.3186V63.4467C41.0644 63.7532 40.8154 64.0001 40.5064 64.0001Z" fill="black"/>
<path d="M23.7082 35.7163C29.9314 35.7163 34.9786 40.714 34.9786 46.8782C34.9786 53.0424 29.94 58.0571 23.7082 58.0571C17.4764 58.0571 12.4378 53.0509 12.4378 46.8782C12.4378 40.7055 17.485 35.7163 23.7082 35.7163Z" fill="#FF6400"/>
<path d="M23.7082 58.1679C17.4335 58.1679 12.3348 53.1021 12.3348 46.8868C12.3348 40.6716 17.4421 35.6143 23.7082 35.6143C29.9743 35.6143 35.0816 40.6716 35.0816 46.8868C35.0816 53.1021 29.9828 58.1679 23.7082 58.1679ZM23.7082 35.8186C17.5537 35.8186 12.5408 40.7823 12.5408 46.8783C12.5408 52.9744 17.5537 57.9551 23.7082 57.9551C29.8627 57.9551 34.8756 52.9829 34.8756 46.8783C34.8756 40.7738 29.8713 35.8186 23.7082 35.8186Z" fill="#231815"/>
<path d="M23.7081 58.6107C17.1845 58.6107 11.8798 53.3491 11.8798 46.8784C11.8798 40.4077 17.1845 35.1631 23.7081 35.1631C30.2318 35.1631 35.5365 40.4162 35.5365 46.8784C35.5365 53.3406 30.2318 58.6107 23.7081 58.6107ZM23.7081 36.2699C17.8026 36.2699 12.9957 41.0293 12.9957 46.8784C12.9957 52.7275 17.8026 57.5039 23.7081 57.5039C29.6137 57.5039 34.4206 52.7361 34.4206 46.8784C34.4206 41.0207 29.6137 36.2699 23.7081 36.2699Z" fill="black"/>
<path d="M29.2446 46.8779L24.9442 49.347L20.6352 51.8161V46.8779V41.9653L24.9442 44.4174L29.2446 46.8779Z" fill="white"/>
<path d="M20.6352 52.3697C20.5408 52.3697 20.4463 52.3441 20.3519 52.293C20.1803 52.1909 20.0687 52.0121 20.0687 51.8163V41.9655C20.0687 41.7697 20.1717 41.5824 20.3519 41.4887C20.5236 41.3866 20.7382 41.3866 20.9099 41.4887L29.5193 46.4098C29.691 46.512 29.8026 46.6908 29.8026 46.8866C29.8026 47.0825 29.6996 47.2698 29.5193 47.3634L20.9099 52.293C20.824 52.3441 20.7296 52.3697 20.6266 52.3697H20.6352ZM21.1931 42.9191V50.8542L28.1288 46.8781L21.1931 42.9191Z" fill="black"/>
<path d="M4.73817 33.3495H2.52358C2.21456 33.3495 1.96564 33.1026 1.96564 32.7961C1.96564 32.4896 2.21456 32.2427 2.52358 32.2427H4.73817C5.04718 32.2427 5.29611 32.4896 5.29611 32.7961C5.29611 33.1026 5.04718 33.3495 4.73817 33.3495Z" fill="black"/>
<path d="M4.73817 38.9857H2.52358C2.21456 38.9857 1.96564 38.7388 1.96564 38.4323C1.96564 38.1258 2.21456 37.8789 2.52358 37.8789H4.73817C5.04718 37.8789 5.29611 38.1258 5.29611 38.4323C5.29611 38.7388 5.04718 38.9857 4.73817 38.9857Z" fill="black"/>
<path d="M4.73817 44.622H2.52358C2.21456 44.622 1.96564 44.3751 1.96564 44.0685C1.96564 43.762 2.21456 43.5151 2.52358 43.5151H4.73817C5.04718 43.5151 5.29611 43.762 5.29611 44.0685C5.29611 44.3751 5.04718 44.622 4.73817 44.622Z" fill="black"/>
<path d="M4.73817 50.2499H2.52358C2.21456 50.2499 1.96564 50.003 1.96564 49.6965C1.96564 49.39 2.21456 49.1431 2.52358 49.1431H4.73817C5.04718 49.1431 5.29611 49.39 5.29611 49.6965C5.29611 50.003 5.04718 50.2499 4.73817 50.2499Z" fill="black"/>
<path d="M4.73817 55.8944H2.52358C2.21456 55.8944 1.96564 55.6475 1.96564 55.341C1.96564 55.0345 2.21456 54.7876 2.52358 54.7876H4.73817C5.04718 54.7876 5.29611 55.0345 5.29611 55.341C5.29611 55.6475 5.04718 55.8944 4.73817 55.8944Z" fill="black"/>
<path d="M4.73817 61.5224H2.52358C2.21456 61.5224 1.96564 61.2754 1.96564 60.9689C1.96564 60.6624 2.21456 60.4155 2.52358 60.4155H4.73817C5.04718 60.4155 5.29611 60.6624 5.29611 60.9689C5.29611 61.2754 5.04718 61.5224 4.73817 61.5224Z" fill="black"/>
<path d="M44.8841 33.3495H42.6695C42.3605 33.3495 42.1116 33.1026 42.1116 32.7961C42.1116 32.4896 42.3605 32.2427 42.6695 32.2427H44.8841C45.1931 32.2427 45.442 32.4896 45.442 32.7961C45.442 33.1026 45.1931 33.3495 44.8841 33.3495Z" fill="black"/>
<path d="M44.8841 38.9857H42.6695C42.3605 38.9857 42.1116 38.7388 42.1116 38.4323C42.1116 38.1258 42.3605 37.8789 42.6695 37.8789H44.8841C45.1931 37.8789 45.442 38.1258 45.442 38.4323C45.442 38.7388 45.1931 38.9857 44.8841 38.9857Z" fill="black"/>
<path d="M44.8841 44.622H42.6695C42.3605 44.622 42.1116 44.3751 42.1116 44.0685C42.1116 43.762 42.3605 43.5151 42.6695 43.5151H44.8841C45.1931 43.5151 45.442 43.762 45.442 44.0685C45.442 44.3751 45.1931 44.622 44.8841 44.622Z" fill="black"/>
<path d="M44.8841 50.2499H42.6695C42.3605 50.2499 42.1116 50.003 42.1116 49.6965C42.1116 49.39 42.3605 49.1431 42.6695 49.1431H44.8841C45.1931 49.1431 45.442 49.39 45.442 49.6965C45.442 50.003 45.1931 50.2499 44.8841 50.2499Z" fill="black"/>
<path d="M44.8841 55.8944H42.6695C42.3605 55.8944 42.1116 55.6475 42.1116 55.341C42.1116 55.0345 42.3605 54.7876 42.6695 54.7876H44.8841C45.1931 54.7876 45.442 55.0345 45.442 55.341C45.442 55.6475 45.1931 55.8944 44.8841 55.8944Z" fill="black"/>
<path d="M44.8841 61.5224H42.6695C42.3605 61.5224 42.1116 61.2754 42.1116 60.9689C42.1116 60.6624 42.3605 60.4155 42.6695 60.4155H44.8841C45.1931 60.4155 45.442 60.6624 45.442 60.9689C45.442 61.2754 45.1931 61.5224 44.8841 61.5224Z" fill="black"/>
</g>
<defs>
<clipPath id="clip0_526_963">
<rect width="68" height="64" fill="white"/>
</clipPath>
</defs>
</svg>
