<svg width="992" height="180" viewBox="0 0 992 180" fill="none" xmlns="http://www.w3.org/2000/svg">
<g clip-path="url(#clip0_31_775)">
<path d="M74.7583 6.30381C99.4208 6.30381 104.012 13.7546 104.012 37.8316V172.164H29.2533C4.59081 172.164 0 164.713 0 140.636V37.8316C0 13.7546 4.59081 6.30381 29.2533 6.30381H74.7583ZM67.1187 142.168V42.612C67.1187 38.7859 66.1637 36.3082 61.9584 36.3082H41.878C37.6727 36.3082 36.9104 38.7947 36.9104 42.612V135.672C36.9104 139.875 38.2509 142.168 43.2184 142.168H67.1187ZM169.413 66.8817C181.074 66.8817 184.517 75.8646 184.517 83.5079C184.517 91.1513 180.881 100.134 169.413 100.134H162.527V179.431H124.285V18.9202C124.285 6.49643 133.274 0 143.401 0C153.529 0 162.518 6.49643 162.518 18.9202V66.8817H169.404H169.413Z" fill="black"/>
<path d="M319.324 16.4337V179.431H285.865V101.658H274.012C270.569 149.05 243.225 170.063 207.278 172.934C193.322 174.274 185.674 167.778 185.674 157.84C185.674 148.857 191.027 143.123 201.925 141.407C221.428 138.544 236.917 128.983 239.782 101.281H202.302C190.834 101.281 186.243 92.8761 186.243 85.0401C186.243 77.2041 190.641 68.9917 202.302 68.9917H240.352V44.5294C240.352 41.8503 238.634 39.749 235.568 39.749H204.589C193.121 39.749 187.952 31.7204 187.952 23.8932C187.952 16.066 192.919 7.26689 204.589 7.26689H248.377C267.309 7.26689 274.38 15.4794 274.38 31.913V70.8916H285.848V16.4337C285.848 6.49643 292.541 0 302.678 0C312.815 0 319.315 6.49643 319.315 16.4337H319.324ZM362.341 16.4337V179.431H328.882V16.4337C328.882 6.49643 335.576 0 345.712 0C355.849 0 362.35 6.49643 362.35 16.4337H362.341Z" fill="black"/>
<path d="M412.253 102.997C389.308 102.997 383 97.0699 383 77.5806V30.9587C383 11.4694 389.308 5.73471 412.253 5.73471H480.703C490.069 5.73471 493.319 11.662 493.319 18.9202C493.319 26.1783 489.876 32.2983 480.703 32.2983H425.254C421.811 32.2983 420.287 33.4452 420.287 36.886V41.6664H477.838C487.204 41.6664 491.418 46.4468 491.418 54.4667C491.418 62.4865 487.02 66.8904 477.838 66.8904H420.287V72.2399C420.287 75.6807 421.82 76.8277 425.254 76.8277H491.409C500.775 76.8277 504.025 82.755 504.025 90.0131C504.025 97.2713 500.582 103.006 491.409 103.006H412.253V102.997ZM512.637 110.824C539.981 110.824 552.789 124.772 552.789 145.408C552.789 166.044 539.981 179.991 512.637 179.991H428.89C401.354 179.991 388.738 165.659 388.738 145.408C388.738 125.157 401.354 110.824 428.89 110.824H512.637ZM503.648 154.391C510.727 154.391 513.969 150.565 513.969 145.408C513.969 140.251 510.719 136.425 503.648 136.425H438.063C430.8 136.425 427.55 140.242 427.55 145.408C427.55 150.573 430.8 154.391 438.063 154.391H503.648ZM550.687 104.906H512.445V18.9202C512.445 6.49643 521.433 0 531.57 0C541.707 0 550.687 6.49643 550.687 18.9202V104.906Z" fill="black"/>
<path d="M653.174 102.419C634.057 102.419 627.364 97.639 627.364 79.4893V29.6191C627.364 11.6533 634.057 6.49643 653.174 6.49643H709.963C728.125 6.49643 734.818 11.6533 734.818 30.7661V102.419H653.174ZM663.88 179.422C642.468 179.422 636.729 171.971 636.729 151.528V131.461C636.729 119.037 645.718 113.118 656.424 113.118C667.13 113.118 675.55 119.23 675.55 131.461V145.6C675.55 149.234 676.505 149.996 680.14 149.996H784.73C796.199 149.996 800.597 156.877 800.597 164.521C800.597 172.164 796.006 179.422 784.73 179.422H663.889H663.88ZM663.503 70.3225C663.503 73.0016 664.651 74.525 667.901 74.525H699.064V38.2168C699.064 35.7303 698.109 34.2069 695.245 34.2069H667.332C664.467 34.2069 663.512 35.923 663.512 38.4095V70.3225H663.503ZM757.194 135.479V18.9202C757.194 6.49643 766.183 0 776.311 0C786.439 0 795.436 6.49643 795.436 18.9202V135.479H757.194Z" fill="black"/>
<path d="M976.51 84.0771C987.409 84.0771 992 90.9588 992 98.7948C992 106.631 987.216 113.504 976.51 113.504H828.518C817.812 113.504 813.029 106.815 813.029 98.7948C813.029 90.7749 817.619 84.0771 828.518 84.0771H884.545V81.398C884.545 69.1669 893.341 65.3496 903.478 65.3496C913.615 65.3496 922.603 69.3595 922.603 81.398V84.0771H976.528H976.51ZM886.832 30.5736H836.351C824.882 30.5736 820.291 24.6462 820.291 16.819C820.291 8.99178 824.69 3.06445 836.351 3.06445H968.669C980.33 3.06445 984.728 9.17564 984.728 16.819C984.728 24.4624 980.137 30.5736 968.669 30.5736H923.926C923.348 33.0601 922.393 35.5378 921.245 37.8317C958.147 34.1983 985.114 48.1542 989.889 74.5164H951.646C944.76 61.1383 922.963 55.5962 901.165 58.6605C884.913 68.983 861.775 74.709 836.158 74.709C824.874 74.709 816.848 70.1212 816.848 59.2296C816.848 51.201 822.394 44.8972 832.531 45.6589C856.238 46.8059 879.376 41.8416 886.832 30.5648V30.5736ZM956.623 124.588C979.761 124.588 983.966 131.277 983.966 153.445V179.431H945.724V156.308C945.724 153.253 944.576 152.106 941.519 152.106H836.543C826.214 152.106 820.484 146.756 820.484 138.159C820.484 129.561 826.223 124.588 836.543 124.588H956.623Z" fill="black"/>
</g>
<defs>
<clipPath id="clip0_31_775">
<rect width="992" height="180" fill="black"/>
</clipPath>
</defs>
</svg>
