<svg width="206" height="165" viewBox="0 0 206 165" fill="none" xmlns="http://www.w3.org/2000/svg">
<path d="M186.802 84.2083C185.918 84.0826 185.107 83.5166 184.897 82.6571C184.686 81.7871 185.128 80.9171 185.855 80.4036C188.749 78.3177 190.233 74.6282 189.328 70.9597L187.791 64.7651L170.256 69.0835L171.793 75.2781C172.698 78.9257 175.708 81.4832 179.213 82.0072C180.097 82.1435 180.897 82.72 181.108 83.5899C181.318 84.4599 180.897 85.3403 180.171 85.8749C177.319 87.9607 175.845 91.6397 176.75 95.2768L178.287 101.471L195.822 97.153L194.285 90.9584C193.38 87.2899 190.338 84.7115 186.802 84.2083Z" fill="white"/>
<path d="M178.287 101.734C178.171 101.734 178.066 101.65 178.034 101.534L176.498 95.3398C175.593 91.6922 176.971 87.8874 180.013 85.6654C180.697 85.1622 181.024 84.3761 180.855 83.6529C180.676 82.9297 180.013 82.3846 179.171 82.2693C175.435 81.7033 172.435 78.9886 171.53 75.3411L169.993 69.1465C169.962 69.0102 170.046 68.8635 170.183 68.832L187.728 64.5137C187.791 64.4927 187.865 64.5032 187.928 64.5451C187.991 64.5765 188.033 64.6394 188.044 64.7023L189.581 70.8969C190.496 74.5759 189.086 78.3912 186.002 80.6133C185.307 81.1164 184.971 81.892 185.149 82.5943C185.328 83.2965 185.981 83.8311 186.833 83.9569C190.602 84.4914 193.633 87.2166 194.538 90.9061L196.075 97.1007C196.106 97.2369 196.022 97.3837 195.885 97.4151L178.35 101.734C178.329 101.723 178.308 101.734 178.287 101.734ZM170.572 69.2618L172.046 75.2048C172.898 78.6427 175.729 81.2107 179.255 81.7453C180.308 81.9025 181.139 82.6048 181.371 83.5271C181.602 84.4495 181.192 85.4557 180.339 86.0846C177.466 88.1914 176.161 91.7656 177.013 95.214L178.487 101.157L195.517 96.9644L194.043 91.0214C193.18 87.552 190.328 84.9736 186.77 84.4705C185.707 84.3237 184.876 83.6319 184.644 82.72C184.413 81.8082 184.834 80.8124 185.707 80.1835C188.612 78.0872 189.938 74.4816 189.075 71.0122L187.602 65.0692L170.572 69.2618Z" fill="black"/>
<path d="M178.476 101.304L185.413 92.8977L195.685 96.8388" fill="#16A865"/>
<path d="M178.476 101.566C178.413 101.566 178.361 101.545 178.308 101.503C178.192 101.409 178.182 101.241 178.276 101.136L185.213 92.73C185.286 92.6462 185.402 92.6147 185.507 92.6567L195.78 96.5977C195.917 96.6501 195.98 96.7969 195.927 96.9331C195.875 97.0694 195.717 97.1323 195.59 97.0799L185.497 93.2017L178.676 101.461C178.634 101.535 178.561 101.566 178.476 101.566Z" fill="black"/>
<path d="M167.656 69.9222C167.541 69.9222 167.435 69.8384 167.404 69.7231C167.372 69.5868 167.456 69.4401 167.593 69.4086L190.465 63.7801C190.601 63.7381 190.749 63.8325 190.78 63.9687C190.812 64.105 190.728 64.2517 190.591 64.2832L167.72 69.9118C167.699 69.9222 167.667 69.9222 167.656 69.9222Z" fill="black"/>
<path d="M175.75 102.551C175.635 102.551 175.529 102.467 175.498 102.352C175.466 102.216 175.55 102.069 175.687 102.038L198.559 96.4089C198.695 96.3775 198.843 96.4614 198.874 96.5976C198.906 96.7339 198.822 96.8806 198.685 96.9121L175.813 102.541C175.792 102.541 175.761 102.551 175.75 102.551Z" fill="black"/>
<path d="M157.889 54.5246H153.521V53.4346H157.889V54.5246ZM145.869 54.5246H141.501V53.4346H145.869V54.5246ZM136.039 54.5246H131.671V53.4346H136.039V54.5246ZM124.019 54.5246H119.651V53.4346H124.019V54.5246ZM114.188 54.5246H108.726V53.4346H114.188V54.5246ZM102.179 54.5246H97.811V53.4346H102.179V54.5246ZM90.1591 54.5246H85.7911V53.4346H90.1591V54.5246ZM80.3285 54.5246H75.9605V53.4346H80.3285V54.5246ZM69.4033 54.5246H65.0354V53.4346H69.4033V54.5246ZM57.3835 54.5246H51.9209V53.4346H57.3835V54.5246ZM46.4583 54.5246H42.0903V53.4346H46.4583V54.5246Z" fill="black"/>
<path d="M56.1704 46.7864L56.0378 49.2461L57.2676 49.3118L57.4001 46.8521L56.1704 46.7864Z" fill="black"/>
<path d="M55.268 86.3466L54.0365 86.2837L54.3312 80.8019L55.5627 80.8648L55.268 86.3466ZM55.931 74.0099L54.6996 73.947L54.9943 68.4651L56.2257 68.528L55.931 74.0099ZM56.6047 61.6626L55.3732 61.5998L55.6679 56.1179L56.8994 56.1808L56.6047 61.6626Z" fill="black"/>
<path d="M53.6644 93.1394L53.5321 95.5991L54.7618 95.6647L54.8942 93.205L53.6644 93.1394Z" fill="black"/>
<path d="M136.039 106.744H131.671V105.654H136.039V106.744ZM124.019 106.744H119.651V105.654H124.019V106.744ZM114.188 106.744H108.726V105.654H114.188V106.744ZM102.179 106.744H97.811V105.654H102.179V106.744ZM90.1592 106.744H85.7912V105.654H90.1592V106.744ZM80.3286 106.744H75.9606V105.654H80.3286V106.744ZM69.4034 106.744H65.0354V105.654H69.4034V106.744Z" fill="black"/>
<path d="M136.039 160.053H131.671V158.963H136.039V160.053ZM124.019 160.053H119.651V158.963H124.019V160.053ZM114.188 160.053H108.726V158.963H114.188V160.053ZM102.179 160.053H97.811V158.963H102.179V160.053ZM90.1592 160.053H85.7912V158.963H90.1592V160.053ZM80.3286 160.053H75.9606V158.963H80.3286V160.053ZM69.4034 160.053H65.0354V158.963H69.4034V160.053Z" fill="black"/>
<path d="M124.019 160.053H122.924V155.703H124.019V160.053ZM124.019 148.083H122.924V143.733H124.019V148.083ZM124.019 137.203H122.924V132.853H124.019V137.203ZM124.019 126.323H122.924V121.973H124.019V126.323ZM124.019 116.533H122.924V110.003H124.019V116.533ZM124.019 103.484H122.924V99.134H124.019V103.484ZM124.019 92.604H122.924V88.2542H124.019V92.604ZM124.019 82.8143H122.924V78.4644H124.019V82.8143ZM124.019 70.8444H122.924V65.4045H124.019V70.8444ZM124.019 59.9646H122.924V54.5247H124.019V59.9646Z" fill="black"/>
<path d="M144.469 54.1787H55.7311L54.8154 80.7389H58.6466C60.2254 72.3432 62.5936 66.9033 65.7301 64.4087C68.8771 61.9141 74.7818 60.6668 83.4757 60.6668H92.2853V138.817C92.2853 145.557 91.4643 149.749 89.8329 151.426C88.2646 153.03 84.3808 154.089 78.2341 154.613H77.0447V157.872H124.019V154.613H122.272C116.399 154.13 112.536 153.219 110.736 151.845C108.841 150.409 107.905 146.668 107.905 140.651V60.6773H116.641C125.734 60.6773 131.702 61.935 134.534 64.4506C137.365 66.9662 139.701 72.3956 141.543 80.7389H145.301L144.469 54.1787Z" fill="#38A770"/>
<path d="M124.019 158.134H77.0447C76.8974 158.134 76.7816 158.019 76.7816 157.872V154.613C76.7816 154.466 76.8974 154.351 77.0447 154.351H78.2341C84.2861 153.827 88.1383 152.778 89.6434 151.238C91.2222 149.623 92.0221 145.441 92.0221 138.817V60.9289H83.4651C74.887 60.9289 68.9719 62.1657 65.888 64.6079C62.8146 67.0501 60.4569 72.49 58.8992 80.7809C58.8781 80.9066 58.7624 80.9905 58.6361 80.9905H54.8049C54.7312 80.9905 54.6681 80.959 54.6154 80.9066C54.5628 80.8542 54.5417 80.7913 54.5417 80.718L55.468 54.1578C55.468 54.0215 55.5943 53.9062 55.7311 53.9062H144.469C144.606 53.9062 144.733 54.0215 144.733 54.1578L145.575 80.718C145.575 80.7913 145.554 80.8542 145.501 80.9066C145.448 80.959 145.385 80.9905 145.311 80.9905H141.554C141.428 80.9905 141.322 80.9066 141.301 80.7809C139.48 72.5319 137.154 67.092 134.376 64.6288C131.597 62.1657 125.64 60.9184 116.651 60.9184H108.178V140.63C108.178 146.542 109.094 150.231 110.904 151.615C112.652 152.946 116.483 153.858 122.293 154.33H124.019C124.166 154.33 124.282 154.445 124.282 154.592V157.851C124.282 158.019 124.166 158.134 124.019 158.134ZM77.3078 157.61H123.756V154.875H122.272C116.251 154.382 112.431 153.46 110.578 152.045C108.599 150.535 107.642 146.804 107.642 140.641V60.6668C107.642 60.5201 107.757 60.4048 107.905 60.4048H116.641C125.756 60.4048 131.839 61.694 134.712 64.2515C137.554 66.7775 139.922 72.2384 141.764 80.4769H145.038L144.206 54.4408H55.9837L55.0785 80.4769H58.4256C60.0149 72.1755 62.4146 66.7042 65.5617 64.1991C68.7403 61.6835 74.7607 60.4048 83.4651 60.4048H92.2747C92.4221 60.4048 92.5379 60.5201 92.5379 60.6668V138.817C92.5379 145.682 91.7064 149.875 90.0118 151.604C88.3909 153.261 84.5492 154.33 78.2551 154.875H77.3078V157.61Z" fill="black"/>
<path d="M22.5345 115.936C22.9345 115.989 23.2187 116.355 23.166 116.754L17.3456 161.51C17.2929 161.908 16.9246 162.191 16.5246 162.139L6.66245 160.87C6.26249 160.818 5.97831 160.451 6.03094 160.053L11.8514 115.297C11.904 114.898 12.2724 114.615 12.6724 114.668L22.5345 115.936Z" fill="#FFFBF3"/>
<path d="M16.6194 162.306C16.5772 162.306 16.5457 162.306 16.5036 162.296L6.64142 161.028C6.14674 160.965 5.80993 160.514 5.87308 160.032L11.6935 115.276C11.7251 115.035 11.8409 114.825 12.0303 114.689C12.2198 114.553 12.4514 114.479 12.6934 114.511L22.5556 115.779C23.0397 115.842 23.3871 116.293 23.3239 116.775L17.5035 161.531C17.4508 161.981 17.0614 162.306 16.6194 162.306ZM12.5777 114.815C12.4514 114.815 12.3251 114.857 12.2303 114.93C12.104 115.024 12.0303 115.16 12.0093 115.318L6.18884 160.074C6.14674 160.388 6.36777 160.682 6.68352 160.724L16.5457 161.992C16.8614 162.034 17.1561 161.814 17.1982 161.489L23.0187 116.733C23.0608 116.418 22.8398 116.125 22.524 116.083L12.6619 114.815C12.6198 114.815 12.5987 114.815 12.5777 114.815Z" fill="black"/>
<path d="M12.3146 157.841C12.9566 157.925 13.4092 158.501 13.325 159.141C13.2408 159.78 12.6619 160.231 12.0199 160.147C11.3779 160.063 10.9253 159.487 11.0095 158.847C11.0937 158.208 11.6726 157.757 12.3146 157.841Z" fill="#E5E1D8"/>
<path d="M12.1672 160.315C12.1146 160.315 12.0514 160.315 11.9988 160.304C11.6515 160.262 11.3357 160.084 11.1147 159.801C10.8936 159.518 10.8094 159.172 10.8515 158.826C10.9463 158.103 11.6094 157.6 12.3356 157.684C13.0618 157.778 13.5776 158.439 13.4829 159.162C13.3881 159.822 12.8198 160.315 12.1672 160.315ZM12.1672 157.988C11.6725 157.988 11.2304 158.355 11.1673 158.858C11.1357 159.12 11.1989 159.392 11.3673 159.602C11.5357 159.812 11.7672 159.948 12.0409 159.99C12.5987 160.063 13.1039 159.675 13.1671 159.12C13.2408 158.575 12.8513 158.061 12.2935 157.998C12.2514 157.988 12.2093 157.988 12.1672 157.988Z" fill="black"/>
<path d="M12.3869 116.842L11.2035 125.937L21.0673 127.21L22.2507 118.115L12.3869 116.842Z" fill="#69EDAB"/>
<path d="M21.0715 127.371C21.061 127.371 21.061 127.371 21.0505 127.371L11.1883 126.103C11.1462 126.093 11.1041 126.072 11.0831 126.04C11.062 126.009 11.041 125.967 11.0515 125.925L12.2303 116.827C12.2409 116.743 12.3251 116.68 12.4093 116.691L22.2714 117.959C22.3135 117.97 22.3556 117.991 22.3767 118.022C22.3977 118.053 22.4188 118.095 22.4082 118.137L21.2294 127.235C21.2084 127.309 21.1452 127.371 21.0715 127.371ZM11.3778 125.81L20.9347 127.047L22.082 118.263L12.525 117.026L11.3778 125.81Z" fill="black"/>
<path d="M9.82552 136.493L8.64209 145.588L18.5059 146.861L19.6893 137.766L9.82552 136.493Z" fill="#35AA6A"/>
<path d="M18.5139 147.014C18.5033 147.014 18.5033 147.014 18.4928 147.014L8.63065 145.746C8.54645 145.735 8.4833 145.651 8.49382 145.567L9.67265 136.469C9.68318 136.386 9.76738 136.323 9.85158 136.333L19.7137 137.601C19.7558 137.612 19.7979 137.633 19.819 137.664C19.84 137.696 19.8611 137.738 19.8506 137.78L18.6717 146.878C18.6612 146.92 18.6402 146.961 18.6086 146.982C18.577 147.003 18.5454 147.014 18.5139 147.014ZM8.82011 145.452L18.3665 146.689L19.5138 137.905L9.95683 136.669L8.82011 145.452Z" fill="black"/>
<path d="M11.1056 126.674L9.92212 135.769L19.7859 137.042L20.9694 127.946L11.1056 126.674Z" fill="#3EC67F"/>
<path d="M19.7874 137.193C19.7769 137.193 19.7769 137.193 19.7664 137.193L9.90421 135.924C9.82001 135.914 9.75686 135.83 9.76738 135.746L10.9462 126.648C10.9567 126.564 11.0409 126.512 11.1251 126.512L20.9873 127.78C21.0294 127.791 21.0715 127.812 21.0925 127.843C21.1136 127.875 21.1346 127.916 21.1241 127.958L19.9453 137.056C19.9348 137.098 19.9137 137.14 19.8821 137.161C19.8611 137.182 19.819 137.193 19.7874 137.193ZM10.1042 135.631L19.6506 136.868L20.7978 128.084L11.2409 126.847L10.1042 135.631Z" fill="black"/>
<path d="M8.55477 146.323L7.37134 155.418L17.2351 156.691L18.4186 147.596L8.55477 146.323Z" fill="#26874F"/>
<path d="M17.2298 156.845C17.2193 156.845 17.2193 156.845 17.2087 156.845L7.34659 155.577C7.26239 155.567 7.19924 155.483 7.20977 155.399L8.38859 146.301C8.39912 146.217 8.4728 146.154 8.56752 146.165L18.4297 147.433C18.4718 147.443 18.5139 147.464 18.5349 147.496C18.556 147.527 18.577 147.569 18.5665 147.611L17.3877 156.709C17.3771 156.751 17.3561 156.793 17.3245 156.814C17.3035 156.835 17.2719 156.845 17.2298 156.845ZM7.54657 155.273L17.093 156.51L18.2402 147.726L8.6833 146.49L7.54657 155.273Z" fill="black"/>
<path d="M37.1541 122.225C37.5119 122.414 37.6488 122.854 37.4593 123.221L16.3878 163.176C16.1983 163.533 15.7563 163.669 15.3879 163.48L6.57826 158.879C6.2204 158.69 6.08357 158.25 6.27302 157.883L27.3446 117.928C27.534 117.571 27.9761 117.435 28.3445 117.624L37.1541 122.225Z" fill="#FFFBF3"/>
<path d="M15.7458 163.711C15.5984 163.711 15.4616 163.679 15.3353 163.606L6.52569 159.005C6.31518 158.889 6.1573 158.711 6.08363 158.481C6.00995 158.25 6.031 158.009 6.14678 157.799L27.2183 117.844C27.4499 117.414 27.9972 117.246 28.4287 117.466L37.2383 122.068C37.4488 122.183 37.6067 122.361 37.6804 122.592C37.7541 122.822 37.733 123.064 37.6172 123.273L16.5457 163.229C16.4299 163.438 16.251 163.596 16.0195 163.669C15.9247 163.7 15.83 163.711 15.7458 163.711ZM28.0077 117.687C27.7972 117.687 27.5972 117.802 27.492 117.99L6.43096 157.946C6.35728 158.082 6.34676 158.24 6.38886 158.386C6.43096 158.533 6.53621 158.648 6.67304 158.722L15.4827 163.323C15.6195 163.396 15.7774 163.407 15.9247 163.365C16.0721 163.323 16.1879 163.218 16.2615 163.082L37.3331 123.126C37.4067 122.99 37.4173 122.833 37.3752 122.686C37.3331 122.539 37.2278 122.414 37.091 122.351L28.2814 117.749C28.1866 117.707 28.1024 117.687 28.0077 117.687Z" fill="black"/>
<path d="M12.9566 157.978C13.525 158.271 13.746 158.973 13.4513 159.55C13.1566 160.116 12.4514 160.336 11.8725 160.043C11.3042 159.749 11.0831 159.047 11.3778 158.47C11.6831 157.904 12.3883 157.684 12.9566 157.978Z" fill="#E5E1D8"/>
<path d="M12.4093 160.325C12.1988 160.325 11.9883 160.273 11.7989 160.179C11.4831 160.011 11.2515 159.738 11.1463 159.403C11.041 159.068 11.0726 158.711 11.241 158.397C11.4094 158.082 11.6831 157.852 12.0199 157.747C12.3567 157.642 12.7146 157.674 13.0303 157.841C13.6724 158.177 13.925 158.973 13.5881 159.623C13.3566 160.074 12.8935 160.325 12.4093 160.325ZM12.4198 158.009C12.3146 158.009 12.2199 158.02 12.1146 158.051C11.862 158.135 11.6515 158.303 11.5252 158.544C11.3989 158.785 11.3778 159.057 11.4515 159.309C11.5357 159.56 11.7041 159.77 11.9462 159.896C12.4409 160.158 13.0514 159.959 13.304 159.476C13.5671 158.984 13.3671 158.376 12.883 158.124C12.7356 158.04 12.5777 158.009 12.4198 158.009Z" fill="black"/>
<path d="M27.3266 119.567L23.045 127.688L31.8515 132.293L36.1331 124.172L27.3266 119.567Z" fill="#69EDAB"/>
<path d="M31.8494 132.445C31.8283 132.445 31.7968 132.434 31.7757 132.424L22.9661 127.822C22.924 127.801 22.9029 127.77 22.8924 127.728C22.8819 127.686 22.8819 127.644 22.9029 127.613L27.1867 119.489C27.2288 119.416 27.3235 119.385 27.3972 119.426L36.2068 124.028C36.2489 124.049 36.27 124.08 36.2805 124.122C36.291 124.164 36.291 124.206 36.27 124.238L31.9862 132.361C31.9546 132.413 31.902 132.445 31.8494 132.445ZM23.2503 127.623L31.7757 132.078L35.9121 124.238L27.3867 119.783L23.2503 127.623Z" fill="black"/>
<path d="M18.061 137.105L13.7794 145.224L22.5849 149.829L26.8665 141.71L18.061 137.105Z" fill="#35AA6A"/>
<path d="M22.5977 149.99C22.5766 149.99 22.5451 149.98 22.524 149.969L13.7144 145.368C13.6723 145.347 13.6512 145.316 13.6407 145.274C13.6302 145.232 13.6302 145.19 13.6512 145.158L17.935 137.035C17.9771 136.962 18.0718 136.93 18.1455 136.972L26.9551 141.574C26.9972 141.595 27.0183 141.626 27.0288 141.668C27.0393 141.71 27.0393 141.752 27.0183 141.783L22.7345 149.907C22.7029 149.959 22.6503 149.99 22.5977 149.99ZM13.9986 145.158L22.524 149.613L26.6604 141.773L18.135 137.318L13.9986 145.158Z" fill="black"/>
<path d="M22.6973 128.332L18.4158 136.452L27.2223 141.057L31.5038 132.936L22.6973 128.332Z" fill="#3EC67F"/>
<path d="M27.2184 141.218C27.1973 141.218 27.1657 141.207 27.1447 141.197L18.3351 136.595C18.2614 136.553 18.2298 136.459 18.2719 136.386L22.5557 128.262C22.5767 128.22 22.6083 128.199 22.6504 128.189C22.6925 128.179 22.7346 128.179 22.7662 128.199L31.5758 132.801C31.6495 132.843 31.6811 132.937 31.639 133.011L27.3657 141.134C27.3447 141.176 27.3131 141.197 27.271 141.207C27.2499 141.218 27.2394 141.218 27.2184 141.218ZM18.6298 136.386L27.1552 140.84L31.2916 133L22.7662 128.545L18.6298 136.386Z" fill="black"/>
<path d="M13.4399 145.875L9.15833 153.994L17.9638 158.599L22.2454 150.479L13.4399 145.875Z" fill="#26874F"/>
<path d="M17.9772 158.764C17.9561 158.764 17.9245 158.753 17.9035 158.743L9.09385 154.141C9.02017 154.099 8.9886 154.005 9.0307 153.932L13.3145 145.809C13.3355 145.767 13.3671 145.746 13.4092 145.735C13.4513 145.725 13.4934 145.725 13.525 145.746L22.3346 150.347C22.4083 150.389 22.4399 150.483 22.3978 150.557L18.114 158.68C18.0929 158.722 18.0614 158.743 18.0193 158.753C18.0087 158.753 17.9877 158.764 17.9772 158.764ZM9.37803 153.932L17.9035 158.386L22.0399 150.546L13.5145 146.092L9.37803 153.932Z" fill="black"/>
<path d="M48.2056 133.063C48.4792 133.367 48.4582 133.828 48.1635 134.101L14.7142 164.549C14.409 164.822 13.9459 164.801 13.6723 164.507L6.95715 157.202C6.68349 156.898 6.70454 156.437 6.99925 156.164L40.4485 125.715C40.7537 125.443 41.2168 125.464 41.4905 125.757L48.2056 133.063Z" fill="#FFFBF3"/>
<path d="M14.209 164.895C13.967 164.895 13.7249 164.801 13.5459 164.602L6.83085 157.286C6.49404 156.919 6.52561 156.363 6.88347 156.028L40.3327 125.579C40.5116 125.422 40.7432 125.349 40.9747 125.349C41.2168 125.359 41.4378 125.464 41.5957 125.642L48.3108 132.958C48.4687 133.136 48.5529 133.357 48.5424 133.598C48.5318 133.839 48.4266 134.059 48.2477 134.216L14.8195 164.665C14.6406 164.822 14.4301 164.895 14.209 164.895ZM40.9432 125.674C40.7958 125.674 40.659 125.726 40.5537 125.82L7.11503 156.269C6.88347 156.479 6.86242 156.846 7.08345 157.087L13.7986 164.403C14.0091 164.633 14.3774 164.654 14.6195 164.434L48.0687 133.985C48.1845 133.881 48.2477 133.744 48.2582 133.587C48.2687 133.43 48.2161 133.283 48.1108 133.168L41.3957 125.852C41.2905 125.736 41.1537 125.674 40.9958 125.663C40.9642 125.674 40.9537 125.674 40.9432 125.674Z" fill="black"/>
<path d="M13.2407 158.512C13.6722 158.984 13.6407 159.717 13.167 160.158C12.6934 160.587 11.9566 160.556 11.5146 160.084C11.083 159.613 11.1146 158.879 11.5882 158.439C12.0724 157.999 12.8092 158.03 13.2407 158.512Z" fill="#E5E1D8"/>
<path d="M12.3881 160.608C12.0303 160.608 11.6724 160.462 11.4093 160.179C11.1672 159.917 11.0514 159.581 11.0619 159.225C11.083 158.869 11.2303 158.544 11.4935 158.313C12.0303 157.82 12.8723 157.862 13.367 158.397C13.8617 158.931 13.8195 159.77 13.2828 160.263C13.0196 160.493 12.7039 160.608 12.3881 160.608ZM12.3776 158.292C12.1355 158.292 11.8934 158.376 11.6935 158.554C11.4935 158.732 11.3777 158.984 11.3672 159.246C11.3566 159.518 11.4514 159.77 11.6303 159.969C12.0092 160.378 12.6407 160.409 13.0512 160.032C13.4617 159.655 13.4933 159.026 13.1144 158.617C12.9249 158.397 12.6512 158.292 12.3776 158.292Z" fill="black"/>
<path d="M39.8522 127.237L33.0546 133.425L39.7654 140.736L46.563 134.548L39.8522 127.237Z" fill="#69EDAB"/>
<path d="M39.7748 140.893C39.7222 140.893 39.6906 140.872 39.659 140.84L32.9439 133.524C32.8808 133.461 32.8913 133.356 32.9544 133.304L39.7537 127.12C39.8169 127.057 39.9222 127.067 39.9748 127.13L46.6899 134.446C46.7215 134.478 46.732 134.52 46.732 134.562C46.732 134.604 46.7109 134.646 46.6794 134.667L39.8801 140.851C39.8485 140.882 39.8169 140.893 39.7748 140.893ZM33.2807 133.43L39.7748 140.505L46.3425 134.53L39.8485 127.455L33.2807 133.43Z" fill="black"/>
<path d="M25.1738 140.61L18.3762 146.798L25.087 154.109L31.8846 147.921L25.1738 140.61Z" fill="#35AA6A"/>
<path d="M25.0922 154.257C25.0396 154.257 25.008 154.236 24.9764 154.204L18.2613 146.888C18.1981 146.825 18.2087 146.721 18.2718 146.668L25.0711 140.484C25.1027 140.453 25.1448 140.442 25.1869 140.442C25.229 140.442 25.2711 140.463 25.2922 140.495L32.0073 147.811C32.0388 147.842 32.0494 147.884 32.0494 147.926C32.0494 147.968 32.0283 148.01 31.9967 148.031L25.1974 154.215C25.1659 154.246 25.1343 154.257 25.0922 154.257ZM18.5981 146.804L25.0922 153.879L31.6599 147.905L25.1659 140.83L18.5981 146.804Z" fill="black"/>
<path d="M32.5091 133.912L25.7124 140.1L32.4232 147.41L39.2199 141.222L32.5091 133.912Z" fill="#3EC67F"/>
<path d="M32.4282 147.58C32.3756 147.58 32.344 147.559 32.3125 147.528L25.5974 140.212C25.5342 140.149 25.5447 140.044 25.6079 139.991L32.4072 133.807C32.4388 133.776 32.4809 133.765 32.523 133.765C32.5651 133.765 32.6072 133.786 32.6282 133.818L39.3433 141.134C39.4065 141.197 39.3959 141.302 39.3328 141.354L32.5335 147.538C32.5124 147.559 32.4703 147.58 32.4282 147.58ZM25.9447 140.117L32.4388 147.192L39.0065 141.218L32.5124 134.143L25.9447 140.117Z" fill="black"/>
<path d="M17.8279 147.289L11.0303 153.477L17.7411 160.787L24.5387 154.6L17.8279 147.289Z" fill="#26874F"/>
<path d="M17.7455 160.944C17.7034 160.944 17.6613 160.923 17.6298 160.891L10.9147 153.575C10.8831 153.544 10.8726 153.502 10.8726 153.46C10.8726 153.418 10.8936 153.376 10.9252 153.355L17.7245 147.171C17.7876 147.108 17.8824 147.119 17.9455 147.182L24.6606 154.498C24.6922 154.529 24.7027 154.571 24.7027 154.613C24.7027 154.655 24.6817 154.697 24.6501 154.718L17.8508 160.902C17.8192 160.933 17.7876 160.944 17.7455 160.944ZM11.262 153.481L17.7561 160.556L24.3238 154.582L17.8297 147.507L11.262 153.481Z" fill="black"/>
<path d="M51.4053 138.042C51.6368 138.377 51.5526 138.828 51.2158 139.058L13.9249 164.707C13.5881 164.937 13.1355 164.853 12.9039 164.518L7.25187 156.363C7.02031 156.028 7.10452 155.577 7.44132 155.347L44.7323 129.698C45.0691 129.468 45.5216 129.552 45.7532 129.887L51.4053 138.042Z" fill="#FFFBF3"/>
<path d="M13.5144 165C13.2303 165 12.9461 164.864 12.7777 164.612L7.12562 156.458C6.98879 156.259 6.93616 156.028 6.97826 155.787C7.02036 155.556 7.15719 155.347 7.34665 155.21L44.6376 129.562C44.8376 129.426 45.0691 129.374 45.3112 129.415C45.5427 129.457 45.7532 129.594 45.8901 129.782L51.5421 137.937C51.679 138.136 51.7316 138.367 51.6895 138.608C51.6474 138.838 51.5106 139.048 51.3211 139.184L14.0302 164.832C13.8723 164.948 13.6934 165 13.5144 165ZM45.1533 129.73C45.0375 129.73 44.9218 129.761 44.827 129.835L7.5361 155.483C7.4098 155.567 7.3256 155.703 7.29402 155.85C7.26244 155.997 7.29402 156.154 7.38875 156.28L13.0408 164.434C13.2197 164.696 13.5881 164.759 13.8512 164.581L51.1422 138.933C51.2685 138.849 51.3527 138.713 51.3843 138.566C51.4158 138.419 51.3843 138.262 51.2895 138.136L45.6375 129.981C45.5533 129.856 45.4164 129.772 45.2691 129.74C45.2165 129.74 45.1849 129.73 45.1533 129.73Z" fill="black"/>
<path d="M13.304 158.533C13.6723 159.057 13.5355 159.78 13.0092 160.147C12.483 160.514 11.7567 160.378 11.3884 159.854C11.02 159.33 11.1568 158.607 11.6831 158.24C12.2093 157.873 12.9356 157.999 13.304 158.533Z" fill="#E5E1D8"/>
<path d="M12.3462 160.504C12.262 160.504 12.1883 160.493 12.1041 160.483C11.7568 160.42 11.4515 160.221 11.2515 159.938C11.0516 159.644 10.9779 159.298 11.041 158.952C11.1042 158.606 11.3042 158.303 11.5883 158.103C11.8831 157.904 12.2304 157.831 12.5777 157.894C12.9251 157.957 13.2303 158.156 13.4303 158.439C13.6302 158.732 13.7039 159.078 13.6408 159.424C13.5776 159.77 13.3776 160.074 13.0935 160.273C12.8724 160.43 12.6093 160.504 12.3462 160.504ZM12.3462 158.187C12.1462 158.187 11.9462 158.25 11.7778 158.365C11.3147 158.68 11.2094 159.309 11.5252 159.759C11.6831 159.98 11.9041 160.126 12.1778 160.179C12.4409 160.231 12.7145 160.168 12.9356 160.021C13.3987 159.707 13.5039 159.078 13.1882 158.627C13.0303 158.407 12.8093 158.261 12.5356 158.208C12.4619 158.187 12.3988 158.187 12.3462 158.187Z" fill="black"/>
<path d="M43.9293 131.157L36.3507 136.368L42.0022 144.519L49.5808 139.308L43.9293 131.157Z" fill="#69EDAB"/>
<path d="M42.0168 144.666C41.9642 144.666 41.9221 144.645 41.8905 144.603L36.2384 136.449C36.2174 136.417 36.2069 136.375 36.2174 136.333C36.2279 136.291 36.249 136.26 36.2805 136.228L43.8587 131.019C43.9324 130.967 44.0271 130.988 44.0797 131.061L49.7318 139.216C49.7528 139.247 49.7634 139.289 49.7528 139.331C49.7423 139.373 49.7213 139.404 49.6897 139.436L42.1115 144.645C42.0694 144.656 42.0378 144.666 42.0168 144.666ZM36.5752 136.396L42.0484 144.289L49.3634 139.258L43.8903 131.365L36.5752 136.396Z" fill="black"/>
<path d="M27.5692 142.397L19.9916 147.609L25.6441 155.759L33.2217 150.546L27.5692 142.397Z" fill="#35AA6A"/>
<path d="M25.6395 155.923C25.629 155.923 25.6185 155.923 25.608 155.923C25.5658 155.913 25.5343 155.892 25.5027 155.86L19.8506 147.706C19.798 147.632 19.8191 147.538 19.8927 147.485L27.4709 142.276C27.5446 142.224 27.6393 142.245 27.6919 142.318L33.344 150.473C33.3651 150.504 33.3756 150.546 33.3651 150.588C33.3545 150.63 33.3335 150.661 33.3019 150.693L25.7237 155.902C25.7027 155.913 25.6711 155.923 25.6395 155.923ZM20.2085 147.653L25.6816 155.546L32.9967 150.515L27.5235 142.622L20.2085 147.653Z" fill="black"/>
<path d="M35.7565 136.766L28.1788 141.979L33.8313 150.128L41.409 144.916L35.7565 136.766Z" fill="#3EC67F"/>
<path d="M33.8281 150.295C33.8176 150.295 33.8071 150.295 33.7966 150.295C33.7544 150.284 33.7229 150.263 33.6913 150.232L28.0392 142.077C27.9866 142.004 28.0077 141.909 28.0813 141.857L35.6595 136.648C35.7332 136.595 35.8279 136.616 35.8805 136.69L41.5326 144.844C41.5536 144.876 41.5642 144.918 41.5536 144.96C41.5431 145.002 41.5221 145.033 41.4905 145.064L33.9123 150.274C33.8913 150.284 33.8597 150.295 33.8281 150.295ZM28.3971 142.025L33.8702 149.917L41.1853 144.886L35.7121 136.994L28.3971 142.025Z" fill="black"/>
<path d="M19.3942 148.035L11.8157 153.247L17.4682 161.398L25.0468 156.186L19.3942 148.035Z" fill="#26874F"/>
<path d="M17.4614 161.552C17.4087 161.552 17.3666 161.531 17.3351 161.489L11.683 153.334C11.662 153.303 11.6514 153.261 11.662 153.219C11.6725 153.177 11.6935 153.146 11.7251 153.114L19.3033 147.905C19.377 147.852 19.4717 147.873 19.5243 147.947L25.1764 156.101C25.1974 156.133 25.208 156.175 25.1974 156.217C25.1869 156.259 25.1658 156.29 25.1343 156.322L17.5561 161.531C17.514 161.541 17.4824 161.552 17.4614 161.552ZM12.0198 153.282L17.4929 161.174L24.808 156.143L19.3349 148.251L12.0198 153.282Z" fill="black"/>
<path d="M132.376 15.6071C128.65 17.8291 122.124 22.986 121.872 23.1747C117.262 26.686 118.809 31.0149 118.809 31.0149C120.661 36.7483 123.461 43.7919 123.493 43.8023C125.271 44.6828 127.197 41.2134 127.271 37.6916C127.303 36.2452 126.229 33.2579 125.482 31.0463C125.398 30.8053 125.219 29.9458 126.124 29.3378C128.439 27.7866 133.628 24.2962 133.628 24.2962C133.628 24.2962 134.533 38.3519 136.165 40.2072C141.733 46.4961 142.333 39.746 142.333 39.746L145.49 36.2871C149.837 36.3081 153.321 36.2871 156.847 36.2871C165.499 36.2871 166.625 31.6857 166.625 31.6857H180.824L180.876 13.3955H141.954C141.954 13.4059 136.607 13.0705 132.376 15.6071Z" fill="white"/>
<path d="M124.061 44.2111C123.829 44.2111 123.598 44.1587 123.366 44.0434C123.093 43.9072 119.809 34.9874 118.556 31.0987C118.546 31.0568 116.998 26.5602 121.703 22.9651L121.882 22.8288C124.461 20.8164 129.239 17.1688 132.239 15.3765C136.502 12.8295 141.754 13.1229 141.975 13.1334H180.887C180.96 13.1334 181.024 13.1649 181.076 13.2068C181.129 13.2592 181.15 13.3221 181.15 13.3955L181.097 31.6857C181.097 31.8325 180.981 31.9477 180.834 31.9477H166.825C166.499 32.8701 164.678 36.5596 156.847 36.5596H153.395C151.006 36.5596 148.501 36.5701 145.617 36.5596L142.596 39.8613C142.533 40.3434 142.196 42.576 140.712 43.0582C139.501 43.4565 137.902 42.555 135.976 40.3854C134.449 38.6559 133.576 27.252 133.397 24.7679L126.271 29.558C125.503 30.0716 125.671 30.7633 125.734 30.973L125.987 31.7276C126.724 33.8973 127.555 36.3709 127.524 37.7021C127.471 40.4063 126.366 43.0896 124.966 43.9386C124.671 44.1168 124.366 44.2111 124.061 44.2111ZM123.693 43.6137C124.019 43.7395 124.356 43.6975 124.703 43.4879C125.945 42.7332 126.955 40.1862 127.008 37.6916C127.029 36.4443 126.177 33.9183 125.492 31.8953L125.24 31.1302C125.166 30.9206 124.882 29.8619 125.987 29.1177L133.492 24.0761C133.565 24.0237 133.67 24.0132 133.755 24.0552C133.839 24.0971 133.892 24.1809 133.902 24.2753C134.155 28.1639 135.081 38.5721 136.375 40.029C138.123 41.9995 139.565 42.88 140.543 42.555C141.849 42.1253 142.08 39.746 142.08 39.725C142.08 39.6726 142.112 39.6097 142.143 39.5678L145.301 36.1089C145.353 36.0565 145.417 36.0251 145.501 36.0251C148.437 36.0355 150.974 36.0355 153.395 36.0251H156.858C165.173 36.0251 166.372 31.6647 166.383 31.6123C166.414 31.497 166.52 31.4132 166.636 31.4132H180.581L180.634 13.647H141.975C141.901 13.647 136.639 13.3535 132.523 15.8167C129.555 17.5881 124.798 21.2252 122.219 23.2271L122.04 23.3634C117.641 26.707 119.009 30.7424 119.072 30.9101C120.809 36.35 123.345 42.8066 123.693 43.6137Z" fill="black"/>
<path d="M138.765 42.5549L142.08 44.6198C142.08 44.6198 145.09 46.5379 147.238 43.2886C148.522 41.3391 151.553 36.3499 151.553 36.3499C151.553 36.3499 153.647 33.3102 150.974 31.6437C148.248 29.9457 145.985 33.3626 145.985 33.3626L138.765 42.5549Z" fill="white"/>
<path d="M144.122 45.427C142.901 45.427 141.954 44.84 141.933 44.8295L138.617 42.7647C138.554 42.7227 138.512 42.6599 138.502 42.5865C138.491 42.5131 138.512 42.4397 138.554 42.3769L145.764 33.1846C145.775 33.1636 148.195 29.5894 151.1 31.4027C151.879 31.8849 152.353 32.5347 152.521 33.3103C152.847 34.8721 151.795 36.4024 151.753 36.4758C151.732 36.5177 148.722 41.4754 147.448 43.4145C146.406 45.0077 145.164 45.427 144.122 45.427ZM139.144 42.4817L142.206 44.3893C142.322 44.4627 145.038 46.1292 146.995 43.142C148.258 41.2134 151.269 36.2557 151.3 36.2032C151.321 36.1718 152.269 34.7673 151.995 33.4256C151.858 32.7863 151.469 32.2622 150.816 31.8534C148.343 30.3126 146.269 33.3732 146.185 33.499L139.144 42.4817Z" fill="black"/>
<path d="M131.639 28.2583C131.639 28.2583 128.766 32.8282 129.208 34.935C130.039 38.897 134.028 41.6327 134.028 41.6327C134.028 41.6327 136.944 46.601 140.922 42.8695C142.691 41.2135 145.164 38.2367 145.164 38.2367C145.164 38.2367 146.659 36.8322 145.827 35.1761C143.722 30.973 137.765 35.8364 137.765 35.8364L131.639 28.2583Z" fill="white"/>
<path d="M137.944 44.5256C137.775 44.5256 137.607 44.5151 137.438 44.4941C135.386 44.2007 134.049 42.1777 133.828 41.8214C133.355 41.4859 129.755 38.8132 128.945 34.9874C128.481 32.8073 131.281 28.3107 131.408 28.122C131.45 28.0486 131.534 28.0067 131.618 27.9962C131.702 27.9858 131.786 28.0277 131.839 28.0906L137.807 35.4696C138.617 34.8511 141.554 32.7863 143.89 33.2789C144.838 33.4781 145.574 34.0755 146.059 35.0608C146.964 36.8636 145.353 38.4149 145.343 38.4253C145.343 38.4358 142.869 41.4126 141.101 43.0582C140.07 44.033 139.017 44.5256 137.944 44.5256ZM131.671 28.7195C131.039 29.7781 129.124 33.216 129.471 34.8826C130.271 38.6979 134.144 41.3916 134.186 41.4231C134.218 41.444 134.249 41.4755 134.26 41.5069C134.27 41.5279 135.565 43.6975 137.523 43.9701C138.586 44.1273 139.67 43.6871 140.743 42.6808C142.48 41.0562 144.932 38.1004 144.953 38.069C145.027 37.9956 146.322 36.7483 145.585 35.2914C145.164 34.4528 144.575 33.9602 143.775 33.7925C141.333 33.2684 137.965 36.0146 137.933 36.046C137.881 36.088 137.817 36.1089 137.744 36.1089C137.67 36.0984 137.607 36.067 137.565 36.0146L131.671 28.7195Z" fill="black"/>
<path d="M122.251 51.7263C122.398 51.7997 122.577 51.7997 122.714 51.7053L123.924 50.9507C124.229 50.762 124.471 50.5 124.629 50.1855L148.816 3.39605C148.879 3.27027 148.711 2.76715 148.595 2.70427L146.017 1.38359C145.764 1.25782 145.448 1.35215 145.322 1.60371L121.135 48.3932C120.977 48.7076 120.903 49.064 120.924 49.4099L121.019 50.8249C121.03 50.9926 121.124 51.1393 121.272 51.2127L122.251 51.7263Z" fill="#DDDDDD"/>
<path d="M122.461 52.0408C122.345 52.0408 122.23 52.0094 122.124 51.957L121.135 51.4434C120.903 51.3281 120.756 51.0975 120.735 50.8459L120.64 49.4309C120.619 49.0326 120.703 48.6343 120.882 48.2779L145.069 1.48846C145.164 1.29979 145.322 1.16353 145.522 1.10065C145.722 1.03776 145.932 1.05872 146.111 1.15305L148.69 2.47372C148.816 2.53661 148.922 2.69384 149.006 2.95587C149.09 3.20743 149.09 3.3961 149.027 3.52188L124.861 50.3114C124.682 50.6677 124.398 50.9717 124.061 51.1813L122.851 51.936C122.735 52.0094 122.598 52.0408 122.461 52.0408ZM122.366 51.4958C122.43 51.5272 122.514 51.5272 122.566 51.4853L123.777 50.7306C124.04 50.5734 124.25 50.3428 124.387 50.0703L148.574 3.27032C148.564 3.22839 148.48 2.96636 148.427 2.90347L145.88 1.60376C145.817 1.57231 145.753 1.57231 145.69 1.5828C145.627 1.60376 145.575 1.64568 145.543 1.70857L121.356 48.4981C121.219 48.7706 121.156 49.0745 121.167 49.3785L121.261 50.7935C121.261 50.8669 121.303 50.9298 121.377 50.9612L122.366 51.4958Z" fill="black"/>
<path d="M154.511 28.4363C154.458 28.4363 154.426 28.4363 154.426 28.4363L146.68 28.4887C146.68 28.4887 139.817 36.0563 136.902 39.4104C135.018 41.5801 132.639 43.1733 130.545 42.209C127.44 40.7835 128.65 38.6033 128.65 38.6033L136.649 25.6272C139.102 22.1159 149.627 13.4163 157.184 13.4163" fill="white"/>
<path d="M131.871 42.7541C131.376 42.7541 130.892 42.6493 130.439 42.4396C129.282 41.9051 128.555 41.2133 128.282 40.3643C127.945 39.3476 128.408 38.5091 128.418 38.4671L136.418 25.4805C139.049 21.7072 149.606 13.1438 157.173 13.1438C157.321 13.1438 157.437 13.2591 157.437 13.4058C157.437 13.5526 157.321 13.6679 157.173 13.6679C149.9 13.6679 139.365 22.1789 136.86 25.7635L128.871 38.7292C128.871 38.7292 128.513 39.4105 128.776 40.2071C129.008 40.8988 129.639 41.4963 130.65 41.9575C132.934 43.0161 135.418 40.6997 136.702 39.2218C139.575 35.9096 146.406 28.3734 146.48 28.3001C146.532 28.2477 146.596 28.2162 146.669 28.2162L154.416 28.1638H154.511C154.658 28.1743 154.774 28.2896 154.763 28.4363C154.753 28.5831 154.668 28.6879 154.489 28.6879H154.405L146.785 28.7403C146.017 29.5893 139.796 36.4547 137.091 39.5782C135.291 41.6745 133.481 42.7541 131.871 42.7541Z" fill="black"/>
<path d="M181.024 35.0189C181.024 35.3752 180.739 35.6582 180.382 35.6582L170.277 35.6268C169.919 35.6268 169.635 35.3438 169.635 34.9874L169.698 12.6303C169.698 12.274 169.993 11.991 170.34 11.991L180.445 12.0224C180.803 12.0224 181.087 12.3159 181.087 12.6618L181.024 35.0189Z" fill="#E8F2FC"/>
<path d="M180.381 35.9203L170.267 35.8889C169.772 35.8889 169.362 35.4801 169.362 34.9875L169.425 12.6304C169.425 12.3893 169.519 12.1587 169.688 11.991C169.856 11.8233 170.088 11.729 170.319 11.729L180.424 11.7604C180.918 11.7604 181.329 12.1692 181.329 12.6619L181.255 35.0189C181.287 35.5116 180.876 35.9203 180.381 35.9203ZM170.34 12.2531C170.235 12.2531 170.151 12.295 170.077 12.3579C170.004 12.4313 169.962 12.5256 169.962 12.6199L169.898 34.977C169.898 35.1866 170.067 35.3543 170.277 35.3543L180.381 35.3858C180.592 35.3858 180.76 35.2181 180.76 35.0084L180.834 12.6514C180.834 12.4417 180.666 12.274 180.455 12.274L170.34 12.2531Z" fill="black"/>
<path d="M205.653 39.3057L178.792 39.2428C178.434 39.2428 178.15 38.9598 178.15 38.6035L178.234 11.9699C178.234 11.6136 178.529 11.3306 178.876 11.3306L205.737 11.3935L205.653 39.3057Z" fill="#16A865"/>
<path d="M205.653 39.5678L178.792 39.505C178.55 39.505 178.318 39.4106 178.15 39.2429C177.982 39.0752 177.887 38.8446 177.887 38.6035L177.971 11.97C177.971 11.7289 178.066 11.5088 178.234 11.3306C178.403 11.1629 178.634 11.0686 178.876 11.0686L205.737 11.1315C205.81 11.1315 205.874 11.1629 205.926 11.2049C205.979 11.2468 206 11.3202 206 11.3935L205.916 39.3058C205.916 39.4525 205.8 39.5678 205.653 39.5678ZM178.876 11.5927C178.771 11.5927 178.676 11.6346 178.613 11.6975C178.54 11.7709 178.497 11.8652 178.497 11.9595L178.413 38.5931C178.413 38.6979 178.455 38.7922 178.518 38.8551C178.592 38.9285 178.687 38.9704 178.782 38.9704L205.379 39.0333L205.463 11.6451L178.876 11.5927Z" fill="black"/>
<path d="M182.55 35.3438C182.55 36.2871 183.307 37.0522 184.255 37.0522C185.202 37.0522 185.97 36.2976 185.97 35.3542C185.97 34.4109 185.213 33.6458 184.265 33.6458C183.329 33.6458 182.56 34.4004 182.55 35.3438Z" fill="white"/>
<path d="M184.265 37.3144C183.728 37.3144 183.234 37.1047 182.865 36.7379C182.497 36.3605 182.286 35.8679 182.286 35.3438C182.286 34.8198 182.497 34.3271 182.865 33.9498C183.234 33.5829 183.728 33.3838 184.255 33.3838C184.781 33.4152 185.286 33.5934 185.655 33.9603C186.023 34.3376 186.233 34.8302 186.233 35.3543C186.244 36.4444 185.349 37.3144 184.265 37.3144ZM182.55 35.3438H182.813C182.813 35.7316 182.96 36.088 183.234 36.3605C183.507 36.6331 183.865 36.7903 184.255 36.7903C185.055 36.7903 185.697 36.1404 185.707 35.3543C185.707 34.9665 185.56 34.6101 185.286 34.3376C185.013 34.0651 184.655 33.9183 184.265 33.9079C184.265 33.9079 184.265 33.9079 184.255 33.9079C183.865 33.9079 183.507 34.0546 183.234 34.3271C182.96 34.5996 182.802 34.956 182.802 35.3438H182.55Z" fill="black"/>
<path d="M187.718 35.3438C187.718 36.2871 188.475 37.0522 189.423 37.0522C190.37 37.0522 191.138 36.2976 191.138 35.3542C191.138 34.4109 190.381 33.6458 189.433 33.6458C188.486 33.6458 187.718 34.4004 187.718 35.3438Z" fill="white"/>
<path d="M189.433 37.3144C189.423 37.3144 189.423 37.3144 189.433 37.3144C188.896 37.3144 188.402 37.1047 188.033 36.7379C187.665 36.3605 187.454 35.8679 187.454 35.3438C187.454 34.8198 187.665 34.3271 188.033 33.9498C188.402 33.5829 188.896 33.3838 189.423 33.3838C189.423 33.3838 189.423 33.3838 189.433 33.3838C189.959 33.3838 190.454 33.5934 190.823 33.9603C191.191 34.3376 191.401 34.8302 191.401 35.3543C191.401 35.8784 191.191 36.371 190.823 36.7484C190.454 37.1152 189.959 37.3144 189.433 37.3144ZM187.718 35.3438H187.981C187.981 35.7316 188.128 36.088 188.402 36.3605C188.675 36.6331 189.033 36.7903 189.423 36.7903C189.812 36.7903 190.17 36.6435 190.444 36.371C190.717 36.0985 190.875 35.7421 190.875 35.3543C190.875 34.9665 190.728 34.6101 190.454 34.3271C190.18 34.0546 189.823 33.9079 189.433 33.8974C189.433 33.8974 189.433 33.8974 189.423 33.8974C189.033 33.8974 188.675 34.0441 188.402 34.3166C188.128 34.5892 187.97 34.9455 187.97 35.3333L187.718 35.3438Z" fill="black"/>
<path d="M192.875 35.3438C192.875 36.2871 193.633 37.0522 194.58 37.0522C195.527 37.0522 196.296 36.2976 196.296 35.3542C196.296 34.4109 195.538 33.6458 194.59 33.6458C193.654 33.6458 192.885 34.4004 192.875 35.3438Z" fill="white"/>
<path d="M194.591 37.3144C194.054 37.3144 193.559 37.1047 193.191 36.7379C192.822 36.3605 192.612 35.8679 192.622 35.3438C192.622 34.8198 192.833 34.3271 193.201 33.9498C193.57 33.5829 194.064 33.3838 194.591 33.3838C194.591 33.3838 194.591 33.3838 194.601 33.3838C195.127 33.3838 195.622 33.5934 196.001 33.9603C196.38 34.3271 196.58 34.8302 196.58 35.3543C196.58 35.8784 196.369 36.371 196.001 36.7484C195.612 37.1152 195.117 37.3144 194.591 37.3144ZM194.591 33.9079C194.201 33.9079 193.843 34.0546 193.57 34.3271C193.296 34.5996 193.138 34.956 193.138 35.3438C193.138 35.7316 193.285 36.088 193.559 36.3605C193.833 36.6331 194.191 36.7903 194.58 36.7903C194.969 36.7903 195.327 36.6435 195.601 36.371C195.875 36.0985 196.022 35.7421 196.033 35.3543C196.033 34.9665 195.885 34.6101 195.612 34.3376C195.348 34.0546 194.969 33.9079 194.591 33.9079Z" fill="black"/>
<path d="M121.019 53.4978C120.977 53.4978 120.946 53.4874 120.903 53.4769C120.777 53.414 120.714 53.2568 120.777 53.131L121.577 51.4749C121.64 51.3491 121.798 51.2862 121.924 51.3491C122.051 51.412 122.114 51.5692 122.051 51.695L121.251 53.3511C121.209 53.4454 121.124 53.4978 121.019 53.4978Z" fill="black"/>
<path d="M70.7611 25.9732C70.7611 19.3174 63.3829 13.9089 54.2891 13.9089C45.1953 13.9089 37.8171 19.3069 37.8171 25.9732C37.8171 32.2306 44.3323 37.377 52.6683 37.9745C56.4573 41.8422 63.3514 45.0286 67.7614 45.4897C64.4039 43.2781 62.6567 39.2847 61.8252 36.6853C67.1299 34.6728 70.7611 30.6374 70.7611 25.9732Z" fill="#36DD7D"/>
<path d="M67.7614 45.7623C67.7509 45.7623 67.7404 45.7623 67.7299 45.7623C63.5619 45.3221 56.5942 42.3244 52.5419 38.2366C43.9744 37.5867 37.533 32.325 37.533 25.9627C37.533 19.1602 45.048 13.626 54.2786 13.626C63.5093 13.626 71.0243 19.1602 71.0243 25.9627C71.0243 30.5327 67.6351 34.6833 62.162 36.8425C63.0777 39.5992 64.7933 43.2048 67.9088 45.2487C68.014 45.3221 68.0667 45.4583 68.0141 45.5736C67.9825 45.6889 67.8772 45.7623 67.7614 45.7623ZM54.2891 14.192C45.3637 14.192 38.1013 19.4747 38.1013 25.9732C38.1013 32.063 44.3744 37.1046 52.6893 37.6915C52.7525 37.6915 52.8261 37.723 52.8682 37.7754C56.4784 41.4649 62.5409 44.2634 66.6879 45.0496C63.9303 42.796 62.383 39.3686 61.5516 36.7692C61.5095 36.6329 61.5831 36.4757 61.72 36.4233C67.1194 34.3794 70.4664 30.3754 70.4664 25.9732C70.477 19.4747 63.2145 14.192 54.2891 14.192Z" fill="black"/>
<path d="M36.754 0.282959C25.4289 0.282959 16.2404 7.15883 16.2404 15.6489C16.2404 21.4975 20.6083 26.5916 27.0393 29.1805C25.8604 32.0524 23.8922 35.4694 20.7241 37.5552C25.0395 37.094 31.3441 34.4737 35.9752 30.9938C36.2383 31.0043 36.4909 31.0043 36.754 31.0043C48.0792 31.0043 57.2677 24.1284 57.2677 15.6384C57.2572 7.15883 48.0792 0.282959 36.754 0.282959Z" fill="white"/>
<path d="M20.7241 37.8278C20.6083 37.8278 20.5031 37.7544 20.461 37.6391C20.4189 37.5133 20.461 37.3876 20.5662 37.3142C23.6607 35.2703 25.5868 31.8953 26.6709 29.3273C20.0505 26.5706 15.9562 21.3404 15.9562 15.6384C15.9562 7.02261 25.2815 0 36.754 0C48.216 0 57.5414 7.02261 57.5414 15.6384C57.5414 24.2647 48.216 31.2768 36.754 31.2768C36.5225 31.2768 36.2909 31.2664 36.0699 31.2664C31.523 34.6519 25.2394 37.3456 20.7662 37.8278C20.7452 37.8278 20.7346 37.8278 20.7241 37.8278ZM36.754 0.55552C25.5973 0.55552 16.5245 7.32658 16.5245 15.6384C16.5245 21.1831 20.5978 26.2667 27.155 28.9185C27.2287 28.9499 27.2813 29.0024 27.3129 29.0652C27.3445 29.1386 27.3445 29.212 27.3129 29.2749C26.3235 31.6856 24.5869 34.9034 21.8082 37.115C26.113 36.3709 31.7019 33.8553 35.8173 30.7632C35.8699 30.7213 35.9331 30.7213 35.9962 30.7108H36.091C36.312 30.7213 36.5435 30.7213 36.7646 30.7213C47.9213 30.7213 56.9941 23.9503 56.9941 15.6384C56.9836 7.32658 47.9003 0.55552 36.754 0.55552Z" fill="#070500"/>
<path d="M28.8391 15.5965C28.8391 17.2106 27.5235 18.5208 25.9131 18.5208C24.2922 18.5208 22.9766 17.2106 22.9766 15.5965C22.9766 13.9823 24.2922 12.6721 25.9131 12.6721C27.534 12.6721 28.8391 13.9823 28.8391 15.5965Z" fill="#16A865"/>
<path d="M25.9131 18.7934C24.1448 18.7934 22.7029 17.3574 22.7029 15.5965C22.7029 13.8356 24.1448 12.3997 25.9131 12.3997C27.6813 12.3997 29.1233 13.8356 29.1233 15.5965C29.1233 17.3574 27.6813 18.7934 25.9131 18.7934ZM25.9131 12.9552C24.4501 12.9552 23.2607 14.1396 23.2607 15.5965C23.2607 17.0535 24.4501 18.2379 25.9131 18.2379C27.3761 18.2379 28.5654 17.0535 28.5654 15.5965C28.5654 14.1396 27.3761 12.9552 25.9131 12.9552Z" fill="black"/>
<path d="M39.9116 15.6697C39.9116 17.2839 38.596 18.594 36.9856 18.594C35.3647 18.594 34.0491 17.2839 34.0491 15.6697C34.0491 14.0556 35.3647 12.7454 36.9856 12.7454C38.6065 12.7454 39.9116 14.0556 39.9116 15.6697Z" fill="#16A865"/>
<path d="M36.9856 18.8666C35.2173 18.8666 33.7754 17.4307 33.7754 15.6698C33.7754 13.9089 35.2173 12.4729 36.9856 12.4729C38.7538 12.4729 40.1958 13.9089 40.1958 15.6698C40.1958 17.4307 38.7538 18.8666 36.9856 18.8666ZM36.9856 13.0284C35.5226 13.0284 34.3332 14.2128 34.3332 15.6698C34.3332 17.1267 35.5226 18.3111 36.9856 18.3111C38.4486 18.3111 39.6379 17.1267 39.6379 15.6698C39.6379 14.2128 38.4486 13.0284 36.9856 13.0284Z" fill="black"/>
<path d="M50.9948 15.6697C50.9948 17.2839 49.6791 18.594 48.0582 18.594C46.4374 18.594 45.1217 17.2839 45.1217 15.6697C45.1217 14.0556 46.4374 12.7454 48.0582 12.7454C49.6791 12.7454 50.9948 14.0556 50.9948 15.6697Z" fill="#16A865"/>
<path d="M48.0687 18.8666C46.3005 18.8666 44.8585 17.4307 44.8585 15.6698C44.8585 13.9089 46.3005 12.4729 48.0687 12.4729C49.837 12.4729 51.2789 13.9089 51.2789 15.6698C51.2789 17.4307 49.837 18.8666 48.0687 18.8666ZM48.0687 13.0284C46.6057 13.0284 45.4164 14.2128 45.4164 15.6698C45.4164 17.1267 46.6057 18.3111 48.0687 18.3111C49.5317 18.3111 50.7211 17.1267 50.7211 15.6698C50.7211 14.2128 49.5317 13.0284 48.0687 13.0284Z" fill="black"/>
<path d="M16.3562 78.2234C5.42044 78.2234 0.305176 86.2208 0.305176 86.2208C0.305176 86.2208 4.59947 94.2182 16.3562 94.2182C28.1129 94.2182 32.4072 86.2208 32.4072 86.2208C32.4072 86.2208 27.2919 78.2234 16.3562 78.2234Z" fill="white"/>
<path d="M16.3562 94.5222C4.55738 94.5222 0.0736309 86.4514 0.03153 86.3675C-0.0210962 86.2732 -0.0210962 86.1474 0.0420552 86.0531C0.0946814 85.9692 5.37835 77.9194 16.3562 77.9194C27.334 77.9194 32.6177 85.9797 32.6703 86.0531C32.7335 86.1474 32.7334 86.2627 32.6808 86.3675C32.6387 86.4409 28.1655 94.5222 16.3562 94.5222ZM0.67357 86.2313C1.35771 87.3423 5.85199 93.9037 16.3562 93.9037C26.8604 93.9037 31.3546 87.3423 32.0388 86.2313C31.2599 85.1307 26.1446 78.5274 16.3562 78.5274C6.5677 78.5274 1.45244 85.1307 0.67357 86.2313Z" fill="black"/>
<path d="M21.7977 86.221C21.7977 89.2082 19.3664 91.6295 16.3667 91.6295C13.367 91.6295 10.9357 89.2082 10.9357 86.221C10.9357 83.2338 13.367 80.8125 16.3667 80.8125C19.3559 80.8021 21.7977 83.2233 21.7977 86.221Z" fill="#16A865"/>
<path d="M16.3562 91.9334C13.1881 91.9334 10.6094 89.3654 10.6094 86.2105C10.6094 83.0555 13.1881 80.4875 16.3562 80.4875C19.5243 80.4875 22.1029 83.066 22.1029 86.2105C22.1029 89.3549 19.5243 91.9334 16.3562 91.9334ZM16.3562 81.1164C13.5249 81.1164 11.2304 83.4014 11.2304 86.2209C11.2304 89.0405 13.5249 91.3254 16.3562 91.3254C19.1874 91.3254 21.4819 89.0405 21.4819 86.2209C21.4819 83.4014 19.1874 81.1164 16.3562 81.1164Z" fill="black"/>
<path d="M16.2404 74.6808C16.072 74.6808 15.9352 74.5445 15.9352 74.3768V66.9978C15.9352 66.8301 16.072 66.6938 16.2404 66.6938C16.4088 66.6938 16.5456 66.8301 16.5456 66.9978V74.3768C16.5456 74.5445 16.4088 74.6808 16.2404 74.6808Z" fill="black"/>
<path d="M6.23089 77.8461C6.14669 77.8461 6.06249 77.8147 5.99934 77.7413L1.15772 72.1651C1.04195 72.0394 1.063 71.8402 1.1893 71.7249C1.3156 71.6096 1.51558 71.6306 1.63136 71.7564L6.47297 77.3325C6.58875 77.4583 6.5677 77.6574 6.4414 77.7727C6.37824 77.8147 6.30457 77.8461 6.23089 77.8461Z" fill="black"/>
<path d="M26.2394 77.8461C26.1657 77.8461 26.092 77.8252 26.0394 77.7727C25.9131 77.6574 25.892 77.4688 26.0078 77.3325L30.8494 71.7564C30.9652 71.6306 31.1547 71.6096 31.2915 71.7249C31.4178 71.8402 31.4388 72.0289 31.3231 72.1651L26.4815 77.7413C26.4078 77.8042 26.3236 77.8461 26.2394 77.8461Z" fill="black"/>
<path opacity="0.17" d="M187.486 142.444C187.486 138.073 191.044 134.52 195.443 134.52C199.832 134.52 203.4 138.063 203.4 142.444C203.4 146.815 199.843 150.368 195.443 150.368C191.044 150.368 187.486 146.815 187.486 142.444Z" fill="#20CE6E"/>
<path opacity="0.17" d="M154.489 144.488L172.677 163.145C173.035 163.512 173.551 163.658 174.045 163.543C174.54 163.428 174.94 163.061 175.098 162.579L185.518 129.866C185.697 129.31 185.518 128.713 185.076 128.336C184.802 128.105 184.465 127.99 184.129 127.99C183.907 127.99 183.686 128.042 183.486 128.136L154.879 142.182C154.458 142.381 154.174 142.779 154.089 143.23C154.026 143.691 154.163 144.163 154.489 144.488Z" fill="#20CE6E"/>
<path d="M156.068 150.483C156.068 150.493 156.068 150.504 156.068 150.504C156.068 150.535 156.068 150.577 156.068 150.619C156.068 150.63 156.068 150.63 156.079 150.64V150.651C156.079 150.651 156.079 150.661 156.089 150.661C156.121 150.745 156.173 150.818 156.258 150.871C156.268 150.871 156.268 150.881 156.279 150.881C156.289 150.881 156.289 150.892 156.3 150.892L179.371 160.985C179.413 161.006 179.455 161.006 179.487 161.017C179.497 161.017 179.508 161.006 179.518 161.006C179.561 161.006 179.613 160.975 179.655 160.975V160.985C179.687 160.975 179.708 160.965 179.74 160.954C179.75 160.944 179.761 160.944 179.771 160.933C179.782 160.923 179.782 160.923 179.792 160.912C179.824 160.881 179.845 160.849 179.866 160.807C179.866 160.797 179.866 160.797 179.876 160.786C179.887 160.755 179.897 160.713 179.908 160.671C179.908 160.661 179.908 160.65 179.908 160.64C179.908 160.629 179.908 160.629 179.908 160.619L179.14 127.371C179.14 127.361 179.14 127.35 179.14 127.34C179.14 127.329 179.14 127.308 179.129 127.298C179.119 127.266 179.108 127.235 179.097 127.204C179.087 127.193 179.087 127.183 179.076 127.172C179.055 127.13 179.024 127.099 178.992 127.078L178.982 127.067C178.961 127.046 178.929 127.036 178.897 127.025C178.887 127.025 178.876 127.025 178.876 127.025C178.866 127.025 178.866 127.067 178.855 127.067C178.824 127.057 178.792 127.109 178.761 127.109H178.708V127.015C178.708 127.015 178.634 127.025 178.592 127.046C178.582 127.046 178.582 127.057 178.571 127.067C178.54 127.088 178.519 127.099 178.498 127.13C178.487 127.13 178.487 127.141 178.476 127.141L156.173 150.294C156.152 150.315 156.131 150.347 156.121 150.368V150.378C156.089 150.399 156.079 150.441 156.068 150.483ZM173.835 146.018L178.855 159.937L157.573 150.63L173.835 146.018ZM174.477 145.536L178.434 130.18L179.087 158.302L174.477 145.536ZM173.761 145.242L157.71 149.791L178.024 128.713L173.761 145.242Z" fill="#38A770"/>
<path d="M179.487 161.122C179.413 161.111 179.371 161.101 179.329 161.08L156.258 150.986L156.237 150.976L156.205 150.955C156.11 150.902 156.037 150.808 156.005 150.693C156.005 150.682 155.995 150.651 155.995 150.64C155.984 150.588 155.984 150.546 155.984 150.494V150.462C155.995 150.41 156.005 150.357 156.037 150.315C156.058 150.263 156.089 150.232 156.11 150.211L178.413 127.057C178.413 127.057 178.434 127.036 178.445 127.036C178.466 127.015 178.498 126.994 178.54 126.973C178.529 126.973 178.55 126.963 178.582 126.952C178.634 126.931 178.708 126.921 178.719 126.921C178.75 126.91 178.782 126.921 178.803 126.942C178.813 126.952 178.813 126.952 178.824 126.963C178.834 126.952 178.845 126.952 178.855 126.942C178.876 126.931 178.908 126.931 178.94 126.931C178.94 126.931 178.95 126.931 178.971 126.942C179.003 126.952 179.034 126.973 179.076 127.004C179.087 127.004 179.087 127.015 179.097 127.015C179.14 127.046 179.171 127.088 179.203 127.141C179.213 127.151 179.213 127.162 179.224 127.172C179.245 127.214 179.255 127.256 179.266 127.298C179.266 127.319 179.276 127.329 179.276 127.35C179.276 127.361 179.276 127.371 179.287 127.382L180.055 160.64C180.055 160.65 180.055 160.661 180.055 160.671V160.692C180.045 160.744 180.034 160.797 180.013 160.839C179.982 160.912 179.95 160.954 179.908 160.996L179.887 161.017C179.866 161.027 179.855 161.038 179.845 161.048C179.813 161.069 179.782 161.08 179.761 161.09C179.739 161.101 179.708 161.101 179.676 161.101H179.666C179.645 161.111 179.613 161.122 179.592 161.122C179.529 161.111 179.518 161.122 179.487 161.122ZM156.173 150.619C156.173 150.63 156.184 150.63 156.184 150.63C156.205 150.693 156.247 150.745 156.3 150.777L156.321 150.787L179.403 160.891C179.424 160.902 179.445 160.902 179.466 160.912C179.487 160.902 179.497 160.912 179.55 160.891C179.582 160.881 179.624 160.86 179.666 160.87H179.676C179.687 160.87 179.687 160.86 179.697 160.849C179.739 160.807 179.761 160.786 179.771 160.765C179.782 160.724 179.792 160.703 179.792 160.671V160.629L179.024 127.392C179.024 127.392 179.024 127.382 179.024 127.361C179.024 127.361 179.024 127.35 179.024 127.34C179.013 127.308 179.013 127.287 179.003 127.267L178.992 127.246C178.971 127.214 178.95 127.193 178.929 127.172C178.919 127.162 178.919 127.162 178.908 127.162C178.887 127.172 178.876 127.172 178.866 127.172C178.834 127.193 178.803 127.214 178.761 127.214H178.708C178.666 127.214 178.634 127.193 178.613 127.151C178.603 127.162 178.582 127.172 178.561 127.193L156.237 150.357C156.226 150.368 156.205 150.389 156.195 150.41C156.184 150.441 156.173 150.473 156.163 150.504V150.515C156.163 150.546 156.163 150.577 156.163 150.598C156.173 150.609 156.173 150.609 156.173 150.619ZM178.855 160.032C178.845 160.032 178.824 160.032 178.813 160.021L157.531 150.714C157.489 150.693 157.468 150.661 157.468 150.609C157.468 150.567 157.5 150.525 157.542 150.515L173.793 145.913C173.845 145.903 173.898 145.924 173.919 145.976L178.94 159.895C178.95 159.937 178.94 159.979 178.908 160C178.908 160.021 178.887 160.032 178.855 160.032ZM157.889 150.64L178.687 159.738L173.772 146.133L157.889 150.64ZM179.087 158.397C179.045 158.397 179.003 158.365 178.992 158.334L174.382 145.567C174.372 145.546 174.372 145.525 174.382 145.504L178.34 130.149C178.35 130.097 178.392 130.076 178.455 130.076C178.508 130.086 178.55 130.128 178.55 130.17L179.203 158.292C179.203 158.344 179.171 158.386 179.118 158.397C179.097 158.397 179.087 158.397 179.087 158.397ZM174.582 145.525L178.971 157.663L178.35 130.914L174.582 145.525ZM157.71 149.886C157.679 149.886 157.636 149.865 157.626 149.833C157.605 149.791 157.605 149.739 157.636 149.707L177.95 128.629C177.982 128.598 178.034 128.587 178.076 128.608C178.119 128.629 178.14 128.682 178.129 128.723L173.866 145.253C173.856 145.284 173.835 145.316 173.793 145.326L157.742 149.886C157.731 149.886 157.721 149.886 157.71 149.886ZM177.824 129.059L158.047 149.582L173.677 145.158L177.824 129.059Z" fill="black"/>
<path d="M193.001 136.396C197.18 136.396 200.579 139.781 200.579 143.942C200.579 148.104 197.18 151.489 193.001 151.489C188.823 151.489 185.423 148.104 185.423 143.942C185.423 139.781 188.823 136.396 193.001 136.396ZM193.001 150.724C196.759 150.724 199.811 147.684 199.811 143.942C199.811 140.201 196.759 137.161 193.001 137.161C189.244 137.161 186.191 140.201 186.191 143.942C186.191 147.684 189.244 150.724 193.001 150.724Z" fill="#38A770"/>
<path d="M193.001 151.594C188.77 151.594 185.328 148.167 185.328 143.953C185.328 139.739 188.77 136.312 193.001 136.312C197.232 136.312 200.674 139.739 200.674 143.953C200.674 148.167 197.232 151.594 193.001 151.594ZM193.001 136.501C188.886 136.501 185.528 139.844 185.528 143.943C185.528 148.041 188.875 151.384 193.001 151.384C197.127 151.384 200.474 148.041 200.474 143.943C200.474 139.844 197.117 136.501 193.001 136.501ZM193.001 150.829C189.191 150.829 186.097 147.747 186.097 143.953C186.097 140.159 189.191 137.077 193.001 137.077C196.811 137.077 199.906 140.159 199.906 143.953C199.906 147.747 196.811 150.829 193.001 150.829ZM193.001 137.266C189.307 137.266 186.297 140.264 186.297 143.943C186.297 147.622 189.307 150.619 193.001 150.619C196.696 150.619 199.706 147.622 199.706 143.943C199.706 140.264 196.696 137.266 193.001 137.266Z" fill="black"/>
<path d="M190.854 139.006C195.822 139.006 199.864 143.031 199.864 147.978C199.864 152.925 195.822 156.95 190.854 156.95C185.886 156.95 181.845 152.925 181.845 147.978C181.834 143.031 185.886 139.006 190.854 139.006ZM190.854 156.185C195.401 156.185 199.095 152.506 199.095 147.978C199.095 143.45 195.401 139.771 190.854 139.771C186.307 139.771 182.613 143.45 182.613 147.978C182.613 152.506 186.307 156.185 190.854 156.185Z" fill="#38A770"/>
<path d="M190.854 157.055C185.823 157.055 181.739 152.978 181.739 147.978C181.739 142.968 185.834 138.901 190.854 138.901C195.875 138.901 199.969 142.978 199.969 147.978C199.969 152.988 195.875 157.055 190.854 157.055ZM190.854 139.1C185.939 139.1 181.939 143.083 181.939 147.978C181.939 152.873 185.939 156.856 190.854 156.856C195.769 156.856 199.769 152.873 199.769 147.978C199.758 143.083 195.769 139.1 190.854 139.1ZM190.854 156.29C186.255 156.29 182.508 152.558 182.508 147.978C182.508 143.397 186.255 139.666 190.854 139.666C195.454 139.666 199.201 143.397 199.201 147.978C199.201 152.558 195.454 156.29 190.854 156.29ZM190.854 139.865C186.36 139.865 182.708 143.502 182.708 147.967C182.708 152.433 186.36 156.08 190.854 156.08C195.348 156.08 199.001 152.443 199.001 147.967C199.001 143.492 195.338 139.865 190.854 139.865Z" fill="black"/>
</svg>
