<svg width="246" height="146" viewBox="0 0 246 146" fill="none" xmlns="http://www.w3.org/2000/svg">
<g clip-path="url(#clip0_640_1862)">
<path d="M140.019 30.6039L93.5507 21.4163L47.0823 30.6039V132.422L93.5507 123.234L140.019 132.422L186.497 123.234V21.4163L140.019 30.6039Z" fill="#EBFFF4"/>
<path d="M47.0822 132.71C47.0171 132.71 46.952 132.691 46.8962 132.645C46.8311 132.589 46.7939 132.505 46.7939 132.422V30.604C46.7939 30.4645 46.8962 30.3436 47.0264 30.3158L93.4949 21.1281C93.4949 21.1281 93.5693 21.1281 93.6065 21.1281L140.028 30.3065L186.441 21.1281C186.525 21.1095 186.618 21.1281 186.683 21.1839C186.748 21.2397 186.785 21.3234 186.785 21.407V123.225C186.785 123.364 186.683 123.485 186.553 123.513L140.084 132.701C140.084 132.701 140.01 132.701 139.973 132.701L93.5507 123.522L47.138 132.701C47.138 132.701 47.1008 132.701 47.0822 132.701V132.71ZM93.5507 122.946C93.5507 122.946 93.5879 122.946 93.6065 122.946L140.028 132.124L186.209 122.992V21.7697L140.084 30.883C140.084 30.883 140.01 30.883 139.973 30.883L93.5507 21.7046L47.3705 30.8365V132.059L93.4949 122.946C93.4949 122.946 93.5321 122.946 93.5507 122.946Z" fill="black"/>
<path d="M93.4206 23.9085C93.2625 23.9085 93.1323 23.7783 93.1323 23.6203V21.8813C93.1323 21.7232 93.2625 21.593 93.4206 21.593C93.5787 21.593 93.7089 21.7232 93.7089 21.8813V23.6203C93.7089 23.7783 93.5787 23.9085 93.4206 23.9085Z" fill="black"/>
<path d="M93.4206 118.12C93.2625 118.12 93.1323 117.989 93.1323 117.831V114.465C93.1323 114.307 93.2625 114.177 93.4206 114.177C93.5787 114.177 93.7089 114.307 93.7089 114.465V117.831C93.7089 117.989 93.5787 118.12 93.4206 118.12ZM93.4206 111.387C93.2625 111.387 93.1323 111.257 93.1323 111.099V107.732C93.1323 107.574 93.2625 107.444 93.4206 107.444C93.5787 107.444 93.7089 107.574 93.7089 107.732V111.099C93.7089 111.257 93.5787 111.387 93.4206 111.387ZM93.4206 104.654C93.2625 104.654 93.1323 104.524 93.1323 104.366V101C93.1323 100.841 93.2625 100.711 93.4206 100.711C93.5787 100.711 93.7089 100.841 93.7089 101V104.366C93.7089 104.524 93.5787 104.654 93.4206 104.654ZM93.4206 97.9215C93.2625 97.9215 93.1323 97.7913 93.1323 97.6332V94.2669C93.1323 94.1088 93.2625 93.9786 93.4206 93.9786C93.5787 93.9786 93.7089 94.1088 93.7089 94.2669V97.6332C93.7089 97.7913 93.5787 97.9215 93.4206 97.9215ZM93.4206 91.1888C93.2625 91.1888 93.1323 91.0586 93.1323 90.9005V87.5342C93.1323 87.3761 93.2625 87.2459 93.4206 87.2459C93.5787 87.2459 93.7089 87.3761 93.7089 87.5342V90.9005C93.7089 91.0586 93.5787 91.1888 93.4206 91.1888ZM93.4206 84.4561C93.2625 84.4561 93.1323 84.326 93.1323 84.1679V80.8015C93.1323 80.6434 93.2625 80.5133 93.4206 80.5133C93.5787 80.5133 93.7089 80.6434 93.7089 80.8015V84.1679C93.7089 84.326 93.5787 84.4561 93.4206 84.4561ZM93.4206 77.7235C93.2625 77.7235 93.1323 77.5933 93.1323 77.4352V74.0689C93.1323 73.9108 93.2625 73.7806 93.4206 73.7806C93.5787 73.7806 93.7089 73.9108 93.7089 74.0689V77.4352C93.7089 77.5933 93.5787 77.7235 93.4206 77.7235ZM93.4206 70.9908C93.2625 70.9908 93.1323 70.8606 93.1323 70.7025V67.3362C93.1323 67.1781 93.2625 67.0479 93.4206 67.0479C93.5787 67.0479 93.7089 67.1781 93.7089 67.3362V70.7025C93.7089 70.8606 93.5787 70.9908 93.4206 70.9908ZM93.4206 64.2581C93.2625 64.2581 93.1323 64.1279 93.1323 63.9698V60.6035C93.1323 60.4454 93.2625 60.3152 93.4206 60.3152C93.5787 60.3152 93.7089 60.4454 93.7089 60.6035V63.9698C93.7089 64.1279 93.5787 64.2581 93.4206 64.2581ZM93.4206 57.5254C93.2625 57.5254 93.1323 57.3953 93.1323 57.2372V53.8708C93.1323 53.7127 93.2625 53.5826 93.4206 53.5826C93.5787 53.5826 93.7089 53.7127 93.7089 53.8708V57.2372C93.7089 57.3953 93.5787 57.5254 93.4206 57.5254ZM93.4206 50.7928C93.2625 50.7928 93.1323 50.6626 93.1323 50.5045V47.1382C93.1323 46.9801 93.2625 46.8499 93.4206 46.8499C93.5787 46.8499 93.7089 46.9801 93.7089 47.1382V50.5045C93.7089 50.6626 93.5787 50.7928 93.4206 50.7928ZM93.4206 44.0601C93.2625 44.0601 93.1323 43.9299 93.1323 43.7718V40.4055C93.1323 40.2474 93.2625 40.1172 93.4206 40.1172C93.5787 40.1172 93.7089 40.2474 93.7089 40.4055V43.7718C93.7089 43.9299 93.5787 44.0601 93.4206 44.0601ZM93.4206 37.3274C93.2625 37.3274 93.1323 37.1972 93.1323 37.0391V33.6728C93.1323 33.5147 93.2625 33.3845 93.4206 33.3845C93.5787 33.3845 93.7089 33.5147 93.7089 33.6728V37.0391C93.7089 37.1972 93.5787 37.3274 93.4206 37.3274ZM93.4206 30.5947C93.2625 30.5947 93.1323 30.4646 93.1323 30.3065V26.9401C93.1323 26.782 93.2625 26.6519 93.4206 26.6519C93.5787 26.6519 93.7089 26.782 93.7089 26.9401V30.3065C93.7089 30.4646 93.5787 30.5947 93.4206 30.5947Z" fill="black"/>
<path d="M93.4206 123.225C93.2625 123.225 93.1323 123.095 93.1323 122.936V121.197C93.1323 121.039 93.2625 120.909 93.4206 120.909C93.5787 120.909 93.7089 121.039 93.7089 121.197V122.936C93.7089 123.095 93.5787 123.225 93.4206 123.225Z" fill="black"/>
<path d="M140.149 32.8731C139.991 32.8731 139.861 32.7429 139.861 32.5849V30.8459C139.861 30.6878 139.991 30.5576 140.149 30.5576C140.307 30.5576 140.438 30.6878 140.438 30.8459V32.5849C140.438 32.7429 140.307 32.8731 140.149 32.8731Z" fill="black"/>
<path d="M140.149 127.084C139.991 127.084 139.861 126.954 139.861 126.796V123.429C139.861 123.271 139.991 123.141 140.149 123.141C140.307 123.141 140.438 123.271 140.438 123.429V126.796C140.438 126.954 140.307 127.084 140.149 127.084ZM140.149 120.351C139.991 120.351 139.861 120.221 139.861 120.063V116.697C139.861 116.539 139.991 116.409 140.149 116.409C140.307 116.409 140.438 116.539 140.438 116.697V120.063C140.438 120.221 140.307 120.351 140.149 120.351ZM140.149 113.619C139.991 113.619 139.861 113.489 139.861 113.33V109.964C139.861 109.806 139.991 109.676 140.149 109.676C140.307 109.676 140.438 109.806 140.438 109.964V113.33C140.438 113.489 140.307 113.619 140.149 113.619ZM140.149 106.886C139.991 106.886 139.861 106.756 139.861 106.598V103.231C139.861 103.073 139.991 102.943 140.149 102.943C140.307 102.943 140.438 103.073 140.438 103.231V106.598C140.438 106.756 140.307 106.886 140.149 106.886ZM140.149 100.153C139.991 100.153 139.861 100.023 139.861 99.8651V96.4988C139.861 96.3407 139.991 96.2105 140.149 96.2105C140.307 96.2105 140.438 96.3407 140.438 96.4988V99.8651C140.438 100.023 140.307 100.153 140.149 100.153ZM140.149 93.4207C139.991 93.4207 139.861 93.2906 139.861 93.1325V89.7661C139.861 89.608 139.991 89.4779 140.149 89.4779C140.307 89.4779 140.438 89.608 140.438 89.7661V93.1325C140.438 93.2906 140.307 93.4207 140.149 93.4207ZM140.149 86.6881C139.991 86.6881 139.861 86.5579 139.861 86.3998V83.0335C139.861 82.8754 139.991 82.7452 140.149 82.7452C140.307 82.7452 140.438 82.8754 140.438 83.0335V86.3998C140.438 86.5579 140.307 86.6881 140.149 86.6881ZM140.149 79.9554C139.991 79.9554 139.861 79.8252 139.861 79.6671V76.3008C139.861 76.1427 139.991 76.0125 140.149 76.0125C140.307 76.0125 140.438 76.1427 140.438 76.3008V79.6671C140.438 79.8252 140.307 79.9554 140.149 79.9554ZM140.149 73.2227C139.991 73.2227 139.861 73.0925 139.861 72.9344V69.5681C139.861 69.41 139.991 69.2798 140.149 69.2798C140.307 69.2798 140.438 69.41 140.438 69.5681V72.9344C140.438 73.0925 140.307 73.2227 140.149 73.2227ZM140.149 66.49C139.991 66.49 139.861 66.3599 139.861 66.2018V62.8354C139.861 62.6773 139.991 62.5472 140.149 62.5472C140.307 62.5472 140.438 62.6773 140.438 62.8354V66.2018C140.438 66.3599 140.307 66.49 140.149 66.49ZM140.149 59.7574C139.991 59.7574 139.861 59.6272 139.861 59.4691V56.1028C139.861 55.9447 139.991 55.8145 140.149 55.8145C140.307 55.8145 140.438 55.9447 140.438 56.1028V59.4691C140.438 59.6272 140.307 59.7574 140.149 59.7574ZM140.149 53.0247C139.991 53.0247 139.861 52.8945 139.861 52.7364V49.3701C139.861 49.212 139.991 49.0818 140.149 49.0818C140.307 49.0818 140.438 49.212 140.438 49.3701V52.7364C140.438 52.8945 140.307 53.0247 140.149 53.0247ZM140.149 46.292C139.991 46.292 139.861 46.1618 139.861 46.0037V42.6374C139.861 42.4793 139.991 42.3491 140.149 42.3491C140.307 42.3491 140.438 42.4793 140.438 42.6374V46.0037C140.438 46.1618 140.307 46.292 140.149 46.292ZM140.149 39.5593C139.991 39.5593 139.861 39.4292 139.861 39.2711V35.9047C139.861 35.7466 139.991 35.6165 140.149 35.6165C140.307 35.6165 140.438 35.7466 140.438 35.9047V39.2711C140.438 39.4292 140.307 39.5593 140.149 39.5593Z" fill="black"/>
<path d="M140.149 132.189C139.991 132.189 139.861 132.059 139.861 131.901V130.162C139.861 130.004 139.991 129.874 140.149 129.874C140.307 129.874 140.438 130.004 140.438 130.162V131.901C140.438 132.059 140.307 132.189 140.149 132.189Z" fill="black"/>
<path d="M135.398 58.5762L97.0752 50.1417V31.8687L135.398 40.3031V58.5762Z" fill="white"/>
<path d="M135.397 58.8645C135.397 58.8645 135.36 58.8645 135.332 58.8645L97.0101 50.43C96.8799 50.4021 96.7776 50.2813 96.7776 50.1511V31.878C96.7776 31.7943 96.8148 31.7106 96.8892 31.6548C96.9543 31.599 97.0473 31.5804 97.131 31.599L135.453 40.0335C135.583 40.0614 135.686 40.1822 135.686 40.3124V58.5855C135.686 58.6692 135.649 58.7529 135.574 58.8087C135.518 58.8459 135.463 58.8738 135.388 58.8738L135.397 58.8645ZM97.3634 49.9093L135.1 58.2135V40.5356L97.3634 32.2314V49.9093Z" fill="black"/>
<path d="M90.11 65.5413L54.1125 73.9757V92.2488L90.11 83.8143V65.5413Z" fill="white"/>
<path d="M54.1125 92.5464C54.0474 92.5464 53.9823 92.5278 53.9358 92.4813C53.8707 92.4255 53.8242 92.3418 53.8242 92.2581V73.985C53.8242 73.8455 53.9172 73.734 54.0474 73.7061L90.0449 65.2716C90.1286 65.253 90.2216 65.2716 90.296 65.3274C90.3704 65.3832 90.4076 65.4669 90.4076 65.5506V83.8237C90.4076 83.9632 90.3146 84.0748 90.1844 84.1027L54.1869 92.5371C54.1869 92.5371 54.1404 92.5371 54.1218 92.5371L54.1125 92.5464ZM54.4008 74.2082V91.8861L89.8217 83.5912V65.9133L54.4008 74.2082Z" fill="black"/>
<path d="M113.34 95.7361L97.0752 91.9513V73.6689L113.34 77.4631V95.7361Z" fill="#38A770"/>
<path d="M113.34 95.9687C113.34 95.9687 113.302 95.9687 113.284 95.9687L97.0287 92.1839C96.9264 92.156 96.8521 92.063 96.8521 91.9607V73.6876C96.8521 73.6132 96.8892 73.5481 96.9357 73.5016C96.9915 73.4551 97.0659 73.4365 97.131 73.4551L113.386 77.2492C113.488 77.2771 113.563 77.3701 113.563 77.4724V95.7455C113.563 95.8199 113.526 95.885 113.479 95.9315C113.442 95.9687 113.386 95.978 113.33 95.978L113.34 95.9687ZM97.317 91.7654L113.107 95.4479V77.6491L97.317 73.9666V91.7654Z" fill="black"/>
<path d="M180.694 34.1934L164.43 37.9782V86.446L180.694 82.6612V34.1934Z" fill="#B6F2D0"/>
<path d="M164.43 86.7343C164.365 86.7343 164.3 86.7157 164.253 86.6692C164.188 86.6135 164.142 86.5298 164.142 86.4461V37.9783C164.142 37.8388 164.235 37.7272 164.365 37.6993L180.62 33.9052C180.704 33.8866 180.797 33.9052 180.871 33.961C180.936 34.0168 180.983 34.1005 180.983 34.1841V82.652C180.983 82.7915 180.89 82.903 180.759 82.9309L164.504 86.7157C164.504 86.7157 164.458 86.7157 164.439 86.7157L164.43 86.7343ZM164.718 38.2107V86.0834L180.397 82.4288V34.5561L164.718 38.2107Z" fill="black"/>
<path d="M133.082 127.093L116.818 123.299V105.026L133.082 108.82V127.093Z" fill="#B6F2D0"/>
<path d="M133.082 127.382C133.082 127.382 133.035 127.382 133.017 127.382L116.762 123.588C116.632 123.56 116.539 123.439 116.539 123.309V105.035C116.539 104.942 116.576 104.859 116.65 104.812C116.715 104.756 116.808 104.738 116.901 104.756L133.156 108.541C133.287 108.569 133.38 108.69 133.38 108.82V127.093C133.38 127.186 133.342 127.27 133.268 127.317C133.212 127.354 133.156 127.382 133.091 127.382H133.082ZM117.115 123.076L132.794 126.731V109.053L117.115 105.398V123.076Z" fill="black"/>
<path d="M69.2051 36.509L52.95 40.3031V58.5762L69.2051 54.7914V36.509Z" fill="#38A770"/>
<path d="M52.95 58.8088C52.8942 58.8088 52.8477 58.7902 52.8012 58.7623C52.7454 58.7158 52.7175 58.6507 52.7175 58.5763V40.3032C52.7175 40.1916 52.7919 40.0986 52.8942 40.08L69.1493 36.2952C69.2144 36.2766 69.2888 36.2952 69.3446 36.3417C69.4004 36.3882 69.4283 36.4533 69.4283 36.5277V54.8008C69.4283 54.9124 69.3539 55.0054 69.2516 55.024L52.9965 58.8088C52.9965 58.8088 52.9593 58.8088 52.9407 58.8088H52.95ZM53.1825 40.4892V58.288L68.9727 54.6055V36.8067L53.1825 40.4892Z" fill="black"/>
<path d="M88.9475 101.548L72.6924 105.333V123.606L88.9475 119.821V101.548Z" fill="#B6F2D0"/>
<path d="M72.6923 123.894C72.6272 123.894 72.5621 123.876 72.5156 123.829C72.4506 123.773 72.4041 123.69 72.4041 123.606V105.333C72.4041 105.193 72.497 105.082 72.6272 105.054L88.8824 101.26C88.9661 101.241 89.0591 101.26 89.1334 101.316C89.2078 101.371 89.245 101.455 89.245 101.539V119.812C89.245 119.951 89.152 120.063 89.0219 120.091L72.7667 123.876C72.7667 123.876 72.7202 123.876 72.7016 123.876L72.6923 123.894ZM72.9806 105.556V123.234L88.6592 119.579V101.902L72.9806 105.556Z" fill="black"/>
<path d="M183.01 101.548L144.687 109.973V128.256L183.01 119.821V101.548Z" fill="#38A770"/>
<path d="M144.687 128.488C144.632 128.488 144.585 128.47 144.539 128.432C144.483 128.386 144.455 128.321 144.455 128.256V109.983C144.455 109.871 144.529 109.778 144.641 109.759L182.963 101.325C183.028 101.306 183.103 101.325 183.158 101.371C183.214 101.418 183.242 101.483 183.242 101.548V119.821C183.242 119.933 183.168 120.026 183.056 120.044L144.734 128.479C144.734 128.479 144.697 128.479 144.687 128.479V128.488ZM144.92 110.169V127.967L182.777 119.635V101.836L144.92 110.169Z" fill="black"/>
<path d="M72.6924 36.8065C72.5622 36.8065 72.4413 36.7136 72.4041 36.5741C72.3669 36.416 72.4692 36.2672 72.6273 36.23L88.8825 32.7428C89.0405 32.7056 89.1893 32.8079 89.2265 32.9659C89.2637 33.124 89.1614 33.2728 89.0033 33.31L72.7482 36.7972C72.7482 36.7972 72.711 36.7972 72.6831 36.7972L72.6924 36.8065Z" fill="black"/>
<path d="M72.6924 40.2846C72.5622 40.2846 72.4413 40.1916 72.4041 40.0521C72.3669 39.894 72.4692 39.7452 72.6273 39.708L88.8825 36.2208C89.0405 36.1836 89.1893 36.2859 89.2265 36.444C89.2637 36.6021 89.1614 36.7508 89.0033 36.788L72.7482 40.2753C72.7482 40.2753 72.711 40.2753 72.6831 40.2753L72.6924 40.2846Z" fill="black"/>
<path d="M72.6924 43.7719C72.5622 43.7719 72.4413 43.6789 72.4041 43.5394C72.3669 43.3813 72.4692 43.2325 72.6273 43.1953L88.8825 39.7081C89.0405 39.6709 89.1893 39.7732 89.2265 39.9313C89.2637 40.0894 89.1614 40.2381 89.0033 40.2753L72.7482 43.7626C72.7482 43.7626 72.711 43.7626 72.6831 43.7626L72.6924 43.7719Z" fill="black"/>
<path d="M145.85 96.0243C145.71 96.0243 145.589 95.9313 145.561 95.7918C145.534 95.6337 145.636 95.485 145.785 95.4478L180.62 88.4826C180.778 88.4547 180.927 88.557 180.964 88.7151C180.992 88.8732 180.889 89.022 180.741 89.0592L145.906 96.0243C145.906 96.0243 145.868 96.0243 145.85 96.0243Z" fill="black"/>
<path d="M145.85 99.5116C145.71 99.5116 145.589 99.4186 145.561 99.2791C145.534 99.1211 145.636 98.9723 145.785 98.9351L180.62 91.9699C180.778 91.942 180.927 92.0443 180.964 92.2024C180.992 92.3605 180.889 92.5093 180.741 92.5465L145.906 99.5116C145.906 99.5116 145.868 99.5116 145.85 99.5116Z" fill="black"/>
<path d="M145.85 102.999C145.71 102.999 145.589 102.906 145.561 102.766C145.534 102.608 145.636 102.46 145.785 102.422L180.62 95.4572C180.778 95.4293 180.927 95.5316 180.964 95.6897C180.992 95.8478 180.889 95.9966 180.741 96.0338L145.906 102.999C145.906 102.999 145.868 102.999 145.85 102.999Z" fill="black"/>
<path d="M52.9501 109.964C52.8106 109.964 52.6897 109.871 52.6618 109.732C52.6339 109.574 52.7362 109.425 52.885 109.388L70.3025 105.9C70.4606 105.872 70.6094 105.975 70.6466 106.133C70.6745 106.291 70.5722 106.44 70.4234 106.477L53.0059 109.964C53.0059 109.964 52.9687 109.964 52.9501 109.964Z" fill="black"/>
<path d="M52.9501 112.289C52.8106 112.289 52.6897 112.196 52.6618 112.056C52.6339 111.898 52.7362 111.749 52.885 111.712L70.3025 108.225C70.4606 108.197 70.6094 108.299 70.6466 108.458C70.6745 108.616 70.5722 108.764 70.4234 108.802L53.0059 112.289C53.0059 112.289 52.9687 112.289 52.9501 112.289Z" fill="black"/>
<path d="M52.9501 114.604C52.8106 114.604 52.6897 114.511 52.6618 114.372C52.6339 114.214 52.7362 114.065 52.885 114.028L70.3025 110.541C70.4606 110.513 70.6094 110.615 70.6466 110.773C70.6745 110.931 70.5722 111.08 70.4234 111.117L53.0059 114.604C53.0059 114.604 52.9687 114.604 52.9501 114.604Z" fill="black"/>
<path d="M134.244 62.3516C134.244 62.3516 134.207 62.3516 134.179 62.3516L97.0194 54.2241C96.8613 54.1869 96.759 54.0381 96.7962 53.88C96.8334 53.7219 96.9822 53.6196 97.1403 53.6568L134.3 61.7844C134.458 61.8216 134.561 61.9704 134.523 62.1285C134.495 62.2679 134.375 62.3609 134.244 62.3609V62.3516Z" fill="black"/>
<path d="M134.244 65.8389C134.244 65.8389 134.207 65.8389 134.179 65.8389L97.0194 57.7114C96.8613 57.6742 96.759 57.5254 96.7962 57.3673C96.8334 57.2092 96.9822 57.1069 97.1403 57.1441L134.3 65.2717C134.458 65.3089 134.561 65.4577 134.523 65.6158C134.495 65.7552 134.375 65.8482 134.244 65.8482V65.8389Z" fill="black"/>
<path d="M134.244 69.317C134.244 69.317 134.207 69.317 134.179 69.317L97.0194 61.1894C96.8613 61.1522 96.759 61.0034 96.7962 60.8453C96.8334 60.6872 96.9822 60.585 97.1403 60.6222L134.3 68.7497C134.458 68.7869 134.561 68.9357 134.523 69.0938C134.495 69.2333 134.375 69.3263 134.244 69.3263V69.317Z" fill="black"/>
<path d="M220.811 141.516L218.654 140.54L216.98 142.214L215.567 134.458L219.389 133.761L220.811 141.516Z" fill="#E3FFEE"/>
<path d="M216.98 142.53C216.98 142.53 216.915 142.53 216.887 142.511C216.775 142.474 216.692 142.381 216.673 142.27L215.25 134.514C215.222 134.347 215.334 134.179 215.501 134.151L219.333 133.454C219.509 133.417 219.668 133.537 219.695 133.705L221.118 141.46C221.137 141.572 221.09 141.693 221.007 141.767C220.914 141.842 220.793 141.851 220.681 141.805L218.719 140.921L217.203 142.446C217.147 142.502 217.064 142.539 216.98 142.539V142.53ZM215.92 134.718L217.175 141.572L218.421 140.317C218.514 140.224 218.654 140.196 218.775 140.252L220.384 140.977L219.128 134.123L215.92 134.709V134.718Z" fill="black"/>
<path d="M244.952 131.91L210.238 138.28C206.918 138.885 203.738 136.69 203.133 133.379L195.322 90.7515C194.718 87.4317 196.912 84.2513 200.223 83.6469L234.937 77.2769L244.952 131.91Z" fill="#38A770"/>
<path d="M209.131 138.634C206.128 138.634 203.44 136.485 202.882 133.426L195.071 90.798C194.764 89.1242 195.127 87.441 196.094 86.0368C197.061 84.6419 198.512 83.7027 200.176 83.3958L234.89 77.0258C234.955 77.0165 235.021 77.0258 235.076 77.063C235.132 77.1002 235.169 77.156 235.179 77.2211L245.194 131.854C245.222 131.994 245.129 132.124 244.989 132.143L210.275 138.513C209.885 138.587 209.503 138.615 209.122 138.615L209.131 138.634ZM234.732 77.5745L200.26 83.898C198.726 84.177 197.386 85.0418 196.494 86.3344C195.601 87.6177 195.275 89.18 195.554 90.7143L203.366 133.342C203.952 136.513 207.002 138.624 210.182 138.048L244.655 131.724L234.732 77.5838V77.5745Z" fill="black"/>
<path d="M231.119 87.6647L209.917 91.5522L216.499 127.453L237.701 123.566L231.119 87.6647Z" fill="#E3FFEE"/>
<path d="M216.496 127.763C216.431 127.763 216.375 127.744 216.32 127.707C216.255 127.66 216.208 127.586 216.189 127.502L209.606 91.607C209.578 91.4396 209.689 91.2722 209.857 91.2443L231.059 87.3572C231.133 87.3386 231.226 87.3572 231.292 87.4037C231.357 87.4502 231.403 87.5246 231.422 87.6083L238.006 123.503C238.033 123.671 237.922 123.838 237.754 123.866L216.552 127.753C216.552 127.753 216.515 127.753 216.496 127.753V127.763ZM210.275 91.8023L216.747 127.084L237.336 123.308L230.864 88.0268L210.275 91.8023Z" fill="black"/>
<path d="M202.659 83.1914L200.213 83.6378C196.894 84.2422 194.699 87.4319 195.313 90.7424L203.124 133.37C203.728 136.69 206.918 138.885 210.229 138.271L212.674 137.825L202.659 83.1914Z" fill="#B6F2D0"/>
<path d="M209.131 138.699C206.091 138.699 203.384 136.532 202.817 133.435L195.006 90.8074C194.699 89.1243 195.062 87.4132 196.038 85.9997C197.014 84.5862 198.474 83.6377 200.167 83.3308L202.613 82.8844C202.789 82.8472 202.947 82.9681 202.975 83.1355L212.991 137.769C213.019 137.936 212.907 138.104 212.74 138.131L210.294 138.578C209.903 138.652 209.513 138.68 209.131 138.68V138.699ZM202.408 83.5633L200.269 83.9539C198.744 84.2328 197.424 85.0884 196.55 86.3624C195.666 87.6364 195.341 89.1708 195.62 90.6958L203.431 133.324C204.008 136.467 207.03 138.55 210.173 137.973L212.312 137.583L202.408 83.5633Z" fill="black"/>
<path d="M2.42723 135.872L0.539482 139.136C-0.0649704 140.177 0.297701 141.507 1.32992 142.102C2.37144 142.707 3.70124 142.344 4.29639 141.312L6.18414 138.048L2.41794 135.872H2.42723Z" fill="#38A770"/>
<path d="M2.41791 142.641C2.00875 142.641 1.59028 142.539 1.20901 142.316C0.651053 141.99 0.251184 141.47 0.083797 140.847C-0.08359 140.224 0.000103504 139.573 0.325578 139.015L2.21333 135.751C2.25053 135.695 2.29702 135.658 2.36212 135.639C2.42721 135.62 2.49231 135.639 2.5481 135.667L6.30501 137.843C6.4259 137.908 6.4631 138.066 6.398 138.178L4.51025 141.442C4.06389 142.214 3.24555 142.651 2.40862 142.651L2.41791 142.641ZM2.52021 136.206L0.762644 139.256C0.502264 139.703 0.437169 140.224 0.567359 140.716C0.697549 141.209 1.02302 141.628 1.46009 141.888C1.90645 142.149 2.42721 142.214 2.92008 142.083C3.42224 141.953 3.8314 141.637 4.09178 141.191L5.84935 138.141L2.51091 136.216L2.52021 136.206Z" fill="#040000"/>
<path d="M25.8456 95.2765L1.34497 137.645L5.19295 139.87L29.6936 97.5018L25.8456 95.2765Z" fill="#93E2B5"/>
<path d="M5.18899 140.121C5.18899 140.121 5.10529 140.112 5.0681 140.084L1.2182 137.862C1.1624 137.824 1.11591 137.778 1.10661 137.713C1.08801 137.648 1.10661 137.583 1.13451 137.527L25.6381 95.1594C25.7032 95.0385 25.852 95.0013 25.9729 95.0664L29.8228 97.2889C29.8786 97.3261 29.9158 97.3726 29.9344 97.4377C29.953 97.5028 29.9344 97.5679 29.9065 97.6237L5.40287 139.991C5.35638 140.066 5.27268 140.112 5.18899 140.112V140.121ZM1.68316 137.564L5.10529 139.545L29.3671 97.6051L25.945 95.6243L1.67386 137.564H1.68316Z" fill="black"/>
<path d="M27.0934 95.998L2.59277 138.366L3.93715 139.143L28.4378 96.7754L27.0934 95.998Z" fill="#66D199"/>
<path d="M3.93358 139.396C3.93358 139.396 3.84988 139.387 3.81269 139.359L2.46429 138.578C2.4085 138.54 2.3713 138.494 2.3527 138.429C2.3341 138.364 2.3527 138.299 2.3806 138.243L26.8842 95.8754C26.9493 95.7545 27.1074 95.7173 27.219 95.7824L28.5674 96.5636C28.6231 96.6008 28.6603 96.6473 28.6789 96.7124C28.6975 96.7774 28.6789 96.8425 28.651 96.8983L4.14746 139.266C4.10096 139.34 4.01727 139.387 3.93358 139.387V139.396ZM2.92926 138.28L3.84988 138.81L28.1117 96.8704L27.1911 96.3404L2.92926 138.28Z" fill="black"/>
<path d="M29.6927 97.512L25.8428 95.2801L29.9902 92.5461L29.6927 97.512Z" fill="white"/>
<path d="M29.6928 97.7538C29.6928 97.7538 29.6091 97.7445 29.5719 97.7166L25.722 95.4941C25.6476 95.4476 25.6011 95.3732 25.6011 95.2895C25.6011 95.2058 25.6383 95.1221 25.7127 95.0756L29.8601 92.3417C29.9345 92.2859 30.0368 92.2859 30.1205 92.3417C30.2042 92.3881 30.2507 92.4811 30.2414 92.5741L29.9438 97.5306C29.9438 97.6143 29.888 97.6887 29.8136 97.7352C29.7764 97.7538 29.7393 97.7631 29.7021 97.7631L29.6928 97.7538ZM26.3171 95.2709L29.4696 97.0936L29.7207 93.0205L26.3171 95.2616V95.2709Z" fill="black"/>
<path d="M28.5396 93.504L29.8879 94.2851L29.9902 92.5461L28.5396 93.504Z" fill="#38A770"/>
<path d="M29.888 94.527C29.888 94.527 29.8043 94.5177 29.7671 94.4898L28.4187 93.7087C28.3443 93.6622 28.2979 93.5878 28.2979 93.5041C28.2979 93.4204 28.335 93.3367 28.4094 93.2902L29.8601 92.3324C29.9345 92.2766 30.0368 92.2766 30.1205 92.3324C30.2042 92.3789 30.2507 92.4719 30.2414 92.5649L30.1391 94.2945C30.1391 94.3782 30.0833 94.4526 30.0089 94.4991C29.9717 94.5177 29.9345 94.527 29.8973 94.527H29.888ZM29.0139 93.4855L29.6648 93.8668L29.7206 93.0205L29.0139 93.4855Z" fill="black"/>
<path d="M234.118 33.4492H217.426V50.1414H234.118V33.4492Z" fill="white"/>
<path d="M234.119 50.374H217.426C217.296 50.374 217.194 50.2717 217.194 50.1415V33.4493C217.194 33.3191 217.296 33.2168 217.426 33.2168H234.119C234.249 33.2168 234.351 33.3191 234.351 33.4493V50.1415C234.351 50.2717 234.249 50.374 234.119 50.374ZM217.659 49.909H233.895V33.6725H217.659V49.909Z" fill="black"/>
<path d="M221.49 36.4993V39.5773H223.536V38.5451H224.735V45.036H223.554V47.0911H227.841V45.036H226.837V38.5451H228.009V39.5773H230.055V36.4993H221.49Z" fill="#2A9B5F"/>
<path d="M227.841 47.3423H223.555C223.415 47.3423 223.303 47.2307 223.303 47.0912V45.0454C223.303 44.9059 223.415 44.7943 223.555 44.7943H224.484V38.8056H223.787V39.5867C223.787 39.7262 223.675 39.8378 223.536 39.8378H221.49C221.351 39.8378 221.239 39.7262 221.239 39.5867V36.5086C221.239 36.3692 221.351 36.2576 221.49 36.2576H230.055C230.194 36.2576 230.306 36.3692 230.306 36.5086V39.5867C230.306 39.7262 230.194 39.8378 230.055 39.8378H228.009C227.869 39.8378 227.758 39.7262 227.758 39.5867V38.8056H227.088V44.7943H227.841C227.981 44.7943 228.093 44.9059 228.093 45.0454V47.0912C228.093 47.2307 227.981 47.3423 227.841 47.3423ZM223.806 46.8401H227.59V45.2965H226.837C226.698 45.2965 226.586 45.1849 226.586 45.0454V38.5545C226.586 38.415 226.698 38.3034 226.837 38.3034H228.009C228.148 38.3034 228.26 38.415 228.26 38.5545V39.3356H229.804V36.7597H221.741V39.3356H223.285V38.5545C223.285 38.415 223.396 38.3034 223.536 38.3034H224.736C224.875 38.3034 224.987 38.415 224.987 38.5545V45.0454C224.987 45.1849 224.875 45.2965 224.736 45.2965H223.806V46.8401Z" fill="black"/>
<path d="M232.119 9.80127H215.427V26.4935H232.119V9.80127Z" fill="white"/>
<path d="M232.119 26.726H215.427C215.297 26.726 215.195 26.6237 215.195 26.4935V9.80133C215.195 9.67114 215.297 9.56885 215.427 9.56885H232.119C232.249 9.56885 232.352 9.67114 232.352 9.80133V26.4935C232.352 26.6237 232.249 26.726 232.119 26.726ZM215.66 26.261H231.896V10.0338H215.66V26.2703V26.261Z" fill="black"/>
<path d="M225.2 12.372L224.057 13.6704L227.98 17.1231L229.123 15.8247L225.2 12.372Z" fill="#38A770"/>
<path d="M227.972 17.2408C227.972 17.2408 227.916 17.2315 227.888 17.2129L223.964 13.7629C223.964 13.7629 223.927 13.7071 223.917 13.6792C223.917 13.642 223.917 13.6141 223.945 13.5862L225.089 12.2936C225.135 12.2378 225.21 12.2378 225.266 12.2843L229.19 15.7343C229.19 15.7343 229.227 15.7901 229.236 15.818C229.236 15.8552 229.236 15.8831 229.209 15.911L228.065 17.2036C228.065 17.2036 228.009 17.2501 227.972 17.2501V17.2408ZM224.224 13.6513L227.953 16.9339L228.93 15.8273L225.201 12.5447L224.224 13.6513Z" fill="black"/>
<path fill-rule="evenodd" clip-rule="evenodd" d="M218.524 23.62C218.524 23.62 222.736 18.245 222.894 18.0683C223.099 17.8358 223.462 17.808 223.703 18.0125C223.936 18.2171 223.964 18.5798 223.759 18.8216C223.61 18.9983 218.803 23.9083 218.803 23.9083C221.053 22.625 225.991 20.5512 225.991 20.5512L227.73 17.3895L223.806 13.9395L220.895 16.0597C220.895 16.0597 219.519 21.2115 218.533 23.6107L218.524 23.62Z" fill="#38A770"/>
<path d="M218.803 24.0386C218.803 24.0386 218.728 24.02 218.7 23.9921C218.663 23.9456 218.663 23.8712 218.71 23.8247C220.374 22.1229 223.545 18.8682 223.657 18.738C223.731 18.645 223.778 18.5334 223.768 18.4125C223.768 18.2916 223.703 18.18 223.62 18.1056C223.527 18.0312 223.406 17.9941 223.294 17.9941C223.173 17.9941 223.071 18.0591 222.987 18.1428C222.866 18.2823 220.077 21.8347 218.626 23.6852C218.589 23.7317 218.514 23.7503 218.468 23.7131C218.412 23.6852 218.393 23.6108 218.412 23.555C219.379 21.193 220.755 16.0691 220.765 16.0226C220.765 15.9947 220.793 15.9668 220.811 15.9575L223.722 13.8373C223.768 13.8001 223.833 13.8094 223.88 13.8373L227.804 17.2873C227.804 17.2873 227.86 17.3896 227.832 17.4454L226.093 20.6071C226.093 20.6071 226.056 20.6536 226.028 20.6629C225.982 20.6815 221.072 22.746 218.849 24.0107C218.83 24.02 218.812 24.0293 218.784 24.0293L218.803 24.0386ZM223.331 17.743C223.499 17.743 223.666 17.8081 223.796 17.9197C223.936 18.0406 224.019 18.2172 224.029 18.4032C224.038 18.5892 223.982 18.7659 223.852 18.9054C223.731 19.0449 220.765 22.0857 219.472 23.4062C221.769 22.2159 225.47 20.6443 225.907 20.4584L227.572 17.4268L223.796 14.107L220.997 16.1435C220.876 16.5992 219.835 20.4491 218.951 22.8762C220.086 21.4255 222.68 18.1242 222.801 17.9848C222.922 17.8453 223.09 17.7616 223.276 17.7523C223.294 17.7523 223.303 17.7523 223.322 17.7523L223.331 17.743Z" fill="black"/>
<path d="M212.647 21.9182H195.954V38.6104H212.647V21.9182Z" fill="white"/>
<path d="M212.647 38.843H195.954C195.824 38.843 195.722 38.7407 195.722 38.6105V21.9183C195.722 21.7881 195.824 21.6858 195.954 21.6858H212.647C212.777 21.6858 212.879 21.7881 212.879 21.9183V38.6105C212.879 38.7407 212.777 38.843 212.647 38.843ZM196.187 38.378H212.423V22.1415H196.187V38.378Z" fill="black"/>
<path fill-rule="evenodd" clip-rule="evenodd" d="M211.363 36.6391H200.678V26.8469H208.508L211.363 29.7018V36.6391Z" fill="white"/>
<path d="M211.363 36.8716H200.678C200.548 36.8716 200.446 36.7693 200.446 36.6391V26.847C200.446 26.7168 200.548 26.6145 200.678 26.6145H208.508C208.573 26.6145 208.629 26.6424 208.666 26.6796L211.521 29.5345C211.521 29.5345 211.586 29.6368 211.586 29.7019V36.6391C211.586 36.7693 211.484 36.8716 211.354 36.8716H211.363ZM200.911 36.4066H211.131V29.7949L208.415 27.0795H200.911V36.4159V36.4066Z" fill="black"/>
<path fill-rule="evenodd" clip-rule="evenodd" d="M211.363 29.7016H208.508V26.8467L211.363 29.7016Z" fill="#38A770"/>
<path d="M211.363 29.9527H208.508C208.369 29.9527 208.257 29.8411 208.257 29.7017V26.8468C208.257 26.7445 208.322 26.6515 208.415 26.6143C208.508 26.5771 208.62 26.5957 208.685 26.6701L211.54 29.525C211.614 29.5994 211.633 29.7017 211.596 29.804C211.559 29.8969 211.466 29.962 211.363 29.962V29.9527ZM208.759 29.4506H210.75L208.759 27.4605V29.4506Z" fill="black"/>
<path d="M199.693 27.2745H197.228C197.098 27.2745 196.996 27.1722 196.996 27.0421C196.996 26.9119 197.098 26.8096 197.228 26.8096H199.693C199.823 26.8096 199.925 26.9119 199.925 27.0421C199.925 27.1722 199.823 27.2745 199.693 27.2745Z" fill="black"/>
<path d="M200.678 26.0378C200.548 26.0378 200.446 25.9355 200.446 25.8054V23.8897C200.446 23.7595 200.548 23.6572 200.678 23.6572C200.808 23.6572 200.911 23.7595 200.911 23.8897V25.8054C200.911 25.9355 200.808 26.0378 200.678 26.0378Z" fill="black"/>
<path d="M27.2468 140.977C26.2704 142.679 24.0851 143.255 22.3926 142.279L18.18 139.852C16.4783 138.875 15.9017 136.69 16.8781 134.997L15.1578 137.983C14.1814 139.684 14.7579 141.86 16.4597 142.837L20.6723 145.264C22.374 146.24 24.55 145.664 25.5265 143.962L32.1755 132.44L27.4421 140.642L27.2468 140.977Z" fill="#2A9B5F"/>
<path d="M22.4298 145.98C21.7881 145.98 21.1372 145.813 20.5327 145.468L16.3201 143.041C14.5068 141.991 13.8837 139.666 14.9252 137.852L16.6456 134.867C16.7107 134.746 16.8688 134.709 16.9804 134.774C17.1013 134.839 17.1385 134.997 17.0734 135.109C16.1621 136.69 16.7014 138.717 18.2823 139.629L22.4949 142.056C24.0664 142.958 26.0751 142.428 26.9957 140.875L31.9429 132.31C32.008 132.189 32.1568 132.152 32.2777 132.217C32.3986 132.282 32.4358 132.44 32.3707 132.552L27.4421 141.089C27.4421 141.089 27.4235 141.116 27.4235 141.126L25.7217 144.074C25.015 145.292 23.741 145.971 22.4205 145.971L22.4298 145.98ZM16.1528 136.727L15.3623 138.094C14.451 139.675 14.9903 141.702 16.5712 142.614L20.7838 145.041C22.3647 145.952 24.3919 145.413 25.3032 143.832L26.0937 142.465C24.9499 143.134 23.4899 143.19 22.2624 142.483L18.0498 140.056C16.8223 139.35 16.1435 138.057 16.1528 136.727Z" fill="black"/>
<path d="M31.8965 120.946C29.0324 119.3 25.3777 120.277 23.7225 123.141L17.0735 134.663L21.8068 126.461L22.0672 126.015L32.4359 132.003L34.0912 129.13C35.7464 126.266 34.7607 122.602 31.9058 120.956L31.8965 120.946Z" fill="white"/>
<path d="M22.058 126.005L21.7976 126.452L17.0642 134.653L16.869 134.988C15.8925 136.69 16.4691 138.866 18.1709 139.842L22.3834 142.27C24.0852 143.246 26.2612 142.669 27.2377 140.968L27.4329 140.633L32.1663 132.431L32.4266 131.985L22.058 125.996V126.005Z" fill="#38A770"/>
<path d="M24.1595 142.995C23.5178 142.995 22.8669 142.827 22.2624 142.483L18.0499 140.056C16.2365 139.005 15.6135 136.681 16.655 134.867L21.844 125.884C21.9091 125.763 22.0672 125.726 22.1788 125.791L32.5474 131.78C32.6032 131.817 32.6404 131.864 32.659 131.929C32.6776 131.994 32.659 132.059 32.6311 132.115L27.4514 141.098C26.7447 142.316 25.4707 142.995 24.1502 142.995H24.1595ZM22.1509 126.34L17.092 135.109C16.1807 136.69 16.7201 138.717 18.301 139.629L22.5135 142.056C24.0944 142.967 26.1216 142.428 27.033 140.847L32.0918 132.078L22.1509 126.34Z" fill="black"/>
<path d="M22.4298 145.98C21.7881 145.98 21.1372 145.813 20.5327 145.468L16.3201 143.041C14.5068 141.991 13.8837 139.666 14.9252 137.852L16.6456 134.867C16.7107 134.746 16.8688 134.709 16.9804 134.774C17.1013 134.839 17.1385 134.997 17.0734 135.109C16.1621 136.69 16.7014 138.717 18.2823 139.629L22.4949 142.056C24.0664 142.958 26.0751 142.428 26.9957 140.875L31.9429 132.31C32.008 132.189 32.1568 132.152 32.2777 132.217C32.3986 132.282 32.4358 132.44 32.3707 132.552L27.4421 141.089C27.4421 141.089 27.4235 141.116 27.4235 141.126L25.7217 144.074C25.015 145.292 23.741 145.971 22.4205 145.971L22.4298 145.98ZM16.1528 136.727L15.3623 138.094C14.451 139.675 14.9903 141.702 16.5712 142.614L20.7838 145.041C22.3647 145.952 24.3919 145.413 25.3032 143.832L26.0937 142.465C24.9499 143.134 23.4899 143.19 22.2624 142.483L18.0498 140.056C16.8223 139.35 16.1435 138.057 16.1528 136.727Z" fill="black"/>
<path d="M17.0642 134.905C17.0642 134.905 16.9805 134.895 16.9433 134.867C16.8224 134.802 16.7852 134.644 16.8503 134.533L23.4993 123.011C25.2103 120.035 29.0323 119.012 32.0081 120.723C33.4495 121.56 34.4817 122.899 34.9095 124.508C35.3373 126.117 35.1234 127.8 34.2864 129.241L32.6312 132.115C32.594 132.171 32.5475 132.217 32.4824 132.226C32.4173 132.245 32.3522 132.226 32.2964 132.198L22.1416 126.34L17.2688 134.774C17.2223 134.849 17.1386 134.895 17.0549 134.895L17.0642 134.905ZM22.3927 125.921L32.3336 131.659L33.868 128.999C34.6305 127.67 34.8351 126.126 34.4445 124.647C34.054 123.169 33.0961 121.932 31.7756 121.16C31.7756 121.16 31.7756 121.16 31.7663 121.16C29.0416 119.589 25.5172 120.528 23.9363 123.271L22.402 125.931L22.3927 125.921Z" fill="black"/>
<path d="M24.1595 142.995C23.5178 142.995 22.8669 142.827 22.2624 142.483L18.0499 140.056C16.2365 139.005 15.6135 136.681 16.655 134.867L21.844 125.884C21.9091 125.763 22.0672 125.726 22.1788 125.791L32.5474 131.78C32.6032 131.817 32.6404 131.864 32.659 131.929C32.6776 131.994 32.659 132.059 32.6311 132.115L27.4514 141.098C26.7447 142.316 25.4707 142.995 24.1502 142.995H24.1595ZM22.1509 126.34L17.092 135.109C16.1807 136.69 16.7201 138.717 18.301 139.629L22.5135 142.056C24.0944 142.967 26.1216 142.428 27.033 140.847L32.0918 132.078L22.1509 126.34Z" fill="black"/>
<path d="M32.4825 39.4105L5.12407 41.8097L4.76139 37.6715L2.72485 14.4605L6.62125 14.1164L12.0334 13.6422L30.074 12.052L31.0039 22.6067L32.343 37.7924L32.3523 37.9505L32.4825 39.4105Z" fill="#E1F9EA"/>
<path d="M5.12395 41.9676C5.04026 41.9676 4.97516 41.9026 4.96586 41.8282L2.56665 14.4697C2.56665 14.4697 2.56665 14.386 2.60385 14.3581C2.64104 14.3302 2.66894 14.3023 2.70614 14.3023L30.0646 11.8938C30.0646 11.8938 30.1483 11.8938 30.1762 11.931C30.2041 11.9589 30.2227 11.9961 30.232 12.0333L32.6405 39.3918C32.6405 39.4754 32.5847 39.5498 32.501 39.5591L5.15185 41.9676C5.15185 41.9676 5.15185 41.9676 5.14255 41.9676H5.12395ZM2.89212 14.5999L5.27274 41.6422L32.315 39.2616L29.9344 12.2193L2.89212 14.5999Z" fill="black"/>
<path d="M36.2394 37.4483L34.5934 37.5971L32.343 37.7924L11.8288 39.5964L8.8902 39.8568L8.65772 37.1786L6.62118 14.1164L6.48169 12.4983L13.1679 11.9125L16.1064 11.6614L25.9823 10.7873L33.8309 10.0991L34.5004 17.6222L36.2301 37.3367L36.2394 37.4483Z" fill="#B6F2D0"/>
<path d="M8.89009 40.0148C8.89009 40.0148 8.81569 40.0055 8.78779 39.9776C8.7599 39.9497 8.7413 39.9125 8.732 39.8753L6.32349 12.5168C6.32349 12.4331 6.37928 12.3587 6.46298 12.3494L33.8214 9.94092C33.8214 9.94092 33.9051 9.94092 33.933 9.97812C33.9609 10.006 33.9795 10.0432 33.9888 10.0804L36.3973 37.4389C36.3973 37.5226 36.3415 37.597 36.2579 37.6063L8.89938 40.0148C8.89938 40.0148 8.89939 40.0148 8.89009 40.0148ZM6.64896 12.647L9.02957 39.6893L36.0719 37.3087L33.6912 10.2664L6.64896 12.647Z" fill="black"/>
<path d="M40.6937 33.5425L37.318 34.0818L35.6814 34.3422L33.4402 34.6956L13.1771 37.9038C13.0934 37.383 13.0097 36.8623 12.9167 36.3322C12.74 35.3279 12.5448 34.3236 12.3495 33.31C10.843 25.4707 9.16913 17.2873 13.112 10.378C13.4468 9.79211 13.8188 9.21555 14.2465 8.6483C14.572 8.21123 14.9161 7.78346 15.2973 7.3557C15.846 7.83926 16.4784 8.17403 17.1851 8.38792C20.1051 9.27135 24.1317 8.11824 27.0609 7.51378C27.4422 7.43009 27.8142 7.365 28.1582 7.3092C28.6232 7.23481 36.3323 6.0166 36.3323 6.0166L37.1971 11.4846L40.6937 33.5239V33.5425Z" fill="#8EDDB3"/>
<path d="M13.1771 38.062C13.1771 38.062 13.112 38.0527 13.0841 38.0341C13.0469 38.0062 13.0283 37.9783 13.019 37.9318C12.7586 36.2765 12.4238 34.5562 12.1076 32.8916C10.378 23.9271 8.60182 14.6557 15.1764 7.26281C15.2043 7.23491 15.2415 7.21631 15.2787 7.20702C15.3345 7.20702 15.3624 7.21631 15.3903 7.24421C17.8081 9.40164 22.1602 8.43452 25.666 7.66268C26.5587 7.46739 27.3957 7.28141 28.121 7.16052L36.2951 5.86792C36.2951 5.86792 36.3788 5.86792 36.4067 5.89582C36.4438 5.92372 36.4624 5.96091 36.4717 5.99811C36.4903 6.1004 40.7959 33.2357 40.8331 33.5054C40.8331 33.5426 40.8331 33.5891 40.8052 33.617C40.7773 33.6542 40.7401 33.6727 40.7029 33.682L13.1864 38.0434C13.1864 38.0434 13.1678 38.0434 13.1585 38.0434L13.1771 38.062ZM15.3066 7.58829C8.95519 14.8417 10.7128 23.9922 12.4145 32.8358C12.7214 34.4539 13.0469 36.1185 13.3073 37.7365L40.5169 33.4217C36.9739 11.0848 36.323 6.97453 36.2021 6.21199L28.1861 7.48599C27.47 7.59758 26.6331 7.78357 25.7497 7.97885C22.2346 8.75999 17.8732 9.72712 15.3159 7.58829H15.3066Z" fill="black"/>
<path d="M12.675 17.6966C12.675 17.6966 12.6471 17.6966 12.6285 17.6966C12.5448 17.6687 12.4983 17.585 12.5262 17.5013C12.7866 16.6457 13.3352 15.6879 14.0885 15.5298C14.7208 15.3996 14.9719 15.7065 15.1486 15.939C15.2788 16.1064 15.3625 16.1994 15.5298 16.1994H15.5484C16.1064 16.1994 16.404 15.8553 16.7387 15.4554C17.0084 15.1393 17.2781 14.8138 17.7059 14.6371C18.673 14.2465 19.3053 14.665 19.9098 15.0649C20.3376 15.3438 20.7374 15.6042 21.2675 15.6321C22.0114 15.6693 22.4857 15.2601 22.9879 14.8231C23.3319 14.5255 23.6853 14.2186 24.1503 14.0326C25.3685 13.5305 25.9357 13.9582 26.5309 14.4046C26.875 14.6557 27.2283 14.9254 27.7491 15.0463C28.6976 15.2694 28.8371 14.9533 29.051 14.479C29.1812 14.2 29.3207 13.8746 29.6554 13.6328C30.5668 12.9725 31.0689 13.4561 31.4781 13.856C31.7292 14.0884 31.9617 14.3209 32.2685 14.3488C32.5475 14.3767 32.7521 14.1907 33.0032 13.9861C33.3659 13.6793 33.8122 13.2887 34.5748 13.6142C34.6491 13.6514 34.6863 13.7351 34.6584 13.8188C34.6213 13.8932 34.5283 13.9303 34.4539 13.9025C33.868 13.6514 33.5611 13.9211 33.2078 14.2279C32.9381 14.4604 32.6591 14.7022 32.2499 14.665C31.8315 14.6278 31.5339 14.3395 31.2735 14.0884C30.8457 13.6793 30.5482 13.391 29.8414 13.8932C29.581 14.0884 29.4602 14.3581 29.3393 14.6092C29.1161 15.1114 28.8836 15.6321 27.684 15.3531C27.0981 15.2136 26.7076 14.9161 26.3542 14.6557C25.7869 14.2279 25.3406 13.8932 24.2712 14.3302C23.8527 14.4976 23.5272 14.7859 23.2017 15.0742C22.681 15.5298 22.1509 16.0134 21.2675 15.9576C20.6537 15.9297 20.1981 15.6321 19.761 15.3438C19.1659 14.9533 18.6451 14.6185 17.8361 14.944C17.4827 15.0928 17.2409 15.3717 16.9898 15.6693C16.6365 16.0878 16.2645 16.5248 15.5577 16.5248C15.5577 16.5248 15.5391 16.5248 15.5298 16.5248C15.2137 16.5248 15.0556 16.3203 14.9068 16.1436C14.7301 15.9204 14.5906 15.753 14.1443 15.846C13.5119 15.9762 13.0376 16.8782 12.8145 17.6129C12.7959 17.678 12.7308 17.7245 12.6657 17.7245L12.675 17.6966Z" fill="black"/>
<path d="M12.7493 21.8905C12.7493 21.8905 12.6935 21.8905 12.6656 21.8626C12.5912 21.8161 12.5726 21.7231 12.6191 21.6487C13.5304 20.198 14.4883 20.6072 15.4089 20.9977C15.7251 21.1372 16.0598 21.2767 16.3946 21.3511C17.2966 21.5464 17.4361 21.3418 17.6965 20.9606C17.8546 20.7281 18.0592 20.4305 18.4776 20.1701C19.4913 19.5564 20.6351 19.9934 21.5557 20.3561L21.7603 20.4398C23.1924 20.9884 23.3133 21.0349 24.6617 20.1143L24.8011 20.0213C25.7683 19.3611 26.6982 18.738 27.9908 18.7845C28.4372 18.8031 28.8463 18.9798 29.2462 19.1472C29.7484 19.3704 30.2319 19.575 30.7341 19.4262C31.0968 19.3146 31.2827 19.0356 31.478 18.7473C31.6919 18.4311 31.9058 18.0964 32.3429 17.9755C32.7985 17.8453 33.2077 18.0034 33.5611 18.1429C33.9609 18.301 34.305 18.4311 34.677 18.2173C34.7514 18.1708 34.8444 18.1987 34.8909 18.2731C34.9374 18.3475 34.9095 18.4404 34.8351 18.4869C34.3329 18.7752 33.8679 18.5985 33.4495 18.4311C33.1054 18.2917 32.7799 18.1708 32.4266 18.2731C32.0918 18.3661 31.9244 18.6264 31.7291 18.924C31.5245 19.2402 31.2827 19.5936 30.8178 19.733C30.204 19.919 29.6554 19.6773 29.116 19.4448C28.7254 19.2774 28.3628 19.1193 27.9722 19.11C26.7726 19.0728 25.9264 19.6401 24.9592 20.291L24.8197 20.384C23.3784 21.3604 23.1645 21.3232 21.6394 20.7374L21.4348 20.6537C20.5421 20.3096 19.5192 19.9097 18.6357 20.4491C18.2731 20.6723 18.0964 20.9234 17.9476 21.1465C17.6221 21.6208 17.3524 21.8905 16.3202 21.6673C15.9482 21.5836 15.6135 21.4441 15.2787 21.2953C14.3581 20.9048 13.642 20.5979 12.8702 21.8254C12.8423 21.8719 12.7865 21.8998 12.74 21.8998L12.7493 21.8905Z" fill="black"/>
<path d="M18.1056 27.0702C17.4825 27.0702 16.9525 26.8936 16.4503 26.7169C15.6413 26.4472 14.9531 26.2054 13.9767 26.7076C13.9023 26.7448 13.8093 26.7076 13.7721 26.6425C13.7349 26.5774 13.7721 26.4751 13.8372 26.4379C14.9252 25.8799 15.7528 26.1589 16.5526 26.4379C17.0919 26.6239 17.6499 26.8099 18.3194 26.7634C19.0913 26.7076 19.3982 26.4286 19.7794 26.0752C20.0119 25.8613 20.2723 25.6289 20.6629 25.4057C21.909 24.6989 22.9877 25.0244 24.0385 25.3313C24.7731 25.5452 25.5357 25.7683 26.354 25.6289C27.1631 25.4894 27.7582 25.0151 28.3348 24.5687C29.1903 23.8992 30.0644 23.211 31.5523 23.7225C31.8871 23.8341 32.1103 24.0015 32.3149 24.141C32.6496 24.3828 32.8821 24.5594 33.5238 24.4293C33.812 24.3735 34.0259 24.234 34.2584 24.0759C34.5839 23.862 34.9001 23.6481 35.4208 23.6667C35.5045 23.6667 35.5696 23.7411 35.5696 23.8248C35.5696 23.9085 35.4952 23.9736 35.4115 23.9736C35.3929 23.9736 35.3743 23.9736 35.3557 23.9736C34.9744 23.9736 34.7234 24.141 34.4258 24.327C34.1747 24.485 33.9236 24.6524 33.5796 24.7268C32.817 24.8756 32.4822 24.6431 32.1382 24.3921C31.9522 24.2526 31.7476 24.1131 31.4593 24.0108C30.1388 23.5551 29.3949 24.1317 28.53 24.8105C27.9256 25.2848 27.2932 25.7776 26.4098 25.9357C25.5264 26.0938 24.7266 25.852 23.9548 25.6289C22.9226 25.322 21.9462 25.043 20.8117 25.6754C20.449 25.8799 20.2165 26.0938 19.984 26.3077C19.5748 26.689 19.2122 27.0144 18.338 27.0702C18.2636 27.0702 18.18 27.0702 18.1056 27.0702Z" fill="black"/>
<path d="M15.9018 32.9194C15.9018 32.9194 15.8275 32.9101 15.7996 32.8822C15.7345 32.8264 15.7345 32.7241 15.7996 32.659C17.3804 30.9665 18.8962 31.292 20.505 31.6454C21.7418 31.9151 23.0344 32.194 24.4386 31.5059C24.857 31.3013 25.1918 31.0595 25.5266 30.8271C26.0753 30.4365 26.5867 30.0645 27.405 29.8971C28.4373 29.6832 29.0603 29.8227 29.7764 29.9901C29.9809 30.0366 30.1855 30.0831 30.4273 30.1296C30.604 30.1668 30.7435 30.1947 30.8644 30.2226C31.2828 30.3249 31.3758 30.3435 31.9896 30.0645C32.2221 29.9622 32.4081 29.7948 32.594 29.6181C32.9195 29.3206 33.245 29.023 33.8122 29.0044C33.8308 29.0044 33.8494 29.0044 33.868 29.0044C34.426 29.0044 34.9282 29.2648 35.3745 29.4973C36.1185 29.8878 36.7043 30.1854 37.3832 29.3392C37.439 29.2741 37.532 29.2648 37.5971 29.3113C37.6621 29.3671 37.6714 29.4601 37.6249 29.5252C36.788 30.576 35.9976 30.1668 35.235 29.7669C34.7887 29.5345 34.3423 29.2927 33.8215 29.3113C33.3659 29.3299 33.1055 29.5624 32.7986 29.8413C32.594 30.0273 32.3895 30.2133 32.1105 30.3435C31.4316 30.6597 31.2642 30.6411 30.7807 30.5202C30.6691 30.4923 30.5296 30.4644 30.3622 30.4272C30.1204 30.3807 29.9066 30.3342 29.702 30.2877C28.9952 30.1296 28.428 29.9994 27.4608 30.204C26.7076 30.3621 26.2147 30.7155 25.694 31.0874C25.3592 31.3292 25.0058 31.5803 24.5688 31.7942C23.0623 32.5288 21.7325 32.2312 20.4306 31.9523C18.8404 31.6082 17.4827 31.3106 16.0134 32.8729C15.9855 32.9101 15.939 32.9194 15.9018 32.9194Z" fill="black"/>
<path d="M155.084 0.232422H136.039C134.75 0.232422 133.705 1.27744 133.705 2.56654V17.6221C133.705 18.9112 134.75 19.9562 136.039 19.9562H155.084C156.373 19.9562 157.418 18.9112 157.418 17.6221V2.56654C157.418 1.27744 156.373 0.232422 155.084 0.232422Z" fill="#EBFFF4"/>
<path d="M155.084 20.1887H136.039C134.626 20.1887 133.472 19.0356 133.472 17.6221V2.5666C133.472 1.15311 134.626 0 136.039 0H155.084C156.497 0 157.651 1.15311 157.651 2.5666V17.6221C157.651 19.0356 156.497 20.1887 155.084 20.1887ZM136.039 0.464964C134.877 0.464964 133.937 1.40419 133.937 2.5666V17.6221C133.937 18.7845 134.877 19.7238 136.039 19.7238H155.084C156.246 19.7238 157.186 18.7845 157.186 17.6221V2.5666C157.186 1.41349 156.246 0.464964 155.084 0.464964H136.039Z" fill="black"/>
<path d="M157.418 15.3439H133.705C133.575 15.3439 133.472 15.2416 133.472 15.1114C133.472 14.9812 133.575 14.8789 133.705 14.8789H157.418C157.548 14.8789 157.651 14.9812 157.651 15.1114C157.651 15.2416 157.548 15.3439 157.418 15.3439Z" fill="black"/>
<path d="M137.824 15.3439C137.824 15.3439 137.759 15.3439 137.722 15.3253C137.611 15.2695 137.555 15.13 137.611 15.0184L142.855 3.85001C142.93 3.69192 143.199 3.69192 143.274 3.85001L148.519 15.0184C148.574 15.13 148.519 15.2695 148.407 15.3253C148.295 15.3811 148.156 15.3253 148.1 15.2137L143.069 4.49166L138.038 15.2137C138.001 15.2974 137.917 15.3439 137.824 15.3439Z" fill="black"/>
<path d="M155.716 15.3438C155.633 15.3438 155.549 15.2973 155.512 15.2136L150.983 5.8864L146.901 11.8286C146.826 11.9309 146.687 11.9588 146.575 11.8844C146.473 11.81 146.445 11.6705 146.519 11.559L150.834 5.28194C150.881 5.21685 150.964 5.17035 151.039 5.17965C151.122 5.17965 151.197 5.23545 151.234 5.30984L155.939 14.9997C155.995 15.1113 155.939 15.2508 155.828 15.3066C155.791 15.3252 155.763 15.3252 155.726 15.3252L155.716 15.3438Z" fill="black"/>
<path d="M148.872 4.33335C148.872 3.7382 148.388 3.25464 147.793 3.25464C147.198 3.25464 146.715 3.7382 146.715 4.33335C146.715 4.92851 147.198 5.41207 147.793 5.41207C148.388 5.41207 148.872 4.92851 148.872 4.33335Z" fill="#38A770"/>
<path d="M147.784 5.65389C147.059 5.65389 146.464 5.06804 146.464 4.34269C146.464 3.61735 147.049 3.03149 147.784 3.03149C148.519 3.03149 149.095 3.61735 149.095 4.34269C149.095 5.06804 148.509 5.65389 147.784 5.65389ZM147.784 3.48716C147.319 3.48716 146.929 3.86843 146.929 4.33339C146.929 4.79836 147.31 5.17963 147.784 5.17963C148.258 5.17963 148.63 4.79836 148.63 4.33339C148.63 3.86843 148.249 3.48716 147.784 3.48716Z" fill="black"/>
<path d="M103.269 3.80339V2.38989L76.747 2.38989V3.80339L103.269 3.80339Z" fill="#38A770"/>
<path d="M103.268 4.05452H76.7469C76.6167 4.05452 76.5051 3.94293 76.5051 3.81274V2.39925C76.5051 2.26906 76.6167 2.15747 76.7469 2.15747H103.268C103.399 2.15747 103.51 2.26906 103.51 2.39925V3.81274C103.51 3.94293 103.399 4.05452 103.268 4.05452ZM76.9887 3.57096H103.027V2.64103H76.9887V3.57096Z" fill="black"/>
<path d="M92.0535 8.49967V7.08618L65.5319 7.08618V8.49967L92.0535 8.49967Z" fill="#B6F2D0"/>
<path d="M92.0535 8.79717H65.5319C65.3738 8.79717 65.2437 8.66698 65.2437 8.5089V7.09541C65.2437 6.93732 65.3738 6.80713 65.5319 6.80713H92.0535C92.2115 6.80713 92.3417 6.93732 92.3417 7.09541V8.5089C92.3417 8.66698 92.2115 8.79717 92.0535 8.79717ZM65.8202 8.22062H91.7652V7.38368H65.8202V8.22062Z" fill="black"/>
<path d="M20.0771 75.2775L20.7095 76.877L19.389 75.7611L17.6035 73.1945L18.2824 72.7202L20.0771 75.2775Z" fill="#FFF5DE"/>
<path d="M20.7094 77.0537C20.7094 77.0537 20.6257 77.0351 20.5978 77.0165L19.2866 75.9006C19.2866 75.9006 19.268 75.882 19.2587 75.8634L17.464 73.2968C17.464 73.2968 17.4268 73.2131 17.4361 73.1666C17.4361 73.1201 17.4733 73.0829 17.5105 73.055L18.1893 72.5807C18.2637 72.5249 18.3753 72.5435 18.4311 72.6272L20.2258 75.1938C20.2258 75.1938 20.2444 75.2217 20.2444 75.231L20.8768 76.8212C20.9047 76.8956 20.8768 76.9793 20.8117 77.0258C20.7838 77.0444 20.7466 77.063 20.7094 77.063V77.0537ZM19.5284 75.6402L20.2909 76.2911L19.9283 75.3705L18.2451 72.9713L17.8452 73.2503L19.5284 75.6495V75.6402Z" fill="black"/>
<path d="M13.4653 70.2188C13.6699 70.5071 14.0698 70.5815 14.3674 70.3769L14.4324 70.3304L16.1342 72.7668L15.7622 73.0272C15.474 73.2318 15.3996 73.6316 15.6042 73.9292C15.8087 74.2268 16.2086 74.2919 16.5062 74.0873L19.4913 71.995C19.7795 71.7904 19.8539 71.3905 19.6493 71.0929C19.4448 70.7954 19.0449 70.7303 18.7473 70.9348L18.3753 71.1952L16.6736 68.7588L16.7387 68.7123C17.0269 68.5077 17.1013 68.1079 16.8968 67.8103C16.6922 67.5127 16.2923 67.4476 15.9947 67.6522L15.9296 67.6987L13.6885 69.2703L13.6234 69.3168C13.3351 69.5214 13.2607 69.9212 13.4653 70.2188Z" fill="#E1F9EA"/>
<path d="M16.1435 74.3849C16.097 74.3849 16.0505 74.3849 15.9947 74.3756C15.7809 74.3384 15.5949 74.2175 15.4647 74.0408C15.3345 73.8641 15.288 73.6409 15.3252 73.427C15.3624 73.2132 15.4833 73.0179 15.66 72.897L15.8924 72.7389L14.386 70.5815C14.2279 70.6745 14.0326 70.7024 13.8466 70.6652C13.6327 70.628 13.4374 70.5071 13.3166 70.3304C13.0562 69.9584 13.1492 69.447 13.5211 69.1866L15.9017 67.522C16.0784 67.3918 16.2923 67.3453 16.5155 67.3825C16.7294 67.4197 16.9154 67.5406 17.0456 67.7173C17.1665 67.894 17.2222 68.1172 17.185 68.331C17.1479 68.517 17.0549 68.6844 16.9154 68.8053L18.4219 70.9627L18.6543 70.8046C19.0263 70.5443 19.5378 70.6373 19.7981 71.0092C19.919 71.1859 19.9748 71.4091 19.9376 71.623C19.9004 71.8369 19.7795 72.0229 19.5936 72.153L16.6085 74.2454C16.469 74.3384 16.3016 74.3942 16.1435 74.3942V74.3849ZM14.4418 70.1537C14.4976 70.1537 14.5534 70.1816 14.5813 70.2281L16.283 72.6645C16.283 72.6645 16.3202 72.7482 16.3109 72.7947C16.3109 72.8412 16.2737 72.8784 16.2365 72.9063L15.8646 73.1667C15.7623 73.2411 15.6879 73.3434 15.6693 73.4735C15.6507 73.5944 15.6693 73.7246 15.7437 73.8269C15.8181 73.9292 15.9203 74.0036 16.0505 74.0222C16.1807 74.0408 16.3016 74.0222 16.4039 73.9478L19.389 71.8555C19.4913 71.7811 19.5657 71.6788 19.5843 71.5486C19.6029 71.4277 19.5843 71.2975 19.5099 71.1952C19.3611 70.9813 19.0635 70.9255 18.8496 71.0743L18.4776 71.3347C18.4776 71.3347 18.394 71.3719 18.3475 71.3626C18.301 71.3626 18.2638 71.3254 18.2359 71.2882L16.5341 68.8518C16.4783 68.7774 16.4969 68.6658 16.5806 68.61L16.6457 68.5635C16.748 68.4891 16.8224 68.3868 16.841 68.2567C16.8596 68.1265 16.841 68.0056 16.7666 67.9033C16.6922 67.801 16.5899 67.7266 16.4597 67.708C16.3388 67.6894 16.2086 67.708 16.1063 67.7824L13.7257 69.447C13.5118 69.5957 13.456 69.8933 13.6141 70.1072C13.6885 70.2095 13.7908 70.2839 13.921 70.3025C14.0419 70.3211 14.1721 70.3025 14.2744 70.2281L14.3488 70.1816C14.3488 70.1816 14.4139 70.1537 14.4511 70.1537H14.4418Z" fill="black"/>
<path d="M28.0651 76.7191L26.5586 77.5467L27.5071 76.1053L29.8226 73.9944L30.3806 74.6174L28.0651 76.7191Z" fill="#FFF5DE"/>
<path d="M26.5587 77.7233C26.5122 77.7233 26.4657 77.7047 26.4285 77.6675C26.3727 77.6117 26.3634 77.5187 26.4099 77.4536L27.3491 76.0122C27.3491 76.0122 27.3677 75.9843 27.377 75.975L29.6925 73.8734C29.6925 73.8734 29.7762 73.8269 29.8134 73.8269C29.8599 73.8269 29.9064 73.8455 29.9343 73.8827L30.4923 74.4965C30.5574 74.5708 30.5481 74.6824 30.483 74.7475L28.1675 76.8492C28.1675 76.8492 28.1489 76.8678 28.1303 76.8771L26.6238 77.7047C26.6238 77.7047 26.568 77.7233 26.5401 77.7233H26.5587ZM27.6374 76.2168L27.0887 77.0538L27.9629 76.5702L30.1296 74.5987L29.8041 74.2454L27.6374 76.2168Z" fill="black"/>
<path d="M32.2499 69.5211C31.9896 69.7629 31.971 70.172 32.2034 70.4324L32.2592 70.4975L30.0553 72.4968L29.7484 72.1621C29.5066 71.9017 29.0975 71.8831 28.8371 72.1156C28.5767 72.3481 28.5488 72.7665 28.7906 73.0269L31.2456 75.7237C31.4874 75.9841 31.8966 76.012 32.1569 75.7702C32.4173 75.5284 32.4452 75.1192 32.2034 74.8589L31.8966 74.5241L34.1005 72.5247L34.1563 72.5898C34.3981 72.8502 34.8072 72.8688 35.0676 72.6363C35.328 72.4038 35.3466 71.9854 35.1141 71.725L35.0583 71.6599L33.2171 69.6327L33.1613 69.5676C32.9195 69.3072 32.5103 69.2793 32.2499 69.5211Z" fill="#B6F2D0"/>
<path d="M31.7292 76.1144C31.506 76.1144 31.2829 76.0214 31.1155 75.8447L28.6605 73.1479C28.5117 72.9898 28.4373 72.7759 28.4466 72.5527C28.4559 72.3296 28.5489 72.1343 28.7163 71.9855C29.051 71.6786 29.5718 71.7065 29.8787 72.0413L30.0647 72.2459L32.0082 70.479C31.8966 70.3302 31.8408 70.1442 31.8501 69.9582C31.8594 69.7351 31.9524 69.5398 32.1198 69.391C32.4546 69.0841 32.9753 69.112 33.2822 69.4468L35.235 71.5949C35.3838 71.753 35.4582 71.9669 35.4489 72.1901C35.4396 72.4132 35.3466 72.6085 35.1793 72.7573C34.8631 73.0363 34.3981 73.0363 34.0819 72.7573L32.1384 74.5242L32.3244 74.7288C32.6312 75.0635 32.6034 75.5843 32.2686 75.8912C32.1105 76.0307 31.9152 76.1051 31.7199 76.1051L31.7292 76.1144ZM29.2742 72.125C29.1626 72.125 29.051 72.1622 28.958 72.2459C28.865 72.3296 28.8092 72.4504 28.7999 72.5713C28.7999 72.7015 28.8371 72.8131 28.9208 72.9154L31.3758 75.6122C31.5525 75.8075 31.8501 75.8168 32.0454 75.6494C32.2407 75.4727 32.25 75.1751 32.0733 74.9798L31.7664 74.6451C31.7664 74.6451 31.7199 74.5614 31.7199 74.5149C31.7199 74.4684 31.7385 74.4219 31.7757 74.394L33.9796 72.3947C34.054 72.3296 34.1656 72.3389 34.2307 72.404L34.2865 72.469C34.4632 72.6643 34.7608 72.6736 34.9561 72.4969C35.0491 72.4133 35.1049 72.2924 35.1142 72.1715C35.1142 72.0506 35.077 71.9297 34.9933 71.8367L33.0404 69.6886C32.8637 69.5026 32.5662 69.484 32.3709 69.6607C32.2779 69.7444 32.2221 69.8653 32.2128 69.9861C32.2128 70.1163 32.25 70.2372 32.3337 70.3302L32.3895 70.3953C32.4546 70.4697 32.4453 70.5813 32.3802 70.6371L30.1762 72.6364C30.1762 72.6364 30.0925 72.6829 30.0461 72.6829C29.9996 72.6829 29.9531 72.6643 29.9252 72.6271L29.6183 72.2924C29.5253 72.1901 29.3951 72.1343 29.2649 72.1343L29.2742 72.125Z" fill="black"/>
<path d="M24.5967 64.8717L23.3506 66.0434L23.8992 64.4161L25.6196 61.803L26.3171 62.2586L24.5967 64.8717Z" fill="#FFF5DE"/>
<path d="M23.3505 66.2201C23.3505 66.2201 23.2854 66.2201 23.2575 66.1922C23.1924 66.1457 23.1645 66.062 23.1831 65.9877L23.7318 64.351C23.7318 64.351 23.7411 64.3231 23.7504 64.3138L25.4708 61.7007C25.4708 61.7007 25.5359 61.6356 25.5824 61.6263C25.6289 61.617 25.6754 61.6263 25.7125 61.6542L26.41 62.1099C26.4937 62.1657 26.5123 62.2679 26.4565 62.3516L24.7361 64.9647C24.7361 64.9647 24.7175 64.9833 24.7082 64.9926L23.4621 66.1643C23.4621 66.1643 23.3877 66.2108 23.3412 66.2108L23.3505 66.2201ZM24.0573 64.4905L23.7411 65.439L24.4664 64.7601L26.0752 62.3144L25.6754 62.0448L24.0666 64.4905H24.0573Z" fill="black"/>
<path d="M26.8564 56.8557C26.6611 57.1533 26.7448 57.5532 27.0424 57.7484L27.1075 57.7949L25.4708 60.2872L25.0895 60.0361C24.792 59.8408 24.3921 59.9245 24.1968 60.2221C24.0015 60.5196 24.0852 60.9195 24.3828 61.1148L27.433 63.1141C27.7305 63.3094 28.1304 63.2257 28.3257 62.9281C28.521 62.6306 28.4373 62.2307 28.1397 62.0354L27.7584 61.7843L29.3951 59.2921L29.4602 59.3386C29.7578 59.5339 30.1576 59.4502 30.3529 59.1526C30.5482 58.8551 30.4645 58.4552 30.1669 58.2599L30.1018 58.2134L27.8142 56.7069L27.7491 56.6604C27.4516 56.4651 27.0517 56.5488 26.8564 56.8464V56.8557Z" fill="#38A770"/>
<path d="M27.7863 63.4024C27.6282 63.4024 27.4701 63.3559 27.3399 63.2629L24.2897 61.2635C23.9085 61.0125 23.8062 60.501 24.0573 60.129C24.3083 59.7478 24.8198 59.6455 25.1918 59.8966L25.4243 60.0546L26.8656 57.8507C26.7261 57.7298 26.6239 57.5717 26.5867 57.3857C26.5402 57.1719 26.5867 56.9487 26.7076 56.772C26.8284 56.586 27.0144 56.4651 27.2283 56.4186C27.4422 56.3721 27.6654 56.4186 27.8514 56.5395L30.2785 58.1297C30.6597 58.3808 30.762 58.8829 30.511 59.2642C30.3901 59.4502 30.2041 59.5711 29.9902 59.6176C29.8042 59.6548 29.6182 59.6269 29.4508 59.5432L28.0095 61.7471L28.2419 61.9052C28.6232 62.1563 28.7255 62.6677 28.4744 63.0397C28.3535 63.2257 28.1675 63.3466 27.9537 63.3931C27.8979 63.4024 27.8421 63.4117 27.7863 63.4117V63.4024ZM24.7454 60.1104C24.5873 60.1104 24.4385 60.1848 24.3548 60.3243C24.2153 60.5382 24.2711 60.8358 24.4943 60.9753L27.5445 62.9746C27.6468 63.0397 27.777 63.0676 27.8979 63.0397C28.0187 63.0118 28.1303 62.9467 28.1954 62.8351C28.3349 62.6212 28.2791 62.3237 28.0559 62.1842L27.6747 61.9331C27.591 61.8773 27.5724 61.775 27.6282 61.6913L29.2649 59.1991C29.3206 59.1154 29.4229 59.0968 29.5066 59.1526L29.581 59.1991C29.6833 59.2642 29.8135 59.2921 29.9344 59.2642C30.0553 59.2363 30.1669 59.1712 30.232 59.0596C30.3715 58.8457 30.3157 58.5482 30.0925 58.4087L27.6654 56.8185C27.5631 56.7534 27.4329 56.7255 27.312 56.7534C27.1911 56.7813 27.0795 56.8464 27.0144 56.958C26.9493 57.0603 26.9214 57.1905 26.9493 57.3113C26.9772 57.4322 27.0516 57.5438 27.1539 57.6089L27.219 57.6554C27.219 57.6554 27.2841 57.7205 27.2934 57.767C27.3027 57.8135 27.2934 57.86 27.2655 57.8972L25.6288 60.3894C25.573 60.4731 25.4707 60.4917 25.3871 60.4359L25.0058 60.1848C24.9314 60.129 24.8384 60.1104 24.7454 60.1104Z" fill="black"/>
</g>
<defs>
<clipPath id="clip0_640_1862">
<rect width="245.203" height="145.98" fill="white"/>
</clipPath>
</defs>
</svg>
