<svg width="212" height="172" viewBox="0 0 212 172" fill="none" xmlns="http://www.w3.org/2000/svg">
<g clip-path="url(#clip0_707_1713)">
<path d="M183.723 8.95053C183.723 4.2384 179.908 0.423828 175.196 0.423828C170.484 0.423828 166.669 4.2384 166.669 8.95053C166.669 11.4936 167.766 13.7624 169.537 15.3331L175.196 20.9926L180.856 15.3331C182.626 13.7624 183.723 11.4936 183.723 8.95053Z" fill="#2A9B5F"/>
<path d="M175.196 21.4165C175.196 21.4165 174.972 21.3666 174.897 21.2918L169.237 15.6323C167.343 13.9618 166.246 11.5185 166.246 8.95054C166.246 4.01403 170.26 0 175.196 0C180.133 0 184.147 4.01403 184.147 8.95054C184.147 11.4936 183.05 13.9369 181.13 15.6572L175.495 21.2918C175.495 21.2918 175.296 21.4165 175.196 21.4165ZM175.196 0.872615C170.733 0.872615 167.093 4.51267 167.093 8.97547C167.093 11.2941 168.091 13.4881 169.811 15.0339L175.171 20.3943L180.532 15.0339C182.277 13.4881 183.274 11.2692 183.274 8.95054C183.274 4.48774 179.634 0.847683 175.171 0.847683L175.196 0.872615Z" fill="black"/>
<path d="M180.357 8.67652C180.357 11.5188 178.038 13.8374 175.196 13.8374C172.354 13.8374 170.035 11.5188 170.035 8.67652C170.035 5.83429 172.354 3.51562 175.196 3.51562C178.038 3.51562 180.357 5.83429 180.357 8.67652Z" fill="#E1FFED"/>
<path d="M175.196 14.2862C172.105 14.2862 169.611 11.7681 169.611 8.70144C169.611 5.63482 172.129 3.1167 175.196 3.1167C178.263 3.1167 180.781 5.63482 180.781 8.70144C180.781 11.7681 178.263 14.2862 175.196 14.2862ZM175.196 3.96438C172.578 3.96438 170.459 6.08359 170.459 8.70144C170.459 11.3193 172.578 13.4385 175.196 13.4385C177.814 13.4385 179.933 11.3193 179.933 8.70144C179.933 6.08359 177.814 3.96438 175.196 3.96438Z" fill="black"/>
<path d="M198.183 87.5107C198.433 88.3335 199.256 93.6938 193.596 97.4087C193.222 97.658 192.798 97.2591 192.898 96.8353C193.322 95.09 193.82 91.9237 192.3 90.2034L198.208 87.5357L198.183 87.5107Z" fill="white"/>
<path d="M193.347 98.057C193.147 98.057 192.948 98.0071 192.773 97.8824C192.399 97.6331 192.225 97.1594 192.349 96.7106C192.674 95.3893 193.272 92.173 191.876 90.5774C191.751 90.4527 191.701 90.2533 191.751 90.0788C191.801 89.9042 191.901 89.7547 192.075 89.6799L197.984 87.0122C198.134 86.9374 198.308 86.9374 198.458 87.0122C198.607 87.0869 198.707 87.2116 198.757 87.3612C198.757 87.4111 200.402 93.644 193.92 97.8824C193.746 97.9822 193.571 98.057 193.372 98.057H193.347ZM193.147 90.4278C194.269 92.3226 193.87 95.115 193.471 96.8104C197.859 93.8186 197.934 89.8793 197.735 88.3335L193.122 90.4278H193.147Z" fill="black"/>
<path d="M190.255 79.5821C189.432 79.3328 184.072 78.5101 180.357 84.1696C180.108 84.5436 180.507 84.9674 180.931 84.8677C182.676 84.4439 185.842 83.9452 187.562 85.4661L190.23 79.5572L190.255 79.5821Z" fill="white"/>
<path d="M187.587 86.0645C187.463 86.0645 187.313 86.0146 187.213 85.9149C185.618 84.5187 182.402 85.1171 181.08 85.4412C180.631 85.5409 180.158 85.3664 179.908 85.0174C179.659 84.6683 179.659 84.2445 179.908 83.8954C184.147 77.4132 190.38 79.0587 190.43 79.0587C190.579 79.1085 190.729 79.2082 190.779 79.3578C190.853 79.5074 190.853 79.682 190.779 79.8315L188.111 85.7404C188.036 85.9149 187.887 86.0146 187.712 86.0645C187.662 86.0645 187.637 86.0645 187.587 86.0645ZM184.172 83.8954C185.294 83.8954 186.441 84.07 187.363 84.6185L189.457 80.0061C187.912 79.8315 183.972 79.8814 180.98 84.2944C181.828 84.07 183 83.8705 184.197 83.8705L184.172 83.8954Z" fill="black"/>
<path d="M211.472 67.8645C211.547 67.0417 210.874 66.3187 210.026 66.4184C205.613 66.9918 192.798 69.9338 187.188 84.868C186.914 85.5661 187.114 86.3888 187.662 86.9124L190.853 90.1037C191.402 90.6522 192.2 90.8516 192.948 90.6023C208.306 85.4414 210.998 72.3771 211.472 67.8645ZM197.635 80.1559C196.164 78.6849 196.164 76.2914 197.635 74.8205C199.106 73.3495 201.499 73.3495 202.97 74.8205C204.441 76.2914 204.441 78.6849 202.97 80.1559C201.499 81.6269 199.106 81.6269 197.635 80.1559Z" fill="#6ACE95" stroke="black" stroke-width="0.38" stroke-linecap="round" stroke-linejoin="round"/>
<path d="M187.064 91.375C186.665 91.5745 186.216 91.1506 186.416 90.7268C188.909 85.6407 192.873 83.2223 194.818 82.2998C195.242 82.1004 195.69 82.5491 195.491 82.973C194.568 84.9177 192.175 88.8818 187.089 91.3501L187.064 91.375Z" fill="white"/>
<path d="M186.839 91.9985C186.565 91.9985 186.316 91.8988 186.116 91.6993C185.792 91.3752 185.717 90.9015 185.917 90.5026C188.435 85.3168 192.424 82.8485 194.568 81.8263C194.967 81.6269 195.466 81.7017 195.79 82.0258C196.114 82.3499 196.189 82.8236 195.989 83.2225C194.967 85.3667 192.499 89.3558 187.313 91.8739C187.163 91.9487 187.014 91.9736 186.839 91.9736V91.9985ZM194.967 82.7488C193.072 83.771 189.432 86.0398 187.064 90.7519C191.776 88.3834 194.045 84.7184 194.967 82.7488Z" fill="black"/>
<g opacity="0.32">
<path d="M202.97 80.1559C201.499 81.6269 199.106 81.6269 197.635 80.1559C196.164 78.685 196.164 76.2915 197.635 74.8205C199.106 73.3495 201.499 73.3495 202.97 74.8205C204.441 76.2915 204.441 78.685 202.97 80.1559Z" fill="white"/>
<path d="M200.303 81.8262C199.181 81.8262 198.084 81.4024 197.236 80.5547C195.541 78.8593 195.541 76.1168 197.236 74.4214C198.059 73.5987 199.156 73.1499 200.303 73.1499C201.45 73.1499 202.547 73.5987 203.369 74.4214C204.192 75.2442 204.641 76.3162 204.641 77.488C204.641 78.6349 204.192 79.7319 203.369 80.5547C202.522 81.4024 201.4 81.8262 200.303 81.8262ZM200.303 74.2968C199.455 74.2968 198.632 74.6209 198.034 75.2442C196.787 76.4908 196.787 78.5352 198.034 79.7818C199.281 81.0284 201.325 81.0284 202.572 79.7818C203.17 79.1834 203.519 78.3607 203.519 77.513C203.519 76.6653 203.195 75.8425 202.572 75.2442C201.948 74.6458 201.15 74.2968 200.303 74.2968Z" fill="black"/>
</g>
<path d="M2.76742 102.944L3.54031 100.176L3.24113 99.6279L0.423828 98.8799L5.55979 95.938L8.35216 96.6859L8.67627 97.2594L7.90339 100.027L2.76742 102.944Z" fill="white"/>
<path d="M2.76744 103.392C2.76744 103.392 2.56798 103.367 2.49319 103.293C2.3436 103.193 2.29373 102.993 2.3436 102.819L3.06662 100.226L2.94196 99.9767L0.324114 99.2786C0.149591 99.2288 0.0249319 99.0792 0 98.9046C0 98.7301 0.0747956 98.5556 0.224387 98.4808L5.36035 95.5388C5.36035 95.5388 5.58474 95.464 5.68446 95.489L8.47683 96.2619C8.47683 96.2619 8.67629 96.3616 8.75108 96.4613L9.0752 97.0098C9.0752 97.0098 9.14999 97.2342 9.12506 97.3339L8.35217 100.101C8.35217 100.101 8.25245 100.301 8.15272 100.351L3.01676 103.293C3.01676 103.293 2.86716 103.343 2.79237 103.343L2.76744 103.392ZM1.57071 98.7301L3.34087 99.2038C3.34087 99.2038 3.54032 99.3035 3.61512 99.4033L3.93923 99.9518C3.93923 99.9518 4.01403 100.176 3.9891 100.276L3.49046 102.021L7.52942 99.7025L8.20258 97.2841L8.07792 97.0347L5.6346 96.3616L1.57071 98.6803V98.7301Z" fill="black"/>
<path d="M35.6275 81.4773C39.7163 88.6328 37.248 97.7828 30.0677 101.872C22.8873 105.96 13.7622 103.492 9.67339 96.3118C5.58457 89.1314 8.05282 80.0064 15.2332 75.9175C22.4136 71.8287 31.5386 74.297 35.6275 81.4773Z" fill="#2A9B5F"/>
<path d="M22.663 104.29C21.3167 104.29 19.9454 104.115 18.5991 103.741C14.635 102.669 11.319 100.101 9.2746 96.5361C7.23019 92.9708 6.70662 88.8321 7.77869 84.843C8.85076 80.8788 11.4187 77.5629 14.984 75.5185C22.3389 71.305 31.7631 73.873 35.9766 81.2279C40.1901 88.5828 37.6221 98.007 30.2672 102.221C27.8987 103.567 25.3058 104.265 22.6381 104.265L22.663 104.29ZM22.6131 74.3966C20.1698 74.3966 17.7016 75.0199 15.4328 76.3163C12.067 78.2361 9.64858 81.3526 8.62637 85.0923C7.60417 88.8321 8.1028 92.7464 10.0475 96.1122C11.9672 99.478 15.0837 101.896 18.8235 102.919C22.5633 103.941 26.4776 103.442 29.8434 101.522C36.7994 97.5583 39.1928 88.6576 35.2287 81.7265C32.561 77.0393 27.6494 74.4215 22.6131 74.4215V74.3966Z" fill="black"/>
<path d="M33.7576 82.5243C37.273 88.6575 35.1538 96.4861 28.9957 100.002C22.8375 103.517 15.0338 101.398 11.5184 95.2396C8.00302 89.0814 10.1472 81.2777 16.2804 77.7623C22.4136 74.2469 30.2422 76.3661 33.7576 82.5243Z" fill="#FCFCFC"/>
<path d="M22.663 102.146C21.4912 102.146 20.3194 101.996 19.1726 101.672C15.7569 100.749 12.9147 98.5305 11.1445 95.4639C7.50447 89.1312 9.72341 81.0034 16.0561 77.3883C19.1227 75.6182 22.688 75.1694 26.1036 76.0919C29.5193 77.0143 32.3615 79.2333 34.1317 82.2999C35.9019 85.3665 36.3506 88.9318 35.4282 92.3474C34.5057 95.7631 32.2867 98.6053 29.2201 100.375C27.2006 101.547 24.9318 102.121 22.663 102.121V102.146ZM22.6132 76.5157C20.494 76.5157 18.3748 77.0642 16.4799 78.1612C10.5462 81.5519 8.50174 89.1312 11.8925 95.065C13.538 97.9322 16.2057 100.002 19.372 100.849C22.5633 101.722 25.9042 101.298 28.7713 99.6525C31.6385 98.007 33.7079 95.3393 34.5555 92.1729C35.4282 88.9816 35.0043 85.6408 33.3588 82.7736C31.7133 79.9064 29.0705 77.8371 25.8793 76.9894C24.8072 76.6902 23.7102 76.5406 22.6132 76.5406V76.5157Z" fill="black"/>
<path d="M31.8878 83.5962C34.8048 88.7072 33.0347 95.2144 27.9236 98.1315C22.8126 101.048 16.3054 99.2783 13.3634 94.1673C10.4215 89.0563 12.2166 82.549 17.3276 79.6071C22.4386 76.6651 28.9459 78.4602 31.8629 83.5713L31.8878 83.5962Z" fill="#2A9B5F"/>
<path d="M22.6631 100.001C18.7986 100.001 15.0589 98.0068 13.0144 94.4166C11.5435 91.8487 11.1695 88.8568 11.9424 85.9897C12.7153 83.1225 14.5602 80.754 17.1282 79.283C19.6962 77.812 22.688 77.438 25.5552 78.2109C28.4223 78.9838 30.7909 80.8288 32.2868 83.3968C35.3285 88.7072 33.4835 95.4887 28.173 98.5304C26.4278 99.5277 24.533 100.001 22.688 100.001H22.6631ZM22.6132 78.6846C20.8431 78.6846 19.1228 79.1334 17.552 80.031C15.1835 81.3773 13.4882 83.5962 12.7651 86.2141C12.0421 88.8568 12.3912 91.5993 13.7624 93.9679C16.5548 98.8545 22.8376 100.575 27.7242 97.7575C32.6109 94.9651 34.3063 88.7072 31.5139 83.7957C30.1676 81.4271 27.9486 79.7318 25.3308 79.0088C24.4332 78.7594 23.5357 78.6348 22.6381 78.6348L22.6132 78.6846Z" fill="black"/>
<path d="M29.9184 84.6437C32.237 88.7075 30.8409 93.9183 26.752 96.237C22.6632 98.5556 17.4774 97.1595 15.1587 93.0706C12.8401 88.9818 14.2362 83.8209 18.3251 81.4773C22.4139 79.1337 27.5997 80.5548 29.9184 84.6187V84.6437Z" fill="#FCFCFC"/>
<path d="M22.5634 97.8078C19.4718 97.8078 16.4301 96.1873 14.7846 93.3201C13.6128 91.2507 13.2887 88.8324 13.912 86.5386C14.5353 84.2449 16.0312 82.3251 18.1006 81.1284C20.1699 79.9317 22.5883 79.6325 24.882 80.2558C27.1758 80.8791 29.0955 82.375 30.2923 84.4443C31.4641 86.5137 31.7882 88.9321 31.1649 91.2258C30.5416 93.5195 29.0457 95.4393 26.9763 96.636C25.5801 97.4338 24.0593 97.8078 22.5634 97.8078ZM22.5384 80.8043C21.1423 80.8043 19.771 81.1533 18.5493 81.8764C16.6795 82.9484 15.3331 84.6687 14.7846 86.763C14.2112 88.8324 14.4855 91.0014 15.5575 92.8713C17.7765 96.7358 22.713 98.0821 26.5525 95.8631C28.4224 94.7911 29.7687 93.0708 30.3172 90.9765C30.8906 88.9072 30.6164 86.7132 29.5443 84.8682C28.4722 82.9983 26.7519 81.652 24.6577 81.1035C23.9596 80.904 23.2365 80.8292 22.5384 80.8292V80.8043Z" fill="black"/>
<path d="M28.1979 85.641C29.993 88.7575 28.896 92.7217 25.7795 94.5168C22.6631 96.3119 18.6989 95.2149 16.9038 92.0984C15.1087 88.9819 16.2057 85.0177 19.3222 83.2226C22.4387 81.4275 26.4028 82.5245 28.1979 85.641Z" fill="#2A9B5F"/>
<path d="M22.5634 95.8132C21.9402 95.8132 21.3418 95.7384 20.7434 95.5639C18.9483 95.0652 17.4524 93.9184 16.5549 92.3227C15.6324 90.7271 15.408 88.8572 15.8817 87.0621C16.3803 85.267 17.5272 83.7711 19.1228 82.8736C22.4388 80.9787 26.6772 82.1256 28.572 85.4415C29.4945 87.0621 29.7189 88.932 29.2452 90.7022C28.7715 92.4973 27.5997 93.9682 26.004 94.8907C24.932 95.4891 23.7602 95.8132 22.5634 95.8132ZM22.5634 82.8237C21.5412 82.8237 20.519 83.073 19.5716 83.6215C18.1754 84.4193 17.1532 85.7407 16.7294 87.2865C16.3055 88.8572 16.505 90.4778 17.3278 91.8989C18.1256 93.2951 19.422 94.3173 20.9927 94.7411C22.5634 95.165 24.184 94.9655 25.6051 94.1428C27.0263 93.32 28.0235 92.0236 28.4474 90.4778C28.8712 88.9071 28.6718 87.2865 27.849 85.8654C26.7271 83.9207 24.6827 82.8237 22.5884 82.8237H22.5634Z" fill="black"/>
<path d="M26.4029 86.6632C27.6245 88.8074 26.8766 91.5249 24.7573 92.7466C22.6381 93.9683 19.8956 93.2203 18.674 91.1011C17.4523 88.9819 18.2003 86.2394 20.3195 85.0177C22.4387 83.7961 25.1812 84.544 26.4029 86.6632Z" fill="#FCFCFC"/>
<path d="M22.5634 93.7688C22.1395 93.7688 21.6908 93.7189 21.2669 93.5943C20.0203 93.2452 18.9483 92.4474 18.3 91.3005C17.6518 90.1786 17.4773 88.8572 17.8263 87.5857C18.1754 86.3391 18.9732 85.267 20.12 84.6188C22.4636 83.2725 25.4555 84.0952 26.8018 86.4388C28.1481 88.7824 27.3254 91.7742 24.9818 93.1206C24.2338 93.5444 23.4111 93.7688 22.5634 93.7688ZM22.5634 84.8681C21.8902 84.8681 21.1921 85.0426 20.5688 85.3917C19.6463 85.9153 18.9732 86.7879 18.6989 87.8101C18.4247 88.8572 18.5493 89.9293 19.0978 90.8518C19.6214 91.7742 20.494 92.4474 21.5412 92.7216C22.5634 92.9959 23.6604 92.8712 24.5829 92.3227C26.5026 91.2257 27.1758 88.7575 26.0788 86.8377C25.3308 85.5413 23.9845 84.8183 22.5883 84.8183L22.5634 84.8681Z" fill="black"/>
<path d="M24.8074 87.5854C25.5304 88.832 25.0816 90.4027 23.835 91.1257C22.5884 91.8488 21.0177 91.4 20.2947 90.1534C19.5717 88.9068 20.0205 87.3361 21.2671 86.6131C22.5137 85.8901 24.0844 86.3388 24.8074 87.5854Z" fill="#2A9B5F"/>
<path d="M22.5634 91.8986C21.5163 91.8986 20.4941 91.3501 19.9206 90.3778C19.5217 89.6797 19.422 88.8569 19.6215 88.0841C19.8209 87.3112 20.3445 86.6629 21.0426 86.2391C21.7407 85.8402 22.5634 85.7155 23.3363 85.9399C24.1092 86.1394 24.7574 86.6629 25.1563 87.361C25.5552 88.0591 25.655 88.8819 25.4555 89.6548C25.2561 90.4276 24.7325 91.0759 24.0344 91.4997C23.5607 91.774 23.0371 91.8986 22.5385 91.8986H22.5634ZM22.5634 86.7128C22.1894 86.7128 21.8404 86.8125 21.4913 86.987C20.9927 87.2613 20.6437 87.735 20.4941 88.2835C20.3445 88.832 20.4193 89.4304 20.6935 89.929C21.2919 90.9512 22.6133 91.3252 23.6355 90.7268C24.1341 90.4526 24.4832 89.9789 24.6328 89.4304C24.7824 88.8819 24.7076 88.2835 24.4333 87.7849C24.1591 87.2862 23.6853 86.9372 23.1368 86.7876C22.9374 86.7377 22.7629 86.7128 22.5634 86.7128Z" fill="black"/>
<path d="M22.0397 89.1814C22.1644 89.4057 22.0896 89.68 21.8652 89.8046L3.56523 100.276L3.11646 99.4782L21.4164 89.0068C21.6408 88.8822 21.9151 88.957 22.0397 89.1814Z" fill="#010200"/>
<path d="M38.4699 135.43C36.8992 135.355 35.6277 136.576 35.5529 138.097C35.4781 139.643 36.6748 140.939 38.2206 141.014C39.7664 141.089 41.0628 139.892 41.1376 138.347C41.2124 136.826 40.0157 135.504 38.4699 135.43Z" fill="#4DDB8A"/>
<path d="M38.3452 141.438C38.3452 141.438 38.2455 141.438 38.1956 141.438C37.348 141.388 36.5501 141.039 35.9518 140.391C35.3534 139.743 35.0792 138.92 35.1041 138.072C35.129 137.225 35.503 136.427 36.1263 135.854C36.7496 135.255 37.5724 134.956 38.445 135.006C39.2926 135.031 40.0905 135.405 40.6888 136.053C41.2872 136.701 41.5614 137.524 41.5365 138.372C41.5116 139.219 41.1376 140.017 40.4894 140.591C39.891 141.139 39.1181 141.438 38.2954 141.438H38.3452ZM38.3452 135.854C37.7469 135.854 37.1984 136.078 36.7496 136.477C36.3008 136.901 36.0266 137.474 36.0016 138.097C35.9767 138.721 36.2011 139.319 36.6249 139.793C37.0488 140.266 37.6222 140.516 38.2455 140.566C38.8937 140.591 39.4672 140.366 39.9409 139.942C40.3897 139.519 40.6639 138.945 40.6888 138.322C40.7138 137.698 40.4894 137.1 40.0655 136.626C39.6417 136.153 39.0683 135.903 38.445 135.854C38.445 135.854 38.3702 135.854 38.3452 135.854Z" fill="black"/>
<path d="M38.6443 131.092C36.55 130.992 34.4807 131.84 33.0596 133.435C32.6108 133.934 32.8103 134.707 33.3837 135.081C33.9571 135.455 34.7051 135.28 35.2037 134.807C36.0763 133.984 37.2731 133.535 38.5446 133.585C39.6915 133.635 40.7386 134.109 41.5115 134.832C42.0101 135.305 42.7581 135.505 43.3564 135.131C43.9548 134.757 44.1044 133.959 43.6307 133.435C42.409 132.064 40.6389 131.167 38.6443 131.092Z" fill="#4DDB8A"/>
<path d="M42.6584 135.754C42.1598 135.754 41.6362 135.555 41.2124 135.131C40.4893 134.458 39.5419 134.059 38.5197 134.009C37.3978 133.959 36.3257 134.358 35.503 135.106C34.8049 135.729 33.8325 135.854 33.1344 135.43C32.7355 135.181 32.4364 134.732 32.3865 134.283C32.3366 133.859 32.4613 133.46 32.7355 133.136C34.2314 131.466 36.3756 130.568 38.6693 130.643C40.7137 130.743 42.5836 131.615 43.9549 133.136C44.2541 133.46 44.3787 133.909 44.3289 134.333C44.2541 134.807 44.0047 135.206 43.5809 135.48C43.3066 135.654 42.9825 135.729 42.6584 135.729V135.754ZM38.3203 133.136C38.3203 133.136 38.4699 133.136 38.5447 133.136C39.7663 133.186 40.9132 133.66 41.7858 134.507C42.1349 134.832 42.6584 135.031 43.1072 134.757C43.3067 134.632 43.4313 134.458 43.4562 134.233C43.4562 134.059 43.4313 133.859 43.3067 133.735C42.1099 132.388 40.4395 131.615 38.6195 131.541C36.575 131.466 34.7052 132.264 33.3588 133.735C33.2342 133.884 33.2092 134.059 33.2342 134.183C33.2591 134.383 33.4087 134.582 33.5832 134.707C34.0071 134.981 34.5556 134.782 34.8797 134.482C35.8271 133.61 37.0238 133.136 38.3203 133.136Z" fill="black"/>
<path d="M38.819 126.853C35.179 126.704 31.888 128.299 29.7688 130.942C29.3449 131.466 29.4945 132.264 30.0929 132.638C30.6663 133.012 31.4392 132.837 31.888 132.313C33.5335 130.394 36.0017 129.247 38.7193 129.347C41.1876 129.446 43.3566 130.593 44.8525 132.338C45.3013 132.862 46.0742 133.061 46.6476 132.712C47.2211 132.338 47.4205 131.566 46.9967 131.042C45.0769 128.624 42.1599 127.028 38.844 126.878L38.819 126.853Z" fill="#4DDB8A"/>
<path d="M45.9745 133.311C45.4509 133.311 44.9024 133.061 44.5035 132.612C43.0574 130.917 40.9382 129.87 38.6944 129.77C36.2012 129.671 33.8326 130.693 32.2121 132.588C31.5888 133.311 30.6164 133.485 29.8436 133.011C29.4446 132.762 29.1704 132.363 29.0956 131.889C29.0208 131.441 29.1455 131.017 29.4197 130.668C31.7384 127.801 35.179 126.255 38.844 126.404C42.1599 126.554 45.2764 128.125 47.3208 130.718C47.595 131.067 47.6948 131.466 47.62 131.914C47.5452 132.363 47.2709 132.787 46.872 133.036C46.5978 133.211 46.2736 133.286 45.9745 133.286V133.311ZM38.3453 128.898C38.47 128.898 38.6196 128.898 38.7442 128.898C41.2374 128.997 43.581 130.144 45.1766 132.039C45.4758 132.388 45.9994 132.588 46.4232 132.313C46.6227 132.189 46.7474 131.989 46.7723 131.79C46.7723 131.665 46.7723 131.466 46.6476 131.291C44.7528 128.898 41.8856 127.427 38.819 127.302C35.4283 127.152 32.2619 128.598 30.1178 131.241C29.9931 131.391 29.9433 131.565 29.9931 131.765C30.0181 131.964 30.1427 132.164 30.3422 132.288C30.7162 132.538 31.2397 132.413 31.5638 132.039C33.2841 130.045 35.7524 128.923 38.3702 128.923L38.3453 128.898Z" fill="black"/>
<path d="M38.9933 122.665C33.9322 122.44 29.3946 124.759 26.5274 128.524C26.1036 129.072 26.2781 129.87 26.8515 130.219C27.4249 130.593 28.1978 130.419 28.6217 129.87C30.9902 126.853 34.73 124.984 38.8687 125.158C42.6334 125.333 45.9493 127.153 48.0935 129.92C48.5173 130.469 49.2653 130.643 49.8636 130.269C50.4371 129.895 50.6365 129.147 50.2376 128.599C47.6696 125.158 43.6307 122.864 38.9933 122.665Z" fill="#4DDB8A"/>
<path d="M49.1906 130.917C48.667 130.917 48.1185 130.668 47.7694 130.194C45.6253 127.427 42.3842 125.756 38.8688 125.607C34.9794 125.432 31.3393 127.153 28.9708 130.144C28.3974 130.892 27.3752 131.067 26.6272 130.593C26.2283 130.344 25.979 129.945 25.8793 129.496C25.8045 129.047 25.8793 128.599 26.1785 128.25C29.2201 124.26 34.0569 122.017 39.0184 122.241C43.6308 122.44 47.8442 124.659 50.5868 128.349C50.8361 128.698 50.9358 129.122 50.861 129.546C50.7862 129.995 50.512 130.394 50.113 130.668C49.8388 130.842 49.5147 130.942 49.2155 130.942L49.1906 130.917ZM38.3452 124.709C38.5197 124.709 38.7192 124.709 38.8937 124.709C42.6584 124.884 46.1489 126.679 48.4426 129.646C48.7418 130.02 49.2404 130.144 49.6144 129.895C49.8139 129.77 49.9385 129.571 49.9884 129.371C49.9884 129.247 49.9884 129.047 49.8637 128.873C47.2708 125.407 43.2817 123.288 38.9436 123.114C34.2314 122.914 29.6938 125.033 26.8516 128.798C26.727 128.948 26.6771 129.147 26.727 129.371C26.7519 129.571 26.9015 129.77 27.076 129.87C27.45 130.119 27.9735 129.995 28.2727 129.621C30.6911 126.529 34.4309 124.734 38.3452 124.734V124.709Z" fill="black"/>
<path d="M167.841 134.283H162.132V142.161H167.841V134.283Z" fill="#87D8A8"/>
<path d="M167.841 142.61H162.132C161.883 142.61 161.708 142.41 161.708 142.186V134.308C161.708 134.058 161.907 133.884 162.132 133.884H167.841C168.091 133.884 168.265 134.083 168.265 134.308V142.186C168.265 142.435 168.066 142.61 167.841 142.61ZM162.556 141.737H167.392V134.731H162.556V141.737Z" fill="black"/>
<path d="M176.218 129.521H170.509V142.261H176.218V129.521Z" fill="white"/>
<path d="M176.218 142.685H170.509C170.26 142.685 170.085 142.486 170.085 142.261V129.521C170.085 129.272 170.285 129.097 170.509 129.097H176.218C176.468 129.097 176.642 129.297 176.642 129.521V142.261C176.642 142.511 176.443 142.685 176.218 142.685ZM170.933 141.812H175.77V129.945H170.933V141.812Z" fill="black"/>
<path d="M184.595 121.393H178.886V142.186H184.595V121.393Z" fill="#E1FFED"/>
<path d="M184.595 142.61H178.886C178.637 142.61 178.462 142.411 178.462 142.186V121.393C178.462 121.144 178.662 120.969 178.886 120.969H184.595C184.845 120.969 185.019 121.169 185.019 121.393V142.186C185.019 142.436 184.82 142.61 184.595 142.61ZM179.31 141.737H184.147V121.817H179.31V141.737Z" fill="black"/>
<path d="M192.823 123.711H187.114V142.261H192.823V123.711Z" fill="#2A9B5F"/>
<path d="M192.823 142.685H187.114C186.864 142.685 186.69 142.485 186.69 142.261V123.711C186.69 123.462 186.889 123.288 187.114 123.288H192.823C193.072 123.288 193.247 123.487 193.247 123.711V142.261C193.247 142.51 193.047 142.685 192.823 142.685ZM187.537 141.812H192.374V124.135H187.537V141.812Z" fill="black"/>
<path d="M201.2 115.684H195.491V142.111H201.2V115.684Z" fill="#6ACE95"/>
<path d="M201.2 142.535H195.491C195.241 142.535 195.067 142.336 195.067 142.111V115.684C195.067 115.434 195.266 115.26 195.491 115.26H201.2C201.449 115.26 201.624 115.459 201.624 115.684V142.111C201.624 142.361 201.425 142.535 201.2 142.535ZM195.915 141.663H200.751V116.107H195.915V141.663Z" fill="black"/>
<path d="M109.301 141.139L110.922 154.154C111.047 155.201 111.944 155.974 112.991 155.974H133.211C134.258 155.974 135.156 155.201 135.28 154.154L136.901 141.139H109.326H109.301Z" fill="#87D8A8"/>
<path d="M133.211 156.398H112.991C111.72 156.398 110.648 155.45 110.498 154.179L108.828 140.69H137.4L135.729 154.179C135.58 155.425 134.507 156.398 133.236 156.398H133.211ZM109.8 141.563L111.346 154.079C111.445 154.902 112.144 155.525 112.966 155.525H133.186C134.009 155.525 134.707 154.902 134.807 154.079L136.352 141.563H109.75H109.8Z" fill="#050505"/>
<path d="M137.749 138.422C137.749 138.023 137.424 137.674 137.025 137.674H109.202C108.803 137.674 108.479 137.998 108.479 138.422V142.162H137.773V138.422H137.749Z" fill="white"/>
<path d="M137.749 142.61H108.454C108.204 142.61 108.03 142.411 108.03 142.186V138.447C108.03 137.798 108.553 137.275 109.202 137.275H137.026C137.674 137.275 138.197 137.798 138.197 138.447V142.186C138.197 142.436 137.998 142.61 137.773 142.61H137.749ZM108.877 141.738H137.3V138.422C137.3 138.247 137.175 138.123 137.001 138.123H109.177C109.002 138.123 108.877 138.247 108.877 138.422V141.738Z" fill="#050505"/>
<path d="M134.133 131.491L126.504 139.12C126.18 139.444 126.18 139.967 126.504 140.292C126.828 140.616 127.352 140.616 127.676 140.292L135.305 132.662C135.629 132.338 135.629 131.815 135.305 131.491C134.981 131.167 134.458 131.167 134.133 131.491Z" fill="#87D8A8"/>
<path d="M127.103 140.965C126.754 140.965 126.454 140.84 126.205 140.591C125.956 140.341 125.831 140.042 125.831 139.693C125.831 139.344 125.956 139.045 126.205 138.796L133.834 131.166C134.333 130.668 135.131 130.668 135.629 131.166C135.879 131.416 136.003 131.715 136.003 132.064C136.003 132.413 135.879 132.712 135.629 132.962L128 140.591C127.776 140.84 127.452 140.965 127.103 140.965ZM134.457 131.79L126.828 139.419C126.828 139.419 126.704 139.593 126.704 139.693C126.704 139.793 126.754 139.893 126.828 139.967C126.903 140.042 127.003 140.092 127.103 140.092C127.103 140.092 127.302 140.042 127.377 139.967L135.006 132.338C135.006 132.338 135.131 132.164 135.131 132.064C135.131 131.964 135.081 131.865 135.006 131.79C134.856 131.64 134.607 131.64 134.457 131.79Z" fill="#050505"/>
<path d="M134.133 131.491C134.458 131.167 134.981 131.167 135.305 131.491C135.629 131.815 135.629 132.338 135.305 132.662L127.676 140.292C127.352 140.616 126.828 140.616 126.504 140.292C126.18 139.967 126.18 139.444 126.504 139.12L134.133 131.491Z" fill="#87D8A8"/>
<path d="M127.103 140.965C126.754 140.965 126.454 140.84 126.205 140.591C125.956 140.341 125.831 140.042 125.831 139.693C125.831 139.344 125.956 139.045 126.205 138.796L133.834 131.166C134.333 130.668 135.131 130.668 135.629 131.166C135.879 131.416 136.003 131.715 136.003 132.064C136.003 132.413 135.879 132.712 135.629 132.962L128 140.591C127.776 140.84 127.452 140.965 127.103 140.965ZM134.457 131.79L126.828 139.419C126.828 139.419 126.704 139.593 126.704 139.693C126.704 139.793 126.754 139.893 126.828 139.967C126.903 140.042 127.003 140.092 127.103 140.092C127.103 140.092 127.302 140.042 127.377 139.967L135.006 132.338C135.006 132.338 135.131 132.164 135.131 132.064C135.131 131.964 135.081 131.865 135.006 131.79C134.856 131.64 134.607 131.64 134.457 131.79Z" fill="#050505"/>
<path d="M112.069 131.491C111.745 131.167 111.221 131.167 110.897 131.491C110.573 131.815 110.573 132.338 110.897 132.662L118.526 140.292C118.85 140.616 119.374 140.616 119.698 140.292C120.022 139.967 120.022 139.444 119.698 139.12L112.069 131.491Z" fill="#87D8A8"/>
<path d="M119.099 140.965C118.775 140.965 118.451 140.84 118.202 140.591L110.573 132.962C110.074 132.463 110.074 131.665 110.573 131.166C110.822 130.917 111.121 130.792 111.47 130.792C111.819 130.792 112.118 130.917 112.368 131.166L119.997 138.796C120.496 139.294 120.496 140.092 119.997 140.591C119.748 140.84 119.424 140.965 119.099 140.965ZM111.47 131.665C111.47 131.665 111.271 131.715 111.196 131.79C111.046 131.939 111.046 132.189 111.196 132.338L118.825 139.967C118.975 140.117 119.224 140.117 119.374 139.967C119.523 139.818 119.523 139.568 119.374 139.419L111.745 131.79C111.745 131.79 111.57 131.665 111.47 131.665Z" fill="#050505"/>
<path d="M123.114 154.129C122.864 154.129 122.69 153.929 122.69 153.705V144.031C122.69 143.782 122.889 143.607 123.114 143.607C123.338 143.607 123.537 143.807 123.537 144.031V153.705C123.537 153.954 123.338 154.129 123.114 154.129Z" fill="#050505"/>
<path d="M119.324 154.129C119.1 154.129 118.9 153.954 118.9 153.73L118.152 144.056C118.152 143.807 118.327 143.607 118.551 143.583C118.85 143.583 119 143.757 119.025 143.981L119.773 153.655C119.773 153.904 119.598 154.104 119.374 154.129C119.374 154.129 119.374 154.129 119.349 154.129H119.324Z" fill="#050505"/>
<path d="M115.534 154.128C115.335 154.128 115.135 153.979 115.11 153.754L113.639 144.081C113.614 143.832 113.764 143.632 114.013 143.582C114.238 143.557 114.487 143.707 114.512 143.956L115.983 153.63C116.008 153.879 115.858 154.079 115.609 154.128C115.609 154.128 115.559 154.128 115.534 154.128Z" fill="#050505"/>
<path d="M126.878 154.129C126.878 154.129 126.878 154.129 126.853 154.129C126.604 154.129 126.43 153.904 126.455 153.655L127.202 143.981C127.202 143.732 127.377 143.558 127.676 143.582C127.925 143.582 128.1 143.807 128.075 144.056L127.327 153.73C127.327 153.954 127.128 154.129 126.903 154.129H126.878Z" fill="#050505"/>
<path d="M130.668 154.128C130.668 154.128 130.618 154.128 130.593 154.128C130.344 154.104 130.194 153.879 130.219 153.63L131.69 143.956C131.715 143.707 131.939 143.557 132.189 143.582C132.438 143.607 132.588 143.832 132.563 144.081L131.092 153.754C131.067 153.979 130.867 154.128 130.668 154.128Z" fill="#050505"/>
<path d="M56.2464 9.27441H26.1287V25.0314H56.2464V9.27441Z" fill="white"/>
<path d="M56.2713 25.4552H26.1536C25.9043 25.4552 25.7297 25.2558 25.7297 25.0314V9.27443C25.7297 9.02511 25.9292 8.85059 26.1536 8.85059H56.2713C56.5206 8.85059 56.6951 9.05004 56.6951 9.27443V25.0314C56.6951 25.2807 56.4957 25.4552 56.2713 25.4552ZM26.5774 24.5826H55.8225V9.69827H26.5774V24.5826Z" fill="#020500"/>
<path d="M56.2464 9.27441H26.1287V25.0314H56.2464V9.27441Z" fill="white"/>
<path d="M56.2713 25.4552H26.1536C25.9043 25.4552 25.7297 25.2558 25.7297 25.0314V9.27443C25.7297 9.02511 25.9292 8.85059 26.1536 8.85059H56.2713C56.5206 8.85059 56.6951 9.05004 56.6951 9.27443V25.0314C56.6951 25.2807 56.4957 25.4552 56.2713 25.4552ZM26.5774 24.5826H55.8225V9.69827H26.5774V24.5826Z" fill="#020500"/>
<path d="M42.4342 11.1196H28.5222V21.7655H42.4342V11.1196Z" fill="#E1FFED"/>
<path d="M42.883 22.2143H28.0984V10.6958H42.883V22.2143ZM28.971 21.3417H42.0104V11.5684H28.971V21.3417Z" fill="#010200"/>
<path d="M57.7174 27.5746H24.8323V25.1312C24.8323 24.5079 25.3309 23.9844 25.9791 23.9844H56.5955C57.2188 23.9844 57.7423 24.483 57.7423 25.1312V27.5746H57.7174Z" fill="#2A9B5F"/>
<path d="M58.1413 27.9984H24.3835V25.1313C24.3835 24.2586 25.0816 23.5605 25.9543 23.5605H56.5706C57.4432 23.5605 58.1413 24.2586 58.1413 25.1313V27.9984ZM25.2562 27.1258H57.2687V25.1313C57.2687 24.7573 56.9446 24.4332 56.5706 24.4332H25.9543C25.5803 24.4332 25.2562 24.7573 25.2562 25.1313V27.1258Z" fill="black"/>
<path d="M53.9276 12.3662H46.8469V26.6023H53.9276V12.3662Z" fill="#E1FFED"/>
<path d="M54.3515 27.0262H46.3982V11.9175H54.3515V27.0262ZM47.2708 26.1536H53.4788V12.7901H47.2708V26.1536Z" fill="#010200"/>
<path d="M56.9444 5.23546C56.9444 4.26312 56.1715 3.49023 55.1992 3.49023H26.2533C25.2809 3.49023 24.5081 4.26312 24.5081 5.23546V11.643H56.9693V5.23546H56.9444Z" fill="#6ACE95"/>
<path d="M56.9445 12.0668H24.4832C24.2338 12.0668 24.0593 11.8674 24.0593 11.643V5.23551C24.0593 4.03878 25.0317 3.0415 26.2533 3.0415H55.1992C56.396 3.0415 57.3932 4.01385 57.3932 5.23551V11.643C57.3932 11.8923 57.1938 12.0668 56.9694 12.0668H56.9445ZM24.907 11.1942H56.4957V5.23551C56.4957 4.51248 55.8973 3.91412 55.1743 3.91412H26.2284C25.5054 3.91412 24.907 4.51248 24.907 5.23551V11.1942Z" fill="#020500"/>
<path d="M48.7918 19.9953C48.7918 20.2695 48.5674 20.5188 48.2682 20.5188C47.969 20.5188 47.7446 20.2944 47.7446 19.9953C47.7446 19.6961 47.969 19.4717 48.2682 19.4717C48.5674 19.4717 48.7918 19.6961 48.7918 19.9953Z" fill="#020500"/>
<path d="M44.5035 27.9482C44.2541 27.9482 44.0547 27.7487 44.0547 27.4994V26.8013C44.0547 26.1032 44.6281 25.5298 45.3262 25.5298H55.3738C56.0718 25.5298 56.6453 26.1032 56.6453 26.8013V27.4994C56.6453 27.7487 56.4458 27.9482 56.1965 27.9482H44.5035Z" fill="white"/>
<path d="M55.3738 25.9786C55.8226 25.9786 56.1966 26.3526 56.1966 26.8014V27.4995H44.5035V26.8014C44.5035 26.3526 44.8775 25.9786 45.3263 25.9786H55.3738ZM55.3738 25.0562H45.3263C44.3789 25.0562 43.5811 25.829 43.5811 26.8014V27.4995C43.5811 27.9981 43.98 28.422 44.5035 28.422H56.1966C56.6952 28.422 57.1191 28.023 57.1191 27.4995V26.8014C57.1191 25.854 56.3462 25.0562 55.3738 25.0562Z" fill="#020500"/>
<path d="M58.2909 11.6431H21.8904H20.8433V12.9395C20.8433 13.7872 21.5414 14.4853 22.389 14.4853C23.2367 14.4853 23.9099 13.8121 23.9099 12.9894C23.9099 13.8121 24.608 14.4853 25.4307 14.4853C26.2535 14.4853 26.9516 13.8121 26.9516 12.9894C26.9516 13.8121 27.6497 14.4853 28.4724 14.4853C29.2952 14.4853 29.9933 13.8121 30.0182 12.9894C30.0182 13.8121 30.7163 14.4853 31.539 14.4853C32.3618 14.4853 33.0599 13.8121 33.0599 12.9894C33.0599 13.8121 33.758 14.4853 34.5807 14.4853C35.4035 14.4853 36.1016 13.8121 36.1016 12.9894C36.1016 13.8121 36.7997 14.4853 37.6224 14.4853C38.3704 14.4853 38.9687 13.9617 39.1183 13.2636C39.2679 13.9617 39.8912 14.4853 40.6142 14.4853C41.4619 14.4853 42.1351 13.8121 42.1351 12.9894C42.1351 13.8121 42.8332 14.4853 43.6559 14.4853C44.4787 14.4853 45.1768 13.8121 45.1768 12.9894C45.1768 13.8121 45.8749 14.4853 46.6976 14.4853C47.5204 14.4853 48.2184 13.8121 48.2184 12.9894C48.2184 13.8121 48.9165 14.4853 49.7393 14.4853C50.562 14.4853 51.2601 13.8121 51.2601 12.9894C51.2601 13.8121 51.9582 14.4853 52.781 14.4853C53.6037 14.4853 54.3018 13.8121 54.3018 12.9894C54.3018 13.8121 54.9999 14.4853 55.8227 14.4853C56.6454 14.4853 57.3435 13.8121 57.3684 12.9894C57.3684 13.8371 58.0665 14.5102 58.8893 14.5102C59.712 14.5102 60.4351 13.8121 60.4351 12.9645V11.668H58.0416L58.2909 11.6431Z" fill="#6ACE95"/>
<path d="M59.1634 14.9341C58.5401 14.9341 57.9916 14.6349 57.6177 14.1861C57.2686 14.6349 56.6952 14.9091 56.0719 14.9091C55.4486 14.9091 54.9001 14.6099 54.551 14.1612C54.202 14.6099 53.6286 14.9091 53.0053 14.9091C52.382 14.9091 51.8335 14.6349 51.4595 14.1861C51.1104 14.6349 50.537 14.9091 49.9137 14.9091C49.2904 14.9091 48.7419 14.6349 48.3679 14.1861C47.9939 14.6349 47.4455 14.9341 46.8471 14.9341C46.2487 14.9341 45.6753 14.6349 45.3013 14.1861C44.9273 14.6349 44.3788 14.9341 43.7555 14.9341C43.1322 14.9341 42.5837 14.6598 42.2347 14.211C41.8856 14.6598 41.3122 14.9341 40.6889 14.9341C40.0656 14.9341 39.542 14.6598 39.193 14.236C38.819 14.6598 38.2705 14.9341 37.6971 14.9341C37.0738 14.9341 36.5253 14.6598 36.1513 14.1861C35.7773 14.6349 35.2288 14.9341 34.6305 14.9341C34.0321 14.9341 33.4587 14.6598 33.0847 14.211C32.7357 14.6598 32.1622 14.9341 31.5389 14.9341C30.9156 14.9341 30.3671 14.6598 29.9931 14.211C29.6441 14.6598 29.0707 14.9341 28.4474 14.9341C27.8241 14.9341 27.2756 14.6349 26.9016 14.1861C26.5276 14.6349 25.9791 14.9341 25.3558 14.9341C24.7325 14.9341 24.184 14.6598 23.835 14.211C23.4859 14.6598 22.9125 14.9341 22.2892 14.9341C21.1922 14.9341 20.3196 14.0614 20.3196 12.9644V11.668C20.3196 11.4187 20.519 11.2441 20.7434 11.2441H21.6908C21.6908 11.2441 21.7656 11.2441 21.7906 11.2441H58.1911C58.1911 11.2441 58.2659 11.2441 58.2908 11.2441H60.5845C60.8339 11.2441 61.0084 11.4436 61.0084 11.668V12.9644C61.0084 14.0614 60.1358 14.9341 59.0388 14.9341H59.1634ZM57.6177 12.5406C57.867 12.5406 58.0664 12.7401 58.0664 12.9644C58.0664 13.5628 58.5651 14.0365 59.1634 14.0365C59.7618 14.0365 60.2604 13.5379 60.2604 12.9395V12.0669H58.2908C58.2908 12.0669 58.216 12.0669 58.1911 12.0669H22.0149C22.0149 12.0669 21.9402 12.0669 21.9152 12.0669H21.2919V12.9395C21.2919 13.5379 21.7906 14.0365 22.3889 14.0365C22.9873 14.0365 23.461 13.5628 23.4859 12.9644C23.4859 12.7151 23.6854 12.5406 23.9098 12.5406C24.1342 12.5406 24.3336 12.7401 24.3336 12.9644C24.3336 13.5628 24.8322 14.0365 25.4306 14.0365C26.029 14.0365 26.5276 13.5628 26.5276 12.9644C26.5276 12.7151 26.7271 12.5406 26.9515 12.5406C27.1758 12.5406 27.4002 12.7401 27.4002 12.9644C27.4002 13.5628 27.8989 14.0365 28.4972 14.0365C29.0956 14.0365 29.5942 13.5628 29.5942 12.9644C29.5942 12.7151 29.7937 12.5406 30.0181 12.5406C30.2425 12.5406 30.4419 12.7401 30.4669 12.9644C30.4669 13.5628 30.9655 14.0365 31.5639 14.0365C32.1622 14.0365 32.6359 13.5628 32.6609 12.9644C32.6609 12.7151 32.8603 12.5406 33.0847 12.5406C33.3091 12.5406 33.5085 12.7401 33.5335 12.9644C33.5335 13.5628 34.0321 14.0365 34.6305 14.0365C35.2288 14.0365 35.7025 13.5628 35.7275 12.9644C35.7275 12.7151 35.9269 12.5406 36.1513 12.5406C36.3757 12.5406 36.6001 12.7401 36.6001 12.9644C36.6001 13.5628 37.0987 14.0365 37.6971 14.0365C38.2207 14.0365 38.6694 13.6625 38.7692 13.1639C38.819 12.9644 38.9935 12.8148 39.193 12.8148C39.3925 12.8148 39.567 12.9644 39.6168 13.1639C39.7166 13.6625 40.1653 14.0365 40.6889 14.0365C41.2873 14.0365 41.761 13.5628 41.7859 12.9644C41.7859 12.7151 41.9854 12.5406 42.2098 12.5406C42.4341 12.5406 42.6336 12.7401 42.6336 12.9644C42.6336 13.5628 43.1322 14.0365 43.7306 14.0365C44.329 14.0365 44.8276 13.5628 44.8276 12.9644C44.8276 12.7151 45.0271 12.5406 45.2514 12.5406C45.4758 12.5406 45.7002 12.7401 45.7002 12.9644C45.7002 13.5628 46.1989 14.0365 46.7972 14.0365C47.3956 14.0365 47.8942 13.5628 47.8942 12.9644C47.8942 12.7151 48.0937 12.5406 48.3181 12.5406C48.5424 12.5406 48.7419 12.7401 48.7668 12.9644C48.7668 13.5628 49.2655 14.0365 49.8638 14.0365C50.4622 14.0365 50.9359 13.5628 50.9608 12.9644C50.9608 12.7151 51.1603 12.5406 51.3847 12.5406C51.6091 12.5406 51.8085 12.7401 51.8335 12.9644C51.8335 13.5628 52.3321 14.0365 52.9305 14.0365C53.5288 14.0365 54.0025 13.5628 54.0275 12.9644C54.0275 12.7151 54.2269 12.5406 54.4513 12.5406C54.6757 12.5406 54.9001 12.7401 54.9001 12.9644C54.9001 13.5628 55.3987 14.0365 55.9971 14.0365C56.5954 14.0365 57.0691 13.5628 57.0941 12.9644C57.0941 12.7151 57.2935 12.5406 57.5179 12.5406H57.6177Z" fill="#010200"/>
<path d="M57.0443 7.90332L60.7342 11.6431H20.8433L24.4833 7.90332H57.0443Z" fill="#2A9B5F"/>
<path d="M60.7342 12.067H20.8432C20.6687 12.067 20.5191 11.9673 20.4443 11.7927C20.3695 11.6431 20.4194 11.4437 20.544 11.319L24.1841 7.57925C24.1841 7.57925 24.3836 7.45459 24.4833 7.45459H57.0443C57.0443 7.45459 57.2687 7.50445 57.3435 7.57925L61.0334 11.319C61.1581 11.4437 61.183 11.6431 61.1331 11.7927C61.0833 11.9423 60.9087 12.067 60.7342 12.067ZM21.8904 11.1944H59.712L56.8947 8.3272H24.7077L21.9153 11.1944H21.8904Z" fill="#010200"/>
<path d="M53.2545 51.0103C44.7527 51.0103 40.7886 57.2432 40.7886 57.2432C40.7886 57.2432 44.1294 63.4762 53.2545 63.4762C62.3796 63.4762 65.7204 57.2432 65.7204 57.2432C65.7204 57.2432 61.7563 51.0103 53.2545 51.0103Z" fill="white"/>
<path d="M53.2544 63.925C43.9798 63.925 40.5392 57.7169 40.4145 57.4676C40.3397 57.318 40.3397 57.1684 40.4145 57.0188C40.589 56.7446 44.628 50.5864 53.2544 50.5864C61.8808 50.5864 65.9198 56.7695 66.0943 57.0188C66.1691 57.1435 66.194 57.318 66.0943 57.4676C65.9447 57.7419 62.5291 63.925 53.2544 63.925ZM41.312 57.2682C42.0101 58.3652 45.5006 63.0524 53.2544 63.0524C61.0082 63.0524 64.4987 58.3652 65.1968 57.2682C64.3989 56.1961 60.5096 51.459 53.2544 51.459C45.9992 51.459 42.1099 56.1961 41.312 57.2682Z" fill="black"/>
<path d="M57.4677 57.2433C57.4677 59.5619 55.5729 61.4568 53.2543 61.4568C50.9356 61.4568 49.0408 59.5619 49.0408 57.2433C49.0408 54.9246 50.9356 53.0298 53.2543 53.0298C55.5729 53.0298 57.4677 54.9246 57.4677 57.2433Z" fill="#2A9B5F"/>
<path d="M53.2543 53.0298C55.5979 53.0298 57.4678 54.9247 57.4678 57.2433C57.4678 59.562 55.573 61.4568 53.2543 61.4568C50.9357 61.4568 49.0408 59.562 49.0408 57.2433C49.0408 54.9247 50.9357 53.0298 53.2543 53.0298ZM53.2543 52.1572C50.437 52.1572 48.1682 54.451 48.1682 57.2433C48.1682 60.0357 50.4619 62.3294 53.2543 62.3294C56.0467 62.3294 58.3404 60.0357 58.3404 57.2433C58.3404 54.451 56.0467 52.1572 53.2543 52.1572Z" fill="black"/>
<path d="M53.1548 48.4424C52.9055 48.4424 52.731 48.2429 52.731 48.0186V42.2593C52.731 42.01 52.9304 41.8354 53.1548 41.8354C53.3792 41.8354 53.5786 42.0349 53.5786 42.2593V48.0186C53.5786 48.2679 53.3792 48.4424 53.1548 48.4424Z" fill="black"/>
<path d="M45.4009 50.9109C45.4009 50.9109 45.1516 50.861 45.0768 50.7613L41.3121 46.3982C41.1625 46.2237 41.1874 45.9494 41.362 45.7749C41.5365 45.6004 41.8107 45.6253 41.9853 45.8248L45.75 50.1878C45.8996 50.3624 45.8746 50.6366 45.7001 50.8111C45.6253 50.8859 45.5256 50.9109 45.4258 50.9109H45.4009Z" fill="black"/>
<path d="M60.9333 50.9105C60.9333 50.9105 60.7339 50.8855 60.6591 50.8107C60.4846 50.6611 60.4596 50.3869 60.6092 50.1874L64.3739 45.8244C64.5235 45.6498 64.7978 45.6249 64.9972 45.7745C65.1967 45.9241 65.1967 46.1983 65.0471 46.3978L61.2824 50.7609C61.2824 50.7609 61.0829 50.9105 60.9583 50.9105H60.9333Z" fill="black"/>
<path d="M65.7951 87.6105C69.4601 82.6491 79.1586 66.7924 79.1586 66.7924C80.5797 65.3713 84.0453 63.1274 86.8127 65.3962C89.63 67.69 86.713 74.5961 86.713 74.5961C88.5081 72.5517 94.1676 65.097 97.9323 69.1111C100.65 72.0032 98.1816 75.369 98.1816 75.369C98.1816 75.369 100.401 73.4492 102.769 75.5684C105.636 78.1115 102.395 82.4496 102.395 82.4496L100.575 85.3666C100.575 85.3666 102.445 83.9206 104.664 86.2642C106.658 88.3834 103.916 92.2229 103.916 92.2229L93.2202 109.002C93.2451 114.637 93.2202 116.731 93.2202 121.318C93.2202 132.538 87.2116 134.009 87.2116 134.009V152.433L61.5069 152.508V101.996C61.5069 101.996 60.9833 94.1676 65.7702 87.6354L65.7951 87.6105Z" fill="#B6F2D0"/>
<path d="M84.17 64.4237C85.0675 64.4237 85.99 64.698 86.8128 65.3711C89.6301 67.6648 86.713 74.571 86.713 74.571C88.1342 72.9504 91.9986 67.9142 95.4143 67.9142C96.3118 67.9142 97.1595 68.2632 97.9324 69.086C100.65 71.9781 98.1817 75.3439 98.1817 75.3439C98.1817 75.3439 99.1042 74.546 100.401 74.546C101.124 74.546 101.946 74.7954 102.769 75.5433C105.636 78.0864 102.395 82.4245 102.395 82.4245L100.575 85.3415C100.575 85.3415 101.149 84.8928 102.046 84.8928C102.769 84.8928 103.692 85.1919 104.664 86.2391C106.659 88.3583 103.916 92.1978 103.916 92.1978L93.2203 108.977C93.2452 114.612 93.2203 116.706 93.2203 121.293C93.2203 132.513 87.2117 133.984 87.2117 133.984V152.408L61.5069 152.483V101.971C61.5069 101.971 60.9834 94.1425 65.7703 87.6103C69.4353 82.6489 79.1338 66.7922 79.1338 66.7922C80.131 65.8199 82.1007 64.4237 84.1451 64.4237M84.1451 62.9029C81.7516 62.9029 79.4579 64.3489 78.0866 65.6952L77.962 65.8199L77.8622 65.9695C77.7625 66.1191 68.1388 81.8012 64.5736 86.6629C59.5124 93.5441 59.9861 101.672 60.011 102.021V152.433V153.954H61.5319L87.2366 153.879H88.7325V134.931C90.752 133.859 94.7411 130.568 94.7411 121.243V117.155C94.7411 114.911 94.7411 112.816 94.7411 109.376L105.212 92.9707C106.459 91.2504 108.03 87.5605 105.786 85.167C104.963 84.2944 104.165 83.8207 103.442 83.5963L103.642 83.2473C105.038 81.3275 106.833 77.0891 103.766 74.3715C102.819 73.5488 101.747 73.0751 100.65 73.0003C100.849 71.4296 100.55 69.6345 99.0294 68.0139C98.0072 66.9418 96.7606 66.3684 95.4143 66.3684C93.32 66.3684 91.2507 67.6898 89.5054 69.2854C89.6051 67.3407 89.2312 65.396 87.7602 64.1744C86.713 63.3018 85.4914 62.8779 84.1451 62.8779V62.9029Z" fill="black"/>
<path d="M87.9596 10.3965H139.618C146.051 10.3965 151.287 15.6322 151.287 22.0646V110.099C151.287 116.531 146.051 121.767 139.618 121.767H87.9596C81.5272 121.767 76.2915 116.531 76.2915 110.099V22.0646C76.2915 15.6322 81.5272 10.3965 87.9596 10.3965Z" fill="white"/>
<path d="M139.618 122.515H87.9595C81.1033 122.515 75.5435 116.955 75.5435 110.099V22.0645C75.5435 15.2082 81.1033 9.64844 87.9595 9.64844H139.618C146.475 9.64844 152.034 15.2082 152.034 22.0645V110.099C152.034 116.955 146.475 122.515 139.618 122.515ZM87.9595 11.1443C81.9509 11.1443 77.0394 16.031 77.0394 22.0645V110.099C77.0394 116.108 81.926 121.019 87.9595 121.019H139.618C145.627 121.019 150.539 116.132 150.539 110.099V22.0645C150.539 16.0559 145.652 11.1443 139.618 11.1443H87.9595Z" fill="black"/>
<path d="M144.655 20.918H82.6243V104.564H144.655V20.918Z" fill="#2A9B5F"/>
<path d="M144.655 105.312H82.6242C82.2003 105.312 81.8762 104.963 81.8762 104.564V20.9179C81.8762 20.494 82.2253 20.1699 82.6242 20.1699H144.655C145.078 20.1699 145.403 20.519 145.403 20.9179V104.564C145.403 104.988 145.054 105.312 144.655 105.312ZM83.3971 103.791H143.907V21.6658H83.3971V103.791Z" fill="black"/>
<path d="M58.7347 141.503L89.6251 141.406C90.0739 141.404 90.449 141.777 90.4504 142.226L90.4916 155.34C90.493 155.789 90.1203 156.189 89.6466 156.19L58.7313 156.287C58.2825 156.289 57.9073 155.916 57.9059 155.467L57.8647 142.353C57.8633 141.904 58.2361 141.529 58.6849 141.528L58.7347 141.503Z" fill="white"/>
<path d="M58.7893 157.046C57.9167 157.046 57.2186 156.348 57.1937 155.475L57.1438 142.361C57.1438 141.937 57.2934 141.538 57.5926 141.239C57.8918 140.94 58.2907 140.765 58.7145 140.765L89.6051 140.666C90.0289 140.666 90.4278 140.84 90.727 141.139C91.0262 141.438 91.2007 141.837 91.2007 142.261L91.2506 155.375C91.2506 156.248 90.5276 156.971 89.6799 156.971L58.7644 157.071L58.7893 157.046ZM89.7297 142.261H58.7394L58.6896 155.475H89.6799C89.6799 155.475 89.7547 155.425 89.7547 155.375L89.7048 142.261H89.7297Z" fill="#020500"/>
<path d="M94.3921 170.36L94.3174 153.306C94.3174 152.857 93.9434 152.483 93.4946 152.483L57.0193 152.583C56.5705 152.583 56.1965 152.957 56.1965 153.406L56.2713 170.459L94.4171 170.335L94.3921 170.36Z" fill="#2A9B5F"/>
<path d="M93.4945 152.483C93.9433 152.483 94.3172 152.857 94.3172 153.306L94.392 170.359L56.2463 170.484L56.1715 153.431C56.1715 152.982 56.5455 152.608 56.9942 152.608L93.4696 152.508M93.4696 150.987L56.9942 151.087C55.6978 151.087 54.6506 152.134 54.6506 153.431L54.7254 170.484V171.98H56.2463L94.392 171.855H95.9129V170.334L95.8381 153.281C95.8381 151.985 94.7909 150.938 93.4945 150.938L93.4696 150.987Z" fill="black"/>
<path d="M113.664 109.476C111.77 109.476 110.249 110.996 110.249 112.891C110.249 114.786 111.795 116.332 113.664 116.332C115.534 116.332 117.105 114.786 117.105 112.891C117.105 110.996 115.584 109.476 113.664 109.476Z" fill="white"/>
<path d="M113.664 117.105C111.371 117.105 109.476 115.235 109.476 112.916C109.476 110.597 111.346 108.728 113.664 108.728C115.983 108.728 117.853 110.597 117.853 112.916C117.853 115.235 115.983 117.105 113.664 117.105ZM113.664 110.248C112.193 110.248 110.997 111.445 110.997 112.916C110.997 114.387 112.193 115.584 113.664 115.584C115.135 115.584 116.332 114.387 116.332 112.916C116.332 111.445 115.135 110.248 113.664 110.248Z" fill="black"/>
<path d="M67.8147 106.21L86.5136 88.7074C86.5136 88.7074 89.9791 84.7182 93.5194 88.1339C96.5362 91.0509 94.6663 95.0899 92.7466 97.2839L81.3776 111.345V120.969C81.3776 120.969 81.9511 127.177 79.4579 129.895C77.8622 131.615 76.1918 132.687 74.7458 133.161" fill="#B6F2D0"/>
<path d="M74.97 133.859L74.4963 132.413C75.9424 131.939 77.5131 130.867 78.8843 129.346C81.1033 126.928 80.6046 121.069 80.6046 121.019V111.046L92.1481 96.7851C92.5969 96.2615 96.2868 91.8486 92.9708 88.6573C92.1232 87.8346 91.2256 87.4357 90.3031 87.4855C88.508 87.5603 87.0869 89.1809 87.062 89.1809L68.3132 106.733L67.291 105.636L85.9899 88.1337C85.9899 88.1337 87.785 86.0893 90.2283 85.9647C91.6245 85.9148 92.8711 86.4384 94.018 87.5603C97.0846 90.5272 95.8629 94.8155 93.2949 97.7574L82.1005 111.57V120.944C82.1005 121.144 82.674 127.451 79.9813 130.368C78.4106 132.089 76.6654 133.285 74.9451 133.834L74.97 133.859Z" fill="black"/>
<path d="M96.5112 53.3291C91.4999 53.3291 87.436 57.393 87.436 62.4043C87.436 64.4986 88.184 66.4183 89.3558 67.989C89.4306 68.1137 89.5552 68.2384 89.655 68.3132C89.7796 68.4877 89.9542 68.6373 90.1037 68.8118C91.824 70.6567 94.043 72.0529 96.5112 72.8009C98.9795 72.0529 101.198 70.6567 102.919 68.8118C103.093 68.6373 103.218 68.4877 103.367 68.3132C103.442 68.1885 103.567 68.0638 103.667 67.989C104.863 66.4682 105.586 64.5484 105.586 62.4043C105.586 57.393 101.523 53.3291 96.5112 53.3291ZM96.5112 65.8449C94.5915 65.8449 93.0208 64.2742 93.0208 62.3544C93.0208 60.4347 94.5915 58.864 96.5112 58.864C98.431 58.864 99.9518 60.4347 99.9518 62.3544C99.9518 64.2742 98.431 65.8449 96.5112 65.8449Z" fill="white"/>
<path d="M96.5112 73.3246C96.5112 73.3246 96.4114 73.3246 96.3616 73.3246C93.8185 72.5767 91.5248 71.1306 89.7048 69.1859C89.5302 69.0114 89.3557 68.8369 89.2061 68.6374C89.1563 68.5876 89.0067 68.438 88.9069 68.2884C87.5855 66.5681 86.8875 64.5237 86.8875 62.4045C86.8875 57.094 91.2007 52.7808 96.5112 52.7808C101.822 52.7808 106.135 57.094 106.135 62.4045C106.135 64.5735 105.437 66.6179 104.09 68.3133C103.966 68.438 103.891 68.5128 103.816 68.6125C103.667 68.7621 103.617 68.8369 103.542 68.9117C103.467 69.0114 103.392 69.0862 103.293 69.1859C101.498 71.1057 99.2038 72.5517 96.6607 73.2997C96.6109 73.2997 96.561 73.2997 96.5112 73.2997V73.3246ZM96.5112 53.8778C91.824 53.8778 87.9845 57.6923 87.9845 62.4045C87.9845 64.2744 88.6078 66.0944 89.8045 67.6651C89.8793 67.7897 89.979 67.8645 90.0289 67.9393C90.2034 68.1388 90.3281 68.2884 90.4776 68.438C92.1231 70.2081 94.2174 71.5295 96.4862 72.2276C98.78 71.5046 100.849 70.2081 102.495 68.438C102.57 68.3632 102.644 68.2884 102.719 68.2136C102.794 68.1139 102.869 68.0391 102.969 67.9393C102.993 67.8645 103.143 67.7399 103.243 67.6402C104.415 66.1692 105.038 64.3491 105.038 62.4294C105.038 57.7422 101.223 53.9027 96.5112 53.9027V53.8778ZM96.5112 66.3936C94.2922 66.3936 92.4722 64.5735 92.4722 62.3546C92.4722 60.1357 94.2922 58.3156 96.5112 58.3156C98.7301 58.3156 100.5 60.1357 100.5 62.3546C100.5 64.5735 98.7052 66.3936 96.5112 66.3936ZM96.5112 59.4126C94.8906 59.4126 93.5692 60.734 93.5692 62.3546C93.5692 63.9752 94.8906 65.2966 96.5112 65.2966C98.1317 65.2966 99.4032 64.0001 99.4032 62.3546C99.4032 60.7091 98.1317 59.4126 96.5112 59.4126Z" fill="black"/>
<path d="M99.4782 53.1295C100.102 53.0049 100.55 52.4813 100.55 51.8081C100.55 51.0602 99.927 50.4868 99.2289 50.4868C99.0294 50.4868 98.83 50.5366 98.6555 50.6114C98.4061 49.6141 97.5584 48.8911 96.5113 48.8911C95.4642 48.8911 94.6165 49.6391 94.417 50.6114C94.2425 50.5366 94.0431 50.4868 93.8436 50.4868C93.0956 50.4868 92.5222 51.11 92.5222 51.8081C92.5222 52.4564 92.971 53.0049 93.5943 53.1295C94.5417 52.8054 95.514 52.6309 96.5612 52.6309C97.6083 52.6309 98.5308 52.8054 99.4782 53.1295Z" fill="#6ACE95"/>
<path d="M93.5942 53.6533C93.5942 53.6533 93.5194 53.6533 93.4944 53.6533C92.5969 53.4787 91.9985 52.7059 91.9985 51.8083C91.9985 50.7113 92.9709 49.8387 94.0679 49.9633C94.4917 49.0159 95.4391 48.3428 96.5112 48.3428C97.5833 48.3428 98.5307 48.991 98.9795 49.9633C100.101 49.8387 101.074 50.7113 101.074 51.8083C101.074 52.7308 100.45 53.4787 99.5778 53.6533C99.4781 53.6533 99.3784 53.6533 99.2786 53.6533C97.4835 53.03 95.5139 53.03 93.7687 53.6533C93.7188 53.6533 93.644 53.6782 93.5942 53.6782V53.6533ZM93.8435 51.0354C93.4196 51.0354 93.0706 51.3845 93.0706 51.8083C93.0706 52.1574 93.2701 52.4316 93.5692 52.5563C95.4641 51.933 97.5583 51.933 99.4781 52.5563C99.7773 52.4316 99.9767 52.1574 99.9767 51.8083C99.9767 51.3845 99.6277 51.0354 99.2038 51.0354C99.0792 51.0354 98.9545 51.0354 98.8797 51.1102C98.7301 51.185 98.5556 51.185 98.406 51.1102C98.2564 51.0354 98.1567 50.9108 98.1068 50.7362C97.9074 49.9633 97.2592 49.4148 96.5112 49.4148C95.7632 49.4148 95.115 49.9633 94.9405 50.7113C94.9156 50.8858 94.7909 51.0105 94.6413 51.0853C94.4917 51.1601 94.3172 51.1601 94.1676 51.0853C94.0928 51.0354 93.9681 51.0105 93.8435 51.0105V51.0354Z" fill="black"/>
<path d="M112.069 62.5041H117.604C118.302 62.5041 118.825 62.1052 118.825 61.2326C118.825 60.36 118.302 59.9611 117.604 59.9611H112.767C112.518 59.9611 112.368 59.7865 112.368 59.5871V57.418C112.368 57.1687 112.542 57.044 112.767 57.044H117.604C118.302 57.044 118.825 56.6451 118.825 55.7725C118.825 54.8999 118.302 54.501 117.604 54.501H112.069C110.174 54.501 109.276 55.3237 109.276 56.9194V60.1106C109.276 61.6814 110.174 62.4792 112.069 62.4792V62.5041Z" fill="#E1FFED"/>
<path d="M117.603 63.0527H112.069C109.177 63.0527 108.753 61.2327 108.753 60.1357V56.9444C108.753 55.5981 109.326 54.0024 112.069 54.0024H117.603C118.651 54.0024 119.374 54.7255 119.374 55.7975C119.374 56.8696 118.676 57.5926 117.603 57.5926H112.866V59.4376H117.603C118.651 59.4376 119.374 60.1606 119.374 61.2327C119.374 62.3048 118.676 63.0278 117.603 63.0278V63.0527ZM112.069 55.0496C110.074 55.0496 109.8 55.997 109.8 56.9444V60.1357C109.8 61.0083 110.049 61.9806 112.069 61.9806H117.603C118.077 61.9806 118.302 61.7313 118.302 61.2327C118.302 60.734 118.077 60.4847 117.603 60.4847H112.767C112.243 60.4847 111.819 60.0858 111.819 59.5872V57.4181C111.819 56.8945 112.218 56.5206 112.767 56.5206H117.603C118.077 56.5206 118.302 56.2712 118.302 55.7726C118.302 55.274 118.077 55.0246 117.603 55.0246H112.069V55.0496Z" fill="black"/>
<path d="M119 63.5513H113.54C111.071 63.5513 109.476 64.8976 109.476 66.8672C109.476 68.8368 111.071 70.1582 113.54 70.1582H119C121.468 70.1582 123.114 68.8119 123.114 66.8672C123.114 64.9225 121.468 63.5513 119 63.5513ZM119 67.6152H113.54C112.916 67.6152 112.592 67.291 112.592 66.8672C112.592 66.4184 112.916 66.0943 113.54 66.0943H119C119.623 66.0943 119.947 66.4184 119.947 66.8672C119.947 67.2661 119.623 67.6152 119 67.6152Z" fill="#E1FFED"/>
<path d="M119 70.6819H113.54C110.847 70.6819 108.952 69.1112 108.952 66.8673C108.952 64.6235 110.797 63.0278 113.54 63.0278H119C121.717 63.0278 123.637 64.6235 123.637 66.8673C123.637 69.1112 121.742 70.6819 119 70.6819ZM113.54 64.075C111.395 64.075 109.999 65.172 109.999 66.8673C109.999 68.5627 111.42 69.6098 113.54 69.6098H119C121.144 69.6098 122.565 68.5128 122.565 66.8673C122.565 65.2218 121.119 64.075 119 64.075H113.54ZM119 68.1389H113.54C112.517 68.1389 112.069 67.4906 112.069 66.8673C112.069 66.0944 112.667 65.5709 113.54 65.5709H119C120.022 65.5709 120.471 66.2191 120.471 66.8673C120.471 67.4657 120.022 68.1389 119 68.1389ZM113.54 66.618C113.116 66.618 113.116 66.7925 113.116 66.8673C113.116 67.0668 113.44 67.0668 113.54 67.0668H119C119 67.0668 119.424 67.0668 119.424 66.8673C119.424 66.7925 119.424 66.618 119 66.618H113.54Z" fill="black"/>
<path d="M123.637 57.0938H122.764V55.4234C122.764 54.6754 122.141 54.1519 121.194 54.1519C120.246 54.1519 119.623 54.6754 119.623 55.4234V61.8558C119.623 62.6038 120.271 63.1273 121.194 63.1273C122.116 63.1273 122.764 62.6038 122.764 61.8558V60.0856H123.637C124.335 60.0856 124.908 59.4623 124.908 58.5648C124.908 57.742 124.335 57.0938 123.637 57.0938Z" fill="#E1FFED"/>
<path d="M121.219 63.651C120.022 63.651 119.124 62.8781 119.124 61.8559V55.4235C119.124 54.4013 120.022 53.6284 121.219 53.6284C122.415 53.6284 123.313 54.3764 123.313 55.4235V56.5704H123.637C124.634 56.5704 125.432 57.4679 125.432 58.5649C125.432 59.7367 124.659 60.6093 123.637 60.6093H123.313V61.8559C123.313 62.8781 122.415 63.651 121.219 63.651ZM121.219 54.6756C120.62 54.6756 120.196 54.9747 120.196 55.4235V61.8559C120.196 62.3047 120.62 62.6039 121.219 62.6039C121.817 62.6039 122.241 62.3047 122.241 61.8559V59.5622H123.637C124.061 59.5622 124.385 59.1384 124.385 58.5649C124.385 58.0414 124.061 57.6175 123.637 57.6175H122.241V55.3986C122.241 54.9498 121.842 54.6506 121.219 54.6506V54.6756Z" fill="black"/>
<path d="M139.12 63.9501H126.429C125.681 63.9501 125.083 63.4515 125.083 62.5539C125.083 61.7312 125.706 61.2076 126.429 61.2076H139.12C139.868 61.2076 140.466 61.7312 140.466 62.5539C140.466 63.4515 139.893 63.9501 139.12 63.9501ZM136.527 59.4873V57.8418C136.527 57.5426 136.352 57.393 136.128 57.393H127.302C126.529 57.393 125.906 56.8944 125.906 55.9968C125.906 55.0993 126.554 54.5508 127.302 54.5508H136.776C138.671 54.5508 139.618 55.5481 139.618 57.2684V59.5372C139.618 60.2851 138.995 60.8087 138.048 60.8087C137.1 60.8087 136.527 60.2352 136.527 59.4873ZM129.097 65.7203V66.8173C129.097 67.0167 129.272 67.1912 129.496 67.1912H138.571C139.344 67.1912 139.967 67.6899 139.967 68.5874C139.967 69.485 139.319 69.9836 138.571 69.9836H128.898C127.003 69.9836 126.03 69.2107 126.03 67.4904V65.7203C126.03 64.9723 126.654 64.4487 127.601 64.4487C128.474 64.4487 129.122 65.0222 129.122 65.7203H129.097Z" fill="#E1FFED"/>
<path d="M138.571 70.5073H128.898C126.08 70.5073 125.507 68.8618 125.507 67.4656V65.6955C125.507 65.1968 125.706 64.7481 126.08 64.424C125.183 64.2744 124.584 63.5264 124.584 62.5291C124.584 61.4571 125.382 60.6592 126.454 60.6592H136.477C136.178 60.3351 136.028 59.9362 136.028 59.4625V57.8918H127.327C126.205 57.8918 125.407 57.094 125.407 55.9721C125.407 54.8501 126.23 54.0024 127.327 54.0024H136.801C138.945 54.0024 140.167 55.1742 140.167 57.2436V59.5124C140.167 59.9861 139.967 60.4099 139.668 60.734C140.466 60.9335 141.039 61.6565 141.039 62.5541C141.039 63.7009 140.292 64.4738 139.17 64.4738H129.147C129.496 64.7979 129.696 65.2218 129.696 65.7204V66.6678H138.646C139.768 66.6678 140.566 67.4656 140.566 68.5876C140.566 69.7095 139.768 70.5073 138.646 70.5073H138.571ZM127.576 64.9725C126.953 64.9725 126.554 65.2716 126.554 65.7204V67.4906C126.554 68.4629 126.828 69.4602 128.898 69.4602H138.571C138.995 69.4602 139.444 69.2358 139.444 68.5876C139.444 67.8147 138.845 67.715 138.571 67.715H129.496C128.972 67.715 128.549 67.3161 128.549 66.8174V65.7204C128.549 65.3215 128.1 64.9725 127.551 64.9725H127.576ZM126.429 61.7313C126.031 61.7313 125.607 61.9806 125.607 62.5541C125.607 63.3519 126.23 63.4267 126.429 63.4267H139.12C139.643 63.4267 139.942 63.1275 139.942 62.5541C139.942 61.9806 139.519 61.7313 139.12 61.7313H126.429ZM127.302 55.0745C126.878 55.0745 126.429 55.3488 126.429 55.9721C126.429 56.7449 127.028 56.8447 127.302 56.8447H136.128C136.676 56.8447 137.075 57.2685 137.075 57.817V59.4625C137.075 59.9362 137.449 60.2354 138.073 60.2354C138.696 60.2354 139.095 59.9362 139.095 59.4875V57.2187C139.095 55.7477 138.347 55.0496 136.801 55.0496H127.327L127.302 55.0745Z" fill="black"/>
<path d="M168.963 50.5871H177.191C175.794 47.321 172.678 44.9525 168.963 44.6782V50.5871Z" fill="#54D38A"/>
<path d="M177.191 50.8864H168.963C168.789 50.8864 168.664 50.7368 168.664 50.5872V44.6784C168.664 44.6784 168.689 44.5039 168.764 44.454C168.839 44.4041 168.913 44.3543 168.988 44.3792C172.753 44.6534 176.019 46.9721 177.49 50.4626C177.54 50.5623 177.515 50.662 177.465 50.7618C177.415 50.8615 177.315 50.9113 177.216 50.9113L177.191 50.8864ZM169.262 50.2631H176.692C175.271 47.3212 172.479 45.3515 169.262 45.0025V50.2631Z" fill="black"/>
<path d="M167.866 44.6533C164.027 44.8029 160.736 47.1964 159.315 50.5622H167.866V44.6533Z" fill="#54D38A"/>
<path d="M167.866 50.8862H159.315C159.315 50.8862 159.115 50.8363 159.065 50.7366C159.015 50.6618 158.991 50.5371 159.04 50.4374C160.536 46.8721 164.002 44.4787 167.866 44.3291C167.941 44.3291 168.041 44.354 168.091 44.4039C168.14 44.4538 168.19 44.5535 168.19 44.6283V50.5371C168.19 50.7117 168.041 50.8363 167.891 50.8363L167.866 50.8862ZM159.813 50.2629H167.567V45.0023C164.251 45.2516 161.259 47.2711 159.813 50.2629Z" fill="black"/>
<path d="M177.59 51.6592H168.963V57.6927H177.34C177.739 56.6456 177.939 55.4987 177.939 54.3269C177.939 53.4044 177.814 52.5069 177.565 51.6592H177.59Z" fill="#54D38A"/>
<path d="M177.365 58.0166H168.963C168.789 58.0166 168.664 57.867 168.664 57.7175V51.6839C168.664 51.5094 168.814 51.3848 168.963 51.3848H177.59C177.739 51.3848 177.839 51.4845 177.889 51.6092C178.138 52.5067 178.288 53.4292 178.288 54.3766C178.288 55.5733 178.088 56.7451 177.664 57.8421C177.615 57.9668 177.515 58.0416 177.365 58.0416V58.0166ZM169.287 57.3933H177.141C177.49 56.421 177.664 55.3739 177.664 54.3267C177.664 53.5289 177.565 52.7311 177.365 51.9582H169.287V57.3684V57.3933Z" fill="black"/>
<path d="M167.866 51.6592H158.941C158.691 52.5069 158.567 53.4044 158.567 54.3269C158.567 55.4987 158.791 56.6456 159.165 57.6927H167.866V51.6592Z" fill="#54D38A"/>
<path d="M167.866 58.0167H159.165C159.04 58.0167 158.916 57.9419 158.866 57.8172C158.442 56.6953 158.242 55.5235 158.242 54.3517C158.242 53.4292 158.367 52.4818 158.641 51.5843C158.691 51.4596 158.791 51.3599 158.941 51.3599H167.866C168.041 51.3599 168.165 51.5095 168.165 51.659V57.6926C168.165 57.8671 168.016 57.9917 167.866 57.9917V58.0167ZM159.389 57.3934H167.567V51.9832H159.19C158.99 52.756 158.891 53.5539 158.891 54.3517C158.891 55.3988 159.065 56.421 159.414 57.4183L159.389 57.3934Z" fill="black"/>
<path d="M167.866 58.7896H159.664C161.234 61.7814 164.301 63.8757 167.866 64.0252V58.7896Z" fill="#54D38A"/>
<path d="M167.866 64.3243C164.301 64.1747 161.035 62.1054 159.389 58.939C159.339 58.8393 159.339 58.7396 159.389 58.6398C159.439 58.5401 159.539 58.4902 159.663 58.4902H167.866C168.041 58.4902 168.165 58.6398 168.165 58.7894V64.0251C168.165 64.0251 168.14 64.1996 168.066 64.2495C168.016 64.2994 167.941 64.3243 167.841 64.3243H167.866ZM160.187 59.0886C161.758 61.7314 164.5 63.4517 167.567 63.6761V59.0886H160.187Z" fill="black"/>
<path d="M168.963 58.7896V64.0003C172.403 63.751 175.345 61.7066 176.866 58.7896H168.963Z" fill="#54D38A"/>
<path d="M168.963 64.3243C168.963 64.3243 168.813 64.2993 168.764 64.2495C168.689 64.1996 168.664 64.0999 168.664 64.0251V58.8143C168.664 58.6398 168.813 58.5151 168.963 58.5151H176.866C176.866 58.5151 177.066 58.565 177.141 58.6647C177.191 58.7645 177.191 58.8642 177.141 58.9639C175.545 62.0305 172.429 64.0999 168.988 64.3492L168.963 64.3243ZM169.262 59.1135V63.676C172.179 63.3519 174.822 61.6566 176.318 59.1135H169.262Z" fill="black"/>
<path d="M168.265 64.0254C164.874 64.0254 162.107 59.6873 162.107 54.3269C162.107 48.9666 164.874 44.6284 168.265 44.6284C171.656 44.6284 174.423 48.9666 174.423 54.3269C174.423 59.6873 171.656 64.0254 168.265 64.0254ZM168.265 45.7254C165.472 45.7254 163.204 49.5899 163.204 54.3269C163.204 59.064 165.472 62.9284 168.265 62.9284C171.057 62.9284 173.326 59.064 173.326 54.3269C173.326 49.5899 171.057 45.7254 168.265 45.7254Z" fill="#E1FFED"/>
<path d="M168.265 64.3494C164.7 64.3494 161.808 59.8616 161.808 54.3517C161.808 48.8417 164.7 44.354 168.265 44.354C171.83 44.354 174.722 48.8417 174.722 54.3517C174.722 59.8616 171.83 64.3494 168.265 64.3494ZM168.265 44.9773C165.049 44.9773 162.431 49.1908 162.431 54.3517C162.431 59.5126 165.049 63.7261 168.265 63.7261C171.481 63.7261 174.099 59.5126 174.099 54.3517C174.099 49.1908 171.481 44.9773 168.265 44.9773ZM168.265 63.2773C165.298 63.2773 162.88 59.2882 162.88 54.3517C162.88 49.4152 165.298 45.4261 168.265 45.4261C171.232 45.4261 173.65 49.4152 173.65 54.3517C173.65 59.2882 171.232 63.2773 168.265 63.2773ZM168.265 46.0743C165.647 46.0743 163.503 49.7891 163.503 54.3766C163.503 58.9641 165.647 62.6789 168.265 62.6789C170.883 62.6789 173.027 58.9641 173.027 54.3766C173.027 49.7891 170.883 46.0743 168.265 46.0743Z" fill="black"/>
</g>
<defs>
<clipPath id="clip0_707_1713">
<rect width="211.946" height="171.98" fill="white"/>
</clipPath>
</defs>
</svg>
