<svg width="232" height="154" viewBox="0 0 232 154" fill="none" xmlns="http://www.w3.org/2000/svg">
<g clip-path="url(#clip0_694_125)">
<path d="M211.698 74.9788C211.698 78.1177 209.141 80.6743 206.002 80.6743C202.864 80.6743 200.307 78.1177 200.307 74.9788C200.307 71.8399 202.864 69.2832 206.002 69.2832C209.141 69.2832 211.698 71.8399 211.698 74.9788Z" fill="#FFDA7D"/>
<path d="M206.003 81.1301C202.611 81.1301 199.851 78.3709 199.851 74.9789C199.851 71.5868 202.611 68.8276 206.003 68.8276C209.395 68.8276 212.154 71.5868 212.154 74.9789C212.154 78.3709 209.395 81.1301 206.003 81.1301ZM206.003 69.7389C203.117 69.7389 200.763 72.0931 200.763 74.9789C200.763 77.8646 203.117 80.2188 206.003 80.2188C208.888 80.2188 211.242 77.8646 211.242 74.9789C211.242 72.0931 208.888 69.7389 206.003 69.7389Z" fill="black"/>
<path d="M129.783 131.732V122.695H100.571V131.732C100.571 136.668 96.8753 140.744 92.0911 141.326V141.402H138.263V141.326C133.479 140.744 129.783 136.668 129.783 131.732Z" fill="#FFBB00"/>
<path d="M138.289 142.035H92.1165C91.7621 142.035 91.4836 141.757 91.4836 141.402C91.4836 141.073 91.7115 140.744 92.0405 140.693C96.5717 140.136 99.9637 136.289 99.9637 131.732V122.695C99.9637 122.341 100.242 122.062 100.597 122.062H129.808C130.163 122.062 130.441 122.341 130.441 122.695V131.732C130.441 136.289 133.859 140.136 138.365 140.693C138.694 140.744 138.921 140.997 138.921 141.326C138.921 141.681 138.643 142.035 138.289 142.035ZM95.8629 140.769H134.517C131.302 138.997 129.15 135.58 129.15 131.732V123.328H101.204V131.732C101.204 135.605 99.0524 139.023 95.8376 140.769H95.8629Z" fill="black"/>
<path d="M57.1077 55.0571H173.272C175.879 55.0571 178.006 57.1835 178.006 59.7908V123.885C178.006 126.492 175.879 128.619 173.272 128.619H57.1077C54.5004 128.619 52.374 126.492 52.374 123.885V59.7908C52.374 57.1835 54.5004 55.0571 57.1077 55.0571Z" fill="#FFF5DE"/>
<path d="M173.272 129.251H57.1077C54.146 129.251 51.7412 126.847 51.7412 123.885V59.7908C51.7412 56.8291 54.146 54.4243 57.1077 54.4243H173.272C176.234 54.4243 178.639 56.8291 178.639 59.7908V123.885C178.639 126.847 176.234 129.251 173.272 129.251ZM57.1077 55.69C54.8548 55.69 53.0069 57.5379 53.0069 59.7908V123.885C53.0069 126.138 54.8548 127.986 57.1077 127.986H173.272C175.525 127.986 177.373 126.138 177.373 123.885V59.7908C177.373 57.5379 175.525 55.69 173.272 55.69H57.1077Z" fill="black"/>
<path d="M57.1077 43.0586H173.272C175.879 43.0586 178.006 45.1849 178.006 47.7922V111.886C178.006 114.494 175.879 116.62 173.272 116.62H57.1077C54.5004 116.62 52.374 114.494 52.374 111.886V47.7922C52.374 45.1849 54.5004 43.0586 57.1077 43.0586Z" fill="#FFBB00"/>
<path d="M173.272 117.253H57.1077C54.146 117.253 51.7412 114.848 51.7412 111.886V47.7923C51.7412 44.8306 54.146 42.4258 57.1077 42.4258H173.272C176.234 42.4258 178.639 44.8306 178.639 47.7923V111.886C178.639 114.848 176.234 117.253 173.272 117.253ZM57.1077 43.6915C54.8548 43.6915 53.0069 45.5394 53.0069 47.7923V111.886C53.0069 114.139 54.8548 115.987 57.1077 115.987H173.272C175.525 115.987 177.373 114.139 177.373 111.886V47.7923C177.373 45.5394 175.525 43.6915 173.272 43.6915H57.1077Z" fill="black"/>
<path d="M168.386 48.4253H61.9931C59.896 48.4253 58.196 50.1253 58.196 52.2223V107.153C58.196 109.25 59.896 110.95 61.9931 110.95H168.386C170.483 110.95 172.183 109.25 172.183 107.153V52.2223C172.183 50.1253 170.483 48.4253 168.386 48.4253Z" fill="white"/>
<path d="M168.386 111.558H62.0185C59.5631 111.558 57.5886 109.558 57.5886 107.128V52.2224C57.5886 49.7669 59.5884 47.7925 62.0185 47.7925H168.386C170.842 47.7925 172.816 49.7923 172.816 52.2224V107.128C172.816 109.583 170.817 111.558 168.386 111.558ZM62.0185 49.0582C60.2719 49.0582 58.8543 50.4757 58.8543 52.2224V107.128C58.8543 108.874 60.2719 110.292 62.0185 110.292H168.386C170.133 110.292 171.551 108.874 171.551 107.128V52.2224C171.551 50.4757 170.133 49.0582 168.386 49.0582H62.0185Z" fill="black"/>
<path d="M86.598 141.402H143.807C145.351 141.402 146.591 142.642 146.591 144.186V145.325C146.591 146.87 145.351 148.11 143.807 148.11H86.598C85.0538 148.11 83.8135 146.87 83.8135 145.325V144.186C83.8135 142.642 85.0538 141.402 86.598 141.402Z" fill="#FFF5DE"/>
<path d="M143.807 148.743H86.598C84.6995 148.743 83.1807 147.199 83.1807 145.325V144.186C83.1807 142.288 84.7248 140.769 86.598 140.769H143.807C145.705 140.769 147.224 142.313 147.224 144.186V145.325C147.224 147.224 145.68 148.743 143.807 148.743ZM86.598 142.035C85.4083 142.035 84.4463 142.997 84.4463 144.186V145.325C84.4463 146.515 85.4083 147.477 86.598 147.477H143.807C144.997 147.477 145.958 146.515 145.958 145.325V144.186C145.958 142.997 144.997 142.035 143.807 142.035H86.598Z" fill="black"/>
<path fill-rule="evenodd" clip-rule="evenodd" d="M137.504 80.2441C137.504 78.6241 137.352 77.0799 137.099 75.5864H115.658V84.3956H127.91C127.378 87.2307 125.784 89.6608 123.354 91.2809V97.0018H130.72C135.023 93.0275 137.504 87.2054 137.504 80.2694V80.2441Z" fill="#FFE8AE"/>
<path d="M130.72 97.6346H123.354C122.999 97.6346 122.721 97.3562 122.721 97.0018V91.2809C122.721 91.0784 122.822 90.8759 122.999 90.7493C125.05 89.3824 126.492 87.3573 127.1 85.0284H115.633C115.278 85.0284 115 84.75 115 84.3956V75.5865C115 75.2321 115.278 74.9536 115.633 74.9536H137.074C137.377 74.9536 137.63 75.1814 137.706 75.4852C137.985 77.0546 138.137 78.6494 138.137 80.2442C138.137 87.1801 135.656 93.306 131.15 97.4574C131.024 97.5587 130.872 97.6346 130.72 97.6346ZM123.986 96.369H130.467C134.593 92.4707 136.871 86.7498 136.871 80.2695C136.871 78.9025 136.77 77.5609 136.567 76.2446H116.291V83.7881H127.91C128.087 83.7881 128.264 83.864 128.391 84.0159C128.517 84.1678 128.568 84.345 128.517 84.5475C127.986 87.4332 126.391 89.9393 123.986 91.6353V96.3943V96.369Z" fill="black"/>
<path fill-rule="evenodd" clip-rule="evenodd" d="M115.658 102.52C121.809 102.52 126.973 100.47 130.72 97.0017L123.353 91.2808C121.303 92.6477 118.696 93.4578 115.633 93.4578C109.709 93.4578 104.672 89.4582 102.9 84.0664H95.2805V89.9645C99.0269 97.4067 106.722 102.52 115.633 102.52H115.658Z" fill="#FFBB00"/>
<path d="M115.658 103.153C106.748 103.153 98.7486 98.2168 94.749 90.2684C94.6984 90.1924 94.6731 90.0912 94.6731 89.9899V84.0918C94.6731 83.7374 94.9515 83.459 95.3059 83.459H102.925C103.204 83.459 103.432 83.6362 103.533 83.8893C105.305 89.2558 110.19 92.8503 115.683 92.8503C118.468 92.8503 121.025 92.1416 123.05 90.7746C123.278 90.6227 123.581 90.6227 123.784 90.7999L131.15 96.5208C131.302 96.6221 131.378 96.7993 131.403 97.0018C131.403 97.179 131.327 97.3562 131.201 97.4827C127.176 101.204 121.809 103.178 115.709 103.178L115.658 103.153ZM95.9388 89.8127C99.7611 97.2549 107.279 101.887 115.658 101.887C121.176 101.887 126.011 100.217 129.732 97.0271L123.328 92.0656C121.176 93.4072 118.519 94.0907 115.658 94.0907C109.785 94.0907 104.545 90.3443 102.47 84.6993H95.9388V89.8127Z" fill="black"/>
<path fill-rule="evenodd" clip-rule="evenodd" d="M102.9 84.0666C102.444 82.6996 102.191 81.2314 102.191 79.7379C102.191 78.2444 102.444 76.7763 102.9 75.4093V69.5112H95.2804C93.7363 72.5742 92.8503 76.0675 92.8503 79.7379C92.8503 83.4084 93.7363 86.9017 95.2804 89.9647L102.9 84.0666Z" fill="#FFF0CA"/>
<path d="M95.3059 90.5976C95.3059 90.5976 95.2046 90.5976 95.154 90.5976C94.9768 90.547 94.8249 90.4457 94.7237 90.2685C93.1036 87.0284 92.2429 83.3832 92.2429 79.7634C92.2429 76.1435 93.0783 72.549 94.7237 69.2582C94.8249 69.0557 95.0527 68.9038 95.2806 68.9038H102.9C103.254 68.9038 103.533 69.1823 103.533 69.5366V75.4347C103.533 75.4347 103.533 75.5613 103.507 75.6372C103.052 77.0042 102.824 78.3711 102.824 79.7634C102.824 81.1556 103.052 82.5225 103.507 83.8895C103.583 84.1426 103.507 84.4211 103.305 84.5983L95.6856 90.4963C95.6856 90.4963 95.4324 90.6229 95.3059 90.6229V90.5976ZM95.7109 70.1442C94.268 73.1565 93.5339 76.3966 93.5339 79.7381C93.5339 83.0795 94.2174 86.0665 95.559 88.9775L102.191 83.8389C101.786 82.4972 101.584 81.105 101.584 79.7381C101.584 78.2445 101.811 76.751 102.292 75.3082V70.1442H95.7109Z" fill="black"/>
<path fill-rule="evenodd" clip-rule="evenodd" d="M115.658 66.0179C118.999 66.0179 122.012 67.157 124.366 69.4353L130.897 62.9044C126.948 59.2339 121.809 56.981 115.658 56.981C106.748 56.981 99.0523 62.0943 95.3059 69.5365L102.925 75.4346C104.723 70.0428 109.735 66.0432 115.658 66.0432V66.0179Z" fill="#FFDA7D"/>
<path d="M102.9 76.0422C102.773 76.0422 102.621 75.9915 102.52 75.9156L94.9008 70.0175C94.6729 69.8403 94.597 69.5112 94.7236 69.2328C98.7231 61.2843 106.748 56.3481 115.633 56.3481C121.607 56.3481 127.024 58.4492 131.302 62.4487C131.428 62.5753 131.504 62.7272 131.504 62.9044C131.504 63.0816 131.428 63.2335 131.327 63.36L124.796 69.8909C124.543 70.1441 124.163 70.1441 123.91 69.8909C121.708 67.7899 118.847 66.6508 115.633 66.6508C110.14 66.6508 105.279 70.2453 103.482 75.6118C103.406 75.8143 103.254 75.9662 103.077 76.0168C103.026 76.0168 102.951 76.0422 102.9 76.0422ZM96.0905 69.334L102.596 74.3715C104.773 68.9543 109.886 65.3851 115.633 65.3851C118.949 65.3851 121.936 66.4736 124.315 68.5493L129.96 62.9044C125.986 59.4111 121.05 57.5885 115.633 57.5885C107.38 57.5885 99.9382 62.069 96.0905 69.334Z" fill="black"/>
<path d="M202.509 28.5791L207.698 44.3495C210.128 43.5648 212.407 42.2232 214.331 40.2993C215.571 39.059 216.558 37.6667 217.343 36.1985L202.509 28.6044V28.5791Z" fill="#FFE8AE"/>
<path d="M207.698 44.9572C207.445 44.9572 207.192 44.78 207.091 44.5269L201.902 28.7565C201.826 28.5033 201.902 28.2502 202.079 28.073C202.256 27.8958 202.56 27.8705 202.788 27.9971L217.621 35.5912C217.773 35.6671 217.875 35.7937 217.925 35.9709C217.976 36.1228 217.95 36.2999 217.875 36.4518C217.065 38.0213 216.001 39.4642 214.761 40.7045C212.812 42.6537 210.508 44.0712 207.876 44.9319C207.8 44.9319 207.749 44.9572 207.673 44.9572H207.698ZM203.598 29.8197L208.103 43.5143C210.306 42.7043 212.23 41.4639 213.9 39.8185C214.913 38.806 215.774 37.6669 216.482 36.4265L203.598 29.8197Z" fill="black"/>
<path d="M186.258 25.2883C186.131 26.8071 185.929 26.3262 185.954 28.5538C185.954 32.7811 187.599 37.0085 190.814 40.2487L202.509 28.5538V11.8721C194.535 11.8974 187.777 17.5676 186.258 25.2883Z" fill="#FFBB00"/>
<path d="M190.814 40.9069C190.637 40.9069 190.485 40.831 190.359 40.7297C187.118 37.4896 185.321 33.161 185.296 28.5792C185.296 27.1363 185.372 26.7566 185.473 26.3263C185.524 26.0731 185.574 25.82 185.625 25.2631C185.625 25.2631 185.625 25.2125 185.625 25.1872C187.194 17.1627 194.308 11.29 202.484 11.2646C202.585 11.2646 202.813 11.3406 202.94 11.4418C203.066 11.5431 203.117 11.7203 203.117 11.8975V28.5792C203.117 28.7564 203.041 28.9083 202.94 29.0348L191.245 40.7297C191.245 40.7297 190.966 40.9069 190.789 40.9069H190.814ZM186.891 25.3897C186.84 25.9972 186.789 26.301 186.713 26.5794C186.638 26.9591 186.562 27.2629 186.562 28.5792C186.562 32.6294 188.08 36.4264 190.814 39.3881L201.876 28.326V12.5556C194.561 12.8847 188.334 18.1753 186.891 25.415V25.3897Z" fill="#010200"/>
<path d="M202.509 28.579L190.814 40.2739C195.371 44.8557 201.952 46.1973 207.698 44.3241L202.509 28.5537V28.579Z" fill="#FFDA7D"/>
<path d="M202.56 45.7671C198.079 45.7671 193.7 44.0204 190.409 40.7297C190.333 40.679 190.283 40.5778 190.257 40.5019C190.156 40.274 190.207 39.9956 190.384 39.8184L202.079 28.1235C202.231 27.9716 202.459 27.8957 202.661 27.9463C202.864 27.9969 203.041 28.1488 203.117 28.3766L208.306 44.147C208.357 44.2989 208.357 44.4761 208.281 44.628C208.205 44.7799 208.078 44.8811 207.901 44.9317C206.129 45.514 204.332 45.7671 202.56 45.7671ZM191.726 40.2487C195.826 44.0458 201.522 45.4127 206.914 43.8939L202.256 29.7182L191.751 40.2234L191.726 40.2487Z" fill="black"/>
<path d="M210.129 13.6693H210.103C207.724 12.4796 205.117 11.8721 202.509 11.8721V28.5538L217.368 36.1479C221.596 27.9969 218.406 17.8714 210.129 13.6693Z" fill="white"/>
<path d="M217.368 36.8061C217.368 36.8061 217.166 36.8061 217.09 36.7302L202.231 29.1361C202.028 29.0348 201.876 28.807 201.876 28.5792V11.8975C201.876 11.5178 202.231 11.2646 202.56 11.2646C205.243 11.2646 207.901 11.8975 210.281 13.0872C210.331 13.0872 210.357 13.0872 210.407 13.1379C214.533 15.2389 217.596 18.8334 219.014 23.238C220.431 27.6679 220.052 32.3762 217.9 36.477C217.799 36.7049 217.571 36.8061 217.343 36.8061H217.368ZM203.142 28.1995L217.09 35.3379C218.811 31.6674 219.09 27.5413 217.824 23.6177C216.508 19.5675 213.723 16.2514 209.952 14.3023C209.901 14.3023 209.876 14.277 209.825 14.2517C207.775 13.2138 205.471 12.6063 203.142 12.5303V28.1995Z" fill="black"/>
<path d="M38.7805 148.895H0.632841C0.27845 148.895 0 148.616 0 148.262V108.064C0 107.71 0.27845 107.431 0.632841 107.431C0.987232 107.431 1.26568 107.71 1.26568 108.064V147.629H38.7805C39.1349 147.629 39.4133 147.908 39.4133 148.262C39.4133 148.616 39.1349 148.895 38.7805 148.895Z" fill="black"/>
<path d="M10.5303 131.707H4.60693V144.111H10.5303V131.707Z" fill="#FFF5DE"/>
<path d="M10.5304 144.718H4.60696C4.25257 144.718 3.97412 144.44 3.97412 144.085V131.682C3.97412 131.327 4.25257 131.049 4.60696 131.049H10.5304C10.8847 131.049 11.1632 131.327 11.1632 131.682V144.085C11.1632 144.44 10.8847 144.718 10.5304 144.718ZM5.2398 143.453H9.89751V132.315H5.2398V143.453Z" fill="black"/>
<path d="M19.7447 134.998H13.8213V144.085H19.7447V134.998Z" fill="white"/>
<path d="M19.7447 144.718H13.8213C13.4669 144.718 13.1885 144.44 13.1885 144.085V134.998C13.1885 134.643 13.4669 134.365 13.8213 134.365H19.7447C20.0991 134.365 20.3776 134.643 20.3776 134.998V144.085C20.3776 144.44 20.0991 144.718 19.7447 144.718ZM14.4542 143.452H19.1119V135.63H14.4542V143.452Z" fill="black"/>
<path d="M28.9588 130.036H23.0354V144.085H28.9588V130.036Z" fill="#FFBB00"/>
<path d="M28.9588 144.718H23.0354C22.681 144.718 22.4026 144.44 22.4026 144.085V130.036C22.4026 129.682 22.681 129.403 23.0354 129.403H28.9588C29.3132 129.403 29.5917 129.682 29.5917 130.036V144.085C29.5917 144.44 29.3132 144.718 28.9588 144.718ZM23.6683 143.452H28.326V130.669H23.6683V143.452Z" fill="black"/>
<path d="M38.1729 125.075H32.2495V144.085H38.1729V125.075Z" fill="#FFDA7D"/>
<path d="M38.1729 144.718H32.2495C31.8951 144.718 31.6167 144.44 31.6167 144.085V125.075C31.6167 124.72 31.8951 124.442 32.2495 124.442H38.1729C38.5273 124.442 38.8058 124.72 38.8058 125.075V144.085C38.8058 144.44 38.5273 144.718 38.1729 144.718ZM32.8824 143.452H37.5401V125.708H32.8824V143.452Z" fill="black"/>
<path d="M29.6678 119.86L33.9965 109.38L23.5166 113.709C28.3515 118.544 24.8329 115.025 29.6678 119.835V119.86Z" fill="#FFBB00"/>
<path d="M29.6677 120.493C29.4905 120.493 29.3386 120.417 29.2121 120.316L23.0609 114.19C22.909 114.038 22.8583 113.836 22.8837 113.608C22.9343 113.405 23.0609 113.228 23.2634 113.152L33.7432 108.824C33.971 108.722 34.2495 108.773 34.4267 108.95C34.6039 109.127 34.6545 109.406 34.5532 109.634L30.2246 120.113C30.1487 120.316 29.9715 120.443 29.769 120.493C29.7183 120.493 29.693 120.493 29.6424 120.493H29.6677ZM24.6556 113.937L29.4652 118.747L32.8572 110.57L24.6809 113.962L24.6556 113.937Z" fill="black"/>
<path d="M3.87304 127.758C3.72115 127.758 3.54396 127.708 3.41739 127.581C3.16425 127.328 3.16425 126.923 3.41739 126.695L11.1887 118.924C11.4165 118.696 11.8468 118.696 12.0747 118.924L17.6943 124.543L25.744 116.494C25.9972 116.24 26.4022 116.24 26.63 116.494C26.8578 116.747 26.8831 117.152 26.63 117.38L18.1246 125.885C18.1246 125.885 17.8462 126.062 17.669 126.062C17.4918 126.062 17.3399 125.986 17.2133 125.885L11.5937 120.265L4.27806 127.581C4.27806 127.581 3.99961 127.758 3.82241 127.758H3.87304Z" fill="black"/>
<path d="M189.447 151.122C189.928 151.021 190.409 150.869 190.839 150.667C191.118 150.54 191.472 150.591 191.7 150.819C192.105 151.274 192.814 151.3 193.244 150.895L193.295 150.844C193.725 150.439 193.75 149.781 193.371 149.351C193.168 149.123 193.143 148.794 193.32 148.541C193.599 148.11 193.852 147.629 194.004 147.148C194.105 146.87 194.383 146.693 194.687 146.693C195.269 146.718 195.776 146.262 195.801 145.68V145.579C195.826 144.997 195.396 144.516 194.814 144.49C194.51 144.49 194.282 144.262 194.206 143.959C194.105 143.452 193.928 142.972 193.725 142.541C193.599 142.263 193.624 141.908 193.852 141.681C194.282 141.275 194.307 140.617 193.928 140.187L193.852 140.111C193.472 139.681 192.789 139.655 192.358 140.035C192.13 140.238 191.801 140.263 191.574 140.111C191.168 139.833 190.713 139.63 190.232 139.453C189.928 139.352 189.7 139.073 189.7 138.744C189.726 138.137 189.27 137.63 188.662 137.605H188.612C188.004 137.58 187.498 138.035 187.473 138.643C187.473 138.947 187.245 139.2 186.966 139.276C186.485 139.377 186.005 139.554 185.574 139.757C185.27 139.909 184.916 139.833 184.714 139.605C184.308 139.149 183.6 139.124 183.144 139.529C182.688 139.934 182.663 140.643 183.068 141.098C183.296 141.351 183.296 141.731 183.119 142.01C182.891 142.389 182.688 142.794 182.537 143.199C182.435 143.528 182.106 143.706 181.752 143.706C181.144 143.68 180.613 144.161 180.587 144.769C180.562 145.402 181.043 145.908 181.676 145.933C182.005 145.933 182.283 146.212 182.359 146.541C182.461 146.946 182.587 147.351 182.764 147.73C182.916 148.06 182.84 148.439 182.587 148.692C182.132 149.097 182.106 149.806 182.511 150.262C182.916 150.717 183.65 150.743 184.106 150.312C184.359 150.085 184.739 150.11 185.017 150.287C185.397 150.515 185.777 150.717 186.207 150.869C186.511 150.971 186.713 151.3 186.713 151.629C186.688 152.236 187.169 152.768 187.802 152.793C188.409 152.819 188.916 152.363 188.941 151.755C188.941 151.452 189.169 151.198 189.472 151.122H189.447ZM188.131 147.427C186.89 147.351 185.929 146.288 186.005 145.022C186.08 143.782 187.144 142.82 188.384 142.896C189.624 142.972 190.586 144.035 190.51 145.275C190.434 146.515 189.371 147.477 188.106 147.401L188.131 147.427Z" fill="#FFF5DE"/>
<path d="M187.827 153.426C187.827 153.426 187.777 153.426 187.751 153.426C187.27 153.426 186.84 153.198 186.536 152.869C186.207 152.515 186.055 152.084 186.081 151.603C185.524 151.3 185.093 151.072 184.663 150.819C184.182 151.097 183.777 151.274 183.271 151.249C182.79 151.249 182.359 151.021 182.056 150.692C181.752 150.338 181.575 149.907 181.6 149.426C181.6 148.971 181.828 148.54 182.182 148.211C182.233 148.161 182.258 148.059 182.208 147.983C182.005 147.553 181.853 147.123 181.752 146.667C181.195 146.541 180.765 146.338 180.436 145.984C180.106 145.629 179.955 145.199 179.955 144.718C180.005 143.756 180.765 142.997 181.777 143.047C181.853 143.047 181.904 143.022 181.929 142.971C182.081 142.516 182.309 142.06 182.562 141.655C181.954 140.794 181.98 139.681 182.714 139.022C183.423 138.364 184.536 138.415 185.195 139.149C185.802 138.921 186.308 138.744 186.84 138.617C186.891 138.111 187.093 137.706 187.422 137.377C187.751 137.073 188.207 136.921 188.662 136.921C189.169 136.921 189.599 137.149 189.903 137.478C190.207 137.807 190.384 138.263 190.359 138.719C190.966 138.972 191.472 139.2 191.928 139.503C192.282 139.2 192.713 139.022 193.168 139.048C193.624 139.048 194.029 139.25 194.333 139.605C194.712 140.01 194.864 140.465 194.839 140.921C194.839 141.377 194.611 141.782 194.282 142.085C194.535 142.693 194.712 143.224 194.839 143.756C195.295 143.807 195.7 143.984 196.003 144.313C196.307 144.642 196.459 145.072 196.434 145.528C196.434 146.11 196.206 146.515 195.877 146.819C195.548 147.123 195.117 147.275 194.662 147.249C194.434 147.806 194.181 148.338 193.852 148.819C194.156 149.173 194.307 149.604 194.282 150.059C194.282 150.515 194.054 150.92 193.725 151.224C193.346 151.578 192.865 151.755 192.434 151.73C191.979 151.73 191.548 151.502 191.244 151.173C190.637 151.401 190.105 151.578 189.574 151.679C189.548 152.16 189.346 152.591 188.992 152.92C188.663 153.223 188.257 153.375 187.827 153.375V153.426ZM184.562 149.502C184.84 149.502 185.119 149.578 185.346 149.73C185.675 149.958 186.03 150.135 186.41 150.262C186.992 150.464 187.346 151.021 187.321 151.629C187.321 151.755 187.372 151.882 187.447 151.983C187.549 152.084 187.65 152.135 187.802 152.135C187.928 152.135 188.055 152.084 188.131 152.008C188.232 151.932 188.283 151.806 188.283 151.679C188.308 151.072 188.738 150.565 189.321 150.464C189.751 150.388 190.181 150.236 190.586 150.059C191.143 149.806 191.776 149.907 192.181 150.363C192.257 150.464 192.384 150.515 192.51 150.515C192.637 150.515 192.763 150.489 192.839 150.388C192.966 150.262 193.016 150.16 193.042 150.034C193.042 149.933 193.016 149.806 192.941 149.73C192.535 149.3 192.485 148.642 192.839 148.135C193.092 147.756 193.295 147.325 193.447 146.895C193.624 146.363 194.231 146.009 194.738 146.009C194.864 146.009 194.966 145.984 195.042 145.882C195.117 145.806 195.168 145.705 195.193 145.579C195.193 145.351 195.168 145.25 195.092 145.174C195.016 145.098 194.915 145.047 194.814 145.047C194.231 145.022 193.751 144.591 193.624 144.009C193.523 143.579 193.396 143.149 193.194 142.744C192.915 142.187 193.042 141.554 193.472 141.149C193.548 141.073 193.599 140.972 193.624 140.845C193.624 140.718 193.599 140.617 193.523 140.541C193.371 140.364 193.27 140.339 193.168 140.313C193.067 140.313 192.941 140.339 192.865 140.415C192.434 140.82 191.801 140.87 191.295 140.541C190.915 140.288 190.51 140.111 190.08 139.959C189.473 139.757 189.093 139.225 189.118 138.617C189.118 138.491 189.093 138.39 188.992 138.288C188.916 138.187 188.789 138.136 188.662 138.136C188.46 138.136 188.384 138.162 188.283 138.263C188.182 138.339 188.131 138.466 188.131 138.567C188.106 139.149 187.675 139.655 187.118 139.782C186.688 139.883 186.258 140.035 185.878 140.212C185.346 140.491 184.663 140.364 184.258 139.908C184.081 139.706 183.777 139.706 183.574 139.883C183.372 140.06 183.372 140.364 183.549 140.567C183.954 140.997 184.005 141.68 183.65 142.237C183.448 142.566 183.271 142.946 183.144 143.326C182.942 143.908 182.385 144.288 181.727 144.262C181.448 144.262 181.246 144.465 181.22 144.718C181.22 144.845 181.271 144.971 181.347 145.072C181.448 145.174 181.575 145.224 181.701 145.224C182.309 145.25 182.815 145.705 182.967 146.313C183.043 146.692 183.169 147.047 183.321 147.376C183.6 147.958 183.473 148.642 182.992 149.072C182.891 149.173 182.84 149.274 182.84 149.401C182.84 149.528 182.891 149.654 182.967 149.755C183.043 149.857 183.169 149.907 183.296 149.907C183.423 149.907 183.549 149.857 183.65 149.781C183.904 149.553 184.207 149.452 184.536 149.452L184.562 149.502ZM188.283 148.059C188.283 148.059 188.156 148.059 188.106 148.059C186.511 147.958 185.296 146.591 185.397 144.996C185.448 144.212 185.777 143.528 186.359 142.997C186.941 142.49 187.65 142.237 188.46 142.288C189.219 142.339 189.928 142.668 190.46 143.25C190.991 143.832 191.219 144.566 191.194 145.351C191.143 146.11 190.814 146.819 190.232 147.351C189.7 147.832 189.017 148.085 188.308 148.085L188.283 148.059ZM188.182 146.794C189.093 146.844 189.852 146.161 189.903 145.275C189.928 144.845 189.776 144.414 189.498 144.085C189.219 143.756 188.814 143.554 188.384 143.528C187.954 143.503 187.523 143.655 187.194 143.933C186.865 144.212 186.663 144.617 186.637 145.047C186.587 145.933 187.27 146.718 188.156 146.768L188.182 146.794Z" fill="black"/>
<path d="M208.761 138.567C208.584 138.238 208.66 137.833 208.939 137.605C209.293 137.327 209.622 136.997 209.951 136.668C210.204 136.39 210.609 136.314 210.938 136.517L211.495 136.846C212.027 137.175 212.71 136.997 213.039 136.466C213.368 135.934 213.191 135.251 212.66 134.947L212.128 134.618C211.824 134.415 211.672 134.036 211.824 133.707C212.001 133.276 212.128 132.846 212.229 132.39C212.331 132.011 212.634 131.732 213.014 131.758H213.596C214.204 131.783 214.735 131.302 214.735 130.694C214.735 130.087 214.254 129.555 213.647 129.555H213.115C212.761 129.555 212.432 129.252 212.381 128.897C212.331 128.441 212.229 127.986 212.077 127.53C211.976 127.15 212.077 126.745 212.432 126.568L212.862 126.34C213.394 126.037 213.596 125.379 213.318 124.822C213.014 124.29 212.356 124.088 211.799 124.366L211.419 124.568C211.09 124.746 210.685 124.644 210.457 124.341C210.154 123.961 209.825 123.607 209.495 123.277C209.217 122.999 209.116 122.594 209.318 122.265L209.521 121.936C209.85 121.404 209.673 120.721 209.141 120.417C208.609 120.088 207.926 120.265 207.622 120.797L207.445 121.075C207.243 121.404 206.812 121.506 206.458 121.354C205.977 121.176 205.496 121.025 204.99 120.898C204.635 120.822 204.382 120.493 204.407 120.113V119.81C204.407 119.202 203.952 118.67 203.319 118.67C202.711 118.67 202.18 119.151 202.18 119.759V120.012C202.18 120.392 201.851 120.696 201.471 120.746C200.965 120.822 200.458 120.949 199.978 121.101C199.623 121.227 199.243 121.05 199.066 120.746L198.94 120.518C198.636 119.987 197.978 119.784 197.421 120.063C196.889 120.366 196.687 121.025 196.965 121.581L197.092 121.809C197.269 122.138 197.193 122.543 196.889 122.771C196.459 123.126 196.079 123.48 195.725 123.885C195.472 124.163 195.067 124.214 194.763 124.012L194.535 123.86C194.003 123.531 193.32 123.708 192.991 124.239C192.662 124.771 192.839 125.454 193.371 125.784L193.624 125.935C193.953 126.138 194.054 126.568 193.928 126.923C193.75 127.404 193.624 127.885 193.523 128.391C193.447 128.745 193.118 128.998 192.763 128.998H192.434C191.827 128.973 191.295 129.454 191.295 130.087C191.295 130.694 191.776 131.226 192.383 131.226H192.763C193.143 131.226 193.447 131.555 193.523 131.909C193.624 132.39 193.75 132.871 193.902 133.352C194.029 133.707 193.877 134.061 193.548 134.238L193.168 134.441C192.637 134.745 192.434 135.403 192.712 135.96C193.016 136.491 193.674 136.694 194.231 136.415L194.662 136.187C194.991 136.01 195.396 136.086 195.649 136.39C195.953 136.744 196.282 137.099 196.636 137.403C196.915 137.656 197.016 138.061 196.813 138.39L196.535 138.845C196.206 139.377 196.383 140.06 196.915 140.39C197.446 140.719 198.13 140.541 198.459 140.01L198.762 139.504C198.965 139.174 199.345 139.048 199.699 139.174C200.129 139.326 200.585 139.453 201.041 139.554C201.42 139.63 201.699 139.959 201.699 140.339V140.972C201.674 141.579 202.154 142.086 202.762 142.111C203.37 142.111 203.876 141.63 203.901 141.022V140.364C203.926 140.01 204.18 139.681 204.534 139.63C204.99 139.554 205.42 139.453 205.876 139.301C206.23 139.174 206.635 139.301 206.812 139.655L207.141 140.238C207.445 140.769 208.103 140.972 208.66 140.693C209.192 140.39 209.394 139.731 209.116 139.174L208.812 138.592L208.761 138.567ZM204.585 133.327C202.889 134.238 200.762 133.605 199.851 131.909C198.94 130.213 199.572 128.087 201.243 127.176C202.939 126.265 205.066 126.897 205.977 128.593C206.888 130.289 206.255 132.416 204.559 133.327H204.585Z" fill="#FFD56C"/>
<path d="M202.762 142.693H202.711C202.256 142.693 201.8 142.49 201.496 142.136C201.167 141.807 201.015 141.351 201.015 140.896V140.263C201.015 140.263 200.965 140.136 200.889 140.136C200.408 140.035 199.927 139.908 199.471 139.731C199.395 139.731 199.345 139.731 199.294 139.807L198.99 140.313C198.484 141.123 197.421 141.402 196.586 140.896C196.181 140.642 195.902 140.263 195.801 139.807C195.7 139.351 195.776 138.896 196.003 138.491L196.282 138.035C196.282 138.035 196.282 137.909 196.231 137.858C195.851 137.529 195.497 137.174 195.168 136.795C195.117 136.744 195.041 136.719 194.965 136.744L194.535 136.972C193.674 137.428 192.611 137.124 192.156 136.263C191.928 135.858 191.877 135.377 192.004 134.947C192.13 134.491 192.434 134.137 192.839 133.909L193.219 133.706C193.092 133.074 192.966 132.567 192.864 132.036C192.864 131.96 192.789 131.884 192.713 131.884H192.333C191.371 131.859 190.612 131.049 190.637 130.087C190.637 129.606 190.839 129.175 191.194 128.872C191.548 128.568 191.953 128.391 192.434 128.391H192.763C192.991 127.783 193.143 127.252 193.32 126.745C193.345 126.644 193.32 126.543 193.269 126.517L193.016 126.366C192.206 125.859 191.928 124.796 192.434 123.961C192.94 123.151 194.029 122.872 194.839 123.379L195.067 123.53C195.598 123.1 196.003 122.695 196.459 122.341C196.51 122.29 196.535 122.214 196.51 122.163L196.383 121.936C196.155 121.531 196.105 121.05 196.256 120.619C196.383 120.164 196.687 119.809 197.092 119.581C197.497 119.354 197.978 119.303 198.433 119.43C198.889 119.556 199.243 119.86 199.471 120.265L199.598 120.493C199.598 120.493 199.699 120.569 199.75 120.569C200.281 120.392 200.813 120.265 201.345 120.189C201.446 120.189 201.522 120.113 201.522 120.062V119.809C201.547 118.847 202.357 118.113 203.319 118.113C203.775 118.113 204.23 118.316 204.534 118.645C204.863 118.974 205.015 119.43 205.015 119.885V120.189C205.015 120.189 205.04 120.316 205.091 120.341C205.623 120.467 206.154 120.619 206.635 120.822C206.711 120.847 206.812 120.822 206.838 120.797L207.015 120.518C207.268 120.113 207.648 119.835 208.103 119.733C208.559 119.632 209.015 119.708 209.42 119.936C209.825 120.189 210.103 120.569 210.204 121.024C210.306 121.48 210.23 121.936 210.002 122.341L209.799 122.67C209.799 122.67 209.799 122.847 209.875 122.898C210.255 123.252 210.584 123.632 210.913 124.037C210.964 124.087 211.014 124.113 211.09 124.087L211.47 123.885C212.305 123.429 213.369 123.733 213.849 124.594C214.077 124.999 214.128 125.48 214.001 125.935C213.875 126.391 213.571 126.745 213.166 126.973L212.736 127.201C212.736 127.201 212.66 127.353 212.685 127.429C212.837 127.91 212.938 128.416 212.989 128.897L213.647 128.998C214.103 128.998 214.533 129.201 214.862 129.53C215.191 129.859 215.343 130.314 215.343 130.77C215.318 131.707 214.533 132.466 213.596 132.466H212.963C212.888 132.466 212.837 132.542 212.812 132.618C212.71 133.099 212.558 133.58 212.381 134.036C212.381 134.086 212.381 134.162 212.432 134.187L212.963 134.517C213.368 134.744 213.647 135.149 213.748 135.58C213.849 136.035 213.774 136.516 213.546 136.896C213.039 137.706 211.976 137.984 211.141 137.478L210.584 137.149C210.584 137.149 210.432 137.149 210.381 137.2C210.052 137.554 209.698 137.883 209.318 138.212C209.268 138.238 209.268 138.314 209.293 138.39L209.597 138.972C210.052 139.807 209.749 140.87 208.888 141.351C208.053 141.807 206.989 141.503 206.509 140.642L206.179 140.06C206.179 140.06 206.053 139.984 205.977 140.01C205.496 140.161 205.04 140.263 204.559 140.364C204.483 140.364 204.458 140.44 204.458 140.491V141.123C204.407 142.06 203.648 142.819 202.686 142.819L202.762 142.693ZM199.421 138.465C199.573 138.465 199.75 138.491 199.902 138.541C200.307 138.693 200.712 138.795 201.142 138.896C201.825 139.048 202.306 139.63 202.281 140.313V140.946C202.281 141.073 202.306 141.199 202.408 141.301C202.509 141.402 202.61 141.452 202.737 141.452C202.99 141.452 203.218 141.25 203.243 140.971V140.313C203.268 139.63 203.775 139.073 204.407 138.972C204.812 138.896 205.243 138.795 205.648 138.668C206.306 138.44 207.015 138.719 207.344 139.326L207.673 139.908C207.8 140.136 208.103 140.237 208.331 140.111C208.559 139.984 208.66 139.681 208.534 139.453L208.205 138.87C207.875 138.288 208.027 137.529 208.559 137.124C208.888 136.845 209.217 136.567 209.496 136.263C209.951 135.757 210.711 135.656 211.267 136.01L211.824 136.339C212.052 136.491 212.356 136.415 212.483 136.187C212.558 136.086 212.558 135.959 212.533 135.833C212.508 135.706 212.432 135.605 212.331 135.529L211.799 135.2C211.217 134.846 210.989 134.137 211.242 133.504C211.394 133.099 211.521 132.694 211.622 132.264C211.774 131.58 212.407 131.099 213.039 131.124H213.622C213.875 131.15 214.103 130.947 214.103 130.669C214.103 130.542 214.052 130.416 213.976 130.314C213.875 130.213 213.774 130.163 213.647 130.163H213.09C212.407 130.137 211.85 129.631 211.748 128.948C211.698 128.517 211.597 128.087 211.47 127.657C211.267 126.973 211.546 126.264 212.128 125.961L212.558 125.733C212.558 125.733 212.761 125.581 212.786 125.454C212.812 125.328 212.786 125.201 212.761 125.1C212.634 124.872 212.331 124.771 212.103 124.897L211.723 125.1C211.116 125.429 210.382 125.252 209.951 124.72C209.673 124.366 209.369 124.037 209.04 123.733C208.534 123.252 208.407 122.493 208.761 121.936L208.964 121.607C208.964 121.607 209.04 121.379 209.015 121.252C208.989 121.126 208.913 121.024 208.787 120.948C208.685 120.872 208.559 120.872 208.432 120.898C208.306 120.923 208.205 120.999 208.129 121.1L207.951 121.379C207.597 121.961 206.863 122.189 206.205 121.91C205.774 121.733 205.319 121.581 204.838 121.48C204.205 121.328 203.724 120.746 203.749 120.062V119.759C203.749 119.759 203.724 119.506 203.623 119.43C203.522 119.328 203.42 119.278 203.294 119.278C202.99 119.227 202.813 119.48 202.787 119.759V120.012C202.787 120.695 202.231 121.252 201.547 121.353C201.066 121.429 200.61 121.531 200.155 121.683C199.497 121.885 198.813 121.607 198.484 121.024L198.358 120.797C198.358 120.797 198.206 120.594 198.079 120.569C197.952 120.543 197.826 120.569 197.699 120.619C197.598 120.67 197.497 120.771 197.472 120.898C197.446 121.024 197.472 121.151 197.522 121.252L197.649 121.48C197.978 122.062 197.826 122.822 197.294 123.227C196.915 123.53 196.535 123.885 196.206 124.264C195.776 124.771 195.016 124.872 194.434 124.518L194.206 124.366C193.978 124.239 193.674 124.29 193.548 124.518C193.421 124.745 193.472 125.049 193.7 125.176L193.953 125.328C194.51 125.682 194.763 126.416 194.51 127.074C194.358 127.53 194.206 127.986 194.13 128.441C194.004 129.099 193.371 129.53 192.738 129.555H192.409C192.257 129.555 192.156 129.58 192.054 129.682C191.953 129.783 191.903 129.884 191.903 130.011C191.903 130.264 192.105 130.492 192.383 130.492H192.763C193.421 130.517 194.004 131.023 194.13 131.707C194.206 132.162 194.333 132.618 194.485 133.048C194.712 133.681 194.434 134.39 193.826 134.719L193.447 134.922C193.447 134.922 193.244 135.073 193.219 135.2C193.194 135.327 193.219 135.453 193.269 135.554C193.396 135.782 193.7 135.883 193.928 135.757L194.358 135.529C194.94 135.2 195.7 135.352 196.13 135.858C196.408 136.187 196.737 136.516 197.041 136.795C197.573 137.25 197.699 138.01 197.345 138.592L197.067 139.048C197.067 139.048 196.965 139.275 197.016 139.402C197.041 139.529 197.117 139.63 197.244 139.706C197.472 139.858 197.775 139.782 197.902 139.554L198.206 139.048C198.459 138.617 198.94 138.364 199.421 138.364V138.465ZM202.914 134.365C201.446 134.365 200.028 133.58 199.269 132.213C198.737 131.251 198.636 130.137 198.94 129.074C199.243 128.011 199.952 127.15 200.939 126.619C202.939 125.53 205.445 126.29 206.534 128.289C207.622 130.289 206.863 132.795 204.863 133.884C204.23 134.213 203.572 134.39 202.914 134.39V134.365ZM202.889 127.378C202.433 127.378 201.952 127.479 201.522 127.732C200.838 128.087 200.357 128.694 200.155 129.428C199.927 130.163 200.028 130.922 200.383 131.605C201.142 132.998 202.863 133.504 204.256 132.745C205.648 131.985 206.154 130.264 205.42 128.872C204.914 127.91 203.927 127.378 202.889 127.378Z" fill="black"/>
<path d="M109.659 11.5683C109.659 17.6183 104.773 22.5038 98.7231 22.5038C92.6731 22.5038 87.7876 17.6183 87.7876 11.5683C87.7876 5.51835 92.6984 0.632812 98.7231 0.632812C104.748 0.632812 109.659 5.51835 109.659 11.5683Z" fill="#FFECC2"/>
<path d="M98.7231 23.1367C92.3441 23.1367 87.1548 17.9474 87.1548 11.5683C87.1548 5.1893 92.3441 0 98.7231 0C105.102 0 110.291 5.1893 110.291 11.5683C110.291 17.9474 105.102 23.1367 98.7231 23.1367ZM98.7231 1.26568C93.0529 1.26568 88.4205 5.89808 88.4205 11.5683C88.4205 17.2386 93.0529 21.871 98.7231 21.871C104.393 21.871 109.026 17.2386 109.026 11.5683C109.026 5.89808 104.393 1.26568 98.7231 1.26568Z" fill="black"/>
<path d="M98.723 22.5038C102.428 22.5038 105.431 17.6078 105.431 11.5683C105.431 5.5288 102.428 0.632812 98.723 0.632812C95.0182 0.632812 92.0149 5.5288 92.0149 11.5683C92.0149 17.6078 95.0182 22.5038 98.723 22.5038Z" fill="#FFECC2"/>
<path d="M98.723 23.1367C94.6729 23.1367 91.3821 17.9474 91.3821 11.5683C91.3821 5.1893 94.6729 0 98.723 0C102.773 0 106.064 5.1893 106.064 11.5683C106.064 17.9474 102.773 23.1367 98.723 23.1367ZM98.723 1.26568C95.3816 1.26568 92.6478 5.89808 92.6478 11.5683C92.6478 17.2386 95.3816 21.871 98.723 21.871C102.064 21.871 104.798 17.2386 104.798 11.5683C104.798 5.89808 102.064 1.26568 98.723 1.26568Z" fill="black"/>
<path d="M98.9256 22.8077C98.5712 22.8077 98.2927 22.5293 98.2927 22.1749V0.835478C98.2927 0.481087 98.5712 0.202637 98.9256 0.202637C99.28 0.202637 99.5584 0.481087 99.5584 0.835478V22.1749C99.5584 22.5293 99.28 22.8077 98.9256 22.8077Z" fill="#010200"/>
<path d="M108.393 8.35357H88.7241C88.3698 8.35357 88.0913 8.07512 88.0913 7.72073C88.0913 7.36634 88.3698 7.08789 88.7241 7.08789H108.393C108.747 7.08789 109.026 7.36634 109.026 7.72073C109.026 8.07512 108.747 8.35357 108.393 8.35357Z" fill="#010200"/>
<path d="M108.191 16.8843H89.18C88.8256 16.8843 88.5471 16.6059 88.5471 16.2515C88.5471 15.8971 88.8256 15.6187 89.18 15.6187H108.191C108.545 15.6187 108.823 15.8971 108.823 16.2515C108.823 16.6059 108.545 16.8843 108.191 16.8843Z" fill="#010200"/>
<path d="M53.9687 23.1366C53.9687 25.2123 52.298 26.883 50.2222 26.883C48.1465 26.883 46.4758 25.2123 46.4758 23.1366C46.4758 21.0608 48.1465 19.3901 50.2222 19.3901C52.298 19.3901 53.9687 21.0608 53.9687 23.1366Z" fill="#FFBB00"/>
<path d="M50.2223 27.5158C47.8175 27.5158 45.843 25.5414 45.843 23.1366C45.843 20.7318 47.8175 18.7573 50.2223 18.7573C52.6271 18.7573 54.6015 20.7318 54.6015 23.1366C54.6015 25.5414 52.6271 27.5158 50.2223 27.5158ZM50.2223 20.023C48.5009 20.023 47.1087 21.4153 47.1087 23.1366C47.1087 24.8579 48.5009 26.2502 50.2223 26.2502C51.9436 26.2502 53.3359 24.8579 53.3359 23.1366C53.3359 21.4153 51.9436 20.023 50.2223 20.023Z" fill="black"/>
<path d="M32.0723 41.1852C32.0723 42.1978 31.2623 43.0078 30.2497 43.0078H28.8575C27.8449 43.0078 27.0349 42.1978 27.0349 41.1852V29.9966H32.047V41.1852H32.0723Z" fill="#FFBB00"/>
<path d="M30.2498 43.6407H28.8575C27.5159 43.6407 26.4021 42.5522 26.4021 41.1852V29.9966C26.4021 29.6422 26.6805 29.3638 27.0349 29.3638H32.047C32.4014 29.3638 32.6799 29.6422 32.6799 29.9966V41.1852C32.6799 42.5269 31.5914 43.6407 30.2245 43.6407H30.2498ZM27.6931 30.6295V41.1852C27.6931 41.8434 28.2247 42.375 28.8828 42.375H30.2751C30.9332 42.375 31.4648 41.8434 31.4648 41.1852V30.6295H27.7184H27.6931Z" fill="black"/>
<path d="M17.7195 27.3134C17.7195 29.5157 19.3902 31.3636 21.5925 31.5661L25.2376 31.8952C25.6427 31.9458 26.0224 31.6168 26.0224 31.1864V15.6438C26.0224 15.2135 25.668 14.9098 25.2376 14.9351L21.5925 15.2641C19.3902 15.4667 17.7195 17.3145 17.7195 19.5168V27.2881V27.3134Z" fill="#FFBB00"/>
<path d="M25.2883 32.5279C25.2883 32.5279 25.2123 32.5279 25.1617 32.5279L21.5419 32.1988C19.0105 31.971 17.0867 29.87 17.0867 27.3133V19.542C17.0867 16.9853 19.0105 14.8843 21.5419 14.6565L25.187 14.3274C25.5667 14.3021 25.9464 14.4287 26.2249 14.6818C26.5033 14.9349 26.6552 15.2893 26.6552 15.669V31.2116C26.6552 31.5913 26.5033 31.9457 26.2249 32.1988C25.9718 32.4267 25.6427 32.5532 25.3136 32.5532L25.2883 32.5279ZM25.3642 15.6437L21.6431 15.8968C19.7699 16.074 18.3524 17.6435 18.3524 19.5167V27.288C18.3524 29.1865 19.7699 30.7306 21.6431 30.9078L25.2883 31.2369L25.3642 15.6184V15.6437Z" fill="black"/>
<path d="M26.0225 31.0093L31.8699 31.0599C33.8697 31.0599 35.8442 31.5662 37.6161 32.4521L44.9571 36.1986V10.4546L37.4895 14.2263C35.7176 15.1123 33.7431 15.5933 31.7433 15.6186L26.0225 15.6692V31.0346V31.0093Z" fill="white"/>
<path d="M44.9571 36.8313C44.9571 36.8313 44.7546 36.8313 44.6786 36.7554L37.3377 33.0089C35.667 32.1483 33.7685 31.6926 31.8699 31.6673L26.0225 31.6167C25.6681 31.6167 25.3896 31.3382 25.3896 30.9839V15.6185C25.3896 15.2641 25.6681 14.9856 26.0225 14.9856L31.7434 14.935C33.6419 14.935 35.5404 14.454 37.2111 13.6187L44.6786 9.84697C44.8812 9.74571 45.109 9.74571 45.2862 9.87228C45.4634 9.99885 45.5899 10.2014 45.5899 10.4039V36.1478C45.5899 36.3757 45.4634 36.5782 45.2862 36.6794C45.1849 36.7301 45.0837 36.7807 44.9571 36.7807V36.8313ZM26.6553 30.3763L31.8699 30.427C33.971 30.427 36.0467 30.9585 37.8946 31.8951L44.3243 35.1606V11.4924L37.768 14.7831C35.8948 15.7197 33.8191 16.226 31.7434 16.2513L26.6553 16.3019V30.427V30.3763Z" fill="black"/>
<path d="M50.2221 34.4772C50.2221 36.0466 48.9564 37.3376 47.3617 37.3376H45.9441C45.3619 37.3376 44.9062 36.882 44.9062 36.2998V10.3533C44.9062 9.77108 45.3619 9.31543 45.9441 9.31543H47.3617C48.9311 9.31543 50.2221 10.6064 50.2221 12.1759V34.5025V34.4772Z" fill="#FFDA7D"/>
<path d="M47.3871 37.9705H45.9695C45.0582 37.9705 44.2988 37.2111 44.2988 36.2998V10.3533C44.2988 9.44203 45.0582 8.68262 45.9695 8.68262H47.3871C49.3109 8.68262 50.8804 10.2521 50.8804 12.1759V34.5025C50.8804 36.4264 49.3109 37.9958 47.3871 37.9958V37.9705ZM45.9695 9.9483C45.7417 9.9483 45.5645 10.1255 45.5645 10.3533V36.2998C45.5645 36.5276 45.7417 36.7048 45.9695 36.7048H47.3871C48.6021 36.7048 49.6147 35.7176 49.6147 34.4772V12.1759C49.6147 10.9608 48.6275 9.9483 47.3871 9.9483H45.9695Z" fill="black"/>
<path d="M7.69531 70.701C7.69531 69.4859 7.94845 68.524 8.45472 67.8405C8.96099 67.1571 9.5179 66.7014 10.1507 66.4736C10.7836 66.2458 11.3658 66.1445 11.8974 66.1445C12.9606 66.1445 13.9225 66.4989 14.8084 67.2077C15.6691 67.9165 16.0994 69.0809 16.0994 70.701C16.0994 71.3845 15.9729 72.0679 15.7197 72.7514C15.4666 73.4349 15.011 74.0424 14.3781 74.5233C13.7453 75.0296 12.9099 75.2574 11.8721 75.2574C11.3911 75.2574 10.9101 75.1815 10.4292 75.0296C9.94823 74.8777 9.49258 74.6246 9.08756 74.2702C8.65723 73.9158 8.32815 73.4349 8.07502 72.8273C7.82188 72.2198 7.69531 71.511 7.69531 70.6504V70.701ZM10.1001 70.701C10.1001 71.6629 10.2773 72.3717 10.657 72.802C11.0367 73.2324 11.4417 73.4602 11.8974 73.4602C12.353 73.4602 12.758 73.2324 13.1124 72.802C13.4921 72.3717 13.6693 71.6629 13.6693 70.701C13.6693 69.9922 13.5681 69.4353 13.3656 69.0303C13.1631 68.6253 12.9352 68.3468 12.6568 68.1696C12.3783 68.0177 12.1252 67.9418 11.8721 67.9418C11.6189 67.9418 11.3658 68.0177 11.0873 68.1696C10.8089 68.3215 10.5811 68.6253 10.3786 69.0303C10.176 69.4353 10.0748 69.9922 10.0748 70.701H10.1001ZM11.1127 82.4465L21.3394 66.423H25.0098L14.7831 82.4465H11.1127ZM20.3268 78.1685C20.3268 76.5484 20.7572 75.384 21.6431 74.6752C22.5291 73.9664 23.491 73.5867 24.5542 73.5867C25.6174 73.5867 26.5793 73.9411 27.44 74.6752C28.3259 75.384 28.7563 76.5738 28.7563 78.1685C28.7563 79.3076 28.5284 80.1936 28.0981 80.8771C27.6425 81.5605 27.1109 82.0415 26.478 82.32C25.8452 82.5984 25.187 82.7503 24.5542 82.7503C23.9214 82.7503 23.2885 82.5984 22.6304 82.32C21.9722 82.0415 21.4406 81.5605 20.985 80.8771C20.5293 80.1936 20.3268 79.2823 20.3268 78.1685ZM22.7569 78.1685C22.7569 79.0798 22.9341 79.7886 23.2885 80.2442C23.6429 80.6999 24.0732 80.9277 24.5542 80.9277C24.8073 80.9277 25.0605 80.8518 25.3389 80.6999C25.6174 80.548 25.8452 80.2695 26.0477 79.8392C26.2502 79.4342 26.3515 78.8773 26.3515 78.1685C26.3515 77.1813 26.1743 76.4978 25.7946 76.0422C25.4149 75.6118 25.0098 75.384 24.5795 75.384C24.0732 75.384 23.6429 75.6118 23.3138 76.1181C22.9594 76.5991 22.7822 77.2825 22.7822 78.1685H22.7569Z" fill="#FFF0CA"/>
<path d="M24.5288 83.383C23.7947 83.383 23.086 83.2311 22.3519 82.9021C21.5925 82.573 20.9596 82.0161 20.4533 81.2314C19.9471 80.4466 19.6939 79.4088 19.6939 78.1684C19.6939 76.3711 20.2002 75.0295 21.2381 74.1942C23.2125 72.5741 25.8705 72.5741 27.8449 74.1942C28.8575 75.0295 29.3891 76.3711 29.3891 78.1684C29.3891 79.4088 29.1359 80.4466 28.6297 81.2314C28.1234 82.0161 27.4905 82.573 26.7311 82.9274C26.0223 83.2311 25.2882 83.4083 24.5542 83.4083L24.5288 83.383ZM24.5288 74.2195C23.6175 74.2195 22.7822 74.5232 22.0228 75.1561C21.314 75.7383 20.9343 76.7508 20.9343 78.1684C20.9343 79.1556 21.1115 79.9657 21.4912 80.5479C21.8709 81.1301 22.3266 81.5351 22.8581 81.7629C23.9719 82.2439 25.0857 82.2439 26.1742 81.7629C26.7058 81.5351 27.1615 81.1301 27.5158 80.5479C27.8956 79.9657 28.0727 79.181 28.0727 78.1684C28.0727 76.7762 27.7184 75.7636 26.9843 75.1561C26.2249 74.5232 25.4148 74.2195 24.5035 74.2195H24.5288ZM14.7578 83.0793H11.0873C10.8595 83.0793 10.6316 82.9527 10.5304 82.7502C10.4291 82.5477 10.4291 82.2945 10.5304 82.1173L15.4919 74.3207C15.264 74.5739 15.0109 74.827 14.7325 75.0548C13.6693 75.8902 11.948 76.2193 10.2266 75.6877C9.66973 75.5105 9.13814 75.2067 8.65718 74.827C8.15091 74.3967 7.74589 73.8398 7.46744 73.1563C7.16368 72.4728 7.03711 71.6881 7.03711 70.7262C7.03711 69.3339 7.31556 68.2708 7.92309 67.486C8.5053 66.7013 9.16346 66.1697 9.92287 65.8913C11.9733 65.1572 13.6946 65.5116 15.1881 66.7266C16.2006 67.562 16.7322 68.9036 16.7322 70.7262C16.7322 71.4603 16.5804 72.2197 16.3272 73.0044C16.2766 73.131 16.226 73.2322 16.1753 73.3335L20.7824 66.0938C20.909 65.9166 21.1115 65.79 21.314 65.79H24.9845C25.2123 65.79 25.4401 65.9166 25.5414 66.1191C25.6426 66.3216 25.6426 66.5748 25.5414 66.752L15.3147 82.7755C15.1881 82.9527 14.9856 83.0793 14.7831 83.0793H14.7578ZM12.2517 81.8136H14.4034L23.8201 67.0557H21.6431L12.2264 81.8136H12.2517ZM11.872 66.752C11.3911 66.752 10.9101 66.8532 10.3532 67.0557C9.84692 67.2329 9.36596 67.6126 8.93563 68.1948C8.5053 68.7517 8.30279 69.6124 8.30279 70.7009C8.30279 71.4603 8.40405 72.0931 8.63187 72.6247C8.85969 73.131 9.13814 73.536 9.49253 73.8398C9.84692 74.1435 10.2266 74.346 10.6063 74.4726C11.0367 74.5992 11.4417 74.6751 11.8467 74.6751C12.758 74.6751 13.4415 74.4726 13.973 74.0676C14.5046 73.6373 14.8843 73.1563 15.1122 72.5741C15.34 71.9413 15.4412 71.3337 15.4412 70.7262C15.4412 69.3086 15.0868 68.2961 14.3781 67.7139C13.6187 67.081 12.7833 66.7773 11.872 66.7773V66.752ZM24.5288 81.5604C23.8454 81.5604 23.2632 81.2567 22.7822 80.6238C22.3266 80.0416 22.124 79.2063 22.124 78.1684C22.124 77.1305 22.3266 76.3458 22.7569 75.7383C23.3391 74.9283 24.0479 74.7511 24.5288 74.7511C25.1617 74.7511 25.7186 75.0548 26.2249 75.6117C26.7058 76.1686 26.9336 77.004 26.9336 78.1431C26.9336 78.9531 26.8071 79.6113 26.5792 80.0922C26.3261 80.6238 25.997 81.0035 25.6173 81.206C25.2376 81.4086 24.8832 81.5351 24.5288 81.5351V81.5604ZM24.5288 76.0167C24.3516 76.0167 24.0732 76.0674 23.7694 76.4724C23.491 76.8521 23.3644 77.409 23.3644 78.1431C23.3644 78.8772 23.491 79.4847 23.7694 79.8391C24.0732 80.2441 24.3516 80.2948 24.5288 80.2948C24.6554 80.2948 24.8073 80.2441 24.9845 80.1429C25.1364 80.0416 25.2882 79.8644 25.4401 79.5607C25.592 79.2316 25.668 78.7759 25.668 78.1431C25.668 77.3331 25.5161 76.7508 25.2629 76.4218C24.9339 76.0421 24.6807 75.9914 24.5288 75.9914V76.0167ZM11.872 74.0929C11.2392 74.0929 10.657 73.7891 10.176 73.2069C9.69504 72.65 9.46722 71.8147 9.46722 70.6756C9.46722 69.8908 9.59379 69.2327 9.82161 68.7264C10.0747 68.1948 10.4038 67.8151 10.7835 67.5873C11.5176 67.157 12.2517 67.157 12.9858 67.5873C13.3655 67.8151 13.6946 68.1695 13.9477 68.7011C14.2009 69.2074 14.3021 69.8402 14.3021 70.6503C14.3021 71.7894 14.0743 72.5994 13.5933 73.1563C13.0871 73.7385 12.5302 74.0423 11.872 74.0423V74.0929ZM11.872 68.5492C11.7201 68.5492 11.5936 68.5998 11.4164 68.7011C11.2645 68.8024 11.0873 69.0049 10.9607 69.2833C10.8088 69.5871 10.7329 70.0934 10.7329 70.6756C10.7329 71.4603 10.8848 72.0678 11.1379 72.3716C11.5176 72.8019 11.7961 72.8019 11.872 72.8019C11.948 72.8019 12.2517 72.8019 12.6061 72.3716C12.8592 72.0678 13.0111 71.4603 13.0111 70.6756C13.0111 70.068 12.9352 69.5871 12.7833 69.2833C12.6314 68.9796 12.4795 68.8024 12.3277 68.7011C12.1505 68.5998 11.9986 68.5492 11.872 68.5492Z" fill="black"/>
<path d="M154.894 29.5917C154.894 27.6172 153.401 25.9971 151.477 25.7946C151.249 22.0735 148.135 19.1118 144.338 19.1118C141.124 19.1118 138.415 21.2382 137.504 24.1492C135.149 24.3771 133.327 26.3515 133.327 28.7563C133.327 31.313 135.403 33.3887 137.959 33.3887C137.959 33.3887 137.959 33.3887 137.985 33.3887H151.097C153.198 33.3887 154.894 31.6674 154.894 29.5917Z" fill="white"/>
<path d="M151.097 34.0215H137.985C135.048 34.0215 132.694 31.6673 132.694 28.7563C132.694 26.1743 134.542 23.9973 137.048 23.567C138.162 20.504 141.048 18.4536 144.338 18.4536C148.262 18.4536 151.553 21.39 152.059 25.2124C154.084 25.6427 155.527 27.44 155.527 29.541C155.527 31.9711 153.553 33.9709 151.097 33.9962V34.0215ZM144.338 19.7446C141.453 19.7446 138.947 21.5925 138.111 24.3517C138.035 24.6048 137.833 24.782 137.554 24.8073C135.504 25.0098 133.934 26.7059 133.934 28.7816C133.934 30.9839 135.732 32.7811 137.934 32.7811H151.072C152.818 32.7811 154.236 31.3383 154.236 29.5916C154.236 27.9462 152.996 26.6046 151.376 26.4274C151.072 26.4021 150.819 26.149 150.819 25.8452C150.591 22.4279 147.756 19.7446 144.313 19.7446H144.338Z" fill="black"/>
<path d="M224.076 89.7622L229.671 93.9136C230.38 94.2427 231.19 93.7111 231.19 92.9264V81.7631C231.19 80.9783 230.38 80.4721 229.671 80.7758L224.076 84.9273V89.7622Z" fill="#FFDA7D"/>
<path d="M230.101 94.6224C229.873 94.6224 229.62 94.5717 229.392 94.4705L223.697 90.2684C223.545 90.1418 223.444 89.9646 223.444 89.7621V84.9272C223.444 84.7247 223.545 84.5475 223.697 84.4209L229.291 80.2695C229.949 79.9657 230.557 80.0164 231.038 80.3201C231.519 80.6239 231.822 81.1808 231.822 81.763V92.9263C231.822 93.5085 231.519 94.0401 231.038 94.3692C230.759 94.5464 230.43 94.6477 230.126 94.6477L230.101 94.6224ZM224.709 89.4331L230.025 93.382C230.025 93.382 230.278 93.3314 230.329 93.2807C230.38 93.2301 230.531 93.1288 230.531 92.901V81.7377C230.531 81.5352 230.38 81.4086 230.329 81.358C230.278 81.3074 230.101 81.2314 229.899 81.3327L224.684 85.2057V89.4077L224.709 89.4331Z" fill="black"/>
<path d="M212.711 74.3967C212.711 77.814 209.926 80.5985 206.509 80.5985C203.091 80.5985 200.307 77.814 200.307 74.3967C200.307 70.9793 203.091 68.1948 206.509 68.1948C209.926 68.1948 212.711 70.9793 212.711 74.3967Z" fill="#FFDA7D"/>
<path d="M206.509 81.2314C202.737 81.2314 199.674 78.1684 199.674 74.3967C199.674 70.625 202.737 67.562 206.509 67.562C210.281 67.562 213.343 70.625 213.343 74.3967C213.343 78.1684 210.281 81.2314 206.509 81.2314ZM206.509 68.8277C203.446 68.8277 200.94 71.3337 200.94 74.3967C200.94 77.4596 203.446 79.9657 206.509 79.9657C209.572 79.9657 212.078 77.4596 212.078 74.3967C212.078 71.3337 209.572 68.8277 206.509 68.8277Z" fill="black"/>
<path d="M209.065 74.3966C209.065 75.8142 207.926 76.928 206.534 76.928C205.142 76.928 204.003 75.7888 204.003 74.3966C204.003 73.0043 205.142 71.8652 206.534 71.8652C207.926 71.8652 209.065 73.0043 209.065 74.3966Z" fill="white"/>
<path d="M206.509 77.5608C204.762 77.5608 203.344 76.1433 203.344 74.3966C203.344 72.65 204.762 71.2324 206.509 71.2324C208.255 71.2324 209.673 72.65 209.673 74.3966C209.673 76.1433 208.255 77.5608 206.509 77.5608ZM206.509 72.4728C205.446 72.4728 204.61 73.3335 204.61 74.3713C204.61 75.4092 205.471 76.2698 206.509 76.2698C207.547 76.2698 208.407 75.4092 208.407 74.3713C208.407 73.3335 207.547 72.4728 206.509 72.4728Z" fill="black"/>
<path d="M225.722 74.3967C225.722 77.814 222.937 80.5985 219.52 80.5985C216.103 80.5985 213.318 77.814 213.318 74.3967C213.318 70.9793 216.103 68.1948 219.52 68.1948C222.937 68.1948 225.722 70.9793 225.722 74.3967Z" fill="#FFDA7D"/>
<path d="M219.52 81.2314C215.748 81.2314 212.685 78.1684 212.685 74.3967C212.685 70.625 215.748 67.562 219.52 67.562C223.292 67.562 226.355 70.625 226.355 74.3967C226.355 78.1684 223.292 81.2314 219.52 81.2314ZM219.52 68.8277C216.457 68.8277 213.951 71.3337 213.951 74.3967C213.951 77.4596 216.457 79.9657 219.52 79.9657C222.583 79.9657 225.089 77.4596 225.089 74.3967C225.089 71.3337 222.583 68.8277 219.52 68.8277Z" fill="black"/>
<path d="M203.37 80.4971H222.406C223.418 80.4971 224.254 81.3324 224.254 82.345V92.6729C224.254 93.6855 223.418 94.5208 222.406 94.5208H203.37C202.357 94.5208 201.522 93.6855 201.522 92.6729V82.345C201.522 81.3324 202.357 80.4971 203.37 80.4971Z" fill="#FFDA7D"/>
<path d="M222.431 95.1791H203.395C202.028 95.1791 200.915 94.0653 200.915 92.6984V82.3704C200.915 81.0035 202.028 79.8896 203.395 79.8896H222.431C223.798 79.8896 224.912 81.0035 224.912 82.3704V92.6984C224.912 94.0653 223.798 95.1791 222.431 95.1791ZM203.395 81.13C202.712 81.13 202.18 81.6869 202.18 82.3451V92.673C202.18 93.3565 202.737 93.8881 203.395 93.8881H222.431C223.115 93.8881 223.646 93.3312 223.646 92.673V82.3451C223.646 81.6616 223.089 81.13 222.431 81.13H203.395Z" fill="black"/>
<path d="M222.051 74.3966C222.051 75.8142 220.912 76.928 219.52 76.928C218.128 76.928 216.989 75.7888 216.989 74.3966C216.989 73.0043 218.128 71.8652 219.52 71.8652C220.912 71.8652 222.051 73.0043 222.051 74.3966Z" fill="white"/>
<path d="M219.52 77.5608C217.773 77.5608 216.331 76.1433 216.331 74.3966C216.331 72.65 217.748 71.2324 219.52 71.2324C221.292 71.2324 222.684 72.65 222.684 74.3966C222.684 76.1433 221.267 77.5608 219.52 77.5608ZM219.52 72.4728C218.457 72.4728 217.596 73.3335 217.596 74.3713C217.596 75.4092 218.457 76.2698 219.52 76.2698C220.583 76.2698 221.419 75.4092 221.419 74.3713C221.419 73.3335 220.558 72.4728 219.52 72.4728Z" fill="black"/>
</g>
<defs>
<clipPath id="clip0_694_125">
<rect width="231.797" height="153.426" fill="white"/>
</clipPath>
</defs>
</svg>
