<svg width="246" height="140" viewBox="0 0 246 140" fill="none" xmlns="http://www.w3.org/2000/svg">
<path d="M91.7774 30.1581C91.7774 29.2421 91.0375 28.5022 90.1215 28.5022C90.0246 28.5022 89.9278 28.511 89.8309 28.5286C89.9189 28.3261 89.9718 28.0971 89.9718 27.8504C89.9718 26.9344 89.2319 26.1946 88.3159 26.1946C87.6113 26.1946 87.0036 26.635 86.7658 27.2603C86.5279 26.635 85.9202 26.1946 85.2156 26.1946C84.2996 26.1946 83.5597 26.9344 83.5597 27.8504C83.5597 28.0795 83.6038 28.2996 83.6918 28.5022C83.683 28.5022 83.6654 28.5022 83.6566 28.5022C82.7406 28.5022 82.0007 29.2421 82.0007 30.1581C82.0007 31.0741 82.7406 31.814 83.6566 31.814H90.2184C91.0904 31.7611 91.7774 31.0389 91.7774 30.1581Z" fill="#EBFFF4" stroke="black" stroke-width="0.5" stroke-linecap="round" stroke-linejoin="round"/>
<path d="M112.449 19.5886C112.449 18.241 111.357 17.1488 110.01 17.1488C109.869 17.1488 109.728 17.1576 109.587 17.1841C109.719 16.8846 109.798 16.5499 109.798 16.1888C109.798 14.8412 108.706 13.749 107.358 13.749C106.319 13.749 105.43 14.4008 105.077 15.3256C104.725 14.4096 103.835 13.749 102.796 13.749C101.448 13.749 100.356 14.8412 100.356 16.1888C100.356 16.5323 100.427 16.8494 100.55 17.1488C100.532 17.1488 100.515 17.1488 100.497 17.1488C99.1495 17.1488 98.0574 18.241 98.0574 19.5886C98.0574 20.9362 99.1495 22.0284 100.497 22.0284H110.15C111.428 21.9491 112.449 20.8833 112.449 19.5886Z" fill="#EBFFF4" stroke="black" stroke-width="0.5" stroke-linecap="round" stroke-linejoin="round"/>
<path d="M126.524 32.4833C126.524 31.8315 125.996 31.303 125.344 31.303C125.273 31.303 125.203 31.303 125.141 31.3207C125.203 31.1709 125.247 31.0124 125.247 30.845C125.247 30.1933 124.718 29.6648 124.067 29.6648C123.565 29.6648 123.133 29.9819 122.966 30.4223C122.798 29.9819 122.367 29.6648 121.865 29.6648C121.213 29.6648 120.684 30.1933 120.684 30.845C120.684 31.0124 120.72 31.1621 120.781 31.303C120.773 31.303 120.764 31.303 120.755 31.303C120.103 31.303 119.575 31.8315 119.575 32.4833C119.575 33.1351 120.103 33.6635 120.755 33.6635H125.414C126.031 33.6283 126.524 33.1175 126.524 32.4833Z" fill="#EBFFF4" stroke="black" stroke-width="0.5" stroke-linecap="round" stroke-linejoin="round"/>
<path d="M205.231 14.1455C205.231 21.1036 199.585 26.7494 192.627 26.7494C185.669 26.7494 180.023 21.1036 180.023 14.1455C180.023 7.1873 185.669 1.5415 192.627 1.5415C199.585 1.5415 205.231 7.1873 205.231 14.1455Z" fill="white" stroke="black" stroke-width="0.5" stroke-linecap="round" stroke-linejoin="round"/>
<path d="M200.245 6.55322L191.068 15.731" stroke="black" stroke-width="0.5" stroke-linecap="round" stroke-linejoin="round"/>
<path d="M193.551 15.0527L187.157 8.6582" stroke="black" stroke-width="0.5" stroke-linecap="round" stroke-linejoin="round"/>
<path d="M193.64 14.1455C193.64 14.7092 193.182 15.1672 192.618 15.1672C192.054 15.1672 191.596 14.7092 191.596 14.1455C191.596 13.5818 192.054 13.1238 192.618 13.1238C193.182 13.1238 193.64 13.5818 193.64 14.1455Z" fill="#38A770" stroke="black" stroke-width="0.5" stroke-linecap="round" stroke-linejoin="round"/>
<path d="M192.618 5.20552V2.8186" stroke="black" stroke-width="0.5" stroke-linecap="round" stroke-linejoin="round"/>
<path d="M192.618 25.4724V23.0854" stroke="black" stroke-width="0.5" stroke-linecap="round" stroke-linejoin="round"/>
<path d="M183.687 14.1455H181.3" stroke="black" stroke-width="0.5" stroke-linecap="round" stroke-linejoin="round"/>
<path d="M203.945 14.1455H201.558" stroke="black" stroke-width="0.5" stroke-linecap="round" stroke-linejoin="round"/>
<path d="M4.94994 100.885L3.24123 101.448L2.08741 101.827C1.89364 101.889 1.78794 102.109 1.8496 102.303L2.36926 103.879C2.43091 104.073 2.6423 104.179 2.84488 104.117L3.9987 103.738L5.70742 103.175C5.90119 103.113 6.00688 102.902 5.94523 102.699L5.42557 101.123C5.36391 100.929 5.15252 100.814 4.94994 100.885Z" fill="#30C46F" stroke="black" stroke-width="0.39" stroke-linecap="round" stroke-linejoin="round"/>
<path d="M22.7153 96.2958L8.54354 100.982L1.69987 103.245C0.537245 103.633 -0.0969165 104.883 0.290627 106.046L3.37336 115.391C3.56713 115.972 3.97229 116.422 4.48314 116.677C4.99399 116.932 5.59292 116.994 6.17424 116.8L13.0179 114.537L27.1896 109.851C28.3523 109.463 28.9864 108.213 28.5989 107.05L25.5162 97.705C25.1286 96.5424 23.8779 95.9082 22.7153 96.2958Z" fill="#8EDDB3" stroke="black" stroke-width="0.39" stroke-linecap="round" stroke-linejoin="round"/>
<path d="M18.9192 99.1055L16.9374 99.7573L15.5898 100.206C15.3608 100.286 15.2375 100.532 15.3168 100.761L15.9245 102.602C16.0038 102.831 16.2504 102.954 16.4706 102.884L17.8182 102.435L19.7999 101.783C20.0289 101.704 20.1523 101.457 20.0818 101.228L19.4741 99.3873C19.3948 99.1583 19.1482 99.035 18.9192 99.1055Z" stroke="#231815" stroke-width="0.39" stroke-miterlimit="10"/>
<path d="M13.9075 107.112C14.665 109.41 13.4143 111.894 11.1154 112.661C8.8166 113.427 6.3328 112.167 5.56652 109.868C4.80905 107.561 6.05095 105.086 8.35859 104.32C10.6662 103.553 13.1412 104.813 13.9075 107.112Z" fill="#D9FFE8" stroke="#231815" stroke-width="0.39" stroke-miterlimit="10"/>
<path d="M8.57868 105.051C6.70262 105.676 5.68972 107.693 6.30627 109.569C6.36792 109.745 6.56169 109.851 6.73785 109.789C6.91401 109.728 7.01089 109.534 6.95805 109.358C6.46481 107.843 7.27513 106.213 8.79007 105.703C8.96622 105.641 9.07192 105.447 9.01026 105.271C8.94861 105.095 8.75484 104.998 8.57868 105.051Z" fill="#8EDDB3" stroke="#231815" stroke-width="0.39" stroke-linecap="round" stroke-linejoin="round"/>
<path d="M20.1611 83.3042L26.3178 85.2683" stroke="black" stroke-width="0.45" stroke-linecap="round" stroke-linejoin="round"/>
<path d="M22.2573 87.3647L24.2215 81.208" stroke="black" stroke-width="0.45" stroke-linecap="round" stroke-linejoin="round"/>
<path d="M26.3706 90.1127L30.4838 88.5273" stroke="black" stroke-width="0.45" stroke-linecap="round" stroke-linejoin="round"/>
<path d="M29.2243 91.3811L27.6301 87.259" stroke="black" stroke-width="0.45" stroke-linecap="round" stroke-linejoin="round"/>
<path d="M16.9814 90.7379L20.0818 89.54" stroke="black" stroke-width="0.45" stroke-linecap="round" stroke-linejoin="round"/>
<path d="M19.1305 91.6892L17.9326 88.5889" stroke="black" stroke-width="0.45" stroke-linecap="round" stroke-linejoin="round"/>
<path d="M136.01 131.113H65.8296" stroke="black" stroke-width="0.5" stroke-linecap="round" stroke-linejoin="round"/>
<path d="M87.7433 135.931H56.7046" stroke="black" stroke-width="0.5" stroke-linecap="round" stroke-linejoin="round"/>
<path d="M134.706 126.295H103.668" stroke="black" stroke-width="0.5" stroke-linecap="round" stroke-linejoin="round"/>
<path d="M234.376 92.7109H228.325V117.294H234.376V92.7109Z" fill="#EFEFEF" stroke="#444444" stroke-width="0.5" stroke-miterlimit="10"/>
<path d="M228.166 113.374V82.8198L233.68 86.5984V113.374H228.166Z" fill="#C5EAD4" stroke="black" stroke-width="0.5" stroke-miterlimit="10"/>
<mask id="mask0_644_3927" style="mask-type:luminance" maskUnits="userSpaceOnUse" x="228" y="84" width="6" height="36">
<path d="M228.166 117.452V84.7839L233.68 88.5537V115.329L230.923 119.619L228.166 117.452Z" fill="white"/>
</mask>
<g mask="url(#mask0_644_3927)">
<g style="mix-blend-mode:multiply">
<path d="M233.733 89.7692L233.909 89.5226L228.114 85.5591L227.946 85.8145L233.733 89.7692Z" fill="#1CA55D"/>
</g>
<g style="mix-blend-mode:multiply">
<path d="M233.733 92.7111L233.909 92.4557L228.113 88.501L227.946 88.7476L233.733 92.7111Z" fill="#1CA55D"/>
</g>
<g style="mix-blend-mode:multiply">
<path d="M233.733 96.8066L233.909 96.5599L228.113 92.5964L227.946 92.8519L233.733 96.8066Z" fill="#1CA55D"/>
</g>
<g style="mix-blend-mode:multiply">
<path d="M233.733 100.911L233.909 100.656L228.113 96.6921L227.946 96.9476L233.733 100.911Z" fill="#1CA55D"/>
</g>
<g style="mix-blend-mode:multiply">
<path d="M233.733 105.007L233.909 104.76L228.113 100.797L227.946 101.043L233.733 105.007Z" fill="#1CA55D"/>
</g>
<g style="mix-blend-mode:multiply">
<path d="M228.116 104.892L227.943 105.146L233.742 109.102L233.915 108.847L228.116 104.892Z" fill="#1CA55D"/>
</g>
<g style="mix-blend-mode:multiply">
<path d="M233.733 113.207L233.909 112.951L228.113 108.997L227.946 109.243L233.733 113.207Z" fill="#1CA55D"/>
</g>
</g>
<g style="mix-blend-mode:multiply">
<path d="M228.325 116.959C228.36 117.073 228.404 117.179 228.439 117.294H230.65C230.271 116.607 230.06 115.814 230.06 114.968V94.9922C230.06 94.6399 230.35 94.3492 230.703 94.3492H233.292C233.645 94.3492 233.935 94.6399 233.935 94.9922V117.285H234.376V92.7021H228.325V116.95V116.959Z" fill="#A2A4AD"/>
</g>
<path d="M235.221 121.142H234.208C230.395 121.142 227.294 118.042 227.294 114.228V92.2177C227.294 92.0503 227.365 91.883 227.479 91.7685C227.602 91.6451 227.761 91.5835 227.928 91.5835H234.578C234.931 91.5835 235.221 91.8741 235.221 92.2265V121.151V121.142ZM229.963 93.6093C229.796 93.6093 229.628 93.6797 229.514 93.7942C229.39 93.9176 229.329 94.0761 229.329 94.2434V114.22C229.329 116.562 230.993 118.527 233.195 119.002V94.2523C233.195 93.8999 232.905 93.6093 232.552 93.6093H229.963Z" fill="#2A9B5F" stroke="black" stroke-width="0.5" stroke-miterlimit="10"/>
<path d="M227.708 115.717C227.567 115.717 227.444 115.779 227.356 115.893C227.277 116.008 227.25 116.149 227.285 116.281C228.166 119.258 230.932 121.433 234.191 121.433H235.063C235.3 121.433 235.494 121.24 235.494 121.002V116.157C235.494 115.92 235.3 115.726 235.063 115.726H227.708V115.717Z" fill="#117F40" stroke="black" stroke-width="0.5" stroke-miterlimit="10"/>
<path d="M235.679 103.43H226.827V106.152H235.679V103.43Z" fill="#2A9B5F" stroke="black" stroke-width="0.5" stroke-miterlimit="10"/>
<path d="M25.1375 31.0916H6.04215C4.60715 31.0916 3.44385 32.2549 3.44385 33.6899V52.7852C3.44385 54.2202 4.60715 55.3835 6.04215 55.3835H25.1375C26.5725 55.3835 27.7358 54.2202 27.7358 52.7852V33.6899C27.7358 32.2549 26.5725 31.0916 25.1375 31.0916Z" fill="white" stroke="black" stroke-width="0.45" stroke-linecap="round" stroke-linejoin="round"/>
<path d="M6.04215 31.0916H25.1375C26.5731 31.0916 27.7358 32.2542 27.7358 33.6899V38.1554H3.44385V33.6899C3.44385 32.2542 4.60648 31.0916 6.04215 31.0916Z" fill="#4BE293" stroke="black" stroke-width="0.45" stroke-linecap="round" stroke-linejoin="round"/>
<path d="M6.14795 43.9861V40.7537" stroke="black" stroke-width="0.45" stroke-linecap="round" stroke-linejoin="round"/>
<path d="M6.14795 46.8229V46.012" stroke="black" stroke-width="0.45" stroke-linecap="round" stroke-linejoin="round"/>
<path d="M11.0713 28.8896H10.217C9.92023 28.8896 9.67969 29.1302 9.67969 29.4269V33.1526C9.67969 33.4494 9.92023 33.6899 10.217 33.6899H11.0713C11.368 33.6899 11.6086 33.4494 11.6086 33.1526V29.4269C11.6086 29.1302 11.368 28.8896 11.0713 28.8896Z" fill="#1CA55D" stroke="black" stroke-width="0.45" stroke-linecap="round" stroke-linejoin="round"/>
<path d="M20.9624 28.8896H20.1081C19.8113 28.8896 19.5708 29.1302 19.5708 29.4269V33.1526C19.5708 33.4494 19.8113 33.6899 20.1081 33.6899H20.9624C21.2592 33.6899 21.4997 33.4494 21.4997 33.1526V29.4269C21.4997 29.1302 21.2592 28.8896 20.9624 28.8896Z" fill="#1CA55D" stroke="black" stroke-width="0.45" stroke-linecap="round" stroke-linejoin="round"/>
<path d="M9.54763 48.1434H10.9657C11.0097 48.619 11.1947 48.989 11.5118 49.2444C11.8288 49.4998 12.2428 49.6319 12.7449 49.6319C13.3086 49.6319 13.7578 49.4646 14.0925 49.1387C14.436 48.8128 14.6033 48.3636 14.6033 47.7911C14.6033 47.4036 14.5152 47.0689 14.3303 46.787C14.1453 46.5052 13.9075 46.3026 13.6168 46.1793C13.3262 46.056 13.0091 45.9767 12.6568 45.9327C12.3045 45.8886 11.9698 45.9238 11.6351 46.0207V45.7477L13.8106 42.5064H9.92636V41.2117H16.039V41.4583L13.5992 44.9374C14.3655 44.9726 14.9732 45.2721 15.4312 45.827C15.8892 46.3818 16.1182 47.0336 16.1182 47.7823C16.1182 48.7071 15.8188 49.4822 15.211 50.0987C14.6121 50.7153 13.793 51.0236 12.7625 51.0236C11.8641 51.0236 11.1154 50.7681 10.5165 50.2485C9.91755 49.7376 9.59167 49.033 9.53882 48.1346L9.54763 48.1434Z" fill="#1CA55D" stroke="black" stroke-width="0.45" stroke-linecap="round" stroke-linejoin="round"/>
<path d="M19.2716 42.4712H17.7302V41.2029H20.8217V49.6143H22.6185V50.8562H17.5188V49.6143H19.2804V42.4712H19.2716Z" fill="#1CA55D" stroke="black" stroke-width="0.45" stroke-linecap="round" stroke-linejoin="round"/>
<path d="M65.6976 12.5776C65.6976 16.8053 62.2714 20.2315 58.0436 20.2315C53.8159 20.2315 50.3896 16.8053 50.3896 12.5776C50.3896 8.34982 53.8159 4.92358 58.0436 4.92358C62.2714 4.92358 65.6976 8.34982 65.6976 12.5776Z" fill="#B6F2D0" stroke="black" stroke-width="0.5" stroke-linecap="round" stroke-linejoin="round"/>
<path d="M57.8323 22.5391V24.926" stroke="black" stroke-width="0.5" stroke-linecap="round" stroke-linejoin="round"/>
<path d="M57.8323 0.220215V2.60713" stroke="black" stroke-width="0.5" stroke-linecap="round" stroke-linejoin="round"/>
<path d="M64.8787 5.53143L66.5698 3.84033" stroke="black" stroke-width="0.5" stroke-linecap="round" stroke-linejoin="round"/>
<path d="M49.095 21.3151L50.7861 19.624" stroke="black" stroke-width="0.5" stroke-linecap="round" stroke-linejoin="round"/>
<path d="M47.8618 12.5776H45.4749" stroke="black" stroke-width="0.5" stroke-linecap="round" stroke-linejoin="round"/>
<path d="M70.1806 12.5776H67.7937" stroke="black" stroke-width="0.5" stroke-linecap="round" stroke-linejoin="round"/>
<path d="M64.8787 19.624L66.5609 21.3151" stroke="black" stroke-width="0.5" stroke-linecap="round" stroke-linejoin="round"/>
<path d="M49.095 3.84033L50.7861 5.53143" stroke="black" stroke-width="0.5" stroke-linecap="round" stroke-linejoin="round"/>
<path d="M223.392 73.2017H215.897V121.847H223.392V73.2017Z" fill="#9CFFC4" stroke="black" stroke-width="0.5" stroke-miterlimit="10"/>
<path d="M220.495 75.5798C220.495 76.073 220.098 76.4694 219.605 76.4694C219.112 76.4694 218.716 76.073 218.716 75.5798C218.716 75.0865 219.112 74.6902 219.605 74.6902C220.098 74.6902 220.495 75.0865 220.495 75.5798Z" fill="white" stroke="black" stroke-width="0.5" stroke-miterlimit="10"/>
<path d="M215.897 120.332H219.64" stroke="black" stroke-width="0.5" stroke-linecap="round" stroke-linejoin="round"/>
<path d="M215.897 119.302H217.773" stroke="black" stroke-width="0.5" stroke-linecap="round" stroke-linejoin="round"/>
<path d="M215.897 118.174H217.773" stroke="black" stroke-width="0.5" stroke-linecap="round" stroke-linejoin="round"/>
<path d="M215.897 117.056H217.773" stroke="black" stroke-width="0.5" stroke-linecap="round" stroke-linejoin="round"/>
<path d="M215.897 115.928H217.773" stroke="black" stroke-width="0.5" stroke-linecap="round" stroke-linejoin="round"/>
<path d="M215.897 114.713H219.64" stroke="black" stroke-width="0.5" stroke-linecap="round" stroke-linejoin="round"/>
<path d="M215.897 113.682H217.773" stroke="black" stroke-width="0.5" stroke-linecap="round" stroke-linejoin="round"/>
<path d="M215.897 112.555H217.773" stroke="black" stroke-width="0.5" stroke-linecap="round" stroke-linejoin="round"/>
<path d="M215.897 111.427H217.773" stroke="black" stroke-width="0.5" stroke-linecap="round" stroke-linejoin="round"/>
<path d="M215.897 110.309H217.773" stroke="black" stroke-width="0.5" stroke-linecap="round" stroke-linejoin="round"/>
<path d="M215.897 109.084H219.64" stroke="black" stroke-width="0.5" stroke-linecap="round" stroke-linejoin="round"/>
<path d="M215.897 108.054H217.773" stroke="black" stroke-width="0.5" stroke-linecap="round" stroke-linejoin="round"/>
<path d="M215.897 106.936H217.773" stroke="black" stroke-width="0.5" stroke-linecap="round" stroke-linejoin="round"/>
<path d="M215.897 105.808H217.773" stroke="black" stroke-width="0.5" stroke-linecap="round" stroke-linejoin="round"/>
<path d="M215.897 104.681H217.773" stroke="black" stroke-width="0.5" stroke-linecap="round" stroke-linejoin="round"/>
<path d="M215.897 103.465H219.64" stroke="black" stroke-width="0.5" stroke-linecap="round" stroke-linejoin="round"/>
<path d="M215.897 102.435H217.773" stroke="black" stroke-width="0.5" stroke-linecap="round" stroke-linejoin="round"/>
<path d="M215.897 101.307H217.773" stroke="black" stroke-width="0.5" stroke-linecap="round" stroke-linejoin="round"/>
<path d="M215.897 100.189H217.773" stroke="black" stroke-width="0.5" stroke-linecap="round" stroke-linejoin="round"/>
<path d="M215.897 99.0613H217.773" stroke="black" stroke-width="0.5" stroke-linecap="round" stroke-linejoin="round"/>
<path d="M215.897 97.8457H219.64" stroke="black" stroke-width="0.5" stroke-linecap="round" stroke-linejoin="round"/>
<path d="M215.897 96.8152H217.773" stroke="black" stroke-width="0.5" stroke-linecap="round" stroke-linejoin="round"/>
<path d="M215.897 95.688H217.773" stroke="black" stroke-width="0.5" stroke-linecap="round" stroke-linejoin="round"/>
<path d="M215.897 94.5605H217.773" stroke="black" stroke-width="0.5" stroke-linecap="round" stroke-linejoin="round"/>
<path d="M215.897 93.4419H217.773" stroke="black" stroke-width="0.5" stroke-linecap="round" stroke-linejoin="round"/>
<path d="M215.897 92.2263H219.64" stroke="black" stroke-width="0.5" stroke-linecap="round" stroke-linejoin="round"/>
<path d="M215.897 91.187H217.773" stroke="black" stroke-width="0.5" stroke-linecap="round" stroke-linejoin="round"/>
<path d="M215.897 90.0686H217.773" stroke="black" stroke-width="0.5" stroke-linecap="round" stroke-linejoin="round"/>
<path d="M215.897 88.9412H217.773" stroke="black" stroke-width="0.5" stroke-linecap="round" stroke-linejoin="round"/>
<path d="M215.897 87.8137H217.773" stroke="black" stroke-width="0.5" stroke-linecap="round" stroke-linejoin="round"/>
<path d="M215.897 86.5981H219.64" stroke="black" stroke-width="0.5" stroke-linecap="round" stroke-linejoin="round"/>
<path d="M215.897 85.5676H217.773" stroke="black" stroke-width="0.5" stroke-linecap="round" stroke-linejoin="round"/>
<path d="M215.897 84.4404H217.773" stroke="black" stroke-width="0.5" stroke-linecap="round" stroke-linejoin="round"/>
<path d="M215.897 83.3218H217.773" stroke="black" stroke-width="0.5" stroke-linecap="round" stroke-linejoin="round"/>
<path d="M215.897 82.1943H217.773" stroke="black" stroke-width="0.5" stroke-linecap="round" stroke-linejoin="round"/>
<path d="M215.897 80.9788H219.64" stroke="black" stroke-width="0.5" stroke-linecap="round" stroke-linejoin="round"/>
<path d="M215.897 79.9482H217.773" stroke="black" stroke-width="0.5" stroke-linecap="round" stroke-linejoin="round"/>
<path d="M215.897 78.821H217.773" stroke="black" stroke-width="0.5" stroke-linecap="round" stroke-linejoin="round"/>
<path d="M215.897 77.6936H217.773" stroke="black" stroke-width="0.5" stroke-linecap="round" stroke-linejoin="round"/>
<path d="M215.897 76.575H217.773" stroke="black" stroke-width="0.5" stroke-linecap="round" stroke-linejoin="round"/>
<path d="M144.254 19.7737L147.452 33.9103L165.842 29.753L162.645 15.6165L144.254 19.7737ZM148.139 33.7429L152.287 26.0097L158.109 30.9244L161.8 27.5422L165.032 29.8939L148.147 33.7429H148.139Z" fill="#2A9B5F" stroke="black" stroke-width="0.25" stroke-linecap="round" stroke-linejoin="round"/>
<path d="M163.428 14.6045L143.445 19.1189L147.005 34.8753L166.988 30.3609L163.428 14.6045Z" stroke="black" stroke-width="0.25" stroke-miterlimit="10"/>
<path d="M160.188 21.2447C160.469 22.4866 159.686 23.7285 158.444 24.0015C157.202 24.2746 155.96 23.4995 155.678 22.2576C155.396 21.0157 156.18 19.7826 157.422 19.5008C158.664 19.2189 159.897 20.0028 160.179 21.2447H160.188Z" fill="white" stroke="black" stroke-width="0.25" stroke-linecap="round" stroke-linejoin="round"/>
<path d="M158.109 30.9243L152.287 26.0095L148.139 33.7428L165.023 29.8938L161.8 27.5421L158.109 30.9243Z" fill="white" stroke="black" stroke-width="0.25" stroke-linecap="round" stroke-linejoin="round"/>
<path d="M175.716 138.01H161.306V138.485H175.716V138.01Z" fill="#231F20"/>
<path d="M175.725 139.524H166.239V140H175.725V139.524Z" fill="#231F20"/>
<path d="M176.368 123.802C170.202 123.802 164.944 126.824 162.856 131.087C164.944 135.35 170.202 138.371 176.368 138.371C182.533 138.371 187.791 135.35 189.879 131.087C187.791 126.832 182.533 123.802 176.368 123.802Z" fill="white"/>
<path d="M169.524 131.078C169.524 127.299 172.589 124.234 176.368 124.234C180.146 124.234 183.211 127.299 183.211 131.078C183.211 134.856 180.146 137.921 176.368 137.921C172.589 137.921 169.524 134.856 169.524 131.078Z" fill="white" stroke="black" stroke-width="0.5"/>
<path d="M176.368 123.802C170.202 123.802 164.944 126.824 162.856 131.087C164.944 135.35 170.202 138.371 176.368 138.371C182.533 138.371 187.791 135.35 189.879 131.087C187.791 126.832 182.533 123.802 176.368 123.802Z" stroke="black" stroke-width="0.5" stroke-miterlimit="10"/>
<path d="M183.044 125.088C181.177 124.507 179.327 124.058 177.169 124.155C171.012 124.437 165.701 127.907 163.808 132.258" stroke="black" stroke-width="0.5" stroke-miterlimit="10"/>
<path d="M178.297 127.81L176.368 131.078V127.281C174.271 127.281 172.572 128.981 172.572 131.078C172.572 133.174 174.271 134.874 176.368 134.874C178.464 134.874 180.164 133.174 180.164 131.078C180.164 129.686 179.415 128.471 178.297 127.81Z" fill="#1CA55D" stroke="black" stroke-width="0.5" stroke-linecap="round" stroke-linejoin="round"/>
<path d="M178.79 135.261C176.482 136.6 173.523 135.808 172.184 133.491C170.845 131.183 171.638 128.224 173.954 126.885" stroke="black" stroke-width="0.5" stroke-miterlimit="10"/>
<path d="M180.138 134.108C179.953 134.346 179.741 134.557 179.512 134.751" stroke="black" stroke-width="0.5" stroke-miterlimit="10"/>
<path d="M233.116 25.208L244.76 30.0259C245.447 30.3077 245.773 31.1004 245.491 31.7875L236.683 53.0671C236.401 53.7541 235.609 54.08 234.922 53.7982L219.79 47.5358C219.103 47.254 218.768 46.4613 219.059 45.7742L226.413 27.9825L233.116 25.1992V25.208Z" fill="#CEF2DE" stroke="black" stroke-width="0.5" stroke-linecap="round" stroke-linejoin="round"/>
<path d="M233.116 25.208L231.601 28.8633C231.355 29.4622 230.667 29.7529 230.069 29.4974L226.413 27.9825L233.116 25.1992V25.208Z" fill="white" stroke="black" stroke-width="0.5" stroke-linecap="round" stroke-linejoin="round"/>
<path d="M227.673 31.6025L240.594 36.9489" stroke="black" stroke-width="0.5" stroke-linecap="round" stroke-linejoin="round"/>
<path d="M226.959 33.3289L239.881 38.6664" stroke="black" stroke-width="0.5" stroke-linecap="round" stroke-linejoin="round"/>
<path d="M226.246 35.0464L239.167 40.3927" stroke="black" stroke-width="0.5" stroke-linecap="round" stroke-linejoin="round"/>
<path d="M223.956 41.1589L232.138 44.5411" stroke="black" stroke-width="0.5" stroke-linecap="round" stroke-linejoin="round"/>
<path d="M223.243 42.8765L231.425 46.2675" stroke="black" stroke-width="0.5" stroke-linecap="round" stroke-linejoin="round"/>
<path d="M222.529 44.6028L230.712 47.985" stroke="black" stroke-width="0.5" stroke-linecap="round" stroke-linejoin="round"/>
<path d="M197.55 40.613H48.8833V115.162H197.55V40.613Z" fill="#4BE293" stroke="black" stroke-width="0.5" stroke-linecap="round" stroke-linejoin="round"/>
<path d="M197.55 115.585H48.8834C48.7336 115.585 48.6191 115.4 48.6191 115.162V40.613C48.6191 40.384 48.7424 40.1902 48.8834 40.1902H197.55C197.7 40.1902 197.814 40.3751 197.814 40.613V115.162C197.814 115.391 197.691 115.585 197.55 115.585ZM49.1476 114.739H197.277V41.0357H49.1476V114.739Z" fill="black"/>
<path d="M48.8833 41.0356C48.8833 41.0356 48.8305 41.0356 48.804 41.018L36.7638 35.064C36.6228 34.9935 36.5436 34.7557 36.5876 34.5355C36.6317 34.3153 36.7726 34.1832 36.9223 34.2624L48.9626 40.2165C49.1035 40.287 49.1828 40.5248 49.1387 40.745C49.1035 40.9211 48.9978 41.0444 48.8833 41.0444V41.0356Z" fill="#272425"/>
<path d="M36.843 120.72C36.7285 120.72 36.6228 120.605 36.5876 120.42C36.5436 120.2 36.6228 119.962 36.7638 119.892L48.804 113.938C48.9538 113.867 49.0947 113.991 49.1387 114.211C49.1828 114.431 49.1035 114.669 48.9626 114.739L36.9223 120.693C36.9223 120.693 36.8695 120.711 36.843 120.711V120.72Z" fill="#272425"/>
<path d="M38.0056 23.9045H37.9176C37.3241 23.9045 36.843 24.3856 36.843 24.9791V130.796C36.843 131.389 37.3241 131.871 37.9176 131.871H38.0056C38.5991 131.871 39.0802 131.389 39.0802 130.796V24.9791C39.0802 24.3856 38.5991 23.9045 38.0056 23.9045Z" fill="#2A9B5F" stroke="black" stroke-width="0.5" stroke-linecap="round" stroke-linejoin="round"/>
<path d="M38.2171 132.293H37.6975C37.0721 132.293 36.5701 131.501 36.5701 130.523V25.2521C36.5701 24.2744 37.0721 23.4817 37.6975 23.4817H38.2171C38.8425 23.4817 39.3445 24.2744 39.3445 25.2521V130.514C39.3445 131.492 38.8425 132.284 38.2171 132.284V132.293ZM37.6975 24.3272C37.3716 24.3272 37.1073 24.7412 37.1073 25.2609V130.523C37.1073 131.034 37.3716 131.457 37.6975 131.457H38.2171C38.543 131.457 38.8073 131.043 38.8073 130.523V25.2521C38.8073 24.7412 38.543 24.3184 38.2171 24.3184H37.6975V24.3272Z" fill="black"/>
<path d="M196.942 41.0357C196.828 41.0357 196.722 40.9212 196.687 40.7363C196.643 40.5161 196.722 40.2783 196.863 40.2078L208.903 34.2537C209.053 34.1833 209.194 34.3066 209.238 34.5268C209.282 34.747 209.203 34.9848 209.062 35.0552L197.022 41.0093C197.022 41.0093 196.969 41.0269 196.942 41.0269V41.0357Z" fill="#272425"/>
<path d="M208.991 120.72C208.991 120.72 208.939 120.72 208.912 120.702L196.872 114.748C196.731 114.678 196.652 114.44 196.696 114.22C196.74 113.999 196.89 113.867 197.03 113.947L209.071 119.901C209.212 119.971 209.291 120.209 209.247 120.429C209.212 120.605 209.106 120.729 208.991 120.729V120.72Z" fill="#272425"/>
<path d="M207.794 128.25H207.952C208.526 128.25 208.992 127.785 208.992 127.211V28.5638C208.992 27.9898 208.526 27.5245 207.952 27.5245H207.794C207.22 27.5245 206.755 27.9898 206.755 28.5638V127.211C206.755 127.785 207.22 128.25 207.794 128.25Z" fill="#2A9B5F" stroke="black" stroke-width="0.5" stroke-linecap="round" stroke-linejoin="round"/>
<path d="M208.129 128.647H207.609C206.984 128.647 206.481 127.907 206.481 126.991V28.784C206.481 27.868 206.984 27.1282 207.609 27.1282H208.129C208.754 27.1282 209.256 27.868 209.256 28.784V126.991C209.256 127.907 208.754 128.647 208.129 128.647ZM207.609 27.9209C207.283 27.9209 207.019 28.3084 207.019 28.7928V127C207.019 127.475 207.283 127.872 207.609 127.872H208.129C208.454 127.872 208.719 127.484 208.719 127V28.784C208.719 28.3084 208.454 27.9121 208.129 27.9121H207.609V27.9209Z" fill="black"/>
<path d="M188.223 53.437H57.603V67.1331H188.223V53.437Z" fill="#1CA55D" stroke="black" stroke-width="0.5" stroke-linecap="round" stroke-linejoin="round"/>
<path d="M181.811 74.8401H64.0151V83.4013H181.811V74.8401Z" fill="#A4FFCF" stroke="black" stroke-width="0.5" stroke-linecap="round" stroke-linejoin="round"/>
<path d="M71.0086 97.9517H61.6812V103.941H71.0086V97.9517Z" fill="#9CFFC4" stroke="black" stroke-width="0.5" stroke-linecap="round" stroke-linejoin="round"/>
<path d="M96.6746 97.9517H74.5142V103.941H96.6746V97.9517Z" fill="white" stroke="black" stroke-width="0.5" stroke-linecap="round" stroke-linejoin="round"/>
<path d="M111.833 97.9517H102.505V103.941H111.833V97.9517Z" fill="#9CFFC4" stroke="black" stroke-width="0.5" stroke-linecap="round" stroke-linejoin="round"/>
<path d="M137.49 97.9517H115.329V103.941H137.49V97.9517Z" fill="white" stroke="black" stroke-width="0.5" stroke-linecap="round" stroke-linejoin="round"/>
<path d="M152.648 97.9517H143.321V103.941H152.648V97.9517Z" fill="#9CFFC4" stroke="black" stroke-width="0.5" stroke-linecap="round" stroke-linejoin="round"/>
<path d="M178.314 97.9517H156.154V103.941H178.314V97.9517Z" fill="white" stroke="black" stroke-width="0.5" stroke-linecap="round" stroke-linejoin="round"/>
</svg>
