<svg width="187" height="127" viewBox="0 0 187 127" fill="none" xmlns="http://www.w3.org/2000/svg">
<g clip-path="url(#clip0_540_458)">
<path d="M181.518 0.38916H4.94458C2.58999 0.38916 0.681211 2.29018 0.681211 4.6352V122.316C0.681211 124.661 2.58999 126.562 4.94458 126.562H181.518C183.873 126.562 185.781 124.661 185.781 122.316V4.6352C185.781 2.29018 183.873 0.38916 181.518 0.38916Z" fill="white"/>
<path d="M181.518 126.939H4.94458C2.38049 126.939 0.301907 124.854 0.301907 122.315V4.63503C0.301907 2.09647 2.39566 0.0112305 4.94458 0.0112305H181.503C184.067 0.0112305 186.146 2.09647 186.146 4.63503V122.3C186.146 124.854 184.052 126.924 181.503 126.924L181.518 126.939ZM4.94458 0.766754C2.80531 0.766754 1.06051 2.50446 1.06051 4.63503V122.3C1.06051 124.431 2.80531 126.169 4.94458 126.169H181.503C183.642 126.169 185.387 124.431 185.387 122.3V4.63503C185.387 2.50446 183.642 0.766754 181.503 0.766754H4.94458Z" fill="#272425"/>
<path d="M181.518 0.38916H4.94458C2.58999 0.38916 0.681211 2.29018 0.681211 4.6352V15.7867C0.681211 18.1317 2.58999 20.0328 4.94458 20.0328H181.518C183.873 20.0328 185.781 18.1317 185.781 15.7867V4.6352C185.781 2.29018 183.873 0.38916 181.518 0.38916Z" fill="#42D186"/>
<path d="M181.518 20.4104H4.94458C2.38049 20.4104 0.301907 18.3251 0.301907 15.7866V4.63503C0.301907 2.09647 2.39566 0.0112305 4.94458 0.0112305H181.503C184.067 0.0112305 186.146 2.09647 186.146 4.63503V15.7714C186.146 18.3251 184.052 20.3953 181.503 20.3953L181.518 20.4104ZM4.94458 0.766754C2.80531 0.766754 1.06051 2.50446 1.06051 4.63503V15.7714C1.06051 17.902 2.80531 19.6397 4.94458 19.6397H181.503C183.642 19.6397 185.387 17.902 185.387 15.7714V4.63503C185.387 2.50446 183.642 0.766754 181.503 0.766754H4.94458Z" fill="#272425"/>
<path d="M174.691 5.67773H174.114C171.759 5.67773 169.851 7.57875 169.851 9.92378V10.498C169.851 12.843 171.759 14.744 174.114 14.744H174.691C177.045 14.744 178.954 12.843 178.954 10.498V9.92378C178.954 7.57875 177.045 5.67773 174.691 5.67773Z" fill="white"/>
<path d="M174.691 15.1216H174.129C171.565 15.1216 169.486 13.0364 169.486 10.4978V9.93874C169.486 7.38508 171.58 5.31494 174.129 5.31494H174.691C177.255 5.31494 179.333 7.40019 179.333 9.93874V10.4978C179.333 13.0515 177.239 15.1216 174.691 15.1216ZM174.129 6.05535C171.99 6.05535 170.245 7.79306 170.245 9.92363V10.4827C170.245 12.6133 171.99 14.351 174.129 14.351H174.691C176.83 14.351 178.575 12.6133 178.575 10.4827V9.92363C178.575 7.79306 176.83 6.05535 174.691 6.05535H174.129Z" fill="#272425"/>
<path d="M161.794 5.67773H161.218C158.863 5.67773 156.954 7.57875 156.954 9.92378V10.498C156.954 12.843 158.863 14.744 161.218 14.744H161.794C164.149 14.744 166.058 12.843 166.058 10.498V9.92378C166.058 7.57875 164.149 5.67773 161.794 5.67773Z" fill="white"/>
<path d="M161.794 15.1216H161.233C158.669 15.1216 156.59 13.0364 156.59 10.4978V9.93874C156.59 7.38508 158.684 5.31494 161.233 5.31494H161.794C164.358 5.31494 166.437 7.40019 166.437 9.93874V10.4978C166.437 13.0515 164.343 15.1216 161.794 15.1216ZM161.233 6.05535C159.094 6.05535 157.349 7.79306 157.349 9.92363V10.4827C157.349 12.6133 159.094 14.351 161.233 14.351H161.794C163.933 14.351 165.678 12.6133 165.678 10.4827V9.92363C165.678 7.79306 163.933 6.05535 161.794 6.05535H161.233Z" fill="#272425"/>
<path d="M148.898 5.67773H148.321C145.967 5.67773 144.058 7.57875 144.058 9.92378V10.498C144.058 12.843 145.967 14.744 148.321 14.744H148.898C151.252 14.744 153.161 12.843 153.161 10.498V9.92378C153.161 7.57875 151.252 5.67773 148.898 5.67773Z" fill="white"/>
<path d="M148.898 15.1216H148.337C145.772 15.1216 143.694 13.0364 143.694 10.4978V9.93874C143.694 7.38508 145.788 5.31494 148.337 5.31494H148.898C151.462 5.31494 153.541 7.40019 153.541 9.93874V10.4978C153.541 13.0515 151.447 15.1216 148.898 15.1216ZM148.337 6.05535C146.197 6.05535 144.452 7.79306 144.452 9.92363V10.4827C144.452 12.6133 146.197 14.351 148.337 14.351H148.898C151.037 14.351 152.782 12.6133 152.782 10.4827V9.92363C152.782 7.79306 151.037 6.05535 148.898 6.05535H148.337Z" fill="#272425"/>
<path d="M41.3577 105.407L44.3315 85.3701L25.4118 92.8196L30.4034 96.7634L23.5456 105.391L29.4931 110.091L36.3661 101.463L41.3577 105.407Z" fill="#42D186"/>
<path d="M29.4931 110.469C29.4021 110.469 29.3262 110.439 29.2504 110.393L23.3029 105.694C23.136 105.558 23.1056 105.331 23.2422 105.165L29.8724 96.8392L25.1842 93.1371C25.078 93.0465 25.0173 92.9256 25.0477 92.7896C25.0628 92.6536 25.1539 92.5478 25.2904 92.4874L44.2101 85.0228C44.3315 84.9775 44.4832 84.9926 44.5894 85.0832C44.6956 85.1739 44.7563 85.2948 44.7259 85.4308L41.7522 105.482C41.737 105.618 41.646 105.724 41.5094 105.785C41.3881 105.83 41.2363 105.815 41.1301 105.724L36.4419 102.022L29.8117 110.348C29.751 110.423 29.66 110.484 29.5538 110.484C29.5538 110.484 29.5235 110.484 29.5083 110.484L29.4931 110.469ZM24.0767 105.331L29.4324 109.562L36.0626 101.236C36.1992 101.07 36.4268 101.04 36.5937 101.176L41.0695 104.712L43.846 85.9597L26.1552 92.9407L30.631 96.4765C30.7979 96.6125 30.8283 96.8392 30.6917 97.0054L24.0615 105.331H24.0767Z" fill="#272425"/>
<path d="M51.5534 41.8066H55.043V51.0542H65.3752V41.8066H68.8648V63.7773H65.3752V53.8497H55.043V63.7773H51.5534V41.8066Z" fill="black"/>
<path d="M89.3624 59.093C88.6038 60.6947 87.5569 61.9338 86.2066 62.7951C84.8563 63.6564 83.2632 64.0795 81.4577 64.0795C79.6522 64.0795 78.1198 63.6564 76.7392 62.7951C75.3585 61.9338 74.2965 60.6947 73.5378 59.0779C72.7792 57.4611 72.3999 55.5723 72.3999 53.3964V52.1724C72.3999 49.9965 72.7792 48.1077 73.5378 46.506C74.2965 44.9043 75.3585 43.6652 76.724 42.8039C78.0895 41.9426 79.6522 41.5195 81.4274 41.5195C83.2025 41.5195 84.8259 41.9426 86.1914 42.8039C87.5569 43.6652 88.619 44.9043 89.3624 46.506C90.1058 48.1077 90.4851 49.9965 90.4851 52.1724V53.3964C90.4851 55.5874 90.1058 57.4913 89.3624 59.093ZM85.539 46.4002C84.568 45.0554 83.1873 44.3905 81.4274 44.3905C79.6674 44.3905 78.3474 45.0554 77.3612 46.4002C76.375 47.745 75.8744 49.649 75.8744 52.1271V53.3812C75.8744 55.8745 76.375 57.8086 77.3764 59.1534C78.3778 60.4983 79.7433 61.1782 81.4577 61.1782C83.1722 61.1782 84.6135 60.5134 85.5694 59.1686C86.5252 57.8237 87.0107 55.8896 87.0107 53.3812V52.1271C87.0107 49.649 86.5252 47.745 85.539 46.4002Z" fill="black"/>
<path d="M111.832 41.8066H116.399V63.7773H112.879V56.0709L113.243 46.5513L106.431 63.7924H103.897L97.1457 46.5513L97.4795 56.0709V63.7773H93.9899V41.8066H98.5264L105.187 59.0779L111.817 41.8066H111.832Z" fill="black"/>
<path d="M120.663 41.8066H134.818V44.6021H124.137V51.0542H133.362V53.8195H124.137V60.9818H134.909V63.7773H120.663V41.8066Z" fill="black"/>
<path d="M60.8843 96.1137H57.3947V74.1431H65.6938C67.3324 74.1431 68.7586 74.4302 69.9572 75.0195C71.1558 75.6088 72.0661 76.4096 72.6882 77.4523C73.3103 78.4949 73.6289 79.6735 73.6289 81.0334C73.6289 83.164 72.931 84.8262 71.5503 86.0048C70.1544 87.1985 68.2124 87.7878 65.709 87.7878H60.8994V96.1137H60.8843ZM60.8843 84.9924H65.6938C67.1959 84.9924 68.3034 84.6448 69.0317 83.9346C69.76 83.2245 70.1089 82.2725 70.1089 81.0637C70.1089 79.8548 69.7448 78.918 69.0165 78.1322C68.2883 77.3465 67.1807 76.9536 65.6938 76.9536H60.8843V85.0075V84.9924Z" fill="black"/>
<path d="M81.0936 74.1431H84.2342L92.5941 96.1137H88.9527L87.041 90.7646H78.2715L76.3599 96.1137H72.7185L81.0784 74.1431H81.0936ZM82.6715 78.3891L79.2729 87.9691H86.0549L82.6563 78.3891H82.6715Z" fill="black"/>
<path d="M108.009 95.4639C106.719 96.1137 105.005 96.431 102.835 96.431C100.999 96.431 99.3912 96.023 97.9802 95.1919C96.5691 94.3609 95.4768 93.152 94.6878 91.5654C93.8989 89.9788 93.5195 88.1051 93.5195 85.9292V84.3275C93.5195 81.0032 94.3085 78.4344 95.9016 76.6061C97.4795 74.7777 99.6794 73.856 102.501 73.856C105.035 73.856 106.992 74.4755 108.373 75.7145C109.754 76.9536 110.588 78.646 110.861 80.7614H107.402C106.932 78.0113 105.308 76.6514 102.562 76.6514C100.711 76.6514 99.3305 77.3163 98.405 78.646C97.4795 79.9757 97.0243 81.8645 97.0243 84.2973V85.9292C97.0243 88.362 97.5553 90.2659 98.6022 91.6108C99.6491 92.9556 101.09 93.6356 102.926 93.6356C104.99 93.6356 106.461 93.1671 107.372 92.2152V87.6367H102.623V84.9622H110.861V93.2578C110.239 94.0738 109.299 94.8142 108.009 95.4488V95.4639Z" fill="black"/>
<path d="M114.806 74.1431H128.962V76.9385H118.28V83.3907H127.505V86.1559H118.28V93.3182H129.053V96.1137H114.806V74.1431Z" fill="black"/>
</g>
<defs>
<clipPath id="clip0_540_458">
<rect width="185.859" height="126.928" fill="white" transform="translate(0.301907 0.0112305)"/>
</clipPath>
</defs>
</svg>
