<svg width="232" height="178" viewBox="0 0 232 178" fill="none" xmlns="http://www.w3.org/2000/svg">
<path d="M171.719 172.737H141.027V177.734H171.719V172.737Z" fill="white"/>
<path d="M171.719 178H141.027C140.877 178 140.759 177.883 140.759 177.734V172.737C140.759 172.588 140.877 172.47 141.027 172.47H171.719C171.869 172.47 171.987 172.588 171.987 172.737V177.734C171.987 177.883 171.869 178 171.719 178ZM141.295 177.467H171.451V173.003H141.295V177.467Z" fill="black"/>
<path d="M171.719 177.734H141.487C140.095 177.734 138.981 176.615 138.981 175.23C138.981 173.856 140.106 172.737 141.487 172.737H171.719V177.734Z" fill="#FFE8AE"/>
<path d="M171.719 178H141.487C139.956 178 138.714 176.764 138.714 175.23C138.714 173.706 139.956 172.47 141.487 172.47H171.719C171.869 172.47 171.987 172.588 171.987 172.737V177.734C171.987 177.883 171.869 178 171.719 178ZM141.487 173.003C140.245 173.003 139.249 174.005 139.249 175.23C139.249 176.455 140.256 177.467 141.487 177.467H171.451V173.003H141.487Z" fill="black"/>
<path d="M142.601 172.737H138.928C137.536 172.737 136.422 173.856 136.422 175.23C136.422 176.604 137.546 177.734 138.928 177.734H142.601V172.737Z" fill="#FFBB00"/>
<path d="M142.601 178H138.928C137.397 178 136.154 176.764 136.154 175.23C136.154 173.706 137.397 172.47 138.928 172.47H142.601C142.751 172.47 142.869 172.588 142.869 172.737V177.734C142.869 177.883 142.74 178 142.601 178ZM138.917 173.003C137.675 173.003 136.679 174.005 136.679 175.23C136.679 176.455 137.686 177.467 138.917 177.467H142.323V173.003H138.917Z" fill="black"/>
<path d="M175.221 174.442L171.708 172.748V177.734L175.221 176.04V174.442Z" fill="white"/>
<path d="M171.708 178C171.655 178 171.612 177.989 171.569 177.957C171.494 177.904 171.44 177.819 171.44 177.734V172.758C171.44 172.662 171.483 172.577 171.569 172.534C171.644 172.492 171.74 172.481 171.826 172.524L175.349 174.218C175.446 174.26 175.499 174.356 175.499 174.463V176.061C175.499 176.167 175.446 176.253 175.349 176.306L171.826 178C171.783 177.989 171.74 178 171.708 178ZM171.976 173.174V177.307L174.964 175.88V174.612L171.976 173.174Z" fill="black"/>
<path d="M177.555 175.507H175.81C175.66 175.507 175.542 175.39 175.542 175.24C175.542 175.091 175.66 174.974 175.81 174.974H177.555C177.705 174.974 177.823 175.091 177.823 175.24C177.823 175.39 177.705 175.507 177.555 175.507Z" fill="black"/>
<path d="M62.8083 169.573H48.1048C45.0849 169.573 42.6218 166.93 42.6218 163.67V134.371C42.6218 131.121 45.0849 128.469 48.1048 128.469H70.4653C73.1961 128.469 75.4128 126.061 75.4128 123.099V117.644C75.4128 114.394 77.8759 111.741 80.8958 111.741H107.561C107.711 111.741 107.829 111.859 107.829 112.008C107.829 112.157 107.711 112.274 107.561 112.274H80.8958C78.165 112.274 75.9483 114.682 75.9483 117.644V123.099C75.9483 126.348 73.4852 129.001 70.4653 129.001H48.1048C45.374 129.001 43.1573 131.409 43.1573 134.371V163.67C43.1573 166.632 45.374 169.04 48.1048 169.04H62.819C62.9689 169.04 63.0867 169.157 63.0867 169.306C63.0867 169.455 62.9582 169.573 62.8083 169.573Z" fill="black"/>
<path d="M129.975 108.129V99.0947H115.657H114.94H100.622V108.129C100.622 113.073 96.8951 117.143 92.0868 117.729V117.804H114.94H115.657H138.51V117.729C133.702 117.143 129.975 113.073 129.975 108.129Z" fill="#FFBB00"/>
<path d="M138.51 118.081H92.0868C91.9369 118.081 91.8191 117.963 91.8191 117.814V117.74C91.8191 117.601 91.9155 117.495 92.0547 117.473C96.7881 116.898 100.354 112.881 100.354 108.14V99.1055C100.354 98.9563 100.472 98.8391 100.622 98.8391H129.975C130.125 98.8391 130.243 98.9563 130.243 99.1055V108.14C130.243 112.881 133.809 116.898 138.542 117.473C138.682 117.495 138.778 117.601 138.778 117.74V117.814C138.778 117.963 138.66 118.081 138.51 118.081ZM94.1108 117.548H136.486C132.513 116.205 129.708 112.455 129.708 108.14V99.3718H100.89V108.14C100.89 112.455 98.0839 116.205 94.1108 117.548Z" fill="black"/>
<path d="M178.455 100.277C178.455 102.898 176.324 105.019 173.689 105.019H56.9076C54.2839 105.019 52.1421 102.898 52.1421 100.277V36.1711C52.1421 33.5501 54.2732 31.4299 56.9076 31.4299H173.7C176.334 31.4299 178.466 33.5501 178.466 36.1711V100.277H178.455Z" fill="#FFF5DE"/>
<path d="M173.7 105.285H56.9076C54.134 105.285 51.8744 103.037 51.8744 100.277V36.1711C51.8744 33.4116 54.134 31.1636 56.9076 31.1636H173.7C176.474 31.1636 178.733 33.4116 178.733 36.1711V100.277C178.723 103.037 176.474 105.285 173.7 105.285ZM56.9076 31.7069C54.4338 31.7069 52.4098 33.7099 52.4098 36.1817V100.288C52.4098 102.749 54.4231 104.763 56.9076 104.763H173.7C176.174 104.763 178.198 102.76 178.198 100.288V36.1711C178.198 33.7099 176.185 31.6963 173.7 31.6963H56.9076V31.7069Z" fill="black"/>
<path d="M178.455 88.2807C178.455 90.9017 176.324 93.0219 173.689 93.0219H56.9076C54.2839 93.0219 52.1421 90.9017 52.1421 88.2807V24.1743C52.1421 21.564 54.2732 19.4438 56.9076 19.4438H173.7C176.334 19.4438 178.466 21.564 178.466 24.1743V88.2807H178.455Z" fill="#FFBB00"/>
<path d="M173.7 93.2882H56.9076C54.134 93.2882 51.8744 91.0402 51.8744 88.2807V24.1743C51.8744 21.4149 54.134 19.1775 56.9076 19.1775H173.7C176.474 19.1775 178.733 21.4255 178.733 24.1743V88.2914C178.723 91.0402 176.474 93.2882 173.7 93.2882ZM56.9076 19.6995C54.4338 19.6995 52.4098 21.7025 52.4098 24.1637V88.2807C52.4098 90.7419 54.4231 92.7555 56.9076 92.7555H173.7C176.174 92.7555 178.198 90.7525 178.198 88.2807V24.1743C178.198 21.7132 176.185 19.7102 173.7 19.7102H56.9076V19.6995Z" fill="black"/>
<path d="M146.863 121.735C146.863 123.269 145.61 124.526 144.058 124.526H86.5395C84.9867 124.526 83.7338 123.269 83.7338 121.735V120.606C83.7338 119.061 84.9974 117.814 86.5395 117.814H144.058C145.61 117.814 146.863 119.061 146.863 120.606V121.735Z" fill="#FFF5DE"/>
<path d="M144.058 124.793H86.5395C84.8475 124.793 83.4661 123.418 83.4661 121.735V120.606C83.4661 118.922 84.8475 117.548 86.5395 117.548H144.058C145.75 117.548 147.131 118.922 147.131 120.606V121.735C147.131 123.418 145.75 124.793 144.058 124.793ZM86.5395 118.081C85.1367 118.081 84.0015 119.21 84.0015 120.606V121.735C84.0015 123.131 85.1367 124.26 86.5395 124.26H144.058C145.461 124.26 146.596 123.131 146.596 121.735V120.606C146.596 119.21 145.461 118.081 144.058 118.081H86.5395Z" fill="black"/>
<path d="M1.48853 74.7287C0.81386 74.7287 0.2677 74.1853 0.2677 73.5141V56.3928C0.2677 55.7216 0.81386 55.1782 1.48853 55.1782H18.6872C19.3619 55.1782 19.908 55.7216 19.908 56.3928V73.5035C19.908 74.1747 19.3619 74.7181 18.6872 74.7181H1.48853V74.7287Z" fill="white"/>
<path d="M18.6872 74.9951H1.48855C0.674668 74.9951 0 74.3238 0 73.5035V56.3928C0 55.5724 0.674668 54.9119 1.48855 54.9119H18.6872C19.5118 54.9119 20.1758 55.5831 20.1758 56.3928V73.5035C20.1865 74.3238 19.5118 74.9951 18.6872 74.9951ZM1.48855 55.4446C0.963811 55.4446 0.535451 55.8707 0.535451 56.3928V73.5035C0.535451 74.0255 0.963811 74.4517 1.48855 74.4517H18.6872C19.212 74.4517 19.6403 74.0255 19.6403 73.5035V56.3928C19.6403 55.8707 19.212 55.4446 18.6872 55.4446H1.48855Z" fill="black"/>
<path d="M6.47888 61.9437C6.47888 60.6119 7.98885 59.8235 9.09188 60.5906L12.7544 63.137C14.018 64.0213 14.018 65.8858 12.7544 66.7701L9.09188 69.3164C7.98885 70.0835 6.47888 69.2951 6.47888 67.9634V61.9437Z" fill="#FFBB00"/>
<path d="M8.14951 69.881C7.84966 69.881 7.5391 69.8064 7.24996 69.6573C6.60741 69.3163 6.21118 68.6877 6.21118 67.9632V61.9436C6.21118 61.2298 6.60741 60.5799 7.24996 60.2389C7.8925 59.9087 8.64213 59.9513 9.24183 60.3668L12.9043 62.9131C13.579 63.3819 13.9645 64.1277 13.9645 64.9481C13.9645 65.7685 13.579 66.5143 12.9043 66.983L9.24183 69.5294C8.90985 69.7638 8.52433 69.881 8.14951 69.881ZM8.1388 60.5586C7.92462 60.5586 7.69973 60.6118 7.49626 60.7184C7.02507 60.9634 6.74663 61.4215 6.74663 61.9436V67.9632C6.74663 68.4853 7.02507 68.9434 7.49626 69.1885C7.96746 69.4335 8.50291 69.4016 8.93127 69.0926L12.5938 66.5462C13.1292 66.1733 13.4291 65.598 13.4291 64.9481C13.4291 64.3088 13.1292 63.7229 12.5938 63.35L8.93127 60.8036C8.69567 60.6438 8.41724 60.5586 8.1388 60.5586Z" fill="black"/>
<path d="M162.959 146.709H156.994C155.002 146.709 153.385 145.1 153.385 143.129C153.385 141.147 155.002 139.538 156.994 139.538H172.629C173.914 139.538 174.964 138.494 174.964 137.216C174.964 135.937 173.914 134.893 172.629 134.893H143.608C140.973 134.893 138.821 132.762 138.821 130.131C138.821 127.499 140.963 125.368 143.608 125.368H166.461C168.024 125.315 169.309 124.004 169.309 122.438C169.309 120.819 167.982 119.498 166.354 119.498H157.979C155.827 119.498 154.081 117.761 154.081 115.62V105.061C154.081 104.912 154.199 104.795 154.349 104.795C154.499 104.795 154.617 104.912 154.617 105.061V115.62C154.617 117.463 156.127 118.965 157.979 118.965H166.354C168.281 118.965 169.845 120.521 169.845 122.438C169.845 124.324 168.367 125.848 166.472 125.901H143.608C141.263 125.901 139.356 127.797 139.356 130.131C139.356 132.464 141.263 134.36 143.608 134.36H172.629C174.214 134.36 175.499 135.639 175.499 137.216C175.499 138.793 174.214 140.071 172.629 140.071H156.994C155.302 140.071 153.921 141.445 153.921 143.129C153.921 144.812 155.302 146.176 156.994 146.176H162.691V145.27C162.691 145.121 162.809 145.004 162.959 145.004C163.109 145.004 163.227 145.121 163.227 145.27V146.442C163.227 146.581 163.109 146.709 162.959 146.709Z" fill="black"/>
<path d="M188.95 147.689C188.95 145.398 187.172 143.512 184.902 143.342L184.88 143.321H131.721C131.699 143.321 131.678 143.321 131.657 143.321C129.236 143.321 127.266 145.27 127.266 147.689C127.266 147.806 127.277 147.923 127.287 148.03L127.266 148.051V166.813H188.95V147.731C188.95 147.71 188.95 147.699 188.95 147.689Z" fill="#FFBB00"/>
<path d="M188.95 167.069H127.266C127.116 167.069 126.998 166.952 126.998 166.802V148.04C126.998 148.008 126.998 147.987 127.009 147.955C126.998 147.859 126.998 147.774 126.998 147.678C126.998 145.121 129.086 143.043 131.657 143.043C131.657 143.043 131.699 143.043 131.721 143.043H184.88C184.923 143.043 184.955 143.054 184.998 143.065C187.365 143.289 189.218 145.302 189.218 147.678C189.218 147.678 189.218 147.699 189.218 147.71V147.721V166.802C189.218 166.952 189.089 167.069 188.95 167.069ZM127.534 166.536H188.682V147.742C188.682 147.721 188.682 147.71 188.682 147.689L188.95 147.678H188.682C188.682 145.558 187.011 143.757 184.88 143.597C184.859 143.597 184.827 143.587 184.805 143.576H131.764C131.742 143.576 131.721 143.576 131.721 143.576C129.397 143.576 127.544 145.419 127.544 147.678C127.544 147.785 127.555 147.891 127.566 147.998C127.566 148.04 127.566 148.072 127.544 148.115V166.536H127.534Z" fill="black"/>
<path d="M135.019 159.973H131.025V163.947H135.019V159.973Z" fill="white"/>
<path d="M135.019 164.214H131.025C130.875 164.214 130.757 164.096 130.757 163.947V159.973C130.757 159.824 130.875 159.707 131.025 159.707H135.019C135.169 159.707 135.287 159.824 135.287 159.973V163.947C135.287 164.096 135.158 164.214 135.019 164.214ZM131.293 163.681H134.752V160.239H131.293V163.681Z" fill="black"/>
<path d="M172.522 159.973H168.528V163.947H172.522V159.973Z" fill="white"/>
<path d="M172.522 164.214H168.528C168.378 164.214 168.26 164.096 168.26 163.947V159.973C168.26 159.824 168.378 159.707 168.528 159.707H172.522C172.672 159.707 172.79 159.824 172.79 159.973V163.947C172.79 164.096 172.672 164.214 172.522 164.214ZM168.795 163.681H172.254V160.239H168.795V163.681Z" fill="black"/>
<path d="M178.776 159.973H174.782V163.947H178.776V159.973Z" fill="white"/>
<path d="M178.776 164.214H174.782C174.632 164.214 174.514 164.096 174.514 163.947V159.973C174.514 159.824 174.632 159.707 174.782 159.707H178.776C178.926 159.707 179.044 159.824 179.044 159.973V163.947C179.044 164.096 178.926 164.214 178.776 164.214ZM175.05 163.681H178.509V160.239H175.05V163.681Z" fill="black"/>
<path d="M184.827 159.973H180.833V163.947H184.827V159.973Z" fill="white"/>
<path d="M184.827 164.214H180.832C180.682 164.214 180.565 164.096 180.565 163.947V159.973C180.565 159.824 180.682 159.707 180.832 159.707H184.827C184.977 159.707 185.095 159.824 185.095 159.973V163.947C185.095 164.096 184.977 164.214 184.827 164.214ZM181.1 163.681H184.559V160.239H181.1V163.681Z" fill="black"/>
<path d="M172.522 153.687H168.528V157.661H172.522V153.687Z" fill="white"/>
<path d="M172.522 157.927H168.528C168.378 157.927 168.26 157.81 168.26 157.661V153.687C168.26 153.538 168.378 153.421 168.528 153.421H172.522C172.672 153.421 172.79 153.538 172.79 153.687V157.661C172.79 157.81 172.672 157.927 172.522 157.927ZM168.795 157.395H172.254V153.953H168.795V157.395Z" fill="black"/>
<path d="M178.776 153.687H174.782V157.661H178.776V153.687Z" fill="white"/>
<path d="M178.776 157.927H174.782C174.632 157.927 174.514 157.81 174.514 157.661V153.687C174.514 153.538 174.632 153.421 174.782 153.421H178.776C178.926 153.421 179.044 153.538 179.044 153.687V157.661C179.044 157.81 178.926 157.927 178.776 157.927ZM175.05 157.395H178.509V153.953H175.05V157.395Z" fill="black"/>
<path d="M184.827 153.687H180.833V157.661H184.827V153.687Z" fill="white"/>
<path d="M184.827 157.927H180.832C180.682 157.927 180.565 157.81 180.565 157.661V153.687C180.565 153.538 180.682 153.421 180.832 153.421H184.827C184.977 153.421 185.095 153.538 185.095 153.687V157.661C185.095 157.81 184.977 157.927 184.827 157.927ZM181.1 157.395H184.559V153.953H181.1V157.395Z" fill="black"/>
<path d="M172.522 147.241H168.528V151.215H172.522V147.241Z" fill="white"/>
<path d="M172.522 151.471H168.528C168.378 151.471 168.26 151.354 168.26 151.205V147.231C168.26 147.082 168.378 146.964 168.528 146.964H172.522C172.672 146.964 172.79 147.082 172.79 147.231V151.205C172.79 151.354 172.672 151.471 172.522 151.471ZM168.795 150.938H172.254V147.497H168.795V150.938Z" fill="black"/>
<path d="M178.776 147.241H174.782V151.215H178.776V147.241Z" fill="white"/>
<path d="M178.776 151.471H174.782C174.632 151.471 174.514 151.354 174.514 151.205V147.231C174.514 147.082 174.632 146.964 174.782 146.964H178.776C178.926 146.964 179.044 147.082 179.044 147.231V151.205C179.044 151.354 178.926 151.471 178.776 151.471ZM175.05 150.938H178.509V147.497H175.05V150.938Z" fill="black"/>
<path d="M184.827 147.241H180.833V151.215H184.827V147.241Z" fill="white"/>
<path d="M184.827 151.471H180.832C180.682 151.471 180.565 151.354 180.565 151.205V147.231C180.565 147.082 180.682 146.964 180.832 146.964H184.827C184.977 146.964 185.095 147.082 185.095 147.231V151.205C185.095 151.354 184.977 151.471 184.827 151.471ZM181.1 150.938H184.559V147.497H181.1V150.938Z" fill="black"/>
<path d="M135.019 153.687H131.025V157.661H135.019V153.687Z" fill="white"/>
<path d="M135.019 157.927H131.025C130.875 157.927 130.757 157.81 130.757 157.661V153.687C130.757 153.538 130.875 153.421 131.025 153.421H135.019C135.169 153.421 135.287 153.538 135.287 153.687V157.661C135.287 157.81 135.158 157.927 135.019 157.927ZM131.293 157.395H134.752V153.953H131.293V157.395Z" fill="black"/>
<path d="M141.263 153.687H137.268V157.661H141.263V153.687Z" fill="white"/>
<path d="M141.263 157.927H137.268C137.118 157.927 137 157.81 137 157.661V153.687C137 153.538 137.118 153.421 137.268 153.421H141.263C141.412 153.421 141.53 153.538 141.53 153.687V157.661C141.53 157.81 141.412 157.927 141.263 157.927ZM137.536 157.395H140.995V153.953H137.536V157.395Z" fill="black"/>
<path d="M147.324 153.687H143.329V157.661H147.324V153.687Z" fill="white"/>
<path d="M147.324 157.927H143.329C143.179 157.927 143.062 157.81 143.062 157.661V153.687C143.062 153.538 143.179 153.421 143.329 153.421H147.324C147.474 153.421 147.592 153.538 147.592 153.687V157.661C147.592 157.81 147.474 157.927 147.324 157.927ZM143.597 157.395H147.056V153.953H143.597V157.395Z" fill="black"/>
<path d="M135.019 147.241H131.025V151.215H135.019V147.241Z" fill="white"/>
<path d="M135.019 151.471H131.025C130.875 151.471 130.757 151.354 130.757 151.205V147.231C130.757 147.082 130.875 146.964 131.025 146.964H135.019C135.169 146.964 135.287 147.082 135.287 147.231V151.205C135.287 151.354 135.158 151.471 135.019 151.471ZM131.293 150.938H134.752V147.497H131.293V150.938Z" fill="black"/>
<path d="M141.263 147.241H137.268V151.215H141.263V147.241Z" fill="white"/>
<path d="M141.263 151.471H137.268C137.118 151.471 137 151.354 137 151.205V147.231C137 147.082 137.118 146.964 137.268 146.964H141.263C141.412 146.964 141.53 147.082 141.53 147.231V151.205C141.53 151.354 141.412 151.471 141.263 151.471ZM137.536 150.938H140.995V147.497H137.536V150.938Z" fill="black"/>
<path d="M147.324 147.241H143.329V151.215H147.324V147.241Z" fill="white"/>
<path d="M147.324 151.471H143.329C143.179 151.471 143.062 151.354 143.062 151.205V147.231C143.062 147.082 143.179 146.964 143.329 146.964H147.324C147.474 146.964 147.592 147.082 147.592 147.231V151.205C147.592 151.354 147.474 151.471 147.324 151.471ZM143.597 150.938H147.056V147.497H143.597V150.938Z" fill="black"/>
<path d="M153.267 153.687H149.273V157.661H153.267V153.687Z" fill="white"/>
<path d="M153.267 157.927H149.273C149.123 157.927 149.005 157.81 149.005 157.661V153.687C149.005 153.538 149.123 153.421 149.273 153.421H153.267C153.417 153.421 153.535 153.538 153.535 153.687V157.661C153.535 157.81 153.417 157.927 153.267 157.927ZM149.541 157.395H153V153.953H149.541V157.395Z" fill="black"/>
<path d="M159.521 153.687H155.527V157.661H159.521V153.687Z" fill="white"/>
<path d="M159.521 157.927H155.527C155.377 157.927 155.259 157.81 155.259 157.661V153.687C155.259 153.538 155.377 153.421 155.527 153.421H159.521C159.671 153.421 159.789 153.538 159.789 153.687V157.661C159.789 157.81 159.671 157.927 159.521 157.927ZM155.795 157.395H159.254V153.953H155.795V157.395Z" fill="black"/>
<path d="M165.583 153.687H161.588V157.661H165.583V153.687Z" fill="white"/>
<path d="M165.583 157.927H161.588C161.438 157.927 161.321 157.81 161.321 157.661V153.687C161.321 153.538 161.438 153.421 161.588 153.421H165.583C165.733 153.421 165.85 153.538 165.85 153.687V157.661C165.85 157.81 165.722 157.927 165.583 157.927ZM161.856 157.395H165.315V153.953H161.856V157.395Z" fill="black"/>
<path d="M153.267 147.241H149.273V151.215H153.267V147.241Z" fill="white"/>
<path d="M153.267 151.471H149.273C149.123 151.471 149.005 151.354 149.005 151.205V147.231C149.005 147.082 149.123 146.964 149.273 146.964H153.267C153.417 146.964 153.535 147.082 153.535 147.231V151.205C153.535 151.354 153.417 151.471 153.267 151.471ZM149.541 150.938H153V147.497H149.541V150.938Z" fill="black"/>
<path d="M159.521 147.241H155.527V151.215H159.521V147.241Z" fill="white"/>
<path d="M159.521 151.471H155.527C155.377 151.471 155.259 151.354 155.259 151.205V147.231C155.259 147.082 155.377 146.964 155.527 146.964H159.521C159.671 146.964 159.789 147.082 159.789 147.231V151.205C159.789 151.354 159.671 151.471 159.521 151.471ZM155.795 150.938H159.254V147.497H155.795V150.938Z" fill="black"/>
<path d="M165.583 147.241H161.588V151.215H165.583V147.241Z" fill="white"/>
<path d="M165.583 151.471H161.588C161.438 151.471 161.321 151.354 161.321 151.205V147.231C161.321 147.082 161.438 146.964 161.588 146.964H165.583C165.733 146.964 165.85 147.082 165.85 147.231V151.205C165.85 151.354 165.722 151.471 165.583 151.471ZM161.856 150.938H165.315V147.497H161.856V150.938Z" fill="black"/>
<path d="M165.583 159.973H137.621V163.947H165.583V159.973Z" fill="white"/>
<path d="M165.583 164.214H137.621C137.472 164.214 137.354 164.096 137.354 163.947V159.973C137.354 159.824 137.472 159.707 137.621 159.707H165.583C165.733 159.707 165.85 159.824 165.85 159.973V163.947C165.85 164.096 165.722 164.214 165.583 164.214ZM137.889 163.681H165.315V160.239H137.889V163.681Z" fill="black"/>
<path d="M185.469 121.085C185.833 121.011 186.187 120.904 186.508 120.744C186.722 120.648 186.979 120.68 187.14 120.861C187.44 121.192 187.965 121.213 188.297 120.915L188.329 120.883C188.65 120.595 188.671 120.094 188.382 119.775C188.232 119.615 188.222 119.359 188.339 119.178C188.554 118.858 188.725 118.517 188.853 118.145C188.928 117.932 189.132 117.804 189.357 117.814C189.796 117.836 190.171 117.495 190.192 117.058V116.973C190.213 116.546 189.881 116.184 189.453 116.163C189.228 116.152 189.046 115.992 189.003 115.769C188.928 115.396 188.8 115.044 188.639 114.714C188.532 114.501 188.564 114.245 188.736 114.085C189.057 113.798 189.078 113.297 188.789 112.967L188.736 112.903C188.446 112.583 187.954 112.562 187.633 112.849C187.472 112.999 187.226 113.02 187.044 112.903C186.733 112.7 186.401 112.54 186.048 112.423C185.823 112.349 185.651 112.146 185.662 111.901C185.684 111.454 185.341 111.081 184.891 111.06H184.859C184.409 111.038 184.034 111.379 184.013 111.827C184.002 112.05 183.852 112.242 183.627 112.295C183.263 112.37 182.921 112.498 182.599 112.658C182.385 112.764 182.117 112.711 181.957 112.54C181.646 112.2 181.121 112.178 180.79 112.487C180.447 112.796 180.425 113.318 180.736 113.659C180.907 113.84 180.897 114.117 180.768 114.33C180.597 114.607 180.458 114.906 180.35 115.215C180.265 115.449 180.029 115.598 179.772 115.588C179.312 115.566 178.926 115.918 178.905 116.365C178.883 116.823 179.247 117.207 179.708 117.228C179.954 117.239 180.147 117.431 180.211 117.676C180.286 117.985 180.383 118.283 180.511 118.56C180.618 118.805 180.575 119.093 180.383 119.274C180.04 119.583 180.018 120.105 180.329 120.435C180.64 120.776 181.164 120.787 181.507 120.478C181.689 120.307 181.967 120.318 182.182 120.457C182.46 120.638 182.76 120.776 183.071 120.893C183.306 120.979 183.456 121.202 183.445 121.447C183.424 121.906 183.788 122.289 184.249 122.31C184.698 122.332 185.084 121.98 185.105 121.533C185.084 121.32 185.244 121.128 185.469 121.085ZM184.495 118.358C183.574 118.304 182.867 117.505 182.921 116.589C182.974 115.673 183.777 114.97 184.698 115.023C185.619 115.076 186.326 115.875 186.273 116.792C186.208 117.708 185.416 118.411 184.495 118.358Z" fill="#FFBB00"/>
<path d="M184.259 122.587C184.238 122.587 184.227 122.587 184.206 122.587C183.906 122.577 183.638 122.449 183.435 122.225C183.242 122.012 183.135 121.735 183.156 121.447C183.167 121.32 183.081 121.192 182.963 121.149C182.631 121.032 182.31 120.872 182.021 120.68C181.925 120.616 181.775 120.584 181.678 120.68C181.228 121.085 180.522 121.064 180.125 120.616C179.933 120.403 179.826 120.126 179.836 119.828C179.847 119.54 179.976 119.274 180.19 119.072C180.297 118.976 180.329 118.805 180.254 118.667C180.115 118.368 180.008 118.049 179.933 117.729C179.901 117.591 179.793 117.495 179.676 117.484C179.376 117.473 179.097 117.346 178.894 117.122C178.701 116.909 178.594 116.632 178.615 116.344C178.626 116.056 178.755 115.79 178.969 115.588C179.183 115.396 179.472 115.289 179.761 115.3C179.89 115.3 180.029 115.225 180.072 115.108C180.179 114.778 180.34 114.469 180.522 114.171C180.586 114.075 180.607 113.915 180.522 113.819C180.115 113.372 180.147 112.679 180.586 112.274C181.036 111.869 181.732 111.901 182.139 112.349C182.224 112.434 182.353 112.466 182.46 112.413C182.803 112.242 183.178 112.114 183.552 112.029C183.649 112.008 183.724 111.923 183.724 111.805C183.745 111.219 184.259 110.751 184.848 110.783C185.48 110.815 185.94 111.315 185.908 111.901C185.898 112.029 186.015 112.125 186.112 112.157C186.487 112.285 186.84 112.455 187.172 112.668C187.258 112.722 187.365 112.711 187.44 112.647C187.643 112.455 187.911 112.359 188.189 112.381C188.468 112.391 188.725 112.519 188.918 112.722L188.971 112.786C189.164 112.988 189.26 113.265 189.25 113.542C189.239 113.819 189.11 114.085 188.907 114.277C188.821 114.362 188.832 114.501 188.875 114.597C189.046 114.959 189.175 115.332 189.26 115.715C189.282 115.822 189.367 115.886 189.464 115.897C189.742 115.907 189.999 116.024 190.192 116.238C190.374 116.44 190.47 116.706 190.46 116.983V117.069C190.449 117.356 190.32 117.612 190.117 117.804C189.903 117.995 189.635 118.091 189.346 118.081C189.25 118.081 189.142 118.134 189.11 118.23C188.982 118.613 188.8 118.986 188.564 119.327C188.511 119.412 188.511 119.53 188.575 119.594C188.768 119.796 188.864 120.073 188.853 120.35C188.843 120.627 188.714 120.893 188.511 121.075C188.029 121.511 187.343 121.479 186.947 121.043C186.872 120.957 186.744 120.936 186.626 120.989C186.272 121.149 185.908 121.277 185.523 121.352C185.426 121.373 185.351 121.458 185.351 121.565C185.319 122.14 184.837 122.587 184.259 122.587ZM181.828 120.094C181.989 120.094 182.16 120.137 182.31 120.233C182.567 120.403 182.856 120.542 183.145 120.648C183.488 120.766 183.713 121.106 183.692 121.469C183.681 121.618 183.734 121.756 183.831 121.863C183.938 121.98 184.077 122.044 184.227 122.044C184.538 122.044 184.784 121.82 184.805 121.522C184.816 121.17 185.073 120.883 185.405 120.808C185.748 120.744 186.08 120.638 186.39 120.489C186.722 120.339 187.097 120.403 187.333 120.659C187.536 120.883 187.889 120.904 188.104 120.691C188.243 120.563 188.307 120.435 188.307 120.297C188.307 120.158 188.264 120.03 188.168 119.924C187.932 119.668 187.911 119.285 188.104 118.997C188.307 118.699 188.468 118.368 188.586 118.027C188.693 117.708 189.014 117.484 189.357 117.516C189.496 117.516 189.635 117.473 189.731 117.378C189.839 117.282 189.892 117.154 189.903 117.015V116.93C189.914 116.792 189.86 116.664 189.774 116.568C189.689 116.472 189.56 116.408 189.421 116.408C189.078 116.397 188.789 116.142 188.725 115.801C188.661 115.46 188.543 115.129 188.382 114.81C188.221 114.48 188.286 114.096 188.532 113.872C188.639 113.776 188.693 113.649 188.703 113.51C188.714 113.372 188.661 113.233 188.564 113.137L188.511 113.073C188.414 112.977 188.296 112.913 188.157 112.903C188.018 112.892 187.89 112.945 187.793 113.041C187.536 113.265 187.161 113.308 186.883 113.116C186.594 112.924 186.272 112.775 185.94 112.668C185.587 112.551 185.351 112.232 185.373 111.88C185.384 111.582 185.159 111.326 184.859 111.315C184.527 111.305 184.27 111.528 184.259 111.827C184.238 112.178 184.002 112.466 183.659 112.54C183.327 112.615 182.995 112.732 182.696 112.881C182.374 113.041 181.978 112.967 181.732 112.7C181.528 112.477 181.164 112.455 180.939 112.668C180.714 112.871 180.693 113.233 180.907 113.457C181.143 113.723 181.175 114.117 180.971 114.448C180.811 114.714 180.672 114.991 180.575 115.279C180.457 115.62 180.115 115.843 179.729 115.833C179.569 115.822 179.44 115.875 179.322 115.982C179.215 116.078 179.151 116.216 179.14 116.365C179.13 116.515 179.183 116.653 179.279 116.76C179.387 116.877 179.526 116.941 179.686 116.951C180.04 116.973 180.35 117.239 180.436 117.601C180.5 117.889 180.597 118.166 180.725 118.432C180.886 118.784 180.811 119.199 180.532 119.455C180.425 119.551 180.361 119.689 180.35 119.839C180.34 119.988 180.393 120.126 180.5 120.243C180.704 120.467 181.068 120.478 181.303 120.275C181.453 120.169 181.635 120.094 181.828 120.094ZM184.591 118.624C184.548 118.624 184.516 118.624 184.473 118.624C183.402 118.56 182.589 117.644 182.653 116.578C182.685 116.067 182.921 115.588 183.306 115.247C183.692 114.906 184.195 114.725 184.709 114.767C185.78 114.831 186.594 115.747 186.529 116.813C186.476 117.825 185.619 118.624 184.591 118.624ZM184.505 118.091C185.276 118.123 185.951 117.548 185.994 116.77C186.037 115.992 185.448 115.332 184.677 115.279C184.302 115.257 183.938 115.385 183.659 115.63C183.381 115.875 183.21 116.216 183.188 116.6C183.135 117.378 183.734 118.038 184.505 118.091Z" fill="black"/>
<path d="M199.798 111.816C199.669 111.571 199.723 111.273 199.937 111.102C200.205 110.889 200.451 110.655 200.676 110.41C200.869 110.207 201.179 110.154 201.415 110.303L201.822 110.548C202.207 110.783 202.721 110.665 202.957 110.282C203.193 109.898 203.075 109.387 202.689 109.153L202.293 108.907C202.057 108.769 201.961 108.481 202.057 108.226C202.186 107.906 202.282 107.586 202.368 107.256C202.432 106.979 202.679 106.777 202.957 106.777L203.396 106.787C203.857 106.798 204.231 106.436 204.242 105.988C204.253 105.53 203.889 105.157 203.439 105.147L203.032 105.136C202.764 105.125 202.529 104.923 202.497 104.656C202.454 104.316 202.379 103.975 202.282 103.644C202.197 103.367 202.293 103.058 202.55 102.93L202.871 102.76C203.278 102.547 203.418 102.046 203.203 101.641C202.989 101.236 202.486 101.098 202.079 101.311L201.79 101.46C201.543 101.588 201.244 101.513 201.072 101.29C200.847 101.002 200.612 100.746 200.355 100.501C200.151 100.299 200.076 99.9899 200.226 99.7449L200.376 99.5105C200.612 99.1269 200.494 98.6155 200.108 98.3811C199.723 98.1467 199.209 98.2639 198.973 98.6475L198.845 98.8606C198.695 99.1056 198.384 99.1695 198.117 99.0736C197.763 98.9351 197.399 98.8286 197.035 98.7434C196.767 98.6794 196.585 98.445 196.596 98.168L196.607 97.955C196.617 97.4968 196.264 97.1239 195.803 97.1133C195.343 97.1026 194.968 97.4649 194.957 97.9123V98.1041C194.947 98.3918 194.722 98.6049 194.433 98.6475C194.058 98.7007 193.683 98.786 193.319 98.9138C193.062 98.9991 192.773 98.8819 192.644 98.6475L192.559 98.4877C192.344 98.0935 191.841 97.9443 191.434 98.1574C191.027 98.3705 190.888 98.8712 191.102 99.2761L191.188 99.4359C191.316 99.6809 191.252 99.9792 191.038 100.15C190.727 100.405 190.438 100.682 190.181 100.97C189.999 101.173 189.699 101.204 189.474 101.066L189.303 100.959C188.918 100.725 188.403 100.842 188.168 101.236C187.932 101.62 188.05 102.131 188.436 102.366L188.618 102.483C188.864 102.632 188.939 102.941 188.843 103.218C188.714 103.57 188.607 103.932 188.543 104.305C188.489 104.571 188.254 104.752 187.975 104.742L187.729 104.731C187.268 104.72 186.894 105.072 186.883 105.53C186.872 105.988 187.236 106.361 187.686 106.372L187.964 106.382C188.243 106.393 188.478 106.606 188.521 106.883C188.586 107.245 188.682 107.597 188.81 107.949C188.896 108.204 188.778 108.481 188.543 108.609L188.254 108.758C187.857 108.971 187.707 109.472 187.922 109.877C188.136 110.282 188.639 110.42 189.046 110.207L189.367 110.037C189.614 109.909 189.913 109.973 190.096 110.186C190.32 110.452 190.567 110.697 190.834 110.932C191.049 111.113 191.113 111.422 190.963 111.667L190.749 112.008C190.513 112.391 190.631 112.903 191.016 113.137C191.402 113.372 191.916 113.254 192.152 112.871L192.377 112.498C192.516 112.264 192.805 112.157 193.073 112.253C193.394 112.37 193.726 112.466 194.058 112.53C194.336 112.583 194.55 112.818 194.54 113.105L194.529 113.574C194.518 114.032 194.872 114.405 195.332 114.416C195.793 114.426 196.168 114.064 196.178 113.617L196.189 113.137C196.2 112.871 196.392 112.636 196.66 112.594C196.992 112.541 197.324 112.455 197.645 112.359C197.913 112.274 198.213 112.37 198.352 112.615L198.588 113.052C198.802 113.446 199.305 113.595 199.712 113.382C200.119 113.169 200.258 112.668 200.044 112.264L199.798 111.816ZM196.692 107.949C195.429 108.63 193.854 108.162 193.18 106.915C192.494 105.658 192.966 104.092 194.218 103.421C195.482 102.739 197.056 103.207 197.731 104.454C198.416 105.701 197.956 107.267 196.692 107.949Z" fill="#FFDD88"/>
<path d="M195.343 114.671C195.332 114.671 195.322 114.671 195.311 114.671C195.022 114.661 194.743 114.543 194.55 114.33C194.347 114.117 194.24 113.84 194.251 113.553L194.261 113.084C194.261 112.945 194.154 112.817 193.994 112.775C193.651 112.7 193.297 112.604 192.966 112.487C192.826 112.434 192.676 112.498 192.591 112.615L192.366 112.988C192.045 113.499 191.37 113.659 190.856 113.35C190.342 113.041 190.181 112.359 190.492 111.848L190.706 111.507C190.781 111.39 190.749 111.219 190.631 111.113C190.363 110.878 190.106 110.612 189.871 110.346C189.774 110.229 189.603 110.197 189.474 110.26L189.164 110.431C188.628 110.719 187.964 110.516 187.675 109.994C187.536 109.738 187.504 109.44 187.59 109.163C187.675 108.886 187.857 108.652 188.114 108.513L188.403 108.364C188.532 108.3 188.586 108.151 188.543 108.023C188.414 107.661 188.318 107.288 188.243 106.915C188.211 106.755 188.082 106.638 187.932 106.627L187.654 106.617C187.054 106.595 186.572 106.095 186.583 105.498C186.594 105.21 186.711 104.933 186.926 104.731C187.14 104.529 187.418 104.433 187.707 104.433L187.954 104.443C188.104 104.465 188.221 104.358 188.243 104.22C188.318 103.836 188.425 103.452 188.553 103.09C188.607 102.952 188.586 102.76 188.436 102.675L188.254 102.557C187.74 102.249 187.579 101.567 187.889 101.055C188.039 100.81 188.286 100.629 188.564 100.565C188.843 100.501 189.142 100.544 189.389 100.693L189.56 100.8C189.678 100.874 189.838 100.853 189.924 100.757C190.192 100.448 190.492 100.16 190.813 99.9046C190.931 99.8087 190.963 99.6489 190.888 99.521L190.802 99.3612C190.663 99.1055 190.631 98.8072 190.717 98.5302C190.802 98.2532 190.984 98.0188 191.241 97.8803C191.498 97.7418 191.798 97.7098 192.077 97.795C192.355 97.8803 192.591 98.0614 192.73 98.3171L192.816 98.4769C192.88 98.6048 193.03 98.6687 193.18 98.6154C193.555 98.4982 193.951 98.4023 194.336 98.3491C194.475 98.3277 194.625 98.2212 194.636 98.0614V97.8696C194.647 97.582 194.765 97.3049 194.979 97.1025C195.193 96.9001 195.493 96.8042 195.761 96.8042C196.05 96.8149 196.328 96.932 196.532 97.1451C196.735 97.3582 196.842 97.6352 196.831 97.9229L196.821 98.136C196.821 98.2851 196.917 98.413 197.056 98.4449C197.431 98.5302 197.817 98.6474 198.181 98.7859C198.32 98.8392 198.502 98.8178 198.588 98.69L198.716 98.4769C198.866 98.2319 199.112 98.0507 199.391 97.9868C199.669 97.9229 199.969 97.9655 200.216 98.1147C200.73 98.4343 200.89 99.1055 200.58 99.6169L200.43 99.8513C200.344 99.9898 200.408 100.171 200.515 100.267C200.783 100.523 201.04 100.8 201.254 101.087C201.351 101.204 201.511 101.247 201.64 101.183L201.929 101.034C202.186 100.895 202.486 100.863 202.764 100.949C203.043 101.034 203.278 101.215 203.418 101.471C203.557 101.726 203.589 102.025 203.503 102.302C203.418 102.579 203.235 102.813 202.978 102.952L202.657 103.122C202.507 103.207 202.475 103.389 202.518 103.527C202.625 103.868 202.7 104.23 202.743 104.582C202.764 104.72 202.882 104.827 203.021 104.827L203.428 104.837C203.717 104.848 203.996 104.965 204.189 105.178C204.381 105.391 204.499 105.669 204.488 105.956C204.467 106.553 203.964 107.032 203.364 107.011L202.925 107C202.775 107.022 202.646 107.107 202.604 107.267C202.518 107.608 202.411 107.949 202.282 108.279C202.229 108.407 202.282 108.566 202.4 108.641L202.796 108.886C203.31 109.195 203.471 109.866 203.16 110.388C203.011 110.633 202.764 110.814 202.486 110.878C202.197 110.942 201.908 110.9 201.661 110.751L201.254 110.506C201.126 110.431 200.965 110.452 200.858 110.569C200.612 110.836 200.355 111.07 200.087 111.283C199.98 111.369 199.948 111.528 200.012 111.656L200.248 112.093C200.537 112.615 200.333 113.286 199.809 113.574C199.273 113.862 198.609 113.659 198.32 113.137L198.084 112.7C198.02 112.572 197.849 112.519 197.699 112.572C197.367 112.679 197.024 112.764 196.671 112.817C196.532 112.839 196.435 112.967 196.425 113.105L196.414 113.585C196.425 114.203 195.932 114.671 195.343 114.671ZM192.869 111.944C192.966 111.944 193.062 111.965 193.158 111.997C193.469 112.104 193.79 112.2 194.111 112.263C194.529 112.349 194.818 112.7 194.807 113.105L194.797 113.574C194.797 113.723 194.85 113.862 194.947 113.968C195.054 114.075 195.193 114.139 195.332 114.139C195.653 114.16 195.9 113.904 195.91 113.595L195.921 113.116C195.932 112.711 196.221 112.381 196.607 112.317C196.928 112.263 197.249 112.189 197.56 112.082C197.956 111.954 198.384 112.114 198.577 112.466L198.813 112.903C198.963 113.169 199.305 113.276 199.573 113.126C199.841 112.977 199.948 112.636 199.798 112.37L199.562 111.933C199.37 111.582 199.455 111.145 199.766 110.889C200.012 110.687 200.258 110.463 200.483 110.229C200.762 109.93 201.211 109.866 201.554 110.069L201.961 110.314C202.09 110.388 202.24 110.42 202.389 110.378C202.539 110.346 202.657 110.25 202.732 110.133C202.807 110.005 202.839 109.856 202.796 109.706C202.764 109.557 202.668 109.44 202.55 109.366L202.154 109.12C201.811 108.907 201.661 108.481 201.811 108.108C201.929 107.799 202.036 107.49 202.111 107.171C202.207 106.777 202.561 106.489 202.946 106.489C202.957 106.489 202.957 106.489 202.968 106.489L203.407 106.5C203.717 106.521 203.974 106.265 203.985 105.956C203.985 105.807 203.932 105.669 203.835 105.562C203.728 105.455 203.589 105.391 203.45 105.391L203.043 105.381C202.636 105.37 202.304 105.072 202.25 104.678C202.207 104.347 202.132 104.017 202.036 103.697C201.918 103.282 202.079 102.866 202.432 102.675L202.754 102.504C202.882 102.43 202.978 102.312 203.021 102.174C203.064 102.035 203.043 101.886 202.978 101.748C202.903 101.62 202.786 101.524 202.646 101.481C202.507 101.439 202.357 101.449 202.218 101.524L201.929 101.673C201.576 101.865 201.126 101.769 200.869 101.439C200.665 101.172 200.43 100.917 200.173 100.682C199.862 100.384 199.787 99.9365 200.001 99.5956L200.151 99.3612C200.312 99.1055 200.226 98.7539 199.969 98.5941C199.841 98.5195 199.691 98.4876 199.552 98.5302C199.402 98.5621 199.284 98.658 199.209 98.7752L199.08 98.9883C198.866 99.3293 198.427 99.4678 198.02 99.3079C197.677 99.1694 197.335 99.0629 196.981 98.9883C196.596 98.9031 196.317 98.5515 196.328 98.1466L196.339 97.9335C196.339 97.7844 196.285 97.6459 196.189 97.5393C196.082 97.4328 195.943 97.3689 195.793 97.3689C195.632 97.3689 195.504 97.4221 195.396 97.518C195.289 97.6139 195.225 97.7631 195.225 97.9122V98.104C195.214 98.5089 194.893 98.8392 194.475 98.9031C194.111 98.9564 193.758 99.0416 193.405 99.1588C193.019 99.2866 192.601 99.1162 192.409 98.7646L192.323 98.6048C192.248 98.4769 192.13 98.381 191.991 98.3384C191.852 98.2958 191.691 98.3064 191.563 98.381C191.434 98.4556 191.338 98.5728 191.295 98.7113C191.252 98.8498 191.273 99.0096 191.338 99.1375L191.423 99.2973C191.616 99.6489 191.531 100.096 191.209 100.341C190.909 100.586 190.631 100.853 190.385 101.13C190.117 101.428 189.678 101.492 189.335 101.279L189.164 101.172C189.035 101.098 188.885 101.077 188.746 101.109C188.596 101.14 188.478 101.236 188.403 101.364C188.243 101.631 188.329 101.971 188.586 102.131L188.768 102.249C189.11 102.451 189.249 102.898 189.1 103.293C188.971 103.634 188.875 103.985 188.81 104.337C188.735 104.731 188.393 104.987 187.975 104.997L187.729 104.987C187.59 104.997 187.44 105.04 187.333 105.136C187.225 105.242 187.161 105.381 187.161 105.53C187.151 105.839 187.397 106.095 187.707 106.105L187.986 106.116C188.382 106.127 188.725 106.436 188.8 106.84C188.864 107.192 188.96 107.533 189.078 107.874C189.207 108.247 189.046 108.662 188.693 108.854L188.403 109.003C188.275 109.078 188.179 109.195 188.136 109.334C188.093 109.472 188.114 109.632 188.179 109.76C188.329 110.026 188.671 110.133 188.939 109.983L189.249 109.813C189.603 109.621 190.053 109.706 190.31 110.015C190.524 110.271 190.759 110.506 191.016 110.729C191.338 111.006 191.413 111.454 191.199 111.795L190.984 112.136C190.824 112.402 190.909 112.743 191.166 112.903C191.434 113.063 191.777 112.977 191.937 112.722L192.162 112.349C192.302 112.093 192.58 111.944 192.869 111.944ZM195.461 108.524C195.182 108.524 194.915 108.481 194.647 108.407C193.919 108.194 193.308 107.703 192.944 107.032C192.58 106.361 192.494 105.594 192.719 104.869C192.944 104.145 193.426 103.538 194.101 103.175C195.493 102.43 197.228 102.941 197.977 104.315C198.341 104.987 198.427 105.754 198.202 106.478C197.988 107.203 197.495 107.81 196.821 108.172C196.403 108.407 195.932 108.524 195.461 108.524ZM195.45 103.367C195.075 103.367 194.7 103.452 194.347 103.644C193.801 103.943 193.405 104.422 193.223 105.019C193.04 105.615 193.115 106.233 193.405 106.777C194.015 107.895 195.429 108.311 196.553 107.703C197.099 107.405 197.495 106.915 197.677 106.329C197.86 105.743 197.785 105.114 197.495 104.571C197.078 103.804 196.285 103.367 195.45 103.367Z" fill="black"/>
<path d="M23.1208 42.8619C22.2426 42.8619 21.5251 42.1481 21.5251 41.2745V19.0072C21.5251 18.1335 22.2426 17.4197 23.1208 17.4197H45.5026C46.3808 17.4197 47.0983 18.1335 47.0983 19.0072V41.2745C47.0983 42.1481 46.3808 42.8619 45.5026 42.8619H23.1208Z" fill="#FFF0CF"/>
<path d="M45.4919 43.1283H23.1101C22.082 43.1283 21.2467 42.2973 21.2467 41.2745V19.0072C21.2467 17.9843 22.082 17.1533 23.1101 17.1533H45.4919C46.52 17.1533 47.3553 17.9843 47.3553 19.0072V41.2745C47.3553 42.2973 46.52 43.1283 45.4919 43.1283ZM23.1208 17.6967C22.3926 17.6967 21.7929 18.2827 21.7929 19.0178V41.2851C21.7929 42.0096 22.3819 42.6062 23.1208 42.6062H45.5026C46.2308 42.6062 46.8305 42.0096 46.8305 41.2851V19.0178C46.8305 18.2933 46.2308 17.6967 45.5026 17.6967H23.1208Z" fill="black"/>
<path d="M47.0233 38.1953C46.9591 38.1953 46.8841 38.174 46.8306 38.1208L39.9126 31.2381L37.0747 34.0615C36.9676 34.168 36.7962 34.168 36.6999 34.0615L30.6171 28.0099L21.8143 36.7677C21.7072 36.8742 21.5359 36.8742 21.4395 36.7677C21.3431 36.6611 21.3324 36.4907 21.4395 36.3948L30.4351 27.4559C30.5422 27.3493 30.7135 27.3493 30.8099 27.4559L36.8926 33.5075L39.7305 30.6841C39.8376 30.5776 40.0089 30.5776 40.1053 30.6841L47.2161 37.7585C47.3232 37.8651 47.3232 38.0355 47.2161 38.1314C47.1518 38.174 47.0876 38.1953 47.0233 38.1953Z" fill="black"/>
<path d="M39.966 25.943C41.1655 25.943 42.14 24.9735 42.14 23.7802C42.14 22.587 41.1655 21.6174 39.966 21.6174C38.7666 21.6174 37.7921 22.587 37.7921 23.7802C37.7921 24.9735 38.7666 25.943 39.966 25.943Z" fill="#FFBB00"/>
<path d="M39.9661 26.2094C38.6167 26.2094 37.5244 25.1227 37.5244 23.7802C37.5244 22.4378 38.6167 21.3511 39.9661 21.3511C41.3154 21.3511 42.4077 22.4378 42.4077 23.7802C42.4077 25.1227 41.3154 26.2094 39.9661 26.2094ZM39.9661 21.8944C38.9166 21.8944 38.0599 22.7468 38.0599 23.7909C38.0599 24.835 38.9166 25.6873 39.9661 25.6873C41.0156 25.6873 41.8723 24.835 41.8723 23.7909C41.8723 22.7468 41.0156 21.8944 39.9661 21.8944Z" fill="black"/>
<path d="M16.6409 10.9783L13.9508 13.5752L18.679 18.4231L21.3691 15.8262L16.6409 10.9783Z" fill="white"/>
<path d="M18.6765 18.6875C18.6229 18.6875 18.5373 18.6556 18.4837 18.6023L13.7503 13.7546C13.6432 13.6481 13.654 13.4776 13.761 13.3817L16.449 10.7821C16.5025 10.7288 16.5775 10.7182 16.6418 10.7075C16.7167 10.7075 16.781 10.7395 16.8345 10.7928L21.5679 15.6404C21.675 15.747 21.6643 15.9174 21.5572 16.0133L18.8692 18.6129C18.8157 18.6662 18.7407 18.6875 18.6765 18.6875ZM14.3286 13.5842L18.6872 18.0589L20.9896 15.8322L16.6311 11.3574L14.3286 13.5842Z" fill="black"/>
<path d="M23.7632 21.82L25.7444 23.0772L24.5878 21.0315L21.6 17.9631L20.7754 18.7622L23.7632 21.82Z" fill="white"/>
<path d="M25.7444 23.3435C25.6908 23.3435 25.648 23.3329 25.6051 23.3009L23.624 22.0437C23.6026 22.033 23.5918 22.0224 23.5704 22.0011L20.5826 18.9433C20.4755 18.8368 20.4862 18.6663 20.5933 18.5704L21.4179 17.7714C21.4715 17.7181 21.5357 17.6968 21.6107 17.6968C21.6856 17.6968 21.7499 17.7287 21.8034 17.782L24.7913 20.8398C24.802 20.8611 24.8234 20.8717 24.8341 20.893L26.0014 22.9387C26.0656 23.0452 26.0442 23.1837 25.9478 23.2583C25.8836 23.3222 25.8086 23.3435 25.7444 23.3435ZM23.9345 21.6175L24.984 22.2887L24.3629 21.202L21.5893 18.3573L21.1502 18.7835L23.9345 21.6175Z" fill="black"/>
<path d="M18.5801 21.2872C18.3445 21.5216 17.9376 21.3724 17.9269 21.0422C17.8519 19.4866 18.4302 17.8992 19.6403 16.7272C20.8504 15.5552 22.4568 15.0332 24.031 15.1504C24.363 15.1717 24.4915 15.5872 24.2559 15.8109L18.5801 21.2872Z" fill="white"/>
<path d="M18.3016 21.6708C18.216 21.6708 18.141 21.6601 18.0553 21.6282C17.8197 21.5323 17.6698 21.3192 17.6484 21.0635C17.5734 19.3695 18.2267 17.7287 19.4475 16.5461C20.6683 15.3635 22.3496 14.7669 24.0417 14.8947C24.2987 14.916 24.5022 15.0758 24.5878 15.3102C24.6735 15.5553 24.6092 15.8323 24.4272 16.0134L18.7621 21.479C18.6443 21.5962 18.473 21.6708 18.3016 21.6708ZM23.5812 15.4061C22.1783 15.4061 20.829 15.9495 19.8223 16.919C18.7086 17.9951 18.1196 19.4867 18.1838 21.0315C18.1838 21.0741 18.2053 21.1061 18.2481 21.1168C18.2695 21.1274 18.3338 21.1381 18.3873 21.0848L24.0524 15.6192C24.1059 15.5659 24.0952 15.502 24.0845 15.4807C24.0738 15.4381 24.0417 15.4168 23.9988 15.4168C23.8596 15.4168 23.7204 15.4061 23.5812 15.4061Z" fill="black"/>
<path d="M13.7183 14.8095C14.0074 15.1079 14.4893 15.1185 14.7892 14.8309L17.8627 11.869C18.1625 11.5813 18.1732 11.1019 17.8841 10.8036C17.5949 10.5052 17.113 10.4946 16.8132 10.7823L13.7397 13.7441C13.4398 14.0318 13.4291 14.5112 13.7183 14.8095Z" fill="white"/>
<path d="M14.2644 15.2995C14.2644 15.2995 14.2537 15.2995 14.243 15.2995C13.9645 15.2995 13.7182 15.1824 13.5255 14.9906C13.3327 14.7988 13.2363 14.5431 13.2363 14.2661C13.2363 13.9891 13.3541 13.7334 13.5469 13.5523L16.6204 10.5904C17.0273 10.1962 17.6806 10.2068 18.0661 10.6117C18.4623 11.0166 18.4516 11.6665 18.0447 12.05L14.9712 15.0119C14.7891 15.2037 14.5321 15.2995 14.2644 15.2995ZM17.3379 10.8354C17.2094 10.8354 17.0916 10.878 16.9952 10.9739L13.9217 13.9358C13.8253 14.0317 13.7718 14.1489 13.7718 14.2767C13.7718 14.4046 13.8146 14.5324 13.911 14.6177C13.9967 14.7136 14.1252 14.7668 14.2537 14.7668C14.3822 14.7562 14.5107 14.7242 14.6071 14.6283L17.6806 11.6665C17.8733 11.4747 17.884 11.1657 17.6913 10.9739C17.5949 10.878 17.4664 10.8354 17.3379 10.8354Z" fill="black"/>
<path d="M112.059 138.079C113.869 138.079 115.347 139.538 115.347 141.349V171.842C115.347 173.642 113.88 175.113 112.059 175.113H65.8176C64.0078 175.113 62.5299 173.653 62.5299 171.842V141.349C62.5299 139.549 63.997 138.079 65.8176 138.079H112.059Z" fill="white"/>
<path d="M112.059 175.379H65.8176C63.8578 175.379 62.2622 173.792 62.2622 171.842V141.349C62.2622 139.4 63.8578 137.812 65.8176 137.812H112.07C114.03 137.812 115.625 139.4 115.625 141.349V171.842C115.614 173.792 114.019 175.379 112.059 175.379ZM65.8176 138.345C64.1577 138.345 62.7977 139.687 62.7977 141.349V171.842C62.7977 173.493 64.147 174.846 65.8176 174.846H112.07C113.73 174.846 115.09 173.504 115.09 171.842V141.349C115.09 139.698 113.74 138.345 112.07 138.345H65.8176Z" fill="black"/>
<path d="M116.439 141.35V171.842C116.439 174.239 114.479 176.199 112.059 176.199H65.8176C63.4081 176.199 61.4376 174.25 61.4376 171.842V141.35C61.4376 138.952 63.3974 136.992 65.8176 136.992H112.07C114.479 136.992 116.439 138.942 116.439 141.35ZM63.6223 171.842C63.6223 173.046 64.6075 174.015 65.8069 174.015H112.059C113.269 174.015 114.244 173.035 114.244 171.842V141.35C114.244 140.146 113.259 139.176 112.059 139.176H65.8176C64.6075 139.176 63.633 140.156 63.633 141.35V171.842H63.6223Z" fill="#FFBB00"/>
<path d="M112.059 176.466H65.8176C63.2582 176.466 61.1699 174.388 61.1699 171.842V141.35C61.1699 138.803 63.2582 136.726 65.8176 136.726H112.07C114.629 136.726 116.718 138.803 116.718 141.35V171.842C116.707 174.388 114.629 176.466 112.059 176.466ZM65.8176 137.258C63.5473 137.258 61.7054 139.091 61.7054 141.35V171.842C61.7054 174.101 63.5473 175.933 65.8176 175.933H112.07C114.34 175.933 116.182 174.101 116.182 171.842V141.35C116.182 139.091 114.34 137.258 112.07 137.258H65.8176ZM112.059 174.282H65.8176C64.4576 174.282 63.3653 173.184 63.3653 171.842V141.35C63.3653 140.007 64.4683 138.91 65.8176 138.91H112.07C113.43 138.91 114.522 140.007 114.522 141.35V171.842C114.522 173.195 113.419 174.282 112.059 174.282ZM65.8176 139.432C64.7574 139.432 63.9007 140.284 63.9007 141.339V171.831C63.9007 172.886 64.7681 173.738 65.8176 173.738H112.07C113.13 173.738 113.987 172.875 113.987 171.831V141.339C113.987 140.284 113.119 139.432 112.07 139.432H65.8176Z" fill="black"/>
<path d="M111.877 141.531H75.0273V171.661H111.877V141.531Z" fill="#FFF2D2"/>
<path d="M111.877 171.927H75.0274C74.8774 171.927 74.7596 171.81 74.7596 171.661V141.531C74.7596 141.381 74.8774 141.264 75.0274 141.264H111.877C112.027 141.264 112.145 141.381 112.145 141.531V171.661C112.145 171.81 112.027 171.927 111.877 171.927ZM75.2951 171.394H111.609V141.797H75.2951V171.394Z" fill="black"/>
<path d="M75.0274 155.349H67.9166V158.013H75.0274V155.349Z" fill="white"/>
<path d="M75.0274 158.279H67.9059C67.756 158.279 67.6382 158.162 67.6382 158.013V155.349C67.6382 155.2 67.756 155.083 67.9059 155.083H75.0274C75.1773 155.083 75.2951 155.2 75.2951 155.349V158.013C75.2951 158.162 75.1773 158.279 75.0274 158.279ZM68.1843 157.746H74.7704V155.615H68.1843V157.746Z" fill="black"/>
<path d="M77.7367 146.996C77.5868 146.996 77.469 146.879 77.469 146.73V144.109C77.469 143.96 77.5868 143.843 77.7367 143.843H80.4675C80.6174 143.843 80.7352 143.96 80.7352 144.109C80.7352 144.258 80.6174 144.375 80.4675 144.375H78.0044V146.73C78.0044 146.879 77.8866 146.996 77.7367 146.996Z" fill="black"/>
<path d="M80.4675 169.306H77.7367C77.5868 169.306 77.469 169.189 77.469 169.04V166.419C77.469 166.27 77.5868 166.153 77.7367 166.153C77.8866 166.153 78.0044 166.27 78.0044 166.419V168.774H80.4675C80.6174 168.774 80.7352 168.891 80.7352 169.04C80.7352 169.189 80.6174 169.306 80.4675 169.306Z" fill="black"/>
<path d="M109.082 146.996C108.932 146.996 108.814 146.879 108.814 146.73V144.375H106.351C106.201 144.375 106.083 144.258 106.083 144.109C106.083 143.96 106.201 143.843 106.351 143.843H109.082C109.232 143.843 109.35 143.96 109.35 144.109V146.73C109.35 146.879 109.232 146.996 109.082 146.996Z" fill="black"/>
<path d="M109.082 169.306H106.351C106.201 169.306 106.083 169.189 106.083 169.04C106.083 168.891 106.201 168.774 106.351 168.774H108.814V166.419C108.814 166.27 108.932 166.153 109.082 166.153C109.232 166.153 109.35 166.27 109.35 166.419V169.04C109.35 169.189 109.232 169.306 109.082 169.306Z" fill="black"/>
<path d="M210.871 19.4865C210.871 14.0209 206.524 9.57812 201.148 9.57812C195.782 9.57812 191.424 14.0103 191.424 19.4865C191.424 22.8639 193.084 25.8471 195.622 27.637C196.018 27.914 196.286 28.3509 196.286 28.841V32.1224C196.286 33.5821 197.442 33.4542 198.877 33.4542H203.407C204.842 33.4542 205.999 33.5714 205.999 32.1224V28.841C205.999 28.3509 206.267 27.914 206.663 27.637C209.211 25.8471 210.871 22.8639 210.871 19.4865Z" fill="#FFBB00"/>
<path d="M198.288 33.7206C197.506 33.7206 196.842 33.678 196.425 33.2624C196.157 32.9961 196.029 32.6232 196.029 32.1118V28.8303C196.029 28.4574 195.825 28.0952 195.472 27.8501C192.773 25.9537 191.156 22.8213 191.156 19.4865C191.156 13.8824 195.643 9.31177 201.148 9.31177C206.652 9.31177 211.139 13.8718 211.139 19.4865C211.139 22.8213 209.522 25.9537 206.823 27.8501C206.481 28.0952 206.266 28.4574 206.266 28.8303V32.1118C206.266 32.6232 206.138 32.9961 205.87 33.2624C205.399 33.7312 204.628 33.7312 203.718 33.7206H198.877H198.567C198.481 33.7206 198.385 33.7206 198.288 33.7206ZM201.148 9.84448C195.932 9.84448 191.691 14.1701 191.691 19.4865C191.691 22.6508 193.223 25.6127 195.782 27.4239C196.264 27.7649 196.564 28.2976 196.564 28.8409V32.1224C196.564 32.4847 196.639 32.7297 196.8 32.8896C197.11 33.1985 197.796 33.1985 198.577 33.1879H203.418H203.728C204.51 33.1879 205.196 33.1985 205.506 32.8896C205.667 32.7297 205.742 32.4847 205.742 32.1224V28.8409C205.742 28.2976 206.031 27.7649 206.523 27.4239C209.083 25.6234 210.614 22.6615 210.614 19.4865C210.604 14.1701 206.363 9.84448 201.148 9.84448Z" fill="black"/>
<path d="M202.818 30.6416C202.668 30.6416 202.55 30.5244 202.55 30.3752V23.6311C202.55 23.4819 202.668 23.3647 202.818 23.3647C202.968 23.3647 203.086 23.4819 203.086 23.6311V30.3752C203.086 30.5137 202.968 30.6416 202.818 30.6416Z" fill="black"/>
<path d="M199.327 30.6416C199.177 30.6416 199.059 30.5244 199.059 30.3752V23.0664C199.059 22.9172 199.177 22.8 199.327 22.8C199.477 22.8 199.595 22.9172 199.595 23.0664V30.3752C199.595 30.5137 199.466 30.6416 199.327 30.6416Z" fill="black"/>
<path d="M203.836 35.6809C203.836 37.2684 202.572 38.5469 201.019 38.5469C199.466 38.5469 198.203 37.2684 198.203 35.6809C198.203 34.0935 199.466 34.1148 201.019 34.1148C202.572 34.1148 203.836 34.1041 203.836 35.6809Z" fill="white"/>
<path d="M201.019 38.8133C199.316 38.8133 197.935 37.407 197.935 35.681C197.935 34.8499 198.256 34.3172 198.909 34.0615C199.455 33.8484 200.184 33.8378 200.965 33.8484L201.073 34.1148V33.8484C201.844 33.8484 202.583 33.8484 203.129 34.0615C203.782 34.3172 204.103 34.8499 204.103 35.681C204.092 37.407 202.711 38.8133 201.019 38.8133ZM200.912 34.3812C200.205 34.3812 199.552 34.3812 199.102 34.5623C198.792 34.6901 198.46 34.9139 198.46 35.681C198.46 37.1193 199.605 38.2806 201.008 38.2806C202.411 38.2806 203.557 37.1086 203.557 35.681C203.557 34.9139 203.236 34.6795 202.914 34.5623C202.465 34.3812 201.779 34.3812 201.062 34.3812H200.955C200.944 34.3812 200.933 34.3812 200.912 34.3812Z" fill="black"/>
<path d="M196.286 29.9277V32.9961C196.286 34.0296 197.11 34.8713 198.138 34.8713H204.157C205.185 34.8713 206.009 34.0296 206.009 32.9961V29.9277H196.286Z" fill="white"/>
<path d="M204.157 35.1376H198.138C196.971 35.1376 196.018 34.1788 196.018 32.9961V29.9277C196.018 29.7786 196.136 29.6614 196.286 29.6614H205.999C206.149 29.6614 206.266 29.7786 206.266 29.9277V32.9961C206.277 34.1788 205.324 35.1376 204.157 35.1376ZM196.553 30.1941V32.9961C196.553 33.8804 197.26 34.6049 198.138 34.6049H204.157C205.035 34.6049 205.742 33.8804 205.742 32.9961V30.1941H196.553Z" fill="black"/>
<path d="M203.932 23.6843C202.754 23.6843 202.036 22.9385 200.826 21.692C199.584 20.3602 198.395 19.8275 197.464 20.1897C196.778 20.4561 196.457 21.1273 196.457 21.4895C196.457 22.3951 197.185 23.1409 198.074 23.1409C198.428 23.1409 198.77 23.0237 199.049 22.8C199.166 22.7041 199.338 22.7254 199.423 22.8426C199.509 22.9598 199.498 23.1303 199.381 23.2155C199.006 23.5138 198.545 23.663 198.074 23.663C196.885 23.663 195.922 22.6828 195.922 21.4789C195.922 20.8503 196.425 20.0086 197.271 19.6783C197.935 19.4226 199.316 19.2841 201.212 21.3084C202.443 22.5763 203.022 23.1303 203.932 23.1303C204.821 23.1303 205.549 22.3951 205.549 21.4789C205.549 20.5626 204.821 19.8275 203.932 19.8275C203.579 19.8275 203.236 19.9447 202.957 20.1684C202.84 20.2536 202.668 20.2323 202.583 20.1258C202.497 20.0086 202.508 19.8381 202.625 19.7529C203 19.4546 203.461 19.3054 203.932 19.3054C205.121 19.3054 206.084 20.2856 206.084 21.4895C206.084 22.6935 205.121 23.6843 203.932 23.6843Z" fill="black"/>
<path d="M186.583 19.5186H182.021C181.871 19.5186 181.753 19.4014 181.753 19.2522C181.753 19.103 181.871 18.9858 182.021 18.9858H186.583C186.733 18.9858 186.851 19.103 186.851 19.2522C186.851 19.4014 186.733 19.5186 186.583 19.5186Z" fill="black"/>
<path d="M220.199 19.5186H215.637C215.487 19.5186 215.369 19.4014 215.369 19.2522C215.369 19.103 215.487 18.9858 215.637 18.9858H220.199C220.349 18.9858 220.466 19.103 220.466 19.2522C220.466 19.4014 220.349 19.5186 220.199 19.5186Z" fill="black"/>
<path d="M187.611 32.9535C187.547 32.9535 187.472 32.9322 187.418 32.879C187.311 32.7724 187.311 32.602 187.418 32.5061L190.642 29.2991C190.749 29.1926 190.92 29.1926 191.017 29.2991C191.113 29.4057 191.124 29.5762 191.017 29.672L187.793 32.879C187.75 32.9216 187.686 32.9535 187.611 32.9535Z" fill="black"/>
<path d="M211.385 9.3012C211.321 9.3012 211.246 9.27989 211.192 9.22662C211.085 9.12008 211.085 8.94961 211.192 8.85372L214.416 5.6468C214.523 5.54026 214.694 5.54026 214.791 5.6468C214.887 5.75334 214.898 5.92381 214.791 6.0197L211.567 9.22662C211.514 9.27989 211.449 9.3012 211.385 9.3012Z" fill="black"/>
<path d="M201.115 5.07141C200.965 5.07141 200.848 4.95421 200.848 4.80505V0.266355C200.848 0.117196 200.965 0 201.115 0C201.265 0 201.383 0.117196 201.383 0.266355V4.80505C201.383 4.95421 201.255 5.07141 201.115 5.07141Z" fill="black"/>
<path d="M214.609 32.9535C214.544 32.9535 214.469 32.9322 214.416 32.8789L211.192 29.672C211.085 29.5655 211.085 29.395 211.192 29.2991C211.299 29.2032 211.471 29.1926 211.567 29.2991L214.791 32.506C214.898 32.6126 214.898 32.783 214.791 32.8789C214.748 32.9215 214.673 32.9535 214.609 32.9535Z" fill="black"/>
<path d="M190.845 9.30116C190.781 9.30116 190.706 9.27985 190.653 9.22658L187.429 6.01966C187.322 5.91312 187.322 5.74265 187.429 5.64676C187.536 5.55088 187.708 5.54022 187.804 5.64676L191.027 8.85368C191.135 8.96023 191.135 9.13069 191.027 9.22658C190.974 9.27985 190.91 9.30116 190.845 9.30116Z" fill="black"/>
<path d="M172.597 24.803H58V87.3326H172.597V24.803Z" fill="white"/>
<path d="M172.597 87.5989H58C57.8501 87.5989 57.7323 87.4817 57.7323 87.3326V24.803C57.7323 24.6538 57.8501 24.5366 58 24.5366H172.597C172.747 24.5366 172.865 24.6538 172.865 24.803V87.3326C172.865 87.4817 172.747 87.5989 172.597 87.5989ZM58.2678 87.0662H172.329V25.0693H58.2678V87.0662Z" fill="black"/>
<path d="M172.565 24.803H58.0428V30.9185H172.565V24.803Z" fill="#FFEAB6"/>
<path d="M172.565 31.1956H58.0429C57.8929 31.1956 57.7751 31.0784 57.7751 30.9292V24.8137C57.7751 24.6646 57.8929 24.5474 58.0429 24.5474H172.565C172.715 24.5474 172.833 24.6646 172.833 24.8137V30.9292C172.833 31.0677 172.715 31.1956 172.565 31.1956ZM58.3106 30.6629H172.297V25.0801H58.3106V30.6629Z" fill="black"/>
<path d="M64.0827 27.8608C64.0827 28.564 63.5151 29.1393 62.8083 29.1393C62.1015 29.1393 61.5339 28.5746 61.5339 27.8608C61.5339 27.1576 62.1015 26.5823 62.8083 26.5823C63.5044 26.5929 64.0827 27.1576 64.0827 27.8608Z" fill="#C5362E"/>
<path d="M62.8083 29.4056C61.9516 29.4056 61.2662 28.7131 61.2662 27.8608C61.2662 27.0084 61.9623 26.3159 62.8083 26.3159C63.6651 26.3159 64.3504 27.0084 64.3504 27.8608C64.3504 28.7131 63.6543 29.4056 62.8083 29.4056ZM62.8083 26.8593C62.2515 26.8593 61.8017 27.3068 61.8017 27.8714C61.8017 28.4361 62.2515 28.8836 62.8083 28.8836C63.3652 28.8836 63.815 28.4361 63.815 27.8714C63.815 27.3068 63.3652 26.8593 62.8083 26.8593Z" fill="black"/>
<path d="M67.2846 29.1287C67.9884 29.1287 68.559 28.5611 68.559 27.8609C68.559 27.1607 67.9884 26.593 67.2846 26.593C66.5808 26.593 66.0103 27.1607 66.0103 27.8609C66.0103 28.5611 66.5808 29.1287 67.2846 29.1287Z" fill="#F5DC34"/>
<path d="M67.2847 29.4056C66.4279 29.4056 65.7426 28.7131 65.7426 27.8608C65.7426 27.0084 66.4386 26.3159 67.2847 26.3159C68.1414 26.3159 68.8267 27.0084 68.8267 27.8608C68.8267 28.7131 68.1307 29.4056 67.2847 29.4056ZM67.2847 26.8593C66.7278 26.8593 66.278 27.3068 66.278 27.8714C66.278 28.4361 66.7278 28.8836 67.2847 28.8836C67.8415 28.8836 68.2913 28.4361 68.2913 27.8714C68.2913 27.3068 67.8415 26.8593 67.2847 26.8593Z" fill="black"/>
<path d="M71.7611 29.1287C72.4649 29.1287 73.0354 28.5611 73.0354 27.8609C73.0354 27.1607 72.4649 26.593 71.7611 26.593C71.0573 26.593 70.4867 27.1607 70.4867 27.8609C70.4867 28.5611 71.0573 29.1287 71.7611 29.1287Z" fill="#6AA742"/>
<path d="M71.7611 29.4056C70.9044 29.4056 70.219 28.7131 70.219 27.8608C70.219 27.0084 70.9151 26.3159 71.7611 26.3159C72.6178 26.3159 73.3032 27.0084 73.3032 27.8608C73.3032 28.7131 72.6178 29.4056 71.7611 29.4056ZM71.7611 26.8593C71.2042 26.8593 70.7544 27.3068 70.7544 27.8714C70.7544 28.4361 71.2042 28.8836 71.7611 28.8836C72.318 28.8836 72.7677 28.4361 72.7677 27.8714C72.7677 27.3068 72.318 26.8593 71.7611 26.8593Z" fill="black"/>
<g opacity="0.8">
<path d="M139.057 76.5505H64.1149V84.179H139.057V76.5505Z" fill="#FFDD88"/>
<path d="M139.067 84.4453H64.1149C63.965 84.4453 63.8472 84.3281 63.8472 84.179V76.5505C63.8472 76.4014 63.965 76.2842 64.1149 76.2842H139.057C139.206 76.2842 139.324 76.4014 139.324 76.5505V84.179C139.335 84.3281 139.217 84.4453 139.067 84.4453ZM64.3826 83.9126H138.789V76.8169H64.3826V83.9126Z" fill="black"/>
<path d="M79.0218 55.7322H64.1149V72.6404H79.0218V55.7322Z" fill="#FFF5DE"/>
<path d="M79.0218 72.8961H64.1149C63.965 72.8961 63.8472 72.7789 63.8472 72.6298V55.7322C63.8472 55.583 63.965 55.4658 64.1149 55.4658H79.0218C79.1718 55.4658 79.2896 55.583 79.2896 55.7322V72.6404C79.2896 72.7789 79.1718 72.8961 79.0218 72.8961ZM64.3826 72.3634H78.7541V55.9985H64.3826V72.3634Z" fill="black"/>
<path d="M139.056 55.7322H124.15V72.6404H139.056V55.7322Z" fill="#FFF5DE"/>
<path d="M139.067 72.8961H124.16C124.01 72.8961 123.893 72.7789 123.893 72.6298V55.7322C123.893 55.583 124.01 55.4658 124.16 55.4658H139.067C139.217 55.4658 139.335 55.583 139.335 55.7322V72.6404C139.335 72.7789 139.217 72.8961 139.067 72.8961ZM124.417 72.3634H138.789V55.9985H124.417V72.3634Z" fill="black"/>
<path d="M121.74 55.7322H81.2921V72.6404H121.74V55.7322Z" fill="#FFBB00"/>
<path d="M121.74 72.8961H81.2921C81.1422 72.8961 81.0244 72.7789 81.0244 72.6298V55.7322C81.0244 55.583 81.1422 55.4658 81.2921 55.4658H121.74C121.89 55.4658 122.008 55.583 122.008 55.7322V72.6404C122.008 72.7789 121.89 72.8961 121.74 72.8961ZM81.5599 72.3634H121.472V55.9985H81.5599V72.3634Z" fill="black"/>
<path d="M139.206 50.5969H64.1149V52.6319H139.206V50.5969Z" fill="#FFE3AB"/>
<path d="M139.206 52.8982H64.1149C63.965 52.8982 63.8472 52.781 63.8472 52.6319V50.5969C63.8472 50.4478 63.965 50.3306 64.1149 50.3306H139.206C139.356 50.3306 139.474 50.4478 139.474 50.5969V52.6319C139.474 52.781 139.356 52.8982 139.206 52.8982ZM64.3826 52.3655H138.939V50.8633H64.3826V52.3655Z" fill="black"/>
<path d="M139.206 46.8892H64.1149V48.9241H139.206V46.8892Z" fill="#FFE3AB"/>
<path d="M139.206 49.1905H64.1149C63.965 49.1905 63.8472 49.0733 63.8472 48.9241V46.8892C63.8472 46.74 63.965 46.6228 64.1149 46.6228H139.206C139.356 46.6228 139.474 46.74 139.474 46.8892V48.9241C139.474 49.0733 139.356 49.1905 139.206 49.1905ZM64.3826 48.6578H138.939V47.1555H64.3826V48.6578Z" fill="black"/>
<path d="M139.206 43.1814H64.1149V45.2164H139.206V43.1814Z" fill="#FFE3AB"/>
<path d="M139.206 45.4827H64.1149C63.965 45.4827 63.8472 45.3655 63.8472 45.2163V43.1814C63.8472 43.0322 63.965 42.915 64.1149 42.915H139.206C139.356 42.915 139.474 43.0322 139.474 43.1814V45.2163C139.474 45.3655 139.356 45.4827 139.206 45.4827ZM64.3826 44.95H138.939V43.4477H64.3826V44.95Z" fill="black"/>
<path d="M139.206 33.2517H64.1149V40.4646H139.206V33.2517Z" fill="#FFF5DE"/>
<path d="M139.206 40.7417H64.1149C63.965 40.7417 63.8472 40.6245 63.8472 40.4754V33.2624C63.8472 33.1133 63.965 32.9961 64.1149 32.9961H139.206C139.356 32.9961 139.474 33.1133 139.474 33.2624V40.4754C139.474 40.6245 139.356 40.7417 139.206 40.7417ZM64.3826 40.209H138.939V33.5288H64.3826V40.209Z" fill="black"/>
</g>
<path d="M166.482 33.2517H142.858V53.5267H166.482V33.2517Z" fill="#FFDD88"/>
<path d="M166.482 53.793H142.858C142.708 53.793 142.591 53.6758 142.591 53.5267V33.2517C142.591 33.1025 142.708 32.9854 142.858 32.9854H166.482C166.632 32.9854 166.75 33.1025 166.75 33.2517V53.5267C166.75 53.6758 166.632 53.793 166.482 53.793ZM143.126 53.2603H166.215V33.5181H143.126V53.2603Z" fill="black"/>
<path d="M164.255 48.647H145.096V50.4795H164.255V48.647Z" fill="white"/>
<path d="M164.255 50.7459H145.096C144.947 50.7459 144.829 50.6287 144.829 50.4795V48.647C144.829 48.4978 144.947 48.3806 145.096 48.3806H164.255C164.405 48.3806 164.523 48.4978 164.523 48.647V50.4795C164.523 50.6287 164.394 50.7459 164.255 50.7459ZM145.364 50.2131H163.987V48.9133H145.364V50.2131Z" fill="black"/>
<path d="M164.255 45.5891H145.096V47.4216H164.255V45.5891Z" fill="white"/>
<path d="M164.255 47.688H145.096C144.947 47.688 144.829 47.5708 144.829 47.4216V45.5891C144.829 45.44 144.947 45.3228 145.096 45.3228H164.255C164.405 45.3228 164.523 45.44 164.523 45.5891V47.4216C164.523 47.5708 164.394 47.688 164.255 47.688ZM145.364 47.1553H163.987V45.8555H145.364V47.1553Z" fill="black"/>
<path d="M164.255 42.5422H145.096V44.3748H164.255V42.5422Z" fill="white"/>
<path d="M164.255 44.6411H145.096C144.947 44.6411 144.829 44.5239 144.829 44.3748V42.5422C144.829 42.3931 144.947 42.2759 145.096 42.2759H164.255C164.405 42.2759 164.523 42.3931 164.523 42.5422V44.3748C164.523 44.5239 164.394 44.6411 164.255 44.6411ZM145.364 44.1084H163.987V42.8086H145.364V44.1084Z" fill="black"/>
<path d="M164.255 39.4951H145.096V41.3276H164.255V39.4951Z" fill="white"/>
<path d="M164.255 41.594H145.096C144.947 41.594 144.829 41.4768 144.829 41.3276V39.4951C144.829 39.346 144.947 39.2288 145.096 39.2288H164.255C164.405 39.2288 164.523 39.346 164.523 39.4951V41.3276C164.523 41.4661 164.394 41.594 164.255 41.594ZM145.364 41.0613H163.987V39.7615H145.364V41.0613Z" fill="black"/>
<path d="M164.255 36.4373H145.096V38.2698H164.255V36.4373Z" fill="white"/>
<path d="M164.255 38.5361H145.096C144.947 38.5361 144.829 38.4189 144.829 38.2698V36.4373C144.829 36.2881 144.947 36.1709 145.096 36.1709H164.255C164.405 36.1709 164.523 36.2881 164.523 36.4373V38.2698C164.523 38.4189 164.394 38.5361 164.255 38.5361ZM145.364 38.0034H163.987V36.7036H145.364V38.0034Z" fill="black"/>
<path d="M166.482 57.7563H142.858V84.1788H166.482V57.7563Z" fill="#FFC943"/>
<path d="M166.482 84.4452H142.858C142.708 84.4452 142.591 84.328 142.591 84.1788V57.7563C142.591 57.6072 142.708 57.49 142.858 57.49H166.482C166.632 57.49 166.75 57.6072 166.75 57.7563V84.1788C166.75 84.328 166.632 84.4452 166.482 84.4452ZM143.126 83.9124H166.215V58.0227H143.126V83.9124Z" fill="black"/>
<path d="M23.6669 104.305C23.517 104.305 23.3992 104.188 23.3992 104.038V101.3C23.3992 101.151 23.517 101.034 23.6669 101.034C23.8168 101.034 23.9346 101.151 23.9346 101.3V104.038C23.9346 104.188 23.8061 104.305 23.6669 104.305ZM23.6669 98.8391C23.517 98.8391 23.3992 98.7219 23.3992 98.5727V95.8346C23.3992 95.6854 23.517 95.5682 23.6669 95.5682C23.8168 95.5682 23.9346 95.6854 23.9346 95.8346V98.5727C23.9346 98.7219 23.8061 98.8391 23.6669 98.8391ZM24.6093 93.6611C24.5236 93.6611 24.4379 93.6185 24.3844 93.5439C24.2987 93.4161 24.3416 93.2563 24.4594 93.171C24.7271 93.0006 25.0269 92.9047 25.3375 92.9047H27.3187C27.4686 92.9047 27.5864 93.0219 27.5864 93.171C27.5864 93.3202 27.4686 93.4374 27.3187 93.4374H25.3375C25.134 93.4374 24.9413 93.5013 24.7592 93.6185C24.7164 93.6505 24.6628 93.6611 24.6093 93.6611ZM35.9394 93.4374H35.5753C35.4254 93.4374 35.3076 93.3202 35.3076 93.171C35.3076 93.0219 35.4254 92.9047 35.5753 92.9047H35.9394C36.5391 92.9047 37.0746 92.372 37.2673 91.5729C37.2995 91.4344 37.4494 91.3492 37.5886 91.3811C37.7278 91.4131 37.8242 91.5623 37.7814 91.7008C37.5244 92.7449 36.7854 93.4374 35.9394 93.4374ZM32.8124 93.4374H30.0602C29.9102 93.4374 29.7924 93.3202 29.7924 93.171C29.7924 93.0219 29.9102 92.9047 30.0602 92.9047H32.8124C32.9623 92.9047 33.0801 93.0219 33.0801 93.171C33.0801 93.3202 32.9623 93.4374 32.8124 93.4374ZM37.61 89.1864C37.4601 89.1864 37.3423 89.0692 37.3423 88.92V86.1819C37.3423 86.0327 37.4601 85.9155 37.61 85.9155C37.76 85.9155 37.8778 86.0327 37.8778 86.1819V88.92C37.8778 89.0585 37.76 89.1864 37.61 89.1864ZM37.61 83.7101C37.4601 83.7101 37.3423 83.5929 37.3423 83.4437V80.7056C37.3423 80.5564 37.4601 80.4392 37.61 80.4392C37.76 80.4392 37.8778 80.5564 37.8778 80.7056V83.4437C37.8778 83.5929 37.76 83.7101 37.61 83.7101ZM37.7921 78.2658C37.76 78.2658 37.7278 78.2551 37.6957 78.2445C37.5565 78.1912 37.4922 78.0421 37.5351 77.9035C37.867 77.0406 38.531 76.5078 39.2806 76.5078H39.966C40.1159 76.5078 40.2337 76.625 40.2337 76.7742C40.2337 76.9234 40.1159 77.0406 39.966 77.0406H39.2806C38.7559 77.0406 38.2847 77.4454 38.0384 78.0953C38.0063 78.1912 37.8992 78.2658 37.7921 78.2658ZM59.6599 77.0299H59.2315C59.0816 77.0299 58.9638 76.9127 58.9638 76.7635C58.9638 76.6144 59.0816 76.4972 59.2315 76.4972H59.6599C60.2382 76.4972 60.7629 75.9858 60.9771 75.2187C61.0199 75.0802 61.1698 74.9949 61.3091 75.0269C61.4483 75.0695 61.534 75.208 61.5018 75.3572C61.2127 76.3693 60.4738 77.0299 59.6599 77.0299ZM56.4793 77.0299H53.7271C53.5772 77.0299 53.4594 76.9127 53.4594 76.7635C53.4594 76.6144 53.5772 76.4972 53.7271 76.4972H56.4793C56.6292 76.4972 56.747 76.6144 56.747 76.7635C56.747 76.9127 56.6292 77.0299 56.4793 77.0299ZM50.9749 77.0299H48.2227C48.0727 77.0299 47.9549 76.9127 47.9549 76.7635C47.9549 76.6144 48.0727 76.4972 48.2227 76.4972H50.9749C51.1248 76.4972 51.2426 76.6144 51.2426 76.7635C51.2426 76.9127 51.1248 77.0299 50.9749 77.0299ZM45.4811 77.0299H42.7289C42.579 77.0299 42.4612 76.9127 42.4612 76.7635C42.4612 76.6144 42.579 76.4972 42.7289 76.4972H45.4811C45.6311 76.4972 45.7489 76.6144 45.7489 76.7635C45.7489 76.9127 45.6311 77.0299 45.4811 77.0299ZM61.3305 72.8321C61.1806 72.8321 61.0628 72.7149 61.0628 72.5658V69.8277C61.0628 69.6785 61.1806 69.5613 61.3305 69.5613C61.4804 69.5613 61.5982 69.6785 61.5982 69.8277V72.5658C61.5982 72.7149 61.4804 72.8321 61.3305 72.8321ZM61.3305 67.3665C61.1806 67.3665 61.0628 67.2493 61.0628 67.1002V66.3224C61.0628 65.5447 61.3305 64.8308 61.8017 64.3514C61.9088 64.2448 62.0801 64.2448 62.1765 64.3514C62.2836 64.4579 62.2836 64.6177 62.1765 64.7243C61.8124 65.0972 61.5875 65.6938 61.5875 66.3224V67.1002C61.5982 67.2493 61.4804 67.3665 61.3305 67.3665ZM83.8622 64.3301H81.11C80.9601 64.3301 80.8423 64.2129 80.8423 64.0637C80.8423 63.9146 80.9601 63.7974 81.11 63.7974H83.8622C84.0122 63.7974 84.13 63.9146 84.13 64.0637C84.13 64.2129 84.0122 64.3301 83.8622 64.3301ZM78.3685 64.3301H75.6163C75.4664 64.3301 75.3486 64.2129 75.3486 64.0637C75.3486 63.9146 75.4664 63.7974 75.6163 63.7974H78.3685C78.5184 63.7974 78.6362 63.9146 78.6362 64.0637C78.6362 64.2129 78.5077 64.3301 78.3685 64.3301ZM72.8641 64.3301H70.1119C69.9619 64.3301 69.8442 64.2129 69.8442 64.0637C69.8442 63.9146 69.9619 63.7974 70.1119 63.7974H72.8641C73.014 63.7974 73.1318 63.9146 73.1318 64.0637C73.1318 64.2129 73.014 64.3301 72.8641 64.3301ZM67.3597 64.3301H64.6074C64.4575 64.3301 64.3397 64.2129 64.3397 64.0637C64.3397 63.9146 64.4575 63.7974 64.6074 63.7974H67.3597C67.5096 63.7974 67.6274 63.9146 67.6274 64.0637C67.6274 64.2129 67.5096 64.3301 67.3597 64.3301Z" fill="black"/>
<path d="M85.9826 65.0332C86.4735 65.0332 86.8714 64.6373 86.8714 64.1489C86.8714 63.6606 86.4735 63.2646 85.9826 63.2646C85.4917 63.2646 85.0938 63.6606 85.0938 64.1489C85.0938 64.6373 85.4917 65.0332 85.9826 65.0332Z" fill="white"/>
<path d="M85.9826 65.2996C85.3508 65.2996 84.826 64.7882 84.826 64.1489C84.826 63.5097 85.3401 62.9983 85.9826 62.9983C86.6252 62.9983 87.1392 63.5097 87.1392 64.1489C87.1392 64.7882 86.6145 65.2996 85.9826 65.2996ZM85.9826 63.5417C85.6399 63.5417 85.3615 63.8187 85.3615 64.1596C85.3615 64.5005 85.6399 64.7775 85.9826 64.7775C86.3253 64.7775 86.6037 64.5005 86.6037 64.1596C86.593 63.808 86.3146 63.5417 85.9826 63.5417Z" fill="black"/>
<path d="M13.097 109.994C13.097 104.251 17.7769 99.6062 23.5383 99.6062C29.2998 99.6062 33.9796 104.262 33.9796 109.994V123.759C33.9796 129.502 29.2998 134.147 23.5383 134.147C17.7769 134.147 13.097 129.491 13.097 123.759V109.994Z" fill="#FFF5DE"/>
<path d="M23.5384 134.414C17.627 134.414 12.8293 129.63 12.8293 123.759V109.994C12.8293 104.113 17.6377 99.3398 23.5384 99.3398C29.439 99.3398 34.2474 104.124 34.2474 109.994V123.759C34.2474 129.64 29.4497 134.414 23.5384 134.414ZM23.5384 99.8619C17.9268 99.8619 13.3648 104.401 13.3648 109.983V123.749C13.3648 129.331 17.9268 133.87 23.5384 133.87C29.1499 133.87 33.7119 129.331 33.7119 123.749V109.983C33.7119 104.411 29.1499 99.8619 23.5384 99.8619Z" fill="black"/>
<path d="M22.5639 113.734C20.9468 113.734 18.1303 113.34 16.5454 110.825C15.4959 109.163 15.1961 106.51 15.6673 102.941C15.678 102.888 15.6994 102.835 15.7315 102.792C16.117 102.376 16.5347 101.94 16.9845 101.567C17.1023 101.471 17.2736 101.492 17.3593 101.609C17.4557 101.726 17.4343 101.886 17.3165 101.982C16.9309 102.291 16.5775 102.653 16.1813 103.09C15.7529 106.446 16.0314 109.025 16.9952 110.538C18.4088 112.764 20.8826 113.222 22.6602 113.19C22.8744 113.19 23.3028 113.18 23.7204 113.18L24.5879 113.169C26.3977 113.148 28.8393 112.647 30.1994 110.388C31.1204 108.854 31.3453 106.276 30.8526 102.93C30.4778 102.547 30.0923 102.174 29.6854 101.854C29.5676 101.769 29.5461 101.599 29.6425 101.481C29.7282 101.364 29.8995 101.343 30.0173 101.439C30.4778 101.79 30.8848 102.206 31.3024 102.632C31.3453 102.675 31.3667 102.728 31.3774 102.781C31.9128 106.34 31.6772 108.993 30.6706 110.676C29.1071 113.276 26.2049 113.691 24.6093 113.712L23.7419 113.723C23.3242 113.723 22.8958 113.734 22.6817 113.734C22.6388 113.734 22.6067 113.734 22.5639 113.734Z" fill="black"/>
<path d="M23.624 113.531C23.4741 113.531 23.3563 113.414 23.3563 113.265V99.6807C23.3563 99.5315 23.4741 99.4143 23.624 99.4143C23.774 99.4143 23.8918 99.5315 23.8918 99.6807V113.265C23.8918 113.414 23.7633 113.531 23.624 113.531Z" fill="black"/>
<path d="M209.543 70.7866H206.791C206.641 70.7866 206.523 70.6694 206.523 70.5203C206.523 70.3711 206.641 70.2539 206.791 70.2539H209.543C209.693 70.2539 209.811 70.3711 209.811 70.5203C209.811 70.6694 209.693 70.7866 209.543 70.7866ZM204.039 70.7866H201.287C201.137 70.7866 201.019 70.6694 201.019 70.5203C201.019 70.3711 201.137 70.2539 201.287 70.2539H204.039C204.189 70.2539 204.307 70.3711 204.307 70.5203C204.307 70.6694 204.189 70.7866 204.039 70.7866ZM198.545 70.7866H195.793C195.643 70.7866 195.525 70.6694 195.525 70.5203C195.525 70.3711 195.643 70.2539 195.793 70.2539H198.545C198.695 70.2539 198.813 70.3711 198.813 70.5203C198.813 70.6694 198.684 70.7866 198.545 70.7866ZM193.041 70.7866H190.288C190.138 70.7866 190.021 70.6694 190.021 70.5203C190.021 70.3711 190.138 70.2539 190.288 70.2539H193.041C193.191 70.2539 193.308 70.3711 193.308 70.5203C193.308 70.6694 193.191 70.7866 193.041 70.7866ZM187.536 70.7866H184.784C184.634 70.7866 184.516 70.6694 184.516 70.5203C184.516 70.3711 184.634 70.2539 184.784 70.2539H187.536C187.686 70.2539 187.804 70.3711 187.804 70.5203C187.804 70.6694 187.686 70.7866 187.536 70.7866ZM182.042 70.7866H179.29C179.14 70.7866 179.023 70.6694 179.023 70.5203C179.023 70.3711 179.14 70.2539 179.29 70.2539H182.042C182.192 70.2539 182.31 70.3711 182.31 70.5203C182.31 70.6694 182.192 70.7866 182.042 70.7866ZM176.538 70.7866H173.786C173.636 70.7866 173.518 70.6694 173.518 70.5203C173.518 70.3711 173.636 70.2539 173.786 70.2539H176.538C176.688 70.2539 176.806 70.3711 176.806 70.5203C176.806 70.6694 176.688 70.7866 176.538 70.7866ZM171.044 70.7866H168.292C168.142 70.7866 168.024 70.6694 168.024 70.5203C168.024 70.3711 168.142 70.2539 168.292 70.2539H171.044C171.194 70.2539 171.312 70.3711 171.312 70.5203C171.312 70.6694 171.194 70.7866 171.044 70.7866ZM165.54 70.7866H163.355C163.205 70.7866 163.088 70.6694 163.088 70.5203C163.088 70.3711 163.205 70.2539 163.355 70.2539H165.54C165.69 70.2539 165.808 70.3711 165.808 70.5203C165.808 70.6694 165.69 70.7866 165.54 70.7866Z" fill="black"/>
<path d="M160.399 71.4046C160.89 71.4046 161.288 71.0087 161.288 70.5203C161.288 70.0319 160.89 69.636 160.399 69.636C159.909 69.636 159.511 70.0319 159.511 70.5203C159.511 71.0087 159.909 71.4046 160.399 71.4046Z" fill="white"/>
<path d="M160.399 71.6709C159.768 71.6709 159.243 71.1595 159.243 70.5203C159.243 69.881 159.757 69.3696 160.399 69.3696C161.042 69.3696 161.556 69.881 161.556 70.5203C161.556 71.1595 161.031 71.6709 160.399 71.6709ZM160.399 69.913C160.057 69.913 159.778 70.19 159.778 70.5309C159.778 70.8719 160.057 71.1489 160.399 71.1489C160.742 71.1489 161.021 70.8719 161.021 70.5309C161.01 70.19 160.742 69.913 160.399 69.913Z" fill="black"/>
<path d="M211.717 54.1021H226.196C227.052 54.1021 227.748 54.7946 227.748 55.6469V81.9841C227.748 82.8365 227.052 83.529 226.196 83.529H207.38C206.523 83.529 205.827 82.8365 205.827 81.9841V59.9725L211.717 54.1021Z" fill="#FFEAB6"/>
<path d="M226.196 83.7954H207.38C206.373 83.7954 205.56 82.9856 205.56 81.9841V59.9725C205.56 59.8979 205.592 59.834 205.635 59.7807L211.535 53.9103C211.589 53.857 211.653 53.8357 211.728 53.8357H226.207C227.213 53.8357 228.027 54.6454 228.027 55.6469V81.9841C228.016 82.975 227.192 83.7954 226.196 83.7954ZM206.084 60.0791V81.9841C206.084 82.6873 206.663 83.2626 207.369 83.2626H226.185C226.892 83.2626 227.47 82.6873 227.47 81.9841V55.6469C227.47 54.9437 226.892 54.3684 226.185 54.3684H211.824L206.084 60.0791Z" fill="black"/>
<path d="M211.717 54.1021V58.6194C211.717 59.3652 211.107 59.9619 210.368 59.9619H205.827L211.717 54.1021Z" fill="white"/>
<path d="M210.368 60.2389H205.816C205.709 60.2389 205.613 60.175 205.57 60.0791C205.527 59.9832 205.549 59.866 205.624 59.7914L211.524 53.9209C211.599 53.8464 211.717 53.8251 211.814 53.8677C211.91 53.9103 211.974 54.0062 211.974 54.1127V58.6301C211.985 59.5144 211.257 60.2389 210.368 60.2389ZM206.47 59.7062H210.368C210.968 59.7062 211.449 59.2267 211.449 58.6301V54.752L206.47 59.7062Z" fill="black"/>
<path d="M230.608 79.8747C231.229 79.8854 231.732 79.3846 231.743 78.7773V78.7028C231.754 78.0635 231.24 77.5414 230.597 77.5414C230.265 77.5414 229.976 77.2964 229.88 76.9768C229.73 76.4867 229.526 76.0072 229.259 75.5598C229.098 75.2827 229.152 74.9418 229.387 74.7181C229.848 74.2706 229.848 73.5461 229.409 73.088C228.948 72.6192 228.198 72.5979 227.738 73.056C227.492 73.3011 227.106 73.3543 226.796 73.1945C226.378 72.9708 225.939 72.8003 225.489 72.6725C225.146 72.5766 224.879 72.2889 224.879 71.9373C224.889 71.2874 224.375 70.7441 223.722 70.7441C223.069 70.7334 222.544 71.2555 222.533 71.8947C222.533 72.2676 222.266 72.5979 221.902 72.7044C221.473 72.8323 221.066 73.0028 220.67 73.2265C220.359 73.397 219.974 73.3756 219.717 73.1199C219.256 72.6512 218.507 72.6298 218.036 73.0773C217.575 73.5248 217.564 74.2706 218.014 74.7287C218.271 74.9844 218.346 75.3786 218.164 75.6876C217.929 76.1031 217.746 76.5293 217.618 76.9661C217.522 77.307 217.232 77.5734 216.879 77.5734C216.226 77.5628 215.69 78.0848 215.68 78.7241C215.669 79.374 216.194 79.896 216.847 79.9067C217.19 79.9067 217.489 80.1411 217.586 80.4714C217.725 80.9614 217.918 81.4409 218.175 81.899C218.325 82.176 218.271 82.5276 218.046 82.7407C217.597 83.1775 217.586 83.902 218.025 84.3495L218.057 84.3921C218.507 84.8396 219.235 84.8502 219.685 84.4134C219.931 84.179 220.306 84.1684 220.606 84.3282C221.066 84.5839 221.559 84.7863 222.062 84.9248C222.362 85.01 222.566 85.2871 222.566 85.596C222.555 86.2033 223.047 86.7041 223.669 86.7147H223.786C224.407 86.7254 224.911 86.2246 224.921 85.6067C224.921 85.2764 225.179 85.01 225.5 84.9142C226.003 84.7757 226.496 84.5626 226.967 84.2962C227.235 84.1364 227.588 84.179 227.813 84.4028C228.241 84.8396 228.937 84.8396 229.366 84.4241L229.451 84.3388C229.901 83.902 229.901 83.1988 229.473 82.7514C229.248 82.5276 229.194 82.1867 229.355 81.9097C229.623 81.4302 229.837 80.9188 229.965 80.3968C230.008 80.0878 230.287 79.8641 230.608 79.8747ZM225.436 80.4607C224.525 81.377 223.005 81.3983 222.062 80.4714C220.563 78.9798 221.623 76.3695 223.797 76.4228C225.885 76.476 226.903 78.9904 225.436 80.4607Z" fill="#FFBB00"/>
<path d="M223.776 86.981H223.765H223.658C222.897 86.9704 222.287 86.3524 222.298 85.596C222.298 85.4042 222.169 85.2337 221.998 85.1911C221.473 85.0526 220.97 84.8395 220.477 84.5731C220.263 84.456 220.017 84.4666 219.877 84.6158C219.61 84.8821 219.246 85.0206 218.871 85.0206C218.496 85.0206 218.132 84.8608 217.875 84.5945C217.575 84.2855 217.436 83.9339 217.436 83.561C217.436 83.1881 217.596 82.8365 217.864 82.5702C218.014 82.4317 218.046 82.2186 217.95 82.0481C217.682 81.5793 217.479 81.0786 217.339 80.5565C217.275 80.3434 217.082 80.1943 216.858 80.1943C216.065 80.1836 215.423 79.5337 215.433 78.7453C215.433 78.3617 215.594 77.9995 215.872 77.7331C216.151 77.4668 216.526 77.3176 216.9 77.3283C217.136 77.3602 217.318 77.1152 217.382 76.9128C217.522 76.4546 217.714 76.0072 217.95 75.581C218.057 75.3786 218.014 75.1229 217.843 74.9417C217.286 74.3771 217.297 73.4715 217.864 72.9174C218.432 72.3634 219.363 72.3847 219.92 72.9601C220.07 73.1092 220.327 73.1412 220.552 73.0133C220.959 72.7896 221.387 72.6085 221.837 72.47C222.094 72.3954 222.276 72.161 222.276 71.9053C222.276 71.5217 222.437 71.1595 222.715 70.8931C222.983 70.6268 223.336 70.4883 223.722 70.4883C223.733 70.4883 223.733 70.4883 223.743 70.4883C224.536 70.4989 225.178 71.1595 225.168 71.9586C225.168 72.2036 225.382 72.3741 225.585 72.4273C226.067 72.5659 226.517 72.747 226.945 72.9707C227.149 73.0772 227.406 73.0453 227.577 72.8748C227.856 72.6085 228.231 72.4806 228.605 72.47C228.991 72.4806 229.355 72.6298 229.623 72.9068C229.89 73.1731 230.03 73.5354 230.03 73.9083C230.03 74.2812 229.869 74.6434 229.601 74.9098C229.462 75.0483 229.419 75.272 229.516 75.4318C229.794 75.89 230.008 76.3907 230.169 76.9128C230.233 77.1365 230.426 77.2857 230.629 77.2857C231.004 77.2857 231.368 77.4455 231.636 77.7118C231.904 77.9782 232.043 78.3404 232.043 78.724V78.7986C232.043 79.1715 231.893 79.5124 231.625 79.7681C231.368 80.0238 231.026 80.1623 230.651 80.1623C230.64 80.1623 230.64 80.1623 230.64 80.1623C230.447 80.1836 230.276 80.2902 230.233 80.4819C230.094 81.036 229.88 81.558 229.591 82.0588C229.494 82.2186 229.526 82.4423 229.676 82.5808C229.933 82.8472 230.083 83.1988 230.072 83.561C230.072 83.9339 229.923 84.2748 229.655 84.5412L229.569 84.6264C229.312 84.8821 228.969 85.01 228.595 85.01C228.231 85.01 227.888 84.8608 227.631 84.6051C227.502 84.4773 227.288 84.4453 227.117 84.5518C226.635 84.8289 226.121 85.0419 225.596 85.1911C225.371 85.255 225.211 85.4361 225.211 85.6279C225.211 86.0008 225.061 86.3418 224.793 86.6081C224.482 86.8425 224.14 86.981 223.776 86.981ZM220.167 83.9446C220.349 83.9446 220.541 83.9978 220.723 84.0937C221.163 84.3388 221.634 84.5412 222.116 84.669C222.533 84.7862 222.822 85.1698 222.812 85.596C222.812 86.0541 223.176 86.4376 223.647 86.4376H223.754H223.765C223.99 86.4376 224.204 86.3524 224.365 86.1926C224.525 86.0328 224.622 85.8197 224.622 85.596C224.622 85.1591 224.932 84.7756 225.393 84.6477C225.885 84.5092 226.356 84.3175 226.795 84.0618C227.181 83.838 227.663 83.9019 227.963 84.2109C228.113 84.3707 228.327 84.456 228.541 84.456C228.766 84.4773 228.969 84.3707 229.13 84.2216L229.216 84.1363C229.376 83.9765 229.473 83.7634 229.473 83.529C229.473 83.3053 229.387 83.0816 229.226 82.9218C228.916 82.6128 228.852 82.1333 229.066 81.7711C229.323 81.313 229.526 80.8229 229.655 80.3221C229.762 79.896 230.147 79.5763 230.586 79.5976H230.597C230.822 79.5976 231.036 79.5124 231.197 79.3526C231.358 79.1928 231.454 78.9797 231.454 78.7559V78.6814C231.454 78.447 231.368 78.2232 231.197 78.0528C231.026 77.8823 230.811 77.7864 230.576 77.7864C230.126 77.7758 229.74 77.4774 229.601 77.03C229.462 76.5505 229.259 76.0924 229.002 75.6662C228.777 75.2933 228.841 74.8139 229.173 74.4943C229.344 74.3238 229.441 74.1107 229.441 73.8763C229.441 73.6419 229.355 73.4182 229.184 73.2477C229.012 73.0773 228.777 72.9707 228.541 72.9707C228.284 72.9814 228.07 73.0559 227.899 73.2264C227.567 73.5567 227.053 73.6313 226.646 73.4075C226.249 73.1945 225.832 73.024 225.393 72.9068C224.911 72.7683 224.579 72.3634 224.589 71.9159C224.589 71.4152 224.193 70.9997 223.69 70.989C223.465 70.9997 223.219 71.0743 223.047 71.2447C222.876 71.4152 222.78 71.6389 222.769 71.884C222.769 72.3741 222.437 72.8002 221.944 72.9494C221.537 73.0666 221.141 73.2371 220.766 73.4502C220.338 73.6845 219.813 73.6206 219.492 73.301C219.128 72.9388 218.55 72.9174 218.185 73.269C217.832 73.6206 217.821 74.1853 218.175 74.5475C218.517 74.8991 218.592 75.4212 218.368 75.826C218.143 76.2202 217.971 76.6358 217.843 77.0513C217.704 77.5307 217.307 77.8503 216.847 77.8503C216.836 77.8503 216.836 77.8503 216.825 77.8503C216.579 77.8503 216.354 77.9462 216.183 78.106C216.012 78.2765 215.915 78.5003 215.904 78.7453C215.904 79.246 216.301 79.6509 216.804 79.6616C217.264 79.6616 217.671 79.9812 217.8 80.418C217.928 80.8975 218.121 81.3556 218.368 81.7817C218.582 82.1546 218.507 82.6341 218.185 82.9431C218.014 83.1029 217.928 83.3266 217.918 83.561C217.918 83.7954 218.003 84.0085 218.164 84.1789C218.368 84.3814 218.592 84.4773 218.828 84.4773C219.042 84.4879 219.288 84.392 219.449 84.2216C219.674 84.0404 219.91 83.9446 220.167 83.9446ZM223.743 81.4195C223.069 81.4195 222.394 81.1638 221.88 80.6524C221.109 79.8853 220.884 78.7453 221.323 77.7331C221.752 76.721 222.705 76.1244 223.818 76.1457C224.889 76.167 225.81 76.8062 226.207 77.7971C226.613 78.7879 226.389 79.8746 225.628 80.6311C225.103 81.1638 224.418 81.4195 223.743 81.4195ZM223.733 76.689C222.876 76.689 222.148 77.1685 221.805 77.9569C221.527 78.5961 221.505 79.5444 222.255 80.2795C223.079 81.0999 224.418 81.0892 225.243 80.2688C225.842 79.6616 226.024 78.7986 225.703 78.0102C225.382 77.2217 224.654 76.7103 223.797 76.6997C223.776 76.689 223.754 76.689 223.733 76.689Z" fill="black"/>
</svg>
