<svg width="213" height="173" viewBox="0 0 213 173" fill="none" xmlns="http://www.w3.org/2000/svg">
<g clip-path="url(#clip0_707_1873)">
<path d="M201.32 18.8745C201.32 14.3198 196.308 10.6558 190.124 10.6558C183.941 10.6558 178.929 14.3453 178.929 18.8745C178.929 23.1492 183.356 26.6606 189.03 27.0678C191.6 29.714 196.282 31.8769 199.285 32.2076C196.995 30.7064 195.824 27.9583 195.239 26.2026C198.852 24.8286 201.295 22.0805 201.295 18.8999L201.32 18.8745Z" fill="#FFDD88"/>
<path d="M199.285 32.7167C199.285 32.7167 199.259 32.7167 199.234 32.7167C196.384 32.4114 191.626 30.3758 188.801 27.5768C182.873 27.0679 178.42 23.353 178.42 18.8746C178.42 14.0401 183.687 10.1216 190.15 10.1216C196.613 10.1216 201.88 14.0401 201.88 18.8746C201.88 22.0553 199.616 24.9305 195.951 26.4827C196.588 28.2638 197.707 30.4521 199.616 31.7244C199.819 31.8516 199.895 32.106 199.819 32.3605C199.743 32.564 199.539 32.7167 199.31 32.7167H199.285ZM190.125 11.1648C184.247 11.1648 179.463 14.6253 179.463 18.8492C179.463 22.8186 183.585 26.101 189.056 26.5081C189.183 26.5081 189.31 26.5845 189.412 26.6608C191.422 28.7218 194.756 30.4521 197.402 31.2155C196.028 29.7142 195.214 27.8058 194.73 26.3046C194.654 26.0247 194.781 25.7448 195.061 25.643C198.598 24.2944 200.786 21.699 200.786 18.8238C200.786 14.5745 196.002 11.1394 190.125 11.1394V11.1648Z" fill="black"/>
<path d="M178.217 1.34277C170.507 1.34277 164.273 6.02465 164.273 11.8261C164.273 15.821 167.25 19.2815 171.601 21.0626C170.812 23.0219 169.463 25.3628 167.301 26.7877C170.227 26.4824 174.527 24.6758 177.657 22.3094C177.835 22.3094 178.013 22.3094 178.191 22.3094C185.901 22.3094 192.135 17.6021 192.135 11.8261C192.135 6.05009 185.926 1.34277 178.217 1.34277Z" fill="white"/>
<path d="M167.326 27.3222C167.097 27.3222 166.893 27.1696 166.817 26.966C166.741 26.737 166.817 26.4826 167.021 26.3299C168.929 25.0576 170.176 22.9966 170.914 21.3427C166.486 19.3834 163.738 15.7702 163.738 11.8263C163.738 5.74492 170.227 0.808594 178.216 0.808594C186.206 0.808594 192.695 5.74492 192.695 11.8263C192.695 17.9076 186.206 22.8439 178.216 22.8439H177.86C174.731 25.1594 170.456 26.9915 167.377 27.2968H167.326V27.3222ZM178.216 1.87728C170.837 1.87728 164.807 6.33015 164.807 11.8263C164.807 15.4649 167.479 18.8236 171.804 20.5793C171.932 20.6302 172.033 20.732 172.084 20.8592C172.135 20.9864 172.135 21.1391 172.084 21.2663C171.524 22.6658 170.608 24.4215 169.209 25.8719C171.855 25.1849 174.96 23.6582 177.351 21.877C177.453 21.8007 177.555 21.7752 177.682 21.7752H178.191C185.57 21.7752 191.601 17.3224 191.601 11.8263C191.601 6.33015 185.596 1.87728 178.191 1.87728H178.216Z" fill="black"/>
<path d="M172.848 11.8011C172.848 12.8952 171.957 13.7858 170.863 13.7858C169.769 13.7858 168.878 12.8952 168.878 11.8011C168.878 10.707 169.769 9.81641 170.863 9.81641C171.957 9.81641 172.848 10.707 172.848 11.8011Z" fill="#FFBB00"/>
<path d="M170.863 9.79086C171.957 9.79086 172.848 10.6814 172.848 11.7756C172.848 12.8697 171.957 13.7603 170.863 13.7603C169.769 13.7603 168.878 12.8697 168.878 11.7756C168.878 10.6814 169.769 9.79086 170.863 9.79086ZM170.863 8.72217C169.184 8.72217 167.81 10.0962 167.81 11.7756C167.81 13.4549 169.184 14.829 170.863 14.829C172.542 14.829 173.916 13.4549 173.916 11.7756C173.916 10.0962 172.542 8.72217 170.863 8.72217Z" fill="black"/>
<path d="M180.354 11.8519C180.354 12.946 179.463 13.8366 178.369 13.8366C177.275 13.8366 176.384 12.946 176.384 11.8519C176.384 10.7578 177.275 9.86719 178.369 9.86719C179.463 9.86719 180.354 10.7578 180.354 11.8519Z" fill="#FFBB00"/>
<path d="M178.369 9.84164C179.463 9.84164 180.354 10.7322 180.354 11.8263C180.354 12.9205 179.463 13.8111 178.369 13.8111C177.275 13.8111 176.384 12.9205 176.384 11.8263C176.384 10.7322 177.275 9.84164 178.369 9.84164ZM178.369 8.77295C176.69 8.77295 175.316 10.147 175.316 11.8263C175.316 13.5057 176.69 14.8797 178.369 14.8797C180.048 14.8797 181.422 13.5057 181.422 11.8263C181.422 10.147 180.048 8.77295 178.369 8.77295Z" fill="black"/>
<path d="M187.885 11.8519C187.885 12.946 186.995 13.8366 185.901 13.8366C184.807 13.8366 183.916 12.946 183.916 11.8519C183.916 10.7578 184.807 9.86719 185.901 9.86719C186.995 9.86719 187.885 10.7578 187.885 11.8519Z" fill="#FFBB00"/>
<path d="M185.901 9.84164C186.995 9.84164 187.886 10.7322 187.886 11.8263C187.886 12.9205 186.995 13.8111 185.901 13.8111C184.807 13.8111 183.916 12.9205 183.916 11.8263C183.916 10.7322 184.807 9.84164 185.901 9.84164ZM185.901 8.77295C184.221 8.77295 182.847 10.147 182.847 11.8263C182.847 13.5057 184.221 14.8797 185.901 14.8797C187.58 14.8797 188.954 13.5057 188.954 11.8263C188.954 10.147 187.58 8.77295 185.901 8.77295Z" fill="black"/>
<path d="M188.649 124.318H156.181V150.832H188.649V124.318Z" fill="white"/>
<path d="M188.649 151.29H156.181C155.927 151.29 155.749 151.086 155.749 150.857V124.344C155.749 124.089 155.952 123.911 156.181 123.911H188.649C188.903 123.911 189.081 124.115 189.081 124.344V150.857C189.081 151.112 188.878 151.29 188.649 151.29ZM156.614 150.399H188.216V124.776H156.614V150.399Z" fill="black"/>
<path d="M172.975 159.382C172.72 159.382 172.542 159.178 172.542 158.949V151.239C172.542 150.985 172.746 150.807 172.975 150.807C173.204 150.807 173.407 151.01 173.407 151.239V158.949C173.407 159.203 173.204 159.382 172.975 159.382Z" fill="black"/>
<path d="M184.552 160.323H160.278C160.023 160.323 159.845 160.12 159.845 159.891C159.845 159.662 160.049 159.458 160.278 159.458H184.552C184.807 159.458 184.985 159.662 184.985 159.891C184.985 160.12 184.781 160.323 184.552 160.323Z" fill="black"/>
<path d="M190.481 151.799H154.374C154.12 151.799 153.942 151.595 153.942 151.366C153.942 151.137 154.145 150.934 154.374 150.934H190.481C190.735 150.934 190.913 151.137 190.913 151.366C190.913 151.595 190.71 151.799 190.481 151.799Z" fill="black"/>
<path d="M190.481 124.751H154.374C154.12 124.751 153.942 124.547 153.942 124.318C153.942 124.089 154.145 123.886 154.374 123.886H190.481C190.735 123.886 190.913 124.089 190.913 124.318C190.913 124.547 190.71 124.751 190.481 124.751Z" fill="black"/>
<path d="M160.074 142.638L164.553 138.491L168.064 142.359L175.672 134.267L178.802 137.117L184.349 131.29" fill="white"/>
<path d="M160.074 143.097C160.074 143.097 159.845 143.046 159.743 142.944C159.565 142.766 159.591 142.486 159.743 142.308L164.222 138.16C164.222 138.16 164.374 138.033 164.552 138.033C164.68 138.033 164.781 138.084 164.858 138.186L168.038 141.672L175.316 133.936C175.468 133.758 175.748 133.758 175.926 133.936L178.725 136.481L183.967 130.959C184.145 130.781 184.425 130.781 184.603 130.959C184.781 131.137 184.781 131.417 184.603 131.595L179.082 137.422C178.903 137.6 178.649 137.6 178.471 137.422L175.672 134.878L168.344 142.639C168.344 142.639 168.14 142.766 168.013 142.766C168.013 142.766 167.759 142.715 167.682 142.613L164.476 139.102L160.329 142.944C160.329 142.944 160.125 143.071 160.023 143.071L160.074 143.097Z" fill="black"/>
<path d="M56.7933 50.5026C56.7933 51.9275 55.6228 53.098 54.1979 53.098C52.773 53.098 51.6025 51.9275 51.6025 50.5026C51.6025 49.0777 52.773 47.9072 54.1979 47.9072C55.6228 47.9072 56.7933 49.0777 56.7933 50.5026Z" fill="white"/>
<path d="M54.1978 53.4796C52.5439 53.4796 51.1953 52.131 51.1953 50.4771C51.1953 48.8232 52.5439 47.4746 54.1978 47.4746C55.8517 47.4746 57.2003 48.8232 57.2003 50.4771C57.2003 52.131 55.8517 53.4796 54.1978 53.4796ZM54.1978 48.2888C52.9765 48.2888 52.0096 49.2812 52.0096 50.4771C52.0096 51.673 53.0019 52.6654 54.1978 52.6654C55.3937 52.6654 56.3861 51.673 56.3861 50.4771C56.3861 49.2812 55.3937 48.2888 54.1978 48.2888Z" fill="#020500"/>
<path d="M36.8955 67.678C36.8955 68.6449 36.1321 69.4083 35.1652 69.4083H33.8421C32.8752 69.4083 32.1118 68.6449 32.1118 67.678V57.0166H36.8955V67.678Z" fill="#FFDD88"/>
<path d="M35.1651 69.8153H33.842C32.6715 69.8153 31.7046 68.8484 31.7046 67.6779V57.0165C31.7046 56.7875 31.8827 56.6094 32.1117 56.6094H36.8954C37.1244 56.6094 37.3025 56.7875 37.3025 57.0165V67.6779C37.3025 68.8484 36.3356 69.8153 35.1651 69.8153ZM32.5188 57.4236V67.7034C32.5188 68.4413 33.1295 69.0265 33.842 69.0265H35.1651C35.903 69.0265 36.4882 68.4158 36.4882 67.7034V57.4236H32.4934H32.5188Z" fill="black"/>
<path d="M23.2058 54.4467C23.2058 56.5586 24.8088 58.3143 26.8953 58.4924L30.3558 58.8232C30.763 58.8486 31.0937 58.5433 31.0937 58.1616V43.3527C31.0937 42.9455 30.763 42.6402 30.3558 42.6911L26.8953 43.0219C24.8088 43.2254 23.2058 44.9811 23.2058 47.0676V54.4721V54.4467Z" fill="#FFDD88"/>
<path d="M30.4323 59.2301C30.4323 59.2301 30.3559 59.2301 30.3305 59.2301L26.87 58.8993C24.5545 58.6703 22.8242 56.7619 22.8242 54.4464V47.042C22.8242 44.7265 24.5545 42.8181 26.87 42.5891L30.3305 42.2583C30.6358 42.2583 30.9412 42.3346 31.1447 42.5382C31.3737 42.7418 31.5009 43.0216 31.5009 43.327V58.136C31.5009 58.4413 31.3737 58.7212 31.1447 58.9247C30.9412 59.1029 30.6867 59.2046 30.4323 59.2046V59.2301ZM30.4323 43.0725C30.4323 43.0725 30.4323 43.0725 30.4068 43.0725L26.9463 43.4033C25.0379 43.5814 23.613 45.159 23.613 47.0674V54.4719C23.613 56.3803 25.0379 57.9578 26.9463 58.136L30.4068 58.4667C30.534 58.4667 30.5849 58.4158 30.6104 58.3904C30.6358 58.365 30.7122 58.2886 30.7122 58.1868V43.3779C30.7122 43.3779 30.6613 43.1998 30.6104 43.1743C30.5849 43.1489 30.5086 43.098 30.4323 43.098V43.0725Z" fill="black"/>
<path d="M31.1191 57.9837L36.6916 58.0346C38.6 58.0346 40.4829 58.4926 42.1623 59.3578L49.1596 62.9201V38.3911L42.035 41.9789C40.3302 42.844 38.4473 43.2765 36.5644 43.302L31.1191 43.3529V58.0092V57.9837Z" fill="#FFF5DE"/>
<path d="M49.5668 63.5816L41.9842 59.7139C40.3557 58.8743 38.5237 58.4417 36.6917 58.4162L30.7375 58.3654V42.9203L36.5899 42.8694C38.4219 42.8694 40.254 42.4114 41.8824 41.5971L49.5668 37.7295V63.5561V63.5816ZM31.5263 57.602L36.6917 57.6529C38.6509 57.6529 40.6102 58.1363 42.3405 59.0269L48.7526 62.3093V39.0781L42.2132 42.3605C40.4575 43.251 38.4983 43.7091 36.5644 43.7345L31.5009 43.7854V57.6529L31.5263 57.602Z" fill="black"/>
<path d="M54.1978 61.2915C54.1978 62.7927 52.9765 64.0141 51.4752 64.0141H50.1266C49.5923 64.0141 49.1343 63.5815 49.1343 63.0217V38.2892C49.1343 37.7549 49.5668 37.2969 50.1266 37.2969H51.4752C52.9765 37.2969 54.1978 38.5182 54.1978 40.0195V61.266V61.2915Z" fill="#FFDD88"/>
<path d="M51.4753 64.3956H50.1267C49.3634 64.3956 48.7527 63.7849 48.7527 63.0216V38.2891C48.7527 37.5257 49.3634 36.915 50.1267 36.915H51.4753C53.2056 36.915 54.5796 38.3145 54.5796 40.0448V61.2913C54.5796 63.0216 53.1801 64.3956 51.4753 64.3956ZM50.1267 37.7038C49.7959 37.7038 49.5415 37.9583 49.5415 38.2891V63.0216C49.5415 63.3524 49.7959 63.6068 50.1267 63.6068H51.4753C52.7475 63.6068 53.7908 62.5636 53.7908 61.2913V40.0448C53.7908 38.7725 52.7475 37.7293 51.4753 37.7293H50.1267V37.7038Z" fill="black"/>
<path d="M65.979 50.5283C65.979 51.0117 65.5719 51.4188 65.0885 51.4188H59.5415C59.058 51.4188 58.6509 51.0117 58.6509 50.5283C58.6509 50.0448 59.058 49.6377 59.5415 49.6377H65.0885C65.5719 49.6377 65.979 50.0448 65.979 50.5283Z" fill="white"/>
<path d="M65.0883 51.8259H59.5413C58.8289 51.8259 58.2437 51.2406 58.2437 50.5282C58.2437 49.8157 58.8289 49.2305 59.5413 49.2305H65.0883C65.8008 49.2305 66.386 49.8157 66.386 50.5282C66.386 51.2406 65.8008 51.8259 65.0883 51.8259ZM59.5413 50.0447C59.2615 50.0447 59.0324 50.2737 59.0324 50.5536C59.0324 50.8335 59.2615 51.0625 59.5413 51.0625H65.0883C65.3682 51.0625 65.5972 50.8335 65.5972 50.5536C65.5972 50.2737 65.3682 50.0447 65.0883 50.0447H59.5413Z" fill="black"/>
<path d="M57.9127 56.0499C57.5565 56.4061 57.5565 56.9659 57.9127 57.3221L61.8312 61.2407C62.1874 61.5969 62.7472 61.5969 63.1034 61.2407C63.4597 60.8844 63.4597 60.3246 63.1034 59.9684L59.1849 56.0499C58.8287 55.6937 58.2689 55.6937 57.9127 56.0499Z" fill="white"/>
<path d="M62.4928 61.9021C62.1366 61.9021 61.8313 61.7749 61.5768 61.5204L57.6583 57.6019C57.1494 57.093 57.1494 56.2788 57.6583 55.7699C58.1672 55.261 58.9814 55.261 59.4903 55.7699L63.4088 59.6884C63.6633 59.9428 63.7905 60.2482 63.7905 60.6044C63.7905 60.9606 63.6633 61.266 63.4088 61.5204C63.1798 61.7749 62.8491 61.9021 62.4928 61.9021ZM58.2181 56.3296C58.0145 56.5332 58.0145 56.8385 58.2181 57.0421L62.1366 60.9606C62.1366 60.9606 62.3656 61.1133 62.4928 61.1133C62.6201 61.1133 62.7473 61.0624 62.8491 60.9606C62.9508 60.8588 63.0017 60.7316 63.0017 60.6044C63.0017 60.4772 62.9508 60.35 62.8491 60.2482L58.9305 56.3296C58.727 56.1261 58.4216 56.1261 58.2181 56.3296Z" fill="black"/>
<path d="M63.1034 39.816C63.4597 40.1722 63.4597 40.732 63.1034 41.0882L59.1849 45.0068C58.8287 45.363 58.2689 45.363 57.9127 45.0068C57.5565 44.6505 57.5565 44.0908 57.9127 43.7345L61.8312 39.816C62.1874 39.4598 62.7472 39.4598 63.1034 39.816Z" fill="white"/>
<path d="M58.5489 45.6682C58.2181 45.6682 57.8873 45.5409 57.6329 45.2865C57.124 44.7776 57.124 43.9634 57.6329 43.4545L61.5514 39.5359C62.0349 39.0525 62.9 39.0525 63.3835 39.5359C63.6379 39.7904 63.7651 40.0957 63.7651 40.4519C63.7651 40.8082 63.6379 41.1135 63.3835 41.368L59.4649 45.2865C59.2105 45.5409 58.8797 45.6682 58.5489 45.6682ZM62.4674 39.943C62.3402 39.943 62.213 39.9939 62.1112 40.0957L58.1927 44.0142C57.9891 44.2178 57.9891 44.5231 58.1927 44.7267C58.3708 44.9303 58.7016 44.9303 58.9051 44.7267L62.8237 40.8082C62.8237 40.8082 62.9763 40.5792 62.9763 40.4519C62.9763 40.3247 62.9254 40.1975 62.8237 40.0957C62.8237 40.0957 62.6201 39.943 62.4674 39.943Z" fill="black"/>
<path d="M200.455 94.0899C197.351 90.9856 192.287 90.9856 189.183 94.0899C186.079 97.1942 186.079 102.258 189.183 105.362C192.287 108.466 197.351 108.466 200.455 105.362C203.56 102.258 203.56 97.1942 200.455 94.0899ZM199.234 104.166C196.791 106.609 192.822 106.609 190.379 104.166C187.936 101.723 187.936 97.754 190.379 95.3113C192.822 92.8686 196.791 92.8686 199.234 95.3113C201.677 97.754 201.677 101.723 199.234 104.166Z" fill="#FFF3D9"/>
<path d="M194.807 91.7744C196.842 91.7744 198.878 92.5631 200.455 94.1153C203.56 97.2196 203.56 102.283 200.455 105.387C198.903 106.94 196.868 107.728 194.807 107.728C192.745 107.728 190.735 106.94 189.158 105.387C186.053 102.283 186.053 97.2196 189.158 94.1153C190.71 92.5631 192.745 91.7744 194.807 91.7744ZM194.807 106.024C196.41 106.024 198.013 105.413 199.234 104.192C201.677 101.749 201.677 97.7794 199.234 95.3367C198.013 94.1153 196.41 93.5046 194.807 93.5046C193.203 93.5046 191.6 94.1153 190.379 95.3367C187.936 97.7794 187.936 101.749 190.379 104.192C191.6 105.413 193.203 106.024 194.807 106.024ZM194.807 90.8838C192.44 90.8838 190.201 91.7998 188.547 93.4792C185.087 96.9397 185.087 102.563 188.547 106.024C190.226 107.703 192.44 108.619 194.807 108.619C197.173 108.619 199.412 107.703 201.066 106.024C204.526 102.563 204.526 96.9397 201.066 93.4792C199.387 91.7998 197.173 90.8838 194.807 90.8838ZM194.807 105.133C193.382 105.133 192.033 104.573 191.015 103.555C189.997 102.538 189.438 101.189 189.438 99.7641C189.438 98.3392 189.997 96.9906 191.015 95.9728C192.033 94.955 193.382 94.3952 194.807 94.3952C196.231 94.3952 197.58 94.955 198.598 95.9728C199.616 96.9906 200.175 98.3392 200.175 99.7641C200.175 101.189 199.616 102.538 198.598 103.555C197.58 104.573 196.231 105.133 194.807 105.133Z" fill="black"/>
<path d="M210.811 112.588L204.577 106.354C204.323 106.1 203.89 106.1 203.611 106.354L203.483 106.481L201.829 104.878C201.575 105.235 201.295 105.591 200.964 105.922C200.608 106.278 200.252 106.583 199.87 106.838L201.549 108.466L201.422 108.593C201.168 108.848 201.168 109.28 201.422 109.56L207.656 115.794C208.547 116.659 209.946 116.659 210.837 115.794C211.727 114.904 211.727 113.504 210.837 112.614L210.811 112.588Z" fill="#FFF3D9"/>
<path d="M201.829 104.853L203.483 106.456L203.61 106.329C203.738 106.202 203.916 106.125 204.094 106.125C204.272 106.125 204.45 106.202 204.577 106.329L210.811 112.563C211.702 113.453 211.702 114.853 210.811 115.744C210.379 116.176 209.794 116.405 209.234 116.405C208.674 116.405 208.089 116.176 207.631 115.744L201.397 109.51C201.142 109.255 201.142 108.823 201.397 108.543L201.524 108.415L199.845 106.787C200.226 106.507 200.608 106.202 200.939 105.871C201.269 105.54 201.549 105.209 201.804 104.828M201.677 103.454L201.066 104.293C200.837 104.624 200.582 104.929 200.303 105.209C199.997 105.515 199.666 105.795 199.336 106.024L198.445 106.634L199.234 107.398L200.379 108.517C200.328 108.67 200.303 108.823 200.303 109.001C200.303 109.408 200.455 109.815 200.761 110.12L206.995 116.354C207.58 116.939 208.369 117.27 209.208 117.27C210.048 117.27 210.837 116.939 211.422 116.354C212.643 115.133 212.643 113.148 211.422 111.901L205.188 105.667C204.908 105.362 204.501 105.209 204.068 105.209C203.89 105.209 203.712 105.235 203.56 105.286L202.414 104.166L201.677 103.454Z" fill="black"/>
<path d="M194.399 95.1841C192.186 95.1841 190.379 96.9907 190.379 99.2044C190.379 99.4079 190.557 99.5861 190.761 99.5861C190.964 99.5861 191.143 99.4079 191.143 99.2044C191.143 97.3978 192.593 95.9474 194.374 95.9474C194.578 95.9474 194.756 95.7693 194.756 95.5658C194.756 95.3622 194.578 95.1841 194.374 95.1841H194.399Z" fill="#FFF3D9"/>
<path d="M194.399 95.184C194.603 95.184 194.781 95.3621 194.781 95.5657C194.781 95.7693 194.603 95.9474 194.399 95.9474C192.618 95.9474 191.168 97.3977 191.168 99.2043C191.168 99.4333 190.99 99.586 190.786 99.586C190.583 99.586 190.404 99.4079 190.404 99.2043C190.404 96.9906 192.211 95.184 194.425 95.184M194.425 94.2935C191.753 94.2935 189.565 96.4563 189.514 99.128V99.1534C189.514 99.1534 189.514 99.1789 189.514 99.2043V99.357V99.3824C189.616 99.9931 190.125 100.477 190.786 100.477C191.499 100.477 192.058 99.9168 192.058 99.2043C192.058 97.9066 193.127 96.838 194.425 96.838C195.137 96.838 195.697 96.2782 195.697 95.5657C195.697 94.8532 195.137 94.2935 194.425 94.2935Z" fill="black"/>
<path d="M192.262 61.6987H168.827V65.4137H192.262V61.6987Z" fill="#FFDD88"/>
<path d="M192.262 65.8716H168.827C168.573 65.8716 168.395 65.668 168.395 65.439V61.7241C168.395 61.4696 168.598 61.2915 168.827 61.2915H192.262C192.517 61.2915 192.695 61.4951 192.695 61.7241V65.439C192.695 65.6935 192.491 65.8716 192.262 65.8716ZM169.285 64.981H191.83V62.1312H169.285V64.981Z" fill="black"/>
<path d="M191.55 78.5684H169.82C168.751 78.5684 167.86 77.6778 167.86 76.6091V61.393C167.86 61.1386 168.064 60.9604 168.293 60.9604H193.051C193.305 60.9604 193.483 61.164 193.483 61.393V76.6091C193.483 77.7032 192.593 78.5684 191.524 78.5684H191.55ZM168.751 61.851V76.6091C168.751 77.1943 169.234 77.6778 169.82 77.6778H191.55C192.135 77.6778 192.618 77.1943 192.618 76.6091V61.851H168.751Z" fill="#020500"/>
<path d="M191.55 78.5684H169.82C168.751 78.5684 167.86 77.6778 167.86 76.6091V61.393C167.86 61.1386 168.064 60.9604 168.293 60.9604H193.051C193.305 60.9604 193.483 61.164 193.483 61.393V76.6091C193.483 77.7032 192.593 78.5684 191.524 78.5684H191.55ZM168.751 61.851V76.6091C168.751 77.1943 169.234 77.6778 169.82 77.6778H191.55C192.135 77.6778 192.618 77.1943 192.618 76.6091V61.851H168.751Z" fill="#020500"/>
<path d="M193.687 62.0547V58.3906C193.687 57.5001 192.974 56.7876 192.084 56.7876H169.285C168.395 56.7876 167.682 57.5001 167.682 58.3906V62.0547H193.661H193.687Z" fill="#FFF3D9"/>
<path d="M192.109 56.8129C193 56.8129 193.712 57.5254 193.712 58.416V62.08H167.733V58.416C167.733 57.5254 168.446 56.8129 169.336 56.8129H192.135M192.135 55.9224H169.336C167.962 55.9224 166.843 57.0419 166.843 58.416V62.08C166.843 62.5635 167.25 62.9706 167.733 62.9706H193.712C194.196 62.9706 194.603 62.5635 194.603 62.08V58.416C194.603 57.0419 193.483 55.9224 192.109 55.9224H192.135Z" fill="black"/>
<path d="M186.079 56.9657C187.656 56.8385 188.878 55.5153 188.878 53.9123C188.878 52.2329 187.504 50.8589 185.824 50.8589C185.01 50.8589 184.221 51.1897 183.662 51.7749L180.914 54.523C180.863 54.523 180.812 54.523 180.761 54.523C180.634 54.523 180.532 54.523 180.405 54.5738L177.707 51.8767L177.631 51.8258C177.046 51.2151 176.257 50.8843 175.417 50.8843C173.738 50.8843 172.364 52.2584 172.364 53.9377C172.364 55.6171 173.585 56.8385 175.163 56.9657H176.664L174.603 59.0267L176.461 59.6628L176.944 61.3931L178.674 59.6628V78.8229H182.542V59.6374L184.501 61.5712L185.214 59.9173L186.944 59.3321L184.603 56.9911H186.079V56.9657ZM175.316 55.3626C174.552 55.3118 173.942 54.7011 173.942 53.9123C173.942 53.1235 174.578 52.4619 175.392 52.4619C175.774 52.4619 176.155 52.6146 176.435 52.8945L178.878 55.3372H175.341L175.316 55.3626ZM182.364 55.3626L184.705 53.0217L184.807 52.9199C185.086 52.64 185.443 52.4619 185.85 52.4619C186.639 52.4619 187.3 53.098 187.3 53.9123C187.3 54.7265 186.69 55.3118 185.926 55.3626H182.389H182.364Z" fill="#FFBB00"/>
<path d="M185.825 50.8844C187.504 50.8844 188.878 52.2584 188.878 53.9378C188.878 55.6172 187.657 56.8385 186.079 56.9657H185.926H184.578L186.919 59.3067L185.188 59.8919L184.476 61.5458L182.517 59.612V78.7975H178.649V59.6375L176.919 61.3677L176.435 59.6375L174.578 59.0013L176.639 56.9403H175.138C173.56 56.7876 172.339 55.4899 172.339 53.8869C172.339 52.2075 173.713 50.8335 175.392 50.8335C176.232 50.8335 177.021 51.1643 177.606 51.775L177.682 51.8259L180.379 54.523C180.379 54.523 180.608 54.4721 180.736 54.4721C180.786 54.4721 180.837 54.4721 180.888 54.4721L183.636 51.7241C184.196 51.1388 184.985 50.8081 185.799 50.8081M182.339 55.3118H185.875C186.639 55.2609 187.249 54.6248 187.249 53.8615C187.249 53.0981 186.613 52.4111 185.799 52.4111C185.392 52.4111 185.036 52.5638 184.756 52.8437L184.654 52.9454L182.313 55.2864M175.341 55.2864H178.827L176.384 52.8437C176.105 52.5638 175.748 52.3856 175.341 52.3856C174.552 52.3856 173.891 53.0218 173.891 53.836C173.891 54.6502 174.501 55.2355 175.265 55.2864H175.316M185.748 49.9175C184.756 49.9175 183.763 50.2992 183.051 50.9862C183.026 51.0116 182.975 51.0371 182.949 51.088L180.557 53.4798L178.267 51.1897C178.267 51.1897 178.14 51.088 178.115 51.0625C177.453 50.3755 176.41 49.9175 175.341 49.9175C173.178 49.9175 171.397 51.6732 171.397 53.8615C171.397 55.7698 172.72 57.3474 174.527 57.7036L173.916 58.3143C173.687 58.5433 173.611 58.8487 173.687 59.154C173.764 59.4593 173.967 59.6883 174.272 59.7901L175.697 60.2736L176.054 61.5458C176.105 61.6985 176.181 61.8512 176.308 61.9784C176.486 62.1311 176.69 62.2074 176.919 62.2074C177.148 62.2074 177.377 62.1311 177.555 61.953L177.758 61.7494V78.7721C177.758 79.2555 178.166 79.6626 178.649 79.6626H182.517C183 79.6626 183.407 79.2555 183.407 78.7721V61.7239L183.84 62.1565C184.018 62.3346 184.247 62.411 184.476 62.411C184.527 62.411 184.578 62.411 184.654 62.411C184.934 62.3601 185.188 62.1565 185.316 61.8766L185.875 60.5789L187.224 60.1209C187.504 60.0191 187.733 59.7901 187.809 59.4848C187.886 59.1794 187.809 58.8741 187.58 58.6451L186.664 57.7291C188.471 57.3474 189.768 55.7698 189.768 53.8869C189.768 51.7241 188.013 49.9429 185.825 49.9429L185.748 49.9175ZM185.417 53.4289C185.417 53.4289 185.621 53.3017 185.748 53.3017C186.054 53.3017 186.308 53.5561 186.308 53.8615C186.308 54.1668 186.079 54.3958 185.774 54.4212H184.425L185.239 53.607L185.341 53.4798C185.341 53.4798 185.366 53.4543 185.392 53.4289H185.417ZM175.341 54.4212H175.316C175.01 54.4212 174.781 54.1668 174.781 53.8615C174.781 53.5561 175.036 53.3017 175.341 53.3017C175.468 53.3017 175.57 53.3271 175.672 53.4034C175.672 53.4289 175.723 53.4543 175.748 53.4798L176.664 54.3958H175.367L175.341 54.4212Z" fill="black"/>
<path d="M38.2693 128.95C38.5492 128.39 39.338 128.39 39.6179 128.95L42.0352 133.861C42.2387 134.293 42.6458 134.573 43.1293 134.649L48.5491 135.438C49.1598 135.54 49.4142 136.278 48.9562 136.736L45.0377 140.578C44.7069 140.909 44.5288 141.392 44.6306 141.876L45.5466 147.295C45.6483 147.906 45.0122 148.39 44.4524 148.084L39.5924 145.54C39.1599 145.311 38.651 145.311 38.2439 145.54L33.3839 148.084C32.8241 148.364 32.188 147.906 32.2897 147.295L33.2058 141.876C33.2821 141.418 33.1294 140.934 32.7986 140.578L28.8801 136.736C28.4221 136.303 28.6766 135.54 29.2872 135.438L34.707 134.649C35.1905 134.573 35.5976 134.293 35.8011 133.861L38.2184 128.95H38.2693Z" fill="#FFDD88"/>
<path d="M44.834 148.568C44.6304 148.568 44.4523 148.517 44.2742 148.44L39.4142 145.896C39.1343 145.743 38.7781 145.743 38.4727 145.896L33.6128 148.44C33.2056 148.644 32.7222 148.618 32.3405 148.339C31.9588 148.059 31.7807 147.626 31.8571 147.168L32.7731 141.748C32.824 141.418 32.7222 141.087 32.4932 140.858L28.5747 137.016C28.2439 136.685 28.1421 136.227 28.2693 135.794C28.422 135.362 28.7782 135.056 29.2362 134.98L34.656 134.191C34.9868 134.14 35.2667 133.937 35.4194 133.631L37.8621 128.721C38.2692 127.906 39.5923 127.906 39.9994 128.721L42.4422 133.631C42.5948 133.937 42.8747 134.14 43.2055 134.191L48.6253 134.98C49.0833 135.056 49.4395 135.362 49.5922 135.794C49.7449 136.227 49.6176 136.71 49.2869 137.016L45.3429 140.858C45.1139 141.087 44.9867 141.418 45.063 141.748L45.979 147.143C46.0553 147.601 45.8772 148.059 45.4956 148.313C45.292 148.466 45.0375 148.542 44.7831 148.542L44.834 148.568ZM38.9562 144.878C39.2615 144.878 39.5669 144.954 39.8468 145.107L44.7068 147.652C44.8594 147.728 44.9867 147.652 45.0376 147.652C45.0884 147.626 45.1902 147.524 45.1648 147.346L44.2488 141.952C44.147 141.341 44.3505 140.705 44.7831 140.273L48.7016 136.456C48.7016 136.456 48.8034 136.201 48.778 136.15C48.778 136.1 48.7016 135.972 48.5235 135.947L43.1037 135.158C42.4931 135.056 41.9587 134.675 41.6788 134.115L39.2361 129.204C39.1598 129.051 39.0325 129.026 38.9562 129.026C38.8799 129.026 38.7526 129.026 38.6763 129.204L36.2336 134.115C35.9537 134.675 35.4194 135.056 34.8087 135.158L29.3889 135.947C29.2108 135.947 29.1599 136.1 29.1344 136.15C29.1344 136.201 29.0836 136.354 29.2108 136.456L33.1293 140.273C33.5873 140.705 33.7909 141.341 33.6637 141.952L32.7476 147.346C32.7222 147.524 32.824 147.626 32.8749 147.652C32.9257 147.677 33.053 147.753 33.2056 147.652L38.0656 145.107C38.3455 144.954 38.6509 144.878 38.9562 144.878Z" fill="black"/>
<path d="M27.2517 6.20318H39.5925C40.0759 6.20318 40.483 6.58485 40.483 7.09375V19.4346C40.483 19.918 40.1014 20.3251 39.5925 20.3251H27.2517C26.7682 20.3251 26.3611 19.9435 26.3611 19.4346V7.06831C26.3611 6.58485 26.7428 6.17773 27.2517 6.17773V6.20318Z" fill="white"/>
<path d="M39.5924 20.7576H27.2516C26.5137 20.7576 25.9285 20.1724 25.9285 19.4345V7.06826C25.9285 6.33035 26.5137 5.74512 27.2516 5.74512H39.5924C40.3303 5.74512 40.9156 6.33035 40.9156 7.06826V19.4091C40.9156 20.147 40.3303 20.7322 39.5924 20.7322V20.7576ZM27.2516 6.63569C27.0226 6.63569 26.819 6.83925 26.819 7.06826V19.4091C26.819 19.6381 27.0226 19.8416 27.2516 19.8416H39.5924C39.8214 19.8416 40.025 19.6381 40.025 19.4091V7.06826C40.025 6.83925 39.8214 6.63569 39.5924 6.63569H27.2516Z" fill="black"/>
<path d="M31.5773 17.9331C31.3229 17.9331 31.1448 17.7295 31.1448 17.5005V9.2309C31.1448 8.97645 31.3483 8.79834 31.5773 8.79834C31.8063 8.79834 32.0099 9.0019 32.0099 9.2309V17.5005C32.0099 17.755 31.8063 17.9331 31.5773 17.9331Z" fill="black"/>
<path d="M35.2414 17.9331C34.987 17.9331 34.8088 17.7295 34.8088 17.5005V9.2309C34.8088 8.97645 35.0124 8.79834 35.2414 8.79834C35.4704 8.79834 35.674 9.0019 35.674 9.2309V17.5005C35.674 17.755 35.4704 17.9331 35.2414 17.9331Z" fill="black"/>
<path d="M8.0915 6.20318H20.4323C20.9158 6.20318 21.3229 6.58485 21.3229 7.09375V19.4346C21.3229 19.918 20.9412 20.3251 20.4323 20.3251H8.0915C7.60805 20.3251 7.20093 19.9435 7.20093 19.4346V7.06831C7.20093 6.58485 7.5826 6.17773 8.0915 6.17773V6.20318Z" fill="white"/>
<path d="M20.4577 20.7576H8.09145C7.35354 20.7576 6.76831 20.1724 6.76831 19.4345V7.06826C6.76831 6.33035 7.35354 5.74512 8.09145 5.74512H20.4323C21.1702 5.74512 21.7554 6.33035 21.7554 7.06826V19.4091C21.7554 20.147 21.1702 20.7322 20.4323 20.7322L20.4577 20.7576ZM8.09145 6.63569C7.86244 6.63569 7.65888 6.83925 7.65888 7.06826V19.4091C7.65888 19.6381 7.86244 19.8416 8.09145 19.8416H20.4323C20.6613 19.8416 20.8648 19.6381 20.8648 19.4091V7.06826C20.8648 6.83925 20.6613 6.63569 20.4323 6.63569H8.09145Z" fill="black"/>
<path d="M16.1322 10.2744H12.4172C11.7989 10.2744 11.2976 10.7757 11.2976 11.394V15.0835C11.2976 15.7018 11.7989 16.2031 12.4172 16.2031H16.1322C16.7505 16.2031 17.2517 15.7018 17.2517 15.0835V11.394C17.2517 10.7757 16.7505 10.2744 16.1322 10.2744Z" fill="#FFBB00"/>
<path d="M16.132 10.2744C16.7427 10.2744 17.2516 10.7833 17.2516 11.3939V15.0835C17.2516 15.6941 16.7427 16.203 16.132 16.203H12.4425C11.8318 16.203 11.3229 15.6941 11.3229 15.0835V11.3939C11.3229 10.7833 11.8318 10.2744 12.4425 10.2744H16.132ZM16.132 9.38379H12.4425C11.3229 9.38379 10.4324 10.2744 10.4324 11.3939V15.0835C10.4324 16.203 11.3229 17.0936 12.4425 17.0936H16.132C17.2516 17.0936 18.1422 16.203 18.1422 15.0835V11.3939C18.1422 10.2744 17.2516 9.38379 16.132 9.38379Z" fill="black"/>
<path d="M46.3862 6.20318H58.727C59.2104 6.20318 59.6176 6.58485 59.6176 7.09375V19.4346C59.6176 19.918 59.2359 20.3251 58.727 20.3251H46.3862C45.9027 20.3251 45.4956 19.9435 45.4956 19.4346V7.06831C45.4956 6.58485 45.8773 6.17773 46.3862 6.17773V6.20318Z" fill="white"/>
<path d="M58.7523 20.7576H46.4115C45.6736 20.7576 45.0884 20.1724 45.0884 19.4345V7.06826C45.0884 6.33035 45.6736 5.74512 46.4115 5.74512H58.7523C59.4902 5.74512 60.0755 6.33035 60.0755 7.06826V19.4091C60.0755 20.147 59.4902 20.7322 58.7523 20.7322V20.7576ZM46.4115 6.63569C46.1825 6.63569 45.979 6.83925 45.979 7.06826V19.4091C45.979 19.6381 46.1825 19.8416 46.4115 19.8416H58.7523C58.9813 19.8416 59.1849 19.6381 59.1849 19.4091V7.06826C59.1849 6.83925 58.9813 6.63569 58.7523 6.63569H46.4115Z" fill="black"/>
<path d="M49.9739 11.0885C49.9739 10.1216 51.068 9.56178 51.8568 10.1216L54.4776 11.9536C55.3937 12.5897 55.3937 13.9383 54.4776 14.5744L51.8568 16.4065C51.068 16.9663 49.9739 16.4065 49.9739 15.4396V11.0885Z" fill="#FFBB00"/>
<path d="M51.1697 9.89253C51.3987 9.89253 51.6277 9.96886 51.8567 10.1215L54.4776 11.9536C55.3936 12.5897 55.3936 13.9383 54.4776 14.5744L51.8567 16.4064C51.6532 16.5591 51.3987 16.6354 51.1697 16.6354C50.5591 16.6354 49.9738 16.152 49.9738 15.4395V11.0884C49.9738 10.376 50.5591 9.89253 51.1697 9.89253ZM51.1697 9.00195C50.0247 9.00195 49.0833 9.94342 49.0833 11.0884V15.4395C49.0833 16.5846 50.0247 17.526 51.1697 17.526C51.6023 17.526 52.0094 17.3988 52.3656 17.1443L54.9865 15.3123C55.6481 14.8543 56.0552 14.0909 56.0552 13.2767C56.0552 12.4625 55.6481 11.6991 54.9865 11.2411L52.3656 9.40907C52.0094 9.15462 51.6023 9.0274 51.1697 9.0274V9.00195Z" fill="black"/>
<path d="M17.2517 97.5249C5.80145 97.5249 0.458008 105.922 0.458008 105.922C0.458008 105.922 4.96177 114.319 17.2517 114.319C29.5416 114.319 34.0454 105.922 34.0454 105.922C34.0454 105.922 28.7019 97.5249 17.2517 97.5249Z" fill="white"/>
<path d="M17.2517 114.777C4.80911 114.777 0.101793 106.227 0.0509035 106.125C-0.0254314 105.973 -0.0254314 105.82 0.0509035 105.667C0.101793 105.591 5.67424 97.0669 17.2263 97.0669C28.7783 97.0669 34.3507 105.591 34.4016 105.667C34.4779 105.795 34.5034 105.973 34.4016 106.125C34.3507 106.202 29.6434 114.751 17.2008 114.751L17.2517 114.777ZM0.992367 105.947C1.83205 107.27 6.51393 113.886 17.2517 113.886C27.9895 113.886 32.6968 107.27 33.511 105.947C32.5696 104.624 27.2516 97.9829 17.2517 97.9829C7.25183 97.9829 1.93383 104.649 0.992367 105.947Z" fill="black"/>
<path d="M22.926 105.922C22.926 109.052 20.3815 111.622 17.2263 111.622C14.0711 111.622 11.5266 109.077 11.5266 105.922C11.5266 102.767 14.0711 100.222 17.2263 100.222C20.3815 100.222 22.926 102.767 22.926 105.922Z" fill="#FFBB00"/>
<path d="M17.2516 100.248C20.3814 100.248 22.9513 102.792 22.9513 105.947C22.9513 109.102 20.4068 111.647 17.2516 111.647C14.0964 111.647 11.552 109.102 11.552 105.947C11.552 102.792 14.0964 100.248 17.2516 100.248ZM17.2516 99.3569C13.613 99.3569 10.6614 102.309 10.6614 105.947C10.6614 109.586 13.613 112.537 17.2516 112.537C20.8903 112.537 23.8419 109.586 23.8419 105.947C23.8419 102.309 20.8903 99.3569 17.2516 99.3569Z" fill="black"/>
<path d="M17.1245 93.9115C16.87 93.9115 16.6919 93.7079 16.6919 93.4789V85.7182C16.6919 85.4638 16.8955 85.2856 17.1245 85.2856C17.3535 85.2856 17.557 85.4892 17.557 85.7182V93.4789C17.557 93.7334 17.3535 93.9115 17.1245 93.9115Z" fill="black"/>
<path d="M6.64106 97.2446C6.64106 97.2446 6.38661 97.1937 6.31028 97.0919L1.24673 91.2396C1.09406 91.0615 1.11951 90.7816 1.29762 90.6035C1.47573 90.4508 1.75563 90.4508 1.93374 90.6543L6.99729 96.5067C7.14996 96.6848 7.12452 96.9647 6.9464 97.1428C6.87007 97.2191 6.76829 97.2446 6.66651 97.2446H6.64106Z" fill="black"/>
<path d="M27.5824 97.2448C27.5824 97.2448 27.3788 97.2194 27.3025 97.143C27.1244 96.9903 27.0989 96.7105 27.2516 96.5069L32.3152 90.6546C32.4678 90.4764 32.7477 90.451 32.9513 90.6037C33.1294 90.7563 33.1548 91.0362 33.0022 91.2398L27.9386 97.0921C27.9386 97.0921 27.7351 97.2448 27.6078 97.2448H27.5824Z" fill="black"/>
<path d="M130.075 141.697C130.075 139.458 128.268 137.651 126.029 137.651C124.757 137.651 123.637 138.237 122.899 139.153C122.161 138.237 121.042 137.651 119.77 137.651C117.53 137.651 115.724 139.458 115.724 141.697C115.724 145.285 121.042 148.389 122.747 148.593C122.848 148.593 122.976 148.593 123.052 148.593C124.757 148.364 130.075 145.259 130.075 141.697Z" fill="#FFBB00"/>
<path d="M126.054 137.651C128.294 137.651 130.1 139.458 130.1 141.697C130.1 145.285 124.782 148.389 123.077 148.593C123.026 148.593 122.976 148.593 122.925 148.593C122.874 148.593 122.823 148.593 122.772 148.593C121.067 148.364 115.749 145.259 115.749 141.697C115.749 139.458 117.556 137.651 119.795 137.651C121.067 137.651 122.187 138.237 122.925 139.153C123.663 138.237 124.782 137.651 126.054 137.651ZM126.054 136.761C124.884 136.761 123.79 137.168 122.925 137.88C122.06 137.142 120.94 136.761 119.795 136.761C117.072 136.761 114.859 138.975 114.859 141.697C114.859 145.819 120.635 149.229 122.645 149.483C122.67 149.483 122.797 149.483 122.925 149.483C123.052 149.483 123.179 149.483 123.255 149.458C125.189 149.203 130.991 145.794 130.991 141.672C130.991 138.949 128.777 136.735 126.054 136.735V136.761Z" fill="black"/>
<path d="M66.0297 86.5837C69.7701 81.5201 79.6682 65.3372 79.6682 65.3372C81.1186 63.8868 84.6554 61.5967 87.4798 63.9122C90.3551 66.2532 87.3781 73.3014 87.3781 73.3014C89.2101 71.2149 94.9861 63.6069 98.8283 67.7035C101.602 70.6552 99.0827 74.0902 99.0827 74.0902C99.0827 74.0902 101.347 72.131 103.765 74.2938C106.691 76.8892 103.383 81.3166 103.383 81.3166L101.525 84.2937C101.525 84.2937 103.434 82.8178 105.698 85.2097C107.734 87.3725 104.935 91.291 104.935 91.291L94.0192 108.415C94.0446 114.166 94.0192 116.303 94.0192 120.985C94.0192 132.436 87.887 133.937 87.887 133.937V152.741L61.6532 152.817V101.265C61.6532 101.265 61.1189 93.2757 66.0043 86.6091L66.0297 86.5837Z" fill="#FFF3D9"/>
<path d="M84.7827 62.9452C85.6987 62.9452 86.6402 63.225 87.4798 63.9121C90.3551 66.253 87.3781 73.3013 87.3781 73.3013C88.8284 71.6473 92.7724 66.5074 96.2584 66.5074C97.1744 66.5074 98.0395 66.8637 98.8283 67.7034C101.602 70.655 99.0827 74.09 99.0827 74.09C99.0827 74.09 100.024 73.2758 101.347 73.2758C102.085 73.2758 102.925 73.5303 103.765 74.2936C106.691 76.889 103.383 81.3164 103.383 81.3164L101.525 84.2935C101.525 84.2935 102.111 83.8355 103.027 83.8355C103.765 83.8355 104.706 84.1408 105.698 85.2095C107.734 87.3723 104.935 91.2908 104.935 91.2908L93.9937 108.415C94.0192 114.166 93.9937 116.303 93.9937 120.985C93.9937 132.435 87.8615 133.937 87.8615 133.937V152.74L61.6277 152.817V101.265C61.6277 101.265 61.0934 93.2756 65.9788 86.609C69.7193 81.5454 79.6173 65.3624 79.6173 65.3624C80.6351 64.3701 82.6453 62.9452 84.7318 62.9452M84.7318 61.6729C82.3654 61.6729 80.1008 63.0978 78.7268 64.4464L78.625 64.5482L78.5487 64.6754C78.4469 64.8281 68.6251 80.8584 64.961 85.8202C59.8466 92.7666 60.3301 100.96 60.3555 101.316V152.791V154.064H61.6277L87.8615 153.987H89.1338V134.751C91.093 133.784 95.266 130.578 95.266 120.934V116.761C95.266 114.446 95.266 112.308 95.266 108.746L106.004 91.9524C107.225 90.2476 108.803 86.6344 106.614 84.3189C105.698 83.3266 104.782 82.8686 104.019 82.6904L104.452 81.978C105.775 80.1968 107.607 75.9984 104.604 73.3267C103.612 72.4361 102.518 72.0036 101.322 72.0036C101.322 72.0036 101.296 72.0036 101.271 72.0036C101.551 70.426 101.322 68.5176 99.7189 66.8382C98.7265 65.7695 97.556 65.2352 96.2075 65.2352C93.9429 65.2352 91.7037 66.8382 89.8717 68.5939C90.1007 66.482 89.8462 64.2428 88.2177 62.9197C87.1999 62.08 86.004 61.6475 84.7063 61.6475L84.7318 61.6729Z" fill="black"/>
<path d="M88.6504 7.80615H141.372C147.937 7.80615 153.281 13.1496 153.281 19.7144V109.561C153.281 116.125 147.937 121.469 141.372 121.469H88.6504C82.0856 121.469 76.7422 116.125 76.7422 109.561V19.7144C76.7422 13.1496 82.0856 7.80615 88.6504 7.80615Z" fill="white"/>
<path d="M141.372 122.105H88.6503C81.7293 122.105 76.106 116.481 76.106 109.56V19.7143C76.106 12.7933 81.7293 7.16992 88.6503 7.16992H141.372C148.293 7.16992 153.917 12.7933 153.917 19.7143V109.56C153.917 116.481 148.293 122.105 141.372 122.105ZM88.6503 8.44217C82.4418 8.44217 77.3782 13.5057 77.3782 19.7143V109.56C77.3782 115.769 82.4418 120.833 88.6503 120.833H141.372C147.581 120.833 152.644 115.769 152.644 109.56V19.7143C152.644 13.5057 147.581 8.44217 141.372 8.44217H88.6503Z" fill="black"/>
<path d="M146.512 18.5439H83.2053V103.912H146.512V18.5439Z" fill="#FFDD88"/>
<path d="M146.512 104.522H83.2052C82.849 104.522 82.5691 104.242 82.5691 103.886V18.5438C82.5691 18.1876 82.849 17.9077 83.2052 17.9077H146.512C146.869 17.9077 147.148 18.1876 147.148 18.5438V103.886C147.148 104.242 146.869 104.522 146.512 104.522ZM83.8413 103.25H145.876V19.18H83.8413V103.25Z" fill="black"/>
<path d="M58.8637 141.613L90.3898 141.514C90.8478 141.513 91.2307 141.893 91.2321 142.351L91.2742 155.735C91.2756 156.193 90.8951 156.576 90.4371 156.578L58.8855 156.677C58.4275 156.678 58.0447 156.298 58.0432 155.84L58.0012 142.456C57.9997 141.998 58.3802 141.615 58.8382 141.614L58.8637 141.613Z" fill="white"/>
<path d="M58.8797 157.346C58.0655 157.346 57.4039 156.685 57.4039 155.87L57.353 142.486C57.353 142.079 57.5057 141.723 57.7856 141.443C58.0655 141.163 58.4472 141.01 58.8288 141.01L90.3551 140.909C91.1694 140.909 91.831 141.57 91.831 142.384L91.8818 155.769C91.8818 156.176 91.7292 156.532 91.4493 156.812C91.1694 157.092 90.7877 157.244 90.406 157.244L58.8543 157.346H58.8797ZM90.3806 142.155L58.8543 142.257C58.8543 142.257 58.7271 142.308 58.7016 142.308C58.7016 142.308 58.6507 142.384 58.6507 142.461L58.7016 155.845C58.7016 155.845 58.8034 156.048 58.9052 156.048L90.4569 155.947C90.4569 155.947 90.5841 155.896 90.6096 155.896C90.635 155.87 90.6605 155.819 90.6605 155.743L90.6096 142.359C90.6096 142.359 90.5078 142.155 90.406 142.155H90.3806Z" fill="#020500"/>
<path d="M95.2151 171.061L95.1387 153.657C95.1387 153.199 94.7571 152.817 94.2991 152.817L57.0731 152.919C56.6151 152.919 56.2334 153.3 56.2334 153.758L56.3097 171.163L95.2405 171.035L95.2151 171.061Z" fill="#FFBB00"/>
<path d="M94.2991 152.817C94.7572 152.817 95.1388 153.198 95.1388 153.656L95.2152 171.061L56.2844 171.188L56.208 153.784C56.208 153.326 56.5897 152.944 57.0477 152.944L94.2737 152.842M94.2737 151.57L57.0477 151.672C55.8773 151.672 54.9358 152.639 54.9358 153.784L55.0121 171.188V172.46H56.2844L95.2152 172.333H96.4874V171.061L96.4111 153.656C96.4111 152.486 95.4696 151.544 94.2991 151.544L94.2737 151.57Z" fill="black"/>
<path d="M68.0911 105.591L87.1748 87.7286C87.1748 87.7286 90.7116 83.6574 94.3248 87.1433C97.4037 90.1204 95.4953 94.2425 93.536 96.4816L81.9331 110.833V120.654C81.9331 120.654 82.5184 126.99 79.9739 129.764C78.3454 131.519 76.6406 132.613 75.1648 133.097" fill="#FFF3D9"/>
<path d="M75.3428 133.682L74.9611 132.461C76.4623 131.977 78.0908 130.858 79.5157 129.306C81.8312 126.787 81.3223 120.756 81.2969 120.705V110.604L93.0525 96.1C93.5105 95.5657 97.3527 90.9602 93.8922 87.6014C93.0016 86.7363 92.0601 86.3292 91.0678 86.3801C89.1848 86.4564 87.6836 88.1358 87.6836 88.1612L68.549 106.074L67.6838 105.133L86.7676 87.2706C86.7676 87.2706 88.5742 85.2096 91.0169 85.1078C92.3654 85.0569 93.6377 85.5913 94.7827 86.6854C97.8616 89.6625 96.6148 93.9627 94.0448 96.9143L82.5946 111.062V120.654C82.5946 120.858 83.1798 127.245 80.4826 130.196C78.9051 131.927 77.1239 133.148 75.3937 133.708L75.3428 133.682Z" fill="black"/>
<path d="M88.6758 65.5659H91.8055L97.1235 75.2096L102.467 65.5659H105.52V81.4181H102.976V69.2809L98.294 77.6523H95.9022L91.2203 69.2809V81.4181H88.6758V65.5659Z" fill="#FFBB00"/>
<path d="M105.52 65.566V81.4182H102.976V69.2809L98.3194 77.6523H95.9021L91.2457 69.2809V81.4182H88.7012V65.566H91.8055L97.1489 75.2096L102.492 65.566H105.546M106.258 64.8535H102.085L101.882 65.2097L97.1743 73.7338L92.467 65.2097L92.2635 64.8535H88.0142V82.1306H91.9836V72.029L95.3169 78.0086L95.5204 78.3648H98.7519L98.9555 78.0086L102.289 72.029V82.1306H106.258V64.8535Z" fill="black"/>
<path d="M115.673 72.2831C115.139 71.7488 114.426 71.4689 113.561 71.4689C112.696 71.4689 112.009 71.7488 111.449 72.3085C110.889 72.8683 110.533 73.6062 110.355 74.5731H116.589C116.513 73.5808 116.233 72.8429 115.698 72.2831M113.815 81.6977C112.619 81.6977 111.576 81.4433 110.711 80.9089C109.846 80.3746 109.108 79.6621 108.625 78.7207C108.141 77.8047 107.887 76.736 107.887 75.5401C107.887 74.3441 108.141 73.25 108.625 72.334C109.108 71.418 109.795 70.6801 110.686 70.1457C111.576 69.6114 112.569 69.3569 113.688 69.3569C114.808 69.3569 115.775 69.6368 116.589 70.1712C117.403 70.7055 118.039 71.4434 118.472 72.4103C118.904 73.3772 119.133 74.4968 119.133 75.7691V76.4815H110.431C110.584 77.4484 110.991 78.2118 111.602 78.7716C112.238 79.3314 113.027 79.6112 113.968 79.6112C114.757 79.6112 115.393 79.5095 115.953 79.255C116.513 79.0515 117.021 78.6952 117.505 78.2372L118.853 79.8911C117.429 81.0871 115.775 81.6977 113.841 81.6977" fill="#FFBB00"/>
<path d="M113.79 82.0539C112.492 82.0539 111.423 81.774 110.482 81.2142C109.49 80.6289 108.777 79.8656 108.268 78.8732C107.759 77.9063 107.479 76.7868 107.479 75.5145C107.479 74.2423 107.734 73.0972 108.268 72.1303C108.803 71.1634 109.541 70.3492 110.457 69.7894C111.398 69.2296 112.441 68.9497 113.637 68.9497C114.833 68.9497 115.851 69.255 116.741 69.8148C117.632 70.4001 118.294 71.1889 118.752 72.2067C119.21 73.2499 119.464 74.4458 119.464 75.7181V76.7868H110.838C111.016 77.4483 111.347 78.0336 111.805 78.4661C112.365 78.975 113.077 79.2295 113.943 79.2295C114.68 79.2295 115.266 79.1277 115.775 78.8987C116.258 78.7206 116.716 78.4152 117.225 77.9318L117.505 77.6773L119.311 79.9165L119.057 80.1455C117.581 81.3923 115.825 82.0284 113.815 82.0284L113.79 82.0539ZM113.637 69.7131C112.543 69.7131 111.627 69.9421 110.813 70.451C109.999 70.9344 109.362 71.596 108.879 72.512C108.421 73.3771 108.166 74.3949 108.166 75.5654C108.166 76.7359 108.396 77.7282 108.879 78.5679C109.337 79.433 109.973 80.0946 110.838 80.6289C111.652 81.1124 112.619 81.3668 113.764 81.3668C115.495 81.3668 116.996 80.8834 118.294 79.8656L117.403 78.7715C116.945 79.1786 116.487 79.433 116.029 79.6111C115.444 79.8656 114.757 79.9928 113.917 79.9928C112.874 79.9928 112.009 79.6875 111.322 79.0514C110.635 78.3898 110.177 77.5247 110.049 76.5323L109.999 76.1252H118.752V75.769C118.752 74.5985 118.548 73.5044 118.115 72.5629C117.734 71.6978 117.149 70.9853 116.385 70.4764C115.596 69.9675 114.706 69.7131 113.688 69.7131H113.637ZM116.92 74.9547H109.897L109.973 74.5222C110.177 73.4789 110.558 72.6901 111.169 72.0794C111.805 71.4433 112.594 71.1125 113.535 71.1125C114.477 71.1125 115.291 71.4179 115.902 72.0285C116.487 72.6647 116.792 73.4789 116.869 74.5476V74.9293L116.92 74.9547ZM110.762 74.2423H116.156C116.054 73.5298 115.8 72.97 115.418 72.5374C114.935 72.0794 114.324 71.825 113.561 71.825C112.797 71.825 112.187 72.0794 111.678 72.5629C111.245 72.9955 110.965 73.5298 110.787 74.2168L110.762 74.2423Z" fill="black"/>
<path d="M122.136 71.6725H119.769V69.586H122.136V66.1255H124.604V69.586H128.166V71.6725H124.604V76.965C124.604 77.8556 124.757 78.4917 125.062 78.848C125.393 79.2296 125.876 79.4078 126.614 79.4078C126.945 79.4078 127.225 79.4078 127.428 79.3823C127.632 79.3569 127.886 79.306 128.166 79.2805V81.367C127.835 81.4688 127.53 81.5197 127.199 81.5706C126.843 81.6469 126.461 81.6469 126.105 81.6469C123.459 81.6469 122.11 80.1965 122.11 77.2704V71.6725H122.136Z" fill="#FFBB00"/>
<path d="M124.604 66.1255V69.5861H128.166V71.6725H124.604V76.9651C124.604 77.8557 124.757 78.4918 125.062 78.848C125.393 79.2297 125.876 79.4078 126.614 79.4078C126.945 79.4078 127.225 79.4078 127.428 79.3824C127.632 79.3569 127.886 79.306 128.166 79.2806V81.3671C127.835 81.4689 127.53 81.5197 127.199 81.5706C126.843 81.647 126.461 81.647 126.105 81.647C123.459 81.647 122.11 80.1966 122.11 77.2704V71.6725H119.744V69.5861H122.11V66.1255H124.578M125.291 65.4131H121.398V68.8736H119.031V72.385H121.398V77.2704C121.398 81.4943 123.968 82.3594 126.105 82.3594C126.487 82.3594 126.919 82.3594 127.352 82.2831L127.657 82.2322C127.912 82.1813 128.141 82.1304 128.395 82.0541L128.879 81.9014V78.4918L128.09 78.5936C127.785 78.619 127.53 78.6699 127.327 78.6954C127.199 78.6954 127.021 78.7208 126.818 78.7208C126.767 78.7208 126.69 78.7208 126.64 78.7208C125.953 78.7208 125.749 78.5427 125.647 78.4155C125.545 78.2882 125.342 77.9829 125.342 76.9905V72.4105H128.904V68.899H125.342V65.4385L125.291 65.4131Z" fill="black"/>
<path d="M138.599 73.7336C138.344 73.072 137.937 72.5377 137.352 72.1305C136.767 71.7234 136.105 71.5708 135.367 71.5199C134.298 71.5199 133.459 71.8761 132.848 72.5885C132.212 73.301 131.881 74.2425 131.881 75.4638C131.881 76.6852 132.212 77.6521 132.797 78.3646C133.382 79.077 134.222 79.4332 135.24 79.4332C136.029 79.4332 136.69 79.2297 137.301 78.8226C137.912 78.4409 138.319 77.9066 138.573 77.2195V73.7081L138.599 73.7336ZM141.041 81.418H138.599V79.764C138.166 80.3747 137.606 80.8582 136.97 81.1889C136.309 81.5197 135.545 81.6724 134.706 81.6724C133.688 81.6724 132.721 81.3925 131.957 80.8582C131.143 80.3238 130.507 79.5859 130.049 78.6699C129.591 77.7539 129.337 76.6852 129.337 75.4893C129.337 74.2934 129.591 73.2247 130.049 72.2832C130.507 71.3672 131.169 70.6293 131.983 70.0949C132.797 69.5606 133.739 69.3062 134.858 69.3062C135.672 69.3062 136.385 69.4588 137.021 69.7642C137.657 70.0949 138.192 70.553 138.624 71.1127V69.586H141.067V81.4434L141.041 81.418Z" fill="#FFBB00"/>
<path d="M134.833 69.2808C135.647 69.2808 136.36 69.4335 136.996 69.7388C137.632 70.0696 138.166 70.5276 138.599 71.0874V69.5607H141.041V81.4181H138.599V79.7641C138.166 80.3748 137.606 80.8583 136.97 81.1891C136.309 81.5198 135.545 81.6725 134.706 81.6725C133.688 81.6725 132.721 81.3926 131.958 80.8583C131.143 80.3239 130.507 79.586 130.049 78.67C129.591 77.754 129.337 76.6853 129.337 75.4894C129.337 74.2935 129.591 73.2248 130.049 72.2833C130.507 71.3673 131.169 70.6294 131.983 70.0951C132.797 69.5607 133.764 69.3063 134.858 69.3063M135.291 79.4588C136.08 79.4588 136.741 79.2552 137.352 78.8481C137.963 78.4665 138.37 77.9321 138.624 77.2451V73.7337C138.37 73.0721 137.963 72.5378 137.377 72.1307C136.818 71.749 136.131 71.5709 135.393 71.52C134.324 71.52 133.484 71.8762 132.874 72.5887C132.238 73.3011 131.907 74.2426 131.907 75.4639C131.907 76.6853 132.238 77.6522 132.823 78.3647C133.408 79.0771 134.248 79.4334 135.265 79.4334M134.833 68.5684C133.586 68.5684 132.492 68.8737 131.576 69.4589C130.634 70.0696 129.897 70.9093 129.388 71.9271C128.879 73.0212 128.599 74.1917 128.599 75.4639C128.599 76.7362 128.853 77.9321 129.388 78.9753C129.922 80.0186 130.634 80.8583 131.55 81.4435C132.441 82.0542 133.535 82.385 134.706 82.385C135.622 82.385 136.461 82.2069 137.276 81.8252C137.479 81.7234 137.683 81.5962 137.886 81.469V82.156H141.754V68.8737H137.886V69.4589C137.708 69.3317 137.53 69.2299 137.326 69.1282C136.614 68.7719 135.8 68.5938 134.858 68.5938L134.833 68.5684ZM135.265 78.7209C134.451 78.7209 133.841 78.4664 133.357 77.9067C132.874 77.3214 132.619 76.4817 132.619 75.4639C132.619 74.4461 132.874 73.6574 133.383 73.0721C133.866 72.5123 134.502 72.2579 135.367 72.2579C136.003 72.2833 136.512 72.436 136.945 72.7413C137.377 73.0212 137.683 73.4029 137.886 73.8864V77.1179C137.683 77.6013 137.377 77.9576 136.945 78.2374C136.436 78.5682 135.902 78.7209 135.291 78.7209H135.265Z" fill="black"/>
<path d="M128.853 50.808V52.7163C128.853 52.869 128.853 52.9708 128.828 53.098C128.802 53.4542 128.726 53.8105 128.65 54.1158C128.497 54.6502 128.319 55.1336 128.09 55.5916C127.886 55.9733 127.607 56.3295 127.276 56.6094C127.098 56.7875 126.894 56.9402 126.665 57.0674C126.233 57.3219 125.775 57.5 125.291 57.5509C125.215 57.5509 125.189 57.5509 125.113 57.5763H123.943C123.79 57.5509 123.612 57.5509 123.484 57.5C123.128 57.4237 122.823 57.3219 122.518 57.1438C122.136 56.9402 121.805 56.6858 121.5 56.4059C121.245 56.1514 121.016 55.9224 120.762 55.6171C120.406 55.1845 120.1 54.7265 119.77 54.3194C119.312 53.6069 118.854 52.8945 118.421 52.1566C117.937 51.3169 117.429 50.4517 116.945 49.6375C116.792 49.3831 116.614 49.1541 116.487 48.8996C116.487 48.8996 116.487 48.8742 116.462 48.8742C116.462 48.8742 116.436 48.8742 116.385 48.8742C116.385 48.8742 116.385 48.8996 116.36 48.8996C116.334 48.9759 116.258 49.0777 116.207 49.1541C116.004 49.5103 115.775 49.892 115.571 50.2482C115.215 50.8589 114.91 51.4441 114.553 52.0039C114.223 52.5637 113.917 53.098 113.561 53.6324C113.23 54.1667 112.899 54.6502 112.492 55.1591C112.161 55.5407 111.856 55.9479 111.5 56.2532C111.245 56.5076 110.966 56.7112 110.686 56.8893C110.202 57.2201 109.668 57.4237 109.083 57.5C109.057 57.5 108.981 57.5 108.93 57.5254H107.734C107.531 57.5 107.276 57.4491 107.073 57.3728C106.233 57.1183 105.546 56.6603 105.011 55.9987C104.732 55.6425 104.477 55.21 104.299 54.8028C104.095 54.2685 103.943 53.7087 103.866 53.1489C103.841 52.9454 103.79 52.7163 103.79 52.4873C103.79 52.2838 103.765 52.0548 103.765 51.8767V50.9098C103.765 50.7062 103.79 50.4772 103.79 50.2736C103.816 49.9937 103.866 49.7138 103.892 49.4339C103.994 48.8233 104.095 48.238 104.274 47.6782C104.477 46.9403 104.732 46.2024 105.088 45.5154C105.368 44.9047 105.698 44.345 106.055 43.8106C106.411 43.3272 106.767 42.8946 107.174 42.462C107.505 42.1821 107.81 41.9022 108.167 41.6732C108.599 41.3933 109.057 41.1898 109.541 41.0371C109.922 40.9353 110.355 40.8335 110.787 40.8335H111.169C111.373 40.8335 111.602 40.859 111.78 40.9099C112.441 41.0117 113.078 41.2407 113.663 41.5715C114.197 41.9022 114.655 42.233 115.113 42.6656C115.393 42.92 115.647 43.1999 115.902 43.4544C116.156 43.7343 116.36 43.9887 116.563 44.2686C116.563 44.2686 116.597 44.2686 116.665 44.2686C116.767 44.1159 116.92 43.9378 117.021 43.8106C117.276 43.4798 117.505 43.1999 117.81 42.8946L118.548 42.1567C118.828 41.9022 119.159 41.6732 119.515 41.4442C119.871 41.2152 120.253 41.0626 120.635 40.9608C120.915 40.8844 121.169 40.8081 121.449 40.8081H122.11C122.289 40.8081 122.467 40.8335 122.67 40.8844C123.23 40.9862 123.764 41.2407 124.299 41.5206C124.757 41.8005 125.189 42.1567 125.571 42.5129C125.673 42.6147 125.825 42.7674 125.927 42.8946C126.182 43.1745 126.385 43.4544 126.589 43.7852C127.021 44.4213 127.378 45.0574 127.657 45.7699C127.836 46.1515 127.988 46.5587 128.09 46.9658C128.243 47.3983 128.344 47.8564 128.446 48.2635C128.523 48.6197 128.599 48.925 128.624 49.2813C128.65 49.5357 128.701 49.7393 128.701 49.9937C128.726 50.1719 128.726 50.35 128.726 50.5281C128.828 50.6808 128.828 50.7062 128.828 50.7316L128.853 50.808ZM126.487 51.724V51.5713C126.487 51.3169 126.487 51.0879 126.462 50.8334C126.462 50.6299 126.436 50.4009 126.385 50.1973C126.36 49.8665 126.309 49.5357 126.233 49.2049C126.08 48.3907 125.876 47.5765 125.571 46.8386C125.367 46.3042 125.113 45.7699 124.782 45.2864C124.528 44.8539 124.222 44.4976 123.866 44.1668C123.612 43.9124 123.383 43.7088 123.052 43.5562C122.594 43.2763 122.06 43.1236 121.525 43.1236C121.373 43.1236 121.245 43.149 121.093 43.149C120.813 43.2254 120.533 43.3272 120.278 43.4798C119.999 43.6579 119.744 43.8361 119.541 44.0396C119.21 44.3704 118.904 44.7012 118.625 45.0574C118.37 45.3882 118.167 45.6935 117.963 46.0498C117.887 46.1515 117.887 46.1261 117.963 46.2279C118.421 46.9403 118.879 47.6528 119.312 48.3398C119.744 49.0523 120.126 49.7138 120.558 50.4263C120.762 50.7825 120.991 51.1388 121.22 51.495C121.576 52.0293 121.881 52.5637 122.289 53.098C122.543 53.4542 122.823 53.8105 123.103 54.1667C123.255 54.3448 123.434 54.4975 123.637 54.6247C123.841 54.7774 124.07 54.8283 124.273 54.8792C124.477 54.9046 124.655 54.9046 124.884 54.8792C125.317 54.8537 125.673 54.6247 125.902 54.3194C126.054 54.1158 126.156 53.8868 126.258 53.6578C126.411 53.2252 126.462 52.8181 126.462 52.3856V52.2074C126.462 52.2074 126.487 51.9276 126.487 51.7494V51.724ZM106.513 51.8767V52.2074C106.513 52.4619 106.538 52.6909 106.589 52.9454C106.614 53.2252 106.691 53.5051 106.843 53.785C106.945 54.0395 107.098 54.2685 107.301 54.4975C107.454 54.6502 107.632 54.7519 107.785 54.8283C107.989 54.9046 108.167 54.9301 108.396 54.981H108.726C108.981 54.9555 109.184 54.8792 109.388 54.7774C109.642 54.6247 109.821 54.4975 110.024 54.3194C110.228 54.1413 110.406 53.9377 110.558 53.7087C110.915 53.2761 111.195 52.869 111.525 52.4365C111.907 51.8767 112.314 51.266 112.645 50.7062C112.899 50.3245 113.179 49.892 113.434 49.5103C113.714 49.0523 114.044 48.5943 114.324 48.1363C114.528 47.78 114.782 47.4238 114.986 47.1185C114.986 47.1185 114.986 47.0591 114.986 46.9403C114.655 46.4823 114.324 46.0243 113.968 45.6426C113.688 45.3119 113.408 45.032 113.128 44.7521C112.925 44.574 112.696 44.3958 112.467 44.2686C112.238 44.1414 111.932 44.0142 111.627 43.9378C111.424 43.9124 111.195 43.8615 110.991 43.8615C110.813 43.8615 110.635 43.8869 110.457 43.9378C110.126 44.0396 109.846 44.1923 109.566 44.3704C109.312 44.5485 109.108 44.7266 108.93 44.9302C108.752 45.1083 108.599 45.3119 108.447 45.5409C108.116 45.9734 107.887 46.4314 107.658 46.9149C107.378 47.551 107.174 48.1871 106.996 48.8233C106.894 49.2813 106.793 49.7902 106.716 50.2482C106.691 50.4517 106.64 50.7062 106.64 50.9098C106.64 51.0879 106.614 51.266 106.614 51.4695C106.589 51.5713 106.589 51.7494 106.589 51.9276L106.513 51.8767Z" fill="#FFF3D9"/>
<path d="M122.111 40.8592C122.289 40.8592 122.467 40.8846 122.67 40.9355C123.23 41.0373 123.764 41.2917 124.299 41.5716C124.757 41.8515 125.189 42.2077 125.571 42.564C125.673 42.6658 125.825 42.8184 125.927 42.9456C126.182 43.2255 126.385 43.5054 126.589 43.8362C127.021 44.4723 127.378 45.1085 127.657 45.8209C127.836 46.2026 127.988 46.6097 128.09 47.0168C128.243 47.4494 128.345 47.9074 128.446 48.3145C128.523 48.6708 128.599 48.9761 128.624 49.3323C128.65 49.5868 128.701 49.7903 128.701 50.0448C128.726 50.2229 128.726 50.401 128.726 50.5791C128.828 50.7318 128.828 50.7572 128.828 50.7827V52.6911C128.828 52.8437 128.828 52.9455 128.803 53.0727C128.777 53.429 128.701 53.7852 128.624 54.0905C128.472 54.6249 128.294 55.1083 128.065 55.5663C127.861 55.948 127.581 56.3043 127.25 56.5841C127.072 56.7623 126.869 56.9149 126.64 57.0422C126.207 57.2966 125.749 57.4747 125.266 57.5256C125.189 57.5256 125.164 57.5256 125.088 57.5511H123.917C123.764 57.5256 123.586 57.5256 123.459 57.4747C123.103 57.3984 122.798 57.2966 122.492 57.1185C122.11 56.9149 121.78 56.6605 121.474 56.3806C121.22 56.1261 120.991 55.8971 120.736 55.5918C120.38 55.1592 120.075 54.7012 119.744 54.2941C119.286 53.5816 118.828 52.8692 118.396 52.1313C117.912 51.2916 117.403 50.4265 116.92 49.6122C116.767 49.3578 116.589 49.1288 116.462 48.8743C116.462 48.8743 116.462 48.8489 116.436 48.8489L116.411 48.8234C116.411 48.8234 116.411 48.8234 116.385 48.8489C116.385 48.8489 116.385 48.8743 116.36 48.8743C116.334 48.9507 116.258 49.0524 116.207 49.1288C116.004 49.485 115.775 49.8667 115.571 50.2229C115.215 50.8336 114.91 51.4188 114.553 51.9786C114.223 52.5384 113.917 53.0727 113.561 53.6071C113.23 54.1414 112.899 54.6249 112.492 55.1338C112.162 55.5155 111.856 55.9226 111.5 56.2279C111.245 56.4824 110.966 56.6859 110.686 56.864C110.202 57.1948 109.668 57.3984 109.083 57.4747C109.057 57.4747 108.981 57.4747 108.93 57.5002H107.734C107.531 57.4747 107.276 57.4238 107.073 57.3475C106.233 57.093 105.546 56.635 105.011 55.9735C104.732 55.6172 104.477 55.1847 104.299 54.7776C104.095 54.2432 103.943 53.6834 103.866 53.1236C103.841 52.9201 103.79 52.6911 103.79 52.4621C103.79 52.2585 103.765 52.0295 103.765 51.8514V50.8845C103.765 50.6809 103.79 50.4519 103.79 50.2484C103.816 49.9685 103.866 49.6886 103.892 49.4087C103.994 48.798 104.095 48.2128 104.274 47.653C104.477 46.9151 104.732 46.1772 105.088 45.4901C105.368 44.8795 105.698 44.3197 106.055 43.7853C106.411 43.3019 106.767 42.8693 107.174 42.4367C107.505 42.1569 107.81 41.877 108.167 41.648C108.599 41.3681 109.057 41.1645 109.541 41.0118C109.922 40.9101 110.355 40.8083 110.787 40.8083H111.169C111.373 40.8083 111.602 40.8337 111.78 40.8846C112.441 40.9864 113.078 41.2154 113.663 41.5462C114.197 41.877 114.655 42.2077 115.113 42.6403C115.393 42.8948 115.647 43.1747 115.902 43.4291C116.156 43.709 116.36 43.9634 116.563 44.2433C116.589 44.2688 116.614 44.2942 116.64 44.2942C116.665 44.2942 116.64 44.2942 116.691 44.2433C116.793 44.0907 116.945 43.9126 117.047 43.7853C117.301 43.4545 117.53 43.1747 117.836 42.8693C118.09 42.6149 118.319 42.3859 118.574 42.1314C118.854 41.877 119.184 41.648 119.541 41.4189C119.897 41.2154 120.278 41.0373 120.66 40.9355C120.94 40.8592 121.194 40.7828 121.474 40.7828H122.136M124.553 54.803C124.553 54.803 124.757 54.803 124.859 54.7776C125.291 54.7521 125.647 54.5231 125.876 54.2178C126.029 54.0142 126.131 53.7852 126.233 53.5562C126.385 53.1236 126.436 52.7165 126.436 52.2839V52.1058C126.436 52.1058 126.462 51.8259 126.462 51.6478V51.4952C126.462 51.2407 126.462 51.0117 126.436 50.7572C126.436 50.5537 126.411 50.3247 126.36 50.1211C126.334 49.7903 126.283 49.4596 126.207 49.1288C126.054 48.3145 125.851 47.5003 125.546 46.7624C125.342 46.228 125.088 45.6937 124.757 45.2103C124.502 44.7777 124.197 44.4215 123.841 44.0907C123.586 43.8362 123.357 43.6327 123.027 43.48C122.569 43.2001 122.034 43.0474 121.5 43.0474C121.347 43.0474 121.22 43.0729 121.067 43.0729C120.787 43.1492 120.507 43.251 120.253 43.4037C119.973 43.5818 119.719 43.7599 119.515 43.9634C119.184 44.2942 118.879 44.625 118.599 44.9812C118.345 45.312 118.141 45.6174 117.938 45.9736C117.861 46.0754 117.861 46.0499 117.938 46.1517C118.396 46.8642 118.854 47.5766 119.286 48.2636C119.719 48.9761 120.1 49.6377 120.533 50.3501C120.736 50.7064 120.965 51.0626 121.194 51.4188C121.551 51.9532 121.856 52.4875 122.263 53.0219C122.518 53.3781 122.798 53.7343 123.077 54.0905C123.23 54.2687 123.408 54.4213 123.612 54.5486C123.815 54.7012 124.044 54.7521 124.248 54.803C124.35 54.803 124.451 54.8284 124.553 54.8284M108.37 54.8793H108.701C108.955 54.8539 109.159 54.7776 109.363 54.6758C109.617 54.5231 109.795 54.3959 109.999 54.2178C110.202 54.0396 110.38 53.8361 110.533 53.6071C110.889 53.1745 111.169 52.7674 111.5 52.3348C111.882 51.775 112.289 51.1644 112.62 50.6046C112.874 50.2229 113.154 49.7903 113.408 49.4087C113.688 48.9507 114.019 48.4926 114.299 48.0346C114.502 47.6784 114.757 47.3222 114.96 47.0168C114.96 47.0168 114.96 46.9575 114.96 46.8387C114.63 46.3807 114.299 45.9227 113.943 45.541C113.663 45.2102 113.383 44.9304 113.103 44.6505C112.899 44.4723 112.67 44.2942 112.441 44.167C112.187 44.0143 111.907 43.9126 111.602 43.8362C111.398 43.8108 111.169 43.7599 110.966 43.7599C110.787 43.7599 110.609 43.7853 110.431 43.8362C110.1 43.938 109.821 44.0907 109.541 44.2688C109.286 44.4469 109.083 44.625 108.905 44.8286C108.726 45.0067 108.574 45.2103 108.421 45.4393C108.09 45.8718 107.861 46.3298 107.632 46.8133C107.352 47.4494 107.149 48.0855 106.971 48.7217C106.869 49.1797 106.767 49.6886 106.691 50.1466C106.665 50.3501 106.615 50.6046 106.615 50.8081C106.615 50.9863 106.589 51.1644 106.589 51.3679C106.564 51.4697 106.564 51.6478 106.564 51.8259V52.1567C106.564 52.4112 106.589 52.6402 106.64 52.8946C106.665 53.1745 106.742 53.4544 106.894 53.7343C106.996 53.9888 107.149 54.2178 107.352 54.4468C107.505 54.5994 107.683 54.7012 107.836 54.7776C108.039 54.8539 108.218 54.8793 108.447 54.9302M122.212 40.1467H121.551C121.22 40.1467 120.915 40.223 120.635 40.2994C120.1 40.452 119.642 40.6302 119.235 40.8846C118.879 41.0882 118.548 41.3426 118.167 41.6734L117.378 42.4367C117.123 42.7421 116.894 42.9711 116.691 43.251C116.64 43.1747 116.563 43.1238 116.513 43.0474L116.258 42.7675C116.08 42.564 115.876 42.3859 115.673 42.2077C115.164 41.7497 114.681 41.3681 114.121 41.0373C113.51 40.6556 112.798 40.4012 111.983 40.2739C111.805 40.223 111.525 40.1976 111.271 40.1976H110.991C110.38 40.1976 109.871 40.3248 109.464 40.4266C108.905 40.5793 108.37 40.8337 107.887 41.1645C107.505 41.3935 107.149 41.6988 106.818 42.0042C106.36 42.4622 105.953 42.9202 105.571 43.48C105.19 44.0652 104.859 44.6505 104.553 45.2866C104.146 46.0499 103.892 46.8896 103.688 47.5512C103.51 48.1364 103.383 48.7725 103.281 49.3832L103.23 49.8412L103.179 50.2738C103.179 50.4519 103.179 50.5282 103.179 50.63C103.179 50.7572 103.179 50.8845 103.179 51.0117V51.9786C103.179 51.9786 103.179 52.2076 103.179 52.3094C103.179 52.3857 103.179 52.4875 103.179 52.5638C103.179 52.8437 103.23 53.0982 103.256 53.3526C103.332 53.9633 103.485 54.574 103.714 55.1592C103.917 55.6681 104.197 56.1516 104.528 56.5333C105.139 57.322 105.953 57.8564 106.945 58.1617C107.149 58.2381 107.403 58.2635 107.632 58.3144H107.683H107.81H109.312L109.388 58.2381C110.024 58.1363 110.609 57.9073 111.144 57.5511C111.5 57.322 111.805 57.093 112.085 56.8132C112.441 56.4824 112.798 56.0752 113.128 55.6681C113.586 55.0829 113.943 54.574 114.248 54.0651C114.604 53.5562 114.91 52.9964 115.24 52.4112C115.444 52.0804 115.647 51.7242 115.851 51.3425C115.978 51.1135 116.105 50.8845 116.258 50.6555C116.334 50.5282 116.436 50.3756 116.513 50.2229C116.971 50.9863 117.429 51.775 117.887 52.5638C118.319 53.3017 118.777 54.0397 119.261 54.7521L119.566 55.1592C119.795 55.49 120.049 55.8208 120.304 56.1261C120.584 56.4315 120.838 56.6859 121.093 56.9404C121.398 57.2203 121.78 57.5256 122.289 57.8055C122.594 57.9836 122.976 58.1363 123.434 58.2381C123.51 58.2381 123.612 58.2635 123.714 58.289C123.764 58.289 123.815 58.289 123.841 58.289H123.917H123.993H125.317L125.418 58.2381C126.054 58.1363 126.563 57.9582 127.072 57.6528C127.327 57.4747 127.581 57.2966 127.81 57.093C128.166 56.7877 128.497 56.3551 128.752 55.8971C129.006 55.4137 129.21 54.8793 129.388 54.2432C129.464 53.8615 129.54 53.4799 129.591 53.0982C129.642 52.971 129.642 52.7928 129.642 52.6402V50.7318C129.642 50.5791 129.591 50.4265 129.54 50.2992C129.54 50.172 129.54 50.0448 129.515 49.9176C129.515 49.6886 129.49 49.485 129.439 49.256C129.388 48.8743 129.337 48.569 129.286 48.2636V48.111L129.184 47.8565C129.082 47.4748 128.981 47.0677 128.879 46.7115C128.777 46.3298 128.624 45.8973 128.421 45.4393C128.141 44.7522 127.785 44.0907 127.301 43.3528C127.072 42.9965 126.843 42.6912 126.563 42.3859C126.462 42.2586 126.309 42.0805 126.182 41.9533C125.825 41.648 125.342 41.2154 124.782 40.8592C124.197 40.5538 123.586 40.2485 122.925 40.1213C122.594 40.0704 122.416 40.0449 122.238 40.0449L122.212 40.1467ZM121.296 43.8617C121.296 43.8617 121.423 43.8617 121.5 43.8617C121.525 43.8617 121.551 43.8617 121.576 43.8617C122.06 43.8617 122.441 43.9634 122.772 44.167C123.077 44.3197 123.256 44.4723 123.459 44.6759C123.739 44.9558 124.044 45.2866 124.273 45.6683C124.553 46.1008 124.782 46.5588 125.011 47.1186C125.291 47.7547 125.495 48.4926 125.647 49.3578C125.724 49.6631 125.749 49.943 125.775 50.2229C125.825 50.5282 125.851 50.6809 125.851 50.859C125.876 51.1644 125.876 51.3934 125.876 51.5969V51.7496C125.876 51.7496 125.876 51.9532 125.876 52.0295V52.1313L125.851 52.2076V52.3857C125.851 52.742 125.8 53.0727 125.673 53.429C125.596 53.5816 125.52 53.7598 125.393 53.9379C125.291 54.0651 125.113 54.1669 124.909 54.1923C124.782 54.1923 124.731 54.1923 124.68 54.1923C124.63 54.1923 124.553 54.1923 124.502 54.1923C124.35 54.1923 124.248 54.116 124.146 54.0651C123.968 53.9379 123.866 53.8615 123.764 53.7598C123.485 53.4035 123.205 53.0727 122.976 52.742C122.721 52.3857 122.492 52.0549 122.263 51.6987L121.907 51.1644C121.652 50.8081 121.449 50.4774 121.245 50.1211L120.635 49.0779L120.024 48.0346C119.642 47.424 119.261 46.7878 118.854 46.1772C119.006 45.9482 119.133 45.7446 119.312 45.541C119.566 45.2102 119.871 44.8795 120.177 44.5741C120.329 44.4215 120.507 44.2942 120.787 44.1161C120.915 44.0398 121.118 43.9634 121.322 43.9126L121.296 43.8617ZM108.523 54.2178C108.37 54.1923 108.243 54.1669 108.065 54.116C108.014 54.0905 107.912 54.0396 107.836 53.9633C107.709 53.8361 107.607 53.6834 107.531 53.4799C107.429 53.2509 107.352 53.0727 107.327 52.8183C107.302 52.5893 107.251 52.3857 107.251 52.1567V51.8259C107.251 51.8259 107.251 51.6224 107.251 51.546V51.4443L107.276 51.3679C107.276 51.2916 107.276 51.1898 107.276 51.1389C107.276 51.0371 107.276 50.9099 107.276 50.8081C107.276 50.63 107.302 50.4265 107.327 50.2484C107.403 49.7903 107.505 49.3323 107.607 48.8743C107.785 48.2128 107.989 47.6275 108.243 47.0932C108.447 46.6097 108.676 46.2026 108.93 45.8464L109.108 45.6174C109.108 45.6174 109.261 45.4138 109.363 45.312C109.515 45.1339 109.668 44.9812 109.897 44.8286C110.126 44.7013 110.355 44.5741 110.584 44.4978C110.635 44.4978 110.762 44.4723 110.889 44.4723C111.067 44.4723 111.245 44.4978 111.398 44.5232C111.602 44.5741 111.831 44.6505 112.009 44.7522C112.212 44.8795 112.391 45.0321 112.569 45.1848C112.798 45.4138 113.078 45.6937 113.332 45.999C113.586 46.2789 113.841 46.5843 114.095 46.9405C113.943 47.1695 113.765 47.424 113.612 47.6784C113.485 47.9074 113.332 48.111 113.179 48.34C113.027 48.569 112.874 48.798 112.721 49.0524L112.34 49.6377L111.958 50.2484C111.602 50.8081 111.22 51.3934 110.838 51.9532L110.533 52.3603C110.329 52.6402 110.151 52.8946 109.922 53.1745C109.744 53.4035 109.617 53.5562 109.49 53.6834C109.312 53.8361 109.159 53.9633 108.955 54.0651C108.828 54.116 108.701 54.1669 108.548 54.1923H108.396L108.523 54.2178Z" fill="black"/>
<path d="M114.884 108.364C112.721 108.364 110.966 110.12 110.966 112.283C110.966 114.446 112.721 116.227 114.884 116.227C117.047 116.227 118.828 114.471 118.828 112.283C118.828 110.095 117.072 108.364 114.884 108.364Z" fill="white"/>
<path d="M114.884 116.787C112.416 116.787 110.406 114.777 110.406 112.283C110.406 109.789 112.416 107.805 114.884 107.805C117.352 107.805 119.388 109.815 119.388 112.283C119.388 114.751 117.378 116.787 114.884 116.787ZM114.884 108.924C113.027 108.924 111.525 110.426 111.525 112.283C111.525 114.14 113.027 115.667 114.884 115.667C116.742 115.667 118.268 114.166 118.268 112.283C118.268 110.4 116.767 108.924 114.884 108.924Z" fill="black"/>
</g>
<defs>
<clipPath id="clip0_707_1873">
<rect width="212.364" height="171.652" fill="white" transform="translate(0 0.808594)"/>
</clipPath>
</defs>
</svg>
