<svg width="231" height="149" viewBox="0 0 231 149" fill="none" xmlns="http://www.w3.org/2000/svg">
<g clip-path="url(#clip0_694_929)">
<path d="M226.681 110.318C226.732 110.088 226.426 109.935 226.273 110.114L222.549 113.838C222.191 114.195 221.962 114.628 221.86 115.139L221.273 118.939L226.12 114.093L226.655 110.343L226.681 110.318Z" fill="white"/>
<path d="M220.635 120.163L221.426 115.011C221.528 114.424 221.809 113.889 222.217 113.481L225.941 109.757C226.145 109.553 226.477 109.502 226.757 109.629C227.012 109.757 227.165 110.063 227.114 110.343L226.553 114.22L220.635 120.138V120.163ZM226.145 110.828L222.855 114.118C222.574 114.399 222.37 114.782 222.293 115.164L221.911 117.587L225.686 113.812L226.12 110.802L226.145 110.828Z" fill="black"/>
<path d="M229.844 113.481C230.073 113.43 230.226 113.736 230.048 113.889L226.324 117.613C225.966 117.97 225.507 118.2 225.023 118.302L221.273 118.914L226.12 114.067L229.844 113.481Z" fill="white"/>
<path d="M219.998 119.551L225.915 113.634L229.767 113.021C230.048 112.97 230.354 113.124 230.481 113.379C230.609 113.634 230.558 113.965 230.354 114.169L226.63 117.893C226.221 118.301 225.686 118.582 225.099 118.684L219.947 119.526L219.998 119.551ZM226.349 114.45L222.599 118.199L224.997 117.791C225.38 117.715 225.762 117.536 226.043 117.23L229.308 113.965L226.349 114.424V114.45Z" fill="black"/>
<path d="M225.711 130.927C225.711 140.084 218.289 147.507 209.132 147.507C199.975 147.507 192.552 140.084 192.552 130.927C192.552 121.77 199.975 114.348 209.132 114.348C218.289 114.348 225.711 121.77 225.711 130.927Z" fill="white"/>
<path d="M209.132 147.966C199.745 147.966 192.119 140.339 192.119 130.927C192.119 121.515 199.745 113.889 209.132 113.889C218.518 113.889 226.145 121.515 226.145 130.927C226.145 140.339 218.518 147.966 209.132 147.966ZM209.132 114.807C200.23 114.807 192.986 122.051 192.986 130.953C192.986 139.855 200.23 147.099 209.132 147.099C218.034 147.099 225.278 139.855 225.278 130.953C225.278 122.051 218.034 114.807 209.132 114.807Z" fill="black"/>
<path d="M209.132 143.936C201.965 143.936 196.149 138.121 196.149 130.953C196.149 123.786 201.965 117.97 209.132 117.97C216.299 117.97 222.115 123.786 222.115 130.953C222.115 138.121 216.299 143.936 209.132 143.936Z" fill="#38A770"/>
<path d="M209.132 144.37C201.735 144.37 195.69 138.35 195.69 130.928C195.69 123.505 201.709 117.485 209.132 117.485C212.703 117.485 216.095 118.888 218.62 121.413C221.171 123.964 222.549 127.331 222.549 130.902C222.549 138.299 216.529 144.344 209.106 144.344L209.132 144.37ZM209.132 118.404C202.219 118.404 196.582 124.041 196.582 130.953C196.582 137.865 202.219 143.502 209.132 143.502C216.044 143.502 221.681 137.865 221.681 130.953C221.681 127.612 220.38 124.474 218.008 122.102C215.636 119.73 212.499 118.429 209.157 118.429L209.132 118.404Z" fill="black"/>
<path d="M209.132 140.034C204.107 140.034 200.052 135.952 200.052 130.953C200.052 125.928 204.133 121.873 209.132 121.873C214.131 121.873 218.213 125.954 218.213 130.953C218.213 135.952 214.131 140.034 209.132 140.034Z" fill="#EBFFF4"/>
<path d="M209.132 140.467C203.877 140.467 199.592 136.182 199.592 130.927C199.592 125.673 203.877 121.388 209.132 121.388C214.386 121.388 218.672 125.673 218.672 130.927C218.672 136.182 214.386 140.467 209.132 140.467ZM209.132 122.28C204.362 122.28 200.485 126.158 200.485 130.927C200.485 135.697 204.362 139.574 209.132 139.574C213.902 139.574 217.779 135.697 217.779 130.927C217.779 126.158 213.902 122.28 209.132 122.28Z" fill="black"/>
<path d="M209.132 134.294C210.991 134.294 212.499 132.786 212.499 130.927C212.499 129.067 210.991 127.56 209.132 127.56C207.272 127.56 205.765 129.067 205.765 130.927C205.765 132.786 207.272 134.294 209.132 134.294Z" fill="#38A770"/>
<path d="M209.132 134.753C207.015 134.753 205.306 133.044 205.306 130.927C205.306 128.81 207.015 127.101 209.132 127.101C211.249 127.101 212.958 128.81 212.958 130.927C212.958 133.044 211.249 134.753 209.132 134.753ZM209.132 128.019C207.525 128.019 206.198 129.32 206.198 130.953C206.198 132.585 207.499 133.886 209.132 133.886C210.764 133.886 212.065 132.585 212.065 130.953C212.065 129.32 210.764 128.019 209.132 128.019Z" fill="black"/>
<path d="M225.831 113.753L211.231 128.409L211.864 129.039L226.463 114.383L225.831 113.753Z" fill="black"/>
<path d="M212.677 124.882L208.775 131.055C208.775 131.055 208.775 131.055 208.8 131.081L208.928 131.208C208.928 131.208 209.132 131.361 209.259 131.412L215.33 127.586L212.856 127.382L212.652 124.908L212.677 124.882Z" fill="black"/>
<path d="M49.1774 25.8383C49.1774 34.8677 41.8569 42.1883 32.8274 42.1883C23.7979 42.1883 16.4519 34.8677 16.4519 25.8383C16.4519 16.8088 23.7724 9.48828 32.8274 9.48828C41.8824 9.48828 49.1774 16.8088 49.1774 25.8383Z" fill="white"/>
<path d="M32.8019 42.5965C23.5429 42.5965 16.0183 35.0719 16.0183 25.8129C16.0183 16.5539 23.5429 9.0293 32.8019 9.0293C42.061 9.0293 49.5855 16.5539 49.5855 25.8129C49.5855 35.0719 42.061 42.5965 32.8019 42.5965ZM32.8019 9.87103C24.002 9.87103 16.86 17.0385 16.86 25.8129C16.86 34.5873 24.0275 41.7548 32.8019 41.7548C41.5763 41.7548 48.7438 34.5873 48.7438 25.8129C48.7438 17.0385 41.5763 9.87103 32.8019 9.87103Z" fill="black"/>
<path d="M21.6808 25.8386C21.6808 26.2722 21.3237 26.6548 20.8901 26.6548C20.4565 26.6548 20.0994 26.2977 20.0994 25.8386C20.0994 25.3794 20.4565 25.0479 20.8901 25.0479C21.3237 25.0479 21.6808 25.405 21.6808 25.8386Z" fill="#B6F2D0"/>
<path d="M20.8901 27.0629C20.2269 27.0629 19.6658 26.5273 19.6658 25.8386C19.6658 25.1499 20.2014 24.6143 20.8901 24.6143C21.5788 24.6143 22.1144 25.1499 22.1144 25.8386C22.1144 26.5273 21.5788 27.0629 20.8901 27.0629ZM20.8901 25.456C20.6861 25.456 20.5075 25.6345 20.5075 25.8386C20.5075 26.0427 20.6861 26.2212 20.8901 26.2212C21.0942 26.2212 21.2727 26.0427 21.2727 25.8386C21.2727 25.6345 21.0942 25.456 20.8901 25.456Z" fill="black"/>
<path d="M45.2495 25.8386C45.2495 26.2722 44.8924 26.6548 44.4333 26.6548C43.9742 26.6548 43.6426 26.2977 43.6426 25.8386C43.6426 25.3794 43.9997 25.0479 44.4333 25.0479C44.8669 25.0479 45.2495 25.405 45.2495 25.8386Z" fill="#B6F2D0"/>
<path d="M44.4587 27.0629C43.7955 27.0629 43.2344 26.5273 43.2344 25.8386C43.2344 25.1499 43.77 24.6143 44.4587 24.6143C45.1474 24.6143 45.683 25.1499 45.683 25.8386C45.683 26.5273 45.1474 27.0629 44.4587 27.0629ZM44.4587 25.456C44.2547 25.456 44.0761 25.6345 44.0761 25.8386C44.0761 26.0427 44.2547 26.2212 44.4587 26.2212C44.6628 26.2212 44.8413 26.0427 44.8413 25.8386C44.8413 25.6345 44.6628 25.456 44.4587 25.456Z" fill="black"/>
<path d="M33.0059 26.2975C33.0059 26.2975 32.8018 26.272 32.7253 26.1955L24.6141 18.9515C24.4355 18.7984 24.4355 18.5434 24.5886 18.3648C24.7416 18.1863 24.9967 18.1863 25.1752 18.3393L33.2865 25.5833C33.465 25.7363 33.465 25.9914 33.312 26.17C33.2355 26.272 33.1079 26.2975 33.0059 26.2975Z" fill="black"/>
<path d="M37.6481 20.4312L32.7253 25.7366L32.4192 25.3795" fill="white"/>
<path d="M32.7254 26.1702C32.5723 26.1702 32.4958 26.1191 32.4193 26.0171L32.1132 25.66C31.9601 25.4815 31.9856 25.2264 32.1642 25.0734C32.3427 24.9203 32.5978 24.9458 32.7509 25.1244L37.3421 20.1505C37.4952 19.972 37.7502 19.972 37.9288 20.1505C38.1073 20.3036 38.1073 20.5586 37.9288 20.7372L33.0059 26.0681C33.0059 26.0681 32.8274 26.1957 32.6998 26.1957L32.7254 26.1702Z" fill="black"/>
<path d="M33.6182 13.5695C33.6182 14.0031 33.2611 14.3857 32.8275 14.3857C32.3938 14.3857 32.0112 14.0287 32.0112 13.5695C32.0112 13.1104 32.3683 12.7788 32.8275 12.7788C33.2866 12.7788 33.6182 13.1359 33.6182 13.5695Z" fill="#B6F2D0"/>
<path d="M32.802 14.7939C32.1388 14.7939 31.5776 14.2582 31.5776 13.5696C31.5776 12.8809 32.1133 12.3452 32.802 12.3452C33.4907 12.3452 34.0263 12.8809 34.0263 13.5696C34.0263 14.2582 33.4907 14.7939 32.802 14.7939ZM32.802 13.1869C32.5979 13.1869 32.4194 13.3655 32.4194 13.5696C32.4194 13.7736 32.5979 13.9522 32.802 13.9522C33.006 13.9522 33.1846 13.7736 33.1846 13.5696C33.1846 13.3655 33.006 13.1869 32.802 13.1869Z" fill="black"/>
<path d="M33.6182 37.9797C33.6182 38.4133 33.2611 38.7959 32.8275 38.7959C32.3938 38.7959 32.0112 38.4388 32.0112 37.9797C32.0112 37.5206 32.3683 37.189 32.8275 37.189C33.2866 37.189 33.6182 37.5461 33.6182 37.9797Z" fill="#B6F2D0"/>
<path d="M32.802 39.204C32.1388 39.204 31.5776 38.6684 31.5776 37.9797C31.5776 37.291 32.1133 36.7554 32.802 36.7554C33.4907 36.7554 34.0263 37.291 34.0263 37.9797C34.0263 38.6684 33.4907 39.204 32.802 39.204ZM32.802 37.5971C32.5979 37.5971 32.4194 37.7757 32.4194 37.9797C32.4194 38.1838 32.5979 38.3623 32.802 38.3623C33.006 38.3623 33.1846 38.1838 33.1846 37.9797C33.1846 37.7757 33.006 37.5971 32.802 37.5971Z" fill="black"/>
<path d="M34.664 25.8386C34.664 26.8589 33.8222 27.7006 32.802 27.7006C31.7817 27.7006 30.9399 26.8589 30.9399 25.8386C30.9399 24.8183 31.7817 23.9766 32.802 23.9766C33.8222 23.9766 34.664 24.8183 34.664 25.8386Z" fill="#38A770"/>
<path d="M32.8019 28.1086C31.552 28.1086 30.5317 27.0883 30.5317 25.8385C30.5317 24.5886 31.552 23.5684 32.8019 23.5684C34.0517 23.5684 35.072 24.5886 35.072 25.8385C35.072 27.0883 34.0517 28.1086 32.8019 28.1086ZM32.8019 24.3846C32.0111 24.3846 31.348 25.0223 31.348 25.8385C31.348 26.6547 31.9856 27.2924 32.8019 27.2924C33.6181 27.2924 34.2558 26.6547 34.2558 25.8385C34.2558 25.0223 33.6181 24.3846 32.8019 24.3846Z" fill="black"/>
<path d="M56.8296 132.381H27.012V147.481H56.8296V132.381Z" fill="#38A770"/>
<path d="M56.8296 148.093H27.0119C26.6548 148.093 26.3743 147.813 26.3743 147.456V132.355C26.3743 131.998 26.6548 131.718 27.0119 131.718H56.8296C57.1867 131.718 57.4673 131.998 57.4673 132.355V147.456C57.4673 147.813 57.1867 148.093 56.8296 148.093ZM27.6496 146.818H56.1919V132.993H27.6496V146.818Z" fill="black"/>
<path d="M30.1748 144.828H53.9983V135.289H30.1748V144.828Z" fill="#38A770"/>
<path d="M53.9983 145.466H30.1748C29.8177 145.466 29.5371 145.185 29.5371 144.828V135.289C29.5371 134.931 29.8177 134.651 30.1748 134.651H53.9983C54.3554 134.651 54.636 134.931 54.636 135.289V144.828C54.636 145.185 54.3554 145.466 53.9983 145.466ZM30.8125 144.19H53.3606V135.926H30.8125V144.19Z" fill="black"/>
<path d="M47.8002 140.059C47.8002 143.17 45.275 145.721 42.1377 145.721C39.0003 145.721 36.4751 143.196 36.4751 140.059C36.4751 136.921 39.0003 134.396 42.1377 134.396C45.275 134.396 47.8002 136.921 47.8002 140.059Z" fill="white"/>
<path d="M42.1377 146.155C38.7708 146.155 36.0415 143.425 36.0415 140.059C36.0415 136.692 38.7708 133.962 42.1377 133.962C45.5046 133.962 48.2338 136.692 48.2338 140.059C48.2338 143.425 45.5046 146.155 42.1377 146.155ZM42.1377 134.83C39.2554 134.83 36.9342 137.176 36.9342 140.033C36.9342 142.89 39.2809 145.236 42.1377 145.236C44.9945 145.236 47.3411 142.89 47.3411 140.033C47.3411 137.176 44.9945 134.83 42.1377 134.83Z" fill="black"/>
<path d="M40.1479 141.946C40.1479 142.737 40.7346 143.451 41.7549 143.451H42.4691C44.5352 143.451 44.8667 140.186 42.4691 140.237L41.7549 140.161C39.6378 140.161 39.6123 136.947 41.7549 136.947H42.4691C43.5404 136.947 44.1525 137.635 44.1525 138.452" fill="white"/>
<path d="M42.4946 143.91H41.7804C40.6071 143.91 39.7144 143.069 39.7144 141.946C39.7144 141.691 39.9184 141.513 40.148 141.513C40.3776 141.513 40.5816 141.717 40.5816 141.946C40.5816 142.456 40.9387 143.018 41.7549 143.018H42.4691C43.0813 143.018 43.4129 142.635 43.5404 142.405C43.77 142.023 43.77 141.513 43.5659 141.181C43.3619 140.849 43.0048 140.696 42.4691 140.671L41.7039 140.594H41.6784C40.9897 140.594 40.3521 140.237 39.995 139.651C39.6124 138.987 39.6124 138.146 39.995 137.457C40.3521 136.845 40.9897 136.488 41.7549 136.488H42.4691C43.8465 136.488 44.5862 137.457 44.5862 138.426C44.5862 138.681 44.3822 138.86 44.1526 138.86C43.923 138.86 43.719 138.656 43.719 138.426C43.719 137.942 43.3874 137.381 42.4946 137.381H41.7804C41.2193 137.381 40.9387 137.661 40.7857 137.916C40.5561 138.299 40.5561 138.809 40.7857 139.217C40.9132 139.447 41.1938 139.727 41.7549 139.727L42.5202 139.804C43.3364 139.804 43.9741 140.11 44.3311 140.747C44.6882 141.36 44.6882 142.201 44.3311 142.865C43.9485 143.528 43.2854 143.91 42.4946 143.91Z" fill="black"/>
<path d="M52.5445 140.466C52.5445 141.308 51.8558 141.997 51.0141 141.997C50.1723 141.997 49.4836 141.308 49.4836 140.466C49.4836 139.625 50.1723 138.936 51.0141 138.936C51.8558 138.936 52.5445 139.625 52.5445 140.466Z" fill="black"/>
<path d="M33.2101 141.921C32.3684 141.921 31.6797 141.232 31.6797 140.39C31.6797 139.549 32.3684 138.86 33.2101 138.86C35.2252 138.86 35.2507 141.921 33.2101 141.921Z" fill="black"/>
<path d="M42.1631 144.93C41.908 144.93 41.7295 144.726 41.7295 144.497V135.901C41.7295 135.646 41.9335 135.467 42.1631 135.467C42.3927 135.467 42.5967 135.671 42.5967 135.901V144.497C42.5967 144.752 42.3927 144.93 42.1631 144.93Z" fill="black"/>
<path d="M34.9955 121.515H16.9366C15.8398 121.515 14.947 122.408 14.947 123.505V134.294C14.947 135.391 15.8398 136.284 16.9366 136.284H34.9955C36.0923 136.284 36.9851 135.391 36.9851 134.294V123.505C36.9851 122.408 36.0923 121.515 34.9955 121.515Z" fill="white"/>
<path d="M34.9955 136.717H16.9366C15.6102 136.717 14.5134 135.621 14.5134 134.294V123.505C14.5134 122.178 15.6102 121.082 16.9366 121.082H34.9955C36.3219 121.082 37.4187 122.178 37.4187 123.505V134.294C37.4187 135.646 36.3219 136.717 34.9955 136.717ZM16.9366 121.949C16.0949 121.949 15.4062 122.637 15.4062 123.479V134.269C15.4062 135.11 16.0949 135.799 16.9366 135.799H34.9955C35.8373 135.799 36.526 135.11 36.526 134.269V123.479C36.526 122.637 35.8373 121.949 34.9955 121.949H16.9366Z" fill="black"/>
<path d="M21.5787 123.811H18.1608C17.555 123.811 17.064 124.302 17.064 124.908V126.234C17.064 126.84 17.555 127.331 18.1608 127.331H21.5787C22.1844 127.331 22.6755 126.84 22.6755 126.234V124.908C22.6755 124.302 22.1844 123.811 21.5787 123.811Z" fill="#B6F2D0"/>
<path d="M21.5788 127.663H18.1608C17.3701 127.663 16.7324 127.025 16.7324 126.234V124.933C16.7324 124.143 17.3701 123.505 18.1608 123.505H21.5788C22.3695 123.505 23.0071 124.143 23.0071 124.933V126.234C23.0071 127.025 22.3695 127.663 21.5788 127.663ZM18.1608 124.143C17.7272 124.143 17.3701 124.5 17.3701 124.933V126.234C17.3701 126.668 17.7272 127.025 18.1608 127.025H21.5788C22.0124 127.025 22.3695 126.668 22.3695 126.234V124.933C22.3695 124.5 22.0124 124.143 21.5788 124.143H18.1608Z" fill="black"/>
<path d="M20.0229 133.58H17.6763C17.4212 133.58 17.2427 133.376 17.2427 133.147C17.2427 132.917 17.4467 132.713 17.6763 132.713H20.0229C20.278 132.713 20.4566 132.917 20.4566 133.147C20.4566 133.376 20.2525 133.58 20.0229 133.58Z" fill="black"/>
<path d="M24.7163 133.58H22.3697C22.1146 133.58 21.936 133.376 21.936 133.147C21.936 132.917 22.1401 132.713 22.3697 132.713H24.7163C24.9714 132.713 25.1499 132.917 25.1499 133.147C25.1499 133.376 24.9459 133.58 24.7163 133.58Z" fill="black"/>
<path d="M29.435 133.58H27.0884C26.8333 133.58 26.6548 133.376 26.6548 133.147C26.6548 132.917 26.8588 132.713 27.0884 132.713H29.435C29.6901 132.713 29.8687 132.917 29.8687 133.147C29.8687 133.376 29.6646 133.58 29.435 133.58Z" fill="black"/>
<path d="M34.1284 133.58H31.7818C31.5267 133.58 31.3481 133.376 31.3481 133.147C31.3481 132.917 31.5522 132.713 31.7818 132.713H34.1284C34.3835 132.713 34.562 132.917 34.562 133.147C34.562 133.376 34.358 133.58 34.1284 133.58Z" fill="black"/>
<path d="M28.0067 130.698H17.6509C17.3958 130.698 17.2173 130.494 17.2173 130.264C17.2173 130.035 17.4213 129.831 17.6509 129.831H28.0067C28.2618 129.831 28.4404 130.035 28.4404 130.264C28.4404 130.494 28.2363 130.698 28.0067 130.698Z" fill="black"/>
<path d="M222.651 71.5726L225.176 69.0474L222.651 66.5223H213.953V65.2214H215.024C215.024 65.2214 215.228 65.1449 215.228 65.0173V63.793C215.228 63.793 215.151 63.5889 215.024 63.5889H214.565V62.2371L212.983 60.6812L211.402 62.2371V63.5889H210.943C210.943 63.5889 210.739 63.6655 210.739 63.793V65.0173C210.739 65.0173 210.815 65.2214 210.943 65.2214H212.014V71.5471H203.316L200.791 74.0723L203.316 76.5975H212.014V78.2555H207.04L204.515 80.7807L207.04 83.3059H212.014V96.2634H211.019C210.815 96.2634 210.637 96.442 210.637 96.646V98.0999H208.928C208.724 98.0999 208.545 98.2785 208.545 98.4825V100.855H217.422V98.4825C217.422 98.2785 217.243 98.0999 217.039 98.0999H215.33V96.646C215.33 96.442 215.151 96.2634 214.947 96.2634H213.953V71.5981H222.651V71.5726Z" fill="#2A9B5F"/>
<path d="M217.422 101.263H208.545C208.29 101.263 208.112 101.059 208.112 100.829V98.4568C208.112 97.9977 208.494 97.6151 208.953 97.6151H210.229V96.6203C210.229 96.1612 210.611 95.7786 211.07 95.7786H211.606V83.7138H207.066C207.066 83.7138 206.836 83.6628 206.76 83.5862L204.235 81.061C204.056 80.8825 204.056 80.6019 204.235 80.4234L206.76 77.8982C206.76 77.8982 206.964 77.7706 207.066 77.7706H211.606V77.0054H203.342C203.342 77.0054 203.112 76.9544 203.036 76.8779L200.536 74.3527C200.357 74.1742 200.357 73.8936 200.536 73.715L203.036 71.1898C203.036 71.1898 203.24 71.0623 203.342 71.0623H211.606V65.6293H210.994C210.637 65.6293 210.356 65.3487 210.356 64.9916V63.7673C210.356 63.4102 210.637 63.1296 210.994 63.1296V62.2879C210.994 62.1604 210.994 62.0073 211.121 61.9053L212.703 60.3239C212.881 60.1453 213.162 60.1453 213.341 60.3239L214.871 61.8543C214.871 61.8543 215.049 62.0583 215.049 62.2114V63.1296C215.407 63.1296 215.713 63.4102 215.713 63.7673V64.9916C215.713 65.3487 215.432 65.6293 215.075 65.6293H214.463V66.0374H222.727C222.727 66.0374 222.957 66.0884 223.033 66.165L225.558 68.6646C225.558 68.6646 225.686 68.8687 225.686 68.9707C225.686 69.0728 225.635 69.2003 225.558 69.2768L223.033 71.802C223.033 71.802 222.829 71.9295 222.727 71.9295H214.463V95.7021H214.998C215.458 95.7021 215.84 96.0847 215.84 96.5438V97.5386H217.116C217.575 97.5386 217.957 97.9212 217.957 98.3803V100.752C217.957 101.008 217.753 101.186 217.524 101.186L217.422 101.263ZM208.979 100.37H216.988V98.4568L215.33 98.5078C215.075 98.5078 214.896 98.3038 214.896 98.0742V96.6203L213.953 96.6713C213.698 96.6713 213.519 96.4673 213.519 96.2377V71.5724C213.519 71.3174 213.723 71.1388 213.953 71.1388H222.472L224.538 69.0728L222.472 67.0067H213.953C213.698 67.0067 213.519 66.8026 213.519 66.5731V65.2722C213.519 65.0171 213.723 64.8386 213.953 64.8386H214.769V64.1244H214.565C214.31 64.1244 214.131 63.9203 214.131 63.6908V62.5175L213.009 61.3951L211.887 62.5175V63.6908C211.887 63.9458 211.683 64.1244 211.453 64.1244H211.249V64.8386H212.065C212.32 64.8386 212.499 65.0426 212.499 65.2722V71.5979C212.499 71.853 212.295 72.0316 212.065 72.0316H203.546L201.48 74.0976L203.546 76.1637H212.065C212.32 76.1637 212.499 76.3678 212.499 76.5973V78.2553C212.499 78.5103 212.295 78.6889 212.065 78.6889H207.27L205.204 80.755L207.27 82.821H212.065C212.32 82.821 212.499 83.0251 212.499 83.2546V96.2122C212.499 96.4673 212.295 96.6458 212.065 96.6458H211.07L211.121 98.0232C211.121 98.2783 210.917 98.4568 210.688 98.4568H208.979L209.03 100.319L208.979 100.37Z" fill="black"/>
<path d="M154.088 21.5282C152.762 21.4772 151.69 22.4975 151.639 23.7728C151.588 25.0737 152.583 26.1705 153.884 26.2215C155.185 26.2725 156.282 25.2777 156.333 23.9769C156.384 22.676 155.389 21.5792 154.088 21.5282Z" fill="#38A770"/>
<path d="M153.986 21.528C153.986 21.528 154.062 21.528 154.088 21.528C155.389 21.579 156.384 22.7013 156.332 23.9767C156.281 25.252 155.236 26.2213 153.986 26.2213C153.96 26.2213 153.909 26.2213 153.884 26.2213C152.583 26.1703 151.588 25.0735 151.639 23.7726C151.69 22.5228 152.711 21.528 153.986 21.528ZM153.986 20.6353C152.251 20.6353 150.823 21.9871 150.746 23.7471C150.695 24.6143 151.002 25.4306 151.588 26.0937C152.175 26.7314 152.966 27.114 153.833 27.1395C153.833 27.1395 153.96 27.1395 153.986 27.1395C155.72 27.1395 157.149 25.7877 157.225 24.0277C157.276 23.1604 156.97 22.3442 156.384 21.681C155.797 21.0434 155.006 20.6608 154.139 20.6353C154.139 20.6353 154.011 20.6353 153.986 20.6353Z" fill="black"/>
<path d="M154.266 17.8549C152.481 17.7783 150.746 18.467 149.548 19.8444C149.165 20.278 149.344 20.9157 149.803 21.2218C150.287 21.5279 150.925 21.4003 151.359 20.9922C152.098 20.3035 153.119 19.9209 154.19 19.972C155.159 20.023 156.026 20.4056 156.69 21.0177C157.123 21.4258 157.761 21.5789 158.245 21.2728C158.73 20.9667 158.883 20.278 158.475 19.8444C157.429 18.6966 155.95 17.9314 154.266 17.8549Z" fill="#38A770"/>
<path d="M153.986 17.8547C153.986 17.8547 154.164 17.8547 154.241 17.8547C155.924 17.9312 157.404 18.6709 158.45 19.8442C158.832 20.2778 158.705 20.9665 158.22 21.2726C158.041 21.3746 157.837 21.4256 157.659 21.4256C157.302 21.4256 156.945 21.2726 156.664 21.0175C156.001 20.4054 155.134 20.0228 154.164 19.9717C154.113 19.9717 154.037 19.9717 153.986 19.9717C152.966 19.9717 152.047 20.3543 151.333 21.0175C151.078 21.2726 150.721 21.4001 150.389 21.4001C150.185 21.4001 149.981 21.3491 149.803 21.2216C149.318 20.9155 149.165 20.2778 149.548 19.8442C150.695 18.5689 152.328 17.8547 154.011 17.8547M154.011 16.9619C152.047 16.9619 150.185 17.8036 148.884 19.232C148.553 19.6146 148.4 20.1248 148.451 20.6094C148.527 21.1706 148.833 21.6552 149.318 21.9613C149.624 22.1653 150.007 22.2674 150.389 22.2674C150.95 22.2674 151.512 22.0378 151.945 21.6297C152.506 21.1196 153.221 20.839 153.986 20.839H154.113C154.828 20.8645 155.516 21.1706 156.052 21.6552C156.511 22.0633 157.072 22.3184 157.659 22.3184C158.041 22.3184 158.399 22.2164 158.705 22.0123C159.189 21.7062 159.495 21.2216 159.572 20.6859C159.648 20.1503 159.495 19.6401 159.138 19.2575C157.888 17.8802 156.179 17.0639 154.317 16.9874C154.215 16.9874 154.113 16.9874 154.011 16.9874V16.9619Z" fill="black"/>
<path d="M154.394 14.2837C151.333 14.1562 148.553 15.508 146.742 17.7271C146.385 18.1863 146.512 18.8494 147.022 19.1555C147.507 19.4616 148.145 19.3086 148.527 18.8749C149.93 17.2425 151.996 16.2732 154.292 16.3753C156.383 16.4773 158.22 17.421 159.47 18.9005C159.852 19.3596 160.49 19.5126 161 19.2065C161.485 18.9005 161.638 18.2373 161.281 17.8037C159.674 15.7631 157.2 14.4112 154.394 14.2837Z" fill="#38A770"/>
<path d="M153.986 14.2839C154.113 14.2839 154.266 14.2839 154.394 14.2839C157.2 14.4114 159.674 15.7633 161.281 17.8038C161.638 18.2629 161.485 18.9006 161 19.2067C160.822 19.3087 160.643 19.3598 160.439 19.3598C160.082 19.3598 159.725 19.1812 159.47 18.9006C158.22 17.4212 156.383 16.4775 154.292 16.3754C154.19 16.3754 154.088 16.3754 153.986 16.3754C151.818 16.3754 149.854 17.3447 148.527 18.8751C148.272 19.1557 147.941 19.3342 147.583 19.3342C147.379 19.3342 147.201 19.2832 147.022 19.1812C146.538 18.8751 146.385 18.2119 146.742 17.7528C148.476 15.6102 151.078 14.2839 153.986 14.2839ZM153.986 13.3911C150.899 13.3911 147.992 14.7685 146.053 17.1917C145.721 17.5998 145.594 18.1099 145.67 18.62C145.747 19.1557 146.079 19.6148 146.538 19.9209C146.844 20.125 147.201 20.227 147.583 20.227C148.196 20.227 148.782 19.9464 149.19 19.4618C150.389 18.0589 152.124 17.2682 153.96 17.2682H154.241C156.026 17.3447 157.633 18.1354 158.781 19.4873C159.189 19.9719 159.801 20.278 160.413 20.278C160.771 20.278 161.128 20.176 161.459 19.9719C161.918 19.6913 162.25 19.2067 162.327 18.6711C162.403 18.1609 162.275 17.6508 161.969 17.2427C160.133 14.9215 157.378 13.5186 154.419 13.3911C154.266 13.3911 154.113 13.3911 153.96 13.3911H153.986Z" fill="black"/>
<path d="M154.547 10.7638C150.287 10.5853 146.436 12.5238 144.013 15.7122C143.655 16.1713 143.783 16.8345 144.293 17.1406C144.778 17.4466 145.441 17.2936 145.798 16.8345C147.813 14.2838 150.95 12.7023 154.47 12.8554C157.659 12.9829 160.439 14.5388 162.25 16.8855C162.607 17.3446 163.245 17.4976 163.729 17.1916C164.214 16.8855 164.367 16.2478 164.036 15.7887C161.867 12.8809 158.45 10.9424 154.547 10.7638Z" fill="#38A770"/>
<path d="M153.986 10.7384C154.164 10.7384 154.343 10.7384 154.547 10.7384C158.45 10.917 161.867 12.83 164.036 15.7633C164.367 16.2225 164.214 16.8601 163.729 17.1662C163.551 17.2682 163.347 17.3193 163.168 17.3193C162.811 17.3193 162.48 17.1407 162.25 16.8601C160.439 14.5135 157.659 12.9831 154.47 12.83C154.317 12.83 154.164 12.83 154.011 12.83C150.695 12.83 147.737 14.3859 145.798 16.8091C145.568 17.1152 145.211 17.2682 144.88 17.2682C144.676 17.2682 144.497 17.2172 144.319 17.1152C143.834 16.8091 143.681 16.1459 144.038 15.6868C146.359 12.6515 149.981 10.7384 154.011 10.7384M154.011 9.8457C149.777 9.8457 145.9 11.7842 143.324 15.1512C143.018 15.5593 142.89 16.0949 142.967 16.6051C143.069 17.1407 143.375 17.5998 143.834 17.8804C144.14 18.0845 144.497 18.1865 144.88 18.1865C145.517 18.1865 146.104 17.8804 146.512 17.3958C148.349 15.0746 151.078 13.7483 154.011 13.7483C154.139 13.7483 154.292 13.7483 154.445 13.7483C157.251 13.8758 159.852 15.2022 161.561 17.4213C161.944 17.9314 162.556 18.2375 163.194 18.2375C163.576 18.2375 163.934 18.1355 164.24 17.9314C164.699 17.6508 165.005 17.1662 165.107 16.6561C165.209 16.1459 165.107 15.6613 164.775 15.2532C162.352 12.0138 158.654 10.0498 154.598 9.87121C154.394 9.87121 154.215 9.87121 154.011 9.87121V9.8457Z" fill="black"/>
<path d="M15.9164 89.479V68.7163H40.5562V89.479C40.5562 91.4686 38.9492 93.101 36.9342 93.101H12.2944C14.284 93.101 15.9164 91.4941 15.9164 89.479Z" fill="#E1F9EA"/>
<path d="M36.9342 93.5599H12.2945C12.0394 93.5599 11.8608 93.3559 11.8608 93.1263C11.8608 92.8967 12.0649 92.6927 12.2945 92.6927C14.0544 92.6927 15.4573 91.2643 15.4573 89.5298V68.7671C15.4573 68.512 15.6614 68.3335 15.8909 68.3335H40.5307C40.7858 68.3335 40.9643 68.5375 40.9643 68.7671V89.5298C40.9643 91.7744 39.1533 93.5854 36.9087 93.5854L36.9342 93.5599ZM14.8452 92.6672H36.9342C38.6942 92.6672 40.0971 91.2388 40.0971 89.5043V69.1752H16.3501V89.5043C16.3501 90.7797 15.7634 91.9275 14.8197 92.6672H14.8452Z" fill="#010200"/>
<path d="M33.3121 89.4786V66.4458H8.67236V89.4786C8.67236 91.4682 10.2793 93.1006 12.2944 93.1006H36.9341C34.9446 93.1006 33.3121 91.4937 33.3121 89.4786Z" fill="#E1F9EA"/>
<path d="M36.9341 93.5596H12.2944C10.0498 93.5596 8.23877 91.7486 8.23877 89.504V66.4712C8.23877 66.2161 8.44283 66.0376 8.67239 66.0376H33.3121C33.5672 66.0376 33.7458 66.2417 33.7458 66.4712V89.504C33.7458 91.264 35.1742 92.6669 36.9086 92.6669C37.1637 92.6669 37.3423 92.871 37.3423 93.1005C37.3423 93.3301 37.1382 93.5341 36.9086 93.5341L36.9341 93.5596ZM9.13151 66.9048V89.4785C9.13151 91.2385 10.5599 92.6414 12.2944 92.6414H34.3834C33.4652 91.9017 32.853 90.7539 32.853 89.4785V66.9048H9.13151Z" fill="#010200"/>
<path d="M30.838 89.4787V63.9717H4.84633L0.535645 68.3334V89.4787C0.535645 91.4682 2.14259 93.1007 4.15764 93.1007H34.4344C32.4449 93.1007 30.8124 91.4937 30.8124 89.4787H30.838Z" fill="white"/>
<path d="M34.4345 93.5597H4.15766C1.91305 93.5597 0.102051 91.7487 0.102051 89.5041V68.3588C0.102051 68.3588 0.153065 68.1292 0.229586 68.0527L4.54027 63.691C4.54027 63.691 4.74432 63.5635 4.84635 63.5635H30.838C31.0931 63.5635 31.2716 63.7675 31.2716 63.9971V89.5041C31.2716 91.2641 32.7 92.667 34.4345 92.667C34.6895 92.667 34.8681 92.871 34.8681 93.1006C34.8681 93.3301 34.664 93.5342 34.4345 93.5342V93.5597ZM0.994796 68.5118V89.4786C0.994796 91.2386 2.42319 92.6415 4.15766 92.6415H31.9093C30.991 91.9017 30.3789 90.7539 30.3789 89.4786V64.4052H5.0249L0.969289 68.5118H0.994796Z" fill="#020500"/>
<path d="M0.535645 68.3334H4.84633V63.9717L0.535645 68.3334Z" fill="white"/>
<path d="M4.84632 68.8689H0.535633C0.30607 68.8689 0.127521 68.7414 0.0254931 68.5373C-0.0765349 68.3333 -0.0255209 68.1037 0.127521 67.9507L4.4382 63.589C4.59125 63.4359 4.82081 63.3849 5.02486 63.4614C5.22892 63.5379 5.35646 63.742 5.35646 63.9716V68.3333C5.35646 68.6393 5.10139 68.8689 4.82081 68.8689H4.84632ZM1.83649 67.7721H4.31067V65.2724L1.83649 67.7721Z" fill="#020500"/>
<path d="M10.4068 71.6747C10.4068 71.6747 10.1772 71.5727 10.1772 71.4451V67.0324C10.1772 67.0324 10.2793 66.8029 10.4068 66.8029H10.7129C10.8659 66.8029 10.9935 66.8794 11.07 66.9814L12.6514 69.2515C13.034 69.8127 13.3401 70.3228 13.5952 70.833C13.5442 70.1698 13.5187 69.5831 13.5187 68.8179V67.0069C13.5187 67.0069 13.6207 66.7773 13.7482 66.7773H13.9523C13.9523 66.7773 14.1818 66.8794 14.1818 67.0069V71.4196C14.1818 71.4196 14.0798 71.6492 13.9523 71.6492H13.7227C13.5697 71.6492 13.4421 71.5727 13.3656 71.4706L11.8097 69.2005C11.4271 68.6649 11.0955 68.1037 10.8149 67.5681C10.8659 68.1802 10.8659 68.7669 10.8659 69.5831V71.4451C10.8659 71.4451 10.7639 71.6747 10.6364 71.6747H10.4323H10.4068Z" fill="#38A770"/>
<path d="M13.9269 71.8278H13.6973C13.4932 71.8278 13.3147 71.7258 13.2127 71.5728L11.6567 69.2771C11.3762 68.869 11.1466 68.5119 10.968 68.1803C10.968 68.5884 10.968 69.0221 10.968 69.5832V71.4452C10.968 71.6493 10.7895 71.8278 10.5854 71.8278H10.3814C10.1773 71.8278 9.99878 71.6493 9.99878 71.4452V67.0325C9.99878 66.8285 10.1773 66.6499 10.3814 66.6499H10.6875C10.8915 66.6499 11.0701 66.7519 11.1721 66.905L12.7535 69.1751C12.9831 69.5322 13.2127 69.8383 13.3912 70.1699C13.3912 69.7363 13.3657 69.3026 13.3657 68.8435V67.0325C13.3657 66.8285 13.5443 66.6499 13.7483 66.6499H13.9524C14.1564 66.6499 14.335 66.8285 14.335 67.0325V71.4452C14.335 71.6493 14.1564 71.8278 13.9524 71.8278H13.9269ZM10.764 67.4406C10.764 67.4406 10.8915 67.4661 10.917 67.5171C11.1466 67.9763 11.4527 68.4864 11.8863 69.1241L13.4422 71.3942C13.4422 71.3942 13.5698 71.5217 13.6718 71.5217H13.9013C13.9013 71.5217 13.9779 71.4962 13.9779 71.4452V67.0325C13.9779 67.0325 13.9524 66.956 13.9013 66.956H13.6973C13.6973 66.956 13.6208 66.9815 13.6208 67.0325V68.8435C13.6208 69.5577 13.6208 70.1444 13.6973 70.8331C13.6973 70.9096 13.6718 70.9606 13.5953 70.9861C13.5187 71.0116 13.4167 70.9861 13.3912 70.9096C13.1361 70.4249 12.8301 69.9148 12.4475 69.3536L10.866 67.0835C10.866 67.0835 10.7385 66.956 10.6365 66.956H10.3304C10.3304 66.956 10.2538 66.9815 10.2538 67.0325V71.4452C10.2538 71.4452 10.2794 71.5217 10.3304 71.5217H10.5344C10.5344 71.5217 10.6109 71.4962 10.6109 71.4452V69.5832C10.6109 68.7925 10.6109 68.2058 10.5599 67.5937C10.5599 67.5171 10.5854 67.4661 10.662 67.4406C10.662 67.4406 10.713 67.4406 10.7385 67.4406H10.764Z" fill="black"/>
<path d="M18.11 69.1753C18.11 69.1753 18.008 69.4048 17.8804 69.4048H16.0439V71.1648H18.11C18.11 71.1648 18.3395 71.2668 18.3395 71.3944V71.4709C18.3395 71.4709 18.2375 71.7004 18.11 71.7004H15.5848C15.5848 71.7004 15.3552 71.5984 15.3552 71.4709V67.0582C15.3552 67.0582 15.4573 66.8286 15.5848 66.8286H18.008C18.008 66.8286 18.2375 66.9306 18.2375 67.0582V67.1347C18.2375 67.1347 18.1355 67.3643 18.008 67.3643H16.0439V68.8947H17.8804C17.8804 68.8947 18.11 68.9967 18.11 69.1242V69.2008V69.1753Z" fill="#38A770"/>
<path d="M18.1099 71.8278H15.5848C15.3807 71.8278 15.2021 71.6493 15.2021 71.4452V67.0325C15.2021 66.8285 15.3807 66.6499 15.5848 66.6499H18.0079C18.212 66.6499 18.3905 66.8285 18.3905 67.0325V67.109C18.3905 67.3131 18.212 67.4916 18.0079 67.4916H16.1969V68.716H17.8804C18.0844 68.716 18.263 68.8945 18.263 69.0986V69.1751C18.263 69.3792 18.0844 69.5577 17.8804 69.5577H16.1969V71.0116H18.1099C18.314 71.0116 18.4926 71.1901 18.4926 71.3942V71.4707C18.4926 71.6748 18.314 71.8533 18.1099 71.8533V71.8278ZM15.5848 66.956C15.5848 66.956 15.5082 66.9815 15.5082 67.0325V71.4452C15.5082 71.4452 15.5337 71.5217 15.5848 71.5217H18.1099C18.1099 71.5217 18.1865 71.4962 18.1865 71.4452V71.3687C18.1865 71.3687 18.161 71.2922 18.1099 71.2922H16.0439C16.0439 71.2922 15.8908 71.2157 15.8908 71.1391V69.3792C15.8908 69.3792 15.9674 69.2261 16.0439 69.2261H17.8804C17.8804 69.2261 17.9569 69.2006 17.9569 69.1496V69.0731C17.9569 69.0731 17.9314 68.9965 17.8804 68.9965H16.0439C16.0439 68.9965 15.8908 68.92 15.8908 68.8435V67.3131C15.8908 67.3131 15.9674 67.16 16.0439 67.16H18.0079C18.0079 67.16 18.0844 67.1345 18.0844 67.0835V67.007C18.0844 67.007 18.0589 66.9305 18.0079 66.9305H15.5848V66.956Z" fill="black"/>
<path d="M20.3799 71.6748C20.2524 71.6748 20.1248 71.5983 20.0993 71.4452L18.875 67.007C18.875 67.007 18.926 66.7775 19.028 66.7775H19.3086C19.4362 66.7775 19.5637 66.8795 19.5892 67.007L20.1503 69.2516C20.3034 69.8638 20.4564 70.476 20.533 70.9351C20.6095 70.4505 20.788 69.8638 20.9666 69.2516L21.6042 67.007C21.6298 66.8795 21.7573 66.7775 21.8848 66.7775H22.1399C22.2674 66.7775 22.395 66.8795 22.4205 67.007L23.0071 69.2516C23.1602 69.8383 23.2877 70.3995 23.3642 70.9096C23.4663 70.3739 23.6193 69.8383 23.7978 69.2261L24.4355 66.9815C24.461 66.854 24.5886 66.752 24.7161 66.752H24.9712C24.9712 66.752 25.1752 66.854 25.1242 66.956L23.7468 71.3942C23.6958 71.5218 23.5938 71.5983 23.4663 71.5983H23.2112C23.0837 71.5983 22.9561 71.4963 22.9306 71.3687L22.3184 69.0476C22.1654 68.4354 22.0379 67.9508 21.9613 67.4662C21.8593 67.9508 21.7573 68.4354 21.5532 69.0476L20.8645 71.3687C20.839 71.4963 20.7115 71.5728 20.584 71.5728H20.3289L20.3799 71.6748Z" fill="#38A770"/>
<path d="M23.5684 71.8278H23.3133C23.1093 71.8278 22.9307 71.7003 22.8797 71.4962L22.2675 69.1751C22.191 68.869 22.1145 68.5629 22.038 68.2824C21.9614 68.5629 21.8849 68.8435 21.7829 69.1751L21.0942 71.4962C21.0432 71.7003 20.8646 71.8278 20.6606 71.8278H20.4055C20.2015 71.8278 20.0229 71.7003 19.9719 71.4962L18.7476 67.0835C18.7476 67.0835 18.7476 66.8795 18.7986 66.8029C18.8496 66.7264 18.9516 66.6754 19.0536 66.6754H19.3342C19.5383 66.6754 19.7168 66.8029 19.7678 67.007L20.3545 69.2516C20.4565 69.6087 20.533 69.9658 20.6096 70.2719C20.6861 69.9403 20.7881 69.5832 20.8901 69.2261L21.5278 66.9815C21.5788 66.7774 21.7574 66.6499 21.9614 66.6499H22.2165C22.4206 66.6499 22.5991 66.7774 22.6501 66.9815L23.2368 69.2261C23.3388 69.5832 23.4153 69.9148 23.4919 70.2209C23.5684 69.9148 23.6449 69.6087 23.7469 69.2771V69.2261L24.4101 66.9815C24.4611 66.7774 24.6397 66.6499 24.8437 66.6499H25.0988C25.0988 66.6499 25.3029 66.7009 25.3539 66.7774C25.4049 66.854 25.4304 66.956 25.4049 67.058L24.0275 71.4962C23.9765 71.7003 23.7979 71.8278 23.5939 71.8278H23.5684ZM22.038 67.3896C22.038 67.3896 22.191 67.4406 22.2165 67.5171C22.293 68.0273 22.3951 68.5119 22.5481 69.0986L23.1603 71.4197C23.1603 71.4197 23.2368 71.5217 23.2878 71.5217H23.5429C23.5429 71.5217 23.6704 71.4707 23.6959 71.4197L25.0733 66.9815H24.8182C24.8182 66.9815 24.6907 67.007 24.6907 67.0835L24.0275 69.3792C23.8745 69.9658 23.7214 70.476 23.6194 70.9861C23.5939 71.1391 23.3133 71.1391 23.2878 70.9861C23.2113 70.5015 23.0837 69.9913 22.9307 69.3281L22.344 67.0835C22.344 67.0835 22.2675 66.9815 22.2165 66.9815H21.9614C21.9614 66.9815 21.8339 67.0325 21.8084 67.0835L21.1707 69.3281C20.9922 69.9403 20.8391 70.527 20.7371 71.0116C20.7371 71.1646 20.4565 71.1646 20.431 71.0116C20.329 70.527 20.2015 69.9403 20.0484 69.3281L19.4618 67.0835C19.4618 67.0835 19.3852 66.9815 19.3342 66.9815H19.0536L20.2525 71.4197C20.2525 71.4197 20.329 71.5217 20.38 71.5217H20.6351C20.6351 71.5217 20.7626 71.4707 20.7881 71.4197L21.4768 69.0986C21.6554 68.5119 21.7829 68.0528 21.8849 67.5171C21.8849 67.4406 21.9614 67.3896 22.038 67.3896Z" fill="black"/>
<path d="M25.7876 71.1388C25.7876 71.1388 25.9406 70.9602 26.0426 71.0113C26.3232 71.1388 26.7058 71.2408 27.0884 71.2408C27.7771 71.2408 28.1852 70.9092 28.1852 70.3991C28.1852 69.94 27.9046 69.6849 27.1904 69.4298C26.3232 69.1492 25.7876 68.7411 25.7876 68.0524C25.7876 67.2872 26.4762 66.7261 27.4965 66.7261C27.9046 66.7261 28.2362 66.8026 28.4658 66.8791C28.5933 66.9301 28.6443 67.0577 28.5933 67.1852V67.2617C28.5933 67.2617 28.3893 67.4148 28.2617 67.3893C28.0577 67.3127 27.8026 67.2617 27.471 67.2617C26.7568 67.2617 26.4762 67.6698 26.4762 68.0014C26.4762 68.4606 26.8078 68.6901 27.522 68.9452C28.4148 69.2513 28.8739 69.6594 28.8739 70.3736C28.8739 71.1133 28.2617 71.7765 27.0119 71.7765C26.6038 71.7765 26.1447 71.6744 25.8386 71.5469C25.711 71.4959 25.6855 71.3683 25.711 71.2408V71.1388H25.7876Z" fill="#38A770"/>
<path d="M27.0374 71.9042C26.6292 71.9042 26.1446 71.8277 25.813 71.6746C25.6345 71.5981 25.5324 71.3941 25.609 71.1645V71.0625C25.609 71.0625 25.7365 70.8839 25.8385 70.8584C25.915 70.8074 26.0171 70.8074 26.1191 70.8584C26.4252 70.986 26.7823 71.0625 27.0884 71.0625C27.675 71.0625 28.0321 70.8074 28.0321 70.3993C28.0321 70.0932 27.8791 69.8381 27.1394 69.5831C26.1191 69.2515 25.6345 68.7668 25.6345 68.0526C25.6345 67.1854 26.3997 66.5732 27.4965 66.5732C27.8791 66.5732 28.2362 66.6243 28.5168 66.7263C28.6188 66.7518 28.6953 66.8283 28.7208 66.9048C28.7718 67.0069 28.7718 67.1089 28.7208 67.2109V67.2874C28.6188 67.4915 28.3892 67.568 28.1852 67.4915C27.9556 67.415 27.7005 67.364 27.4455 67.364C26.8333 67.364 26.6037 67.67 26.6037 67.9506C26.6037 68.2822 26.8333 68.4863 27.5475 68.7413C28.2617 68.9964 29.0014 69.379 29.0014 70.3228C29.0014 71.037 28.4657 71.8787 26.9863 71.8787L27.0374 71.9042ZM25.9916 71.139H25.9405L25.915 71.2665C25.915 71.3175 25.915 71.3686 25.9405 71.3941C26.2466 71.5216 26.6803 71.5981 27.0374 71.5981C28.0831 71.5981 28.7463 71.1135 28.7463 70.3483C28.7463 69.7361 28.3892 69.379 27.4965 69.0729C26.7568 68.8179 26.3487 68.5628 26.3487 68.0016C26.3487 67.568 26.7058 67.1089 27.4965 67.1089C27.7771 67.1089 28.0831 67.1599 28.3382 67.2619C28.3637 67.2619 28.4147 67.2619 28.4402 67.2364V67.1599C28.4402 67.1599 28.4912 67.1089 28.4657 67.0834C28.4657 67.0834 28.4657 67.0834 28.4402 67.0579C28.2617 67.0069 27.9556 66.9048 27.522 66.9048C26.6037 66.9048 25.9661 67.3895 25.9661 68.0782C25.9661 68.6393 26.3742 69.0219 27.2669 69.3025C27.9301 69.5321 28.3637 69.8126 28.3637 70.4248C28.3637 71.037 27.8791 71.4196 27.0884 71.4196C26.7313 71.4196 26.3232 71.343 25.9916 71.19V71.139Z" fill="black"/>
<path d="M28.8739 65.8592C28.8739 66.0122 28.7463 66.1398 28.5933 66.1398H10.5088C10.3558 66.1398 10.2283 66.0122 10.2283 65.8592C10.2283 65.7061 10.3558 65.5786 10.5088 65.5786H28.5933C28.7463 65.5786 28.8739 65.7061 28.8739 65.8592Z" fill="#38A770"/>
<path d="M28.5679 66.3184H10.4834C10.2539 66.3184 10.0498 66.1144 10.0498 65.8848C10.0498 65.6552 10.2539 65.4512 10.4834 65.4512H28.5679C28.7974 65.4512 29.0015 65.6552 29.0015 65.8848C29.0015 66.1144 28.7974 66.3184 28.5679 66.3184ZM10.4834 65.7573C10.4834 65.7573 10.3559 65.8083 10.3559 65.8848C10.3559 65.9613 10.4069 66.0123 10.4834 66.0123H28.5679C28.5679 66.0123 28.6954 65.9613 28.6954 65.8848C28.6954 65.8083 28.6444 65.7573 28.5679 65.7573H10.4834Z" fill="black"/>
<path d="M28.8739 72.6439C28.8739 72.7969 28.7463 72.9244 28.5933 72.9244H10.5088C10.3558 72.9244 10.2283 72.7969 10.2283 72.6439C10.2283 72.4908 10.3558 72.3633 10.5088 72.3633H28.5933C28.7463 72.3633 28.8739 72.4908 28.8739 72.6439Z" fill="#38A770"/>
<path d="M28.5679 73.0777H10.4834C10.2539 73.0777 10.0498 72.8736 10.0498 72.6441C10.0498 72.4145 10.2539 72.2104 10.4834 72.2104H28.5679C28.7974 72.2104 29.0015 72.4145 29.0015 72.6441C29.0015 72.8736 28.7974 73.0777 28.5679 73.0777ZM10.4834 72.5165C10.4834 72.5165 10.3559 72.5675 10.3559 72.6441C10.3559 72.7206 10.4069 72.7716 10.4834 72.7716H28.5679C28.5679 72.7716 28.6954 72.7206 28.6954 72.6441C28.6954 72.5675 28.6444 72.5165 28.5679 72.5165H10.4834Z" fill="black"/>
<path d="M14.8451 74.4805H3.0354V86.0096H14.8451V74.4805Z" fill="#E1F9EA"/>
<path d="M14.8452 86.4433H3.03543C2.78036 86.4433 2.60181 86.2392 2.60181 86.0097V74.4805C2.60181 74.2254 2.80586 74.0469 3.03543 74.0469H14.8452C15.1002 74.0469 15.2788 74.2509 15.2788 74.4805V86.0097C15.2788 86.2647 15.0747 86.4433 14.8452 86.4433ZM3.46904 85.5505H14.386V74.9141H3.49455V85.5505H3.46904Z" fill="#010200"/>
<path d="M29.2056 74.4805H17.1663V75.4752H29.2056V74.4805Z" fill="#38A770"/>
<path d="M29.2055 75.6285H17.1662C17.1662 75.6285 17.0132 75.552 17.0132 75.4755V74.4807C17.0132 74.4807 17.0897 74.3276 17.1662 74.3276H29.2055C29.2055 74.3276 29.3586 74.4042 29.3586 74.4807V75.4755C29.3586 75.4755 29.282 75.6285 29.2055 75.6285ZM17.3193 75.3224H29.0525V74.6337H17.3193V75.3224Z" fill="black"/>
<path d="M29.2056 76.7251H17.1663V77.7199H29.2056V76.7251Z" fill="#38A770"/>
<path d="M29.2055 77.8731H17.1662C17.1662 77.8731 17.0132 77.7966 17.0132 77.7201V76.7253C17.0132 76.7253 17.0897 76.5723 17.1662 76.5723H29.2055C29.2055 76.5723 29.3586 76.6488 29.3586 76.7253V77.7201C29.3586 77.7201 29.282 77.8731 29.2055 77.8731ZM17.3193 77.567H29.0525V76.8783H17.3193V77.567Z" fill="black"/>
<path d="M29.2056 78.9951H17.1663V79.9899H29.2056V78.9951Z" fill="#38A770"/>
<path d="M29.2055 80.1431H17.1662C17.1662 80.1431 17.0132 80.0666 17.0132 79.9901V78.9953C17.0132 78.9953 17.0897 78.8423 17.1662 78.8423H29.2055C29.2055 78.8423 29.3586 78.9188 29.3586 78.9953V79.9901C29.3586 79.9901 29.282 80.1431 29.2055 80.1431ZM17.3193 79.8371H29.0525V79.1484H17.3193V79.8371Z" fill="black"/>
<path d="M29.2056 81.2651H17.1663V82.2599H29.2056V81.2651Z" fill="#38A770"/>
<path d="M29.2055 82.4132H17.1662C17.1662 82.4132 17.0132 82.3366 17.0132 82.2601V81.2654C17.0132 81.2654 17.0897 81.1123 17.1662 81.1123H29.2055C29.2055 81.1123 29.3586 81.1888 29.3586 81.2654V82.2601C29.3586 82.2601 29.282 82.4132 29.2055 82.4132ZM17.3193 82.1071H29.0525V81.4184H17.3193V82.1071Z" fill="black"/>
<path d="M29.2056 83.5098H17.1663V84.5045H29.2056V83.5098Z" fill="#38A770"/>
<path d="M29.2055 84.6578H17.1662C17.1662 84.6578 17.0132 84.5813 17.0132 84.5048V83.51C17.0132 83.51 17.0897 83.3569 17.1662 83.3569H29.2055C29.2055 83.3569 29.3586 83.4335 29.3586 83.51V84.5048C29.3586 84.5048 29.282 84.6578 29.2055 84.6578ZM17.3193 84.3517H29.0525V83.663H17.3193V84.3517Z" fill="black"/>
<path d="M29.2056 85.7798H17.1663V86.7746H29.2056V85.7798Z" fill="#38A770"/>
<path d="M29.2055 86.9278H17.1662C17.1662 86.9278 17.0132 86.8513 17.0132 86.7748V85.78C17.0132 85.78 17.0897 85.627 17.1662 85.627H29.2055C29.2055 85.627 29.3586 85.7035 29.3586 85.78V86.7748C29.3586 86.7748 29.282 86.9278 29.2055 86.9278ZM17.3193 86.6217H29.0525V85.933H17.3193V86.6217Z" fill="black"/>
<path d="M29.2056 88.0503H17.1663V89.0451H29.2056V88.0503Z" fill="#38A770"/>
<path d="M29.2055 89.1724H17.1662C17.1662 89.1724 17.0132 89.0959 17.0132 89.0194V88.0246C17.0132 88.0246 17.0897 87.8716 17.1662 87.8716H29.2055C29.2055 87.8716 29.3586 87.9481 29.3586 88.0246V89.0194C29.3586 89.0194 29.282 89.1724 29.2055 89.1724ZM17.3193 88.8664H29.0525V88.1777H17.3193V88.8664Z" fill="black"/>
<path d="M45.5553 98.7125C45.0197 99.2481 44.1524 99.2481 43.5913 98.7125L38.1328 93.254C37.7247 92.8459 37.6482 92.4122 38.0308 92.0296L38.7705 91.2899C39.2551 90.8053 39.6632 90.8563 40.0968 91.2899L45.5553 96.7484C46.091 97.2841 46.1165 98.1768 45.5553 98.7125Z" fill="#38A770"/>
<path d="M44.6115 99.5541C44.1269 99.5541 43.6423 99.35 43.2852 98.9929L37.8267 93.5344C37.5461 93.2539 37.3675 92.9478 37.342 92.6417C37.342 92.4121 37.342 92.0295 37.7246 91.6979L38.4643 90.9582C39.102 90.3206 39.7907 90.3206 40.4284 90.9582L45.8869 96.4167C46.6011 97.1309 46.6266 98.3043 45.8869 98.9929L45.5553 98.7124L45.8614 99.0184C45.5298 99.35 45.0707 99.5541 44.586 99.5541H44.6115ZM39.4591 91.3663C39.4591 91.3663 39.2551 91.4429 39.102 91.5704L38.3623 92.3101C38.2348 92.4376 38.2348 92.5142 38.2348 92.5397C38.2348 92.6417 38.3113 92.7692 38.4643 92.8968L43.9228 98.3553C44.2799 98.7124 44.8921 98.7379 45.2492 98.3553H45.2747C45.6318 97.9727 45.6063 97.386 45.2492 97.0034L39.7907 91.5449C39.6632 91.4174 39.5356 91.3408 39.4336 91.3408L39.4591 91.3663Z" fill="black"/>
<path d="M42.2139 87.7953C42.2139 91.9275 38.8725 95.2689 34.7404 95.2689C30.6083 95.2689 27.2668 91.9275 27.2668 87.7953C27.2668 83.6632 30.6083 80.3218 34.7404 80.3218C38.8725 80.3218 42.2139 83.6632 42.2139 87.7953Z" fill="white"/>
<path d="M34.7404 95.7279C30.3787 95.7279 26.8333 92.1824 26.8333 87.8207C26.8333 83.459 30.3787 79.9136 34.7404 79.9136C39.1021 79.9136 42.6476 83.459 42.6476 87.8207C42.6476 92.1824 39.1021 95.7279 34.7404 95.7279ZM34.7404 80.7808C30.8634 80.7808 27.726 83.9437 27.726 87.7952C27.726 91.6468 30.8889 94.8097 34.7404 94.8097C38.592 94.8097 41.7548 91.6468 41.7548 87.7952C41.7548 83.9437 38.592 80.7808 34.7404 80.7808Z" fill="black"/>
<path d="M40.199 87.7954C40.199 90.8052 37.7503 93.2539 34.7405 93.2539C31.7307 93.2539 29.282 90.8052 29.282 87.7954C29.282 84.7856 31.7307 82.3369 34.7405 82.3369C37.7503 82.3369 40.199 84.7856 40.199 87.7954Z" fill="#B6F2D0"/>
<path d="M34.7405 93.6875C31.4756 93.6875 28.8484 91.0348 28.8484 87.7954C28.8484 84.556 31.5011 81.9033 34.7405 81.9033C37.9799 81.9033 40.6326 84.556 40.6326 87.7954C40.6326 91.0348 37.9799 93.6875 34.7405 93.6875ZM34.7405 82.7706C31.9857 82.7706 29.7411 85.0152 29.7411 87.7699C29.7411 90.5247 31.9857 92.7693 34.7405 92.7693C37.4953 92.7693 39.7399 90.5247 39.7399 87.7699C39.7399 85.0152 37.4953 82.7706 34.7405 82.7706Z" fill="black"/>
<path d="M133.248 123.862V114.756H103.813V123.862C103.813 128.836 100.089 132.942 95.2686 133.529V133.606H141.793V133.529C136.972 132.942 133.248 128.836 133.248 123.862Z" fill="#EBFFF4"/>
<path d="M141.793 134.243H95.2685C94.9114 134.243 94.6309 133.963 94.6309 133.606C94.6309 133.274 94.8604 132.942 95.192 132.891C99.7578 132.33 103.176 128.453 103.176 123.862V114.756C103.176 114.399 103.456 114.118 103.813 114.118H133.248C133.606 114.118 133.886 114.399 133.886 114.756V123.862C133.886 128.453 137.33 132.33 141.87 132.891C142.201 132.942 142.431 133.197 142.431 133.529C142.431 133.886 142.15 134.243 141.793 134.243ZM99.0436 132.968H137.993C134.753 131.182 132.585 127.739 132.585 123.862V115.394H104.426V123.862C104.426 127.764 102.257 131.208 99.0181 132.968H99.0436Z" fill="black"/>
<path d="M59.9925 46.6011H177.044C179.671 46.6011 181.814 48.7437 181.814 51.3709V115.955C181.814 118.582 179.671 120.724 177.044 120.724H59.9925C57.3652 120.724 55.2227 118.582 55.2227 115.955V51.3709C55.2227 48.7437 57.3652 46.6011 59.9925 46.6011Z" fill="#B6F2D0"/>
<path d="M177.044 121.362H59.9924C57.0081 121.362 54.585 118.939 54.585 115.955V51.3709C54.585 48.3865 57.0081 45.9634 59.9924 45.9634H177.044C180.028 45.9634 182.452 48.3865 182.452 51.3709V115.955C182.452 118.939 180.028 121.362 177.044 121.362ZM59.9924 47.2387C57.7223 47.2387 55.8603 49.1007 55.8603 51.3709V115.955C55.8603 118.225 57.7223 120.087 59.9924 120.087H177.044C179.314 120.087 181.176 118.225 181.176 115.955V51.3709C181.176 49.1007 179.314 47.2387 177.044 47.2387H59.9924Z" fill="black"/>
<path d="M59.9925 34.5107H177.044C179.671 34.5107 181.814 36.6533 181.814 39.2806V103.864C181.814 106.491 179.671 108.634 177.044 108.634H59.9925C57.3652 108.634 55.2227 106.491 55.2227 103.864V39.2806C55.2227 36.6533 57.3652 34.5107 59.9925 34.5107Z" fill="#EBFFF4"/>
<path d="M177.044 109.272H59.9924C57.0081 109.272 54.585 106.849 54.585 103.864V39.2805C54.585 36.2962 57.0081 33.873 59.9924 33.873H177.044C180.028 33.873 182.452 36.2962 182.452 39.2805V103.864C182.452 106.849 180.028 109.272 177.044 109.272ZM59.9924 35.1484C57.7223 35.1484 55.8603 37.0104 55.8603 39.2805V103.864C55.8603 106.134 57.7223 107.996 59.9924 107.996H177.044C179.314 107.996 181.176 106.134 181.176 103.864V39.2805C181.176 37.0104 179.314 35.1484 177.044 35.1484H59.9924Z" fill="black"/>
<path d="M175.947 39.9185H61.0894V102.921H175.947V39.9185Z" fill="#38A770"/>
<path d="M175.947 103.533H61.0893C60.7322 103.533 60.4517 103.252 60.4517 102.895V39.9184C60.4517 39.5613 60.7322 39.2808 61.0893 39.2808H175.947C176.304 39.2808 176.585 39.5613 176.585 39.9184V102.921C176.585 103.278 176.304 103.558 175.947 103.558V103.533ZM61.727 102.258H175.31V40.5561H61.727V102.283V102.258Z" fill="black"/>
<path d="M89.7081 133.606H147.354C148.91 133.606 150.16 134.855 150.16 136.411V137.534C150.16 139.09 148.91 140.339 147.354 140.339H89.7081C88.1522 140.339 86.9023 139.09 86.9023 137.534V136.386C86.9023 134.83 88.1522 133.58 89.7081 133.58V133.606Z" fill="#B6F2D0"/>
<path d="M147.354 141.002H89.7081C87.7951 141.002 86.2646 139.447 86.2646 137.559V136.411C86.2646 134.498 87.8206 132.968 89.7081 132.968H147.354C149.267 132.968 150.797 134.524 150.797 136.411V137.559C150.797 139.472 149.241 141.002 147.354 141.002ZM89.7081 134.243C88.5093 134.243 87.54 135.212 87.54 136.411V137.559C87.54 138.758 88.5093 139.727 89.7081 139.727H147.354C148.553 139.727 149.522 138.758 149.522 137.559V136.411C149.522 135.212 148.553 134.243 147.354 134.243H89.7081Z" fill="black"/>
<path d="M125.622 72.797L110.853 51.5752H98.6101V91.2386H111.44V70.0168L126.209 91.2386H138.452V51.5752H125.622V72.797Z" fill="white"/>
<path d="M138.452 91.8761H126.209C126.005 91.8761 125.801 91.7741 125.673 91.5955L112.078 72.0572V91.2384C112.078 91.5955 111.797 91.8761 111.44 91.8761H98.6101C98.253 91.8761 97.9724 91.5955 97.9724 91.2384V51.6006C97.9724 51.2435 98.253 50.9629 98.6101 50.9629H110.853C111.058 50.9629 111.262 51.0649 111.389 51.2435L125.01 70.8073V51.6261C125.01 51.269 125.29 50.9884 125.648 50.9884H138.478C138.835 50.9884 139.115 51.269 139.115 51.6261V91.2639C139.115 91.621 138.835 91.9016 138.478 91.9016L138.452 91.8761ZM126.54 90.6008H137.814V52.2382H126.26V72.8224C126.26 73.103 126.081 73.358 125.826 73.4346C125.545 73.5111 125.265 73.4346 125.112 73.1795L110.522 52.2382H99.2478V90.6008H110.802V70.0166C110.802 69.736 110.981 69.481 111.236 69.4044C111.491 69.3279 111.797 69.4044 111.95 69.6595L126.54 90.6008Z" fill="black"/>
<path d="M216.631 22.574C216.631 16.8094 212.065 12.1416 206.428 12.1416C200.791 12.1416 196.225 16.8094 196.225 22.574C196.225 26.1449 197.96 29.2823 200.638 31.1698C201.046 31.4504 201.327 31.935 201.327 32.4452V35.9141C201.327 37.4445 202.551 37.317 204.03 37.317H208.775C210.28 37.317 211.479 37.4445 211.479 35.9141V32.4452C211.479 31.935 211.759 31.4759 212.167 31.1698C214.82 29.2823 216.58 26.1449 216.58 22.574H216.631Z" fill="#B6F2D0"/>
<path d="M209.438 37.7508C209.438 37.7508 209.234 37.7508 209.132 37.7508H204.056H203.724C202.73 37.7508 201.888 37.7508 201.352 37.2151C201.046 36.909 200.893 36.4754 200.893 35.8888V32.4198C200.893 32.0882 200.689 31.7566 200.383 31.5271C197.501 29.4865 195.792 26.1451 195.792 22.5741C195.792 16.58 200.562 11.6826 206.428 11.6826C212.295 11.6826 217.065 16.5545 217.065 22.5741C217.065 26.1451 215.356 29.4865 212.473 31.5271C212.167 31.7566 211.963 32.0882 211.963 32.4198V35.8888C211.963 36.4754 211.81 36.909 211.504 37.2151C211.019 37.6998 210.28 37.7508 209.438 37.7508ZM206.428 12.5754C201.046 12.5754 196.684 17.0646 196.684 22.5741C196.684 25.8645 198.266 28.9253 200.893 30.7874C201.454 31.17 201.786 31.7821 201.786 32.4198V35.8888C201.786 36.2203 201.862 36.4499 201.99 36.5774C202.271 36.858 202.985 36.8325 203.724 36.858H208.8H209.132C209.872 36.858 210.586 36.858 210.866 36.5774C210.994 36.4499 211.07 36.2203 211.07 35.8888V32.4198C211.07 31.7821 211.402 31.17 211.963 30.7874C214.616 28.9253 216.172 25.839 216.172 22.5741C216.172 17.0646 211.81 12.5754 206.428 12.5754Z" fill="black"/>
<path d="M208.188 34.4856C207.933 34.4856 207.754 34.2816 207.754 34.052V26.9356C207.754 26.6805 207.958 26.502 208.188 26.502C208.418 26.502 208.622 26.706 208.622 26.9356V34.052C208.622 34.3071 208.418 34.4856 208.188 34.4856Z" fill="black"/>
<path d="M204.515 34.4859C204.26 34.4859 204.082 34.2818 204.082 34.0523V26.3491C204.082 26.0941 204.286 25.9155 204.515 25.9155C204.745 25.9155 204.949 26.1196 204.949 26.3491V34.0523C204.949 34.3073 204.745 34.4859 204.515 34.4859Z" fill="black"/>
<path d="M209.234 39.6384C209.234 41.2964 207.908 42.6482 206.275 42.6482C204.643 42.6482 203.316 41.2964 203.316 39.6384C203.316 37.9805 204.643 37.9805 206.275 37.9805C207.908 37.9805 209.234 37.9805 209.234 39.6384Z" fill="white"/>
<path d="M206.301 43.1074C204.439 43.1074 202.908 41.5515 202.908 39.6384C202.908 38.6947 203.291 38.0825 204.03 37.7764C204.643 37.5469 205.459 37.5724 206.25 37.5469H206.301C207.219 37.5469 207.984 37.5469 208.571 37.7764C209.31 38.0825 209.693 38.6947 209.693 39.6384C209.693 41.5515 208.163 43.1074 206.301 43.1074ZM206.301 38.4396C205.484 38.4396 204.796 38.4396 204.362 38.6182C204.056 38.7202 203.801 38.9243 203.801 39.6384C203.801 41.0668 204.923 42.2147 206.301 42.2147C207.678 42.2147 208.8 41.0668 208.8 39.6384C208.8 38.9243 208.52 38.7202 208.239 38.6182C207.78 38.4396 207.04 38.4141 206.352 38.4396H206.301Z" fill="black"/>
<path d="M201.352 33.5674V36.8068C201.352 37.9036 202.22 38.7963 203.291 38.7963H209.591C210.662 38.7963 211.53 37.9036 211.53 36.8068V33.5674H201.352Z" fill="white"/>
<path d="M209.591 39.23H203.291C201.964 39.23 200.893 38.1332 200.893 36.8068V33.5674C200.893 33.3123 201.097 33.1338 201.327 33.1338H211.504C211.759 33.1338 211.938 33.3378 211.938 33.5674V36.8068C211.938 38.1332 210.866 39.23 209.54 39.23H209.591ZM201.786 34.0265V36.8068C201.786 37.6485 202.449 38.3372 203.291 38.3372H209.591C210.407 38.3372 211.096 37.6485 211.096 36.8068V34.0265H201.811H201.786Z" fill="black"/>
<path d="M209.361 27.1655C208.061 27.1655 207.244 26.3238 205.995 25.0229C204.745 23.6711 203.571 23.1354 202.653 23.4925C202.041 23.7476 201.709 24.3598 201.709 24.7169C201.709 25.5841 202.398 26.2983 203.24 26.2983C203.571 26.2983 203.903 26.1963 204.158 25.9667C204.362 25.8137 204.643 25.8647 204.796 26.0432C204.949 26.2473 204.923 26.5279 204.719 26.6809C204.286 27.0125 203.775 27.191 203.24 27.191C201.913 27.191 200.817 26.0942 200.817 24.7169C200.817 24.0027 201.352 23.0589 202.322 22.6763C203.061 22.3957 204.592 22.2427 206.632 24.4363C207.882 25.7371 208.469 26.2983 209.361 26.2983C210.254 26.2983 210.892 25.5841 210.892 24.7169C210.892 23.8496 210.203 23.1354 209.361 23.1354C209.03 23.1354 208.698 23.2374 208.443 23.467C208.239 23.6201 207.959 23.5945 207.806 23.3905C207.653 23.1864 207.704 22.9059 207.882 22.7528C208.316 22.4212 208.826 22.2427 209.361 22.2427C210.688 22.2427 211.785 23.3395 211.785 24.7169C211.785 26.0942 210.713 27.191 209.361 27.191V27.1655Z" fill="black"/>
<path d="M191.175 22.7779H186.38C186.125 22.7779 185.946 22.5738 185.946 22.3443C185.946 22.1147 186.15 21.9106 186.38 21.9106H191.175C191.43 21.9106 191.609 22.1147 191.609 22.3443C191.609 22.5738 191.405 22.7779 191.175 22.7779Z" fill="black"/>
<path d="M226.4 22.7779H221.605C221.35 22.7779 221.171 22.5738 221.171 22.3443C221.171 22.1147 221.375 21.9106 221.605 21.9106H226.4C226.655 21.9106 226.834 22.1147 226.834 22.3443C226.834 22.5738 226.63 22.7779 226.4 22.7779Z" fill="black"/>
<path d="M192.246 36.9346C192.246 36.9346 192.017 36.8836 191.94 36.8071C191.762 36.6285 191.762 36.348 191.94 36.1694L195.333 32.777C195.511 32.5984 195.792 32.5984 195.97 32.777C196.149 32.9555 196.149 33.2361 195.97 33.4147L192.578 36.8071C192.578 36.8071 192.374 36.9346 192.272 36.9346H192.246Z" fill="black"/>
<path d="M217.167 12.0142C217.167 12.0142 216.937 11.9632 216.861 11.8867C216.682 11.7081 216.682 11.4275 216.861 11.249L220.253 7.85657C220.432 7.67802 220.712 7.67802 220.891 7.85657C221.069 8.03512 221.069 8.31569 220.891 8.49424L217.498 11.8867C217.498 11.8867 217.294 12.0142 217.192 12.0142H217.167Z" fill="black"/>
<path d="M206.403 7.55025C206.148 7.55025 205.969 7.34619 205.969 7.11663V2.32131C205.969 2.06624 206.173 1.8877 206.403 1.8877C206.632 1.8877 206.836 2.09175 206.836 2.32131V7.11663C206.836 7.3717 206.632 7.55025 206.403 7.55025Z" fill="black"/>
<path d="M220.534 36.9346C220.534 36.9346 220.304 36.8836 220.227 36.8071L216.835 33.4147C216.657 33.2361 216.657 32.9555 216.835 32.777C217.014 32.5984 217.294 32.5984 217.473 32.777L220.865 36.1694C221.044 36.348 221.044 36.6285 220.865 36.8071C220.789 36.8836 220.661 36.9346 220.559 36.9346H220.534Z" fill="black"/>
<path d="M195.639 12.0142C195.639 12.0142 195.409 11.9632 195.333 11.8867L191.94 8.49424C191.762 8.31569 191.762 8.03512 191.94 7.85657C192.119 7.67802 192.399 7.67802 192.578 7.85657L195.97 11.249C196.149 11.4275 196.149 11.7081 195.97 11.8867C195.894 11.9632 195.766 12.0142 195.664 12.0142H195.639Z" fill="black"/>
<path d="M106.211 3.06055H72.1338V12.039H106.211V3.06055Z" fill="#38A770"/>
<path d="M106.211 3.06071V12.0392H72.1337V3.06071H106.211ZM106.211 2.16797H72.1337C71.6491 2.16797 71.241 2.57608 71.241 3.06071V12.0392C71.241 12.5238 71.6491 12.9319 72.1337 12.9319H106.211C106.696 12.9319 107.104 12.5238 107.104 12.0392V3.06071C107.104 2.57608 106.696 2.16797 106.211 2.16797Z" fill="black"/>
<path d="M103.941 4.36133H73.052V10.7381H103.941V4.36133Z" fill="white"/>
<path d="M103.941 11.1972H73.052C72.797 11.1972 72.6184 10.9932 72.6184 10.7636V4.36135C72.6184 4.10628 72.8225 3.92773 73.052 3.92773H103.941C104.196 3.92773 104.375 4.13179 104.375 4.36135V10.7381C104.375 10.9932 104.171 11.1717 103.941 11.1717V11.1972ZM73.4856 10.3045H103.482V4.82048H73.4856V10.3045Z" fill="#010200"/>
<path d="M116.643 17.6256C116.159 18.1102 115.343 18.1102 114.832 17.6256L109.756 12.5497C109.374 12.1671 109.323 11.759 109.654 11.4019L110.343 10.7132C110.777 10.2796 111.185 10.3051 111.567 10.7132L116.643 15.7891C117.154 16.2992 117.154 17.1154 116.643 17.6001V17.6256Z" fill="#38A770"/>
<path d="M115.751 18.5436C115.266 18.5436 114.781 18.3395 114.45 18.0079L109.374 12.9321C108.762 12.3199 108.736 11.5802 109.272 11.019L109.961 10.3303C110.267 10.0243 110.598 9.8457 110.955 9.8457C111.312 9.8457 111.644 9.99875 111.95 10.3303L117.026 15.4062C117.383 15.7633 117.562 16.2225 117.562 16.7071C117.562 17.1917 117.383 17.6508 117.026 17.9824L116.618 17.6253L117 18.0079C116.669 18.3395 116.21 18.5436 115.725 18.5436H115.751ZM110.955 10.9425C110.955 10.9425 110.853 10.968 110.726 11.0955L110.037 11.7842C110.037 11.7842 109.91 11.9118 110.139 12.1668L115.215 17.2427C115.368 17.3958 115.547 17.4723 115.751 17.4723C115.955 17.4723 116.133 17.3958 116.261 17.2682V17.2427C116.388 17.1152 116.465 16.9366 116.465 16.7326C116.465 16.5285 116.388 16.3245 116.235 16.1969L111.159 11.1211C111.159 11.1211 110.955 10.968 110.93 10.968L110.955 10.9425Z" fill="black"/>
<path d="M113.532 7.47355C113.532 11.2996 110.42 14.4115 106.594 14.4115C102.768 14.4115 99.6558 11.2996 99.6558 7.47355C99.6558 3.6475 102.768 0.535645 106.594 0.535645C110.42 0.535645 113.532 3.6475 113.532 7.47355Z" fill="white"/>
<path d="M106.594 14.9725C102.461 14.9725 99.0945 11.6056 99.0945 7.49894C99.0945 3.39231 102.461 0.0253906 106.594 0.0253906C110.726 0.0253906 114.067 3.39231 114.067 7.49894C114.067 11.6056 110.7 14.9725 106.594 14.9725ZM106.594 1.09668C103.074 1.09668 100.191 3.97898 100.191 7.49894C100.191 11.0189 103.074 13.9012 106.594 13.9012C110.114 13.9012 112.996 11.0189 112.996 7.49894C112.996 3.97898 110.139 1.09668 106.594 1.09668Z" fill="black"/>
<path d="M111.669 7.47335C111.669 10.2791 109.399 12.5492 106.593 12.5492C103.788 12.5492 101.518 10.2791 101.518 7.47335C101.518 4.66758 103.788 2.39746 106.593 2.39746C109.399 2.39746 111.669 4.66758 111.669 7.47335Z" fill="#EBFFF4"/>
<path d="M106.593 13.0849C103.507 13.0849 100.982 10.5597 100.982 7.47336C100.982 4.38701 103.507 1.86182 106.593 1.86182C109.68 1.86182 112.205 4.38701 112.205 7.47336C112.205 10.5597 109.68 13.0849 106.593 13.0849ZM106.593 2.95862C104.094 2.95862 102.079 4.99918 102.079 7.47336C102.079 9.94753 104.119 11.9881 106.593 11.9881C109.068 11.9881 111.108 9.94753 111.108 7.47336C111.108 4.99918 109.068 2.95862 106.593 2.95862Z" fill="black"/>
<path d="M109.757 8.2129H103.456C103.15 8.2129 102.921 7.95783 102.921 7.67725C102.921 7.39667 103.176 7.1416 103.456 7.1416H109.757C110.063 7.1416 110.292 7.39667 110.292 7.67725C110.292 7.95783 110.037 8.2129 109.757 8.2129Z" fill="black"/>
<path d="M106.594 11.376C106.287 11.376 106.058 11.121 106.058 10.8404V4.51465C106.058 4.20857 106.313 3.979 106.594 3.979C106.874 3.979 107.129 4.23407 107.129 4.51465V10.8149C107.129 11.121 106.874 11.3505 106.594 11.3505V11.376Z" fill="black"/>
</g>
<defs>
<clipPath id="clip0_694_929">
<rect width="230.583" height="148.094" fill="white"/>
</clipPath>
</defs>
</svg>
