<svg width="249" height="127" viewBox="0 0 249 127" fill="none" xmlns="http://www.w3.org/2000/svg">
<g clip-path="url(#clip0_707_353)">
<path d="M53.1783 17.7261H31.0642V77.985H53.1783V17.7261Z" fill="#E6FFF0"/>
<path d="M53.1783 17.7262V77.9851H31.0643V17.7262H53.1783ZM53.1783 17.0281H31.0643C30.6903 17.0281 30.3662 17.3273 30.3662 17.7262V77.9851C30.3662 78.3591 30.6654 78.6832 31.0643 78.6832H53.1783C53.5523 78.6832 53.8764 78.384 53.8764 77.9851V17.7262C53.8764 17.3522 53.5772 17.0281 53.1783 17.0281Z" fill="black"/>
<path d="M24.7566 17.7261H2.64258V77.985H24.7566V17.7261Z" fill="#E6FFF0"/>
<path d="M24.7318 17.7262V77.9851H2.64266V17.7262H24.7567M24.7567 17.0281H2.64266C2.26869 17.0281 1.94458 17.3273 1.94458 17.7262V77.9851C1.94458 78.3591 2.24376 78.6832 2.64266 78.6832H24.7567C25.1307 78.6832 25.4548 78.384 25.4548 77.9851V17.7262C25.4548 17.3522 25.1556 17.0281 24.7567 17.0281Z" fill="black"/>
<path d="M55.123 15.208H29.1196V16.4546H55.123V15.208Z" fill="#1CA55D"/>
<path d="M55.123 15.2081V16.4546H29.1197V15.2081H55.123ZM55.123 14.51H29.1197C28.7457 14.51 28.4216 14.8092 28.4216 15.2081V16.4546C28.4216 16.8286 28.7208 17.1527 29.1197 17.1527H55.123C55.497 17.1527 55.8211 16.8536 55.8211 16.4546V15.2081C55.8211 14.8341 55.5219 14.51 55.123 14.51Z" fill="black"/>
<path d="M0.673174 16.4297L26.6765 16.4297V15.1831L0.673174 15.1831V16.4297Z" fill="#1CA55D"/>
<path d="M26.6765 15.2081V16.4546H0.698076V15.2081H26.7014M26.7014 14.51H0.698076C0.324107 14.51 0 14.8092 0 15.2081V16.4546C0 16.8286 0.299176 17.1527 0.698076 17.1527H26.7014C27.0754 17.1527 27.3995 16.8536 27.3995 16.4546V15.2081C27.3995 14.8341 27.1003 14.51 26.7014 14.51Z" fill="black"/>
<path d="M50.1616 16.4546H49.5383V17.7261H50.1616V16.4546Z" fill="#1CA55D"/>
<path d="M50.1617 16.4547V17.7262H49.5384V16.4547H50.1617ZM50.1617 15.7566H49.5384C49.1644 15.7566 48.8403 16.0558 48.8403 16.4547V17.7262C48.8403 18.1001 49.1395 18.4242 49.5384 18.4242H50.1617C50.5357 18.4242 50.8598 18.1251 50.8598 17.7262V16.4547C50.8598 16.0807 50.5606 15.7566 50.1617 15.7566Z" fill="black"/>
<path d="M5.65943 17.7012H6.28271V16.4297H5.65943V17.7012Z" fill="#1CA55D"/>
<path d="M6.28278 16.4547V17.7262H5.6595V16.4547H6.28278ZM6.28278 15.7566H5.6595C5.28553 15.7566 4.96143 16.0558 4.96143 16.4547V17.7262C4.96143 18.1001 5.2606 18.4242 5.6595 18.4242H6.28278C6.65675 18.4242 6.98086 18.1251 6.98086 17.7262V16.4547C6.98086 16.0807 6.68168 15.7566 6.28278 15.7566Z" fill="black"/>
<path d="M34.7043 16.4546H34.0811V17.7261H34.7043V16.4546Z" fill="#1CA55D"/>
<path d="M34.7293 16.4547V17.7262H34.106V16.4547H34.7293ZM34.7293 15.7566H34.106C33.7321 15.7566 33.408 16.0558 33.408 16.4547V17.7262C33.408 18.1001 33.7071 18.4242 34.106 18.4242H34.7293C35.1033 18.4242 35.4274 18.1251 35.4274 17.7262V16.4547C35.4274 16.0807 35.1282 15.7566 34.7293 15.7566Z" fill="black"/>
<path d="M21.1167 17.7012H21.74V16.4297H21.1167V17.7012Z" fill="#1CA55D"/>
<path d="M21.7152 16.4547V17.7262H21.0919V16.4547H21.7152ZM21.7152 15.7566H21.0919C20.7179 15.7566 20.3938 16.0558 20.3938 16.4547V17.7262C20.3938 18.1001 20.693 18.4242 21.0919 18.4242H21.7152C22.0891 18.4242 22.4132 18.1251 22.4132 17.7262V16.4547C22.4132 16.0807 22.1141 15.7566 21.7152 15.7566Z" fill="black"/>
<path d="M29.1196 14.5598C29.8177 14.5598 30.3911 15.1332 30.3911 15.8313C30.3911 16.5294 29.8177 17.1028 29.1196 17.1028V14.5598Z" fill="#1CA55D"/>
<path d="M29.1197 14.5599C29.8178 14.5599 30.3912 15.1333 30.3912 15.8314C30.3912 16.5295 29.8178 17.1029 29.1197 17.1029V14.5599ZM29.1197 13.8618C28.7457 13.8618 28.4216 14.161 28.4216 14.5599V17.1029C28.4216 17.4769 28.7208 17.801 29.1197 17.801C30.1918 17.801 31.0893 16.9284 31.0893 15.8314C31.0893 14.7344 30.2167 13.8618 29.1197 13.8618Z" fill="black"/>
<path d="M26.6765 15.8313V14.5598C25.9784 14.5598 25.405 15.1332 25.405 15.8313C25.405 16.5294 25.9784 17.1028 26.6765 17.1028V15.8313Z" fill="#1CA55D"/>
<path d="M26.6766 14.5599V17.1029C25.9785 17.1029 25.4051 16.5295 25.4051 15.8314C25.4051 15.1333 25.9785 14.5599 26.6766 14.5599ZM26.6766 13.8618C25.6046 13.8618 24.707 14.7344 24.707 15.8314C24.707 16.9284 25.5796 17.801 26.6766 17.801C27.0506 17.801 27.3747 17.5018 27.3747 17.1029V14.5599C27.3747 14.1859 27.0755 13.8618 26.6766 13.8618Z" fill="black"/>
<path d="M55.123 79.2317H29.1196V80.4782H55.123V79.2317Z" fill="#1CA55D"/>
<path d="M55.123 79.2318V80.4783H29.1197V79.2318H55.123ZM55.123 78.5337H29.1197C28.7457 78.5337 28.4216 78.8329 28.4216 79.2318V80.4783C28.4216 80.8523 28.7208 81.1764 29.1197 81.1764H55.123C55.497 81.1764 55.8211 80.8772 55.8211 80.4783V79.2318C55.8211 78.8578 55.5219 78.5337 55.123 78.5337Z" fill="black"/>
<path d="M0.673174 80.5032H26.6765V79.2566H0.673174V80.5032Z" fill="#1CA55D"/>
<path d="M26.6765 79.2318V80.4783H0.698076V79.2318H26.7014M26.7014 78.5337H0.698076C0.324107 78.5337 0 78.8329 0 79.2318V80.4783C0 80.8523 0.299176 81.1764 0.698076 81.1764H26.7014C27.0754 81.1764 27.3995 80.8772 27.3995 80.4783V79.2318C27.3995 78.8578 27.1003 78.5337 26.7014 78.5337Z" fill="black"/>
<path d="M50.1616 77.9602H49.5383V79.2317H50.1616V77.9602Z" fill="#1CA55D"/>
<path d="M50.1617 77.9603V79.2318H49.5384V77.9603H50.1617ZM50.1617 77.2622H49.5384C49.1644 77.2622 48.8403 77.5614 48.8403 77.9603V79.2318C48.8403 79.6058 49.1395 79.9299 49.5384 79.9299H50.1617C50.5357 79.9299 50.8598 79.6307 50.8598 79.2318V77.9603C50.8598 77.5863 50.5606 77.2622 50.1617 77.2622Z" fill="black"/>
<path d="M5.65943 79.2317H6.28271V77.9602H5.65943V79.2317Z" fill="#1CA55D"/>
<path d="M6.28278 77.9603V79.2318H5.6595V77.9603H6.28278ZM6.28278 77.2622H5.6595C5.28553 77.2622 4.96143 77.5614 4.96143 77.9603V79.2318C4.96143 79.6058 5.2606 79.9299 5.6595 79.9299H6.28278C6.65675 79.9299 6.98086 79.6307 6.98086 79.2318V77.9603C6.98086 77.5863 6.68168 77.2622 6.28278 77.2622Z" fill="black"/>
<path d="M34.7043 77.9602H34.0811V79.2317H34.7043V77.9602Z" fill="#1CA55D"/>
<path d="M34.7293 77.9603V79.2318H34.106V77.9603H34.7293ZM34.7293 77.2622H34.106C33.7321 77.2622 33.408 77.5614 33.408 77.9603V79.2318C33.408 79.6058 33.7071 79.9299 34.106 79.9299H34.7293C35.1033 79.9299 35.4274 79.6307 35.4274 79.2318V77.9603C35.4274 77.5863 35.1282 77.2622 34.7293 77.2622Z" fill="black"/>
<path d="M21.1167 79.2317H21.74V77.9602H21.1167V79.2317Z" fill="#1CA55D"/>
<path d="M21.7152 77.9603V79.2318H21.0919V77.9603H21.7152ZM21.7152 77.2622H21.0919C20.7179 77.2622 20.3938 77.5614 20.3938 77.9603V79.2318C20.3938 79.6058 20.693 79.9299 21.0919 79.9299H21.7152C22.0891 79.9299 22.4132 79.6307 22.4132 79.2318V77.9603C22.4132 77.5863 22.1141 77.2622 21.7152 77.2622Z" fill="black"/>
<path d="M29.1196 79.855V81.1265C29.8177 81.1265 30.3911 80.5531 30.3911 79.855C30.3911 79.1569 29.8177 78.5835 29.1196 78.5835V79.855Z" fill="#1CA55D"/>
<path d="M29.1197 78.5836C29.8178 78.5836 30.3912 79.157 30.3912 79.8551C30.3912 80.5531 29.8178 81.1266 29.1197 81.1266V78.5836ZM29.1197 77.8855C28.7457 77.8855 28.4216 78.1847 28.4216 78.5836V81.1266C28.4216 81.5005 28.7208 81.8246 29.1197 81.8246C30.1918 81.8246 31.0893 80.952 31.0893 79.8551C31.0893 78.7581 30.2167 77.8855 29.1197 77.8855Z" fill="black"/>
<path d="M26.6765 81.1265C25.9784 81.1265 25.405 80.5531 25.405 79.855C25.405 79.1569 25.9784 78.5835 26.6765 78.5835V81.1265Z" fill="#1CA55D"/>
<path d="M26.6766 78.5836V81.1266C25.9785 81.1266 25.4051 80.5531 25.4051 79.8551C25.4051 79.157 25.9785 78.5836 26.6766 78.5836ZM26.6766 77.8855C25.6046 77.8855 24.707 78.7581 24.707 79.8551C24.707 80.952 25.5796 81.8246 26.6766 81.8246C27.0506 81.8246 27.3747 81.5255 27.3747 81.1266V78.5836C27.3747 78.2096 27.0755 77.8855 26.6766 77.8855Z" fill="black"/>
<path d="M26.7014 11.693L26.7014 122.837H29.1447L29.1447 11.693H26.7014Z" fill="#1CA55D"/>
<path d="M29.1199 11.6929V122.837H26.6766V11.6929H29.1199ZM29.1199 10.9949H26.6766C26.3026 10.9949 25.9785 11.294 25.9785 11.6929V122.837C25.9785 123.211 26.2777 123.535 26.6766 123.535H29.1199C29.4938 123.535 29.8179 123.236 29.8179 122.837V11.6929C29.8179 11.319 29.5188 10.9949 29.1199 10.9949Z" fill="black"/>
<path d="M32.7598 125.055L31.3636 122.836H24.4577L23.0615 125.055H32.7598Z" fill="#1CA55D"/>
<path d="M31.3636 122.837L32.7598 125.055H23.0615L24.4576 122.837H31.3636ZM31.3636 122.138H24.4576C24.2333 122.138 24.0089 122.263 23.8842 122.463L22.4881 124.681C22.3634 124.881 22.3385 125.155 22.4881 125.379C22.6127 125.604 22.8371 125.729 23.0864 125.729H32.7847C33.034 125.729 33.2584 125.604 33.383 125.379C33.5077 125.155 33.5077 124.881 33.383 124.681L31.9869 122.463C31.8622 122.263 31.6378 122.138 31.4135 122.138H31.3636Z" fill="black"/>
<path d="M36.8235 126.327V125.055H18.9976V126.327H36.8235Z" fill="#1CA55D"/>
<path d="M36.8235 125.055V126.327H18.9976V125.055H36.8235ZM36.8235 124.357H18.9976C18.6237 124.357 18.2996 124.657 18.2996 125.055V126.327C18.2996 126.701 18.5987 127.025 18.9976 127.025H36.8235C37.1975 127.025 37.5216 126.726 37.5216 126.327V125.055C37.5216 124.682 37.2224 124.357 36.8235 124.357Z" fill="black"/>
<path d="M27.8981 9.24951C29.2444 9.24951 30.3414 10.3465 30.3414 11.6928H25.4548C25.4548 10.3465 26.5518 9.24951 27.8981 9.24951Z" fill="#1CA55D"/>
<path d="M27.8982 9.24959C29.2445 9.24959 30.3414 10.3466 30.3414 11.6929H25.4549C25.4549 10.3466 26.5519 9.24959 27.8982 9.24959ZM27.8982 8.55151C26.1779 8.55151 24.7568 9.94767 24.7568 11.6929C24.7568 12.0668 25.056 12.3909 25.4549 12.3909H30.3414C30.7154 12.3909 31.0395 12.0918 31.0395 11.6929C31.0395 9.9726 29.6434 8.55151 27.8982 8.55151Z" fill="black"/>
<path d="M13.6624 47.6688C17.6279 47.6688 20.8426 44.4541 20.8426 40.4886C20.8426 36.523 17.6279 33.3083 13.6624 33.3083C9.69687 33.3083 6.48218 36.523 6.48218 40.4886C6.48218 44.4541 9.69687 47.6688 13.6624 47.6688Z" fill="#1CA55D"/>
<path d="M13.6624 47.8932C9.57367 47.8932 6.25781 44.5773 6.25781 40.4886C6.25781 36.3998 9.57367 33.084 13.6624 33.084C17.7511 33.084 21.067 36.3998 21.067 40.4886C21.067 44.5773 17.7511 47.8932 13.6624 47.8932ZM13.6624 33.5078C9.82299 33.5078 6.68164 36.6242 6.68164 40.4886C6.68164 44.3529 9.79806 47.4693 13.6624 47.4693C17.5268 47.4693 20.6432 44.3529 20.6432 40.4886C20.6432 36.6242 17.5268 33.5078 13.6624 33.5078Z" fill="black"/>
<path d="M22.0393 49.9873H5.2605V54.7741H22.0393V49.9873Z" fill="#B8FFD6"/>
<path d="M22.0393 55.0484H5.26057C5.11098 55.0484 4.98633 54.9238 4.98633 54.7742V49.9874C4.98633 49.8378 5.11098 49.7131 5.26057 49.7131H22.0393C22.1889 49.7131 22.3136 49.8378 22.3136 49.9874V54.7742C22.3136 54.9238 22.1889 55.0484 22.0393 55.0484ZM5.53482 54.5249H21.79V50.2616H5.53482V54.5249Z" fill="black"/>
<path d="M22.0393 57.1675H5.2605V58.2894H22.0393V57.1675Z" fill="#D7FFE8"/>
<path d="M22.0393 58.5637H5.26057C5.11098 58.5637 4.98633 58.439 4.98633 58.2895V57.1676C4.98633 57.018 5.11098 56.8933 5.26057 56.8933H22.0393C22.1889 56.8933 22.3136 57.018 22.3136 57.1676V58.2895C22.3136 58.439 22.1889 58.5637 22.0393 58.5637ZM5.53482 58.0402H21.79V57.4418H5.53482V58.0402Z" fill="black"/>
<path d="M22.0393 59.2119H5.2605V60.3338H22.0393V59.2119Z" fill="#D7FFE8"/>
<path d="M22.0393 60.6081H5.26057C5.11098 60.6081 4.98633 60.4835 4.98633 60.3339V59.212C4.98633 59.0624 5.11098 58.9377 5.26057 58.9377H22.0393C22.1889 58.9377 22.3136 59.0624 22.3136 59.212V60.3339C22.3136 60.4835 22.1889 60.6081 22.0393 60.6081ZM5.53482 60.0846H21.79V59.4862H5.53482V60.0846Z" fill="black"/>
<path d="M22.0393 61.2314H5.2605V62.3534H22.0393V61.2314Z" fill="#D7FFE8"/>
<path d="M22.0393 62.6277H5.26057C5.11098 62.6277 4.98633 62.503 4.98633 62.3534V61.2315C4.98633 61.0819 5.11098 60.9573 5.26057 60.9573H22.0393C22.1889 60.9573 22.3136 61.0819 22.3136 61.2315V62.3534C22.3136 62.503 22.1889 62.6277 22.0393 62.6277ZM5.53482 62.1041H21.79V61.5058H5.53482V62.1041Z" fill="black"/>
<path d="M17.9008 39.3416H9.32446V40.7128H17.9008V39.3416Z" fill="#61DB95"/>
<path d="M17.9008 40.8623H9.32442C9.32442 40.8623 9.1499 40.7876 9.1499 40.6878V39.3166C9.1499 39.3166 9.2247 39.1421 9.32442 39.1421H17.9008C17.9008 39.1421 18.0753 39.2169 18.0753 39.3166V40.6878C18.0753 40.6878 18.0005 40.8623 17.9008 40.8623ZM9.49894 40.5382H17.7512V39.4911H9.49894V40.5382Z" fill="black"/>
<path d="M17.6265 45.5246H9.67345C9.27455 45.5246 8.95044 45.2005 8.95044 44.8016V39.2419C8.95044 39.2419 9.02523 39.0674 9.12496 39.0674H18.175C18.175 39.0674 18.3495 39.1422 18.3495 39.2419V44.8016C18.3495 45.2005 18.0254 45.5246 17.6265 45.5246ZM9.27455 39.3915V44.8016C9.27455 45.026 9.44907 45.2005 9.67345 45.2005H17.6265C17.8509 45.2005 18.0254 45.026 18.0254 44.8016V39.3915H9.29948H9.27455Z" fill="#020500"/>
<path d="M17.6265 45.5246H9.67345C9.27455 45.5246 8.95044 45.2005 8.95044 44.8016V39.2419C8.95044 39.2419 9.02523 39.0674 9.12496 39.0674H18.175C18.175 39.0674 18.3495 39.1422 18.3495 39.2419V44.8016C18.3495 45.2005 18.0254 45.5246 17.6265 45.5246ZM9.27455 39.3915V44.8016C9.27455 45.026 9.44907 45.2005 9.67345 45.2005H17.6265C17.8509 45.2005 18.0254 45.026 18.0254 44.8016V39.3915H9.29948H9.27455Z" fill="#020500"/>
<path d="M18.4244 39.4663V38.12C18.4244 37.7959 18.175 37.5466 17.8509 37.5466H9.49896C9.17485 37.5466 8.92554 37.7959 8.92554 38.12V39.4663H18.4244Z" fill="#DCFFEC"/>
<path d="M17.8259 37.5465C18.15 37.5465 18.3993 37.7958 18.3993 38.1199V39.4662H8.90052V38.1199C8.90052 37.7958 9.14984 37.5465 9.47394 37.5465H17.8259ZM17.8259 37.2224H9.47394C8.97532 37.2224 8.57642 37.6213 8.57642 38.1199V39.4662C8.57642 39.6407 8.726 39.7903 8.90052 39.7903H18.3993C18.5739 39.7903 18.7235 39.6407 18.7235 39.4662V38.1199C18.7235 37.6213 18.3246 37.2224 17.8259 37.2224Z" fill="black"/>
<path d="M15.632 37.6213C16.2055 37.5715 16.6542 37.0978 16.6542 36.4994C16.6542 35.8761 16.1556 35.3775 15.5323 35.3775C15.2331 35.3775 14.934 35.5022 14.7345 35.7016L13.7373 36.6989H13.6874C13.6375 36.6989 13.5877 36.6989 13.5627 36.6989L12.5655 35.7016H12.5406C12.3411 35.4523 12.0419 35.3276 11.7428 35.3276C11.1195 35.3276 10.6208 35.8263 10.6208 36.4495C10.6208 37.0728 11.0696 37.5216 11.643 37.5715H12.1915L11.4436 38.3194L12.1167 38.5438L12.2912 39.1671L12.9145 38.5438V45.5495H14.3356V38.5188L15.0586 39.2418L15.3079 38.6435L15.9312 38.4191L15.0836 37.5715H15.632V37.6213ZM11.6929 37.023C11.4187 37.023 11.1943 36.7737 11.1943 36.4994C11.1943 36.2252 11.4186 35.9759 11.7178 35.9759C11.8674 35.9759 11.9921 36.0257 12.0918 36.1254L12.9893 37.023H11.6929ZM14.2608 37.023L15.1085 36.1753H15.1334V36.1254C15.2331 36.0257 15.3578 35.9509 15.5074 35.9509C15.8066 35.9509 16.0309 36.1753 16.0309 36.4745C16.0309 36.7737 15.8066 36.998 15.5323 36.998H14.2359L14.2608 37.023Z" fill="#83FFBB"/>
<path d="M15.5323 35.3776C16.1555 35.3776 16.6542 35.8762 16.6542 36.4995C16.6542 37.1228 16.2054 37.5715 15.632 37.6214H15.5821H15.0835L15.9312 38.4691L15.3079 38.6934L15.0586 39.2918L14.3356 38.5688V45.5994H12.9145V38.5937L12.2912 39.217L12.1167 38.5937L11.4435 38.3693L12.1915 37.6214H11.643C11.0696 37.5715 10.6208 37.0978 10.6208 36.4995C10.6208 35.8762 11.1194 35.3776 11.7427 35.3776C12.0419 35.3776 12.3411 35.5022 12.5405 35.7266H12.5654L13.5627 36.7239C13.6126 36.7239 13.6375 36.7239 13.6873 36.7239H13.7372L14.7345 35.7266C14.9339 35.5272 15.2331 35.4025 15.5323 35.4025M14.2608 37.048H15.5572C15.8314 37.048 16.0558 36.7987 16.0558 36.5244C16.0558 36.2502 15.8314 36.0009 15.5323 36.0009C15.3827 36.0009 15.258 36.0507 15.1583 36.1754L15.1334 36.2252L14.2857 37.0729M11.7427 37.0729H13.0142L12.1167 36.1754C12.1167 36.1754 11.8923 36.0009 11.7427 36.0009C11.4435 36.0009 11.2191 36.2252 11.2191 36.5244C11.2191 36.8236 11.4435 37.048 11.7178 37.048M15.5323 35.0784C15.1583 35.0784 14.8093 35.228 14.535 35.4773C14.535 35.4773 14.5101 35.4773 14.4851 35.5022L13.6126 36.3748L12.7649 35.5272L12.715 35.4773C12.4657 35.228 12.0917 35.0535 11.6928 35.0535C10.895 35.0535 10.2468 35.7017 10.2468 36.4995C10.2468 37.1976 10.7205 37.771 11.3937 37.9206L11.1693 38.1449C11.1693 38.1449 11.0446 38.3444 11.0945 38.4441C11.1194 38.5438 11.1942 38.6436 11.3189 38.6685L11.8424 38.843L11.9671 39.3167C11.9671 39.3167 12.0169 39.4414 12.0668 39.4663C12.1416 39.5162 12.2164 39.5411 12.2912 39.5411C12.366 39.5411 12.4657 39.5162 12.5156 39.4414L12.5904 39.3666V45.5994C12.5904 45.7739 12.74 45.9235 12.9145 45.9235H14.3356C14.5101 45.9235 14.6597 45.7739 14.6597 45.5994V39.3666L14.8093 39.5162C14.8093 39.5162 14.9588 39.6159 15.0336 39.6159H15.0835C15.1832 39.6159 15.2829 39.5162 15.3328 39.4164L15.5323 38.9427L16.0309 38.7682C16.0309 38.7682 16.2303 38.6436 16.2553 38.5438C16.2802 38.4441 16.2553 38.3195 16.1805 38.2447L15.8564 37.9206C16.5046 37.771 17.0032 37.1976 17.0032 36.4995C17.0032 35.7017 16.355 35.0535 15.5572 35.0535L15.5323 35.0784ZM15.4076 36.3499C15.4076 36.3499 15.4824 36.3 15.5323 36.3C15.632 36.3 15.7317 36.3998 15.7317 36.4995C15.7317 36.5992 15.6569 36.6989 15.5323 36.6989H15.0336L15.3328 36.3998L15.3827 36.3499H15.4076ZM11.7178 36.6989C11.7178 36.6989 11.5183 36.5992 11.5183 36.4995C11.5183 36.3998 11.618 36.3 11.7178 36.3C11.7676 36.3 11.7926 36.3 11.8424 36.3499C11.8424 36.3499 11.8424 36.3499 11.8674 36.3748L12.1915 36.6989H11.7178Z" fill="black"/>
<path d="M42.1836 47.6688C46.1492 47.6688 49.3638 44.4541 49.3638 40.4886C49.3638 36.523 46.1492 33.3083 42.1836 33.3083C38.2181 33.3083 35.0034 36.523 35.0034 40.4886C35.0034 44.4541 38.2181 47.6688 42.1836 47.6688Z" fill="#1CA55D"/>
<path d="M42.1836 47.8932C38.0949 47.8932 34.7791 44.5773 34.7791 40.4886C34.7791 36.3998 38.0949 33.084 42.1836 33.084C46.2724 33.084 49.5882 36.3998 49.5882 40.4886C49.5882 44.5773 46.2724 47.8932 42.1836 47.8932ZM42.1836 33.5078C38.3442 33.5078 35.2029 36.6242 35.2029 40.4886C35.2029 44.3529 38.3193 47.4693 42.1836 47.4693C46.048 47.4693 49.1644 44.3529 49.1644 40.4886C49.1644 36.6242 46.048 33.5078 42.1836 33.5078Z" fill="black"/>
<path d="M50.5854 49.9873H33.8066V54.7741H50.5854V49.9873Z" fill="#B8FFD6"/>
<path d="M50.5606 55.0484H33.7818C33.6322 55.0484 33.5076 54.9238 33.5076 54.7742V49.9874C33.5076 49.8378 33.6322 49.7131 33.7818 49.7131H50.5606C50.7102 49.7131 50.8348 49.8378 50.8348 49.9874V54.7742C50.8348 54.9238 50.7102 55.0484 50.5606 55.0484ZM34.0561 54.5249H50.3113V50.2616H34.0561V54.5249Z" fill="black"/>
<path d="M50.5854 57.1675H33.8066V58.2894H50.5854V57.1675Z" fill="#D7FFE8"/>
<path d="M50.5606 58.5637H33.7818C33.6322 58.5637 33.5076 58.439 33.5076 58.2895V57.1676C33.5076 57.018 33.6322 56.8933 33.7818 56.8933H50.5606C50.7102 56.8933 50.8348 57.018 50.8348 57.1676V58.2895C50.8348 58.439 50.7102 58.5637 50.5606 58.5637ZM34.0561 58.0402H50.3113V57.4418H34.0561V58.0402Z" fill="black"/>
<path d="M50.5854 59.2119H33.8066V60.3338H50.5854V59.2119Z" fill="#D7FFE8"/>
<path d="M50.5606 60.6081H33.7818C33.6322 60.6081 33.5076 60.4835 33.5076 60.3339V59.212C33.5076 59.0624 33.6322 58.9377 33.7818 58.9377H50.5606C50.7102 58.9377 50.8348 59.0624 50.8348 59.212V60.3339C50.8348 60.4835 50.7102 60.6081 50.5606 60.6081ZM34.0561 60.0846H50.3113V59.4862H34.0561V60.0846Z" fill="black"/>
<path d="M50.5854 61.2314H33.8066V62.3534H50.5854V61.2314Z" fill="#D7FFE8"/>
<path d="M50.5606 62.6277H33.7818C33.6322 62.6277 33.5076 62.503 33.5076 62.3534V61.2315C33.5076 61.0819 33.6322 60.9573 33.7818 60.9573H50.5606C50.7102 60.9573 50.8348 61.0819 50.8348 61.2315V62.3534C50.8348 62.503 50.7102 62.6277 50.5606 62.6277ZM34.0561 62.1041H50.3113V61.5058H34.0561V62.1041Z" fill="black"/>
<path d="M46.4221 39.3416H37.8457V40.7128H46.4221V39.3416Z" fill="#61DB95"/>
<path d="M46.422 40.8623H37.8457C37.8457 40.8623 37.6711 40.7876 37.6711 40.6878V39.3166C37.6711 39.3166 37.7459 39.1421 37.8457 39.1421H46.422C46.422 39.1421 46.5965 39.2169 46.5965 39.3166V40.6878C46.5965 40.6878 46.5218 40.8623 46.422 40.8623ZM38.0202 40.5382H46.2724V39.4911H38.0202V40.5382Z" fill="black"/>
<path d="M46.1478 45.5246H38.1947C37.7958 45.5246 37.4717 45.2005 37.4717 44.8016V39.2419C37.4717 39.2419 37.5465 39.0674 37.6462 39.0674H46.6963C46.6963 39.0674 46.8708 39.1422 46.8708 39.2419V44.8016C46.8708 45.2005 46.5467 45.5246 46.1478 45.5246ZM37.7958 39.3915V44.8016C37.7958 45.026 37.9703 45.2005 38.1947 45.2005H46.1478C46.3722 45.2005 46.5467 45.026 46.5467 44.8016V39.3915H37.8207H37.7958Z" fill="#020500"/>
<path d="M46.1478 45.5246H38.1947C37.7958 45.5246 37.4717 45.2005 37.4717 44.8016V39.2419C37.4717 39.2419 37.5465 39.0674 37.6462 39.0674H46.6963C46.6963 39.0674 46.8708 39.1422 46.8708 39.2419V44.8016C46.8708 45.2005 46.5467 45.5246 46.1478 45.5246ZM37.7958 39.3915V44.8016C37.7958 45.026 37.9703 45.2005 38.1947 45.2005H46.1478C46.3722 45.2005 46.5467 45.026 46.5467 44.8016V39.3915H37.8207H37.7958Z" fill="#020500"/>
<path d="M46.9456 39.4663V38.12C46.9456 37.7959 46.6963 37.5466 46.3722 37.5466H38.0202C37.6961 37.5466 37.4468 37.7959 37.4468 38.12V39.4663H46.9456Z" fill="#DCFFEC"/>
<path d="M46.3472 37.5465C46.6713 37.5465 46.9206 37.7958 46.9206 38.1199V39.4662H37.4218V38.1199C37.4218 37.7958 37.6711 37.5465 37.9952 37.5465H46.3472ZM46.3472 37.2224H37.9952C37.4966 37.2224 37.0977 37.6213 37.0977 38.1199V39.4662C37.0977 39.6407 37.2472 39.7903 37.4218 39.7903H46.9206C47.0951 39.7903 47.2447 39.6407 47.2447 39.4662V38.1199C47.2447 37.6213 46.8458 37.2224 46.3472 37.2224Z" fill="black"/>
<path d="M44.1533 37.6213C44.7267 37.5715 45.1755 37.0978 45.1755 36.4994C45.1755 35.8761 44.6768 35.3775 44.0536 35.3775C43.7544 35.3775 43.4552 35.5022 43.2558 35.7016L42.2585 36.6989H42.2086C42.1588 36.6989 42.1089 36.6989 42.084 36.6989L41.0867 35.7016H41.0618C40.8623 35.4523 40.5632 35.3276 40.264 35.3276C39.6407 35.3276 39.1421 35.8263 39.1421 36.4495C39.1421 37.0728 39.5909 37.5216 40.1643 37.5715H40.7128L39.9648 38.3194L40.638 38.5438L40.8125 39.1671L41.4358 38.5438V45.5495H42.8569V38.5188L43.5799 39.2418L43.8292 38.6435L44.4525 38.4191L43.6048 37.5715H44.1533V37.6213ZM40.2141 37.023C39.9399 37.023 39.7155 36.7737 39.7155 36.4994C39.7155 36.2252 39.9399 35.9759 40.2391 35.9759C40.3887 35.9759 40.5133 36.0257 40.613 36.1254L41.5106 37.023H40.2141ZM42.7821 37.023L43.6297 36.1753H43.6547V36.1254C43.7544 36.0257 43.879 35.9509 44.0286 35.9509C44.3278 35.9509 44.5522 36.1753 44.5522 36.4745C44.5522 36.7737 44.3278 36.998 44.0536 36.998H42.7571L42.7821 37.023Z" fill="#83FFBB"/>
<path d="M44.0535 35.3776C44.6768 35.3776 45.1754 35.8762 45.1754 36.4995C45.1754 37.1228 44.7266 37.5715 44.1532 37.6214H44.1034H43.6047L44.4524 38.4691L43.8291 38.6934L43.5798 39.2918L42.8568 38.5688V45.5994H41.4357V38.5937L40.8124 39.217L40.6379 38.5937L39.9648 38.3693L40.7127 37.6214H40.1642C39.5908 37.5715 39.142 37.0978 39.142 36.4995C39.142 35.8762 39.6407 35.3776 40.2639 35.3776C40.5631 35.3776 40.8623 35.5022 41.0617 35.7266H41.0867L42.0839 36.7239C42.1338 36.7239 42.1587 36.7239 42.2086 36.7239H42.2584L43.2557 35.7266C43.4551 35.5272 43.7543 35.4025 44.0535 35.4025M42.782 37.048H44.0784C44.3527 37.048 44.5771 36.7987 44.5771 36.5244C44.5771 36.2502 44.3527 36.0009 44.0535 36.0009C43.9039 36.0009 43.7793 36.0507 43.6795 36.1754L43.6546 36.2252L42.8069 37.0729M40.2639 37.0729H41.5354L40.6379 36.1754C40.6379 36.1754 40.4135 36.0009 40.2639 36.0009C39.9648 36.0009 39.7404 36.2252 39.7404 36.5244C39.7404 36.8236 39.9648 37.048 40.239 37.048M44.0535 35.0784C43.6795 35.0784 43.3305 35.228 43.0562 35.4773C43.0562 35.4773 43.0313 35.4773 43.0064 35.5022L42.1338 36.3748L41.2861 35.5272L41.2363 35.4773C40.987 35.228 40.613 35.0535 40.2141 35.0535C39.4163 35.0535 38.7681 35.7017 38.7681 36.4995C38.7681 37.1976 39.2418 37.771 39.9149 37.9206L39.6905 38.1449C39.6905 38.1449 39.5659 38.3444 39.6157 38.4441C39.6407 38.5438 39.7155 38.6436 39.8401 38.6685L40.3637 38.843L40.4883 39.3167C40.4883 39.3167 40.5382 39.4414 40.5881 39.4663C40.6628 39.5162 40.7376 39.5411 40.8124 39.5411C40.8872 39.5411 40.9869 39.5162 41.0368 39.4414L41.1116 39.3666V45.5994C41.1116 45.7739 41.2612 45.9235 41.4357 45.9235H42.8568C43.0313 45.9235 43.1809 45.7739 43.1809 45.5994V39.3666L43.3305 39.5162C43.3305 39.5162 43.4801 39.6159 43.5549 39.6159H43.6047C43.7045 39.6159 43.8042 39.5162 43.8541 39.4164L44.0535 38.9427L44.5521 38.7682C44.5521 38.7682 44.7516 38.6436 44.7765 38.5438C44.8014 38.4441 44.7765 38.3195 44.7017 38.2447L44.3776 37.9206C45.0258 37.771 45.5244 37.1976 45.5244 36.4995C45.5244 35.7017 44.8762 35.0535 44.0784 35.0535L44.0535 35.0784ZM43.9288 36.3499C43.9288 36.3499 44.0036 36.3 44.0535 36.3C44.1532 36.3 44.253 36.3998 44.253 36.4995C44.253 36.5992 44.1782 36.6989 44.0535 36.6989H43.5549L43.8541 36.3998L43.9039 36.3499H43.9288ZM40.239 36.6989C40.239 36.6989 40.0396 36.5992 40.0396 36.4995C40.0396 36.3998 40.1393 36.3 40.239 36.3C40.2889 36.3 40.3138 36.3 40.3637 36.3499C40.3637 36.3499 40.3637 36.3499 40.3886 36.3748L40.7127 36.6989H40.239Z" fill="black"/>
<path d="M174.993 32.5603H68.8601V88.7554H174.993V32.5603Z" fill="#1CA55D"/>
<path d="M174.993 32.5604V88.7555H68.8602V32.5604H174.993ZM174.993 31.8623H68.8602C68.4862 31.8623 68.1621 32.1615 68.1621 32.5604V88.7555C68.1621 89.1295 68.4613 89.4536 68.8602 89.4536H174.993C175.367 89.4536 175.691 89.1544 175.691 88.7555V32.5604C175.691 32.1864 175.392 31.8623 174.993 31.8623Z" fill="black"/>
<path d="M172.874 34.6047H70.9795V86.7111H172.874V34.6047Z" fill="#D3F4E1"/>
<path d="M172.899 34.6048V86.7112H70.9796V34.6048H172.874M172.874 33.9067H70.9796C70.6056 33.9067 70.2815 34.2059 70.2815 34.6048V86.7112C70.2815 87.0852 70.5807 87.4093 70.9796 87.4093H172.874C173.248 87.4093 173.572 87.1101 173.572 86.7112V34.6048C173.572 34.2308 173.273 33.9067 172.874 33.9067Z" fill="black"/>
<path d="M167.688 88.7554H76.2148V91.5975H167.688V88.7554Z" fill="#1CA55D"/>
<path d="M167.663 88.7554V91.5976H76.2149V88.7554H167.688M167.688 88.0574H76.2149C75.8409 88.0574 75.5168 88.3565 75.5168 88.7554V91.5976C75.5168 91.9716 75.816 92.2957 76.2149 92.2957H167.688C168.062 92.2957 168.386 91.9965 168.386 91.5976V88.7554C168.386 88.3815 168.087 88.0574 167.688 88.0574Z" fill="black"/>
<path d="M169.508 88.7554H167.663V124.956H169.508V88.7554Z" fill="#1CA55D"/>
<path d="M169.508 88.7554V124.956H167.663V88.7554H169.508ZM169.508 88.0574H167.663C167.289 88.0574 166.965 88.3565 166.965 88.7554V124.956C166.965 125.33 167.264 125.654 167.663 125.654H169.508C169.882 125.654 170.206 125.355 170.206 124.956V88.7554C170.206 88.3815 169.907 88.0574 169.508 88.0574Z" fill="black"/>
<path d="M74.3702 124.956H76.2151V88.7556H74.3702V124.956Z" fill="#1CA55D"/>
<path d="M76.2151 88.7554V124.956H74.3702V88.7554H76.2151ZM76.2151 88.0574H74.3702C73.9962 88.0574 73.6721 88.3565 73.6721 88.7554V124.956C73.6721 125.33 73.9713 125.654 74.3702 125.654H76.2151C76.5891 125.654 76.9132 125.355 76.9132 124.956V88.7554C76.9132 88.3815 76.614 88.0574 76.2151 88.0574Z" fill="black"/>
<path d="M176.115 124.956H161.081V126.327H176.115V124.956Z" fill="#1CA55D"/>
<path d="M176.09 124.956V126.327H161.056V124.956H176.09ZM176.09 124.258H161.056C160.682 124.258 160.358 124.557 160.358 124.956V126.327C160.358 126.701 160.657 127.025 161.056 127.025H176.09C176.464 127.025 176.788 126.726 176.788 126.327V124.956C176.788 124.582 176.489 124.258 176.09 124.258Z" fill="black"/>
<path d="M67.7633 126.327H82.7969V124.956H67.7633V126.327Z" fill="#1CA55D"/>
<path d="M82.7968 124.956V126.327H67.7633V124.956H82.7968ZM82.7968 124.258H67.7633C67.3893 124.258 67.0652 124.557 67.0652 124.956V126.327C67.0652 126.701 67.3644 127.025 67.7633 127.025H82.7968C83.1708 127.025 83.4949 126.726 83.4949 126.327V124.956C83.4949 124.582 83.1957 124.258 82.7968 124.258Z" fill="black"/>
<path d="M167.663 94.4397H167.189V105.908H167.663V94.4397Z" fill="#1CA55D"/>
<path d="M167.663 94.4398V105.908H167.189V94.4398H167.663ZM167.663 93.7417H167.189C166.815 93.7417 166.491 94.0409 166.491 94.4398V105.908C166.491 106.282 166.79 106.606 167.189 106.606H167.663C168.037 106.606 168.361 106.307 168.361 105.908V94.4398C168.361 94.0658 168.062 93.7417 167.663 93.7417Z" fill="black"/>
<path d="M76.6885 94.4397H76.2148V105.908H76.6885V94.4397Z" fill="#1CA55D"/>
<path d="M76.6886 94.4398V105.908H76.2149V94.4398H76.6886ZM76.6886 93.7417H76.2149C75.8409 93.7417 75.5168 94.0409 75.5168 94.4398V105.908C75.5168 106.282 75.816 106.606 76.2149 106.606H76.6886C77.0626 106.606 77.3867 106.307 77.3867 105.908V94.4398C77.3867 94.0658 77.0875 93.7417 76.6886 93.7417Z" fill="black"/>
<path d="M167.663 105.908C167.663 105.908 167.613 105.734 167.513 105.684L152.929 100.174L167.513 94.6641C167.513 94.6641 167.688 94.4896 167.638 94.3649C167.588 94.2403 167.464 94.1904 167.339 94.2403L152.256 99.9495L137.097 94.2153L121.939 99.9495L106.781 94.2153L91.6226 99.9495L76.5392 94.2403C76.5392 94.2403 76.2899 94.2403 76.24 94.3649C76.1902 94.4896 76.24 94.6142 76.3647 94.6641L90.9495 100.174L76.3647 105.684C76.3647 105.684 76.2151 105.808 76.2151 105.908V106.357H167.688V105.908H167.663ZM166.766 105.908H137.746L152.256 100.423L166.766 105.908ZM137.322 105.559V94.7638L151.607 100.174L137.322 105.584V105.559ZM136.848 94.7638V105.559L122.562 100.149L136.848 94.7389V94.7638ZM136.424 105.908H107.404L121.914 100.423L136.424 105.908ZM106.98 105.559V94.7638L121.266 100.174L106.98 105.584V105.559ZM106.507 94.7638V105.559L92.221 100.149L106.507 94.7389V94.7638ZM91.5728 100.423L106.083 105.908H77.0628L91.5728 100.423Z" fill="#1CA55D"/>
<path d="M137.097 94.1905L152.255 99.9247L167.339 94.2154C167.339 94.2154 167.389 94.2154 167.414 94.2154C167.513 94.2154 167.588 94.2653 167.638 94.365C167.688 94.4897 167.638 94.6143 167.513 94.6642L152.929 100.174L167.513 105.684C167.513 105.684 167.663 105.808 167.663 105.908V106.357H76.215V105.908C76.215 105.908 76.2649 105.734 76.3646 105.684L90.9494 100.174L76.3646 94.6642C76.3646 94.6642 76.1901 94.4897 76.2399 94.365C76.2649 94.2653 76.3646 94.2154 76.4643 94.2154C76.4892 94.2154 76.5142 94.2154 76.5391 94.2154L91.6225 99.9247L106.781 94.1905L121.939 99.9247L137.097 94.1905ZM137.322 105.584L151.607 100.174L137.322 94.7639V105.559M106.507 105.559V94.7639L92.2209 100.174L106.507 105.584M136.848 105.584V94.7889L122.562 100.199L136.848 105.609M106.98 105.609L121.266 100.199L106.98 94.7889V105.584M107.404 105.933H136.424L121.914 100.448L107.404 105.933ZM77.0876 105.933H106.108L91.5976 100.448L77.0876 105.933ZM137.745 105.933H166.765L152.255 100.448L137.745 105.933ZM137.097 93.5174C137.097 93.5174 136.923 93.5174 136.848 93.5672L121.914 99.2017L106.98 93.5672C106.98 93.5672 106.831 93.5174 106.731 93.5174C106.631 93.5174 106.556 93.5174 106.482 93.5672L91.5477 99.2017L76.7136 93.5922C76.7136 93.5922 76.4643 93.5423 76.3895 93.5423C76.0155 93.5423 75.6665 93.7916 75.5418 94.1406C75.4421 94.365 75.4671 94.6143 75.5418 94.8387C75.6416 95.0631 75.8161 95.2376 76.0654 95.3124L88.9549 100.199L76.0654 105.085C75.7662 105.185 75.5419 105.459 75.492 105.759C75.492 105.808 75.492 105.883 75.492 105.933V106.382C75.492 106.756 75.7912 107.08 76.1901 107.08H167.663C168.037 107.08 168.361 106.781 168.361 106.382V105.933C168.361 105.933 168.361 105.808 168.336 105.734C168.261 105.435 168.062 105.185 167.763 105.061L154.873 100.174L167.763 95.2875C167.987 95.2127 168.162 95.0382 168.286 94.8138C168.386 94.5894 168.386 94.3401 168.286 94.1157C168.162 93.7667 167.813 93.5174 167.439 93.5174C167.364 93.5174 167.189 93.5423 167.114 93.5672L152.28 99.1768L137.347 93.5423C137.347 93.5423 137.197 93.4924 137.097 93.4924V93.5174ZM138.02 104.587V95.7612L149.663 100.174L138.02 104.587ZM94.1905 100.174L105.833 95.7612V104.587L94.1905 100.174ZM107.678 104.587V95.7612L119.321 100.174L107.678 104.587ZM124.507 100.174L136.15 95.7612V104.587L124.507 100.174ZM111.169 105.235L121.914 101.171L132.659 105.235H111.144H111.169ZM80.8522 105.235L91.5976 101.171L102.343 105.235H80.8273H80.8522ZM141.51 105.235L152.255 101.171L163.001 105.235H141.485H141.51Z" fill="black"/>
<path d="M178.034 91.5977H65.8186V94.4398H178.034V91.5977Z" fill="#1CA55D"/>
<path d="M178.059 91.5977V94.4399H65.8187V91.5977H178.034M178.034 90.8997H65.8187C65.4447 90.8997 65.1206 91.1988 65.1206 91.5977V94.4399C65.1206 94.8139 65.4198 95.138 65.8187 95.138H178.034C178.408 95.138 178.732 94.8388 178.732 94.4399V91.5977C178.732 91.2238 178.433 90.8997 178.034 90.8997Z" fill="black"/>
<path d="M178.034 91.5977H65.8186V92.0464H178.034V91.5977Z" fill="#1CA55D"/>
<path d="M178.059 91.5977V92.0465H65.8187V91.5977H178.034M178.034 90.8997H65.8187C65.4447 90.8997 65.1206 91.1988 65.1206 91.5977V92.0465C65.1206 92.4205 65.4198 92.7446 65.8187 92.7446H178.034C178.408 92.7446 178.732 92.4454 178.732 92.0465V91.5977C178.732 91.2238 178.433 90.8997 178.034 90.8997Z" fill="black"/>
<path d="M125.504 39.1172H75.1929V43.904H125.504V39.1172Z" fill="#A9FFD0"/>
<path d="M125.504 44.3031H75.1931C74.9936 44.3031 74.8191 44.1285 74.8191 43.9291V39.1423C74.8191 38.9428 74.9936 38.7683 75.1931 38.7683H125.504C125.704 38.7683 125.878 38.9428 125.878 39.1423V43.9291C125.878 44.1285 125.704 44.3031 125.504 44.3031ZM75.5421 43.5551H125.13V39.5162H75.5421V43.5551Z" fill="black"/>
<path d="M89.5782 79.8552H75.1929V82.2486H89.5782V79.8552Z" fill="#58DD94"/>
<path d="M89.5533 82.6225H75.1679C74.9685 82.6225 74.7939 82.448 74.7939 82.2486V79.8552C74.7939 79.6557 74.9685 79.4812 75.1679 79.4812H89.5533C89.7527 79.4812 89.9272 79.6557 89.9272 79.8552V82.2486C89.9272 82.448 89.7527 82.6225 89.5533 82.6225ZM75.5419 81.8995H89.2042V80.2291H75.5419V81.8995Z" fill="black"/>
<path d="M125.504 79.8552H91.9468V82.2486H125.504V79.8552Z" fill="#8FEAB4"/>
<path d="M125.504 82.6225H91.9467C91.7473 82.6225 91.5728 82.448 91.5728 82.2486V79.8552C91.5728 79.6557 91.7473 79.4812 91.9467 79.4812H125.504C125.704 79.4812 125.878 79.6557 125.878 79.8552V82.2486C125.878 82.448 125.704 82.6225 125.504 82.6225ZM92.3207 81.8995H125.13V80.2291H92.3207V81.8995Z" fill="black"/>
<path d="M89.5782 75.0684H75.1929V77.4618H89.5782V75.0684Z" fill="#58DD94"/>
<path d="M89.5533 77.8357H75.1679C74.9685 77.8357 74.7939 77.6612 74.7939 77.4617V75.0683C74.7939 74.8689 74.9685 74.6943 75.1679 74.6943H89.5533C89.7527 74.6943 89.9272 74.8689 89.9272 75.0683V77.4617C89.9272 77.6612 89.7527 77.8357 89.5533 77.8357ZM75.5419 77.1127H89.2042V75.4423H75.5419V77.1127Z" fill="black"/>
<path d="M125.504 75.0684H91.9468V77.4618H125.504V75.0684Z" fill="#8FEAB4"/>
<path d="M125.504 77.8357H91.9467C91.7473 77.8357 91.5728 77.6612 91.5728 77.4617V75.0683C91.5728 74.8689 91.7473 74.6943 91.9467 74.6943H125.504C125.704 74.6943 125.878 74.8689 125.878 75.0683V77.4617C125.878 77.6612 125.704 77.8357 125.504 77.8357ZM92.3207 77.1127H125.13V75.4423H92.3207V77.1127Z" fill="black"/>
<path d="M168.635 39.1174H130.291V82.2486H168.635V39.1174Z" fill="#1CA55D"/>
<path d="M168.635 82.6225H130.291C130.092 82.6225 129.917 82.448 129.917 82.2485V39.1174C129.917 38.9179 130.092 38.7434 130.291 38.7434H168.635C168.835 38.7434 169.009 38.9179 169.009 39.1174V82.2485C169.009 82.448 168.835 82.6225 168.635 82.6225ZM130.665 81.8995H168.286V39.4913H130.665V81.8995Z" fill="black"/>
<path d="M162.702 58.5139C162.702 60.0347 161.48 61.2564 159.959 61.2564C158.438 61.2564 157.217 60.0347 157.217 58.5139C157.217 56.9931 158.438 55.7715 159.959 55.7715C161.48 55.7715 162.702 56.9931 162.702 58.5139Z" fill="#4AC682"/>
<path d="M159.959 61.6053C158.264 61.6053 156.868 60.2092 156.868 58.5138C156.868 56.8185 158.264 55.4224 159.959 55.4224C161.654 55.4224 163.051 56.8185 163.051 58.5138C163.051 60.2092 161.654 61.6053 159.959 61.6053ZM159.959 56.1454C158.663 56.1454 157.591 57.2174 157.591 58.5138C157.591 59.8103 158.663 60.8823 159.959 60.8823C161.256 60.8823 162.328 59.8103 162.328 58.5138C162.328 57.2174 161.256 56.1454 159.959 56.1454Z" fill="black"/>
<path d="M146.721 71.6526C146.721 72.3756 146.122 72.9739 145.399 72.9739H144.402C143.679 72.9739 143.081 72.3756 143.081 71.6526V63.4751H146.746V71.6526H146.721Z" fill="#4AC682"/>
<path d="M145.399 73.3478H144.402C143.48 73.3478 142.707 72.5999 142.707 71.6525V63.475C142.707 63.2756 142.881 63.1011 143.081 63.1011H146.746C146.945 63.1011 147.12 63.2756 147.12 63.475V71.6525C147.12 72.575 146.372 73.3478 145.424 73.3478H145.399ZM143.43 63.849V71.6525C143.43 72.1761 143.854 72.6248 144.402 72.6248H145.399C145.923 72.6248 146.372 72.201 146.372 71.6525V63.849H143.43Z" fill="black"/>
<path d="M136.25 61.5305C136.25 63.1261 137.471 64.4724 139.067 64.6469L141.709 64.8962C142.009 64.9212 142.283 64.6968 142.283 64.3727V53.0289C142.283 52.7298 142.009 52.4805 141.709 52.5054L139.067 52.7547C137.471 52.9043 136.25 54.2506 136.25 55.8711V61.5305Z" fill="#4AC682"/>
<path d="M141.759 65.2452C141.759 65.2452 141.709 65.2452 141.684 65.2452L139.042 64.9959C137.247 64.8213 135.875 63.3255 135.875 61.5304V55.871C135.875 54.076 137.222 52.5801 139.042 52.4056L141.684 52.1562C141.934 52.1562 142.183 52.2061 142.358 52.3806C142.532 52.5552 142.657 52.7795 142.657 53.0288V64.3726C142.657 64.6219 142.557 64.8463 142.358 65.0208C142.183 65.1704 141.984 65.2452 141.759 65.2452ZM141.759 52.8793L139.117 53.1286C137.695 53.2532 136.623 54.4499 136.623 55.871V61.5304C136.623 62.9515 137.695 64.1482 139.117 64.2729L141.759 64.5222C141.759 64.5222 141.859 64.5222 141.884 64.4723C141.884 64.4723 141.934 64.4224 141.934 64.3726V53.0288C141.934 53.0288 141.909 52.9291 141.884 52.9291C141.884 52.9291 141.834 52.8793 141.784 52.8793H141.759Z" fill="black"/>
<path d="M142.308 64.2479H146.571C148.017 64.2978 149.463 64.6468 150.76 65.295L156.12 68.0375V49.2393L150.66 51.9817C149.363 52.6299 147.917 52.979 146.471 53.0039H142.308V64.2479Z" fill="white"/>
<path d="M156.12 68.3865C156.12 68.3865 156.02 68.3865 155.97 68.3367L150.61 65.5942C149.363 64.971 147.967 64.6219 146.571 64.6219H142.308C142.108 64.597 141.959 64.4225 141.959 64.2479V53.0289C141.959 52.8294 142.108 52.6798 142.308 52.6798H146.471C147.867 52.63 149.264 52.3059 150.51 51.6826L155.97 48.9401C155.97 48.9401 156.219 48.8903 156.319 48.9401C156.419 48.99 156.494 49.1147 156.494 49.2393V68.0375C156.494 68.0375 156.419 68.2619 156.319 68.3367C156.269 68.3616 156.195 68.3865 156.145 68.3865H156.12ZM142.657 63.8989H146.571C148.067 63.9488 149.588 64.2978 150.909 64.9959L155.746 67.4641V49.8127L150.809 52.3059C149.463 52.979 147.967 53.353 146.446 53.353H142.632V63.8989H142.657Z" fill="black"/>
<path d="M159.959 66.7662C159.959 67.913 159.037 68.8604 157.89 68.8604H156.843C156.419 68.8604 156.095 68.5113 156.095 68.1124V49.1896C156.095 48.7658 156.444 48.4417 156.843 48.4417H157.89C159.037 48.4417 159.959 49.3641 159.959 50.5359V66.816V66.7662Z" fill="#B6F2D0"/>
<path d="M157.89 69.2093H156.843C156.244 69.2093 155.746 68.7107 155.746 68.1124V49.1895C155.746 48.5912 156.244 48.0925 156.843 48.0925H157.89C159.236 48.0925 160.333 49.1895 160.333 50.5358V66.8159C160.333 68.1622 159.236 69.2592 157.89 69.2592V69.2093ZM156.843 48.7657C156.618 48.7657 156.444 48.9402 156.444 49.1646V68.0874C156.444 68.3118 156.618 68.4863 156.843 68.4863H157.89C158.837 68.4863 159.61 67.7135 159.61 66.7411V50.461C159.61 49.5136 158.837 48.7407 157.89 48.7407H156.843V48.7657Z" fill="black"/>
<path d="M125.504 48.7158H101.82V70.2814H125.504V48.7158Z" fill="#1CA55D"/>
<path d="M125.504 70.6803H101.82C101.595 70.6803 101.396 70.5058 101.396 70.2565V48.6909C101.396 48.4665 101.57 48.2671 101.82 48.2671H125.504C125.729 48.2671 125.928 48.4416 125.928 48.6909V70.2565C125.928 70.4809 125.754 70.6803 125.504 70.6803ZM102.243 69.8576H125.105V49.1148H102.243V69.8576Z" fill="black"/>
<path d="M113.662 58.2397C107.853 58.2397 105.135 62.503 105.135 62.503C105.135 62.503 107.429 66.7662 113.662 66.7662C119.895 66.7662 122.189 62.503 122.189 62.503C122.189 62.503 119.471 58.2397 113.662 58.2397Z" fill="#B6F2D0"/>
<path d="M113.662 67.1152C107.279 67.1152 104.911 62.852 104.836 62.6774C104.786 62.5777 104.786 62.4281 104.836 62.3284C104.961 62.1539 107.728 57.8906 113.662 57.8906C119.596 57.8906 122.363 62.1289 122.488 62.3284C122.562 62.4281 122.562 62.5777 122.488 62.6774C122.388 62.852 120.044 67.1152 113.662 67.1152ZM105.559 62.5278C106.058 63.3256 108.376 66.4171 113.662 66.4171C118.947 66.4171 121.266 63.3007 121.765 62.5278C121.191 61.755 118.524 58.5887 113.662 58.5887C108.8 58.5887 106.133 61.755 105.559 62.5278Z" fill="black"/>
<path d="M116.554 62.5029C116.554 64.0985 115.258 65.3949 113.662 65.3949C112.066 65.3949 110.77 64.0985 110.77 62.5029C110.77 60.9073 112.066 59.6108 113.662 59.6108C115.258 59.6108 116.554 60.9073 116.554 62.5029Z" fill="white"/>
<path d="M113.662 65.719C111.867 65.719 110.421 64.2729 110.421 62.4779C110.421 60.6828 111.867 59.2368 113.662 59.2368C115.457 59.2368 116.903 60.6828 116.903 62.4779C116.903 64.2729 115.457 65.719 113.662 65.719ZM113.662 59.9349C112.266 59.9349 111.119 61.0817 111.119 62.4779C111.119 63.874 112.266 65.0209 113.662 65.0209C115.058 65.0209 116.205 63.874 116.205 62.4779C116.205 61.0817 115.058 59.9349 113.662 59.9349Z" fill="black"/>
<path d="M113.612 56.6191C113.363 56.6191 113.163 56.4197 113.163 56.1704V52.2312C113.163 51.9819 113.363 51.7825 113.612 51.7825C113.861 51.7825 114.061 51.9819 114.061 52.2312V56.1704C114.061 56.4197 113.861 56.6191 113.612 56.6191Z" fill="black"/>
<path d="M108.277 58.2894C108.277 58.2894 108.027 58.2396 107.953 58.1399L105.385 55.173C105.235 54.9985 105.235 54.7243 105.435 54.5497C105.609 54.4002 105.883 54.4002 106.058 54.5996L108.626 57.5664C108.775 57.741 108.775 58.0152 108.576 58.1897C108.501 58.2645 108.401 58.2894 108.302 58.2894H108.277Z" fill="black"/>
<path d="M118.922 58.2896C118.922 58.2896 118.723 58.2646 118.648 58.1899C118.474 58.0403 118.449 57.766 118.598 57.5666L121.166 54.5997C121.316 54.4252 121.59 54.4003 121.789 54.5499C121.964 54.6995 121.989 54.9737 121.839 55.1732L119.271 58.14C119.271 58.14 119.072 58.2896 118.947 58.2896H118.922Z" fill="black"/>
<path d="M98.8776 48.7158H75.1929V70.2814H98.8776V48.7158Z" fill="#1CA55D"/>
<path d="M98.8527 70.6803H75.168C74.9436 70.6803 74.7441 70.5058 74.7441 70.2565V48.6909C74.7441 48.4665 74.9187 48.2671 75.168 48.2671H98.8527C99.0771 48.2671 99.2765 48.4416 99.2765 48.6909V70.2565C99.2765 70.4809 99.102 70.6803 98.8527 70.6803ZM75.5918 69.8576H98.4538V49.1148H75.5918V69.8576Z" fill="black"/>
<path d="M91.2735 59.536C91.2735 57.1426 89.3787 55.198 87.0352 55.198C84.6917 55.198 82.7969 57.1426 82.7969 59.536C82.7969 61.007 83.5199 62.3283 84.6169 63.1012C84.7914 63.2259 84.916 63.4253 84.916 63.6248V65.0708C84.916 65.719 85.4147 65.6442 86.0379 65.6442H88.0075C88.6308 65.6442 89.1294 65.6941 89.1294 65.0708V63.6248C89.1294 63.4004 89.2541 63.2259 89.4286 63.1012C90.5256 62.3283 91.2486 61.007 91.2486 59.536H91.2735Z" fill="#B6F2D0"/>
<path d="M88.2817 65.8187C88.2817 65.8187 88.2069 65.8187 88.1571 65.8187H86.0628H85.9382C85.5143 65.8187 85.1653 65.8187 84.9409 65.5943C84.8163 65.4697 84.7415 65.2952 84.7415 65.0458V63.5998C84.7415 63.4502 84.6667 63.3256 84.5171 63.2259C83.3204 62.3782 82.6223 60.982 82.6223 59.5111C82.6223 57.018 84.5919 54.9985 87.0352 54.9985C89.4784 54.9985 91.448 57.018 91.448 59.5111C91.448 60.982 90.725 62.3782 89.5283 63.2259C89.4036 63.3256 89.3288 63.4502 89.3288 63.5998V65.0458C89.3288 65.2952 89.254 65.4697 89.1294 65.5943C88.9299 65.7938 88.6308 65.8187 88.2817 65.8187ZM87.0352 55.3725C84.7913 55.3725 82.9963 57.2424 82.9963 59.5111C82.9963 60.8823 83.6445 62.1538 84.7415 62.9267C84.9659 63.1012 85.1154 63.3505 85.1154 63.5998V65.0458C85.1154 65.1954 85.1404 65.2702 85.1902 65.345C85.3149 65.4697 85.5891 65.4447 85.9132 65.4447H88.0324H88.1571C88.4562 65.4447 88.7554 65.4447 88.8801 65.345C88.9299 65.2952 88.9549 65.1954 88.9549 65.0458V63.5998C88.9549 63.3505 89.0795 63.0763 89.3288 62.9267C90.4258 62.1538 91.074 60.8823 91.074 59.5111C91.074 57.2174 89.254 55.3725 87.0352 55.3725Z" fill="black"/>
<path d="M87.7583 64.4723C87.7583 64.4723 87.5837 64.3975 87.5837 64.2978V61.3559C87.5837 61.3559 87.6585 61.1814 87.7583 61.1814C87.858 61.1814 87.9328 61.2562 87.9328 61.3559V64.2978C87.9328 64.2978 87.858 64.4723 87.7583 64.4723Z" fill="black"/>
<path d="M86.2373 64.4724C86.2373 64.4724 86.0627 64.3976 86.0627 64.2979V61.1066C86.0627 61.1066 86.1375 60.9321 86.2373 60.9321C86.337 60.9321 86.4118 61.0069 86.4118 61.1066V64.2979C86.4118 64.2979 86.337 64.4724 86.2373 64.4724Z" fill="black"/>
<path d="M88.2069 66.6165C88.2069 67.3146 87.6584 67.8631 86.9853 67.8631C86.3122 67.8631 85.7637 67.2896 85.7637 66.6165C85.7637 65.9434 86.3122 65.9434 86.9853 65.9434C87.6584 65.9434 88.2069 65.9434 88.2069 66.6165Z" fill="white"/>
<path d="M86.9853 68.0625C86.2124 68.0625 85.5642 67.4143 85.5642 66.6165C85.5642 66.2176 85.7138 65.9683 86.0379 65.8436C86.2872 65.7439 86.6363 65.7439 86.9604 65.7439C87.3343 65.7439 87.6584 65.7439 87.9077 65.8436C88.2069 65.9683 88.3814 66.2176 88.3814 66.6165C88.3814 67.4143 87.7582 68.0625 86.9604 68.0625H86.9853ZM86.9853 66.1179C86.6363 66.1179 86.362 66.1179 86.1875 66.1927C86.0628 66.2425 85.9631 66.3173 85.9631 66.6165C85.9631 67.2148 86.4368 67.6885 87.0102 67.6885C87.5836 67.6885 88.0573 67.2148 88.0573 66.6165C88.0573 66.3173 87.9327 66.2425 87.833 66.1927C87.6584 66.1179 87.3343 66.0929 87.0601 66.1179H87.0352H86.9853Z" fill="black"/>
<path d="M84.916 64.0984V65.4447C84.916 65.8934 85.2651 66.2674 85.7139 66.2674H88.3316C88.7804 66.2674 89.1294 65.8934 89.1294 65.4447V64.0984H84.8911H84.916Z" fill="white"/>
<path d="M88.3565 66.4419H85.7387C85.1902 66.4419 84.7415 65.9931 84.7415 65.4446V64.0983C84.7415 64.0983 84.8162 63.9238 84.916 63.9238H89.1543C89.1543 63.9238 89.3288 63.9986 89.3288 64.0983V65.4446C89.3288 65.9931 88.88 66.4419 88.3316 66.4419H88.3565ZM85.1154 64.2729V65.4197C85.1154 65.7687 85.3897 66.043 85.7387 66.043H88.3565C88.7055 66.043 88.9798 65.7687 88.9798 65.4197V64.2729H85.1154Z" fill="black"/>
<path d="M88.2569 61.4309C87.7084 61.4309 87.3843 61.0818 86.8607 60.5333C86.3371 59.9849 85.8385 59.7355 85.4645 59.8851C85.2152 59.9849 85.0656 60.2342 85.0656 60.3838C85.0656 60.7328 85.3399 61.032 85.6889 61.032C85.8385 61.032 85.9632 60.9821 86.0629 60.9073C86.1377 60.8575 86.2624 60.8575 86.3122 60.9322C86.387 61.007 86.3621 61.1317 86.2873 61.1816C86.1128 61.3311 85.8884 61.381 85.664 61.381C85.1155 61.381 84.6667 60.9322 84.6667 60.3588C84.6667 60.0596 84.8911 59.6608 85.29 59.5112C85.5892 59.3865 86.2374 59.3366 87.0851 60.2342C87.6086 60.7827 87.858 61.007 88.207 61.007C88.556 61.007 88.8303 60.7079 88.8303 60.3588C88.8303 60.0098 88.556 59.7106 88.207 59.7106C88.0574 59.7106 87.9327 59.7605 87.833 59.8353C87.7582 59.9101 87.6336 59.8851 87.5837 59.8103C87.5339 59.7355 87.5338 59.6109 87.6086 59.561C87.7832 59.4114 88.0075 59.3616 88.2319 59.3616C88.7804 59.3616 89.2292 59.8103 89.2292 60.3838C89.2292 60.9572 88.7804 61.4059 88.2319 61.4059L88.2569 61.4309Z" fill="black"/>
<path d="M80.7027 59.6108H78.7082C78.7082 59.6108 78.5337 59.536 78.5337 59.4362C78.5337 59.3365 78.6085 59.2617 78.7082 59.2617H80.7027C80.7027 59.2617 80.8772 59.3365 80.8772 59.4362C80.8772 59.536 80.8024 59.6108 80.7027 59.6108Z" fill="black"/>
<path d="M95.3375 59.6108H93.343C93.343 59.6108 93.1685 59.536 93.1685 59.4362C93.1685 59.3365 93.2433 59.2617 93.343 59.2617H95.3375C95.3375 59.2617 95.512 59.3365 95.512 59.4362C95.512 59.536 95.4372 59.6108 95.3375 59.6108Z" fill="black"/>
<path d="M81.1515 65.4947C81.1515 65.4947 81.0517 65.4947 81.0268 65.4448C80.952 65.3701 80.952 65.2454 81.0268 65.1706L82.423 63.7745C82.423 63.7745 82.6224 63.6997 82.6972 63.7745C82.772 63.8492 82.772 63.9739 82.6972 64.0487L81.301 65.4448C81.301 65.4448 81.2263 65.4947 81.1764 65.4947H81.1515Z" fill="black"/>
<path d="M91.4979 55.1482C91.4979 55.1482 91.3982 55.1482 91.3732 55.0984C91.2984 55.0236 91.2984 54.8989 91.3732 54.8491L92.7694 53.4529C92.7694 53.4529 92.9688 53.3781 93.0436 53.4529C93.1184 53.5277 93.1184 53.6524 93.0436 53.7022L91.6475 55.0984C91.6475 55.0984 91.5727 55.1482 91.5228 55.1482H91.4979Z" fill="black"/>
<path d="M87.0354 53.3033C87.0354 53.3033 86.8608 53.2285 86.8608 53.1287V51.1342C86.8608 51.1342 86.9356 50.9597 87.0354 50.9597C87.1351 50.9597 87.2099 51.0345 87.2099 51.1342V53.1287C87.2099 53.1287 87.1351 53.3033 87.0354 53.3033Z" fill="black"/>
<path d="M92.8941 65.4947C92.8941 65.4947 92.7944 65.4947 92.7695 65.4449L91.3733 64.0487C91.3733 64.0487 91.2985 63.8493 91.3733 63.7994C91.4481 63.7495 91.5728 63.7246 91.6476 63.7994L93.0437 65.1956C93.0437 65.1956 93.1185 65.395 93.0437 65.4449C93.0188 65.4698 92.9689 65.4947 92.9191 65.4947H92.8941Z" fill="black"/>
<path d="M82.5477 55.1482C82.5477 55.1482 82.448 55.1482 82.423 55.0983L81.0269 53.7021C81.0269 53.7021 80.9521 53.5027 81.0269 53.4528C81.1017 53.378 81.2263 53.378 81.3011 53.4528L82.6973 54.849C82.6973 54.849 82.7721 55.0484 82.6973 55.0983C82.6724 55.1232 82.6225 55.1482 82.5726 55.1482H82.5477Z" fill="black"/>
<path d="M238.493 33.707H193.417V101.944H238.493V33.707Z" fill="#1CA55D"/>
<path d="M238.493 33.7071V101.944H193.417V33.7071H238.493ZM238.493 33.009H193.417C193.043 33.009 192.719 33.3082 192.719 33.7071V101.944C192.719 102.318 193.018 102.642 193.417 102.642H238.493C238.867 102.642 239.191 102.343 239.191 101.944V33.7071C239.191 33.3331 238.892 33.009 238.493 33.009Z" fill="black"/>
<path d="M236.797 35.3525H195.137V100.299H236.797V35.3525Z" fill="#ABEFC6"/>
<path d="M236.797 35.3526V100.299H195.137V35.3526H236.797ZM236.797 34.6545H195.137C194.763 34.6545 194.439 34.9537 194.439 35.3526V100.299C194.439 100.673 194.738 100.997 195.137 100.997H236.797C237.171 100.997 237.495 100.698 237.495 100.299V35.3526C237.495 34.9786 237.196 34.6545 236.797 34.6545Z" fill="black"/>
<path d="M236.747 31.6377H195.187V33.707H236.747V31.6377Z" fill="#1CA55D"/>
<path d="M236.748 31.6378V33.7071H195.187V31.6378H236.748ZM236.748 30.9397H195.187C194.813 30.9397 194.489 31.2389 194.489 31.6378V33.7071C194.489 34.081 194.788 34.4051 195.187 34.4051H236.748C237.122 34.4051 237.446 34.106 237.446 33.7071V31.6378C237.446 31.2638 237.146 30.9397 236.748 30.9397Z" fill="black"/>
<path d="M243.23 28.6211H188.705V31.6378H243.23V28.6211Z" fill="#1CA55D"/>
<path d="M243.23 28.6212V31.6379H188.705V28.6212H243.23ZM243.23 27.9231H188.705C188.331 27.9231 188.007 28.2223 188.007 28.6212V31.6379C188.007 32.0118 188.306 32.3359 188.705 32.3359H243.23C243.604 32.3359 243.928 32.0368 243.928 31.6379V28.6212C243.928 28.2472 243.629 27.9231 243.23 27.9231Z" fill="black"/>
<path d="M233.107 101.944H198.852V111.942H233.107V101.944Z" fill="#1CA55D"/>
<path d="M233.083 101.944V111.942H198.827V101.944H233.083ZM233.083 101.246H198.827C198.453 101.246 198.129 101.545 198.129 101.944V111.942C198.129 112.316 198.428 112.64 198.827 112.64H233.083C233.457 112.64 233.781 112.341 233.781 111.942V101.944C233.781 101.57 233.481 101.246 233.083 101.246Z" fill="black"/>
<path d="M247.518 126.327H184.417L192.544 111.966H239.39L247.518 126.327Z" fill="#19844A"/>
<path d="M239.39 111.966L247.518 126.327H184.442L192.569 111.966H239.415M239.415 111.268H192.569C192.32 111.268 192.096 111.393 191.971 111.617L183.843 125.978C183.719 126.202 183.719 126.451 183.843 126.651C183.968 126.85 184.192 127 184.442 127H247.518C247.767 127 247.991 126.875 248.116 126.651C248.241 126.451 248.241 126.177 248.116 125.978L239.989 111.617C239.864 111.393 239.639 111.268 239.39 111.268H239.415Z" fill="black"/>
<path d="M228.246 22.5627H226.725V28.5961H228.246V22.5627Z" fill="#1CA55D"/>
<path d="M228.246 22.5628V28.5962H226.725V22.5628H228.246ZM228.246 21.8647H226.725C226.351 21.8647 226.027 22.1639 226.027 22.5628V28.5962C226.027 28.9702 226.326 29.2943 226.725 29.2943H228.246C228.62 29.2943 228.944 28.9951 228.944 28.5962V22.5628C228.944 22.1889 228.645 21.8647 228.246 21.8647Z" fill="black"/>
<path d="M224.157 22.5628C224.456 20.9672 225.853 19.7954 227.498 19.7954C229.143 19.7954 230.54 20.9672 230.839 22.5628H224.182H224.157Z" fill="#1CA55D"/>
<path d="M227.473 19.7955C229.094 19.7955 230.515 20.9673 230.814 22.5629H224.157C224.456 20.9673 225.852 19.7955 227.498 19.7955M227.498 19.0974C225.528 19.0974 223.858 20.4936 223.484 22.4382C223.459 22.6377 223.484 22.8371 223.634 23.0116C223.758 23.1612 223.958 23.2609 224.157 23.2609H230.814C231.013 23.2609 231.213 23.1612 231.337 23.0116C231.462 22.862 231.512 22.6377 231.487 22.4382C231.138 20.5185 229.443 19.0974 227.473 19.0974H227.498Z" fill="black"/>
<path d="M203.689 28.6211H205.209V22.5877H203.689V28.6211Z" fill="#1CA55D"/>
<path d="M205.209 22.5628V28.5962H203.689V22.5628H205.209ZM205.209 21.8647H203.689C203.315 21.8647 202.99 22.1639 202.99 22.5628V28.5962C202.99 28.9702 203.29 29.2943 203.689 29.2943H205.209C205.583 29.2943 205.907 28.9951 205.907 28.5962V22.5628C205.907 22.1889 205.608 21.8647 205.209 21.8647Z" fill="black"/>
<path d="M207.777 22.5628C207.478 20.9672 206.082 19.7954 204.436 19.7954C202.791 19.7954 201.395 20.9672 201.096 22.5628H207.752H207.777Z" fill="#1CA55D"/>
<path d="M204.462 19.7955C206.082 19.7955 207.503 20.9673 207.802 22.5629H201.146C201.445 20.9673 202.841 19.7955 204.486 19.7955M204.486 19.0974C202.517 19.0974 200.847 20.4936 200.473 22.4382C200.448 22.6377 200.473 22.8371 200.622 23.0116C200.747 23.1612 200.946 23.2609 201.146 23.2609H207.802C208.002 23.2609 208.201 23.1612 208.326 23.0116C208.451 22.862 208.5 22.6377 208.475 22.4382C208.126 20.5185 206.431 19.0974 204.462 19.0974H204.486Z" fill="black"/>
<path d="M227.573 101.944H211.517V111.942H227.573V101.944Z" fill="#4AD887"/>
<path d="M227.573 101.944V111.942H211.517V101.944H227.573ZM227.573 101.246H211.517C211.143 101.246 210.819 101.545 210.819 101.944V111.942C210.819 112.316 211.118 112.64 211.517 112.64H227.573C227.947 112.64 228.271 112.341 228.271 111.942V101.944C228.271 101.57 227.972 101.246 227.573 101.246Z" fill="black"/>
<path d="M201.519 101.944H200.397V111.942H201.519V101.944Z" fill="#4AD887"/>
<path d="M201.519 101.944V111.942H200.398V101.944H201.519ZM201.519 101.246H200.398C200.024 101.246 199.699 101.545 199.699 101.944V111.942C199.699 112.316 199.999 112.64 200.398 112.64H201.519C201.893 112.64 202.218 112.341 202.218 111.942V101.944C202.218 101.57 201.918 101.246 201.519 101.246Z" fill="black"/>
<path d="M236.673 126.327H211.517L212.564 111.966H231.262L236.673 126.327Z" fill="#1CA55D"/>
<path d="M231.262 111.966L236.673 126.327H211.517L212.564 111.966H231.262ZM231.262 111.268H212.564C212.215 111.268 211.916 111.543 211.891 111.917L210.844 126.277C210.844 126.476 210.894 126.651 211.018 126.801C211.143 126.95 211.342 127.025 211.517 127.025H236.673C236.897 127.025 237.121 126.925 237.246 126.726C237.371 126.551 237.396 126.302 237.321 126.102L231.911 111.742C231.811 111.468 231.562 111.293 231.262 111.293V111.268Z" fill="black"/>
<path d="M234.354 38.7434H197.929V46.8461H234.354V38.7434Z" fill="#18AA4C"/>
<path d="M234.354 47.1951H197.929C197.73 47.1951 197.555 47.0206 197.555 46.8211V38.7185C197.555 38.519 197.73 38.3445 197.929 38.3445H234.354C234.553 38.3445 234.728 38.519 234.728 38.7185V46.8211C234.728 47.0206 234.553 47.1951 234.354 47.1951ZM198.303 46.4721H233.98V39.1174H198.303V46.4721Z" fill="black"/>
<path d="M234.354 87.2847H197.929V97.4068H234.354V87.2847Z" fill="#18AA4C"/>
<path d="M234.354 97.7807H197.929C197.73 97.7807 197.555 97.6062 197.555 97.4067V87.2846C197.555 87.0852 197.73 86.9106 197.929 86.9106H234.354C234.553 86.9106 234.728 87.0852 234.728 87.2846V97.4067C234.728 97.6062 234.553 97.7807 234.354 97.7807ZM198.303 97.0577H233.98V87.6586H198.303V97.0577Z" fill="black"/>
<path d="M234.354 50.3613H197.929V84.7665H234.354V50.3613Z" fill="#36D87C"/>
<path d="M234.354 85.1404H197.929C197.73 85.1404 197.555 84.9659 197.555 84.7664V50.3862C197.555 50.1867 197.73 50.0122 197.929 50.0122H234.354C234.553 50.0122 234.728 50.1867 234.728 50.3862V84.7664C234.728 84.9659 234.553 85.1404 234.354 85.1404ZM198.303 84.4174H233.98V50.7601H198.303V84.4174Z" fill="black"/>
<path d="M207.004 66.9404H221.09C221.838 66.9404 222.462 67.5637 222.462 68.3116V75.9656C222.462 76.7135 221.838 77.3368 221.09 77.3368H207.004C206.256 77.3368 205.633 76.7135 205.633 75.9656V68.3116C205.633 67.5637 206.256 66.9404 207.004 66.9404Z" fill="#B6F2D0"/>
<path d="M221.091 77.6361H207.004C206.082 77.6361 205.334 76.8881 205.334 75.9657V68.3118C205.334 67.3893 206.082 66.6414 207.004 66.6414H221.091C222.013 66.6414 222.761 67.3893 222.761 68.3118V75.9657C222.761 76.8881 222.013 77.6361 221.091 77.6361ZM207.004 67.2397C206.431 67.2397 205.932 67.7134 205.932 68.2868V75.9407C205.932 76.5141 206.406 77.0128 207.004 77.0128H221.091C221.664 77.0128 222.138 76.5391 222.138 75.9407V68.2868C222.138 67.7134 221.664 67.2397 221.091 67.2397H207.004Z" fill="black"/>
<path d="M213.91 62.403C213.91 64.946 211.866 66.9904 209.323 66.9904C206.78 66.9904 204.736 64.946 204.736 62.403C204.736 59.86 206.78 57.8157 209.323 57.8157C211.866 57.8157 213.91 59.86 213.91 62.403Z" fill="#B6F2D0"/>
<path d="M209.323 67.3146C206.63 67.3146 204.437 65.1206 204.437 62.428C204.437 59.7355 206.63 57.5415 209.323 57.5415C212.016 57.5415 214.21 59.7355 214.21 62.428C214.21 65.1206 212.016 67.3146 209.323 67.3146ZM209.323 58.1399C206.955 58.1399 205.035 60.0596 205.035 62.428C205.035 64.7965 206.955 66.7162 209.323 66.7162C211.692 66.7162 213.611 64.7965 213.611 62.428C213.611 60.0596 211.692 58.1399 209.323 58.1399Z" fill="black"/>
<path d="M211.218 62.4031C211.218 63.4502 210.37 64.2729 209.348 64.2729C208.326 64.2729 207.478 63.4252 207.478 62.4031C207.478 61.3809 208.326 60.5332 209.348 60.5332C210.37 60.5332 211.218 61.3809 211.218 62.4031Z" fill="white"/>
<path d="M209.323 64.5721C208.126 64.5721 207.154 63.5998 207.154 62.4281C207.154 61.2563 208.126 60.259 209.323 60.259C210.52 60.259 211.467 61.2314 211.467 62.4281C211.467 63.6248 210.495 64.5721 209.323 64.5721ZM209.323 60.8075C208.426 60.8075 207.727 61.5305 207.727 62.4031C207.727 63.2757 208.45 63.9987 209.323 63.9987C210.196 63.9987 210.919 63.2757 210.919 62.4031C210.919 61.5305 210.196 60.8075 209.323 60.8075Z" fill="black"/>
<path d="M223.534 62.403C223.534 64.946 221.489 66.9904 218.946 66.9904C216.403 66.9904 214.359 64.946 214.359 62.403C214.359 59.86 216.403 57.8157 218.946 57.8157C221.489 57.8157 223.534 59.86 223.534 62.403Z" fill="#B6F2D0"/>
<path d="M218.947 67.3146C216.254 67.3146 214.06 65.1206 214.06 62.428C214.06 59.7355 216.254 57.5415 218.947 57.5415C221.639 57.5415 223.833 59.7355 223.833 62.428C223.833 65.1206 221.639 67.3146 218.947 67.3146ZM218.947 58.1399C216.578 58.1399 214.658 60.0596 214.658 62.428C214.658 64.7965 216.578 66.7162 218.947 66.7162C221.315 66.7162 223.235 64.7965 223.235 62.428C223.235 60.0596 221.315 58.1399 218.947 58.1399Z" fill="black"/>
<path d="M220.816 62.4031C220.816 63.4502 219.969 64.2729 218.947 64.2729C217.924 64.2729 217.077 63.4252 217.077 62.4031C217.077 61.3809 217.924 60.5332 218.947 60.5332C219.969 60.5332 220.816 61.3809 220.816 62.4031Z" fill="white"/>
<path d="M218.947 64.5721C217.75 64.5721 216.778 63.5998 216.778 62.4281C216.778 61.2563 217.75 60.259 218.947 60.259C220.143 60.259 221.091 61.2314 221.091 62.4281C221.091 63.6248 220.118 64.5721 218.947 64.5721ZM218.947 60.8075C218.049 60.8075 217.351 61.5305 217.351 62.4031C217.351 63.2757 218.074 63.9987 218.947 63.9987C219.819 63.9987 220.542 63.2757 220.542 62.4031C220.542 61.5305 219.819 60.8075 218.947 60.8075Z" fill="black"/>
<path d="M222.312 73.7717L226.451 76.8383C226.974 77.0876 227.573 76.6887 227.573 76.1153V67.863C227.573 67.2896 226.974 66.9156 226.451 67.14L222.312 70.2065V73.7717Z" fill="#B6F2D0"/>
<path d="M226.775 77.2122C226.625 77.2122 226.476 77.1873 226.326 77.1125L222.138 74.021C222.138 74.021 222.013 73.8714 222.013 73.7717V70.2065C222.013 70.2065 222.063 70.0071 222.138 69.9572L226.276 66.8906C226.675 66.6912 227.074 66.7411 227.373 66.9405C227.698 67.14 227.872 67.489 227.872 67.863V76.1152C227.872 76.4892 227.673 76.8382 227.373 77.0377C227.199 77.1623 226.975 77.2122 226.775 77.2122ZM222.636 73.6221L226.65 76.5889C226.65 76.5889 226.925 76.5889 227.049 76.5141C227.199 76.4144 227.274 76.2648 227.274 76.1152V67.863C227.274 67.6884 227.199 67.5389 227.049 67.4641C226.9 67.3643 226.725 67.3643 226.576 67.4391L222.636 70.381V73.647V73.6221Z" fill="black"/>
<path d="M118.099 23.9589C118.099 23.0115 117.327 22.2386 116.379 22.2386C116.279 22.2386 116.18 22.2386 116.08 22.2636C116.18 22.0392 116.23 21.8148 116.23 21.5655C116.23 20.6181 115.457 19.8452 114.509 19.8452C113.786 19.8452 113.138 20.294 112.889 20.9671C112.639 20.3189 112.016 19.8452 111.268 19.8452C110.321 19.8452 109.548 20.6181 109.548 21.5655C109.548 21.8148 109.598 22.0392 109.698 22.2386C109.698 22.2386 109.673 22.2386 109.648 22.2386C108.7 22.2386 107.927 23.0115 107.927 23.9589C107.927 24.9063 108.7 25.6791 109.648 25.6791H116.454C117.352 25.6293 118.075 24.8813 118.075 23.9589H118.099Z" fill="#EBFFF4"/>
<path d="M116.479 25.9035H109.673C108.601 25.9035 107.728 25.0309 107.728 23.9589C107.728 22.9866 108.451 22.1638 109.398 22.0392C109.373 21.8896 109.349 21.74 109.349 21.5655C109.349 20.4934 110.221 19.6208 111.293 19.6208C111.941 19.6208 112.54 19.945 112.914 20.4685C113.263 19.945 113.886 19.6208 114.534 19.6208C115.606 19.6208 116.479 20.4934 116.479 21.5655C116.479 21.7151 116.479 21.8647 116.429 22.0143C117.501 22.0143 118.349 22.8868 118.349 23.9589C118.349 25.0309 117.576 25.8287 116.554 25.9035C116.554 25.9035 116.529 25.9035 116.504 25.9035H116.479ZM109.698 22.463C108.85 22.463 108.177 23.1362 108.177 23.9589C108.177 24.7816 108.85 25.4548 109.673 25.4548H116.454C116.454 25.4548 116.454 25.4548 116.479 25.4548C117.277 25.4049 117.875 24.7567 117.875 23.9589C117.875 23.1611 117.202 22.463 116.379 22.463C116.304 22.463 116.205 22.463 116.13 22.463C116.055 22.463 115.955 22.463 115.905 22.3882C115.856 22.3134 115.831 22.2386 115.881 22.1638C115.955 21.9644 116.005 21.7649 116.005 21.5655C116.005 20.7428 115.332 20.0696 114.509 20.0696C113.886 20.0696 113.338 20.4685 113.113 21.0419C113.038 21.2165 112.764 21.2165 112.689 21.0419C112.465 20.4685 111.916 20.0696 111.293 20.0696C110.47 20.0696 109.797 20.7428 109.797 21.5655C109.797 21.7649 109.847 21.9644 109.922 22.1389C109.947 22.2137 109.922 22.2885 109.922 22.3633C109.872 22.4381 109.797 22.463 109.723 22.463H109.698Z" fill="black"/>
<path d="M156.568 12.9892C156.568 11.5931 155.447 10.4462 154.025 10.4462C153.876 10.4462 153.726 10.4462 153.577 10.4961C153.726 10.172 153.801 9.82294 153.801 9.4739C153.801 8.07775 152.679 6.93091 151.258 6.93091C150.186 6.93091 149.264 7.60405 148.89 8.57637C148.516 7.62898 147.593 6.93091 146.521 6.93091C145.125 6.93091 143.978 8.05282 143.978 9.4739C143.978 9.82294 144.053 10.172 144.178 10.4712C144.178 10.4712 144.153 10.4712 144.128 10.4712C142.732 10.4712 141.585 11.618 141.585 13.0141C141.585 14.4103 142.732 15.5571 144.128 15.5571H154.15C155.471 15.4823 156.543 14.3604 156.543 13.0141L156.568 12.9892Z" fill="#EBFFF4"/>
<path d="M154.175 15.7566H144.153C142.632 15.7566 141.385 14.51 141.385 12.9892C141.385 11.5432 142.482 10.3714 143.878 10.2468C143.804 9.99747 143.779 9.74816 143.779 9.47392C143.779 7.95311 145.025 6.70654 146.546 6.70654C147.518 6.70654 148.416 7.2301 148.915 8.05283C149.413 7.2301 150.311 6.70654 151.283 6.70654C152.804 6.70654 154.05 7.95311 154.05 9.47392C154.05 9.74816 154.025 9.99747 153.951 10.2468C155.496 10.172 156.818 11.4435 156.818 13.0142C156.818 14.4602 155.696 15.6569 154.275 15.7566H154.225H154.175ZM144.202 10.6955C142.881 10.6955 141.834 11.7177 141.834 12.9892C141.834 14.2607 142.856 15.2829 144.128 15.2829H154.1C154.1 15.2829 154.1 15.2829 154.125 15.2829C155.347 15.2081 156.294 14.2109 156.294 12.9892C156.294 11.7676 155.247 10.6955 153.976 10.6955C153.851 10.6955 153.701 10.6956 153.577 10.7205C153.502 10.7205 153.402 10.7205 153.352 10.6457C153.302 10.5709 153.277 10.4961 153.327 10.4213C153.452 10.1221 153.527 9.82295 153.527 9.47392C153.527 8.20242 152.505 7.18024 151.233 7.18024C150.286 7.18024 149.413 7.77859 149.089 8.67612C149.014 8.85063 148.74 8.85063 148.665 8.67612C148.316 7.77859 147.468 7.18024 146.521 7.18024C145.25 7.18024 144.227 8.20242 144.227 9.47392C144.227 9.79802 144.277 10.0972 144.402 10.3714C144.427 10.4462 144.402 10.521 144.402 10.5958C144.352 10.6706 144.277 10.6955 144.202 10.6955Z" fill="black"/>
<path d="M181.599 23.8843C181.599 23.2111 181.051 22.6626 180.378 22.6626C180.303 22.6626 180.228 22.6626 180.178 22.6626C180.253 22.5131 180.278 22.3385 180.278 22.164C180.278 21.4909 179.73 20.9424 179.056 20.9424C178.533 20.9424 178.084 21.2665 177.91 21.7402C177.735 21.2914 177.286 20.9424 176.763 20.9424C176.09 20.9424 175.541 21.4909 175.541 22.164C175.541 22.3385 175.566 22.4881 175.641 22.6377C175.641 22.6377 175.641 22.6377 175.616 22.6377C174.943 22.6377 174.394 23.1862 174.394 23.8593C174.394 24.5325 174.943 25.081 175.616 25.081H180.453C181.101 25.0311 181.599 24.5076 181.599 23.8593V23.8843Z" fill="#EBFFF4"/>
<path d="M180.453 25.3303H175.616C174.818 25.3303 174.17 24.6821 174.17 23.8843C174.17 23.1862 174.669 22.5878 175.342 22.4632C175.342 22.3635 175.317 22.2887 175.317 22.1889C175.317 21.3911 175.965 20.7429 176.763 20.7429C177.212 20.7429 177.635 20.9673 177.91 21.2914C178.184 20.9424 178.608 20.7429 179.056 20.7429C179.854 20.7429 180.502 21.3911 180.502 22.1889C180.502 22.2637 180.502 22.3635 180.502 22.4382C181.25 22.4881 181.849 23.1114 181.849 23.8843C181.849 24.6571 181.275 25.2804 180.527 25.3303C180.527 25.3303 180.502 25.3303 180.478 25.3303H180.453ZM175.641 22.887C175.067 22.887 174.619 23.3358 174.619 23.8843C174.619 24.4328 175.067 24.8815 175.616 24.8815H180.428C180.951 24.8566 181.375 24.4078 181.375 23.8843C181.375 23.2859 180.802 22.7873 180.203 22.9119C180.128 22.9119 180.029 22.9119 179.979 22.8371C179.929 22.7624 179.904 22.6876 179.954 22.6128C180.004 22.4881 180.029 22.3385 180.029 22.2139C180.029 21.6654 179.58 21.2166 179.032 21.2166C178.633 21.2166 178.259 21.4659 178.109 21.8648C178.034 22.0393 177.76 22.0393 177.685 21.8648C177.536 21.4909 177.162 21.2166 176.763 21.2166C176.214 21.2166 175.766 21.6654 175.766 22.2139C175.766 22.3385 175.79 22.4881 175.84 22.6128C175.865 22.6876 175.84 22.7624 175.84 22.8371C175.79 22.9119 175.716 22.9369 175.641 22.9369V22.887Z" fill="black"/>
<path d="M88.4812 11.942C88.4812 15.956 85.2401 19.197 81.2262 19.197C77.2123 19.197 73.9712 15.956 73.9712 11.942C73.9712 7.92808 77.2123 4.68701 81.2262 4.68701C85.2401 4.68701 88.4812 7.92808 88.4812 11.942Z" fill="#B6F2D0"/>
<path d="M81.2013 19.3965C77.0876 19.3965 73.7219 16.0557 73.7219 11.9171C73.7219 7.77854 77.0627 4.43774 81.2013 4.43774C85.3399 4.43774 88.6807 7.77854 88.6807 11.9171C88.6807 16.0557 85.3399 19.3965 81.2013 19.3965ZM81.2013 4.88651C77.312 4.88651 74.1458 8.05278 74.1458 11.9421C74.1458 15.8313 77.312 18.9976 81.2013 18.9976C85.0906 18.9976 88.2569 15.8313 88.2569 11.9421C88.2569 8.05278 85.0906 4.88651 81.2013 4.88651Z" fill="black"/>
<path d="M81.0019 23.8593C81.0019 23.8593 80.8025 23.7596 80.8025 23.6598V21.3911C80.8025 21.3911 80.9022 21.1917 81.0019 21.1917C81.1017 21.1917 81.2014 21.2914 81.2014 21.3911V23.6598C81.2014 23.6598 81.1017 23.8593 81.0019 23.8593Z" fill="black"/>
<path d="M81.0019 2.69258C81.0019 2.69258 80.8025 2.59285 80.8025 2.49313V0.19945C80.8025 0.19945 80.9022 0 81.0019 0C81.1017 0 81.2014 0.0997252 81.2014 0.19945V2.4682C81.2014 2.4682 81.1017 2.66765 81.0019 2.66765V2.69258Z" fill="black"/>
<path d="M87.6835 5.46006C87.6835 5.46006 87.5837 5.46006 87.5339 5.4102C87.4591 5.3354 87.4591 5.18582 87.5339 5.11102L89.1295 3.51542C89.1295 3.51542 89.3539 3.44063 89.4287 3.51542C89.5034 3.59021 89.5034 3.7398 89.4287 3.81459L87.8331 5.4102C87.8331 5.4102 87.7333 5.46006 87.6835 5.46006Z" fill="black"/>
<path d="M72.7247 20.4188C72.7247 20.4188 72.625 20.4188 72.5751 20.3689C72.5003 20.2941 72.5003 20.1446 72.5751 20.0698L74.1707 18.4742C74.1707 18.4742 74.3951 18.3994 74.4699 18.4742C74.5447 18.549 74.5447 18.6985 74.4699 18.7733L72.8743 20.3689C72.8743 20.3689 72.7746 20.4188 72.7247 20.4188Z" fill="black"/>
<path d="M71.5529 12.1416H69.2842C69.2842 12.1416 69.0847 12.0419 69.0847 11.9421C69.0847 11.8424 69.1844 11.7427 69.2842 11.7427H71.5529C71.5529 11.7427 71.7524 11.8424 71.7524 11.9421C71.7524 12.0419 71.6526 12.1416 71.5529 12.1416Z" fill="black"/>
<path d="M92.7197 12.1416H90.4509C90.4509 12.1416 90.2515 12.0419 90.2515 11.9421C90.2515 11.8424 90.3512 11.7427 90.4509 11.7427H92.7197C92.7197 11.7427 92.9191 11.8424 92.9191 11.9421C92.9191 12.0419 92.8194 12.1416 92.7197 12.1416Z" fill="black"/>
<path d="M89.2789 20.4187C89.2789 20.4187 89.1792 20.4187 89.1293 20.3688L87.5337 18.7732C87.5337 18.7732 87.4589 18.5489 87.5337 18.4741C87.6085 18.3993 87.7581 18.3993 87.8329 18.4741L89.4285 20.0697C89.4285 20.0697 89.5033 20.294 89.4285 20.3688C89.3786 20.4187 89.3288 20.4187 89.2789 20.4187Z" fill="black"/>
<path d="M74.3202 5.45996C74.3202 5.45996 74.2205 5.45996 74.1706 5.4101L72.575 3.8145C72.575 3.8145 72.5002 3.59012 72.575 3.51532C72.6498 3.44053 72.7994 3.44053 72.8742 3.51532L74.4698 5.11093C74.4698 5.11093 74.5446 5.33531 74.4698 5.4101C74.4199 5.45996 74.37 5.45996 74.3202 5.45996Z" fill="black"/>
</g>
<defs>
<clipPath id="clip0_707_353">
<rect width="248.191" height="127" fill="white"/>
</clipPath>
</defs>
</svg>
