<svg width="221" height="169" viewBox="0 0 221 169" fill="none" xmlns="http://www.w3.org/2000/svg">
<g clip-path="url(#clip0_631_841)">
<path d="M100.907 21.945L100.32 22.5328V40.6336L100.506 41.1561V56.4858H100.898L101.588 55.7954V36.8735H115.276V56.7751H115.873L116.834 55.814H164.214L165.333 56.9337V46.8849C165.333 45.0282 166.835 43.526 168.692 43.526H168.795C174.691 43.526 179.469 48.3031 179.469 54.1999V55.2542V56.4019L179.935 56.8684V92.6408V94.8054V130.578L179.469 131.044V132.192V133.246C179.469 139.143 174.691 143.92 168.795 143.92H168.692C166.835 143.92 165.333 142.418 165.333 140.561V130.513L164.214 131.632H116.834L115.873 130.671H115.276V150.573H101.588V131.651L100.898 130.96H100.506V146.29L100.32 146.813V164.913L100.907 165.501V168.758H79.9608H72.3006H51.354V165.501L51.9418 164.913V146.813L51.7552 146.29V130.96H51.3634L50.6729 131.651V150.573H36.9854V94.8054V92.6408V36.8735H50.6729V55.7954L51.3634 56.4858H51.7552V41.1561L51.9418 40.6336V22.5328L51.354 21.945V18.6887H72.3006H79.9608H100.907V21.945Z" fill="#FFF3D9"/>
<path d="M100.189 18.4368H52.2498C51.7448 18.4368 51.3354 18.8461 51.3354 19.3511V21.5904C51.3354 22.0954 51.7448 22.5048 52.2498 22.5048H100.189C100.694 22.5048 101.103 22.0954 101.103 21.5904V19.3511C101.103 18.8461 100.694 18.4368 100.189 18.4368Z" fill="#FFBB00"/>
<path d="M100.086 165.072H52.3523C51.8782 165.072 51.4939 165.456 51.4939 165.93V167.824C51.4939 168.299 51.8782 168.683 52.3523 168.683H100.086C100.56 168.683 100.945 168.299 100.945 167.824V165.93C100.945 165.456 100.56 165.072 100.086 165.072Z" fill="#FFBB00"/>
<path d="M114.24 36.8547H102.717C102.135 36.8547 101.663 37.3268 101.663 37.9091V55.5247C101.663 56.107 102.135 56.579 102.717 56.579H114.24C114.823 56.579 115.295 56.107 115.295 55.5247V37.9091C115.295 37.3268 114.823 36.8547 114.24 36.8547Z" fill="#FFBB00"/>
<path d="M179.366 56.4204H165.492V47.3793C165.492 44.6735 166.761 43.3486 169.504 43.3486L170.306 43.5073C175.279 44.4589 179.366 48.387 179.366 53.2481V56.4204Z" fill="#FFBB00"/>
<path d="M179.366 130.988H165.492V139.973C165.492 142.661 166.761 143.976 169.504 143.976L170.306 143.817C175.279 142.875 179.366 138.966 179.366 134.133V130.988Z" fill="#FFBB00"/>
<path d="M50.197 36.8547H37.3491C37.1327 36.8547 36.9573 37.0302 36.9573 37.2466V56.0285C36.9573 56.245 37.1327 56.4204 37.3491 56.4204H50.197C50.4134 56.4204 50.5889 56.245 50.5889 56.0285V37.2466C50.5889 37.0302 50.4134 36.8547 50.197 36.8547Z" fill="#FFBB00"/>
<path d="M36.9573 150.563H50.5889V130.998H36.9573V150.563Z" fill="#FFBB00"/>
<path d="M101.663 150.563H115.295V130.998H101.663V150.563Z" fill="#FFBB00"/>
<path d="M100.907 169H51.354C51.2234 169 51.1208 168.897 51.1208 168.767V165.51C51.1208 165.445 51.1488 165.389 51.1861 165.343L51.7086 164.82V146.859L51.5406 146.383C51.5406 146.383 51.5313 146.327 51.5313 146.309V131.212H51.4753L50.9248 131.763V150.582C50.9248 150.713 50.8222 150.815 50.6916 150.815H37.004C36.8734 150.815 36.7708 150.713 36.7708 150.582V36.8734C36.7708 36.7428 36.8734 36.6402 37.004 36.6402H50.6916C50.8222 36.6402 50.9248 36.7428 50.9248 36.8734V55.6927L51.4753 56.2431H51.5313V41.1467C51.5313 41.1467 51.5313 41.0907 51.5406 41.0721L51.7086 40.5869V22.626L51.1861 22.1035C51.1861 22.1035 51.1208 22.0009 51.1208 21.9356V18.6793C51.1208 18.5487 51.2234 18.446 51.354 18.446H100.907C101.038 18.446 101.141 18.5487 101.141 18.6793V21.9356C101.141 22.0009 101.113 22.0569 101.075 22.1035L100.553 22.626V40.5869L100.721 41.0721C100.721 41.0721 100.73 41.128 100.73 41.1467V56.2431H100.786L101.337 55.6927V36.8734C101.337 36.7428 101.439 36.6402 101.57 36.6402H115.257C115.388 36.6402 115.491 36.7428 115.491 36.8734V56.5417H115.761L116.648 55.6553C116.648 55.6553 116.75 55.59 116.816 55.59H164.195C164.26 55.59 164.316 55.618 164.363 55.6553L165.081 56.3738V46.8848C165.081 44.9068 166.695 43.2927 168.673 43.2927H168.776C174.794 43.2927 179.683 48.1818 179.683 54.1998V56.3085L180.084 56.7097C180.084 56.7097 180.15 56.8123 180.15 56.8776V130.587C180.15 130.652 180.122 130.708 180.084 130.755L179.683 131.156V133.265C179.683 139.283 174.794 144.172 168.776 144.172H168.673C166.695 144.172 165.081 142.558 165.081 140.58V131.091L164.363 131.809C164.363 131.809 164.26 131.875 164.195 131.875H116.816C116.75 131.875 116.694 131.847 116.648 131.809L115.761 130.923H115.491V150.591C115.491 150.722 115.388 150.825 115.257 150.825H101.57C101.439 150.825 101.337 150.722 101.337 150.591V131.772L100.786 131.222H100.73V146.318C100.73 146.318 100.73 146.374 100.721 146.393L100.553 146.878V164.839L101.075 165.361C101.075 165.361 101.141 165.464 101.141 165.529V168.785C101.141 168.916 101.038 169.019 100.907 169.019V169ZM51.5873 168.533H100.674V165.604L100.152 165.081C100.152 165.081 100.086 164.979 100.086 164.913V146.813C100.086 146.813 100.086 146.757 100.096 146.738L100.264 146.253V130.96C100.264 130.83 100.366 130.727 100.497 130.727H100.889C100.954 130.727 101.01 130.755 101.057 130.792L101.747 131.483C101.747 131.483 101.812 131.585 101.812 131.651V150.339H115.033V130.671C115.033 130.54 115.136 130.438 115.267 130.438H115.864C115.929 130.438 115.985 130.466 116.032 130.503L116.918 131.39H164.102L165.147 130.345C165.212 130.279 165.314 130.261 165.398 130.298C165.482 130.335 165.538 130.419 165.538 130.512V140.561C165.538 142.287 166.938 143.687 168.664 143.687H168.767C174.524 143.687 179.207 139.003 179.207 133.246V131.044C179.207 130.979 179.235 130.923 179.273 130.876L179.674 130.475V56.9709L179.273 56.5697C179.273 56.5697 179.207 56.4671 179.207 56.4018V54.1998C179.207 48.443 174.524 43.7592 168.767 43.7592H168.664C166.938 43.7592 165.538 45.1587 165.538 46.8848V56.9336C165.538 57.0269 165.482 57.1109 165.398 57.1482C165.305 57.1855 165.212 57.1669 165.147 57.1015L164.102 56.0565H116.918L116.032 56.9429C116.032 56.9429 115.929 57.0082 115.864 57.0082H115.267C115.136 57.0082 115.033 56.9056 115.033 56.775V37.1067H101.812V55.7953C101.812 55.8606 101.784 55.9166 101.747 55.9632L101.057 56.6537C101.057 56.6537 100.954 56.719 100.889 56.719H100.497C100.366 56.719 100.264 56.6164 100.264 56.4857V41.1934L100.096 40.7082C100.096 40.7082 100.086 40.6522 100.086 40.6335V22.5327C100.086 22.4674 100.114 22.4114 100.152 22.3648L100.674 21.8423V18.9126H51.5873V21.8423L52.1098 22.3648C52.1098 22.3648 52.1751 22.4674 52.1751 22.5327V40.6335C52.1751 40.6335 52.1751 40.6895 52.1658 40.7082L51.9978 41.1934V56.4857C51.9978 56.6164 51.8952 56.719 51.7646 56.719H51.3727C51.3074 56.719 51.2514 56.691 51.2048 56.6537L50.5143 55.9632C50.5143 55.9632 50.449 55.8606 50.449 55.7953V37.1067H37.2279V150.349H50.449V131.66C50.449 131.595 50.477 131.539 50.5143 131.492L51.2048 130.802C51.2048 130.802 51.3074 130.736 51.3727 130.736H51.7646C51.8952 130.736 51.9978 130.839 51.9978 130.97V146.262L52.1658 146.738C52.1658 146.738 52.1751 146.794 52.1751 146.813V164.913C52.1751 164.979 52.1471 165.035 52.1098 165.081L51.5873 165.604V168.533Z" fill="black"/>
<path d="M100.506 131.1C100.431 131.1 100.375 131.044 100.375 130.97V129.915C100.375 129.841 100.431 129.785 100.506 129.785C100.581 129.785 100.637 129.841 100.637 129.915V130.97C100.637 131.044 100.581 131.1 100.506 131.1Z" fill="black"/>
<path d="M100.506 127.974C100.431 127.974 100.375 127.918 100.375 127.844V125.772C100.375 125.698 100.431 125.642 100.506 125.642C100.581 125.642 100.637 125.698 100.637 125.772V127.844C100.637 127.918 100.581 127.974 100.506 127.974ZM100.506 123.841C100.431 123.841 100.375 123.785 100.375 123.71V121.639C100.375 121.564 100.431 121.508 100.506 121.508C100.581 121.508 100.637 121.564 100.637 121.639V123.71C100.637 123.785 100.581 123.841 100.506 123.841ZM100.506 119.708C100.431 119.708 100.375 119.652 100.375 119.577V117.506C100.375 117.431 100.431 117.375 100.506 117.375C100.581 117.375 100.637 117.431 100.637 117.506V119.577C100.637 119.652 100.581 119.708 100.506 119.708ZM100.506 115.574C100.431 115.574 100.375 115.518 100.375 115.444V113.372C100.375 113.298 100.431 113.242 100.506 113.242C100.581 113.242 100.637 113.298 100.637 113.372V115.444C100.637 115.518 100.581 115.574 100.506 115.574ZM100.506 111.441C100.431 111.441 100.375 111.385 100.375 111.31V109.239C100.375 109.164 100.431 109.109 100.506 109.109C100.581 109.109 100.637 109.164 100.637 109.239V111.31C100.637 111.385 100.581 111.441 100.506 111.441ZM100.506 107.308C100.431 107.308 100.375 107.252 100.375 107.177V105.106C100.375 105.031 100.431 104.975 100.506 104.975C100.581 104.975 100.637 105.031 100.637 105.106V107.177C100.637 107.252 100.581 107.308 100.506 107.308ZM100.506 103.174C100.431 103.174 100.375 103.118 100.375 103.044V100.972C100.375 100.898 100.431 100.842 100.506 100.842C100.581 100.842 100.637 100.898 100.637 100.972V103.044C100.637 103.118 100.581 103.174 100.506 103.174ZM100.506 99.0411C100.431 99.0411 100.375 98.9851 100.375 98.9105V96.8391C100.375 96.7645 100.431 96.7085 100.506 96.7085C100.581 96.7085 100.637 96.7645 100.637 96.8391V98.9105C100.637 98.9851 100.581 99.0411 100.506 99.0411ZM100.506 94.9078C100.431 94.9078 100.375 94.8518 100.375 94.7771V92.7058C100.375 92.6312 100.431 92.5752 100.506 92.5752C100.581 92.5752 100.637 92.6312 100.637 92.7058V94.7771C100.637 94.8518 100.581 94.9078 100.506 94.9078ZM100.506 90.7744C100.431 90.7744 100.375 90.7185 100.375 90.6438V88.5725C100.375 88.4978 100.431 88.4419 100.506 88.4419C100.581 88.4419 100.637 88.4978 100.637 88.5725V90.6438C100.637 90.7185 100.581 90.7744 100.506 90.7744ZM100.506 86.6411C100.431 86.6411 100.375 86.5851 100.375 86.5105V84.4391C100.375 84.3645 100.431 84.3085 100.506 84.3085C100.581 84.3085 100.637 84.3645 100.637 84.4391V86.5105C100.637 86.5851 100.581 86.6411 100.506 86.6411ZM100.506 82.5078C100.431 82.5078 100.375 82.4518 100.375 82.3771V80.3058C100.375 80.2312 100.431 80.1752 100.506 80.1752C100.581 80.1752 100.637 80.2312 100.637 80.3058V82.3771C100.637 82.4518 100.581 82.5078 100.506 82.5078ZM100.506 78.3744C100.431 78.3744 100.375 78.3185 100.375 78.2438V76.1725C100.375 76.0978 100.431 76.0419 100.506 76.0419C100.581 76.0419 100.637 76.0978 100.637 76.1725V78.2438C100.637 78.3185 100.581 78.3744 100.506 78.3744ZM100.506 74.2411C100.431 74.2411 100.375 74.1851 100.375 74.1105V72.0392C100.375 71.9645 100.431 71.9085 100.506 71.9085C100.581 71.9085 100.637 71.9645 100.637 72.0392V74.1105C100.637 74.1851 100.581 74.2411 100.506 74.2411ZM100.506 70.1078C100.431 70.1078 100.375 70.0518 100.375 69.9772V67.9058C100.375 67.8312 100.431 67.7752 100.506 67.7752C100.581 67.7752 100.637 67.8312 100.637 67.9058V69.9772C100.637 70.0518 100.581 70.1078 100.506 70.1078ZM100.506 65.9745C100.431 65.9745 100.375 65.9185 100.375 65.8438V63.7725C100.375 63.6979 100.431 63.6419 100.506 63.6419C100.581 63.6419 100.637 63.6979 100.637 63.7725V65.8438C100.637 65.9185 100.581 65.9745 100.506 65.9745ZM100.506 61.8411C100.431 61.8411 100.375 61.7851 100.375 61.7105V59.6392C100.375 59.5645 100.431 59.5085 100.506 59.5085C100.581 59.5085 100.637 59.5645 100.637 59.6392V61.7105C100.637 61.7851 100.581 61.8411 100.506 61.8411Z" fill="black"/>
<path d="M100.506 57.6706C100.431 57.6706 100.375 57.6146 100.375 57.5399V56.4856C100.375 56.411 100.431 56.355 100.506 56.355C100.581 56.355 100.637 56.411 100.637 56.4856V57.5399C100.637 57.6146 100.581 57.6706 100.506 57.6706Z" fill="black"/>
<path d="M115.799 131.1C115.724 131.1 115.668 131.044 115.668 130.97V129.915C115.668 129.841 115.724 129.785 115.799 129.785C115.873 129.785 115.929 129.841 115.929 129.915V130.97C115.929 131.044 115.873 131.1 115.799 131.1Z" fill="black"/>
<path d="M115.799 127.974C115.724 127.974 115.668 127.918 115.668 127.844V125.772C115.668 125.698 115.724 125.642 115.799 125.642C115.873 125.642 115.929 125.698 115.929 125.772V127.844C115.929 127.918 115.873 127.974 115.799 127.974ZM115.799 123.841C115.724 123.841 115.668 123.785 115.668 123.71V121.639C115.668 121.564 115.724 121.508 115.799 121.508C115.873 121.508 115.929 121.564 115.929 121.639V123.71C115.929 123.785 115.873 123.841 115.799 123.841ZM115.799 119.708C115.724 119.708 115.668 119.652 115.668 119.577V117.506C115.668 117.431 115.724 117.375 115.799 117.375C115.873 117.375 115.929 117.431 115.929 117.506V119.577C115.929 119.652 115.873 119.708 115.799 119.708ZM115.799 115.574C115.724 115.574 115.668 115.518 115.668 115.444V113.372C115.668 113.298 115.724 113.242 115.799 113.242C115.873 113.242 115.929 113.298 115.929 113.372V115.444C115.929 115.518 115.873 115.574 115.799 115.574ZM115.799 111.441C115.724 111.441 115.668 111.385 115.668 111.31V109.239C115.668 109.164 115.724 109.109 115.799 109.109C115.873 109.109 115.929 109.164 115.929 109.239V111.31C115.929 111.385 115.873 111.441 115.799 111.441ZM115.799 107.308C115.724 107.308 115.668 107.252 115.668 107.177V105.106C115.668 105.031 115.724 104.975 115.799 104.975C115.873 104.975 115.929 105.031 115.929 105.106V107.177C115.929 107.252 115.873 107.308 115.799 107.308ZM115.799 103.174C115.724 103.174 115.668 103.118 115.668 103.044V100.972C115.668 100.898 115.724 100.842 115.799 100.842C115.873 100.842 115.929 100.898 115.929 100.972V103.044C115.929 103.118 115.873 103.174 115.799 103.174ZM115.799 99.0411C115.724 99.0411 115.668 98.9851 115.668 98.9105V96.8391C115.668 96.7645 115.724 96.7085 115.799 96.7085C115.873 96.7085 115.929 96.7645 115.929 96.8391V98.9105C115.929 98.9851 115.873 99.0411 115.799 99.0411ZM115.799 94.9078C115.724 94.9078 115.668 94.8518 115.668 94.7771V92.7058C115.668 92.6312 115.724 92.5752 115.799 92.5752C115.873 92.5752 115.929 92.6312 115.929 92.7058V94.7771C115.929 94.8518 115.873 94.9078 115.799 94.9078ZM115.799 90.7744C115.724 90.7744 115.668 90.7185 115.668 90.6438V88.5725C115.668 88.4978 115.724 88.4419 115.799 88.4419C115.873 88.4419 115.929 88.4978 115.929 88.5725V90.6438C115.929 90.7185 115.873 90.7744 115.799 90.7744ZM115.799 86.6411C115.724 86.6411 115.668 86.5851 115.668 86.5105V84.4391C115.668 84.3645 115.724 84.3085 115.799 84.3085C115.873 84.3085 115.929 84.3645 115.929 84.4391V86.5105C115.929 86.5851 115.873 86.6411 115.799 86.6411ZM115.799 82.5078C115.724 82.5078 115.668 82.4518 115.668 82.3771V80.3058C115.668 80.2312 115.724 80.1752 115.799 80.1752C115.873 80.1752 115.929 80.2312 115.929 80.3058V82.3771C115.929 82.4518 115.873 82.5078 115.799 82.5078ZM115.799 78.3744C115.724 78.3744 115.668 78.3185 115.668 78.2438V76.1725C115.668 76.0978 115.724 76.0419 115.799 76.0419C115.873 76.0419 115.929 76.0978 115.929 76.1725V78.2438C115.929 78.3185 115.873 78.3744 115.799 78.3744ZM115.799 74.2411C115.724 74.2411 115.668 74.1851 115.668 74.1105V72.0392C115.668 71.9645 115.724 71.9085 115.799 71.9085C115.873 71.9085 115.929 71.9645 115.929 72.0392V74.1105C115.929 74.1851 115.873 74.2411 115.799 74.2411ZM115.799 70.1078C115.724 70.1078 115.668 70.0518 115.668 69.9772V67.9058C115.668 67.8312 115.724 67.7752 115.799 67.7752C115.873 67.7752 115.929 67.8312 115.929 67.9058V69.9772C115.929 70.0518 115.873 70.1078 115.799 70.1078ZM115.799 65.9745C115.724 65.9745 115.668 65.9185 115.668 65.8438V63.7725C115.668 63.6979 115.724 63.6419 115.799 63.6419C115.873 63.6419 115.929 63.6979 115.929 63.7725V65.8438C115.929 65.9185 115.873 65.9745 115.799 65.9745ZM115.799 61.8411C115.724 61.8411 115.668 61.7851 115.668 61.7105V59.6392C115.668 59.5645 115.724 59.5085 115.799 59.5085C115.873 59.5085 115.929 59.5645 115.929 59.6392V61.7105C115.929 61.7851 115.873 61.8411 115.799 61.8411Z" fill="black"/>
<path d="M115.799 57.6706C115.724 57.6706 115.668 57.6146 115.668 57.5399V56.4856C115.668 56.411 115.724 56.355 115.799 56.355C115.873 56.355 115.929 56.411 115.929 56.4856V57.5399C115.929 57.6146 115.873 57.6706 115.799 57.6706Z" fill="black"/>
<path d="M165.165 131.1C165.091 131.1 165.035 131.044 165.035 130.97V129.915C165.035 129.841 165.091 129.785 165.165 129.785C165.24 129.785 165.296 129.841 165.296 129.915V130.97C165.296 131.044 165.24 131.1 165.165 131.1Z" fill="black"/>
<path d="M165.165 127.974C165.091 127.974 165.035 127.918 165.035 127.844V125.772C165.035 125.698 165.091 125.642 165.165 125.642C165.24 125.642 165.296 125.698 165.296 125.772V127.844C165.296 127.918 165.24 127.974 165.165 127.974ZM165.165 123.841C165.091 123.841 165.035 123.785 165.035 123.71V121.639C165.035 121.564 165.091 121.508 165.165 121.508C165.24 121.508 165.296 121.564 165.296 121.639V123.71C165.296 123.785 165.24 123.841 165.165 123.841ZM165.165 119.708C165.091 119.708 165.035 119.652 165.035 119.577V117.506C165.035 117.431 165.091 117.375 165.165 117.375C165.24 117.375 165.296 117.431 165.296 117.506V119.577C165.296 119.652 165.24 119.708 165.165 119.708ZM165.165 115.574C165.091 115.574 165.035 115.518 165.035 115.444V113.372C165.035 113.298 165.091 113.242 165.165 113.242C165.24 113.242 165.296 113.298 165.296 113.372V115.444C165.296 115.518 165.24 115.574 165.165 115.574ZM165.165 111.441C165.091 111.441 165.035 111.385 165.035 111.31V109.239C165.035 109.164 165.091 109.109 165.165 109.109C165.24 109.109 165.296 109.164 165.296 109.239V111.31C165.296 111.385 165.24 111.441 165.165 111.441ZM165.165 107.308C165.091 107.308 165.035 107.252 165.035 107.177V105.106C165.035 105.031 165.091 104.975 165.165 104.975C165.24 104.975 165.296 105.031 165.296 105.106V107.177C165.296 107.252 165.24 107.308 165.165 107.308ZM165.165 103.174C165.091 103.174 165.035 103.118 165.035 103.044V100.972C165.035 100.898 165.091 100.842 165.165 100.842C165.24 100.842 165.296 100.898 165.296 100.972V103.044C165.296 103.118 165.24 103.174 165.165 103.174ZM165.165 99.0411C165.091 99.0411 165.035 98.9851 165.035 98.9105V96.8391C165.035 96.7645 165.091 96.7085 165.165 96.7085C165.24 96.7085 165.296 96.7645 165.296 96.8391V98.9105C165.296 98.9851 165.24 99.0411 165.165 99.0411ZM165.165 94.9078C165.091 94.9078 165.035 94.8518 165.035 94.7771V92.7058C165.035 92.6312 165.091 92.5752 165.165 92.5752C165.24 92.5752 165.296 92.6312 165.296 92.7058V94.7771C165.296 94.8518 165.24 94.9078 165.165 94.9078ZM165.165 90.7744C165.091 90.7744 165.035 90.7185 165.035 90.6438V88.5725C165.035 88.4978 165.091 88.4419 165.165 88.4419C165.24 88.4419 165.296 88.4978 165.296 88.5725V90.6438C165.296 90.7185 165.24 90.7744 165.165 90.7744ZM165.165 86.6411C165.091 86.6411 165.035 86.5851 165.035 86.5105V84.4391C165.035 84.3645 165.091 84.3085 165.165 84.3085C165.24 84.3085 165.296 84.3645 165.296 84.4391V86.5105C165.296 86.5851 165.24 86.6411 165.165 86.6411ZM165.165 82.5078C165.091 82.5078 165.035 82.4518 165.035 82.3771V80.3058C165.035 80.2312 165.091 80.1752 165.165 80.1752C165.24 80.1752 165.296 80.2312 165.296 80.3058V82.3771C165.296 82.4518 165.24 82.5078 165.165 82.5078ZM165.165 78.3744C165.091 78.3744 165.035 78.3185 165.035 78.2438V76.1725C165.035 76.0978 165.091 76.0419 165.165 76.0419C165.24 76.0419 165.296 76.0978 165.296 76.1725V78.2438C165.296 78.3185 165.24 78.3744 165.165 78.3744ZM165.165 74.2411C165.091 74.2411 165.035 74.1851 165.035 74.1105V72.0392C165.035 71.9645 165.091 71.9085 165.165 71.9085C165.24 71.9085 165.296 71.9645 165.296 72.0392V74.1105C165.296 74.1851 165.24 74.2411 165.165 74.2411ZM165.165 70.1078C165.091 70.1078 165.035 70.0518 165.035 69.9772V67.9058C165.035 67.8312 165.091 67.7752 165.165 67.7752C165.24 67.7752 165.296 67.8312 165.296 67.9058V69.9772C165.296 70.0518 165.24 70.1078 165.165 70.1078ZM165.165 65.9745C165.091 65.9745 165.035 65.9185 165.035 65.8438V63.7725C165.035 63.6979 165.091 63.6419 165.165 63.6419C165.24 63.6419 165.296 63.6979 165.296 63.7725V65.8438C165.296 65.9185 165.24 65.9745 165.165 65.9745ZM165.165 61.8411C165.091 61.8411 165.035 61.7851 165.035 61.7105V59.6392C165.035 59.5645 165.091 59.5085 165.165 59.5085C165.24 59.5085 165.296 59.5645 165.296 59.6392V61.7105C165.296 61.7851 165.24 61.8411 165.165 61.8411Z" fill="black"/>
<path d="M165.165 57.6706C165.091 57.6706 165.035 57.6146 165.035 57.5399V56.4856C165.035 56.411 165.091 56.355 165.165 56.355C165.24 56.355 165.296 56.411 165.296 56.4856V57.5399C165.296 57.6146 165.24 57.6706 165.165 57.6706Z" fill="black"/>
<path d="M51.5686 131.1C51.494 131.1 51.438 131.044 51.438 130.97V129.915C51.438 129.841 51.494 129.785 51.5686 129.785C51.6433 129.785 51.6992 129.841 51.6992 129.915V130.97C51.6992 131.044 51.6433 131.1 51.5686 131.1Z" fill="black"/>
<path d="M51.5686 127.974C51.494 127.974 51.438 127.918 51.438 127.844V125.772C51.438 125.698 51.494 125.642 51.5686 125.642C51.6433 125.642 51.6992 125.698 51.6992 125.772V127.844C51.6992 127.918 51.6433 127.974 51.5686 127.974ZM51.5686 123.841C51.494 123.841 51.438 123.785 51.438 123.71V121.639C51.438 121.564 51.494 121.508 51.5686 121.508C51.6433 121.508 51.6992 121.564 51.6992 121.639V123.71C51.6992 123.785 51.6433 123.841 51.5686 123.841ZM51.5686 119.708C51.494 119.708 51.438 119.652 51.438 119.577V117.506C51.438 117.431 51.494 117.375 51.5686 117.375C51.6433 117.375 51.6992 117.431 51.6992 117.506V119.577C51.6992 119.652 51.6433 119.708 51.5686 119.708ZM51.5686 115.574C51.494 115.574 51.438 115.518 51.438 115.444V113.372C51.438 113.298 51.494 113.242 51.5686 113.242C51.6433 113.242 51.6992 113.298 51.6992 113.372V115.444C51.6992 115.518 51.6433 115.574 51.5686 115.574ZM51.5686 111.441C51.494 111.441 51.438 111.385 51.438 111.31V109.239C51.438 109.164 51.494 109.109 51.5686 109.109C51.6433 109.109 51.6992 109.164 51.6992 109.239V111.31C51.6992 111.385 51.6433 111.441 51.5686 111.441ZM51.5686 107.308C51.494 107.308 51.438 107.252 51.438 107.177V105.106C51.438 105.031 51.494 104.975 51.5686 104.975C51.6433 104.975 51.6992 105.031 51.6992 105.106V107.177C51.6992 107.252 51.6433 107.308 51.5686 107.308ZM51.5686 103.174C51.494 103.174 51.438 103.118 51.438 103.044V100.972C51.438 100.898 51.494 100.842 51.5686 100.842C51.6433 100.842 51.6992 100.898 51.6992 100.972V103.044C51.6992 103.118 51.6433 103.174 51.5686 103.174ZM51.5686 99.0411C51.494 99.0411 51.438 98.9851 51.438 98.9105V96.8391C51.438 96.7645 51.494 96.7085 51.5686 96.7085C51.6433 96.7085 51.6992 96.7645 51.6992 96.8391V98.9105C51.6992 98.9851 51.6433 99.0411 51.5686 99.0411ZM51.5686 94.9078C51.494 94.9078 51.438 94.8518 51.438 94.7771V92.7058C51.438 92.6312 51.494 92.5752 51.5686 92.5752C51.6433 92.5752 51.6992 92.6312 51.6992 92.7058V94.7771C51.6992 94.8518 51.6433 94.9078 51.5686 94.9078ZM51.5686 90.7744C51.494 90.7744 51.438 90.7185 51.438 90.6438V88.5725C51.438 88.4978 51.494 88.4419 51.5686 88.4419C51.6433 88.4419 51.6992 88.4978 51.6992 88.5725V90.6438C51.6992 90.7185 51.6433 90.7744 51.5686 90.7744ZM51.5686 86.6411C51.494 86.6411 51.438 86.5851 51.438 86.5105V84.4391C51.438 84.3645 51.494 84.3085 51.5686 84.3085C51.6433 84.3085 51.6992 84.3645 51.6992 84.4391V86.5105C51.6992 86.5851 51.6433 86.6411 51.5686 86.6411ZM51.5686 82.5078C51.494 82.5078 51.438 82.4518 51.438 82.3771V80.3058C51.438 80.2312 51.494 80.1752 51.5686 80.1752C51.6433 80.1752 51.6992 80.2312 51.6992 80.3058V82.3771C51.6992 82.4518 51.6433 82.5078 51.5686 82.5078ZM51.5686 78.3744C51.494 78.3744 51.438 78.3185 51.438 78.2438V76.1725C51.438 76.0978 51.494 76.0419 51.5686 76.0419C51.6433 76.0419 51.6992 76.0978 51.6992 76.1725V78.2438C51.6992 78.3185 51.6433 78.3744 51.5686 78.3744ZM51.5686 74.2411C51.494 74.2411 51.438 74.1851 51.438 74.1105V72.0392C51.438 71.9645 51.494 71.9085 51.5686 71.9085C51.6433 71.9085 51.6992 71.9645 51.6992 72.0392V74.1105C51.6992 74.1851 51.6433 74.2411 51.5686 74.2411ZM51.5686 70.1078C51.494 70.1078 51.438 70.0518 51.438 69.9772V67.9058C51.438 67.8312 51.494 67.7752 51.5686 67.7752C51.6433 67.7752 51.6992 67.8312 51.6992 67.9058V69.9772C51.6992 70.0518 51.6433 70.1078 51.5686 70.1078ZM51.5686 65.9745C51.494 65.9745 51.438 65.9185 51.438 65.8438V63.7725C51.438 63.6979 51.494 63.6419 51.5686 63.6419C51.6433 63.6419 51.6992 63.6979 51.6992 63.7725V65.8438C51.6992 65.9185 51.6433 65.9745 51.5686 65.9745ZM51.5686 61.8411C51.494 61.8411 51.438 61.7851 51.438 61.7105V59.6392C51.438 59.5645 51.494 59.5085 51.5686 59.5085C51.6433 59.5085 51.6992 59.5645 51.6992 59.6392V61.7105C51.6992 61.7851 51.6433 61.8411 51.5686 61.8411Z" fill="black"/>
<path d="M51.5686 57.6706C51.494 57.6706 51.438 57.6146 51.438 57.5399V56.4856C51.438 56.411 51.494 56.355 51.5686 56.355C51.6433 56.355 51.6992 56.411 51.6992 56.4856V57.5399C51.6992 57.6146 51.6433 57.6706 51.5686 57.6706Z" fill="black"/>
<path d="M179.459 56.5322H178.405C178.33 56.5322 178.274 56.4763 178.274 56.4016C178.274 56.327 178.33 56.271 178.405 56.271H179.459C179.534 56.271 179.59 56.327 179.59 56.4016C179.59 56.4763 179.534 56.5322 179.459 56.5322Z" fill="black"/>
<path d="M176.026 56.5322H173.646C173.572 56.5322 173.516 56.4763 173.516 56.4016C173.516 56.327 173.572 56.271 173.646 56.271H176.026C176.1 56.271 176.156 56.327 176.156 56.4016C176.156 56.4763 176.1 56.5322 176.026 56.5322ZM171.258 56.5322H168.879C168.804 56.5322 168.748 56.4763 168.748 56.4016C168.748 56.327 168.804 56.271 168.879 56.271H171.258C171.333 56.271 171.389 56.327 171.389 56.4016C171.389 56.4763 171.333 56.5322 171.258 56.5322Z" fill="black"/>
<path d="M166.49 56.5322H165.436C165.361 56.5322 165.305 56.4763 165.305 56.4016C165.305 56.327 165.361 56.271 165.436 56.271H166.49C166.565 56.271 166.621 56.327 166.621 56.4016C166.621 56.4763 166.565 56.5322 166.49 56.5322Z" fill="black"/>
<path d="M179.459 131.1H178.405C178.33 131.1 178.274 131.044 178.274 130.969C178.274 130.895 178.33 130.839 178.405 130.839H179.459C179.534 130.839 179.59 130.895 179.59 130.969C179.59 131.044 179.534 131.1 179.459 131.1Z" fill="black"/>
<path d="M176.026 131.1H173.646C173.572 131.1 173.516 131.044 173.516 130.969C173.516 130.895 173.572 130.839 173.646 130.839H176.026C176.1 130.839 176.156 130.895 176.156 130.969C176.156 131.044 176.1 131.1 176.026 131.1ZM171.258 131.1H168.879C168.804 131.1 168.748 131.044 168.748 130.969C168.748 130.895 168.804 130.839 168.879 130.839H171.258C171.333 130.839 171.389 130.895 171.389 130.969C171.389 131.044 171.333 131.1 171.258 131.1Z" fill="black"/>
<path d="M166.49 131.1H165.436C165.361 131.1 165.305 131.044 165.305 130.969C165.305 130.895 165.361 130.839 165.436 130.839H166.49C166.565 130.839 166.621 130.895 166.621 130.969C166.621 131.044 166.565 131.1 166.49 131.1Z" fill="black"/>
<path d="M115.295 56.5322H114.24C114.166 56.5322 114.11 56.4763 114.11 56.4016C114.11 56.327 114.166 56.271 114.24 56.271H115.295C115.369 56.271 115.425 56.327 115.425 56.4016C115.425 56.4763 115.369 56.5322 115.295 56.5322Z" fill="black"/>
<path d="M112.178 56.5322H110.116C110.042 56.5322 109.986 56.4763 109.986 56.4016C109.986 56.327 110.042 56.271 110.116 56.271H112.178C112.253 56.271 112.309 56.327 112.309 56.4016C112.309 56.4763 112.253 56.5322 112.178 56.5322ZM108.064 56.5322H106.002C105.927 56.5322 105.871 56.4763 105.871 56.4016C105.871 56.327 105.927 56.271 106.002 56.271H108.064C108.138 56.271 108.194 56.327 108.194 56.4016C108.194 56.4763 108.138 56.5322 108.064 56.5322ZM103.949 56.5322H101.887C101.812 56.5322 101.756 56.4763 101.756 56.4016C101.756 56.327 101.812 56.271 101.887 56.271H103.949C104.024 56.271 104.08 56.327 104.08 56.4016C104.08 56.4763 104.024 56.5322 103.949 56.5322ZM99.8344 56.5322H97.7724C97.6977 56.5322 97.6417 56.4763 97.6417 56.4016C97.6417 56.327 97.6977 56.271 97.7724 56.271H99.8344C99.909 56.271 99.965 56.327 99.965 56.4016C99.965 56.4763 99.909 56.5322 99.8344 56.5322ZM95.7197 56.5322H93.6577C93.5831 56.5322 93.5271 56.4763 93.5271 56.4016C93.5271 56.327 93.5831 56.271 93.6577 56.271H95.7197C95.7943 56.271 95.8503 56.327 95.8503 56.4016C95.8503 56.4763 95.7943 56.5322 95.7197 56.5322ZM91.605 56.5322H89.543C89.4684 56.5322 89.4124 56.4763 89.4124 56.4016C89.4124 56.327 89.4684 56.271 89.543 56.271H91.605C91.6797 56.271 91.7357 56.327 91.7357 56.4016C91.7357 56.4763 91.6797 56.5322 91.605 56.5322ZM87.4904 56.5322H85.4284C85.3537 56.5322 85.2977 56.4763 85.2977 56.4016C85.2977 56.327 85.3537 56.271 85.4284 56.271H87.4904C87.565 56.271 87.621 56.327 87.621 56.4016C87.621 56.4763 87.565 56.5322 87.4904 56.5322ZM83.3757 56.5322H81.3137C81.2391 56.5322 81.1831 56.4763 81.1831 56.4016C81.1831 56.327 81.2391 56.271 81.3137 56.271H83.3757C83.4503 56.271 83.5063 56.327 83.5063 56.4016C83.5063 56.4763 83.4503 56.5322 83.3757 56.5322ZM79.261 56.5322H77.199C77.1244 56.5322 77.0684 56.4763 77.0684 56.4016C77.0684 56.327 77.1244 56.271 77.199 56.271H79.261C79.3357 56.271 79.3916 56.327 79.3916 56.4016C79.3916 56.4763 79.3357 56.5322 79.261 56.5322ZM75.1464 56.5322H73.0844C73.0097 56.5322 72.9537 56.4763 72.9537 56.4016C72.9537 56.327 73.0097 56.271 73.0844 56.271H75.1464C75.221 56.271 75.277 56.327 75.277 56.4016C75.277 56.4763 75.221 56.5322 75.1464 56.5322ZM71.0317 56.5322H68.9697C68.895 56.5322 68.8391 56.4763 68.8391 56.4016C68.8391 56.327 68.895 56.271 68.9697 56.271H71.0317C71.1063 56.271 71.1623 56.327 71.1623 56.4016C71.1623 56.4763 71.1063 56.5322 71.0317 56.5322ZM66.917 56.5322H64.855C64.7804 56.5322 64.7244 56.4763 64.7244 56.4016C64.7244 56.327 64.7804 56.271 64.855 56.271H66.917C66.9917 56.271 67.0476 56.327 67.0476 56.4016C67.0476 56.4763 66.9917 56.5322 66.917 56.5322ZM62.8023 56.5322H60.7403C60.6657 56.5322 60.6097 56.4763 60.6097 56.4016C60.6097 56.327 60.6657 56.271 60.7403 56.271H62.8023C62.877 56.271 62.933 56.327 62.933 56.4016C62.933 56.4763 62.877 56.5322 62.8023 56.5322ZM58.6877 56.5322H56.6257C56.551 56.5322 56.4951 56.4763 56.4951 56.4016C56.4951 56.327 56.551 56.271 56.6257 56.271H58.6877C58.7623 56.271 58.8183 56.327 58.8183 56.4016C58.8183 56.4763 58.7623 56.5322 58.6877 56.5322ZM54.573 56.5322H52.511C52.4364 56.5322 52.3804 56.4763 52.3804 56.4016C52.3804 56.327 52.4364 56.271 52.511 56.271H54.573C54.6477 56.271 54.7036 56.327 54.7036 56.4016C54.7036 56.4763 54.6477 56.5322 54.573 56.5322ZM50.4583 56.5322H48.3963C48.3217 56.5322 48.2657 56.4763 48.2657 56.4016C48.2657 56.327 48.3217 56.271 48.3963 56.271H50.4583C50.533 56.271 50.589 56.327 50.589 56.4016C50.589 56.4763 50.533 56.5322 50.4583 56.5322ZM46.3437 56.5322H44.2817C44.207 56.5322 44.151 56.4763 44.151 56.4016C44.151 56.327 44.207 56.271 44.2817 56.271H46.3437C46.4183 56.271 46.4743 56.327 46.4743 56.4016C46.4743 56.4763 46.4183 56.5322 46.3437 56.5322ZM42.229 56.5322H40.167C40.0924 56.5322 40.0364 56.4763 40.0364 56.4016C40.0364 56.327 40.0924 56.271 40.167 56.271H42.229C42.3036 56.271 42.3596 56.327 42.3596 56.4016C42.3596 56.4763 42.3036 56.5322 42.229 56.5322Z" fill="black"/>
<path d="M38.049 56.5322H36.9946C36.92 56.5322 36.864 56.4763 36.864 56.4016C36.864 56.327 36.92 56.271 36.9946 56.271H38.049C38.1236 56.271 38.1796 56.327 38.1796 56.4016C38.1796 56.4763 38.1236 56.5322 38.049 56.5322Z" fill="black"/>
<path d="M115.295 131.1H114.24C114.166 131.1 114.11 131.044 114.11 130.969C114.11 130.895 114.166 130.839 114.24 130.839H115.295C115.369 130.839 115.425 130.895 115.425 130.969C115.425 131.044 115.369 131.1 115.295 131.1Z" fill="black"/>
<path d="M112.178 131.1H110.116C110.042 131.1 109.986 131.044 109.986 130.969C109.986 130.895 110.042 130.839 110.116 130.839H112.178C112.253 130.839 112.309 130.895 112.309 130.969C112.309 131.044 112.253 131.1 112.178 131.1ZM108.064 131.1H106.002C105.927 131.1 105.871 131.044 105.871 130.969C105.871 130.895 105.927 130.839 106.002 130.839H108.064C108.138 130.839 108.194 130.895 108.194 130.969C108.194 131.044 108.138 131.1 108.064 131.1ZM103.949 131.1H101.887C101.812 131.1 101.756 131.044 101.756 130.969C101.756 130.895 101.812 130.839 101.887 130.839H103.949C104.024 130.839 104.08 130.895 104.08 130.969C104.08 131.044 104.024 131.1 103.949 131.1ZM99.8344 131.1H97.7724C97.6977 131.1 97.6417 131.044 97.6417 130.969C97.6417 130.895 97.6977 130.839 97.7724 130.839H99.8344C99.909 130.839 99.965 130.895 99.965 130.969C99.965 131.044 99.909 131.1 99.8344 131.1ZM95.7197 131.1H93.6577C93.5831 131.1 93.5271 131.044 93.5271 130.969C93.5271 130.895 93.5831 130.839 93.6577 130.839H95.7197C95.7943 130.839 95.8503 130.895 95.8503 130.969C95.8503 131.044 95.7943 131.1 95.7197 131.1ZM91.605 131.1H89.543C89.4684 131.1 89.4124 131.044 89.4124 130.969C89.4124 130.895 89.4684 130.839 89.543 130.839H91.605C91.6797 130.839 91.7357 130.895 91.7357 130.969C91.7357 131.044 91.6797 131.1 91.605 131.1ZM87.4904 131.1H85.4284C85.3537 131.1 85.2977 131.044 85.2977 130.969C85.2977 130.895 85.3537 130.839 85.4284 130.839H87.4904C87.565 130.839 87.621 130.895 87.621 130.969C87.621 131.044 87.565 131.1 87.4904 131.1ZM83.3757 131.1H81.3137C81.2391 131.1 81.1831 131.044 81.1831 130.969C81.1831 130.895 81.2391 130.839 81.3137 130.839H83.3757C83.4503 130.839 83.5063 130.895 83.5063 130.969C83.5063 131.044 83.4503 131.1 83.3757 131.1ZM79.261 131.1H77.199C77.1244 131.1 77.0684 131.044 77.0684 130.969C77.0684 130.895 77.1244 130.839 77.199 130.839H79.261C79.3357 130.839 79.3916 130.895 79.3916 130.969C79.3916 131.044 79.3357 131.1 79.261 131.1ZM75.1464 131.1H73.0844C73.0097 131.1 72.9537 131.044 72.9537 130.969C72.9537 130.895 73.0097 130.839 73.0844 130.839H75.1464C75.221 130.839 75.277 130.895 75.277 130.969C75.277 131.044 75.221 131.1 75.1464 131.1ZM71.0317 131.1H68.9697C68.895 131.1 68.8391 131.044 68.8391 130.969C68.8391 130.895 68.895 130.839 68.9697 130.839H71.0317C71.1063 130.839 71.1623 130.895 71.1623 130.969C71.1623 131.044 71.1063 131.1 71.0317 131.1ZM66.917 131.1H64.855C64.7804 131.1 64.7244 131.044 64.7244 130.969C64.7244 130.895 64.7804 130.839 64.855 130.839H66.917C66.9917 130.839 67.0476 130.895 67.0476 130.969C67.0476 131.044 66.9917 131.1 66.917 131.1ZM62.8023 131.1H60.7403C60.6657 131.1 60.6097 131.044 60.6097 130.969C60.6097 130.895 60.6657 130.839 60.7403 130.839H62.8023C62.877 130.839 62.933 130.895 62.933 130.969C62.933 131.044 62.877 131.1 62.8023 131.1ZM58.6877 131.1H56.6257C56.551 131.1 56.4951 131.044 56.4951 130.969C56.4951 130.895 56.551 130.839 56.6257 130.839H58.6877C58.7623 130.839 58.8183 130.895 58.8183 130.969C58.8183 131.044 58.7623 131.1 58.6877 131.1ZM54.573 131.1H52.511C52.4364 131.1 52.3804 131.044 52.3804 130.969C52.3804 130.895 52.4364 130.839 52.511 130.839H54.573C54.6477 130.839 54.7036 130.895 54.7036 130.969C54.7036 131.044 54.6477 131.1 54.573 131.1ZM50.4583 131.1H48.3963C48.3217 131.1 48.2657 131.044 48.2657 130.969C48.2657 130.895 48.3217 130.839 48.3963 130.839H50.4583C50.533 130.839 50.589 130.895 50.589 130.969C50.589 131.044 50.533 131.1 50.4583 131.1ZM46.3437 131.1H44.2817C44.207 131.1 44.151 131.044 44.151 130.969C44.151 130.895 44.207 130.839 44.2817 130.839H46.3437C46.4183 130.839 46.4743 130.895 46.4743 130.969C46.4743 131.044 46.4183 131.1 46.3437 131.1ZM42.229 131.1H40.167C40.0924 131.1 40.0364 131.044 40.0364 130.969C40.0364 130.895 40.0924 130.839 40.167 130.839H42.229C42.3036 130.839 42.3596 130.895 42.3596 130.969C42.3596 131.044 42.3036 131.1 42.229 131.1Z" fill="black"/>
<path d="M38.049 131.1H36.9946C36.92 131.1 36.864 131.044 36.864 130.969C36.864 130.895 36.92 130.839 36.9946 130.839H38.049C38.1236 130.839 38.1796 130.895 38.1796 130.969C38.1796 131.044 38.1236 131.1 38.049 131.1Z" fill="black"/>
<path d="M100.319 26.2927H99.2651C99.1905 26.2927 99.1345 26.2368 99.1345 26.1621C99.1345 26.0875 99.1905 26.0315 99.2651 26.0315H100.319C100.394 26.0315 100.45 26.0875 100.45 26.1621C100.45 26.2368 100.394 26.2927 100.319 26.2927Z" fill="black"/>
<path d="M97.0632 26.2927H94.8613C94.7866 26.2927 94.7306 26.2368 94.7306 26.1621C94.7306 26.0875 94.7866 26.0315 94.8613 26.0315H97.0632C97.1379 26.0315 97.1938 26.0875 97.1938 26.1621C97.1938 26.2368 97.1379 26.2927 97.0632 26.2927ZM92.6593 26.2927H90.4574C90.3827 26.2927 90.3267 26.2368 90.3267 26.1621C90.3267 26.0875 90.3827 26.0315 90.4574 26.0315H92.6593C92.7339 26.0315 92.7899 26.0875 92.7899 26.1621C92.7899 26.2368 92.7339 26.2927 92.6593 26.2927ZM88.2554 26.2927H86.0534C85.9788 26.2927 85.9228 26.2368 85.9228 26.1621C85.9228 26.0875 85.9788 26.0315 86.0534 26.0315H88.2554C88.33 26.0315 88.386 26.0875 88.386 26.1621C88.386 26.2368 88.33 26.2927 88.2554 26.2927ZM83.8515 26.2927H81.6495C81.5749 26.2927 81.5189 26.2368 81.5189 26.1621C81.5189 26.0875 81.5749 26.0315 81.6495 26.0315H83.8515C83.9261 26.0315 83.9821 26.0875 83.9821 26.1621C83.9821 26.2368 83.9261 26.2927 83.8515 26.2927ZM79.4476 26.2927H77.2456C77.171 26.2927 77.115 26.2368 77.115 26.1621C77.115 26.0875 77.171 26.0315 77.2456 26.0315H79.4476C79.5222 26.0315 79.5782 26.0875 79.5782 26.1621C79.5782 26.2368 79.5222 26.2927 79.4476 26.2927ZM75.0437 26.2927H72.8417C72.7671 26.2927 72.7111 26.2368 72.7111 26.1621C72.7111 26.0875 72.7671 26.0315 72.8417 26.0315H75.0437C75.1183 26.0315 75.1743 26.0875 75.1743 26.1621C75.1743 26.2368 75.1183 26.2927 75.0437 26.2927ZM70.6398 26.2927H68.4378C68.3632 26.2927 68.3072 26.2368 68.3072 26.1621C68.3072 26.0875 68.3632 26.0315 68.4378 26.0315H70.6398C70.7144 26.0315 70.7704 26.0875 70.7704 26.1621C70.7704 26.2368 70.7144 26.2927 70.6398 26.2927ZM66.2359 26.2927H64.0339C63.9593 26.2927 63.9033 26.2368 63.9033 26.1621C63.9033 26.0875 63.9593 26.0315 64.0339 26.0315H66.2359C66.3105 26.0315 66.3665 26.0875 66.3665 26.1621C66.3665 26.2368 66.3105 26.2927 66.2359 26.2927ZM61.8319 26.2927H59.63C59.5554 26.2927 59.4994 26.2368 59.4994 26.1621C59.4994 26.0875 59.5554 26.0315 59.63 26.0315H61.8319C61.9066 26.0315 61.9626 26.0875 61.9626 26.1621C61.9626 26.2368 61.9066 26.2927 61.8319 26.2927ZM57.428 26.2927H55.2261C55.1514 26.2927 55.0955 26.2368 55.0955 26.1621C55.0955 26.0875 55.1514 26.0315 55.2261 26.0315H57.428C57.5027 26.0315 57.5587 26.0875 57.5587 26.1621C57.5587 26.2368 57.5027 26.2927 57.428 26.2927Z" fill="black"/>
<path d="M52.9962 26.2927H51.9419C51.8673 26.2927 51.8113 26.2368 51.8113 26.1621C51.8113 26.0875 51.8673 26.0315 51.9419 26.0315H52.9962C53.0709 26.0315 53.1269 26.0875 53.1269 26.1621C53.1269 26.2368 53.0709 26.2927 52.9962 26.2927Z" fill="black"/>
<path d="M100.319 41.4546H99.2651C99.1905 41.4546 99.1345 41.3986 99.1345 41.324C99.1345 41.2493 99.1905 41.1934 99.2651 41.1934H100.319C100.394 41.1934 100.45 41.2493 100.45 41.324C100.45 41.3986 100.394 41.4546 100.319 41.4546Z" fill="black"/>
<path d="M97.0632 41.4546H94.8613C94.7866 41.4546 94.7306 41.3986 94.7306 41.324C94.7306 41.2493 94.7866 41.1934 94.8613 41.1934H97.0632C97.1379 41.1934 97.1938 41.2493 97.1938 41.324C97.1938 41.3986 97.1379 41.4546 97.0632 41.4546ZM92.6593 41.4546H90.4574C90.3827 41.4546 90.3267 41.3986 90.3267 41.324C90.3267 41.2493 90.3827 41.1934 90.4574 41.1934H92.6593C92.7339 41.1934 92.7899 41.2493 92.7899 41.324C92.7899 41.3986 92.7339 41.4546 92.6593 41.4546ZM88.2554 41.4546H86.0534C85.9788 41.4546 85.9228 41.3986 85.9228 41.324C85.9228 41.2493 85.9788 41.1934 86.0534 41.1934H88.2554C88.33 41.1934 88.386 41.2493 88.386 41.324C88.386 41.3986 88.33 41.4546 88.2554 41.4546ZM83.8515 41.4546H81.6495C81.5749 41.4546 81.5189 41.3986 81.5189 41.324C81.5189 41.2493 81.5749 41.1934 81.6495 41.1934H83.8515C83.9261 41.1934 83.9821 41.2493 83.9821 41.324C83.9821 41.3986 83.9261 41.4546 83.8515 41.4546ZM79.4476 41.4546H77.2456C77.171 41.4546 77.115 41.3986 77.115 41.324C77.115 41.2493 77.171 41.1934 77.2456 41.1934H79.4476C79.5222 41.1934 79.5782 41.2493 79.5782 41.324C79.5782 41.3986 79.5222 41.4546 79.4476 41.4546ZM75.0437 41.4546H72.8417C72.7671 41.4546 72.7111 41.3986 72.7111 41.324C72.7111 41.2493 72.7671 41.1934 72.8417 41.1934H75.0437C75.1183 41.1934 75.1743 41.2493 75.1743 41.324C75.1743 41.3986 75.1183 41.4546 75.0437 41.4546ZM70.6398 41.4546H68.4378C68.3632 41.4546 68.3072 41.3986 68.3072 41.324C68.3072 41.2493 68.3632 41.1934 68.4378 41.1934H70.6398C70.7144 41.1934 70.7704 41.2493 70.7704 41.324C70.7704 41.3986 70.7144 41.4546 70.6398 41.4546ZM66.2359 41.4546H64.0339C63.9593 41.4546 63.9033 41.3986 63.9033 41.324C63.9033 41.2493 63.9593 41.1934 64.0339 41.1934H66.2359C66.3105 41.1934 66.3665 41.2493 66.3665 41.324C66.3665 41.3986 66.3105 41.4546 66.2359 41.4546ZM61.8319 41.4546H59.63C59.5554 41.4546 59.4994 41.3986 59.4994 41.324C59.4994 41.2493 59.5554 41.1934 59.63 41.1934H61.8319C61.9066 41.1934 61.9626 41.2493 61.9626 41.324C61.9626 41.3986 61.9066 41.4546 61.8319 41.4546ZM57.428 41.4546H55.2261C55.1514 41.4546 55.0955 41.3986 55.0955 41.324C55.0955 41.2493 55.1514 41.1934 55.2261 41.1934H57.428C57.5027 41.1934 57.5587 41.2493 57.5587 41.324C57.5587 41.3986 57.5027 41.4546 57.428 41.4546Z" fill="black"/>
<path d="M52.9962 41.4546H51.9419C51.8673 41.4546 51.8113 41.3986 51.8113 41.324C51.8113 41.2493 51.8673 41.1934 51.9419 41.1934H52.9962C53.0709 41.1934 53.1269 41.2493 53.1269 41.324C53.1269 41.3986 53.0709 41.4546 52.9962 41.4546Z" fill="black"/>
<path d="M100.077 40.6802H99.0225C98.9478 40.6802 98.8918 40.6242 98.8918 40.5496C98.8918 40.4749 98.9478 40.4189 99.0225 40.4189H100.077C100.151 40.4189 100.207 40.4749 100.207 40.5496C100.207 40.6242 100.151 40.6802 100.077 40.6802Z" fill="black"/>
<path d="M96.8393 40.6802H94.656C94.5814 40.6802 94.5254 40.6242 94.5254 40.5496C94.5254 40.4749 94.5814 40.4189 94.656 40.4189H96.8393C96.9139 40.4189 96.9699 40.4749 96.9699 40.5496C96.9699 40.6242 96.9139 40.6802 96.8393 40.6802ZM92.482 40.6802H90.2987C90.2241 40.6802 90.1681 40.6242 90.1681 40.5496C90.1681 40.4749 90.2241 40.4189 90.2987 40.4189H92.482C92.5567 40.4189 92.6127 40.4749 92.6127 40.5496C92.6127 40.6242 92.5567 40.6802 92.482 40.6802ZM88.1248 40.6802H85.9415C85.8668 40.6802 85.8109 40.6242 85.8109 40.5496C85.8109 40.4749 85.8668 40.4189 85.9415 40.4189H88.1248C88.1994 40.4189 88.2554 40.4749 88.2554 40.5496C88.2554 40.6242 88.1994 40.6802 88.1248 40.6802ZM83.7675 40.6802H81.5842C81.5096 40.6802 81.4536 40.6242 81.4536 40.5496C81.4536 40.4749 81.5096 40.4189 81.5842 40.4189H83.7675C83.8422 40.4189 83.8981 40.4749 83.8981 40.5496C83.8981 40.6242 83.8422 40.6802 83.7675 40.6802ZM79.4103 40.6802H77.227C77.1523 40.6802 77.0963 40.6242 77.0963 40.5496C77.0963 40.4749 77.1523 40.4189 77.227 40.4189H79.4103C79.4849 40.4189 79.5409 40.4749 79.5409 40.5496C79.5409 40.6242 79.4849 40.6802 79.4103 40.6802ZM75.053 40.6802H72.8697C72.7951 40.6802 72.7391 40.6242 72.7391 40.5496C72.7391 40.4749 72.7951 40.4189 72.8697 40.4189H75.053C75.1277 40.4189 75.1836 40.4749 75.1836 40.5496C75.1836 40.6242 75.1277 40.6802 75.053 40.6802ZM70.6957 40.6802H68.5125C68.4378 40.6802 68.3818 40.6242 68.3818 40.5496C68.3818 40.4749 68.4378 40.4189 68.5125 40.4189H70.6957C70.7704 40.4189 70.8264 40.4749 70.8264 40.5496C70.8264 40.6242 70.7704 40.6802 70.6957 40.6802ZM66.3385 40.6802H64.1552C64.0806 40.6802 64.0246 40.6242 64.0246 40.5496C64.0246 40.4749 64.0806 40.4189 64.1552 40.4189H66.3385C66.4131 40.4189 66.4691 40.4749 66.4691 40.5496C66.4691 40.6242 66.4131 40.6802 66.3385 40.6802ZM61.9812 40.6802H59.7979C59.7233 40.6802 59.6673 40.6242 59.6673 40.5496C59.6673 40.4749 59.7233 40.4189 59.7979 40.4189H61.9812C62.0559 40.4189 62.1119 40.4749 62.1119 40.5496C62.1119 40.6242 62.0559 40.6802 61.9812 40.6802ZM57.624 40.6802H55.4407C55.366 40.6802 55.3101 40.6242 55.3101 40.5496C55.3101 40.4749 55.366 40.4189 55.4407 40.4189H57.624C57.6986 40.4189 57.7546 40.4749 57.7546 40.5496C57.7546 40.6242 57.6986 40.6802 57.624 40.6802Z" fill="black"/>
<path d="M53.2479 40.6802H52.1936C52.119 40.6802 52.063 40.6242 52.063 40.5496C52.063 40.4749 52.119 40.4189 52.1936 40.4189H53.2479C53.3226 40.4189 53.3786 40.4749 53.3786 40.5496C53.3786 40.6242 53.3226 40.6802 53.2479 40.6802Z" fill="black"/>
<path d="M100.319 161.694H99.2651C99.1905 161.694 99.1345 161.638 99.1345 161.564C99.1345 161.489 99.1905 161.433 99.2651 161.433H100.319C100.394 161.433 100.45 161.489 100.45 161.564C100.45 161.638 100.394 161.694 100.319 161.694Z" fill="black"/>
<path d="M97.0632 161.694H94.8613C94.7866 161.694 94.7306 161.638 94.7306 161.564C94.7306 161.489 94.7866 161.433 94.8613 161.433H97.0632C97.1379 161.433 97.1938 161.489 97.1938 161.564C97.1938 161.638 97.1379 161.694 97.0632 161.694ZM92.6593 161.694H90.4574C90.3827 161.694 90.3267 161.638 90.3267 161.564C90.3267 161.489 90.3827 161.433 90.4574 161.433H92.6593C92.7339 161.433 92.7899 161.489 92.7899 161.564C92.7899 161.638 92.7339 161.694 92.6593 161.694ZM88.2554 161.694H86.0534C85.9788 161.694 85.9228 161.638 85.9228 161.564C85.9228 161.489 85.9788 161.433 86.0534 161.433H88.2554C88.33 161.433 88.386 161.489 88.386 161.564C88.386 161.638 88.33 161.694 88.2554 161.694ZM83.8515 161.694H81.6495C81.5749 161.694 81.5189 161.638 81.5189 161.564C81.5189 161.489 81.5749 161.433 81.6495 161.433H83.8515C83.9261 161.433 83.9821 161.489 83.9821 161.564C83.9821 161.638 83.9261 161.694 83.8515 161.694ZM79.4476 161.694H77.2456C77.171 161.694 77.115 161.638 77.115 161.564C77.115 161.489 77.171 161.433 77.2456 161.433H79.4476C79.5222 161.433 79.5782 161.489 79.5782 161.564C79.5782 161.638 79.5222 161.694 79.4476 161.694ZM75.0437 161.694H72.8417C72.7671 161.694 72.7111 161.638 72.7111 161.564C72.7111 161.489 72.7671 161.433 72.8417 161.433H75.0437C75.1183 161.433 75.1743 161.489 75.1743 161.564C75.1743 161.638 75.1183 161.694 75.0437 161.694ZM70.6398 161.694H68.4378C68.3632 161.694 68.3072 161.638 68.3072 161.564C68.3072 161.489 68.3632 161.433 68.4378 161.433H70.6398C70.7144 161.433 70.7704 161.489 70.7704 161.564C70.7704 161.638 70.7144 161.694 70.6398 161.694ZM66.2359 161.694H64.0339C63.9593 161.694 63.9033 161.638 63.9033 161.564C63.9033 161.489 63.9593 161.433 64.0339 161.433H66.2359C66.3105 161.433 66.3665 161.489 66.3665 161.564C66.3665 161.638 66.3105 161.694 66.2359 161.694ZM61.8319 161.694H59.63C59.5554 161.694 59.4994 161.638 59.4994 161.564C59.4994 161.489 59.5554 161.433 59.63 161.433H61.8319C61.9066 161.433 61.9626 161.489 61.9626 161.564C61.9626 161.638 61.9066 161.694 61.8319 161.694ZM57.428 161.694H55.2261C55.1514 161.694 55.0955 161.638 55.0955 161.564C55.0955 161.489 55.1514 161.433 55.2261 161.433H57.428C57.5027 161.433 57.5587 161.489 57.5587 161.564C57.5587 161.638 57.5027 161.694 57.428 161.694Z" fill="black"/>
<path d="M52.9962 161.694H51.9419C51.8673 161.694 51.8113 161.638 51.8113 161.564C51.8113 161.489 51.8673 161.433 51.9419 161.433H52.9962C53.0709 161.433 53.1269 161.489 53.1269 161.564C53.1269 161.638 53.0709 161.694 52.9962 161.694Z" fill="black"/>
<path d="M100.319 146.542H99.2651C99.1905 146.542 99.1345 146.486 99.1345 146.411C99.1345 146.336 99.1905 146.281 99.2651 146.281H100.319C100.394 146.281 100.45 146.336 100.45 146.411C100.45 146.486 100.394 146.542 100.319 146.542Z" fill="black"/>
<path d="M97.0632 146.542H94.8613C94.7866 146.542 94.7306 146.486 94.7306 146.411C94.7306 146.336 94.7866 146.281 94.8613 146.281H97.0632C97.1379 146.281 97.1938 146.336 97.1938 146.411C97.1938 146.486 97.1379 146.542 97.0632 146.542ZM92.6593 146.542H90.4574C90.3827 146.542 90.3267 146.486 90.3267 146.411C90.3267 146.336 90.3827 146.281 90.4574 146.281H92.6593C92.7339 146.281 92.7899 146.336 92.7899 146.411C92.7899 146.486 92.7339 146.542 92.6593 146.542ZM88.2554 146.542H86.0534C85.9788 146.542 85.9228 146.486 85.9228 146.411C85.9228 146.336 85.9788 146.281 86.0534 146.281H88.2554C88.33 146.281 88.386 146.336 88.386 146.411C88.386 146.486 88.33 146.542 88.2554 146.542ZM83.8515 146.542H81.6495C81.5749 146.542 81.5189 146.486 81.5189 146.411C81.5189 146.336 81.5749 146.281 81.6495 146.281H83.8515C83.9261 146.281 83.9821 146.336 83.9821 146.411C83.9821 146.486 83.9261 146.542 83.8515 146.542ZM79.4476 146.542H77.2456C77.171 146.542 77.115 146.486 77.115 146.411C77.115 146.336 77.171 146.281 77.2456 146.281H79.4476C79.5222 146.281 79.5782 146.336 79.5782 146.411C79.5782 146.486 79.5222 146.542 79.4476 146.542ZM75.0437 146.542H72.8417C72.7671 146.542 72.7111 146.486 72.7111 146.411C72.7111 146.336 72.7671 146.281 72.8417 146.281H75.0437C75.1183 146.281 75.1743 146.336 75.1743 146.411C75.1743 146.486 75.1183 146.542 75.0437 146.542ZM70.6398 146.542H68.4378C68.3632 146.542 68.3072 146.486 68.3072 146.411C68.3072 146.336 68.3632 146.281 68.4378 146.281H70.6398C70.7144 146.281 70.7704 146.336 70.7704 146.411C70.7704 146.486 70.7144 146.542 70.6398 146.542ZM66.2359 146.542H64.0339C63.9593 146.542 63.9033 146.486 63.9033 146.411C63.9033 146.336 63.9593 146.281 64.0339 146.281H66.2359C66.3105 146.281 66.3665 146.336 66.3665 146.411C66.3665 146.486 66.3105 146.542 66.2359 146.542ZM61.8319 146.542H59.63C59.5554 146.542 59.4994 146.486 59.4994 146.411C59.4994 146.336 59.5554 146.281 59.63 146.281H61.8319C61.9066 146.281 61.9626 146.336 61.9626 146.411C61.9626 146.486 61.9066 146.542 61.8319 146.542ZM57.428 146.542H55.2261C55.1514 146.542 55.0955 146.486 55.0955 146.411C55.0955 146.336 55.1514 146.281 55.2261 146.281H57.428C57.5027 146.281 57.5587 146.336 57.5587 146.411C57.5587 146.486 57.5027 146.542 57.428 146.542Z" fill="black"/>
<path d="M52.9962 146.542H51.9419C51.8673 146.542 51.8113 146.486 51.8113 146.411C51.8113 146.336 51.8673 146.281 51.9419 146.281H52.9962C53.0709 146.281 53.1269 146.336 53.1269 146.411C53.1269 146.486 53.0709 146.542 52.9962 146.542Z" fill="black"/>
<path d="M100.077 147.316H99.0225C98.9478 147.316 98.8918 147.26 98.8918 147.186C98.8918 147.111 98.9478 147.055 99.0225 147.055H100.077C100.151 147.055 100.207 147.111 100.207 147.186C100.207 147.26 100.151 147.316 100.077 147.316Z" fill="black"/>
<path d="M96.8393 147.316H94.656C94.5814 147.316 94.5254 147.26 94.5254 147.186C94.5254 147.111 94.5814 147.055 94.656 147.055H96.8393C96.9139 147.055 96.9699 147.111 96.9699 147.186C96.9699 147.26 96.9139 147.316 96.8393 147.316ZM92.482 147.316H90.2987C90.2241 147.316 90.1681 147.26 90.1681 147.186C90.1681 147.111 90.2241 147.055 90.2987 147.055H92.482C92.5567 147.055 92.6127 147.111 92.6127 147.186C92.6127 147.26 92.5567 147.316 92.482 147.316ZM88.1248 147.316H85.9415C85.8668 147.316 85.8109 147.26 85.8109 147.186C85.8109 147.111 85.8668 147.055 85.9415 147.055H88.1248C88.1994 147.055 88.2554 147.111 88.2554 147.186C88.2554 147.26 88.1994 147.316 88.1248 147.316ZM83.7675 147.316H81.5842C81.5096 147.316 81.4536 147.26 81.4536 147.186C81.4536 147.111 81.5096 147.055 81.5842 147.055H83.7675C83.8422 147.055 83.8981 147.111 83.8981 147.186C83.8981 147.26 83.8422 147.316 83.7675 147.316ZM79.4103 147.316H77.227C77.1523 147.316 77.0963 147.26 77.0963 147.186C77.0963 147.111 77.1523 147.055 77.227 147.055H79.4103C79.4849 147.055 79.5409 147.111 79.5409 147.186C79.5409 147.26 79.4849 147.316 79.4103 147.316ZM75.053 147.316H72.8697C72.7951 147.316 72.7391 147.26 72.7391 147.186C72.7391 147.111 72.7951 147.055 72.8697 147.055H75.053C75.1277 147.055 75.1836 147.111 75.1836 147.186C75.1836 147.26 75.1277 147.316 75.053 147.316ZM70.6957 147.316H68.5125C68.4378 147.316 68.3818 147.26 68.3818 147.186C68.3818 147.111 68.4378 147.055 68.5125 147.055H70.6957C70.7704 147.055 70.8264 147.111 70.8264 147.186C70.8264 147.26 70.7704 147.316 70.6957 147.316ZM66.3385 147.316H64.1552C64.0806 147.316 64.0246 147.26 64.0246 147.186C64.0246 147.111 64.0806 147.055 64.1552 147.055H66.3385C66.4131 147.055 66.4691 147.111 66.4691 147.186C66.4691 147.26 66.4131 147.316 66.3385 147.316ZM61.9812 147.316H59.7979C59.7233 147.316 59.6673 147.26 59.6673 147.186C59.6673 147.111 59.7233 147.055 59.7979 147.055H61.9812C62.0559 147.055 62.1119 147.111 62.1119 147.186C62.1119 147.26 62.0559 147.316 61.9812 147.316ZM57.624 147.316H55.4407C55.366 147.316 55.3101 147.26 55.3101 147.186C55.3101 147.111 55.366 147.055 55.4407 147.055H57.624C57.6986 147.055 57.7546 147.111 57.7546 147.186C57.7546 147.26 57.6986 147.316 57.624 147.316Z" fill="black"/>
<path d="M53.2479 147.316H52.1936C52.119 147.316 52.063 147.26 52.063 147.186C52.063 147.111 52.119 147.055 52.1936 147.055H53.2479C53.3226 147.055 53.3786 147.111 53.3786 147.186C53.3786 147.26 53.3226 147.316 53.2479 147.316Z" fill="black"/>
<path d="M93.7137 61.9907H55.6926V123.244H93.7137V61.9907Z" fill="#FFE3A4"/>
<path d="M159.184 67.2622H154.958V120.062H159.184V67.2622Z" fill="#FFE3A4"/>
<path d="M135.952 120.072C143.532 120.072 149.677 108.488 149.677 94.1989C149.677 79.9096 143.532 68.3259 135.952 68.3259C128.372 68.3259 122.227 79.9096 122.227 94.1989C122.227 108.488 128.372 120.072 135.952 120.072Z" fill="#FFE3A4"/>
<path d="M8.63596 79.5153L0.229492 79.5652L0.538606 131.655L8.94507 131.606L8.63596 79.5153Z" fill="#FFD788"/>
<path d="M0.541158 131.884C0.410534 131.884 0.3079 131.781 0.3079 131.651L0 79.569C0 79.4383 0.102633 79.3357 0.233258 79.3357L8.63987 79.2891C8.72384 79.2891 8.76117 79.3171 8.80782 79.3544C8.85447 79.401 8.87313 79.457 8.87313 79.5223L9.18103 131.613C9.18103 131.679 9.15304 131.735 9.11572 131.781C9.0784 131.828 9.01308 131.847 8.94777 131.847L0.541158 131.893V131.884ZM0.466516 79.7929L0.774416 131.418L8.71451 131.371L8.40661 79.7462L0.466516 79.7929Z" fill="black"/>
<path d="M2.85512 131.492C2.7245 131.492 2.62187 131.39 2.62187 131.259L2.31396 79.6903C2.31396 79.5597 2.4166 79.457 2.54722 79.457C2.67785 79.457 2.78048 79.5597 2.78048 79.6903L3.08838 131.259C3.08838 131.39 2.98575 131.492 2.85512 131.492Z" fill="black"/>
<path d="M6.21401 131.474C6.08339 131.474 5.98075 131.371 5.98075 131.24L5.67285 79.6717C5.67285 79.5411 5.77549 79.4385 5.90611 79.4385C6.03673 79.4385 6.13937 79.5411 6.13937 79.6717L6.44727 131.24C6.44727 131.371 6.34463 131.474 6.21401 131.474Z" fill="black"/>
<path d="M0.279822 79.8023C0.195849 79.8023 0.121207 79.7557 0.0745552 79.6904C0.0372339 79.6157 0.0279036 79.5318 0.0745552 79.4571L2.50977 75.1745C2.54709 75.0999 2.63106 75.0532 2.71503 75.0532H6.1206C6.20457 75.0532 6.27922 75.0999 6.32587 75.1652L8.80773 79.4011C8.84505 79.4758 8.85438 79.5598 8.80773 79.6344C8.77041 79.709 8.68644 79.7557 8.61179 79.7557L0.289152 79.8023H0.279822ZM2.85499 75.5197L0.681026 79.3358L8.20126 79.2892L5.99931 75.5197H2.85499Z" fill="black"/>
<path d="M4.39454 72.3286L2.71509 75.2863H6.12065L4.39454 72.3286Z" fill="#FFBB00"/>
<path d="M6.12069 75.5196H2.71512C2.63115 75.5196 2.55651 75.473 2.50986 75.4077C2.47254 75.333 2.46321 75.2491 2.50986 75.1744L4.18931 72.226C4.22664 72.1514 4.30128 72.1327 4.39458 72.1047C4.47855 72.1047 4.5532 72.1514 4.59985 72.2167L6.32596 75.1651C6.36328 75.2397 6.37261 75.3237 6.32596 75.3983C6.28864 75.473 6.20466 75.5196 6.12069 75.5196ZM3.11633 75.0531H5.71949L4.40391 72.8045L3.11633 75.0531Z" fill="black"/>
<path d="M0.541017 131.651C0.541017 131.651 0.438383 134.506 4.43176 134.506C8.42513 134.506 8.94763 132.845 8.94763 131.604" fill="#FFBB00"/>
<path d="M4.44121 134.739C2.96702 134.739 1.84738 134.357 1.12895 133.619C0.28922 132.742 0.307881 131.688 0.317211 131.641C0.317211 131.52 0.429175 131.418 0.550469 131.418C0.681093 131.418 0.783727 131.529 0.774396 131.66C0.774396 131.66 0.755736 132.574 1.46484 133.302C2.08997 133.946 3.08831 134.273 4.43188 134.273C8.27597 134.273 8.7145 132.752 8.7145 131.604C8.7145 131.473 8.81713 131.371 8.94775 131.371C9.07838 131.371 9.18101 131.473 9.18101 131.604C9.18101 133.713 7.62285 134.739 4.43188 134.739H4.44121Z" fill="black"/>
<path d="M152.863 34.0775C158.604 31.7393 161.363 25.1896 159.024 19.4485C156.686 13.7073 150.136 10.9487 144.395 13.287C138.654 15.6252 135.896 22.1749 138.234 27.916C140.572 33.6572 147.122 36.4158 152.863 34.0775Z" fill="#FFCD65"/>
<path d="M136.337 34.0775C142.078 31.7393 144.837 25.1896 142.499 19.4485C140.16 13.7073 133.611 10.9487 127.87 13.287C122.128 15.6252 119.37 22.1749 121.708 27.916C124.046 33.6572 130.596 36.4158 136.337 34.0775Z" fill="#FFF1D2"/>
<path d="M128.777 11.4575C128.777 5.25286 133.806 0.233154 140.001 0.233154C146.197 0.233154 151.226 5.26219 151.226 11.4575C151.226 17.6529 146.197 22.6819 140.001 22.6819C133.806 22.6819 128.777 17.6529 128.777 11.4575Z" fill="#FFE3A4"/>
<path d="M137.771 22.1967C138.49 22.346 139.236 22.4299 140.001 22.4299C141.018 22.4299 141.989 22.2806 142.922 22.0194C142.604 19.9294 141.69 18.026 140.365 16.4958C138.994 18.0727 138.07 20.032 137.781 22.1967H137.771Z" fill="white"/>
<path d="M148.622 35.1379C142.306 35.1379 137.165 29.9969 137.165 23.6803C137.165 17.3637 142.306 12.2227 148.622 12.2227C154.939 12.2227 160.08 17.3637 160.08 23.6803C160.08 29.9969 154.939 35.1379 148.622 35.1379ZM148.622 12.6798C142.558 12.6798 137.631 17.6156 137.631 23.671C137.631 29.7263 142.567 34.6621 148.622 34.6621C154.678 34.6621 159.614 29.7263 159.614 23.671C159.614 17.6156 154.678 12.6798 148.622 12.6798Z" fill="#231815"/>
<path d="M132.098 35.1379C125.782 35.1379 120.641 29.9969 120.641 23.6803C120.641 17.3637 125.782 12.2227 132.098 12.2227C138.415 12.2227 143.556 17.3637 143.556 23.6803C143.556 29.9969 138.415 35.1379 132.098 35.1379ZM132.098 12.6798C126.034 12.6798 121.107 17.6156 121.107 23.671C121.107 29.7263 126.043 34.6621 132.098 34.6621C138.154 34.6621 143.09 29.7263 143.09 23.671C143.09 17.6156 138.154 12.6798 132.098 12.6798Z" fill="#231815"/>
<path d="M140.001 22.9245C133.685 22.9245 128.544 17.7835 128.544 11.4669C128.544 5.15028 133.685 0.00927734 140.001 0.00927734C146.318 0.00927734 151.459 5.15028 151.459 11.4669C151.459 17.7835 146.318 22.9245 140.001 22.9245ZM140.001 0.466463C133.937 0.466463 129.01 5.4022 129.01 11.4576C129.01 17.5129 133.946 22.4487 140.001 22.4487C146.057 22.4487 150.992 17.5129 150.992 11.4576C150.992 5.4022 146.057 0.466463 140.001 0.466463Z" fill="#231815"/>
<path d="M29.232 53.0146H16.4868V135.756H29.232V53.0146Z" fill="#FFE3A4"/>
<path d="M29.4652 135.989H16.2441V52.7815H29.4652V135.989ZM16.7107 135.523H28.9987V53.248H16.7107V135.523Z" fill="black"/>
<path d="M24.3054 57.0641C24.3054 57.9038 23.6242 58.5849 22.7845 58.5849C21.9448 58.5849 21.2637 57.9038 21.2637 57.0641C21.2637 56.2243 21.9448 55.5432 22.7845 55.5432C23.6242 55.5432 24.3054 56.2243 24.3054 57.0641Z" fill="white"/>
<path d="M22.7846 58.8183C21.8143 58.8183 21.0305 58.0345 21.0305 57.0642C21.0305 56.0938 21.8143 55.3101 22.7846 55.3101C23.755 55.3101 24.5387 56.0938 24.5387 57.0642C24.5387 58.0345 23.755 58.8183 22.7846 58.8183ZM22.7846 55.7766C22.0755 55.7766 21.497 56.3551 21.497 57.0642C21.497 57.7733 22.0755 58.3517 22.7846 58.3517C23.4937 58.3517 24.0722 57.7733 24.0722 57.0642C24.0722 56.3551 23.4937 55.7766 22.7846 55.7766Z" fill="black"/>
<path d="M22.8593 133.414H16.4867C16.3561 133.414 16.2534 133.311 16.2534 133.181C16.2534 133.05 16.3561 132.947 16.4867 132.947H22.8593C22.9899 132.947 23.0925 133.05 23.0925 133.181C23.0925 133.311 22.9899 133.414 22.8593 133.414Z" fill="black"/>
<path d="M19.6684 131.66H16.4774C16.3468 131.66 16.2441 131.557 16.2441 131.426C16.2441 131.296 16.3468 131.193 16.4774 131.193H19.6684C19.799 131.193 19.9016 131.296 19.9016 131.426C19.9016 131.557 19.799 131.66 19.6684 131.66Z" fill="black"/>
<path d="M19.6684 129.747H16.4774C16.3468 129.747 16.2441 129.644 16.2441 129.514C16.2441 129.383 16.3468 129.281 16.4774 129.281H19.6684C19.799 129.281 19.9016 129.383 19.9016 129.514C19.9016 129.644 19.799 129.747 19.6684 129.747Z" fill="black"/>
<path d="M19.6684 127.834H16.4774C16.3468 127.834 16.2441 127.732 16.2441 127.601C16.2441 127.47 16.3468 127.368 16.4774 127.368H19.6684C19.799 127.368 19.9016 127.47 19.9016 127.601C19.9016 127.732 19.799 127.834 19.6684 127.834Z" fill="black"/>
<path d="M19.6684 125.922H16.4774C16.3468 125.922 16.2441 125.819 16.2441 125.688C16.2441 125.558 16.3468 125.455 16.4774 125.455H19.6684C19.799 125.455 19.9016 125.558 19.9016 125.688C19.9016 125.819 19.799 125.922 19.6684 125.922Z" fill="black"/>
<path d="M22.8593 123.85H16.4867C16.3561 123.85 16.2534 123.748 16.2534 123.617C16.2534 123.486 16.3561 123.384 16.4867 123.384H22.8593C22.9899 123.384 23.0925 123.486 23.0925 123.617C23.0925 123.748 22.9899 123.85 22.8593 123.85Z" fill="black"/>
<path d="M19.6684 122.096H16.4774C16.3468 122.096 16.2441 121.994 16.2441 121.863C16.2441 121.732 16.3468 121.63 16.4774 121.63H19.6684C19.799 121.63 19.9016 121.732 19.9016 121.863C19.9016 121.994 19.799 122.096 19.6684 122.096Z" fill="black"/>
<path d="M19.6684 120.184H16.4774C16.3468 120.184 16.2441 120.081 16.2441 119.95C16.2441 119.82 16.3468 119.717 16.4774 119.717H19.6684C19.799 119.717 19.9016 119.82 19.9016 119.95C19.9016 120.081 19.799 120.184 19.6684 120.184Z" fill="black"/>
<path d="M19.6684 118.271H16.4774C16.3468 118.271 16.2441 118.168 16.2441 118.037C16.2441 117.907 16.3468 117.804 16.4774 117.804H19.6684C19.799 117.804 19.9016 117.907 19.9016 118.037C19.9016 118.168 19.799 118.271 19.6684 118.271Z" fill="black"/>
<path d="M19.6684 116.358H16.4774C16.3468 116.358 16.2441 116.255 16.2441 116.125C16.2441 115.994 16.3468 115.892 16.4774 115.892H19.6684C19.799 115.892 19.9016 115.994 19.9016 116.125C19.9016 116.255 19.799 116.358 19.6684 116.358Z" fill="black"/>
<path d="M22.8593 114.296H16.4867C16.3561 114.296 16.2534 114.193 16.2534 114.063C16.2534 113.932 16.3561 113.83 16.4867 113.83H22.8593C22.9899 113.83 23.0925 113.932 23.0925 114.063C23.0925 114.193 22.9899 114.296 22.8593 114.296Z" fill="black"/>
<path d="M19.6684 112.542H16.4774C16.3468 112.542 16.2441 112.439 16.2441 112.309C16.2441 112.178 16.3468 112.075 16.4774 112.075H19.6684C19.799 112.075 19.9016 112.178 19.9016 112.309C19.9016 112.439 19.799 112.542 19.6684 112.542Z" fill="black"/>
<path d="M19.6684 110.629H16.4774C16.3468 110.629 16.2441 110.527 16.2441 110.396C16.2441 110.265 16.3468 110.163 16.4774 110.163H19.6684C19.799 110.163 19.9016 110.265 19.9016 110.396C19.9016 110.527 19.799 110.629 19.6684 110.629Z" fill="black"/>
<path d="M19.6684 108.717H16.4774C16.3468 108.717 16.2441 108.614 16.2441 108.483C16.2441 108.353 16.3468 108.25 16.4774 108.25H19.6684C19.799 108.25 19.9016 108.353 19.9016 108.483C19.9016 108.614 19.799 108.717 19.6684 108.717Z" fill="black"/>
<path d="M19.6684 106.804H16.4774C16.3468 106.804 16.2441 106.701 16.2441 106.571C16.2441 106.44 16.3468 106.337 16.4774 106.337H19.6684C19.799 106.337 19.9016 106.44 19.9016 106.571C19.9016 106.701 19.799 106.804 19.6684 106.804Z" fill="black"/>
<path d="M22.8593 104.733H16.4867C16.3561 104.733 16.2534 104.63 16.2534 104.499C16.2534 104.369 16.3561 104.266 16.4867 104.266H22.8593C22.9899 104.266 23.0925 104.369 23.0925 104.499C23.0925 104.63 22.9899 104.733 22.8593 104.733Z" fill="black"/>
<path d="M19.6684 102.978H16.4774C16.3468 102.978 16.2441 102.876 16.2441 102.745C16.2441 102.615 16.3468 102.512 16.4774 102.512H19.6684C19.799 102.512 19.9016 102.615 19.9016 102.745C19.9016 102.876 19.799 102.978 19.6684 102.978Z" fill="black"/>
<path d="M19.6684 101.066H16.4774C16.3468 101.066 16.2441 100.963 16.2441 100.833C16.2441 100.702 16.3468 100.599 16.4774 100.599H19.6684C19.799 100.599 19.9016 100.702 19.9016 100.833C19.9016 100.963 19.799 101.066 19.6684 101.066Z" fill="black"/>
<path d="M19.6684 99.153H16.4774C16.3468 99.153 16.2441 99.0504 16.2441 98.9198C16.2441 98.7892 16.3468 98.6865 16.4774 98.6865H19.6684C19.799 98.6865 19.9016 98.7892 19.9016 98.9198C19.9016 99.0504 19.799 99.153 19.6684 99.153Z" fill="black"/>
<path d="M19.6684 97.2404H16.4774C16.3468 97.2404 16.2441 97.1378 16.2441 97.0072C16.2441 96.8766 16.3468 96.7739 16.4774 96.7739H19.6684C19.799 96.7739 19.9016 96.8766 19.9016 97.0072C19.9016 97.1378 19.799 97.2404 19.6684 97.2404Z" fill="black"/>
<path d="M22.8593 95.1689H16.4867C16.3561 95.1689 16.2534 95.0663 16.2534 94.9357C16.2534 94.805 16.3561 94.7024 16.4867 94.7024H22.8593C22.9899 94.7024 23.0925 94.805 23.0925 94.9357C23.0925 95.0663 22.9899 95.1689 22.8593 95.1689Z" fill="black"/>
<path d="M19.6684 93.4148H16.4774C16.3468 93.4148 16.2441 93.3121 16.2441 93.1815C16.2441 93.0509 16.3468 92.9482 16.4774 92.9482H19.6684C19.799 92.9482 19.9016 93.0509 19.9016 93.1815C19.9016 93.3121 19.799 93.4148 19.6684 93.4148Z" fill="black"/>
<path d="M19.6684 91.5022H16.4774C16.3468 91.5022 16.2441 91.3995 16.2441 91.2689C16.2441 91.1383 16.3468 91.0356 16.4774 91.0356H19.6684C19.799 91.0356 19.9016 91.1383 19.9016 91.2689C19.9016 91.3995 19.799 91.5022 19.6684 91.5022Z" fill="black"/>
<path d="M19.6684 89.5893H16.4774C16.3468 89.5893 16.2441 89.4867 16.2441 89.3561C16.2441 89.2254 16.3468 89.1228 16.4774 89.1228H19.6684C19.799 89.1228 19.9016 89.2254 19.9016 89.3561C19.9016 89.4867 19.799 89.5893 19.6684 89.5893Z" fill="black"/>
<path d="M19.6684 87.6767H16.4774C16.3468 87.6767 16.2441 87.5741 16.2441 87.4435C16.2441 87.3128 16.3468 87.2102 16.4774 87.2102H19.6684C19.799 87.2102 19.9016 87.3128 19.9016 87.4435C19.9016 87.5741 19.799 87.6767 19.6684 87.6767Z" fill="black"/>
<path d="M22.8593 85.6054H16.4867C16.3561 85.6054 16.2534 85.5028 16.2534 85.3722C16.2534 85.2415 16.3561 85.1389 16.4867 85.1389H22.8593C22.9899 85.1389 23.0925 85.2415 23.0925 85.3722C23.0925 85.5028 22.9899 85.6054 22.8593 85.6054Z" fill="black"/>
<path d="M19.6684 83.8513H16.4774C16.3468 83.8513 16.2441 83.7486 16.2441 83.618C16.2441 83.4874 16.3468 83.3848 16.4774 83.3848H19.6684C19.799 83.3848 19.9016 83.4874 19.9016 83.618C19.9016 83.7486 19.799 83.8513 19.6684 83.8513Z" fill="black"/>
<path d="M19.6684 81.9387H16.4774C16.3468 81.9387 16.2441 81.8361 16.2441 81.7054C16.2441 81.5748 16.3468 81.4722 16.4774 81.4722H19.6684C19.799 81.4722 19.9016 81.5748 19.9016 81.7054C19.9016 81.8361 19.799 81.9387 19.6684 81.9387Z" fill="black"/>
<path d="M19.6684 80.0258H16.4774C16.3468 80.0258 16.2441 79.9232 16.2441 79.7926C16.2441 79.662 16.3468 79.5593 16.4774 79.5593H19.6684C19.799 79.5593 19.9016 79.662 19.9016 79.7926C19.9016 79.9232 19.799 80.0258 19.6684 80.0258Z" fill="black"/>
<path d="M19.6684 78.1132H16.4774C16.3468 78.1132 16.2441 78.0106 16.2441 77.88C16.2441 77.7494 16.3468 77.6467 16.4774 77.6467H19.6684C19.799 77.6467 19.9016 77.7494 19.9016 77.88C19.9016 78.0106 19.799 78.1132 19.6684 78.1132Z" fill="black"/>
<path d="M22.8593 76.0417H16.4867C16.3561 76.0417 16.2534 75.9391 16.2534 75.8085C16.2534 75.6778 16.3561 75.5752 16.4867 75.5752H22.8593C22.9899 75.5752 23.0925 75.6778 23.0925 75.8085C23.0925 75.9391 22.9899 76.0417 22.8593 76.0417Z" fill="black"/>
<path d="M19.6684 74.2876H16.4774C16.3468 74.2876 16.2441 74.1849 16.2441 74.0543C16.2441 73.9237 16.3468 73.821 16.4774 73.821H19.6684C19.799 73.821 19.9016 73.9237 19.9016 74.0543C19.9016 74.1849 19.799 74.2876 19.6684 74.2876Z" fill="black"/>
<path d="M19.6684 72.375H16.4774C16.3468 72.375 16.2441 72.2723 16.2441 72.1417C16.2441 72.0111 16.3468 71.9084 16.4774 71.9084H19.6684C19.799 71.9084 19.9016 72.0111 19.9016 72.1417C19.9016 72.2723 19.799 72.375 19.6684 72.375Z" fill="black"/>
<path d="M19.6684 70.4621H16.4774C16.3468 70.4621 16.2441 70.3595 16.2441 70.2289C16.2441 70.0982 16.3468 69.9956 16.4774 69.9956H19.6684C19.799 69.9956 19.9016 70.0982 19.9016 70.2289C19.9016 70.3595 19.799 70.4621 19.6684 70.4621Z" fill="black"/>
<path d="M19.6684 68.5495H16.4774C16.3468 68.5495 16.2441 68.4469 16.2441 68.3163C16.2441 68.1856 16.3468 68.083 16.4774 68.083H19.6684C19.799 68.083 19.9016 68.1856 19.9016 68.3163C19.9016 68.4469 19.799 68.5495 19.6684 68.5495Z" fill="black"/>
<path d="M22.8593 66.4782H16.4867C16.3561 66.4782 16.2534 66.3756 16.2534 66.245C16.2534 66.1144 16.3561 66.0117 16.4867 66.0117H22.8593C22.9899 66.0117 23.0925 66.1144 23.0925 66.245C23.0925 66.3756 22.9899 66.4782 22.8593 66.4782Z" fill="black"/>
<path d="M19.6684 64.7241H16.4774C16.3468 64.7241 16.2441 64.6215 16.2441 64.4908C16.2441 64.3602 16.3468 64.2576 16.4774 64.2576H19.6684C19.799 64.2576 19.9016 64.3602 19.9016 64.4908C19.9016 64.6215 19.799 64.7241 19.6684 64.7241Z" fill="black"/>
<path d="M19.6684 62.8115H16.4774C16.3468 62.8115 16.2441 62.7089 16.2441 62.5782C16.2441 62.4476 16.3468 62.345 16.4774 62.345H19.6684C19.799 62.345 19.9016 62.4476 19.9016 62.5782C19.9016 62.7089 19.799 62.8115 19.6684 62.8115Z" fill="black"/>
<path d="M19.6684 60.8986H16.4774C16.3468 60.8986 16.2441 60.796 16.2441 60.6654C16.2441 60.5348 16.3468 60.4321 16.4774 60.4321H19.6684C19.799 60.4321 19.9016 60.5348 19.9016 60.6654C19.9016 60.796 19.799 60.8986 19.6684 60.8986Z" fill="black"/>
<path d="M19.6684 58.986H16.4774C16.3468 58.986 16.2441 58.8834 16.2441 58.7528C16.2441 58.6222 16.3468 58.5195 16.4774 58.5195H19.6684C19.799 58.5195 19.9016 58.6222 19.9016 58.7528C19.9016 58.8834 19.799 58.986 19.6684 58.986Z" fill="black"/>
<path d="M23.2605 149.126L17.7183 152.728C16.9439 153.232 16.72 154.277 17.2238 155.051L21.0026 160.864L29.3626 155.424L25.5838 149.612C25.0799 148.837 24.0349 148.613 23.2605 149.117V149.126Z" fill="#FFF3D9"/>
<path d="M21.0119 161.06C21.0119 161.06 20.984 161.06 20.9746 161.06C20.928 161.05 20.8907 161.022 20.8627 160.985L17.0839 155.172C16.5241 154.314 16.7667 153.157 17.6344 152.597L23.1766 148.996C24.035 148.436 25.1919 148.678 25.7611 149.537L29.5399 155.35C29.5958 155.434 29.5678 155.546 29.4839 155.602L21.1239 161.041C21.1239 161.041 21.0586 161.069 21.0213 161.069L21.0119 161.06ZM23.3632 149.285L17.821 152.886C17.1305 153.334 16.9346 154.267 17.3825 154.958L21.0679 160.621L29.12 155.378L25.4345 149.714C24.9867 149.024 24.0536 148.828 23.3632 149.276V149.285Z" fill="#231815"/>
<path d="M21.012 160.873L24.7907 166.686C25.2946 167.461 26.3396 167.684 27.114 167.181L32.6562 163.579C33.4306 163.075 33.6545 162.03 33.1507 161.256L29.3719 155.443L21.012 160.883V160.873Z" fill="#FFBB00"/>
<path d="M26.209 167.638C25.6025 167.638 24.9961 167.339 24.6415 166.789L20.8627 160.976C20.8627 160.976 20.8254 160.883 20.8347 160.836C20.8441 160.789 20.8721 160.752 20.9094 160.724L29.2694 155.284C29.2694 155.284 29.3533 155.247 29.4093 155.256C29.456 155.266 29.4933 155.294 29.5213 155.331L33.3 161.144C33.8599 162.002 33.6173 163.159 32.7589 163.719L27.2167 167.32C26.9088 167.526 26.5542 167.619 26.1997 167.619L26.209 167.638ZM21.2639 160.929L24.9494 166.593C25.3973 167.283 26.3303 167.479 27.0207 167.031L32.563 163.43C32.8988 163.215 33.1321 162.879 33.2067 162.487C33.2814 162.096 33.2067 161.694 33.0015 161.358L29.316 155.695L21.2639 160.939V160.929Z" fill="#231815"/>
<path d="M27.8698 156.852L23.074 159.978C22.906 160.09 22.6728 160.043 22.5608 159.866C22.4488 159.688 22.4955 159.464 22.6728 159.352L27.4686 156.227C27.6365 156.115 27.8698 156.162 27.9817 156.339C28.0937 156.516 28.047 156.74 27.8698 156.852Z" fill="white"/>
<path d="M22.8687 160.22C22.6914 160.22 22.5141 160.136 22.4021 159.968C22.3182 159.847 22.2902 159.698 22.3275 159.548C22.3555 159.408 22.4395 159.278 22.5701 159.203L27.3659 156.077C27.4872 155.993 27.6364 155.965 27.7764 156.003C27.9257 156.031 28.047 156.115 28.1216 156.245C28.2056 156.367 28.2336 156.516 28.1963 156.665C28.1683 156.805 28.0843 156.936 27.9537 157.01L23.1579 160.136C23.0646 160.192 22.962 160.229 22.8593 160.229L22.8687 160.22ZM27.6644 156.357C27.6644 156.357 27.5898 156.367 27.5618 156.385L22.7567 159.511C22.7567 159.511 22.682 159.576 22.6727 159.632C22.6634 159.679 22.6727 159.735 22.7007 159.772C22.7567 159.856 22.8687 159.884 22.962 159.828L27.7577 156.703C27.7577 156.703 27.8324 156.637 27.8417 156.581C27.851 156.535 27.8417 156.479 27.8137 156.441C27.7857 156.404 27.7484 156.367 27.6924 156.357C27.6831 156.357 27.6644 156.357 27.6551 156.357H27.6644Z" fill="#231815"/>
<path d="M28.9801 162.282L27.5898 163.187C27.4219 163.299 27.1886 163.252 27.0767 163.075C26.9647 162.898 27.0114 162.674 27.1886 162.562L28.5789 161.657C28.7468 161.545 28.9801 161.591 29.092 161.769C29.204 161.946 29.1573 162.17 28.9801 162.282Z" fill="white"/>
<path d="M27.3845 163.43C27.3845 163.43 27.3098 163.43 27.2725 163.42C27.1325 163.392 27.0019 163.308 26.9273 163.178C26.7593 162.926 26.834 162.581 27.0859 162.413L28.4854 161.508C28.7374 161.34 29.0826 161.414 29.2505 161.666C29.3345 161.788 29.3625 161.937 29.3252 162.086C29.2972 162.226 29.2132 162.357 29.0826 162.431L27.6924 163.336C27.5991 163.392 27.4964 163.43 27.3938 163.43H27.3845ZM28.7747 161.787C28.7747 161.787 28.7 161.797 28.672 161.815L27.2818 162.721C27.1979 162.777 27.1699 162.888 27.2258 162.982C27.2538 163.019 27.2912 163.056 27.3471 163.066C27.3938 163.075 27.4498 163.066 27.4871 163.038L28.8773 162.133C28.8773 162.133 28.952 162.067 28.9613 162.011C28.9706 161.965 28.9613 161.909 28.9333 161.871C28.9053 161.834 28.868 161.797 28.812 161.787C28.8027 161.787 28.784 161.787 28.7747 161.787Z" fill="#231815"/>
<path d="M28.3455 159.614L25.4065 161.526C25.2386 161.638 25.0053 161.592 24.8933 161.414C24.7814 161.237 24.828 161.013 25.0053 160.901L27.9443 158.989C28.1123 158.877 28.3455 158.923 28.4575 159.101C28.5695 159.278 28.5228 159.502 28.3455 159.614Z" fill="white"/>
<path d="M25.2012 161.769C25.0239 161.769 24.8466 161.685 24.7347 161.517C24.5667 161.265 24.6413 160.92 24.8933 160.752L27.8323 158.839C27.9536 158.755 28.1029 158.727 28.2522 158.765C28.3921 158.793 28.5228 158.876 28.5974 159.007C28.6814 159.128 28.7094 159.278 28.672 159.427C28.6441 159.567 28.5601 159.698 28.4295 159.772L25.4904 161.685C25.3971 161.741 25.2945 161.778 25.1918 161.778L25.2012 161.769ZM28.1402 159.119C28.1402 159.119 28.0656 159.128 28.0376 159.147L25.0985 161.06C25.0146 161.116 24.9866 161.228 25.0426 161.321C25.0985 161.405 25.2105 161.433 25.3038 161.377L28.2429 159.464C28.3268 159.408 28.3548 159.296 28.2988 159.203C28.2708 159.166 28.2335 159.128 28.1775 159.119C28.1682 159.119 28.1495 159.119 28.1402 159.119Z" fill="#231815"/>
<path d="M219.654 116.545H195.032C194.742 116.545 194.509 116.311 194.509 116.022C194.509 115.733 194.742 115.5 195.032 115.5H219.654C219.943 115.5 220.177 115.733 220.177 116.022C220.177 116.311 219.943 116.545 219.654 116.545Z" fill="#E5B54A"/>
<path d="M219.654 116.778H195.041C194.621 116.778 194.285 116.442 194.285 116.022C194.285 115.602 194.621 115.267 195.041 115.267H219.654C220.074 115.267 220.41 115.602 220.41 116.022C220.41 116.442 220.074 116.778 219.654 116.778ZM195.041 115.733C194.882 115.733 194.752 115.864 194.752 116.022C194.752 116.181 194.882 116.312 195.041 116.312H219.654C219.813 116.312 219.944 116.181 219.944 116.022C219.944 115.864 219.813 115.733 219.654 115.733H195.041Z" fill="black"/>
<path d="M197.56 140.151L195.041 130.316L203.14 96.4753L207.628 97.4084L197.56 140.151Z" fill="#FFF3D9"/>
<path d="M197.569 141.13L194.798 130.326V130.27L202.972 96.2048L207.917 97.2405L207.861 97.4738L197.579 141.14L197.569 141.13ZM195.274 130.316L197.551 139.171L207.348 97.5857L203.308 96.746L195.274 130.316Z" fill="black"/>
<path d="M196.832 144.191C196.832 144.191 196.758 144.191 196.72 144.181C196.441 144.125 196.254 143.845 196.319 143.566L197.056 140.048L207.133 97.2965C207.198 97.0166 207.478 96.8394 207.768 96.9047C208.047 96.97 208.225 97.2499 208.159 97.5391L198.092 140.281L197.364 143.789C197.308 144.032 197.094 144.209 196.851 144.209L196.832 144.191Z" fill="#E5B54A"/>
<path d="M196.832 144.424C196.776 144.424 196.73 144.424 196.674 144.405C196.478 144.368 196.31 144.247 196.198 144.079C196.086 143.911 196.049 143.705 196.086 143.509L196.823 139.992L206.9 97.2311C206.993 96.8299 207.404 96.5687 207.805 96.6713C208.215 96.7646 208.467 97.1751 208.374 97.5857L198.307 140.328L197.579 143.827C197.504 144.181 197.196 144.433 196.842 144.433L196.832 144.424ZM207.637 97.1192C207.506 97.1192 207.385 97.2125 207.357 97.3431L197.28 140.095L196.543 143.603C196.525 143.677 196.543 143.761 196.581 143.827C196.618 143.892 196.692 143.939 196.767 143.948H196.823C196.963 143.948 197.075 143.855 197.103 143.724L197.831 140.216L207.898 97.4644C207.936 97.3058 207.842 97.1472 207.684 97.1098C207.665 97.1098 207.637 97.1098 207.618 97.1098L207.637 97.1192Z" fill="black"/>
<path d="M217.126 140.151L219.655 130.317L211.556 96.4756L207.059 97.4086L217.126 140.151Z" fill="#FFF3D9"/>
<path d="M217.117 141.13L206.779 97.2312L211.724 96.1956L219.897 130.317L217.126 141.121L217.117 141.13ZM207.338 97.5951L217.135 139.18L219.412 130.326L211.378 96.7554L207.338 97.5951Z" fill="black"/>
<path d="M217.863 144.191C217.62 144.191 217.406 144.023 217.35 143.771L216.612 140.253L206.545 97.5296C206.48 97.2497 206.657 96.9698 206.937 96.8951C207.217 96.8298 207.497 97.0071 207.571 97.287L217.639 140.029L218.376 143.565C218.432 143.845 218.255 144.125 217.975 144.181C217.937 144.181 217.9 144.191 217.863 144.191Z" fill="#E5B54A"/>
<path d="M217.863 144.424C217.508 144.424 217.191 144.172 217.126 143.817L216.389 140.3L206.321 97.5764C206.228 97.1658 206.48 96.7646 206.881 96.662C207.292 96.5687 207.702 96.8206 207.795 97.2218L217.863 139.964L218.6 143.5C218.637 143.696 218.6 143.901 218.488 144.069C218.376 144.237 218.208 144.359 218.012 144.396C217.965 144.405 217.909 144.415 217.853 144.415L217.863 144.424ZM207.058 97.1192C207.058 97.1192 207.012 97.1192 206.993 97.1192C206.834 97.1565 206.741 97.3151 206.778 97.4644L216.846 140.188L217.583 143.715C217.611 143.873 217.797 143.976 217.919 143.939C218.003 143.92 218.068 143.873 218.105 143.808C218.152 143.743 218.161 143.668 218.143 143.593L217.406 140.057L207.338 97.3245C207.31 97.1938 207.189 97.1005 207.049 97.1005L207.058 97.1192Z" fill="black"/>
<path d="M198.726 126.108C199.772 126.108 200.62 125.26 200.62 124.214C200.62 123.168 199.772 122.32 198.726 122.32C197.68 122.32 196.832 123.168 196.832 124.214C196.832 125.26 197.68 126.108 198.726 126.108Z" fill="#FFD661"/>
<path d="M198.726 126.351C197.551 126.351 196.599 125.399 196.599 124.224C196.599 123.048 197.551 122.096 198.726 122.096C199.902 122.096 200.854 123.048 200.854 124.224C200.854 125.399 199.902 126.351 198.726 126.351ZM198.726 122.563C197.812 122.563 197.066 123.309 197.066 124.224C197.066 125.138 197.812 125.885 198.726 125.885C199.641 125.885 200.387 125.138 200.387 124.224C200.387 123.309 199.641 122.563 198.726 122.563Z" fill="black"/>
<path d="M198.726 126.64C197.392 126.64 196.31 125.558 196.31 124.224C196.31 122.889 197.392 121.807 198.726 121.807C200.061 121.807 201.143 122.889 201.143 124.224C201.143 125.558 200.061 126.64 198.726 126.64ZM198.726 122.852C197.971 122.852 197.355 123.468 197.355 124.224C197.355 124.979 197.971 125.595 198.726 125.595C199.482 125.595 200.098 124.979 200.098 124.224C200.098 123.468 199.482 122.852 198.726 122.852Z" fill="#FFBB00"/>
<path d="M198.726 126.874C197.262 126.874 196.077 125.679 196.077 124.224C196.077 122.768 197.271 121.574 198.726 121.574C200.182 121.574 201.376 122.768 201.376 124.224C201.376 125.679 200.182 126.874 198.726 126.874ZM198.726 122.031C197.523 122.031 196.543 123.011 196.543 124.214C196.543 125.418 197.523 126.398 198.726 126.398C199.93 126.398 200.91 125.418 200.91 124.214C200.91 123.011 199.93 122.031 198.726 122.031ZM198.726 125.819C197.84 125.819 197.122 125.101 197.122 124.214C197.122 123.328 197.84 122.61 198.726 122.61C199.613 122.61 200.331 123.328 200.331 124.214C200.331 125.101 199.613 125.819 198.726 125.819ZM198.726 123.076C198.101 123.076 197.588 123.589 197.588 124.214C197.588 124.84 198.101 125.353 198.726 125.353C199.352 125.353 199.865 124.84 199.865 124.214C199.865 123.589 199.352 123.076 198.726 123.076Z" fill="#040000"/>
<path d="M207.348 81.3508C206.004 81.3508 204.912 82.4425 204.912 83.786V88.4232H209.792V83.786C209.792 82.4425 208.7 81.3508 207.357 81.3508H207.348Z" fill="#E5B54A"/>
<path d="M210.016 88.6566H204.67V83.7861C204.67 82.312 205.873 81.1177 207.338 81.1177C208.803 81.1177 210.007 82.312 210.007 83.7861V88.6566H210.016ZM205.136 88.19H209.549V83.7861C209.549 82.5732 208.56 81.5842 207.347 81.5842C206.135 81.5842 205.146 82.5732 205.146 83.7861V88.19H205.136Z" fill="black"/>
<path d="M209.419 87.229C208.766 87.0051 208.066 86.8838 207.338 86.8838C206.331 86.8838 205.379 87.117 204.539 87.5276C202.365 88.5726 200.863 90.7932 200.863 93.3684C200.863 96.9512 203.765 99.8529 207.348 99.8529C210.93 99.8529 213.832 96.9512 213.832 93.3684C213.832 90.5133 211.994 88.0967 209.428 87.229H209.419ZM207.338 96.1674C205.789 96.1674 204.539 94.9079 204.539 93.3684C204.539 91.8289 205.799 90.5693 207.338 90.5693C208.878 90.5693 210.137 91.8289 210.137 93.3684C210.137 94.9079 208.878 96.1674 207.338 96.1674Z" fill="#FFBB00"/>
<path d="M207.348 100.086C203.644 100.086 200.63 97.0724 200.63 93.3683C200.63 90.8025 202.123 88.4232 204.437 87.3129C206.004 86.5572 207.861 86.4452 209.494 87.005C212.227 87.9287 214.056 90.4759 214.056 93.359C214.056 97.0631 211.043 100.077 207.338 100.077L207.348 100.086ZM207.348 87.1263C206.396 87.1263 205.491 87.3316 204.642 87.7421C202.487 88.7778 201.096 90.9891 201.096 93.3776C201.096 96.8205 203.895 99.6289 207.348 99.6289C210.8 99.6289 213.599 96.8298 213.599 93.3776C213.599 90.6905 211.892 88.3206 209.354 87.4622C208.719 87.2383 208.038 87.1263 207.357 87.1263H207.348ZM207.348 96.41C205.678 96.41 204.315 95.0477 204.315 93.3683C204.315 91.6888 205.678 90.3359 207.348 90.3359C209.018 90.3359 210.38 91.6982 210.38 93.3683C210.38 95.0384 209.018 96.41 207.348 96.41ZM207.348 90.8025C205.929 90.8025 204.782 91.9594 204.782 93.3683C204.782 94.7772 205.939 95.9435 207.348 95.9435C208.757 95.9435 209.914 94.7865 209.914 93.3683C209.914 91.9501 208.757 90.8025 207.348 90.8025Z" fill="#040000"/>
<path d="M207.907 112.654H206.788C206.468 112.654 206.209 112.913 206.209 113.233V118.812C206.209 119.132 206.468 119.391 206.788 119.391H207.907C208.227 119.391 208.486 119.132 208.486 118.812V113.233C208.486 112.913 208.227 112.654 207.907 112.654Z" fill="#FFD661"/>
<path d="M207.907 119.624H206.788C206.34 119.624 205.976 119.26 205.976 118.812V113.233C205.976 112.785 206.34 112.421 206.788 112.421H207.907C208.355 112.421 208.719 112.785 208.719 113.233V118.812C208.719 119.26 208.355 119.624 207.907 119.624ZM206.788 112.887C206.592 112.887 206.443 113.046 206.443 113.233V118.812C206.443 119.008 206.601 119.157 206.788 119.157H207.907C208.103 119.157 208.253 118.999 208.253 118.812V113.233C208.253 113.037 208.094 112.887 207.907 112.887H206.788Z" fill="black"/>
<path d="M10.0581 11.8401V24.436L25.0426 11.8401H10.0581Z" fill="#DDA831"/>
<path d="M10.0581 24.6879C10.0581 24.6879 9.98348 24.688 9.94616 24.66C9.85286 24.6226 9.79688 24.5293 9.79688 24.4267V11.8308C9.79688 11.6908 9.90884 11.5789 10.0488 11.5789H25.0333C25.1359 11.5789 25.2385 11.6442 25.2759 11.7468C25.3132 11.8494 25.2759 11.9614 25.2012 12.0267L10.2167 24.6226C10.1701 24.66 10.1141 24.6786 10.0488 24.6786L10.0581 24.6879ZM10.31 12.092V23.8855L24.3428 12.092H10.31Z" fill="#040000"/>
<path d="M180.942 21.8686L175.262 25.1482L178.542 30.8286L184.222 27.549L180.942 21.8686Z" fill="#FFF1D2"/>
<path d="M178.545 31.0606C178.461 31.0606 178.386 31.0233 178.34 30.9486L175.055 25.2665C174.99 25.1545 175.027 25.0145 175.139 24.9492L180.821 21.665C180.933 21.5996 181.073 21.637 181.139 21.7489L184.423 27.4311C184.488 27.543 184.451 27.683 184.339 27.7483L178.657 31.0326C178.657 31.0326 178.582 31.0606 178.545 31.0606ZM175.587 25.2291L178.638 30.5101L183.919 27.4591L180.868 22.1781L175.587 25.2291Z" fill="#231815"/>
<path d="M159.212 158.886C159.026 158.886 158.858 158.802 158.737 158.671L155.014 154.277L151.291 158.671C151.17 158.811 151.002 158.886 150.815 158.886C150.629 158.886 150.461 158.802 150.339 158.662L146.617 154.267L142.894 158.662C142.66 158.942 142.185 158.942 141.951 158.662L138.229 154.267L134.506 158.662C134.273 158.942 133.797 158.942 133.563 158.662L129.841 154.267L126.127 158.662C126.006 158.802 125.838 158.886 125.651 158.886C125.465 158.886 125.297 158.802 125.175 158.662L120.986 153.708C120.762 153.446 120.8 153.055 121.061 152.831C121.322 152.607 121.714 152.644 121.938 152.905L125.651 157.3L129.365 152.905C129.598 152.625 130.074 152.625 130.307 152.905L134.03 157.3L137.753 152.905C137.986 152.625 138.462 152.625 138.695 152.905L142.418 157.3L146.141 152.905C146.374 152.625 146.85 152.625 147.083 152.905L150.806 157.3L154.529 152.905C154.762 152.625 155.238 152.625 155.471 152.905L159.194 157.309L162.917 152.905C163.141 152.644 163.532 152.607 163.794 152.831C164.055 153.055 164.083 153.446 163.868 153.708L159.67 158.662C159.548 158.802 159.38 158.877 159.194 158.877L159.212 158.886Z" fill="#FFBB00"/>
<path d="M159.212 159.119C158.96 159.119 158.727 159.007 158.559 158.821L155.014 154.631L151.468 158.821C151.142 159.203 150.489 159.203 150.162 158.821L146.626 154.631L143.09 158.821C142.782 159.194 142.101 159.194 141.783 158.821L138.247 154.631L134.702 158.821C134.394 159.194 133.713 159.194 133.395 158.821L129.859 154.631L126.323 158.821C125.996 159.203 125.343 159.203 125.017 158.821L120.827 153.857C120.678 153.68 120.613 153.465 120.632 153.232C120.65 152.998 120.753 152.803 120.93 152.653C121.294 152.355 121.826 152.392 122.134 152.756L125.67 156.945L129.206 152.756C129.365 152.569 129.598 152.467 129.859 152.467C130.12 152.467 130.354 152.569 130.512 152.756L134.049 156.945L137.594 152.756C137.902 152.383 138.583 152.383 138.9 152.756L142.436 156.945L145.973 152.756C146.29 152.383 146.962 152.383 147.279 152.756L150.815 156.945L154.361 152.756C154.669 152.383 155.35 152.383 155.658 152.756L159.203 156.945L162.749 152.756C162.898 152.579 163.103 152.476 163.327 152.457C163.56 152.439 163.775 152.513 163.952 152.653C164.307 152.961 164.353 153.493 164.055 153.857L159.856 158.811C159.698 159.007 159.455 159.11 159.203 159.11L159.212 159.119ZM155.014 154.034C155.079 154.034 155.144 154.062 155.191 154.118L158.914 158.513C159.063 158.69 159.362 158.69 159.502 158.513L163.7 153.558C163.84 153.4 163.822 153.148 163.654 153.017C163.579 152.952 163.467 152.924 163.374 152.924C163.271 152.924 163.178 152.98 163.112 153.064L159.39 157.458C159.306 157.561 159.119 157.561 159.035 157.458L155.312 153.064C155.172 152.905 154.855 152.905 154.725 153.064L151.002 157.458C150.955 157.514 150.89 157.542 150.824 157.542C150.759 157.542 150.694 157.514 150.647 157.458L146.924 153.064C146.784 152.905 146.467 152.905 146.337 153.064L142.614 157.458C142.52 157.561 142.343 157.561 142.259 157.458L138.536 153.064C138.396 152.905 138.079 152.905 137.949 153.064L134.226 157.458C134.142 157.561 133.955 157.561 133.871 157.458L130.148 153.064C130.083 152.98 129.971 152.942 129.85 152.933C129.729 152.933 129.626 152.98 129.551 153.064L125.838 157.458C125.791 157.514 125.726 157.542 125.661 157.542C125.595 157.542 125.53 157.514 125.483 157.458L121.77 153.064C121.63 152.905 121.387 152.886 121.229 153.017C121.154 153.082 121.098 153.176 121.089 153.278C121.089 153.381 121.117 153.484 121.182 153.558L125.371 158.513C125.521 158.69 125.819 158.69 125.959 158.513L129.673 154.118C129.766 154.015 129.943 154.015 130.027 154.118L133.75 158.513C133.89 158.671 134.207 158.671 134.338 158.513L138.061 154.118C138.145 154.015 138.331 154.015 138.415 154.118L142.138 158.513C142.278 158.671 142.595 158.671 142.726 158.513L146.449 154.118C146.532 154.015 146.719 154.015 146.803 154.118L150.526 158.513C150.675 158.69 150.974 158.69 151.114 158.513L154.836 154.118C154.883 154.062 154.948 154.034 155.014 154.034Z" fill="black"/>
<path d="M159.212 167.367C159.026 167.367 158.858 167.283 158.737 167.153L155.014 162.758L151.291 167.153C151.17 167.293 151.002 167.367 150.815 167.367C150.629 167.367 150.461 167.283 150.339 167.143L146.617 162.749L142.894 167.143C142.66 167.423 142.185 167.423 141.951 167.143L138.229 162.749L134.506 167.143C134.273 167.423 133.797 167.423 133.563 167.143L129.841 162.749L126.127 167.143C126.006 167.283 125.838 167.367 125.651 167.367C125.465 167.367 125.297 167.283 125.175 167.143L120.986 162.189C120.762 161.928 120.8 161.536 121.061 161.312C121.322 161.088 121.714 161.125 121.938 161.386L125.651 165.781L129.365 161.386C129.598 161.107 130.074 161.107 130.307 161.386L134.03 165.781L137.753 161.386C137.986 161.107 138.462 161.107 138.695 161.386L142.418 165.781L146.141 161.386C146.374 161.107 146.85 161.107 147.083 161.386L150.806 165.781L154.529 161.386C154.762 161.107 155.238 161.107 155.471 161.386L159.194 165.79L162.917 161.386C163.141 161.125 163.532 161.088 163.794 161.312C164.055 161.536 164.083 161.928 163.868 162.189L159.67 167.143C159.548 167.283 159.38 167.358 159.194 167.358L159.212 167.367Z" fill="#FFBB00"/>
<path d="M159.212 167.6C158.96 167.6 158.727 167.488 158.559 167.302L155.014 163.113L151.468 167.302C151.142 167.684 150.489 167.684 150.171 167.302L146.626 163.113L143.09 167.302C142.772 167.675 142.101 167.675 141.783 167.302L138.247 163.113L134.702 167.302C134.394 167.675 133.713 167.675 133.395 167.302L129.859 163.113L126.323 167.302C125.996 167.684 125.343 167.684 125.017 167.302L120.827 162.338C120.678 162.161 120.613 161.946 120.632 161.713C120.65 161.489 120.753 161.284 120.93 161.135C121.294 160.836 121.826 160.883 122.134 161.237L125.67 165.426L129.206 161.237C129.365 161.051 129.598 160.948 129.859 160.948C130.12 160.948 130.354 161.06 130.512 161.237L134.049 165.426L137.594 161.237C137.902 160.864 138.583 160.864 138.9 161.237L142.436 165.426L145.973 161.237C146.281 160.864 146.962 160.864 147.279 161.237L150.815 165.426L154.361 161.237C154.669 160.864 155.35 160.864 155.667 161.237L159.212 165.426L162.758 161.237C162.907 161.06 163.112 160.957 163.336 160.939C163.56 160.92 163.784 160.995 163.962 161.135C164.139 161.284 164.241 161.489 164.26 161.713C164.279 161.937 164.204 162.161 164.064 162.338L159.866 167.293C159.707 167.488 159.464 167.591 159.212 167.591V167.6ZM155.014 162.515C155.079 162.515 155.144 162.543 155.191 162.599L158.914 166.994C159.063 167.162 159.352 167.162 159.502 166.994L163.7 162.04C163.766 161.965 163.803 161.862 163.794 161.76C163.794 161.657 163.738 161.564 163.663 161.498C163.588 161.433 163.486 161.396 163.383 161.405C163.28 161.405 163.187 161.461 163.122 161.545L159.399 165.94C159.315 166.042 159.128 166.042 159.044 165.94L155.322 161.545C155.182 161.386 154.864 161.386 154.734 161.545L151.011 165.94C150.964 165.996 150.899 166.024 150.834 166.024C150.768 166.024 150.703 165.996 150.656 165.94L146.934 161.545C146.794 161.386 146.477 161.386 146.346 161.545L142.623 165.94C142.539 166.042 142.353 166.042 142.269 165.94L138.546 161.545C138.406 161.386 138.089 161.386 137.958 161.545L134.235 165.94C134.151 166.042 133.965 166.042 133.881 165.94L130.158 161.545C130.092 161.461 129.981 161.424 129.859 161.414C129.738 161.414 129.635 161.461 129.561 161.545L125.847 165.94C125.801 165.996 125.735 166.024 125.67 166.024C125.605 166.024 125.539 165.996 125.493 165.94L121.779 161.545C121.639 161.386 121.397 161.368 121.238 161.498C121.163 161.564 121.107 161.657 121.098 161.76C121.098 161.862 121.126 161.965 121.191 162.04L125.381 166.994C125.53 167.162 125.829 167.162 125.968 166.994L129.682 162.599C129.775 162.497 129.953 162.497 130.036 162.599L133.759 166.994C133.899 167.153 134.216 167.153 134.347 166.994L138.07 162.599C138.154 162.497 138.34 162.497 138.424 162.599L142.147 166.994C142.287 167.153 142.604 167.153 142.735 166.994L146.458 162.599C146.551 162.497 146.728 162.497 146.812 162.599L150.535 166.994C150.684 167.162 150.974 167.162 151.123 166.994L154.846 162.599C154.892 162.543 154.958 162.515 155.023 162.515H155.014Z" fill="black"/>
<path d="M189.601 56.9056C188.435 56.9056 186.672 56.2805 186.672 53.7707C186.672 51.2608 190.908 49.1242 188.687 43.7686C191.253 43.7686 198.223 56.9056 189.601 56.9056Z" fill="#FFEFC7"/>
<path d="M189.601 57.0923C188.165 57.0923 186.485 56.2246 186.485 53.7707C186.485 52.847 186.998 52.0166 187.595 51.0556C188.687 49.2735 189.937 47.2581 188.519 43.8432C188.491 43.7872 188.5 43.7219 188.538 43.6753C188.575 43.6286 188.631 43.5913 188.687 43.5913C190.553 43.5913 193.968 49.1428 193.968 53.0429C193.968 54.2652 193.641 55.2355 192.988 55.9167C192.251 56.7004 191.113 57.0923 189.601 57.0923ZM188.976 44.0112C190.264 47.4167 188.958 49.5347 187.903 51.2422C187.344 52.1565 186.849 52.9496 186.849 53.7707C186.849 56.5791 189.135 56.7191 189.592 56.7191C190.992 56.7191 192.046 56.3645 192.718 55.6554C193.306 55.0396 193.595 54.1532 193.595 53.0336C193.595 49.4601 190.581 44.5803 188.967 44.0112H188.976Z" fill="#231815"/>
<path d="M189.116 44.599C190.301 46.6516 190.311 48.9935 189.359 51.1395C188.603 52.8376 187.558 54.741 188.594 56.5604C188.743 56.8217 189.144 56.5884 188.995 56.3272C187.773 54.1812 189.769 51.9606 190.301 49.9266C190.796 48.0512 190.488 46.0452 189.517 44.375C189.368 44.1138 188.967 44.347 189.116 44.6083V44.599Z" fill="#231815"/>
<path d="M189.433 45.1867C190.301 46.9035 190.768 48.8069 190.758 50.7289C190.758 51.6713 190.646 52.6136 190.423 53.528C190.199 54.4424 189.853 55.4127 189.937 56.4204C189.965 56.719 190.432 56.719 190.404 56.4204C190.301 55.3008 190.758 54.2651 190.973 53.1828C191.16 52.2497 191.244 51.2981 191.216 50.337C191.16 48.4523 190.684 46.6142 189.835 44.9441C189.695 44.6735 189.294 44.9161 189.433 45.1774V45.1867Z" fill="#231815"/>
<path d="M189.685 45.4388C190.805 46.9596 191.412 48.7417 191.701 50.5891C191.85 51.5221 191.915 52.4738 191.925 53.4162C191.934 54.3585 191.906 55.3196 191.337 56.1126C191.16 56.3552 191.57 56.5885 191.738 56.3459C192.261 55.6088 192.382 54.7224 192.391 53.8361C192.401 52.8284 192.335 51.8114 192.195 50.813C191.915 48.807 191.29 46.8383 190.077 45.1962C189.9 44.9536 189.499 45.1962 189.676 45.4294L189.685 45.4388Z" fill="#231815"/>
<path d="M192.018 59.3221L190.003 108.633C190.003 108.801 189.853 108.931 189.685 108.922C189.527 108.922 189.406 108.791 189.396 108.633L187.381 59.3221C187.325 58.0439 188.323 56.9615 189.602 56.9056C190.88 56.8496 191.962 57.8479 192.018 59.1262C192.018 59.1915 192.018 59.2568 192.018 59.3128V59.3221Z" fill="#E5B54A"/>
<path d="M189.704 109.146H189.685C189.406 109.137 189.182 108.913 189.172 108.633L187.157 59.3222C187.129 58.6411 187.372 57.988 187.829 57.4842C188.286 56.9803 188.92 56.6911 189.602 56.6631C189.639 56.6631 189.676 56.6631 189.704 56.6631C191.066 56.6631 192.195 57.7361 192.251 59.1076C192.251 59.1729 192.251 59.2476 192.251 59.3129L190.236 108.624C190.227 108.913 189.984 109.137 189.704 109.137V109.146ZM189.704 57.1296C189.704 57.1296 189.648 57.1296 189.62 57.1296C189.06 57.1483 188.547 57.3909 188.174 57.8014C187.791 58.2119 187.605 58.7437 187.623 59.3036L189.639 108.614C189.639 108.614 189.667 108.68 189.704 108.68C189.723 108.698 189.769 108.652 189.779 108.614L191.794 59.3129C191.794 59.2569 191.794 59.2009 191.794 59.1356C191.747 58.016 190.824 57.1389 189.713 57.1389L189.704 57.1296Z" fill="#231815"/>
</g>
<defs>
<clipPath id="clip0_631_841">
<rect width="220.41" height="169" fill="white"/>
</clipPath>
</defs>
</svg>
