<svg width="215" height="180" viewBox="0 0 215 180" fill="none" xmlns="http://www.w3.org/2000/svg">
<g clip-path="url(#clip0_631_599)">
<path d="M189.595 53.321C180.214 53.15 170.833 53.1601 161.431 53.321C159.762 53.321 158.405 51.9636 158.405 50.2945C158.696 38.5001 158.656 25.3583 158.405 11.382C158.405 9.71288 159.762 8.35547 161.431 8.35547C168.761 8.53646 178.746 8.47613 189.595 8.35547C191.264 8.35547 192.622 9.71288 192.622 11.382C192.39 24.8656 192.35 37.9169 192.622 50.2945C192.622 51.9636 191.264 53.321 189.595 53.321Z" fill="#FFF4DC"/>
<path d="M189.595 53.6026C180.576 53.4317 171.094 53.4317 161.431 53.6026C159.601 53.6026 158.113 52.1145 158.113 50.2945C158.385 39.3448 158.385 26.6253 158.113 11.3821C158.113 9.55209 159.601 8.06396 161.421 8.06396C167.736 8.21479 176.423 8.21479 189.585 8.06396C191.415 8.06396 192.893 9.55209 192.893 11.372C192.642 26.0019 192.642 38.7214 192.893 50.2845C192.903 52.1145 191.415 53.6026 189.595 53.6026ZM161.421 8.62704C159.913 8.62704 158.676 9.86379 158.676 11.372C158.948 26.6153 158.948 39.3448 158.676 50.2945C158.676 51.8028 159.913 53.0395 161.421 53.0395C171.084 52.8686 180.566 52.8686 189.585 53.0395C191.103 53.0395 192.33 51.8028 192.33 50.2945C192.079 38.7314 192.079 26.0019 192.33 11.372C192.33 9.86379 191.093 8.62704 189.585 8.62704C176.423 8.77786 167.736 8.77786 161.421 8.62704Z" fill="black"/>
<path d="M175.508 27.852C171.436 27.852 168.128 24.5439 168.128 20.4717H170.873C170.873 23.0256 172.954 25.107 175.508 25.107C178.062 25.107 180.144 23.0256 180.144 20.4717H182.889C182.889 24.5439 179.58 27.852 175.508 27.852Z" fill="#FFE299"/>
<path d="M175.508 28.1336C171.285 28.1336 167.846 24.6948 167.846 20.4717C167.846 20.3209 167.977 20.1902 168.128 20.1902H170.873C171.024 20.1902 171.155 20.3209 171.155 20.4717C171.155 22.8748 173.105 24.8255 175.508 24.8255C177.911 24.8255 179.862 22.8748 179.862 20.4717C179.862 20.3209 179.993 20.1902 180.144 20.1902H182.889C183.039 20.1902 183.17 20.3209 183.17 20.4717C183.17 24.6948 179.731 28.1336 175.508 28.1336ZM168.42 20.7533C168.57 24.544 171.697 27.5705 175.518 27.5705C179.339 27.5705 182.466 24.5339 182.617 20.7533H180.425C180.274 23.3374 178.133 25.3886 175.518 25.3886C172.904 25.3886 170.752 23.3374 170.612 20.7533H168.42Z" fill="black"/>
<path d="M186.7 32.1254H164.327C164.177 32.1254 164.046 31.9947 164.046 31.8439V14.7505C164.046 14.5997 164.177 14.469 164.327 14.469H186.7C186.85 14.469 186.981 14.5997 186.981 14.7505V31.8539C186.981 32.0047 186.85 32.1254 186.7 32.1254ZM164.609 31.5724H186.418V15.0321H164.609V31.5724Z" fill="black"/>
<path d="M187.808 32.9577V30.7356H185.586V32.9577H187.808Z" fill="white"/>
<path d="M187.805 33.2413H185.583C185.432 33.2413 185.302 33.1105 185.302 32.9597V30.7376C185.302 30.5868 185.432 30.4561 185.583 30.4561H187.805C187.956 30.4561 188.087 30.5868 188.087 30.7376V32.9597C188.087 33.1105 187.966 33.2413 187.805 33.2413ZM185.865 32.6782H187.524V31.0191H185.865V32.6782Z" fill="black"/>
<path d="M187.812 15.8576V13.6355H185.59V15.8576H187.812Z" fill="white"/>
<path d="M187.805 16.138H185.583C185.432 16.138 185.302 16.0073 185.302 15.8565V13.6343C185.302 13.4835 185.432 13.3528 185.583 13.3528H187.805C187.956 13.3528 188.087 13.4835 188.087 13.6343V15.8565C188.087 16.0173 187.966 16.138 187.805 16.138ZM185.865 15.5749H187.524V13.9159H185.865V15.5749Z" fill="black"/>
<path d="M165.435 32.9594V30.7373H163.213V32.9594H165.435Z" fill="white"/>
<path d="M165.433 33.2413H163.211C163.06 33.2413 162.93 33.1105 162.93 32.9597V30.7376C162.93 30.5868 163.06 30.4561 163.211 30.4561H165.433C165.584 30.4561 165.715 30.5868 165.715 30.7376V32.9597C165.715 33.1105 165.594 33.2413 165.433 33.2413ZM163.493 32.6782H165.152V31.0191H163.493V32.6782Z" fill="black"/>
<path d="M187.809 24.2309V22.0088H185.587V24.2309H187.809Z" fill="white"/>
<path d="M187.805 24.5137H185.583C185.432 24.5137 185.302 24.383 185.302 24.2322V22.0101C185.302 21.8592 185.432 21.7285 185.583 21.7285H187.805C187.956 21.7285 188.087 21.8592 188.087 22.0101V24.2322C188.087 24.3931 187.966 24.5137 187.805 24.5137ZM185.865 23.9506H187.524V22.2916H185.865V23.9506Z" fill="black"/>
<path d="M165.436 24.2326V22.0105H163.213V24.2326H165.436Z" fill="white"/>
<path d="M165.433 24.5137H163.211C163.06 24.5137 162.93 24.383 162.93 24.2322V22.0101C162.93 21.8592 163.06 21.7285 163.211 21.7285H165.433C165.584 21.7285 165.715 21.8592 165.715 22.0101V24.2322C165.715 24.3931 165.594 24.5137 165.433 24.5137ZM163.493 23.9506H165.152V22.2916H163.493V23.9506Z" fill="black"/>
<path d="M165.438 15.8593V13.6372H163.216V15.8593H165.438Z" fill="white"/>
<path d="M165.433 16.138H163.211C163.06 16.138 162.93 16.0073 162.93 15.8565V13.6343C162.93 13.4835 163.06 13.3528 163.211 13.3528H165.433C165.584 13.3528 165.715 13.4835 165.715 13.6343V15.8565C165.715 16.0173 165.594 16.138 165.433 16.138ZM163.493 15.5749H165.152V13.9159H163.493V15.5749Z" fill="black"/>
<path d="M176.622 32.9634V30.7412H174.399V32.9634H176.622Z" fill="white"/>
<path d="M176.625 33.2413H174.402C174.252 33.2413 174.121 33.1105 174.121 32.9597V30.7376C174.121 30.5868 174.252 30.4561 174.402 30.4561H176.625C176.775 30.4561 176.906 30.5868 176.906 30.7376V32.9597C176.906 33.1105 176.775 33.2413 176.625 33.2413ZM174.684 32.6782H176.343V31.0191H174.684V32.6782Z" fill="black"/>
<path d="M176.625 15.8635V13.6414H174.403V15.8635H176.625Z" fill="white"/>
<path d="M176.625 16.138H174.402C174.252 16.138 174.121 16.0073 174.121 15.8565V13.6343C174.121 13.4835 174.252 13.3528 174.402 13.3528H176.625C176.775 13.3528 176.906 13.4835 176.906 13.6343V15.8565C176.906 16.0173 176.775 16.138 176.625 16.138ZM174.684 15.5749H176.343V13.9159H174.684V15.5749Z" fill="black"/>
<path d="M182.426 38.47H168.601C167.937 38.47 167.927 39.5056 168.601 39.5056H182.426C183.09 39.5056 183.09 38.47 182.426 38.47Z" fill="#FFBB00"/>
<path d="M182.426 39.7872H168.601C168.088 39.7872 167.816 39.375 167.816 38.9929C167.816 38.6007 168.088 38.1885 168.601 38.1885H182.426C182.939 38.1885 183.21 38.6007 183.21 38.9828C183.21 39.375 182.929 39.7872 182.426 39.7872ZM168.591 38.7516C168.39 38.7516 168.369 38.9325 168.369 38.9929C168.369 39.0532 168.39 39.2342 168.591 39.2342H182.416C182.617 39.2342 182.637 39.0532 182.637 38.9929C182.637 38.9325 182.617 38.7516 182.416 38.7516H168.591Z" fill="black"/>
<path d="M186.146 42.4316H164.87C164.207 42.4316 164.196 43.4673 164.87 43.4673H186.146C186.81 43.4673 186.82 42.4316 186.146 42.4316Z" fill="#FFBB00"/>
<path d="M186.146 43.7489H164.87C164.357 43.7489 164.086 43.3366 164.086 42.9545C164.086 42.5624 164.357 42.1501 164.87 42.1501H186.146C186.659 42.1501 186.931 42.5624 186.931 42.9445C186.931 43.3366 186.649 43.7489 186.146 43.7489ZM164.87 42.7132C164.669 42.7132 164.649 42.8942 164.649 42.9545C164.649 43.0149 164.669 43.1959 164.87 43.1959H186.146C186.347 43.1959 186.368 43.0149 186.368 42.9545C186.368 42.8942 186.347 42.7132 186.146 42.7132H164.87Z" fill="black"/>
<path d="M186.146 46.3933H164.87C164.207 46.3933 164.196 47.429 164.87 47.429H186.146C186.81 47.439 186.82 46.3933 186.146 46.3933Z" fill="#FFBB00"/>
<path d="M186.146 47.7206H164.87C164.357 47.7206 164.086 47.3083 164.086 46.9262C164.086 46.5341 164.357 46.1218 164.87 46.1218H186.146C186.659 46.1218 186.931 46.5341 186.931 46.9162C186.931 47.3083 186.649 47.7206 186.146 47.7206ZM164.87 46.6748C164.669 46.6748 164.649 46.8558 164.649 46.9162C164.649 46.9765 164.669 47.1575 164.87 47.1575H186.146C186.347 47.1575 186.368 46.9765 186.368 46.9162C186.368 46.8558 186.347 46.6748 186.146 46.6748H164.87Z" fill="black"/>
<path d="M46.0716 20.8034C46.0716 16.6407 46.4738 12.4981 46.685 10.5977C46.7453 10.0145 46.2928 9.51177 45.7097 9.51177C34.227 9.56205 24.0916 9.25035 20.8037 9.13974C20.2104 9.11963 19.7479 9.62238 19.7982 10.2056C20.1803 14.1672 20.6327 20.1499 20.6327 20.1499L46.0716 20.8034Z" fill="white"/>
<path d="M46.0717 21.065L20.6328 20.4114C20.5021 20.4114 20.3915 20.3008 20.3814 20.1701C20.3814 20.1097 19.9189 14.1472 19.5468 10.2358C19.5167 9.88391 19.6273 9.53199 19.8787 9.27056C20.12 9.00913 20.4719 8.87842 20.8238 8.87842C24.5542 9.00913 34.4482 9.30072 45.7298 9.24039C45.7298 9.24039 45.7298 9.24039 45.7399 9.24039C46.0918 9.24039 46.4236 9.39122 46.6549 9.65265C46.8861 9.91407 47.0068 10.266 46.9665 10.6179C46.7353 12.6591 46.3532 16.7011 46.3532 20.8035C46.3532 20.8739 46.323 20.9443 46.2728 20.9946C46.2124 21.0348 46.142 21.065 46.0717 21.065ZM20.8841 19.8986L45.8203 20.532C45.8404 16.5 46.2124 12.5686 46.4336 10.5576C46.4538 10.3565 46.3934 10.1554 46.2527 10.0046C46.1119 9.85374 45.9309 9.7733 45.7197 9.7733C34.4381 9.82358 24.5341 9.53199 20.7936 9.40127C20.5825 9.39122 20.3915 9.47166 20.2507 9.62248C20.1099 9.7733 20.0395 9.9744 20.0596 10.1755C20.4015 13.6646 20.7936 18.7523 20.8841 19.8986Z" fill="black"/>
<path d="M17.5359 16.4699L18.3906 34.9508C18.4308 35.7854 19.1347 36.449 19.9692 36.4289C30.8889 36.1674 42.5827 36.3484 46.7153 36.4389C47.5699 36.459 48.2738 35.7753 48.2939 34.9206L48.5754 19.416C48.5955 18.5714 47.9219 17.8675 47.0772 17.8474L30.6777 17.3045L29.1292 14.8008C28.898 14.4187 28.4757 14.2075 28.0333 14.2377L18.9738 14.8812C18.1392 14.9114 17.5058 15.6253 17.5359 16.4699Z" fill="#FFCD65"/>
<path d="M46.7454 36.6902C46.7354 36.6902 46.7253 36.6902 46.7052 36.6902C42.271 36.5997 30.7984 36.4187 19.9793 36.6802C18.9939 36.6701 18.1795 35.926 18.1292 34.9608L17.2745 16.4799C17.2343 15.4945 17.9683 14.6599 18.9537 14.5896L28.0132 13.946C28.5561 13.9159 29.0689 14.1672 29.3505 14.6298L30.8185 17.0128L47.0772 17.5557C48.0526 17.5859 48.8369 18.4104 48.8268 19.3958L48.5453 34.9004C48.5352 35.3831 48.3442 35.8356 47.9922 36.1674C47.6604 36.5092 47.218 36.6902 46.7454 36.6902ZM32.4071 36.0266C38.6412 36.0266 44.0004 36.1171 46.7153 36.1674C47.0571 36.1774 47.3889 36.0467 47.6303 35.8054C47.8716 35.5641 48.0224 35.2423 48.0224 34.9004L48.3039 19.3958C48.314 18.702 47.761 18.1088 47.0571 18.0887L30.6677 17.5457C30.5772 17.5457 30.4967 17.4954 30.4565 17.425L28.908 14.9214C28.7271 14.6298 28.3952 14.4488 28.0433 14.4789L18.9839 15.1225C18.28 15.1727 17.7572 15.766 17.7873 16.4598L18.642 34.9407C18.6722 35.6244 19.2453 36.1674 19.929 36.1674C19.9391 36.1674 19.9491 36.1674 19.9592 36.1674C24.1621 36.0568 28.4656 36.0266 32.4071 36.0266Z" fill="black"/>
<path d="M22.5835 16.47C22.5835 18.7223 20.7535 20.5523 18.5012 20.5523C16.2489 20.5523 14.4189 18.7223 14.4189 16.47C14.4189 14.2177 16.2489 12.3877 18.5012 12.3877C20.7535 12.3777 22.5835 14.2077 22.5835 16.47Z" fill="#FFE49F"/>
<path d="M18.5012 20.8137C16.1081 20.8137 14.1575 18.863 14.1575 16.4699C14.1575 14.0769 16.1081 12.1262 18.5012 12.1262C20.8943 12.1262 22.8449 14.0769 22.8449 16.4699C22.8449 18.863 20.8943 20.8137 18.5012 20.8137ZM18.5012 12.639C16.3897 12.639 14.6803 14.3584 14.6803 16.4599C14.6803 18.5714 16.3997 20.2807 18.5012 20.2807C20.6127 20.2807 22.3221 18.5614 22.3221 16.4599C22.3221 14.3584 20.6027 12.639 18.5012 12.639Z" fill="black"/>
<path d="M167.243 90.3233L159.662 88.4128L158.234 90.273C157.761 90.8964 157.47 91.4293 157.359 91.8918C157.208 92.4951 157.339 92.9979 157.751 93.4001C157.993 93.6414 158.666 93.943 159.762 94.305L159.611 94.8882L152.472 93.0884L152.623 92.5052C153.418 92.5856 154.131 92.4247 154.765 92.0225C155.388 91.6203 156.273 90.6953 157.409 89.2474L169.395 74.0544L169.696 74.1349L173.005 93.6816C173.326 95.5317 173.668 96.7383 174.03 97.2913C174.312 97.7036 174.764 98.0253 175.408 98.2465L175.257 98.8297L164.87 96.2154L165.021 95.6323L165.443 95.7429C166.278 95.954 166.891 95.9842 167.283 95.8334C167.555 95.7227 167.736 95.5116 167.816 95.1898C167.866 94.9988 167.877 94.7977 167.866 94.5765C167.866 94.4759 167.806 94.0436 167.685 93.2694L167.243 90.3233ZM166.992 89.0161L165.654 80.8214L160.506 87.3872L166.992 89.0161Z" fill="#FFBB00"/>
<path d="M175.267 99.1212C175.247 99.1212 175.217 99.1212 175.197 99.1111L164.82 96.4969C164.669 96.4567 164.569 96.3058 164.609 96.145L164.76 95.5618C164.78 95.4914 164.83 95.421 164.89 95.3808C164.961 95.3406 165.031 95.3305 165.112 95.3506L165.544 95.4612C166.499 95.7025 166.982 95.6523 167.213 95.5618C167.394 95.4914 167.505 95.3506 167.565 95.1193C167.605 94.9585 167.615 94.7875 167.605 94.5965C167.605 94.5362 167.595 94.3552 167.434 93.3195L166.992 90.5444L159.782 88.7345L158.475 90.4438C158.033 91.027 157.751 91.5398 157.651 91.9521C157.52 92.4548 157.621 92.8469 157.963 93.1888C158.083 93.3095 158.485 93.5709 159.863 94.0334C160.004 94.0837 160.084 94.2345 160.054 94.3753L159.903 94.9585C159.863 95.1093 159.712 95.2098 159.551 95.1696L152.412 93.3698C152.261 93.3296 152.161 93.1788 152.201 93.0179L152.352 92.4347C152.382 92.2939 152.513 92.2034 152.664 92.2135C153.408 92.2839 154.041 92.1431 154.624 91.7811C155.218 91.399 156.082 90.4941 157.198 89.0764L169.184 73.8834C169.254 73.7929 169.375 73.7527 169.485 73.7829L169.787 73.8633C169.898 73.8935 169.978 73.984 169.998 74.0946L173.306 93.6413C173.618 95.4411 173.95 96.6175 174.292 97.1404C174.533 97.5024 174.945 97.7839 175.518 97.9749C175.659 98.0252 175.74 98.176 175.709 98.3168L175.559 98.9C175.508 99.0408 175.388 99.1212 175.267 99.1212ZM165.232 96.0142L175.056 98.4877L175.066 98.4375C174.493 98.2062 174.07 97.8744 173.789 97.4621C173.397 96.8689 173.045 95.6523 172.713 93.7418L169.445 74.4666L157.631 89.4484C156.464 90.9365 155.569 91.8716 154.906 92.2839C154.292 92.676 153.599 92.857 152.835 92.8268L152.814 92.8972L159.39 94.5462L159.4 94.496C158.073 94.0334 157.701 93.772 157.53 93.6011C157.037 93.1184 156.887 92.5151 157.058 91.8113C157.178 91.3186 157.49 90.7555 157.983 90.0919L159.41 88.2317C159.481 88.1413 159.601 88.101 159.712 88.1312L167.293 90.0416C167.404 90.0718 167.495 90.1623 167.505 90.2729L167.967 93.229C168.148 94.4055 168.148 94.5362 168.148 94.5864C168.158 94.8076 168.138 95.0389 168.088 95.2601C167.987 95.6623 167.746 95.9539 167.384 96.0947C166.921 96.2656 166.258 96.2354 165.363 96.0142L165.212 95.974L165.232 96.0142ZM167.002 89.3076C166.982 89.3076 166.952 89.3076 166.931 89.2976L160.446 87.6687C160.356 87.6486 160.275 87.5782 160.245 87.4776C160.215 87.3871 160.235 87.2866 160.295 87.2061L165.443 80.6403C165.514 80.5498 165.634 80.5096 165.745 80.5397C165.856 80.5699 165.936 80.6604 165.956 80.771L167.293 88.9658C167.314 89.0663 167.273 89.1568 167.203 89.2272C167.143 89.2775 167.072 89.3076 167.002 89.3076ZM161.009 87.2162L166.64 88.6339L165.484 81.5251L161.009 87.2162Z" fill="black"/>
<path d="M185.432 99.0708C183.23 100.207 181.41 100.599 179.973 100.237C179.128 100.026 178.494 99.5735 178.072 98.8797C177.65 98.1859 177.549 97.4218 177.76 96.5872C178.042 95.4611 178.786 94.5662 179.983 93.9126C181.179 93.249 183.592 92.5854 187.232 91.9117L187.604 90.4236C187.886 89.3075 187.996 88.5835 187.956 88.2618C187.906 87.94 187.745 87.6283 187.463 87.3267C187.182 87.025 186.83 86.8239 186.408 86.7133C185.724 86.5424 185.121 86.5524 184.598 86.7435C184.276 86.8641 184.085 87.0552 184.015 87.3066C183.954 87.5278 184.035 87.8395 184.246 88.2417C184.537 88.7947 184.628 89.2874 184.517 89.7097C184.387 90.2225 184.085 90.6146 183.602 90.8861C183.12 91.1576 182.577 91.2079 181.953 91.047C181.29 90.876 180.787 90.5342 180.435 90.0214C180.083 89.5086 179.983 88.9857 180.113 88.4428C180.304 87.6786 180.787 87.0351 181.561 86.4921C182.335 85.9491 183.311 85.6374 184.477 85.5369C185.644 85.4363 186.81 85.5369 187.966 85.8285C189.364 86.1804 190.41 86.7535 191.073 87.5579C191.737 88.3623 192.109 89.1365 192.179 89.9007C192.219 90.3834 192.028 91.419 191.636 93.0077L190.188 98.749C190.017 99.4227 189.937 99.8551 189.947 100.046C189.957 100.237 190.007 100.388 190.088 100.489C190.168 100.599 190.279 100.67 190.42 100.71C190.691 100.78 191.023 100.649 191.405 100.338L191.787 100.84C191.063 101.484 190.379 101.916 189.726 102.127C189.072 102.339 188.388 102.359 187.665 102.178C186.82 101.967 186.207 101.605 185.835 101.092C185.473 100.569 185.332 99.9053 185.432 99.0708ZM185.724 97.9145L186.971 92.9574C185.503 93.3898 184.356 93.9528 183.512 94.6466C182.959 95.1091 182.607 95.632 182.456 96.2152C182.335 96.6978 182.406 97.1704 182.657 97.6329C182.848 97.9849 183.18 98.2161 183.653 98.3368C184.196 98.4775 184.879 98.3368 185.724 97.9145Z" fill="#FFBB00"/>
<path d="M188.65 102.59C188.308 102.59 187.966 102.55 187.614 102.459C186.709 102.228 186.036 101.826 185.623 101.263C185.292 100.8 185.121 100.227 185.121 99.5635C183.059 100.559 181.31 100.881 179.912 100.529C178.997 100.298 178.303 99.7948 177.841 99.0407C177.378 98.2765 177.268 97.4319 177.489 96.527C177.791 95.3204 178.585 94.3551 179.852 93.6613C181.069 92.9977 183.411 92.3341 187.011 91.6604L187.343 90.3533C187.695 88.9456 187.705 88.4629 187.685 88.3121C187.644 88.0507 187.504 87.7893 187.262 87.5278C187.011 87.2664 186.719 87.0955 186.347 87.005C185.724 86.8441 185.171 86.8542 184.708 87.0251C184.367 87.1558 184.326 87.3267 184.306 87.3871C184.286 87.4675 184.286 87.6787 184.517 88.111C184.839 88.7344 184.94 89.2874 184.819 89.7801C184.668 90.3734 184.316 90.8258 183.773 91.1375C183.23 91.4392 182.607 91.5096 181.913 91.3286C181.179 91.1476 180.616 90.7655 180.224 90.1924C179.832 89.6092 179.711 88.9959 179.862 88.3825C180.073 87.558 180.596 86.8441 181.431 86.271C182.245 85.7079 183.271 85.366 184.487 85.2655C185.684 85.1649 186.89 85.2655 188.077 85.5671C189.535 85.9291 190.631 86.5525 191.335 87.3971C192.038 88.2417 192.431 89.0864 192.501 89.8907C192.541 90.4136 192.36 91.4593 191.948 93.0982L190.5 98.8396C190.289 99.6842 190.259 99.9657 190.269 100.046C190.279 100.167 190.299 100.267 190.349 100.328C190.4 100.388 190.45 100.428 190.52 100.438C190.691 100.479 190.953 100.378 191.254 100.127C191.315 100.076 191.385 100.046 191.475 100.066C191.556 100.076 191.626 100.117 191.676 100.177L192.059 100.68C192.149 100.8 192.129 100.971 192.018 101.072C191.264 101.745 190.54 102.198 189.846 102.419C189.444 102.53 189.052 102.59 188.65 102.59ZM185.432 98.7793C185.493 98.7793 185.543 98.7994 185.593 98.8295C185.684 98.8899 185.724 98.9904 185.714 99.101C185.623 99.8451 185.744 100.458 186.076 100.911C186.408 101.363 186.971 101.695 187.745 101.896C188.409 102.067 189.042 102.047 189.645 101.856C190.198 101.675 190.792 101.323 191.405 100.8L191.365 100.75C191.003 100.991 190.671 101.082 190.369 101.001C190.168 100.951 189.997 100.841 189.877 100.68C189.756 100.519 189.686 100.318 189.676 100.076C189.666 99.9255 189.686 99.6339 189.927 98.6988L191.375 92.9575C191.857 91.0269 191.938 90.2427 191.918 89.941C191.857 89.2573 191.506 88.5233 190.882 87.7692C190.259 87.015 189.263 86.4721 187.926 86.1302C186.8 85.8487 185.654 85.7481 184.527 85.8487C183.411 85.9392 182.476 86.2509 181.752 86.7536C181.038 87.2463 180.586 87.8496 180.415 88.5333C180.304 88.9959 180.395 89.4282 180.697 89.8807C181.008 90.3332 181.451 90.6348 182.044 90.7856C182.597 90.9264 183.069 90.8761 183.482 90.6449C183.894 90.4136 184.145 90.0918 184.256 89.6494C184.346 89.2975 184.256 88.8752 184.005 88.3926C183.753 87.92 183.673 87.5479 183.743 87.2564C183.834 86.9044 184.085 86.6531 184.497 86.4922C185.07 86.281 185.734 86.2609 186.478 86.452C186.951 86.5726 187.353 86.8039 187.675 87.1458C187.996 87.4876 188.187 87.8597 188.248 88.2317C188.278 88.4629 188.288 88.9456 187.896 90.5041L187.524 91.9922C187.494 92.1028 187.403 92.1833 187.293 92.2034C183.703 92.877 181.29 93.5407 180.123 94.1741C178.987 94.7975 178.303 95.612 178.042 96.6677C177.851 97.4319 177.941 98.1056 178.324 98.739C178.706 99.3725 179.269 99.7747 180.043 99.9657C181.4 100.308 183.17 99.9255 185.302 98.8195C185.342 98.7893 185.392 98.7793 185.432 98.7793ZM184.075 98.6787C183.904 98.6787 183.743 98.6586 183.592 98.6184C183.039 98.4776 182.637 98.1961 182.406 97.7738C182.114 97.2509 182.044 96.708 182.175 96.1549C182.335 95.5215 182.718 94.9383 183.321 94.4356C184.186 93.7116 185.382 93.1284 186.88 92.6961C186.981 92.6659 187.091 92.6961 187.162 92.7664C187.232 92.8368 187.262 92.9474 187.242 93.048L185.995 98.005C185.975 98.0855 185.915 98.1559 185.845 98.1961C185.161 98.5178 184.578 98.6787 184.075 98.6787ZM186.569 93.3898C185.382 93.782 184.417 94.2847 183.703 94.8679C183.2 95.2902 182.878 95.7729 182.748 96.2857C182.647 96.6979 182.697 97.09 182.919 97.4822C183.069 97.7637 183.341 97.9447 183.733 98.0453C184.165 98.1559 184.749 98.0352 185.473 97.7034L186.569 93.3898Z" fill="black"/>
<path d="M57.8862 151.437V30.5971C57.8862 28.4755 59.6056 26.7561 61.7272 26.7561H140.558C142.679 26.7561 144.399 28.4755 144.399 30.5971V151.437C144.399 153.558 142.679 155.278 140.558 155.278H61.7272C59.6056 155.278 57.8862 153.558 57.8862 151.437Z" fill="#FFBB00"/>
<path d="M140.568 155.539H61.7372C59.4748 155.539 57.6348 153.699 57.6348 151.437V30.597C57.6348 28.3347 59.4748 26.4946 61.7372 26.4946H140.568C142.83 26.4946 144.67 28.3347 144.67 30.597V151.437C144.67 153.699 142.83 155.539 140.568 155.539ZM61.7271 27.0175C59.7563 27.0175 58.1476 28.6263 58.1476 30.597V151.437C58.1476 153.408 59.7563 155.016 61.7271 155.016H140.558C142.528 155.016 144.137 153.408 144.137 151.437V30.597C144.137 28.6263 142.528 27.0175 140.558 27.0175H61.7271Z" fill="black"/>
<path d="M64.8442 130.583V37.5451C64.8442 35.4235 66.5636 33.7041 68.6852 33.7041H133.61C135.731 33.7041 137.451 35.4235 137.451 37.5451V130.573C137.451 132.695 135.731 134.414 133.61 134.414H68.6852C66.5636 134.424 64.8442 132.695 64.8442 130.583Z" fill="white"/>
<path d="M133.61 134.675H68.6852C66.4228 134.675 64.5828 132.835 64.5828 130.573V37.545C64.5828 35.2827 66.4228 33.4426 68.6852 33.4426H133.61C135.872 33.4426 137.712 35.2827 137.712 37.545V130.573C137.712 132.835 135.872 134.675 133.61 134.675ZM68.6852 33.9655C66.7144 33.9655 65.1056 35.5743 65.1056 37.545V130.573C65.1056 132.544 66.7144 134.153 68.6852 134.153H133.61C135.58 134.153 137.189 132.544 137.189 130.573V37.545C137.189 35.5743 135.58 33.9655 133.61 33.9655H68.6852Z" fill="black"/>
<path d="M101.142 151.507C104.402 151.507 107.045 148.865 107.045 145.605C107.045 142.345 104.402 139.703 101.142 139.703C97.8827 139.703 95.2402 142.345 95.2402 145.605C95.2402 148.865 97.8827 151.507 101.142 151.507Z" fill="#FFD876"/>
<path d="M101.142 151.779C97.7439 151.779 94.9788 149.014 94.9788 145.615C94.9788 142.217 97.7439 139.451 101.142 139.451C104.541 139.451 107.306 142.217 107.306 145.615C107.316 149.014 104.551 151.779 101.142 151.779ZM101.142 139.964C98.0254 139.964 95.4916 142.498 95.4916 145.615C95.4916 148.732 98.0254 151.266 101.142 151.266C104.259 151.266 106.793 148.732 106.793 145.615C106.793 142.498 104.259 139.964 101.142 139.964Z" fill="black"/>
<path d="M73.1796 151.779C73.0389 151.779 72.9182 151.658 72.9182 151.517V139.703C72.9182 139.562 73.0389 139.441 73.1796 139.441C73.3204 139.441 73.4411 139.562 73.4411 139.703V151.517C73.431 151.658 73.3204 151.779 73.1796 151.779Z" fill="black"/>
<path d="M79.4338 151.779C79.293 151.779 79.1724 151.658 79.1724 151.517V139.703C79.1724 139.562 79.293 139.441 79.4338 139.441C79.5746 139.441 79.6952 139.562 79.6952 139.703V151.517C79.6952 151.658 79.5746 151.779 79.4338 151.779Z" fill="black"/>
<path d="M85.6879 151.779C85.5472 151.779 85.4265 151.658 85.4265 151.517V139.703C85.4265 139.562 85.5472 139.441 85.6879 139.441C85.8287 139.441 85.9494 139.562 85.9494 139.703V151.517C85.9494 151.658 85.8287 151.779 85.6879 151.779Z" fill="black"/>
<path d="M116.607 151.779C116.466 151.779 116.345 151.658 116.345 151.517V139.703C116.345 139.562 116.466 139.441 116.607 139.441C116.747 139.441 116.868 139.562 116.868 139.703V151.517C116.868 151.658 116.757 151.779 116.607 151.779Z" fill="black"/>
<path d="M122.861 151.779C122.72 151.779 122.599 151.658 122.599 151.517V139.703C122.599 139.562 122.72 139.441 122.861 139.441C123.002 139.441 123.122 139.562 123.122 139.703V151.517C123.122 151.658 123.012 151.779 122.861 151.779Z" fill="black"/>
<path d="M129.115 151.779C128.974 151.779 128.854 151.658 128.854 151.517V139.703C128.854 139.562 128.974 139.441 129.115 139.441C129.256 139.441 129.376 139.562 129.376 139.703V151.517C129.376 151.658 129.266 151.779 129.115 151.779Z" fill="black"/>
<path d="M138.567 179.49C138.426 179.49 138.305 179.369 138.305 179.229V178.122C138.305 174.181 134.786 170.984 130.462 170.984H109.247C104.631 170.984 100.881 167.545 100.881 163.322V157.409C100.881 157.269 101.002 157.148 101.142 157.148C101.283 157.148 101.404 157.269 101.404 157.409V163.322C101.404 167.263 104.923 170.461 109.247 170.461H130.462C135.078 170.461 138.828 173.899 138.828 178.122V179.229C138.828 179.369 138.707 179.49 138.567 179.49Z" fill="black"/>
<path d="M103.894 159.532L103.894 155.278L98.6856 155.278L98.6856 159.532L103.894 159.532Z" fill="#FFE49F"/>
<path d="M103.897 159.792H98.6889C98.5482 159.792 98.4275 159.672 98.4275 159.531V155.278C98.4275 155.137 98.5482 155.016 98.6889 155.016H103.897C104.038 155.016 104.159 155.137 104.159 155.278V159.531C104.159 159.682 104.038 159.792 103.897 159.792ZM98.9403 159.28H103.636V155.539H98.9403V159.28Z" fill="black"/>
<path d="M71.7922 45.5588C71.6514 45.5588 71.5308 45.4381 71.5308 45.2974V40.6621C71.5308 40.5213 71.6514 40.4006 71.7922 40.4006H76.4275C76.5683 40.4006 76.6889 40.5213 76.6889 40.6621C76.6889 40.8028 76.5683 40.9235 76.4275 40.9235H72.0536V45.2974C72.0536 45.4381 71.943 45.5588 71.7922 45.5588Z" fill="black"/>
<path d="M130.493 45.5588C130.352 45.5588 130.231 45.4381 130.231 45.2974V40.9235H125.857C125.717 40.9235 125.596 40.8028 125.596 40.6621C125.596 40.5213 125.717 40.4006 125.857 40.4006H130.493C130.633 40.4006 130.754 40.5213 130.754 40.6621V45.2974C130.754 45.4381 130.644 45.5588 130.493 45.5588Z" fill="black"/>
<path d="M130.493 127.727H125.857C125.717 127.727 125.596 127.607 125.596 127.466C125.596 127.325 125.717 127.205 125.857 127.205H130.231V122.831C130.231 122.69 130.352 122.569 130.493 122.569C130.633 122.569 130.754 122.69 130.754 122.831V127.466C130.754 127.607 130.644 127.727 130.493 127.727Z" fill="black"/>
<path d="M76.4275 127.727H71.7922C71.6514 127.727 71.5308 127.607 71.5308 127.466V122.831C71.5308 122.69 71.6514 122.569 71.7922 122.569C71.933 122.569 72.0536 122.69 72.0536 122.831V127.205H76.4275C76.5683 127.205 76.6889 127.325 76.6889 127.466C76.6889 127.607 76.5683 127.727 76.4275 127.727Z" fill="black"/>
<path d="M105.134 79.4136H79.0918C77.101 79.4136 75.4922 81.0224 75.4922 83.0132V109.055C75.4922 111.046 77.101 112.655 79.0918 112.655H105.134C107.125 112.655 108.734 111.046 108.734 109.055V83.0132C108.734 81.0224 107.125 79.4136 105.134 79.4136Z" fill="#E5B54A"/>
<path d="M105.134 112.906H79.0918C76.9602 112.906 75.2307 111.177 75.2307 109.045V83.0032C75.2307 80.8715 76.9602 79.1421 79.0918 79.1421H105.134C107.266 79.1421 108.995 80.8715 108.995 83.0032V109.045C108.995 111.177 107.266 112.906 105.134 112.906ZM79.0918 79.6649C77.2518 79.6649 75.7536 81.1631 75.7536 83.0032V109.045C75.7536 110.885 77.2518 112.384 79.0918 112.384H105.134C106.974 112.384 108.472 110.885 108.472 109.045V83.0032C108.472 81.1631 106.974 79.6649 105.134 79.6649H79.0918Z" fill="black"/>
<path d="M126.249 92.8973L111.348 67.0763C109.608 64.0598 105.255 64.0598 103.515 67.0763L88.6037 92.8973C86.8642 95.9138 89.036 99.6844 92.5251 99.6844H122.338C125.807 99.6844 127.989 95.9138 126.249 92.8973Z" fill="#FFCB48"/>
<path d="M122.328 99.9457H92.515C90.7856 99.9457 89.2371 99.0508 88.3724 97.5527C87.5077 96.0545 87.5077 94.2647 88.3724 92.7665L103.274 66.9456C104.139 65.4474 105.687 64.5525 107.416 64.5525C109.146 64.5525 110.694 65.4474 111.559 66.9456L126.46 92.7665C127.325 94.2647 127.325 96.0545 126.46 97.5527C125.606 99.0508 124.057 99.9457 122.328 99.9457ZM107.426 65.0854C105.888 65.0854 104.511 65.8797 103.736 67.217L88.8249 93.028C88.0507 94.3653 88.0507 95.9539 88.8249 97.2912C89.5991 98.6286 90.9766 99.4229 92.515 99.4229H122.328C123.866 99.4229 125.244 98.6286 126.018 97.2912C126.792 95.9539 126.792 94.3653 126.018 93.028L111.117 67.207C110.342 65.8797 108.965 65.0854 107.426 65.0854Z" fill="black"/>
<path d="M98.8767 86.7039C103.648 81.933 103.648 74.1979 98.8767 69.427C94.1058 64.6561 86.3707 64.6561 81.5999 69.427C76.829 74.1979 76.829 81.933 81.5999 86.7039C86.3707 91.4747 94.1058 91.4747 98.8767 86.7039Z" fill="#FFE299"/>
<path d="M90.2428 90.5444C83.3652 90.5444 77.7646 84.9438 77.7646 78.0663C77.7646 71.1887 83.3652 65.5881 90.2428 65.5881C97.1203 65.5881 102.721 71.1887 102.721 78.0663C102.721 84.9539 97.1203 90.5444 90.2428 90.5444ZM90.2428 66.111C83.6468 66.111 78.2875 71.4702 78.2875 78.0663C78.2875 84.6623 83.6468 90.0215 90.2428 90.0215C96.8388 90.0215 102.198 84.6623 102.198 78.0663C102.198 71.4702 96.8287 66.111 90.2428 66.111Z" fill="black"/>
<path d="M32.7792 123.857C33.3423 122.881 34.5891 122.549 35.5645 123.112C36.5398 123.676 36.8716 124.922 36.3085 125.898C35.7454 126.873 34.4986 127.205 33.5233 126.642C32.548 126.079 32.2162 124.832 32.7792 123.857Z" fill="#E5B54A"/>
<path d="M34.5388 127.185C34.1466 127.185 33.7545 127.084 33.3925 126.873C32.2965 126.239 31.9144 124.832 32.5479 123.726C33.1814 122.63 34.589 122.248 35.6951 122.881C36.7911 123.515 37.1732 124.922 36.5397 126.028C36.1073 126.772 35.3331 127.185 34.5388 127.185ZM33.0004 123.987C32.5077 124.842 32.7993 125.928 33.6539 126.42C34.5086 126.913 35.5945 126.622 36.0872 125.767C36.5799 124.912 36.2883 123.826 35.4337 123.334C34.579 122.851 33.4931 123.143 33.0004 123.987Z" fill="black"/>
<path d="M48.4552 133.248C49.1437 132.355 48.9783 131.073 48.0857 130.385C47.1931 129.696 45.9114 129.862 45.2228 130.754C44.5343 131.647 44.6997 132.929 45.5923 133.617C46.4848 134.306 47.7666 134.14 48.4552 133.248Z" fill="#E5B54A"/>
<path d="M46.8359 134.283C46.4438 134.283 46.0516 134.183 45.6896 133.972C45.1567 133.66 44.7747 133.167 44.6138 132.574C44.4529 131.981 44.5333 131.357 44.845 130.824C45.1567 130.291 45.6494 129.909 46.2427 129.759C46.8359 129.598 47.4593 129.678 47.9922 129.99C49.0882 130.623 49.4703 132.031 48.8368 133.137C48.4045 133.871 47.6302 134.283 46.8359 134.283ZM45.2975 131.096C45.0562 131.508 44.9959 131.991 45.1165 132.443C45.2372 132.896 45.5388 133.288 45.941 133.519C46.3533 133.76 46.8359 133.821 47.2884 133.7C47.7509 133.579 48.133 133.288 48.3643 132.876C48.8569 132.021 48.5654 130.935 47.7107 130.442C47.2984 130.201 46.8158 130.141 46.3633 130.261C45.9209 130.392 45.5388 130.684 45.2975 131.096Z" fill="black"/>
<path d="M37.9675 143.262C38.5306 142.287 39.7774 141.955 40.7527 142.518C41.728 143.081 42.0598 144.328 41.4967 145.303C40.9337 146.279 39.6869 146.611 38.7115 146.048C37.7362 145.484 37.4044 144.238 37.9675 143.262Z" fill="#E5B54A"/>
<path d="M39.727 146.59C39.3248 146.59 38.9327 146.49 38.5808 146.279C38.0479 145.967 37.6658 145.474 37.5049 144.881C37.344 144.288 37.4244 143.664 37.7362 143.132C38.0479 142.599 38.5405 142.217 39.1338 142.056C39.727 141.895 40.3504 141.975 40.8833 142.287C41.4162 142.599 41.7983 143.091 41.9592 143.685C42.1201 144.278 42.0396 144.901 41.7279 145.434C41.4162 145.967 40.9236 146.349 40.3303 146.51C40.1292 146.56 39.9281 146.59 39.727 146.59ZM39.7371 142.508C39.5863 142.508 39.4254 142.528 39.2746 142.568C38.812 142.689 38.4299 142.991 38.1987 143.393C37.9574 143.805 37.897 144.288 38.0177 144.74C38.1383 145.193 38.44 145.585 38.8422 145.816C39.2444 146.047 39.7371 146.118 40.1895 145.997C40.6521 145.877 41.0342 145.575 41.2654 145.173C41.5067 144.76 41.5671 144.278 41.4464 143.825C41.3258 143.373 41.0241 142.981 40.6219 142.749C40.3504 142.589 40.0488 142.508 39.7371 142.508Z" fill="black"/>
<path d="M20.4821 116.758C21.0452 115.782 22.292 115.451 23.2673 116.014C24.2427 116.577 24.5745 117.824 24.0114 118.799C23.4483 119.774 22.2015 120.106 21.2262 119.543C20.2509 118.98 19.9191 117.723 20.4821 116.758Z" fill="#E5B54A"/>
<path d="M22.2417 120.076C21.8495 120.076 21.4574 119.975 21.0954 119.764C19.9994 119.131 19.6173 117.723 20.2508 116.617C20.8842 115.521 22.2919 115.139 23.398 115.772C23.9309 116.084 24.313 116.577 24.4638 117.17C24.6247 117.763 24.5442 118.387 24.2325 118.919C23.8102 119.664 23.036 120.076 22.2417 120.076ZM22.2517 115.993C21.6384 115.993 21.0351 116.315 20.7032 116.878C20.2106 117.723 20.5022 118.819 21.3568 119.312C21.7691 119.553 22.2517 119.613 22.7042 119.493C23.1667 119.372 23.5488 119.08 23.78 118.668C24.0214 118.256 24.0817 117.773 23.961 117.321C23.8404 116.858 23.5488 116.476 23.1365 116.245C22.855 116.074 22.5534 115.993 22.2517 115.993Z" fill="black"/>
<path d="M13.3732 129.055C13.9363 128.079 15.1831 127.748 16.1584 128.311C17.1338 128.874 17.4656 130.121 16.9025 131.096C16.3394 132.071 15.0926 132.403 14.1173 131.84C13.142 131.277 12.8102 130.03 13.3732 129.055Z" fill="#E5B54A"/>
<path d="M15.1328 132.373C14.7306 132.373 14.3384 132.272 13.9865 132.061C12.8905 131.428 12.5084 130.02 13.1419 128.914C13.4536 128.381 13.9463 127.999 14.5395 127.848C15.1328 127.687 15.7562 127.768 16.2891 128.079C16.822 128.391 17.2041 128.884 17.365 129.477C17.5258 130.07 17.4454 130.694 17.1337 131.227C16.822 131.759 16.3293 132.142 15.7361 132.302C15.535 132.343 15.3339 132.373 15.1328 132.373ZM13.5944 129.175C13.1017 130.03 13.3933 131.116 14.2479 131.609C14.6602 131.85 15.1428 131.91 15.5953 131.79C16.0578 131.669 16.4399 131.367 16.6712 130.965C16.9125 130.553 16.9728 130.07 16.8522 129.618C16.7315 129.165 16.4298 128.773 16.0276 128.542C15.6154 128.301 15.1328 128.24 14.6803 128.361C14.2178 128.472 13.8357 128.773 13.5944 129.175Z" fill="black"/>
<path d="M39.7371 144.549C39.6969 144.549 39.6466 144.539 39.6064 144.519C39.4857 144.449 39.4355 144.288 39.5159 144.167C41.3761 140.94 41.8788 137.189 40.9135 133.589C39.9483 129.99 37.6457 126.983 34.4181 125.123C31.1905 123.263 27.4299 122.76 23.8403 123.726C20.2407 124.691 17.2343 126.993 15.3741 130.221C15.3037 130.342 15.1428 130.392 15.0222 130.312C14.9015 130.241 14.8512 130.08 14.9317 129.96C16.8622 126.611 19.9893 124.218 23.7197 123.223C27.45 122.227 31.3513 122.74 34.6996 124.671C38.0479 126.601 40.441 129.728 41.4364 133.459C42.4318 137.189 41.919 141.09 39.9885 144.439C39.9081 144.499 39.8276 144.549 39.7371 144.549Z" fill="black"/>
<path d="M46.8458 132.252C46.8056 132.252 46.7553 132.242 46.7151 132.222L22.1208 118.004C22.0001 117.934 21.9499 117.773 22.0303 117.653C22.1007 117.532 22.2616 117.482 22.3822 117.562L46.9765 131.78C47.0972 131.85 47.1475 132.011 47.067 132.132C47.0167 132.202 46.9262 132.252 46.8458 132.252Z" fill="black"/>
<path d="M31.4922 130.171C31.4922 130.171 31.5525 137.209 31.5424 143.101C31.5424 143.101 27.6311 144.348 25.8111 147.485L22.5634 145.615L19.3157 143.745C21.1256 140.608 20.2508 136.596 20.2508 136.596C25.3587 133.62 31.4922 130.171 31.4922 130.171Z" fill="#FFBB00"/>
<path d="M25.8112 147.737C25.7709 147.737 25.7207 147.727 25.6804 147.707L19.195 143.956C19.0744 143.886 19.0241 143.725 19.1045 143.604C20.844 140.588 20.0195 136.676 20.0095 136.636C19.9894 136.525 20.0396 136.415 20.1301 136.355C25.1777 133.439 31.3011 129.98 31.3615 129.95C31.4419 129.909 31.5424 129.909 31.6229 129.95C31.7033 130 31.7536 130.08 31.7536 130.171C31.7536 130.241 31.8139 137.27 31.8039 143.101C31.8039 143.212 31.7335 143.313 31.6229 143.353C31.5827 143.363 27.7819 144.61 26.0424 147.616C26.0122 147.676 25.9519 147.717 25.8815 147.737C25.8514 147.737 25.8313 147.737 25.8112 147.737ZM19.6777 143.634L25.7207 147.133C27.3998 144.449 30.4967 143.202 31.281 142.92C31.2911 137.973 31.2408 132.232 31.2307 130.623C29.8231 131.418 24.8258 134.243 20.5524 136.717C20.7033 137.531 21.1658 140.839 19.6777 143.634Z" fill="black"/>
<path d="M27.44 137.441C27.3998 137.441 27.3495 137.431 27.3093 137.41C27.1886 137.34 27.1384 137.179 27.2188 137.059L31.2709 130.05C31.3413 129.93 31.5022 129.879 31.6228 129.96C31.7435 130.03 31.7938 130.191 31.7133 130.312L27.6612 137.32C27.6109 137.39 27.5204 137.441 27.44 137.441Z" fill="black"/>
<path d="M25.5195 137.551C25.9217 136.847 26.8267 136.606 27.5305 137.018C28.2343 137.421 28.4757 138.326 28.0634 139.029C27.6612 139.733 26.7563 139.975 26.0524 139.562C25.3586 139.15 25.1173 138.255 25.5195 137.551Z" fill="#FFE299"/>
<path d="M26.7965 140.015C26.5049 140.015 26.2032 139.944 25.9318 139.783C25.5296 139.552 25.248 139.18 25.1274 138.738C25.0067 138.295 25.067 137.823 25.2983 137.431C25.5296 137.028 25.9016 136.747 26.344 136.626C26.7864 136.505 27.259 136.566 27.6511 136.797C28.4756 137.27 28.7572 138.335 28.2846 139.16C27.9729 139.703 27.3897 140.015 26.7965 140.015ZM26.7965 137.079C26.3742 137.079 25.972 137.3 25.7508 137.682C25.5899 137.963 25.5497 138.285 25.6301 138.597C25.7105 138.909 25.9116 139.17 26.1932 139.331C26.4747 139.492 26.7965 139.532 27.1082 139.452C27.4199 139.371 27.6813 139.17 27.8422 138.888C28.174 138.315 27.9729 137.571 27.3998 137.239C27.2087 137.129 26.9976 137.079 26.7965 137.079Z" fill="black"/>
<path d="M23.0459 153.689C23.0057 153.689 22.9554 153.679 22.9152 153.659C22.7945 153.589 22.7442 153.428 22.8247 153.307L25.9618 147.868L18.9133 143.785L15.7762 149.225C15.7058 149.346 15.5449 149.396 15.4243 149.315C15.3036 149.245 15.2533 149.084 15.3338 148.963L18.6016 143.303C18.6318 143.242 18.6921 143.202 18.7625 143.182C18.8228 143.162 18.9033 143.172 18.9636 143.212L26.4746 147.546C26.5349 147.576 26.5752 147.636 26.5953 147.707C26.6154 147.777 26.6053 147.847 26.5651 147.908L23.2973 153.569C23.2269 153.649 23.1364 153.689 23.0459 153.689Z" fill="black"/>
<path d="M211.676 130.955C193.406 128.723 167.545 124.158 163.493 123.424C163.161 123.364 162.86 123.595 162.809 123.917C162.477 126.32 161.18 135.399 159.491 142.83C159.421 143.162 159.642 143.483 159.974 143.534C164.016 144.147 188.972 147.948 208.469 151.537C208.79 151.598 209.102 151.377 209.152 151.045C209.544 148.451 211.113 137.983 212.179 131.619C212.229 131.307 212.008 130.995 211.676 130.955Z" fill="#DDA831"/>
<path d="M208.579 151.819C208.529 151.819 208.478 151.819 208.428 151.809C188.339 148.109 162.789 144.238 159.943 143.805C159.712 143.775 159.501 143.644 159.37 143.443C159.24 143.252 159.189 143.011 159.24 142.78C160.909 135.42 162.196 126.461 162.548 123.887C162.578 123.655 162.699 123.454 162.89 123.313C163.081 123.173 163.312 123.122 163.533 123.163C163.815 123.213 191.999 128.27 211.706 130.684C211.937 130.714 212.138 130.834 212.279 131.015C212.42 131.207 212.47 131.428 212.44 131.659C211.394 137.873 209.856 148.099 209.414 151.075C209.383 151.306 209.253 151.507 209.072 151.638C208.921 151.759 208.75 151.819 208.579 151.819ZM163.382 123.685C163.312 123.685 163.252 123.706 163.191 123.746C163.121 123.796 163.071 123.876 163.061 123.967C162.709 126.541 161.411 135.52 159.742 142.9C159.722 142.991 159.742 143.081 159.793 143.152C159.843 143.222 159.923 143.272 160.014 143.292C162.859 143.725 188.419 147.596 208.519 151.296C208.609 151.316 208.69 151.296 208.76 151.246C208.83 151.196 208.881 151.115 208.891 151.025C209.333 148.038 210.882 137.823 211.917 131.599C211.937 131.508 211.907 131.418 211.857 131.347C211.807 131.277 211.726 131.227 211.636 131.217C191.918 128.803 163.714 123.736 163.433 123.685C163.422 123.685 163.402 123.685 163.382 123.685Z" fill="black"/>
<path d="M162.678 129.025C166.791 129.296 192.994 130.925 211.405 131.096C211.736 131.096 211.998 131.377 211.978 131.709C211.636 138.144 211.244 148.722 211.153 151.346C211.143 151.678 210.862 151.93 210.53 151.909C190.752 150.532 165.524 149.557 161.442 149.406C161.1 149.396 160.849 149.094 160.879 148.762C161.723 141.191 161.985 132.021 162.045 129.598C162.065 129.266 162.347 129.004 162.678 129.025Z" fill="white"/>
<path d="M210.58 152.171C210.56 152.171 210.54 152.171 210.52 152.171C190.098 150.753 164.317 149.778 161.442 149.667C161.211 149.657 160.989 149.557 160.839 149.376C160.688 149.195 160.617 148.963 160.637 148.732C161.472 141.211 161.743 132.182 161.804 129.588C161.814 129.356 161.904 129.145 162.075 128.984C162.246 128.823 162.477 128.753 162.699 128.763C162.99 128.783 191.596 130.643 211.415 130.824C211.646 130.824 211.867 130.925 212.018 131.096C212.169 131.267 212.259 131.488 212.249 131.719C211.907 138.074 211.535 148.35 211.425 151.357C211.415 151.588 211.314 151.799 211.143 151.95C210.982 152.101 210.781 152.171 210.58 152.171ZM162.638 129.286C162.558 129.286 162.477 129.316 162.417 129.366C162.347 129.427 162.317 129.507 162.317 129.598C162.256 132.192 161.985 141.241 161.14 148.782C161.13 148.873 161.16 148.963 161.221 149.034C161.281 149.104 161.361 149.144 161.452 149.144C164.328 149.255 190.108 150.22 210.55 151.648C210.64 151.658 210.721 151.628 210.791 151.568C210.862 151.507 210.892 151.427 210.902 151.336C211.012 148.33 211.395 138.044 211.726 131.689C211.726 131.599 211.696 131.518 211.636 131.448C211.576 131.387 211.495 131.347 211.405 131.347C191.576 131.166 162.96 129.296 162.668 129.276C162.658 129.286 162.648 129.286 162.638 129.286Z" fill="black"/>
<path d="M178.254 148.974C182.467 149.175 187.062 149.396 191.777 149.657C192.049 149.667 192.28 149.466 192.29 149.195L193.064 132.242C193.075 131.971 192.863 131.739 192.592 131.729C191.255 131.679 189.897 131.629 188.5 131.569C185.222 131.428 182.024 131.277 179.068 131.126C178.797 131.116 178.565 131.317 178.555 131.589L177.781 148.461C177.781 148.732 177.982 148.963 178.254 148.974Z" fill="#FFDD92"/>
<path d="M191.808 149.919C191.798 149.919 191.777 149.919 191.767 149.919C187.444 149.688 182.889 149.456 178.244 149.235C178.042 149.225 177.861 149.134 177.721 148.994C177.58 148.853 177.52 148.652 177.53 148.451L178.304 131.579C178.314 131.378 178.404 131.197 178.545 131.056C178.696 130.925 178.877 130.855 179.088 130.865C182.054 131.016 185.242 131.166 188.52 131.307C189.917 131.367 191.275 131.418 192.612 131.468C192.813 131.478 192.994 131.559 193.135 131.709C193.276 131.86 193.346 132.051 193.336 132.252L192.562 149.205C192.552 149.406 192.461 149.587 192.32 149.728C192.17 149.848 191.989 149.919 191.808 149.919ZM178.264 148.712C182.909 148.923 187.464 149.155 191.787 149.396C191.848 149.396 191.908 149.376 191.958 149.336C192.009 149.295 192.029 149.235 192.039 149.175L192.813 132.222C192.813 132.162 192.793 132.101 192.753 132.051C192.713 132.011 192.652 131.981 192.592 131.981C191.255 131.931 189.897 131.88 188.5 131.82C185.212 131.679 182.024 131.528 179.068 131.378C179.008 131.378 178.947 131.398 178.907 131.438C178.857 131.478 178.837 131.538 178.827 131.599L178.052 148.471C178.042 148.602 178.143 148.712 178.264 148.712Z" fill="black"/>
<path d="M193.989 132.262L193.215 149.245C193.205 149.516 193.406 149.738 193.678 149.758C198.283 150.019 202.958 150.301 207.493 150.612C207.765 150.632 208.006 150.421 208.016 150.14C208.147 146.631 208.458 138.396 208.75 132.654C208.76 132.373 208.549 132.142 208.267 132.142C204.185 132.091 199.58 131.981 194.502 131.8C194.231 131.79 193.999 131.991 193.989 132.262Z" fill="#FFCB48"/>
<path d="M207.523 150.874C207.503 150.874 207.493 150.874 207.473 150.874C203.26 150.582 198.605 150.301 193.658 150.019C193.245 149.999 192.934 149.647 192.954 149.235L193.728 132.252C193.748 131.85 194.08 131.538 194.482 131.538C194.492 131.538 194.502 131.538 194.512 131.538C199.57 131.719 204.205 131.83 208.267 131.88C208.479 131.88 208.67 131.971 208.81 132.122C208.951 132.272 209.022 132.463 209.011 132.675C208.72 138.496 208.398 146.842 208.277 150.16C208.267 150.361 208.187 150.552 208.026 150.693C207.885 150.804 207.704 150.874 207.523 150.874ZM194.251 132.272L193.477 149.255C193.467 149.376 193.567 149.486 193.688 149.496C198.635 149.768 203.29 150.059 207.513 150.351C207.584 150.361 207.634 150.331 207.684 150.291C207.735 150.25 207.755 150.19 207.765 150.13C207.885 146.812 208.197 138.476 208.499 132.644C208.499 132.584 208.479 132.524 208.438 132.473C208.398 132.423 208.338 132.403 208.277 132.403C204.205 132.353 199.57 132.242 194.502 132.061C194.361 132.031 194.251 132.152 194.251 132.272Z" fill="black"/>
<path d="M177.188 131.026C171.085 130.704 166.158 130.402 163.694 130.241C163.423 130.221 163.181 130.442 163.171 130.714C163.071 133.972 162.799 141.312 162.146 147.767C162.116 148.048 162.327 148.3 162.608 148.31C164.167 148.37 166.67 148.471 169.828 148.602C171.839 148.682 174.031 148.782 176.353 148.893C176.625 148.903 176.856 148.692 176.866 148.431L177.64 131.548C177.66 131.267 177.449 131.036 177.188 131.026Z" fill="#FFEABB"/>
<path d="M176.383 149.145C176.373 149.145 176.363 149.145 176.353 149.145C174.031 149.044 171.839 148.943 169.828 148.863C166.67 148.732 164.157 148.632 162.608 148.571C162.407 148.561 162.206 148.471 162.075 148.32C161.945 148.169 161.874 147.958 161.894 147.747C162.558 141.181 162.839 133.65 162.92 130.714C162.93 130.513 163.01 130.322 163.161 130.181C163.312 130.04 163.503 129.97 163.714 129.99C166.107 130.141 171.054 130.452 177.198 130.774C177.61 130.794 177.922 131.146 177.912 131.559L177.137 148.441C177.117 148.833 176.786 149.145 176.383 149.145ZM163.664 130.503C163.604 130.503 163.553 130.523 163.513 130.563C163.463 130.603 163.443 130.664 163.443 130.724C163.352 133.67 163.081 141.221 162.417 147.797C162.407 147.858 162.427 147.928 162.477 147.968C162.518 148.018 162.578 148.049 162.638 148.049C164.197 148.109 166.701 148.209 169.858 148.34C171.869 148.421 174.061 148.521 176.383 148.622C176.444 148.622 176.504 148.602 176.554 148.561C176.605 148.521 176.625 148.461 176.625 148.4L177.399 131.518C177.409 131.398 177.308 131.287 177.178 131.277C171.024 130.955 166.087 130.644 163.684 130.493C163.674 130.503 163.664 130.503 163.664 130.503Z" fill="black"/>
<path d="M212.953 139.793C212.923 139.793 212.893 139.793 212.872 139.793L207.584 139.572C207.242 139.562 206.92 139.411 206.689 139.16C206.457 138.909 206.337 138.577 206.357 138.235C206.387 137.531 206.96 136.958 207.694 137.008L211.927 137.189C212.068 137.199 212.179 137.32 212.179 137.461C212.179 137.601 212.038 137.732 211.907 137.712L207.674 137.531C207.252 137.511 206.9 137.843 206.88 138.265C206.87 138.466 206.94 138.667 207.081 138.818C207.222 138.969 207.403 139.059 207.614 139.069L212.903 139.291C213.697 139.311 214.351 138.707 214.391 137.923C214.411 137.541 214.27 137.179 214.019 136.898C213.767 136.616 213.405 136.455 213.033 136.435L209.645 136.294C209.504 136.284 209.393 136.164 209.393 136.023C209.404 135.882 209.514 135.741 209.665 135.771L213.053 135.912C213.576 135.932 214.049 136.154 214.401 136.536C214.753 136.918 214.934 137.42 214.914 137.933C214.894 138.456 214.672 138.929 214.29 139.281C213.908 139.612 213.446 139.793 212.953 139.793Z" fill="black"/>
<path d="M127.446 49.0681H74.9092V58.4091H127.446V49.0681Z" fill="#FFE49F"/>
<path d="M127.446 58.6604H74.9091C74.7684 58.6604 74.6477 58.5398 74.6477 58.399V49.0681C74.6477 48.9273 74.7684 48.8066 74.9091 48.8066H127.446C127.587 48.8066 127.707 48.9273 127.707 49.0681V58.4091C127.707 58.5498 127.587 58.6604 127.446 58.6604ZM75.1706 58.1476H127.185V49.3295H75.1706V58.1476Z" fill="black"/>
<path d="M127.476 120.9H103.545V122.609H127.476V120.9Z" fill="#FFE49F"/>
<path d="M127.476 122.791H103.545C103.445 122.791 103.365 122.71 103.365 122.61V120.9C103.365 120.8 103.445 120.719 103.545 120.719H127.476C127.577 120.719 127.657 120.8 127.657 120.9V122.61C127.657 122.71 127.577 122.791 127.476 122.791ZM103.726 122.429H127.295V121.081H103.726V122.429Z" fill="black"/>
<path d="M127.476 118.547H103.545V120.256H127.476V118.547Z" fill="#FFE49F"/>
<path d="M127.476 120.438H103.545C103.445 120.438 103.365 120.357 103.365 120.257V118.547C103.365 118.447 103.445 118.366 103.545 118.366H127.476C127.577 118.366 127.657 118.447 127.657 118.547V120.257C127.657 120.357 127.577 120.438 127.476 120.438ZM103.726 120.076H127.295V118.728H103.726V120.076Z" fill="black"/>
<path d="M127.476 116.194H103.545V117.904H127.476V116.194Z" fill="#FFE49F"/>
<path d="M127.476 118.085H103.545C103.445 118.085 103.365 118.004 103.365 117.904V116.194C103.365 116.094 103.445 116.013 103.545 116.013H127.476C127.577 116.013 127.657 116.094 127.657 116.194V117.904C127.657 118.004 127.577 118.085 127.476 118.085ZM103.726 117.723H127.295V116.375H103.726V117.723Z" fill="black"/>
<path d="M10.8996 62.4209C19.4865 59.3341 29.1693 64.3917 32.5377 73.7226C32.7589 74.336 32.9399 74.9493 33.1008 75.5627C33.6739 77.8451 32.0048 80.0673 29.652 80.1376C26.1931 80.2583 23.3878 81.7565 22.6035 84.2501C21.9901 86.2209 22.7644 88.4028 24.4938 90.2529C26.2836 92.1633 25.5898 95.3004 23.1263 96.1953C23.1062 96.2054 23.0861 96.2054 23.066 96.2154C14.4791 99.3224 4.79626 94.2547 1.43792 84.9238C-1.92041 75.5928 2.3127 65.5178 10.8996 62.4209Z" fill="#FFCB48"/>
<path d="M17.8878 97.4119C10.7789 97.4119 3.90139 92.6057 1.17652 85.0143C-0.472487 80.4393 -0.381993 75.5425 1.42789 71.229C3.24783 66.9054 6.576 63.6878 10.8091 62.1695C15.0422 60.6512 19.6574 61.0032 23.8101 63.175C27.9628 65.3469 31.1502 69.0571 32.7992 73.6422C33.0204 74.2555 33.2114 74.8789 33.3723 75.5023C33.6639 76.6687 33.4226 77.8954 32.6986 78.8506C31.9747 79.8159 30.8686 80.389 29.662 80.4292C26.1931 80.5499 23.5889 82.0481 22.875 84.3506C22.3119 86.1505 22.9755 88.2419 24.705 90.0819C25.62 91.0673 25.982 92.4247 25.6703 93.7319C25.3585 95.0189 24.4737 96.0244 23.2269 96.4768C23.2269 96.4768 23.1666 96.497 23.1565 96.497C21.4271 97.1103 19.6474 97.4119 17.8878 97.4119ZM16.1181 61.7874C14.3887 61.7874 12.6592 62.0891 11.0002 62.6823C6.91786 64.1503 3.71035 67.2573 1.95074 71.4402C0.191136 75.623 0.100642 80.379 1.69937 84.8232C4.99738 93.9933 14.5495 98.9906 22.9755 95.954C24.1017 95.5417 24.8558 94.6871 25.1273 93.581C25.3988 92.4549 25.0871 91.2885 24.2927 90.4439C22.4326 88.453 21.7187 86.1605 22.3421 84.1696C23.1364 81.6358 25.9317 79.9868 29.6419 79.8561C30.6776 79.8259 31.6328 79.3232 32.2462 78.4987C32.8696 77.6742 33.0707 76.6285 32.8193 75.623C32.6685 75.0197 32.4774 74.4063 32.2663 73.8131C30.6675 69.3688 27.5706 65.7591 23.5386 63.6577C21.1757 62.4209 18.6318 61.7874 16.1181 61.7874Z" fill="black"/>
<path d="M16.6615 79.1166C20.3114 78.4851 22.7583 75.0144 22.1267 71.3645C21.4952 67.7146 18.0245 65.2677 14.3746 65.8992C10.7247 66.5308 8.27782 70.0015 8.90935 73.6514C9.54087 77.3013 13.0116 79.7482 16.6615 79.1166Z" fill="#FFE3A4"/>
<path d="M15.5148 79.5042C14.4993 79.5042 13.4938 79.283 12.5486 78.8305C10.8594 78.0362 9.58241 76.6285 8.94895 74.879C7.64182 71.2492 9.53214 67.2473 13.1519 65.9402C16.7817 64.633 20.7836 66.5233 22.0907 70.1431C23.3978 73.7729 21.5075 77.7748 17.8878 79.0819C17.1135 79.3635 16.3091 79.5042 15.5148 79.5042ZM15.5148 66.0809C14.7909 66.0809 14.0568 66.2016 13.3429 66.463C11.7241 67.0462 10.4371 68.2226 9.70307 69.7711C8.96906 71.3195 8.88862 73.0691 9.47181 74.6879C10.055 76.3068 11.2314 77.5938 12.7799 78.3278C14.3283 79.0618 16.0779 79.1422 17.6967 78.5591C21.0349 77.3625 22.7644 73.6724 21.5679 70.3342C20.6227 67.7098 18.1492 66.0809 15.5148 66.0809Z" fill="black"/>
<path d="M11.4828 89.9412C10.9197 88.3928 11.7341 86.6734 13.2826 86.1204C14.831 85.5673 16.5504 86.3717 17.1034 87.9202C17.6665 89.4686 16.8521 91.188 15.3036 91.741C13.7552 92.3041 12.0458 91.4997 11.4828 89.9412Z" fill="#FFF1D2"/>
<path d="M14.2982 92.2036C13.8257 92.2036 13.3531 92.103 12.9107 91.8919C12.1163 91.5198 11.5231 90.8663 11.2315 90.0418C10.9399 89.2173 10.9801 88.3324 11.3522 87.5381C11.7242 86.7438 12.3778 86.1505 13.2023 85.8589C14.0268 85.5673 14.9116 85.6076 15.6959 85.9796C16.4902 86.3516 17.0834 87.0052 17.375 87.8297C17.6666 88.6542 17.6264 89.539 17.2544 90.3233C16.8823 91.1076 16.2288 91.7109 15.4043 92.0025C15.0423 92.1332 14.6703 92.2036 14.2982 92.2036ZM14.2982 86.2209C13.9865 86.2209 13.6748 86.2712 13.3832 86.3818C11.9756 86.8845 11.2415 88.443 11.7543 89.8507C11.9957 90.5345 12.4984 91.0774 13.152 91.3891C13.8055 91.7008 14.5396 91.731 15.2233 91.4897C15.907 91.2484 16.45 90.7456 16.7617 90.092C17.0734 89.4385 17.1036 88.7045 16.8622 88.0207C16.6209 87.337 16.1182 86.794 15.4646 86.4823C15.0825 86.3014 14.6904 86.2209 14.2982 86.2209Z" fill="black"/>
<path d="M2.86556 83.6468C2.30249 82.0983 3.11694 80.3789 4.66539 79.8259C6.21384 79.2729 7.93323 80.0773 8.48625 81.6258C9.04933 83.1742 8.23488 84.8936 6.68642 85.4466C5.13797 85.9996 3.42864 85.2053 2.86556 83.6468Z" fill="#DDA831"/>
<path d="M5.68105 85.9091C5.20847 85.9091 4.73589 85.8086 4.29347 85.5974C3.49914 85.2254 2.9059 84.5718 2.6143 83.7473C2.32271 82.9228 2.36293 82.038 2.73496 81.2437C3.10699 80.4493 3.76056 79.8561 4.58507 79.5645C5.40957 79.2729 6.2944 79.3131 7.08874 79.6852C7.88307 80.0572 8.47631 80.7108 8.7679 81.5353C9.0595 82.3598 9.01928 83.2446 8.64724 84.0289C8.27521 84.8232 7.62164 85.4165 6.79714 85.708C6.42511 85.8388 6.05308 85.9091 5.68105 85.9091ZM5.68105 79.9265C5.36935 79.9265 5.05765 79.9768 4.76605 80.0874C4.08232 80.3287 3.53936 80.8314 3.22765 81.485C2.91595 82.1386 2.88579 82.8726 3.1271 83.5563C3.36842 84.24 3.87117 84.783 4.52474 85.0947C5.1783 85.4064 5.91231 85.4366 6.59605 85.1952C7.27978 84.9539 7.82274 84.4512 8.13444 83.7976C8.44615 83.144 8.47631 82.41 8.23499 81.7263C7.99368 81.0426 7.49093 80.4996 6.83736 80.1879C6.46533 80.017 6.07319 79.9265 5.68105 79.9265Z" fill="black"/>
<path d="M40.4511 65.6082L46.5343 75.3011C47.1476 76.2764 47.0069 77.5232 46.2729 78.3477L47.0169 79.494C47.4091 80.0872 46.474 80.6905 46.0919 80.0973L45.3679 78.9812C44.2619 79.4437 42.9547 79.0616 42.2811 78.026L36.0671 68.4637L40.4511 65.6082Z" fill="white"/>
<path d="M46.5242 80.6202C46.2528 80.6202 46.0114 80.4895 45.8606 80.2482L45.2573 79.3231C44.0608 79.7052 42.7436 79.2527 42.0498 78.1769L35.8359 68.6146C35.7554 68.4839 35.7856 68.313 35.9163 68.2326L40.3103 65.377C40.3706 65.3367 40.4511 65.3166 40.5215 65.3367C40.5918 65.3569 40.6622 65.3971 40.7024 65.4574L46.7857 75.1503C47.4191 76.1458 47.3387 77.4428 46.6248 78.3578L47.2582 79.3332C47.4191 79.5845 47.4392 79.8761 47.3085 80.1275C47.1677 80.399 46.8762 80.59 46.5645 80.6101C46.5443 80.6202 46.5343 80.6202 46.5242 80.6202ZM45.3679 78.6997C45.4584 78.6997 45.5489 78.75 45.5992 78.8304L46.3231 79.9465C46.3835 80.027 46.4538 80.0772 46.5343 80.0672C46.6449 80.0571 46.7555 79.9867 46.8058 79.8862C46.846 79.8057 46.8359 79.7253 46.7857 79.6449L46.0416 78.4986C45.9712 78.388 45.9813 78.2573 46.0718 78.1567C46.7454 77.4127 46.846 76.2966 46.3131 75.452L40.3807 66.0004L36.4593 68.5543L42.5224 77.8853C43.1156 78.7902 44.2619 79.1522 45.2674 78.7399C45.2975 78.7098 45.3277 78.6997 45.3679 78.6997Z" fill="black"/>
<path d="M43.4473 73.8533C44.1612 74.0242 44.8751 74.2052 45.5991 74.346L46.2929 75.452C46.8258 76.2966 46.7252 77.4026 46.0616 78.1467L45.9108 78.3076L46.7755 79.6449C46.8358 79.7354 46.8358 79.8259 46.7755 79.9063C46.7051 80.0069 46.5744 80.0672 46.4739 80.0471C46.4135 80.037 46.3733 79.9968 46.3331 79.9365L45.4784 78.6193L45.2572 78.7098C44.8349 78.8807 44.3824 78.931 43.93 78.8304C43.3468 78.7098 42.844 78.3579 42.5223 77.8652L39.1338 72.6567C40.5515 73.1092 41.9894 73.5114 43.4473 73.8533Z" fill="#FFF1D2"/>
<path d="M35.6044 67.9509L40.3 64.8942C40.8933 64.5021 41.4966 65.4372 40.9033 65.8193L36.2077 68.876C35.6044 69.2681 35.0011 68.3431 35.6044 67.9509Z" fill="#FFE3A4"/>
<path d="M35.9061 69.248C35.7855 69.248 35.6648 69.2178 35.5542 69.1675C35.2827 69.0268 35.0917 68.7352 35.0716 68.4235C35.0615 68.1419 35.1922 67.8805 35.4436 67.7196L40.1393 64.6629C40.3906 64.502 40.6822 64.4819 40.9336 64.6127C41.2051 64.7534 41.3961 65.045 41.4162 65.3567C41.4363 65.6383 41.2956 65.8997 41.0442 66.0606L36.3486 69.1172C36.2178 69.2077 36.057 69.248 35.9061 69.248ZM40.5917 65.0852C40.5414 65.0852 40.5012 65.1053 40.451 65.1355L35.7553 68.1922C35.6749 68.2425 35.6347 68.3129 35.6347 68.4034C35.6447 68.514 35.7151 68.6246 35.8156 68.6748C35.8961 68.7151 35.9765 68.705 36.057 68.6547L40.7526 65.598C40.833 65.5478 40.8733 65.4774 40.8733 65.3869C40.8632 65.2763 40.7928 65.1657 40.6923 65.1154C40.6621 65.0852 40.6319 65.0852 40.5917 65.0852Z" fill="black"/>
<path d="M34.8505 61.7874C35.8861 61.1138 37.2737 61.4054 37.9575 62.441L39.7774 65.2363L36.0169 67.6796L34.1869 64.8944C33.5132 63.8588 33.8048 62.4712 34.8505 61.7874Z" fill="#FFCB48"/>
<path d="M36.0068 67.9711C35.9163 67.9711 35.8258 67.9309 35.7755 67.8404L33.9556 65.0451C33.5836 64.4821 33.4629 63.8084 33.6037 63.1448C33.7444 62.4811 34.1265 61.9181 34.6997 61.5561C35.866 60.802 37.4346 61.1338 38.1887 62.3001L40.0087 65.0954C40.0489 65.1557 40.0589 65.2362 40.0489 65.3066C40.0288 65.3769 39.9885 65.4373 39.9282 65.4875L36.1677 67.9309C36.1074 67.951 36.0571 67.9711 36.0068 67.9711ZM36.0671 61.7069C35.7052 61.7069 35.3331 61.8075 35.0013 62.0186C34.5589 62.3001 34.2572 62.7426 34.1466 63.2554C34.036 63.7682 34.1366 64.291 34.4181 64.7334L36.0872 67.2974L39.3852 65.1557L37.7161 62.5917C37.3441 62.0186 36.7106 61.7069 36.0671 61.7069Z" fill="black"/>
<path d="M199.178 52.2856H197.71V72.1943H199.178V52.2856Z" fill="#FFBB00"/>
<path d="M199.178 72.4457H197.71C197.569 72.4457 197.448 72.325 197.448 72.1842V52.2856C197.448 52.1448 197.569 52.0242 197.71 52.0242H199.178C199.318 52.0242 199.439 52.1448 199.439 52.2856V72.1943C199.439 72.3351 199.318 72.4457 199.178 72.4457ZM197.971 71.9329H198.916V52.547H197.971V71.9329Z" fill="black"/>
<path d="M204.034 60.7017H202.566V80.6104H204.034V60.7017Z" fill="#FFE39C"/>
<path d="M204.034 80.8717H202.566C202.425 80.8717 202.305 80.7511 202.305 80.6103V60.7016C202.305 60.5608 202.425 60.4402 202.566 60.4402H204.034C204.175 60.4402 204.296 60.5608 204.296 60.7016V80.6103C204.296 80.7511 204.175 80.8717 204.034 80.8717ZM202.828 80.3489H203.773V60.963H202.828V80.3489Z" fill="black"/>
<path d="M76.0754 6.33468L76.0854 6.32462H76.0653L72.0031 0.251465L67.951 6.32462H67.9309L67.941 6.33468L67.9309 6.35479H67.951L72.0031 12.4179L76.0653 6.35479H76.0854L76.0754 6.33468Z" fill="#FFBB00"/>
<path d="M72.0032 12.6793C71.9127 12.6793 71.8322 12.6391 71.792 12.5687L67.76 6.54579C67.7399 6.52568 67.7198 6.50557 67.7097 6.47541C67.6796 6.42514 67.6695 6.35475 67.6796 6.30448C67.6796 6.27431 67.6896 6.24415 67.7097 6.21398C67.7298 6.18382 67.7499 6.15365 67.7701 6.13354L71.792 0.120713C71.8926 -0.0200554 72.1238 -0.0200554 72.2244 0.120713L76.2564 6.1436C76.2765 6.16371 76.2966 6.18382 76.3067 6.21398C76.3167 6.23409 76.3268 6.2542 76.3368 6.27431C76.3569 6.3447 76.3569 6.41508 76.3167 6.48546C76.2966 6.52568 76.2664 6.55585 76.2363 6.57596L72.2244 12.5787C72.1741 12.6391 72.0937 12.6793 72.0032 12.6793ZM68.2527 6.33464L72.0132 11.9553L75.7737 6.33464L72.0132 0.713952L68.2527 6.33464Z" fill="black"/>
<path d="M82.0781 13.2625L82.0881 13.2524H82.0781L79.2325 9.00928L76.3971 13.2524H76.377L76.387 13.2625L76.377 13.2726H76.3971L79.2325 17.5157L82.0781 13.2726H82.0881L82.0781 13.2625Z" fill="#FFE49F"/>
<path d="M79.2326 17.7772C79.1421 17.7772 79.0616 17.7369 79.0214 17.6666L76.206 13.4636C76.1859 13.4435 76.1759 13.4234 76.1558 13.4033C76.1256 13.353 76.1155 13.2927 76.1256 13.2323C76.1256 13.2022 76.1357 13.172 76.1558 13.1418C76.1658 13.1117 76.1859 13.0916 76.206 13.0715L79.0214 8.86852C79.122 8.72775 79.3532 8.72775 79.4538 8.86852L82.2691 13.0715C82.2893 13.0916 82.2993 13.1117 82.3094 13.1318C82.3194 13.1519 82.3295 13.172 82.3395 13.2022C82.3596 13.2726 82.3596 13.3429 82.3194 13.4033C82.2993 13.4334 82.2792 13.4636 82.2591 13.4837L79.4538 17.6666C79.4035 17.7369 79.3231 17.7772 79.2326 17.7772ZM76.6987 13.2625L79.2326 17.0532L81.7664 13.2625L79.2326 9.48187L76.6987 13.2625Z" fill="black"/>
<path d="M114.425 17.948H107.316C107.216 17.948 107.145 17.8675 107.145 17.777V10.8391C107.145 10.7386 107.226 10.6682 107.316 10.6682H114.425" fill="#FFE4A1"/>
<path d="M114.425 18.1993H107.316C107.075 18.1993 106.884 18.0083 106.884 17.767V10.8291C106.884 10.5878 107.075 10.3967 107.316 10.3967H114.425C114.566 10.3967 114.686 10.5174 114.686 10.6582C114.686 10.7989 114.566 10.9196 114.425 10.9196H107.397V17.6865H114.425C114.566 17.6865 114.686 17.8072 114.686 17.948C114.686 18.0887 114.566 18.1993 114.425 18.1993Z" fill="black"/>
<path d="M136.908 18.9837H115.059C114.707 18.9837 114.415 18.6921 114.415 18.3402V10.2561C114.415 9.90414 114.707 9.61255 115.059 9.61255H136.908C137.28 9.61255 137.582 9.91419 137.582 10.2862V18.3C137.592 18.6821 137.29 18.9837 136.908 18.9837Z" fill="#FFBB00"/>
<path d="M136.908 19.2451H115.059C114.566 19.2451 114.154 18.8429 114.154 18.3402V10.256C114.154 9.76332 114.556 9.35107 115.059 9.35107H136.908C137.421 9.35107 137.843 9.77338 137.843 10.2862V18.2999C137.853 18.8228 137.431 19.2451 136.908 19.2451ZM115.069 9.87393C114.857 9.87393 114.686 10.0449 114.686 10.256V18.3402C114.686 18.5513 114.857 18.7222 115.069 18.7222H136.918C137.149 18.7222 137.33 18.5312 137.33 18.2999V10.2862C137.33 10.0549 137.139 9.87393 136.918 9.87393H115.069Z" fill="black"/>
<path d="M138.738 17.8977H137.592V10.7085H138.738C138.818 10.7085 138.879 10.7688 138.879 10.8493V17.757C138.869 17.8374 138.808 17.8977 138.738 17.8977Z" fill="#FFD16C"/>
<path d="M138.738 18.1591H137.591C137.451 18.1591 137.33 18.0385 137.33 17.8977V10.7084C137.33 10.5677 137.451 10.447 137.591 10.447H138.738C138.959 10.447 139.14 10.628 139.14 10.8492V17.7569C139.13 17.9781 138.949 18.1591 138.738 18.1591ZM137.853 17.6363H138.617V10.9699H137.853V17.6363Z" fill="black"/>
<path d="M135.792 12.9607V15.6453C135.792 15.947 135.55 16.1883 135.249 16.1883H116.758C116.456 16.1883 116.215 15.947 116.215 15.6453V12.9607C116.215 12.659 116.456 12.4177 116.758 12.4177H135.249C135.55 12.4177 135.792 12.659 135.792 12.9607Z" fill="#FFD16C"/>
<path d="M135.249 16.4397H116.758C116.315 16.4397 115.953 16.0777 115.953 15.6353V12.9506C115.953 12.5082 116.315 12.1462 116.758 12.1462H135.249C135.691 12.1462 136.053 12.5082 136.053 12.9506V15.6353C136.053 16.0878 135.691 16.4397 135.249 16.4397ZM116.758 12.6791C116.607 12.6791 116.476 12.8099 116.476 12.9607V15.6453C116.476 15.7962 116.607 15.9269 116.758 15.9269H135.249C135.4 15.9269 135.53 15.7962 135.53 15.6453V12.9607C135.53 12.8099 135.4 12.6791 135.249 12.6791H116.758Z" fill="black"/>
<path d="M138.869 11.7543H137.581C137.441 11.7543 137.32 11.6336 137.32 11.4929C137.32 11.3521 137.441 11.2314 137.581 11.2314H138.869C139.009 11.2314 139.13 11.3521 139.13 11.4929C139.13 11.6336 139.019 11.7543 138.869 11.7543Z" fill="black"/>
<path d="M138.869 13.6144H137.581C137.441 13.6144 137.32 13.4937 137.32 13.353C137.32 13.2122 137.441 13.0916 137.581 13.0916H138.869C139.009 13.0916 139.13 13.2122 139.13 13.353C139.13 13.4937 139.019 13.6144 138.869 13.6144Z" fill="black"/>
<path d="M138.869 15.4845H137.581C137.441 15.4845 137.32 15.3639 137.32 15.2231C137.32 15.0823 137.441 14.9617 137.581 14.9617H138.869C139.009 14.9617 139.13 15.0823 139.13 15.2231C139.13 15.3639 139.019 15.4845 138.869 15.4845Z" fill="black"/>
<path d="M138.869 17.3446H137.581C137.441 17.3446 137.32 17.224 137.32 17.0832C137.32 16.9424 137.441 16.8218 137.581 16.8218H138.869C139.009 16.8218 139.13 16.9424 139.13 17.0832C139.13 17.224 139.019 17.3446 138.869 17.3446Z" fill="black"/>
<path d="M110.584 13.6344H109.377C109.267 13.6344 109.176 13.5439 109.176 13.4333V12.2267C109.176 12.1161 109.267 12.0256 109.377 12.0256H110.584C110.695 12.0256 110.785 12.1161 110.785 12.2267V13.4333C110.775 13.5439 110.695 13.6344 110.584 13.6344Z" fill="#FFF1D2"/>
<path d="M110.584 13.8858H109.377C109.126 13.8858 108.915 13.6746 108.915 13.4233V12.2167C108.915 11.9653 109.126 11.7542 109.377 11.7542H110.584C110.835 11.7542 111.046 11.9653 111.046 12.2167V13.4233C111.036 13.6847 110.835 13.8858 110.584 13.8858ZM109.428 13.373H110.514V12.2871H109.428V13.373Z" fill="black"/>
<path d="M110.584 16.5907H109.377C109.267 16.5907 109.176 16.5002 109.176 16.3896V15.183C109.176 15.0724 109.267 14.9819 109.377 14.9819H110.584C110.695 14.9819 110.785 15.0724 110.785 15.183V16.3896C110.775 16.5002 110.695 16.5907 110.584 16.5907Z" fill="#FFF1D2"/>
<path d="M110.584 16.8421H109.377C109.126 16.8421 108.915 16.6309 108.915 16.3796V15.173C108.915 14.9216 109.126 14.7104 109.377 14.7104H110.584C110.835 14.7104 111.046 14.9216 111.046 15.173V16.3796C111.036 16.641 110.835 16.8421 110.584 16.8421ZM109.428 16.3293H110.514V15.2434H109.428V16.3293Z" fill="black"/>
</g>
<defs>
<clipPath id="clip0_631_599">
<rect width="214.903" height="179.49" fill="white"/>
</clipPath>
</defs>
</svg>
