<svg width="244" height="143" viewBox="0 0 244 143" fill="none" xmlns="http://www.w3.org/2000/svg">
<g clip-path="url(#clip0_707_1269)">
<path d="M81.6838 51.1953C86.6582 51.1953 90.6805 54.9082 90.6805 59.5018V91.8469H72.7109V59.5018C72.7109 54.9082 76.7333 51.1953 81.7076 51.1953H81.6838Z" fill="#38A770"/>
<path d="M90.6805 92.4417H72.711C72.3778 92.4417 72.116 92.1799 72.116 91.8467V59.5016C72.116 54.5986 76.4239 50.6001 81.7077 50.6001C86.9914 50.6001 91.2993 54.5986 91.2993 59.5016V91.8467C91.2993 92.1799 91.0375 92.4417 90.7043 92.4417H90.6805ZM73.306 91.2517H90.0855V59.5016C90.0855 55.2412 86.325 51.7901 81.6839 51.7901C77.0427 51.7901 73.2822 55.2412 73.2822 59.5016V91.2517H73.306Z" fill="black"/>
<path d="M175.197 89.9903C177.195 89.9903 178.815 88.3706 178.815 86.3726C178.815 84.3746 177.195 82.7549 175.197 82.7549C173.199 82.7549 171.579 84.3746 171.579 86.3726C171.579 88.3706 173.199 89.9903 175.197 89.9903Z" fill="#217F4C"/>
<path d="M175.197 90.5851C172.864 90.5851 170.984 88.6811 170.984 86.3724C170.984 84.0637 172.888 82.1597 175.197 82.1597C177.506 82.1597 179.41 84.0637 179.41 86.3724C179.41 88.6811 177.506 90.5851 175.197 90.5851ZM175.197 83.3259C173.531 83.3259 172.174 84.6825 172.174 86.3486C172.174 88.0146 173.531 89.3713 175.197 89.3713C176.863 89.3713 178.22 88.0146 178.22 86.3486C178.22 84.6825 176.863 83.3259 175.197 83.3259Z" fill="black"/>
<path d="M125.311 89.9903C127.309 89.9903 128.928 88.3706 128.928 86.3726C128.928 84.3746 127.309 82.7549 125.311 82.7549C123.313 82.7549 121.693 84.3746 121.693 86.3726C121.693 88.3706 123.313 89.9903 125.311 89.9903Z" fill="#217F4C"/>
<path d="M125.311 90.5851C122.978 90.5851 121.098 88.6811 121.098 86.3724C121.098 84.0637 123.002 82.1597 125.311 82.1597C127.619 82.1597 129.523 84.0637 129.523 86.3724C129.523 88.6811 127.619 90.5851 125.311 90.5851ZM125.311 83.3259C123.645 83.3259 122.288 84.6825 122.288 86.3486C122.288 88.0146 123.645 89.3713 125.311 89.3713C126.977 89.3713 128.333 88.0146 128.333 86.3486C128.333 84.6825 126.977 83.3259 125.311 83.3259Z" fill="black"/>
<path d="M76.543 89.9903C78.541 89.9903 80.1607 88.3706 80.1607 86.3726C80.1607 84.3746 78.541 82.7549 76.543 82.7549C74.545 82.7549 72.9253 84.3746 72.9253 86.3726C72.9253 88.3706 74.545 89.9903 76.543 89.9903Z" fill="#217F4C"/>
<path d="M76.543 90.5851C74.2106 90.5851 72.3303 88.6811 72.3303 86.3724C72.3303 84.0637 74.2344 82.1597 76.543 82.1597C78.8517 82.1597 80.7558 84.0637 80.7558 86.3724C80.7558 88.6811 78.8517 90.5851 76.543 90.5851ZM76.543 83.3259C74.877 83.3259 73.5204 84.6825 73.5204 86.3486C73.5204 88.0146 74.877 89.3713 76.543 89.3713C78.2091 89.3713 79.5657 88.0146 79.5657 86.3486C79.5657 84.6825 78.2091 83.3259 76.543 83.3259Z" fill="black"/>
<path d="M175.197 86.373H72.7109V60.5254H166.224H166.462C180.838 60.5254 192.476 71.2119 192.476 84.3737V86.373H175.197Z" fill="#EBFFF4"/>
<path d="M192.476 86.9678H72.711C72.3778 86.9678 72.116 86.706 72.116 86.3728V60.5252C72.116 60.192 72.3778 59.9302 72.711 59.9302H166.462C181.147 59.9302 193.071 70.9023 193.071 84.3735V86.3728C193.071 86.706 192.809 86.9678 192.476 86.9678ZM73.306 85.7778H191.881V84.3735C191.881 71.5449 180.481 61.1202 166.462 61.1202H73.306V85.7778Z" fill="black"/>
<path d="M168.699 67.0703H184.336C186.74 69.141 188.692 71.64 190.096 74.4247H168.699V67.0703Z" fill="#54ED92"/>
<path d="M190.096 75.0196H168.699C168.366 75.0196 168.104 74.7577 168.104 74.4245V67.0701C168.104 66.7369 168.366 66.4751 168.699 66.4751H184.336C184.479 66.4751 184.622 66.5227 184.717 66.6179C187.192 68.7838 189.192 71.3066 190.62 74.1627C190.715 74.3531 190.691 74.5673 190.596 74.7339C190.501 74.9005 190.287 75.0196 190.096 75.0196ZM169.294 73.8295H189.12C187.835 71.5446 186.169 69.474 184.122 67.6651H169.294V73.8295Z" fill="black"/>
<path d="M151.563 73.449C153.061 73.449 154.276 72.2342 154.276 70.7357C154.276 69.2372 153.061 68.0225 151.563 68.0225C150.064 68.0225 148.85 69.2372 148.85 70.7357C148.85 72.2342 150.064 73.449 151.563 73.449Z" fill="#54ED92"/>
<path d="M151.563 74.0438C149.73 74.0438 148.255 72.5444 148.255 70.7355C148.255 68.9267 149.754 67.4272 151.563 67.4272C153.372 67.4272 154.871 68.9267 154.871 70.7355C154.871 72.5444 153.372 74.0438 151.563 74.0438ZM151.563 68.5935C150.397 68.5935 149.445 69.5455 149.445 70.7117C149.445 71.878 150.397 72.83 151.563 72.83C152.729 72.83 153.681 71.878 153.681 70.7117C153.681 69.5455 152.729 68.5935 151.563 68.5935Z" fill="black"/>
<path d="M140.257 73.449C141.756 73.449 142.971 72.2342 142.971 70.7357C142.971 69.2372 141.756 68.0225 140.257 68.0225C138.759 68.0225 137.544 69.2372 137.544 70.7357C137.544 72.2342 138.759 73.449 140.257 73.449Z" fill="#54ED92"/>
<path d="M140.258 74.0438C138.425 74.0438 136.949 72.5444 136.949 70.7355C136.949 68.9267 138.449 67.4272 140.258 67.4272C142.066 67.4272 143.566 68.9267 143.566 70.7355C143.566 72.5444 142.066 74.0438 140.258 74.0438ZM140.258 68.5935C139.091 68.5935 138.139 69.5455 138.139 70.7117C138.139 71.878 139.091 72.83 140.258 72.83C141.424 72.83 142.376 71.878 142.376 70.7117C142.376 69.5455 141.424 68.5935 140.258 68.5935Z" fill="black"/>
<path d="M126.215 70.7357C126.215 72.2352 127.429 73.449 128.928 73.449C130.428 73.449 131.642 72.2352 131.642 70.7357C131.642 69.2363 130.428 68.0225 128.928 68.0225C127.429 68.0225 126.215 69.2363 126.215 70.7357Z" fill="#54ED92"/>
<path d="M128.952 74.0438C127.119 74.0438 125.644 72.5444 125.644 70.7355C125.644 68.9267 127.143 67.4272 128.952 67.4272C130.761 67.4272 132.26 68.9267 132.26 70.7355C132.26 72.5444 130.761 74.0438 128.952 74.0438ZM128.952 68.5935C127.786 68.5935 126.834 69.5455 126.834 70.7117C126.834 71.878 127.786 72.83 128.952 72.83C130.118 72.83 131.07 71.878 131.07 70.7117C131.07 69.5455 130.118 68.5935 128.952 68.5935Z" fill="black"/>
<path d="M114.91 70.7357C114.91 72.2352 116.124 73.449 117.623 73.449C119.123 73.449 120.336 72.2352 120.336 70.7357C120.336 69.2363 119.123 68.0225 117.623 68.0225C116.124 68.0225 114.91 69.2363 114.91 70.7357Z" fill="#54ED92"/>
<path d="M117.647 74.0438C115.814 74.0438 114.339 72.5444 114.339 70.7355C114.339 68.9267 115.838 67.4272 117.647 67.4272C119.456 67.4272 120.955 68.9267 120.955 70.7355C120.955 72.5444 119.456 74.0438 117.647 74.0438ZM117.647 68.5935C116.481 68.5935 115.529 69.5455 115.529 70.7117C115.529 71.878 116.481 72.83 117.647 72.83C118.813 72.83 119.765 71.878 119.765 70.7117C119.765 69.5455 118.813 68.5935 117.647 68.5935Z" fill="black"/>
<path d="M106.341 73.449C107.84 73.449 109.055 72.2342 109.055 70.7357C109.055 69.2372 107.84 68.0225 106.341 68.0225C104.843 68.0225 103.628 69.2372 103.628 70.7357C103.628 72.2342 104.843 73.449 106.341 73.449Z" fill="#54ED92"/>
<path d="M106.342 74.0438C104.509 74.0438 103.033 72.5444 103.033 70.7355C103.033 68.9267 104.533 67.4272 106.342 67.4272C108.15 67.4272 109.65 68.9267 109.65 70.7355C109.65 72.5444 108.15 74.0438 106.342 74.0438ZM106.342 68.5935C105.175 68.5935 104.223 69.5455 104.223 70.7117C104.223 71.878 105.175 72.83 106.342 72.83C107.508 72.83 108.46 71.878 108.46 70.7117C108.46 69.5455 107.508 68.5935 106.342 68.5935Z" fill="black"/>
<path d="M95.036 73.449C96.5345 73.449 97.7493 72.2342 97.7493 70.7357C97.7493 69.2372 96.5345 68.0225 95.036 68.0225C93.5375 68.0225 92.3228 69.2372 92.3228 70.7357C92.3228 72.2342 93.5375 73.449 95.036 73.449Z" fill="#54ED92"/>
<path d="M95.0361 74.0438C93.2034 74.0438 91.7278 72.5444 91.7278 70.7355C91.7278 68.9267 93.2272 67.4272 95.0361 67.4272C96.8449 67.4272 98.3444 68.9267 98.3444 70.7355C98.3444 72.5444 96.8449 74.0438 95.0361 74.0438ZM95.0361 68.5935C93.8698 68.5935 92.9178 69.5455 92.9178 70.7117C92.9178 71.878 93.8698 72.83 95.0361 72.83C96.2023 72.83 97.1543 71.878 97.1543 70.7117C97.1543 69.5455 96.2023 68.5935 95.0361 68.5935Z" fill="black"/>
<path d="M83.7309 73.449C85.2294 73.449 86.4441 72.2342 86.4441 70.7357C86.4441 69.2372 85.2294 68.0225 83.7309 68.0225C82.2324 68.0225 81.0176 69.2372 81.0176 70.7357C81.0176 72.2342 82.2324 73.449 83.7309 73.449Z" fill="#54ED92"/>
<path d="M83.7309 74.0438C81.8983 74.0438 80.4226 72.5444 80.4226 70.7355C80.4226 68.9267 81.9221 67.4272 83.7309 67.4272C85.5398 67.4272 87.0392 68.9267 87.0392 70.7355C87.0392 72.5444 85.5398 74.0438 83.7309 74.0438ZM83.7309 68.5935C82.5647 68.5935 81.6126 69.5455 81.6126 70.7117C81.6126 71.878 82.5647 72.83 83.7309 72.83C84.8971 72.83 85.8492 71.878 85.8492 70.7117C85.8492 69.5455 84.8971 68.5935 83.7309 68.5935Z" fill="black"/>
<path d="M192.31 81.6602L191.929 79.4468H72.9253V81.6602H192.31Z" fill="#CAFFE1"/>
<path d="M192.31 82.2551H72.9253C72.5921 82.2551 72.3303 81.9933 72.3303 81.66V79.4466C72.3303 79.1134 72.5921 78.8516 72.9253 78.8516H191.929C192.215 78.8516 192.476 79.0658 192.524 79.3514L192.905 81.5648C192.929 81.7314 192.905 81.9219 192.786 82.0409C192.667 82.1599 192.5 82.2551 192.334 82.2551H192.31ZM73.5204 81.065H191.596L191.405 80.0416H73.5204V81.065Z" fill="black"/>
<path d="M192.476 90.5377H72.9253C72.5921 90.5377 72.3303 90.2759 72.3303 89.9427C72.3303 89.6095 72.5921 89.3477 72.9253 89.3477H192.476C192.81 89.3477 193.071 89.6095 193.071 89.9427C193.071 90.2759 192.81 90.5377 192.476 90.5377Z" fill="black"/>
<path d="M76.543 65.9991H67.5701C67.2369 65.9991 66.9751 65.7373 66.9751 65.4041C66.9751 65.0709 67.2369 64.8091 67.5701 64.8091H76.543C76.8762 64.8091 77.138 65.0709 77.138 65.4041C77.138 65.7373 76.8762 65.9991 76.543 65.9991Z" fill="black"/>
<path d="M69.4742 70.7594H65.7613C65.4281 70.7594 65.1663 70.4976 65.1663 70.1644C65.1663 69.8311 65.4281 69.5693 65.7613 69.5693H69.4742C69.8074 69.5693 70.0692 69.8311 70.0692 70.1644C70.0692 70.4976 69.8074 70.7594 69.4742 70.7594Z" fill="black"/>
<path d="M63.7858 70.7594H62.8338C62.5006 70.7594 62.2388 70.4976 62.2388 70.1644C62.2388 69.8311 62.5006 69.5693 62.8338 69.5693H63.7858C64.119 69.5693 64.3808 69.8311 64.3808 70.1644C64.3808 70.4976 64.119 70.7594 63.7858 70.7594Z" fill="black"/>
<path d="M65.3565 65.9991H62.9051C62.5719 65.9991 62.3101 65.7373 62.3101 65.4041C62.3101 65.0709 62.5719 64.8091 62.9051 64.8091H65.3565C65.6898 64.8091 65.9516 65.0709 65.9516 65.4041C65.9516 65.7373 65.6898 65.9991 65.3565 65.9991Z" fill="black"/>
<path d="M73.0918 75.4957H64.1189C63.7857 75.4957 63.5239 75.2339 63.5239 74.9007C63.5239 74.5675 63.7857 74.3057 64.1189 74.3057H73.0918C73.425 74.3057 73.6868 74.5675 73.6868 74.9007C73.6868 75.2339 73.425 75.4957 73.0918 75.4957Z" fill="black"/>
<path d="M77.7806 75.4957H75.3291C74.9959 75.4957 74.7341 75.2339 74.7341 74.9007C74.7341 74.5675 74.9959 74.3057 75.3291 74.3057H77.7806C78.1138 74.3057 78.3756 74.5675 78.3756 74.9007C78.3756 75.2339 78.1138 75.4957 77.7806 75.4957Z" fill="black"/>
<path d="M74.5675 70.7594H72.116C71.7828 70.7594 71.521 70.4976 71.521 70.1644C71.521 69.8311 71.7828 69.5693 72.116 69.5693H74.5675C74.9007 69.5693 75.1625 69.8311 75.1625 70.1644C75.1625 70.4976 74.9007 70.7594 74.5675 70.7594Z" fill="black"/>
<path d="M127.691 38.486C129.505 38.486 130.975 37.0155 130.975 35.2015C130.975 33.3875 129.505 31.917 127.691 31.917C125.877 31.917 124.406 33.3875 124.406 35.2015C124.406 37.0155 125.877 38.486 127.691 38.486Z" fill="#38A770"/>
<path d="M127.691 39.0808C125.549 39.0808 123.811 37.3434 123.811 35.2013C123.811 33.0592 125.549 31.3218 127.691 31.3218C129.833 31.3218 131.57 33.0592 131.57 35.2013C131.57 37.3434 129.833 39.0808 127.691 39.0808ZM127.691 32.5118C126.215 32.5118 125.001 33.7256 125.001 35.2013C125.001 36.6769 126.215 37.8908 127.691 37.8908C129.166 37.8908 130.38 36.6769 130.38 35.2013C130.38 33.7256 129.166 32.5118 127.691 32.5118Z" fill="black"/>
<path d="M98.3446 38.486C100.159 38.486 101.629 37.0155 101.629 35.2015C101.629 33.3875 100.159 31.917 98.3446 31.917C96.5306 31.917 95.0601 33.3875 95.0601 35.2015C95.0601 37.0155 96.5306 38.486 98.3446 38.486Z" fill="#38A770"/>
<path d="M98.3446 39.0808C96.2025 39.0808 94.4651 37.3434 94.4651 35.2013C94.4651 33.0592 96.2025 31.3218 98.3446 31.3218C100.487 31.3218 102.224 33.0592 102.224 35.2013C102.224 37.3434 100.487 39.0808 98.3446 39.0808ZM98.3446 32.5118C96.869 32.5118 95.6551 33.7256 95.6551 35.2013C95.6551 36.6769 96.869 37.8908 98.3446 37.8908C99.8203 37.8908 101.034 36.6769 101.034 35.2013C101.034 33.7256 99.8203 32.5118 98.3446 32.5118Z" fill="black"/>
<path d="M83.7071 38.486C85.5211 38.486 86.9916 37.0155 86.9916 35.2015C86.9916 33.3875 85.5211 31.917 83.7071 31.917C81.8931 31.917 80.4226 33.3875 80.4226 35.2015C80.4226 37.0155 81.8931 38.486 83.7071 38.486Z" fill="#38A770"/>
<path d="M83.7071 39.0808C81.5651 39.0808 79.8276 37.3434 79.8276 35.2013C79.8276 33.0592 81.5651 31.3218 83.7071 31.3218C85.8492 31.3218 87.5867 33.0592 87.5867 35.2013C87.5867 37.3434 85.8492 39.0808 83.7071 39.0808ZM83.7071 32.5118C82.2315 32.5118 81.0177 33.7256 81.0177 35.2013C81.0177 36.6769 82.2315 37.8908 83.7071 37.8908C85.1828 37.8908 86.3966 36.6769 86.3966 35.2013C86.3966 33.7256 85.1828 32.5118 83.7071 32.5118Z" fill="black"/>
<path d="M38.4857 38.486C40.2996 38.486 41.7702 37.0155 41.7702 35.2015C41.7702 33.3875 40.2996 31.917 38.4857 31.917C36.6717 31.917 35.2012 33.3875 35.2012 35.2015C35.2012 37.0155 36.6717 38.486 38.4857 38.486Z" fill="#38A770"/>
<path d="M38.4857 39.0808C36.3437 39.0808 34.6062 37.3434 34.6062 35.2013C34.6062 33.0592 36.3437 31.3218 38.4857 31.3218C40.6278 31.3218 42.3652 33.0592 42.3652 35.2013C42.3652 37.3434 40.6278 39.0808 38.4857 39.0808ZM38.4857 32.5118C37.0101 32.5118 35.7962 33.7256 35.7962 35.2013C35.7962 36.6769 37.0101 37.8908 38.4857 37.8908C39.9614 37.8908 41.1752 36.6769 41.1752 35.2013C41.1752 33.7256 39.9614 32.5118 38.4857 32.5118Z" fill="black"/>
<path d="M23.8958 38.486C25.7098 38.486 27.1803 37.0155 27.1803 35.2015C27.1803 33.3875 25.7098 31.917 23.8958 31.917C22.0818 31.917 20.6113 33.3875 20.6113 35.2015C20.6113 37.0155 22.0818 38.486 23.8958 38.486Z" fill="#38A770"/>
<path d="M23.8959 39.0808C21.7538 39.0808 20.0164 37.3434 20.0164 35.2013C20.0164 33.0592 21.7538 31.3218 23.8959 31.3218C26.0379 31.3218 27.7754 33.0592 27.7754 35.2013C27.7754 37.3434 26.0379 39.0808 23.8959 39.0808ZM23.8959 32.5118C22.4202 32.5118 21.2064 33.7256 21.2064 35.2013C21.2064 36.6769 22.4202 37.8908 23.8959 37.8908C25.3715 37.8908 26.5854 36.6769 26.5854 35.2013C26.5854 33.7256 25.3715 32.5118 23.8959 32.5118Z" fill="black"/>
<path d="M138.663 39.0807H16.8509C16.5177 39.0807 16.2559 38.8189 16.2559 38.4856C16.2559 38.1524 16.5177 37.8906 16.8509 37.8906H138.663C138.996 37.8906 139.258 38.1524 139.258 38.4856C139.258 38.8189 138.996 39.0807 138.663 39.0807Z" fill="#232323"/>
<path d="M119.599 7.94971H119.861C123.93 7.94971 127.977 10.2108 131.214 13.9713H122.098V26.4429H137.211C137.663 28.5611 137.925 30.7984 137.925 33.1071V35.2015H125.049H16.8987V7.94971H119.575H119.599Z" fill="#CAFFE1"/>
<path d="M137.949 35.7963H16.9224C16.5892 35.7963 16.3274 35.5345 16.3274 35.2013V7.94951C16.3274 7.6163 16.5892 7.35449 16.9224 7.35449H119.86C124.026 7.35449 128.215 9.56796 131.666 13.5665C131.808 13.7331 131.856 13.9949 131.761 14.2091C131.666 14.4233 131.451 14.5661 131.213 14.5661H122.693V25.8476H137.211C137.497 25.8476 137.735 26.0381 137.782 26.3237C138.258 28.5609 138.496 30.8458 138.496 33.1069V35.2013C138.496 35.5345 138.235 35.7963 137.901 35.7963H137.949ZM17.5174 34.6063H137.354V33.1069C137.354 31.0838 137.164 29.0369 136.759 27.0377H122.122C121.788 27.0377 121.527 26.7759 121.527 26.4427V13.9711C121.527 13.6379 121.788 13.3761 122.122 13.3761H129.881C126.834 10.2582 123.335 8.54453 119.86 8.54453H17.5174V34.6301V34.6063Z" fill="black"/>
<path d="M122.121 13.9712H131.237C134.022 17.2081 136.188 21.516 137.259 26.4428H122.145V13.9712H122.121Z" fill="#EBFFF4"/>
<path d="M137.235 27.0376H122.121C121.788 27.0376 121.526 26.7758 121.526 26.4426V13.971C121.526 13.6378 121.788 13.376 122.121 13.376H131.237C131.404 13.376 131.57 13.4474 131.689 13.5902C134.664 17.0413 136.783 21.4444 137.83 26.3236C137.877 26.4902 137.83 26.6806 137.711 26.8234C137.592 26.9662 137.425 27.0376 137.259 27.0376H137.235ZM122.716 25.8475H136.497C135.474 21.5396 133.57 17.6601 130.951 14.566H122.716V25.8475Z" fill="black"/>
<path d="M118.266 13.9712H108.603V35.2252H118.266V13.9712Z" fill="#4BEA8F"/>
<path d="M118.266 35.7962H108.603C108.269 35.7962 108.008 35.5344 108.008 35.2012V13.971C108.008 13.6378 108.269 13.376 108.603 13.376H118.266C118.599 13.376 118.861 13.6378 118.861 13.971V35.225C118.861 35.5582 118.599 35.82 118.266 35.82V35.7962ZM109.198 34.6062H117.671V14.566H109.198V34.63V34.6062Z" fill="black"/>
<path d="M57.6453 13.9712H47.9822V35.2252H57.6453V13.9712Z" fill="#4BEA8F"/>
<path d="M57.6453 35.7962H47.9822C47.649 35.7962 47.3872 35.5344 47.3872 35.2012V13.971C47.3872 13.6378 47.649 13.376 47.9822 13.376H57.6453C57.9785 13.376 58.2403 13.6378 58.2403 13.971V35.225C58.2403 35.5582 57.9785 35.82 57.6453 35.82V35.7962ZM48.5772 34.6062H57.0503V14.566H48.5772V34.63V34.6062Z" fill="black"/>
<path d="M104.438 13.9712H77.4475V26.4428H104.438V13.9712Z" fill="#EBFFF4"/>
<path d="M104.438 27.0376H77.4476C77.1143 27.0376 76.8525 26.7758 76.8525 26.4426V13.971C76.8525 13.6378 77.1143 13.376 77.4476 13.376H104.438C104.771 13.376 105.033 13.6378 105.033 13.971V26.4426C105.033 26.7758 104.771 27.0376 104.438 27.0376ZM78.0426 25.8475H103.843V14.566H78.0426V25.8475Z" fill="black"/>
<path d="M90.9424 27.0376C90.6092 27.0376 90.3474 26.7758 90.3474 26.4426V13.971C90.3474 13.6378 90.6092 13.376 90.9424 13.376C91.2756 13.376 91.5374 13.6378 91.5374 13.971V26.4426C91.5374 26.7758 91.2756 27.0376 90.9424 27.0376Z" fill="#232323"/>
<path d="M44.0313 13.9712H17.0413V26.4428H44.0313V13.9712Z" fill="#EBFFF4"/>
<path d="M44.0313 27.0376H17.0413C16.7081 27.0376 16.4463 26.7758 16.4463 26.4426V13.971C16.4463 13.6378 16.7081 13.376 17.0413 13.376H44.0313C44.3645 13.376 44.6263 13.6378 44.6263 13.971V26.4426C44.6263 26.7758 44.3645 27.0376 44.0313 27.0376ZM17.6363 25.8475H43.4363V14.566H17.6363V25.8475Z" fill="black"/>
<path d="M30.5364 27.0376C30.2032 27.0376 29.9414 26.7758 29.9414 26.4426V13.971C29.9414 13.6378 30.2032 13.376 30.5364 13.376C30.8696 13.376 31.1314 13.6378 31.1314 13.971V26.4426C31.1314 26.7758 30.8696 27.0376 30.5364 27.0376Z" fill="#232323"/>
<path d="M70.2596 7.94971H69.0696V35.2253H70.2596V7.94971Z" fill="#232323"/>
<path d="M66.2611 7.94971H65.071V35.2253H66.2611V7.94971Z" fill="#232323"/>
<path d="M68.2603 7.94971H67.0703V35.2253H68.2603V7.94971Z" fill="#232323"/>
<path d="M64.2618 7.94971H63.0718V35.2253H64.2618V7.94971Z" fill="#232323"/>
<path d="M62.2389 7.94971H61.0488V35.2253H62.2389V7.94971Z" fill="#232323"/>
<path d="M106.675 8.54458C106.342 8.54458 106.08 8.28277 106.08 7.94956V5.40289L100.415 1.21396H96.6072C96.274 1.21396 96.0122 0.952153 96.0122 0.618943C96.0122 0.285734 96.274 0.0239258 96.6072 0.0239258H100.606C100.725 0.0239258 100.868 0.0715272 100.963 0.142929L107.032 4.64126C107.175 4.76027 107.27 4.92687 107.27 5.11728V7.97336C107.27 8.30657 107.008 8.56838 106.675 8.56838V8.54458Z" fill="#232323"/>
<path d="M118.266 25.8477H108.603V27.0377H118.266V25.8477Z" fill="#232323"/>
<path d="M118.266 27.585H108.603V28.775H118.266V27.585Z" fill="#232323"/>
<path d="M57.6453 25.8477H47.9822V27.0377H57.6453V25.8477Z" fill="#232323"/>
<path d="M57.6453 27.585H47.9822V28.775H57.6453V27.585Z" fill="#232323"/>
<path d="M104.438 29.8936H77.4476C77.1143 29.8936 76.8525 29.6318 76.8525 29.2986C76.8525 28.9654 77.1143 28.7036 77.4476 28.7036H104.438C104.771 28.7036 105.033 28.9654 105.033 29.2986C105.033 29.6318 104.771 29.8936 104.438 29.8936Z" fill="#232323"/>
<path d="M104.438 32.131H77.4476C77.1143 32.131 76.8525 31.8691 76.8525 31.5359C76.8525 31.2027 77.1143 30.9409 77.4476 30.9409H104.438C104.771 30.9409 105.033 31.2027 105.033 31.5359C105.033 31.8691 104.771 32.131 104.438 32.131Z" fill="#232323"/>
<path d="M44.0313 29.8936H17.0413C16.7081 29.8936 16.4463 29.6318 16.4463 29.2986C16.4463 28.9654 16.7081 28.7036 17.0413 28.7036H44.0313C44.3645 28.7036 44.6263 28.9654 44.6263 29.2986C44.6263 29.6318 44.3645 29.8936 44.0313 29.8936Z" fill="#232323"/>
<path d="M44.0313 32.131H17.0413C16.7081 32.131 16.4463 31.8691 16.4463 31.5359C16.4463 31.2027 16.7081 30.9409 17.0413 30.9409H44.0313C44.3645 30.9409 44.6263 31.2027 44.6263 31.5359C44.6263 31.8691 44.3645 32.131 44.0313 32.131Z" fill="#232323"/>
<path d="M119.599 7.94971H119.86C122.55 7.94971 125.239 8.94934 127.691 10.7106H72.2351V7.94971H119.599Z" fill="#74E8A8"/>
<path d="M127.691 11.3054H72.2352C71.9019 11.3054 71.6401 11.0436 71.6401 10.7104V7.94951C71.6401 7.6163 71.9019 7.35449 72.2352 7.35449H119.86C122.597 7.35449 125.43 8.35412 128.048 10.2106C128.262 10.3534 128.333 10.639 128.262 10.877C128.191 11.115 127.953 11.2816 127.691 11.2816V11.3054ZM72.8302 10.1154H125.62C123.716 9.09194 121.764 8.54453 119.86 8.54453H72.8302V10.1154Z" fill="black"/>
<path d="M59.2638 7.94971H16.9224V10.7106H59.2638V7.94971Z" fill="#74E8A8"/>
<path d="M59.2639 11.3054H16.9224C16.5892 11.3054 16.3274 11.0436 16.3274 10.7104V7.94951C16.3274 7.6163 16.5892 7.35449 16.9224 7.35449H59.2639C59.5971 7.35449 59.8589 7.6163 59.8589 7.94951V10.7104C59.8589 11.0436 59.5971 11.3054 59.2639 11.3054ZM17.5174 10.1154H58.6689V8.54453H17.5174V10.1154Z" fill="black"/>
<path d="M12.6143 23.0152H8.90141C8.5682 23.0152 8.3064 22.7534 8.3064 22.4202C8.3064 22.087 8.5682 21.8252 8.90141 21.8252H12.6143C12.9475 21.8252 13.2093 22.087 13.2093 22.4202C13.2093 22.7534 12.9475 23.0152 12.6143 23.0152Z" fill="#232323"/>
<path d="M15.5419 23.0152H14.5899C14.2567 23.0152 13.9949 22.7534 13.9949 22.4202C13.9949 22.087 14.2567 21.8252 14.5899 21.8252H15.5419C15.8751 21.8252 16.1369 22.087 16.1369 22.4202C16.1369 22.7534 15.8751 23.0152 15.5419 23.0152Z" fill="#232323"/>
<path d="M15.4706 27.7755H13.0191C12.6859 27.7755 12.4241 27.5137 12.4241 27.1805C12.4241 26.8473 12.6859 26.5854 13.0191 26.5854H15.4706C15.8038 26.5854 16.0656 26.8473 16.0656 27.1805C16.0656 27.5137 15.8038 27.7755 15.4706 27.7755Z" fill="#232323"/>
<path d="M14.2329 18.3028H5.26006C4.92685 18.3028 4.66504 18.041 4.66504 17.7078C4.66504 17.3746 4.92685 17.1128 5.26006 17.1128H14.2329C14.5661 17.1128 14.8279 17.3746 14.8279 17.7078C14.8279 18.041 14.5661 18.3028 14.2329 18.3028Z" fill="#232323"/>
<path d="M3.04649 18.3028H0.595018C0.261808 18.3028 0 18.041 0 17.7078C0 17.3746 0.261808 17.1128 0.595018 17.1128H3.04649C3.3797 17.1128 3.64151 17.3746 3.64151 17.7078C3.64151 18.041 3.3797 18.3028 3.04649 18.3028Z" fill="#232323"/>
<path d="M10.3058 27.7755H5.26006C4.92685 27.7755 4.66504 27.5137 4.66504 27.1805C4.66504 26.8473 4.92685 26.5854 5.26006 26.5854H10.3058C10.639 26.5854 10.9008 26.8473 10.9008 27.1805C10.9008 27.5137 10.639 27.7755 10.3058 27.7755Z" fill="#232323"/>
<path d="M6.25963 23.0152H3.80815C3.47494 23.0152 3.21313 22.7534 3.21313 22.4202C3.21313 22.087 3.47494 21.8252 3.80815 21.8252H6.25963C6.59284 21.8252 6.85464 22.087 6.85464 22.4202C6.85464 22.7534 6.59284 23.0152 6.25963 23.0152Z" fill="#232323"/>
<path d="M117.766 104.771H235.746C237.15 104.771 238.293 105.913 238.293 107.317L242.886 136.378C242.886 137.782 241.744 138.925 240.339 138.925H161.583C160.179 138.925 159.179 138.353 159.346 137.663V136.973C159.346 133.45 156.49 130.594 152.967 130.594C149.445 130.594 146.85 133.212 146.612 136.521H145.732C145.541 133.212 142.733 130.594 139.377 130.594C136.021 130.594 132.998 133.45 132.998 136.973V137.449C133.07 137.949 132.022 138.092 130.666 137.782L117.718 134.759C116.362 134.45 115.243 133.022 115.243 131.642V107.341C115.243 105.937 116.385 104.794 117.79 104.794L117.766 104.771Z" fill="#54ED92"/>
<path d="M240.363 139.544H161.607C160.44 139.544 159.488 139.187 159.036 138.615C158.774 138.306 158.703 137.901 158.774 137.52V136.973C158.774 133.784 156.156 131.189 152.967 131.189C149.944 131.189 147.421 133.546 147.207 136.545C147.207 136.854 146.922 137.092 146.612 137.092H145.732C145.422 137.092 145.16 136.854 145.137 136.521C144.97 133.522 142.423 131.166 139.377 131.166C136.33 131.166 133.593 133.76 133.593 136.949V137.425C133.641 137.616 133.546 137.925 133.308 138.139C132.665 138.758 131.142 138.472 130.523 138.33L117.575 135.307C115.957 134.926 114.624 133.26 114.624 131.594V107.294C114.624 105.556 116.028 104.152 117.766 104.152H235.746C237.483 104.152 238.888 105.556 238.888 107.294L243.481 136.283C243.481 138.115 242.077 139.52 240.339 139.52L240.363 139.544ZM152.967 130.023C156.799 130.023 159.941 133.141 159.941 136.997V137.877C160.107 138.068 160.655 138.353 161.583 138.353H240.339C241.41 138.353 242.291 137.473 242.291 136.402L237.698 107.413C237.698 106.246 236.817 105.366 235.746 105.366H117.766C116.695 105.366 115.814 106.246 115.814 107.317V131.618C115.814 132.737 116.742 133.903 117.837 134.165L130.785 137.187C131.618 137.378 132.165 137.354 132.403 137.306V136.973C132.403 133.141 135.521 129.999 139.377 129.999C142.685 129.999 145.494 132.308 146.184 135.402C146.898 132.308 149.706 129.999 152.967 129.999V130.023ZM132.403 137.473C132.403 137.473 132.403 137.52 132.403 137.568V137.473Z" fill="black"/>
<path d="M208.351 138.948H161.583C160.179 138.948 159.369 138.948 159.346 137.687V136.997C159.346 133.474 156.49 130.618 152.967 130.618C149.445 130.618 146.85 133.236 146.612 136.545H145.732C145.541 133.236 142.733 130.618 139.377 130.618C136.021 130.618 132.998 133.474 132.998 136.997V137.473C132.998 138.234 132.094 138.687 130.285 138.234L117.718 134.76C116.052 134.141 115.243 133.022 115.243 131.642V107.341C115.243 105.937 116.385 104.794 117.79 104.794H235.77C237.174 104.794 237.983 105.413 238.316 107.341L242.91 136.402C242.91 137.806 241.768 138.948 240.363 138.948H224.798" fill="#54ED92"/>
<path d="M240.363 139.544H224.798C224.464 139.544 224.203 139.282 224.203 138.948C224.203 138.615 224.464 138.353 224.798 138.353H240.363C241.434 138.353 242.315 137.473 242.315 136.402L237.721 107.413C237.412 105.699 236.793 105.366 235.77 105.366H117.79C116.718 105.366 115.838 106.246 115.838 107.317V131.618C115.838 132.808 116.552 133.689 117.932 134.188L130.452 137.639C131.499 137.901 132.118 137.806 132.332 137.639C132.403 137.592 132.427 137.544 132.427 137.449V136.973C132.427 133.141 135.545 129.999 139.401 129.999C142.709 129.999 145.517 132.308 146.208 135.402C146.922 132.308 149.73 129.999 152.991 129.999C156.823 129.999 159.964 133.117 159.964 136.973V137.663C159.964 138.234 159.964 138.33 161.607 138.33H208.375C208.708 138.33 208.97 138.591 208.97 138.925C208.97 139.258 208.708 139.52 208.375 139.52H161.607C160.226 139.52 158.798 139.52 158.774 137.663V136.973C158.774 133.784 156.18 131.189 152.991 131.189C149.968 131.189 147.445 133.546 147.231 136.545C147.231 136.854 146.945 137.092 146.636 137.092H145.755C145.446 137.092 145.184 136.854 145.16 136.521C144.994 133.522 142.447 131.166 139.401 131.166C136.354 131.166 133.617 133.76 133.617 136.949V137.425C133.617 137.877 133.427 138.258 133.07 138.544C132.475 139.02 131.475 139.091 130.142 138.782L117.552 135.307C115.647 134.617 114.624 133.308 114.624 131.594V107.294C114.624 105.556 116.028 104.152 117.766 104.152H235.746C237.555 104.152 238.507 105.08 238.888 107.198L243.481 136.283C243.481 138.115 242.077 139.52 240.339 139.52L240.363 139.544Z" fill="black"/>
<path d="M207.709 138.949H208.137C209.541 138.949 210.351 138.949 210.374 137.687V136.997C210.374 133.475 213.231 130.619 216.753 130.619C220.276 130.619 223.132 133.475 223.132 136.997V137.687C223.155 138.949 223.965 138.949 225.369 138.949H225.797" fill="#CAFFE1"/>
<path d="M225.773 139.544H225.345C223.965 139.544 222.536 139.544 222.513 137.687V136.997C222.513 133.808 219.918 131.213 216.729 131.213C213.54 131.213 210.946 133.808 210.946 136.997V137.687C210.898 139.544 209.494 139.544 208.113 139.544H207.685C207.352 139.544 207.09 139.282 207.09 138.949C207.09 138.615 207.352 138.354 207.685 138.354H208.113C209.756 138.354 209.756 138.258 209.756 137.663V136.997C209.756 133.165 212.873 130.023 216.729 130.023C220.585 130.023 223.703 133.141 223.703 136.997V137.687C223.703 138.258 223.703 138.354 225.345 138.354H225.773C226.107 138.354 226.368 138.615 226.368 138.949C226.368 139.282 226.107 139.544 225.773 139.544Z" fill="black"/>
<path d="M147.969 137.235C147.969 139.996 150.206 142.233 152.967 142.233C155.728 142.233 157.965 139.996 157.965 137.235C157.965 134.474 155.728 132.237 152.967 132.237C150.206 132.237 147.969 134.474 147.969 137.235Z" fill="#217F4C"/>
<path d="M152.967 142.828C149.897 142.828 147.374 140.329 147.374 137.235C147.374 134.141 149.873 131.642 152.967 131.642C156.061 131.642 158.56 134.141 158.56 137.235C158.56 140.329 156.061 142.828 152.967 142.828ZM152.967 132.855C150.54 132.855 148.564 134.831 148.564 137.259C148.564 139.686 150.54 141.662 152.967 141.662C155.395 141.662 157.37 139.686 157.37 137.259C157.37 134.831 155.395 132.855 152.967 132.855Z" fill="black"/>
<path d="M134.331 137.235C134.331 139.996 136.568 142.233 139.329 142.233C142.09 142.233 144.327 139.996 144.327 137.235C144.327 134.474 142.09 132.237 139.329 132.237C136.568 132.237 134.331 134.474 134.331 137.235Z" fill="#217F4C"/>
<path d="M139.329 142.828C136.259 142.828 133.736 140.329 133.736 137.235C133.736 134.141 136.235 131.642 139.329 131.642C142.423 131.642 144.922 134.141 144.922 137.235C144.922 140.329 142.423 142.828 139.329 142.828ZM139.329 132.855C136.902 132.855 134.926 134.831 134.926 137.259C134.926 139.686 136.902 141.662 139.329 141.662C141.757 141.662 143.732 139.686 143.732 137.259C143.732 134.831 141.757 132.855 139.329 132.855Z" fill="black"/>
<path d="M152.967 139.615C154.281 139.615 155.347 138.55 155.347 137.235C155.347 135.921 154.281 134.855 152.967 134.855C151.652 134.855 150.587 135.921 150.587 137.235C150.587 138.55 151.652 139.615 152.967 139.615Z" fill="#28D16C"/>
<path d="M152.967 140.21C151.325 140.21 149.992 138.877 149.992 137.235C149.992 135.593 151.325 134.26 152.967 134.26C154.609 134.26 155.942 135.593 155.942 137.235C155.942 138.877 154.609 140.21 152.967 140.21ZM152.967 135.45C151.991 135.45 151.182 136.259 151.182 137.235C151.182 138.211 151.991 139.02 152.967 139.02C153.943 139.02 154.752 138.211 154.752 137.235C154.752 136.259 153.943 135.45 152.967 135.45Z" fill="black"/>
<path d="M211.755 137.235C211.755 139.996 213.992 142.233 216.753 142.233C219.514 142.233 221.751 139.996 221.751 137.235C221.751 134.474 219.514 132.237 216.753 132.237C213.992 132.237 211.755 134.474 211.755 137.235Z" fill="#217F4C"/>
<path d="M216.753 142.828C213.683 142.828 211.16 140.329 211.16 137.235C211.16 134.141 213.659 131.642 216.753 131.642C219.847 131.642 222.346 134.141 222.346 137.235C222.346 140.329 219.847 142.828 216.753 142.828ZM216.753 132.855C214.325 132.855 212.35 134.831 212.35 137.259C212.35 139.686 214.325 141.662 216.753 141.662C219.181 141.662 221.156 139.686 221.156 137.259C221.156 134.831 219.181 132.855 216.753 132.855Z" fill="black"/>
<path d="M216.753 139.615C218.067 139.615 219.133 138.55 219.133 137.235C219.133 135.921 218.067 134.855 216.753 134.855C215.438 134.855 214.373 135.921 214.373 137.235C214.373 138.55 215.438 139.615 216.753 139.615Z" fill="#28D16C"/>
<path d="M216.753 140.21C215.111 140.21 213.778 138.877 213.778 137.235C213.778 135.593 215.111 134.26 216.753 134.26C218.395 134.26 219.728 135.593 219.728 137.235C219.728 138.877 218.395 140.21 216.753 140.21ZM216.753 135.45C215.777 135.45 214.968 136.259 214.968 137.235C214.968 138.211 215.777 139.02 216.753 139.02C217.729 139.02 218.538 138.211 218.538 137.235C218.538 136.259 217.729 135.45 216.753 135.45Z" fill="black"/>
<path d="M139.329 139.615C140.644 139.615 141.709 138.55 141.709 137.235C141.709 135.921 140.644 134.855 139.329 134.855C138.015 134.855 136.949 135.921 136.949 137.235C136.949 138.55 138.015 139.615 139.329 139.615Z" fill="#28D16C"/>
<path d="M139.329 140.21C137.687 140.21 136.354 138.877 136.354 137.235C136.354 135.593 137.687 134.26 139.329 134.26C140.972 134.26 142.304 135.593 142.304 137.235C142.304 138.877 140.972 140.21 139.329 140.21ZM139.329 135.45C138.354 135.45 137.544 136.259 137.544 137.235C137.544 138.211 138.354 139.02 139.329 139.02C140.305 139.02 141.114 138.211 141.114 137.235C141.114 136.259 140.305 135.45 139.329 135.45Z" fill="black"/>
<path d="M220.299 109.483H117.433V123.43H220.299V109.483Z" fill="#CAFFE1"/>
<path d="M220.299 124.002H117.433C117.099 124.002 116.838 123.74 116.838 123.406V109.459C116.838 109.126 117.099 108.864 117.433 108.864H220.299C220.633 108.864 220.894 109.126 220.894 109.459V123.406C220.894 123.74 220.633 124.002 220.299 124.002ZM118.028 122.811H219.704V110.054H118.028V122.811Z" fill="black"/>
<path d="M174.221 139.186C173.888 139.186 173.626 138.925 173.626 138.591V109.483C173.626 109.15 173.888 108.888 174.221 108.888C174.554 108.888 174.816 109.15 174.816 109.483V138.591C174.816 138.925 174.554 139.186 174.221 139.186Z" fill="#232323"/>
<path d="M155.347 131.665C155.014 131.665 154.752 131.404 154.752 131.07V109.483C154.752 109.15 155.014 108.888 155.347 108.888C155.68 108.888 155.942 109.15 155.942 109.483V131.07C155.942 131.404 155.68 131.665 155.347 131.665Z" fill="#232323"/>
<path d="M201.187 127.238H174.411C174.078 127.238 173.816 126.977 173.816 126.643C173.816 126.31 174.078 126.048 174.411 126.048H201.187C201.52 126.048 201.782 126.31 201.782 126.643C201.782 126.977 201.52 127.238 201.187 127.238Z" fill="#232323"/>
<path d="M201.187 129.452H174.411C174.078 129.452 173.816 129.19 173.816 128.857C173.816 128.524 174.078 128.262 174.411 128.262H201.187C201.52 128.262 201.782 128.524 201.782 128.857C201.782 129.19 201.52 129.452 201.187 129.452Z" fill="#232323"/>
<path d="M220.299 127.238H216.991C216.658 127.238 216.396 126.977 216.396 126.643C216.396 126.31 216.658 126.048 216.991 126.048H220.299C220.633 126.048 220.894 126.31 220.894 126.643C220.894 126.977 220.633 127.238 220.299 127.238Z" fill="#232323"/>
<path d="M220.299 129.452H216.848C216.515 129.452 216.253 129.19 216.253 128.857C216.253 128.524 216.515 128.262 216.848 128.262H220.299C220.632 128.262 220.894 128.524 220.894 128.857C220.894 129.19 220.632 129.452 220.299 129.452Z" fill="#232323"/>
<path d="M223.012 124.002C222.679 124.002 222.417 123.74 222.417 123.407V109.578C222.417 109.245 222.679 108.983 223.012 108.983C223.346 108.983 223.608 109.245 223.608 109.578V123.407C223.608 123.74 223.346 124.002 223.012 124.002Z" fill="#232323"/>
<path d="M155.347 129.452H117.433C117.099 129.452 116.838 129.19 116.838 128.857C116.838 128.524 117.099 128.262 117.433 128.262H155.347C155.68 128.262 155.942 128.524 155.942 128.857C155.942 129.19 155.68 129.452 155.347 129.452Z" fill="#232323"/>
<path d="M155.347 127.238H117.433C117.099 127.238 116.838 126.977 116.838 126.643C116.838 126.31 117.099 126.048 117.433 126.048H155.347C155.68 126.048 155.942 126.31 155.942 126.643C155.942 126.977 155.68 127.238 155.347 127.238Z" fill="#232323"/>
<path d="M238.531 127.263H241.387L241.982 130.999H238.531V127.263Z" fill="#CAFFE1"/>
<path d="M241.982 131.594H238.531C238.197 131.594 237.936 131.332 237.936 130.999V127.262C237.936 126.929 238.197 126.667 238.531 126.667H241.387C241.672 126.667 241.934 126.882 241.982 127.167L242.577 130.904C242.6 131.071 242.577 131.261 242.434 131.38C242.315 131.523 242.148 131.594 241.982 131.594ZM239.126 130.404H241.291L240.887 127.858H239.126V130.404Z" fill="black"/>
<path d="M240.768 123.406H225.773V109.483H238.65L240.768 123.406Z" fill="#CAFFE1"/>
<path d="M240.768 124.002H225.773C225.44 124.002 225.178 123.74 225.178 123.406V109.459C225.178 109.126 225.44 108.864 225.773 108.864H238.65C238.935 108.864 239.197 109.078 239.245 109.364L241.363 123.311C241.387 123.478 241.363 123.668 241.22 123.787C241.101 123.93 240.935 124.002 240.768 124.002ZM226.369 122.811H240.054L238.126 110.054H226.369V122.811Z" fill="black"/>
<path d="M216.753 131.213C216.42 131.213 216.158 130.952 216.158 130.618V128.857C216.158 128.524 216.42 128.262 216.753 128.262C217.086 128.262 217.348 128.524 217.348 128.857V130.618C217.348 130.952 217.086 131.213 216.753 131.213Z" fill="#232323"/>
<path d="M216.753 129.452C216.42 129.452 216.158 129.19 216.158 128.857V109.483C216.158 109.15 216.42 108.888 216.753 108.888C217.086 108.888 217.348 109.15 217.348 109.483V128.857C217.348 129.19 217.086 129.452 216.753 129.452Z" fill="#232323"/>
<path d="M201.187 139.186C200.854 139.186 200.592 138.925 200.592 138.591V109.483C200.592 109.15 200.854 108.888 201.187 108.888C201.521 108.888 201.782 109.15 201.782 109.483V138.591C201.782 138.925 201.521 139.186 201.187 139.186Z" fill="#232323"/>
<path d="M157.465 127.667C157.465 128.143 157.846 128.524 158.322 128.524C158.798 128.524 159.179 128.143 159.179 127.667C159.179 127.191 158.798 126.811 158.322 126.811C157.846 126.811 157.465 127.191 157.465 127.667Z" fill="white"/>
<path d="M158.322 129.119C157.537 129.119 156.87 128.476 156.87 127.667C156.87 126.858 157.513 126.215 158.322 126.215C159.131 126.215 159.774 126.858 159.774 127.667C159.774 128.476 159.131 129.119 158.322 129.119ZM158.322 127.429C158.179 127.429 158.06 127.548 158.06 127.691C158.06 127.977 158.56 127.977 158.56 127.691C158.56 127.548 158.441 127.429 158.298 127.429H158.322Z" fill="#232323"/>
<path d="M213.921 128.524C214.394 128.524 214.777 128.141 214.777 127.667C214.777 127.194 214.394 126.811 213.921 126.811C213.447 126.811 213.064 127.194 213.064 127.667C213.064 128.141 213.447 128.524 213.921 128.524Z" fill="white"/>
<path d="M213.921 129.119C213.135 129.119 212.469 128.476 212.469 127.667C212.469 126.858 213.111 126.215 213.921 126.215C214.73 126.215 215.372 126.858 215.372 127.667C215.372 128.476 214.73 129.119 213.921 129.119ZM213.921 127.429C213.778 127.429 213.659 127.548 213.659 127.691C213.659 127.977 214.159 127.977 214.159 127.691C214.159 127.548 214.04 127.429 213.897 127.429H213.921Z" fill="#232323"/>
<path d="M112.387 118.908H108.674C108.341 118.908 108.079 118.646 108.079 118.313C108.079 117.98 108.341 117.718 108.674 117.718H112.387C112.72 117.718 112.982 117.98 112.982 118.313C112.982 118.646 112.72 118.908 112.387 118.908Z" fill="#232323"/>
<path d="M115.243 123.669H112.792C112.458 123.669 112.197 123.407 112.197 123.074C112.197 122.74 112.458 122.479 112.792 122.479H115.243C115.576 122.479 115.838 122.74 115.838 123.074C115.838 123.407 115.576 123.669 115.243 123.669Z" fill="#232323"/>
<path d="M115.172 114.196H106.199C105.866 114.196 105.604 113.934 105.604 113.601C105.604 113.268 105.866 113.006 106.199 113.006H115.172C115.505 113.006 115.767 113.268 115.767 113.601C115.767 113.934 115.505 114.196 115.172 114.196Z" fill="#232323"/>
<path d="M103.985 114.196H101.534C101.201 114.196 100.939 113.934 100.939 113.601C100.939 113.268 101.201 113.006 101.534 113.006H103.985C104.318 113.006 104.58 113.268 104.58 113.601C104.58 113.934 104.318 114.196 103.985 114.196Z" fill="#232323"/>
<path d="M110.078 123.669H105.033C104.699 123.669 104.438 123.407 104.438 123.074C104.438 122.74 104.699 122.479 105.033 122.479H110.078C110.411 122.479 110.673 122.74 110.673 123.074C110.673 123.407 110.411 123.669 110.078 123.669Z" fill="#232323"/>
<path d="M106.032 118.908H103.581C103.247 118.908 102.986 118.646 102.986 118.313C102.986 117.98 103.247 117.718 103.581 117.718H106.032C106.365 117.718 106.627 117.98 106.627 118.313C106.627 118.646 106.365 118.908 106.032 118.908Z" fill="#232323"/>
</g>
<defs>
<clipPath id="clip0_707_1269">
<rect width="243.481" height="142.828" fill="white"/>
</clipPath>
</defs>
</svg>
