<svg width="185" height="180" viewBox="0 0 185 180" fill="none" xmlns="http://www.w3.org/2000/svg">
<path d="M74.7583 6.30381C99.4208 6.30381 104.012 13.7546 104.012 37.8316V172.164H29.2533C4.59081 172.164 0 164.713 0 140.636V37.8316C0 13.7546 4.59081 6.30381 29.2533 6.30381H74.7583ZM67.1187 142.168V42.612C67.1187 38.7859 66.1637 36.3082 61.9584 36.3082H41.878C37.6727 36.3082 36.9104 38.7947 36.9104 42.612V135.672C36.9104 139.875 38.2509 142.168 43.2184 142.168H67.1187ZM169.413 66.8817C181.074 66.8817 184.517 75.8646 184.517 83.5079C184.517 91.1513 180.881 100.134 169.413 100.134H162.527V179.431H124.285V18.9202C124.285 6.49643 133.274 0 143.401 0C153.529 0 162.518 6.49643 162.518 18.9202V66.8817H169.404H169.413Z" fill="white"/>
</svg>
