<?xml version="1.0" encoding="UTF-8"?>
<svg id="_레이어_2" data-name="레이어 2" xmlns="http://www.w3.org/2000/svg" viewBox="0 0 32 32">
  <defs>
    <style>
      .cls-1 {
        fill: #38a670;
      }

      .cls-1, .cls-2 {
        stroke-width: 0px;
      }

      .cls-2 {
        fill: #fff;
      }
    </style>
  </defs>
  <g id="_레이어_1-2" data-name="레이어 1">
    <g>
      <rect class="cls-1" width="32" height="32" rx="3.78" ry="3.78"/>
      <path class="cls-2" d="m16,26.86c-.28,0-.58-.03-.92-.09-.33-.06-.66-.15-.97-.27-.32-.12-.59-.27-.81-.44s-.38-.39-.46-.65l-2.98-10.78-1.36,13.29H2.91L5.39,7.04c.04-.45.16-.86.37-1.21.21-.35.46-.65.75-.9.29-.25.61-.44.96-.58.34-.14.68-.23,1.02-.27.35-.02.73,0,1.14.06.4.06.79.18,1.15.37.36.19.69.44.99.77s.51.73.65,1.23l3.57,13.53,3.58-13.53c.14-.49.35-.9.64-1.23.28-.33.61-.58.99-.77.37-.19.76-.31,1.17-.37.4-.06.78-.08,1.14-.06.33.04.67.13,1.02.27.34.14.66.33.96.58.3.25.55.55.75.9.21.35.33.76.37,1.21l2.48,20.89h-5.58l-1.33-13.38-3.01,10.87c-.08.26-.23.47-.46.65s-.5.33-.81.44c-.32.12-.64.21-.97.27-.34.06-.64.09-.92.09Z"/>
    </g>
  </g>
</svg>